<?xml version="1.0" standalone="no"?>
<!DOCTYPE svg PUBLIC "-//W3C//DTD SVG 1.1//EN" "http://www.w3.org/Graphics/SVG/1.1/DTD/svg11.dtd" >
<svg xmlns="http://www.w3.org/2000/svg" xmlns:xlink="http://www.w3.org/1999/xlink" version="1.1">
<metadata>
Created by FontForge 20201107 at Tue May 20 08:22:19 2025
 By 
Copyright (c) 2020 by Martin Va'cha. All rights reserved.
</metadata>
<defs>
<font id="AvanttTRIAL-SemiBold" horiz-adv-x="1269" >
  <font-face 
    font-family="Avantt TRIAL SemiBold"
    font-weight="600"
    font-stretch="normal"
    units-per-em="2048"
    panose-1="0 0 0 0 0 0 0 0 0 0"
    ascent="1638"
    descent="-410"
    x-height="1001"
    cap-height="1434"
    bbox="-283 -516 2353 2183"
    underline-thickness="133"
    underline-position="-251"
    unicode-range="U+0020-E133"
  />
<missing-glyph horiz-adv-x="2201" 
d="M80 631q0 202 78 387.5t209.5 322.5t314 222t383.5 92v-2042q-161 5 -312 59.5t-272 149t-211.5 218.5t-140 276.5t-49.5 314.5zM1139 -383v2032q82 -29 152 -172.5t111.5 -368t41.5 -477.5q0 -252 -41.5 -475.5t-111.5 -366.5t-152 -172zM1294 -350q103 136 163.5 398.5
t60.5 582.5q0 321 -60.5 585.5t-163.5 401.5q221 -96 363.5 -370.5t142.5 -616.5q0 -227 -65 -430t-180 -346.5t-261 -204.5zM1501 -307q172 150 273.5 400t101.5 538q0 289 -101.5 540t-273.5 400q281 -117 452 -374t171 -566t-171 -564.5t-452 -373.5z" />
    <glyph glyph-name=".notdef" horiz-adv-x="2201" 
d="M80 631q0 202 78 387.5t209.5 322.5t314 222t383.5 92v-2042q-161 5 -312 59.5t-272 149t-211.5 218.5t-140 276.5t-49.5 314.5zM1139 -383v2032q82 -29 152 -172.5t111.5 -368t41.5 -477.5q0 -252 -41.5 -475.5t-111.5 -366.5t-152 -172zM1294 -350q103 136 163.5 398.5
t60.5 582.5q0 321 -60.5 585.5t-163.5 401.5q221 -96 363.5 -370.5t142.5 -616.5q0 -227 -65 -430t-180 -346.5t-261 -204.5zM1501 -307q172 150 273.5 400t101.5 538q0 289 -101.5 540t-273.5 400q281 -117 452 -374t171 -566t-171 -564.5t-452 -373.5z" />
    <glyph glyph-name=".null" horiz-adv-x="0" 
 />
    <glyph glyph-name="nonmarkingreturn" horiz-adv-x="682" 
 />
    <glyph glyph-name="space" unicode=" " horiz-adv-x="452" 
 />
    <glyph glyph-name="exclam" unicode="!" horiz-adv-x="536" 
d="M147 1434h242l-8 -1018h-223zM137 0v256h262v-256h-262z" />
    <glyph glyph-name="quotedbl" unicode="&#x22;" horiz-adv-x="747" 
d="M481 948l-41 279v207h205v-207l-43 -279h-121zM102 1227v207h205v-207l-43 -279h-121z" />
    <glyph glyph-name="numbersign" unicode="#" horiz-adv-x="1441" 
d="M1249 1434l-88 -367h205v-199h-252l-74 -303h244v-196h-291l-88 -369h-239l88 369h-256l-88 -369h-236l88 369h-192v196h239l72 303h-229v199h276l88 367h240l-88 -367h254l88 367h239zM547 565h254l73 303h-256z" />
    <glyph glyph-name="dollar" unicode="$" horiz-adv-x="1075" 
d="M635 1675v-227q153 -35 241.5 -154.5t88.5 -287.5h-240q-2 100 -59.5 164.5t-147.5 64.5q-83 0 -136.5 -51t-53.5 -127q0 -53 23 -91.5t61.5 -60.5t88 -38.5t105 -31.5t111 -33t105.5 -49t89 -74t62 -113.5t24 -162.5q1 -166 -99 -280.5t-263 -142.5v-226h-221v236
q-153 42 -245.5 167.5t-92.5 301.5h241q0 -117 64 -189.5t166 -72.5q94 0 153.5 57.5t59.5 148.5q0 54 -23 93t-61.5 63t-88.5 42.5t-105 34.5t-110 35t-105 49t-88.5 71t-61.5 107t-23 151q0 152 88 260t232 141v225h221z" />
    <glyph glyph-name="percent" unicode="%" horiz-adv-x="1656" 
d="M1116 1434h191l-795 -1434h-188zM51 1104q0 154 96 255t244 101t245 -101t97 -255q0 -153 -97.5 -254.5t-244.5 -101.5t-243.5 101.5t-96.5 254.5zM225 1104q0 -88 45.5 -143.5t122.5 -55.5q73 0 118.5 56t45.5 143t-45.5 141.5t-118.5 54.5q-77 0 -122.5 -54.5
t-45.5 -141.5zM924 330q0 154 96 255t244 101t245 -101t97 -255q0 -153 -97.5 -255t-244.5 -102t-243.5 102t-96.5 255zM1098 330q0 -88 45.5 -143.5t122.5 -55.5q73 0 118.5 56t45.5 143t-45.5 141.5t-118.5 54.5q-77 0 -122.5 -54.5t-45.5 -141.5z" />
    <glyph glyph-name="ampersand" unicode="&#x26;" horiz-adv-x="1370" 
d="M541 -27q-206 0 -332.5 106t-126.5 273q0 72 22 133t64.5 108.5t88 82t108.5 69.5q-75 84 -119.5 165t-44.5 173q0 163 116.5 270t288.5 107q170 0 277.5 -99t107.5 -261q0 -58 -17.5 -108.5t-44.5 -88.5t-70 -74t-83 -60.5t-94 -53.5l274 -295q55 88 91 221l26 102h240
l-31 -112q-58 -215 -178 -369l246 -262h-295l-105 113q-184 -140 -409 -140zM313 379q0 -87 68.5 -146t181.5 -59q142 0 252 84l-326 352q-84 -50 -130 -104.5t-46 -126.5zM428 1087q0 -58 33.5 -114t97.5 -125q108 55 165.5 110t57.5 132q0 74 -49 124t-121 50
q-79 0 -131.5 -51t-52.5 -126z" />
    <glyph glyph-name="quotesingle" unicode="'" horiz-adv-x="407" 
d="M143 948l-41 279v207h205v-207l-43 -279h-121z" />
    <glyph glyph-name="parenleft" unicode="(" horiz-adv-x="684" 
d="M518 -309q-179 0 -282 115t-103 323v942q0 210 103 324t282 114h119v-202h-64q-99 0 -156 -59.5t-57 -176.5v-942q0 -116 57 -175.5t156 -59.5h64v-203h-119z" />
    <glyph glyph-name="parenright" unicode=")" horiz-adv-x="684" 
d="M166 1509q179 0 282 -115t103 -323v-942q0 -210 -103 -324t-282 -114h-119v203h64q99 0 156 59.5t57 175.5v942q0 117 -57 176.5t-156 59.5h-64v202h119z" />
    <glyph glyph-name="asterisk" unicode="*" horiz-adv-x="1003" 
d="M297 633l-137 119l200 249l-290 97l59 174l281 -94v288h182v-288l280 94l62 -174l-291 -97l199 -247l-135 -119l-205 254z" />
    <glyph glyph-name="plus" unicode="+" 
d="M156 573v209h364v371h228v-371h364v-209h-364v-370h-228v370h-364z" />
    <glyph glyph-name="comma" unicode="," horiz-adv-x="456" 
d="M203 -59q0 26 -17 42.5t-43 16.5h-49v256h262v-535h-153v220z" />
    <glyph glyph-name="hyphen" unicode="-" horiz-adv-x="790" 
d="M90 465v211h610v-211h-610z" />
    <glyph glyph-name="period" unicode="." horiz-adv-x="483" 
d="M111 256h262v-256h-262v256z" />
    <glyph glyph-name="slash" unicode="/" horiz-adv-x="931" 
d="M29 0l630 1434h244l-629 -1434h-245z" />
    <glyph glyph-name="slash" unicode="&#x2215;" horiz-adv-x="931" 
d="M29 0l630 1434h244l-629 -1434h-245z" />
    <glyph glyph-name="zero" unicode="0" horiz-adv-x="1267" 
d="M633 -27q-244 0 -384 154.5t-140 423.5v332q0 268 140 422.5t384 154.5q245 0 384.5 -154.5t139.5 -422.5v-332q0 -269 -139.5 -423.5t-384.5 -154.5zM354 551q0 -160 75 -254t204 -94t204.5 94t75.5 254v332q0 160 -75.5 254t-204.5 94t-204 -94t-75 -254v-332z" />
    <glyph glyph-name="one" unicode="1" horiz-adv-x="675" 
d="M524 1434v-1434h-239v977h-234v217h80q87 0 126.5 38t39.5 120v82h227z" />
    <glyph glyph-name="two" unicode="2" horiz-adv-x="1126" 
d="M78 0v199l483 479q121 117 169 188t48 158q0 92 -59 149.5t-156 57.5q-107 0 -172.5 -79.5t-60.5 -201.5h-240q-4 221 133.5 365.5t351.5 144.5q197 0 323 -122t126 -304q0 -61 -16.5 -119.5t-40 -103.5t-67.5 -99t-81 -92t-98 -96l-277 -293h592v-231h-958z" />
    <glyph glyph-name="three" unicode="3" horiz-adv-x="1155" 
d="M571 -27q-219 0 -357.5 128.5t-137.5 334.5h239q0 -102 72 -171.5t180 -69.5q106 0 176 63t70 158q0 92 -75.5 151.5t-198.5 59.5h-56v207h56q116 0 188 57.5t72 144.5q0 89 -65 146t-165 57q-104 0 -170.5 -63.5t-66.5 -161.5l-234 2q0 192 133.5 318t337.5 126
q210 0 338.5 -109.5t128.5 -289.5q0 -106 -59 -193.5t-164 -134.5q115 -37 180.5 -125.5t65.5 -208.5q0 -184 -138.5 -305t-349.5 -121z" />
    <glyph glyph-name="four" unicode="4" horiz-adv-x="1169" 
d="M68 315v213l409 906h258l-407 -904h368v322h232v-322h200v-215h-200v-315h-240v315h-620z" />
    <glyph glyph-name="five" unicode="5" horiz-adv-x="1155" 
d="M567 -27q-209 0 -348 126t-145 341h239q9 -106 78.5 -169.5t179.5 -63.5q111 0 185.5 77t74.5 187q0 120 -71 193t-187 73q-136 0 -225 -102h-221l72 799h790v-230h-575l-39 -360q44 38 109 60t134 22q205 0 332 -122.5t127 -340.5q0 -140 -68 -252.5t-184.5 -175
t-257.5 -62.5z" />
    <glyph glyph-name="six" unicode="6" horiz-adv-x="1169" 
d="M592 -27q-219 0 -366.5 141t-147.5 351q0 77 30 174t85 188l380 607h279l-311 -494q44 12 92 12q131 0 238.5 -61.5t170 -172t62.5 -247.5q0 -138 -66.5 -252t-184 -180t-261.5 -66zM319 467q0 -117 78 -195.5t195 -78.5q116 0 194 78.5t78 195.5q0 122 -77 201.5
t-197 79.5q-115 0 -193 -81t-78 -200z" />
    <glyph glyph-name="seven" unicode="7" horiz-adv-x="1028" 
d="M156 0l557 1204h-678v230h952v-205l-563 -1229h-268z" />
    <glyph glyph-name="eight" unicode="8" horiz-adv-x="1179" 
d="M592 -27q-217 0 -358.5 122t-141.5 306q0 114 66.5 208t175.5 145q-207 106 -207 311q0 174 129.5 284.5t335.5 110.5q207 0 335 -111.5t128 -285.5q0 -202 -207 -309q106 -46 174 -143t68 -214q0 -181 -140.5 -302.5t-357.5 -121.5zM336 408q0 -97 73.5 -163.5
t182.5 -66.5q107 0 180.5 66.5t73.5 163.5q0 95 -73.5 161t-180.5 66q-108 0 -182 -65.5t-74 -161.5zM350 1051q0 -92 68 -150.5t174 -58.5q105 0 172 58.5t67 150.5q0 94 -67.5 154.5t-171.5 60.5q-106 0 -174 -60.5t-68 -154.5z" />
    <glyph glyph-name="nine" unicode="9" horiz-adv-x="1167" 
d="M575 1460q220 0 367.5 -141t147.5 -350q0 -77 -30 -174.5t-85 -188.5l-381 -606h-279l312 494q-47 -13 -92 -13q-98 0 -185 36.5t-150 99.5t-100 153t-37 193q0 210 146.5 353.5t365.5 143.5zM303 967q0 -122 77.5 -201.5t197.5 -79.5q115 0 192.5 81t77.5 200
q0 117 -78 195.5t-195 78.5q-116 0 -194 -78.5t-78 -195.5z" />
    <glyph glyph-name="colon" unicode=":" horiz-adv-x="493" 
d="M115 934h262v-256h-262v256zM115 0v256h262v-256h-262z" />
    <glyph glyph-name="semicolon" unicode=";" horiz-adv-x="495" 
d="M115 934h262v-256h-262v256zM117 0v256h262v-535h-154v220q0 26 -16.5 42.5t-42.5 16.5h-49z" />
    <glyph glyph-name="less" unicode="&#x3c;" 
d="M1065 1069v-235l-569 -244l569 -250v-229l-877 391v174z" />
    <glyph glyph-name="equal" unicode="=" 
d="M1114 1014v-209h-956v209h956zM158 358v209h956v-209h-956z" />
    <glyph glyph-name="greater" unicode="&#x3e;" 
d="M203 102v236l569 244l-569 249v230l876 -391v-174z" />
    <glyph glyph-name="question" unicode="?" horiz-adv-x="1019" 
d="M510 1460q200 0 321 -114t121 -285q0 -75 -20.5 -139.5t-53.5 -109.5t-73 -85t-80 -74.5t-73.5 -69t-54.5 -77t-22 -90.5h-231q1 75 22 137.5t53 105t70.5 79t76.5 67.5t70 62.5t51.5 73t19.5 89.5q0 86 -54 141.5t-149 55.5q-106 0 -164.5 -71.5t-56.5 -190.5h-238
q-3 219 122.5 357t342.5 138zM328 0v256h262v-256h-262z" />
    <glyph glyph-name="at" unicode="@" horiz-adv-x="1853" 
d="M920 264q93 0 150.5 66t59.5 174q0 106 -58 171.5t-152 65.5q-91 0 -153 -68t-62 -169t62 -170.5t153 -69.5zM74 494q0 178 64.5 334.5t177 268.5t273 177t345.5 65q193 0 352 -58.5t265 -160t163.5 -238.5t57.5 -294q0 -117 -30.5 -214.5t-81 -160t-114.5 -97
t-133 -34.5q-151 0 -223 145q-44 -61 -129.5 -103t-188.5 -42q-162 0 -275.5 122t-113.5 300q0 174 113.5 296t275.5 122q86 0 152.5 -38t105.5 -108v129h218v-479q0 -78 15 -115t58 -37q65 0 101.5 78t36.5 228q0 121 -41.5 223t-119.5 177t-197 117t-267 42
q-140 0 -261.5 -49t-205.5 -134t-132 -202t-48 -250q0 -294 181 -461.5t531 -167.5h437v-205h-457q-207 0 -378 62.5t-286 172t-178 261t-63 328.5z" />
    <glyph glyph-name="A" unicode="A" horiz-adv-x="1228" 
d="M16 0l486 1434h227l481 -1434h-258l-90 293h-504l-90 -293h-252zM408 516h395l-195 600z" />
    <glyph glyph-name="B" unicode="B" horiz-adv-x="1099" 
d="M147 0v1434h406q187 0 307.5 -103t120.5 -260q0 -110 -66.5 -201t-148.5 -116q103 -21 175.5 -120.5t72.5 -232.5q0 -169 -124 -285t-304 -116h-439zM389 201h176q91 0 148 61t57 152q0 92 -57.5 153.5t-145.5 61.5h-178v-428zM389 829h133q93 0 155 59.5t62 147.5
q0 84 -59 140.5t-150 56.5h-141v-404z" />
    <glyph glyph-name="C" unicode="C" horiz-adv-x="1542" 
d="M807 -27q-122 0 -234.5 36.5t-201.5 104.5t-155.5 159.5t-102 206t-35.5 239.5q0 209 95.5 379t262.5 266t371 96q170 0 315.5 -67t239.5 -187t117 -272h-262q-35 131 -150 215t-260 84q-207 0 -344 -145.5t-137 -368.5q0 -224 137.5 -371t343.5 -147q146 0 262 90
t150 229h262q-41 -243 -230 -395t-444 -152z" />
    <glyph glyph-name="D" unicode="D" horiz-adv-x="1413" 
d="M618 1434q204 0 367.5 -92t255.5 -254.5t92 -364.5q0 -205 -92 -370.5t-255.5 -259t-367.5 -93.5h-471v1434h471zM389 227h246q128 0 231.5 64.5t162 178t58.5 253.5q0 136 -58 246t-161.5 173.5t-232.5 63.5h-246v-979z" />
    <glyph glyph-name="E" unicode="E" horiz-adv-x="970" 
d="M147 1434h734v-228h-492v-348h428v-219h-428v-412h492v-227h-734v1434z" />
    <glyph glyph-name="F" unicode="F" horiz-adv-x="937" 
d="M147 1434h734v-228h-492v-350h428v-227h-428v-629h-242v1434z" />
    <glyph glyph-name="G" unicode="G" horiz-adv-x="1568" 
d="M803 -27q-152 0 -286.5 56.5t-230 155t-151 236t-55.5 294.5q0 156 57 294t154.5 237t233.5 156.5t288 57.5q127 0 238 -37.5t192 -102t137.5 -148t83.5 -179.5h-264q-49 109 -159 176.5t-234 67.5q-130 0 -240 -66t-175.5 -185.5t-65.5 -266.5q0 -149 62.5 -268.5
t174 -187.5t250.5 -68q184 0 301.5 109.5t128.5 266.5h-442v222h686q6 -50 6 -107q0 -145 -50 -275.5t-139 -227t-219 -153.5t-282 -57z" />
    <glyph glyph-name="H" unicode="H" horiz-adv-x="1271" 
d="M147 0v1434h242v-584h494v584h241v-1434h-241v625h-494v-625h-242z" />
    <glyph glyph-name="I" unicode="I" horiz-adv-x="536" 
d="M147 1434h242v-1434h-242v1434z" />
    <glyph glyph-name="J" unicode="J" horiz-adv-x="684" 
d="M115 227q95 0 142.5 49.5t47.5 161.5v996h240v-1065q0 -176 -95.5 -272.5t-265.5 -96.5h-141v227h72z" />
    <glyph glyph-name="K" unicode="K" horiz-adv-x="1116" 
d="M842 0l-453 682v-682h-242v1434h242v-613l424 613h277l-488 -680l524 -754h-284z" />
    <glyph glyph-name="L" unicode="L" horiz-adv-x="921" 
d="M147 1434h242v-1207h494v-227h-736v1434z" />
    <glyph glyph-name="M" unicode="M" horiz-adv-x="1808" 
d="M147 0v1434h326l436 -1119l428 1119h324v-1434h-236v723q0 88 2.5 181t5.5 142l3 48q-48 -167 -111 -353l-301 -741h-231l-306 748q-30 83 -58.5 171t-42.5 135l-13 46q10 -172 10 -371v-729h-236z" />
    <glyph glyph-name="N" unicode="N" horiz-adv-x="1247" 
d="M725 788q39 -79 77 -163t56 -128l19 -44q-11 169 -11 368v613h234v-1434h-213l-363 686q-40 79 -78 163t-56 129l-19 44q12 -170 12 -369v-653h-236v1434h236z" />
    <glyph glyph-name="O" unicode="O" horiz-adv-x="1634" 
d="M817 -27q-153 0 -290 58t-235.5 157.5t-156 237.5t-57.5 291q0 154 57.5 292t156 236.5t235.5 156.5t290 58t289.5 -57.5t234.5 -156.5t155.5 -237t57.5 -292q0 -153 -57.5 -291t-155.5 -237.5t-234.5 -157.5t-289.5 -58zM326 717q0 -142 64.5 -260.5t177.5 -187
t249 -68.5q135 0 248 68t178.5 187t65.5 261t-65.5 261t-178.5 187t-248 68q-136 0 -249 -68.5t-177.5 -187t-64.5 -260.5z" />
    <glyph glyph-name="P" unicode="P" horiz-adv-x="1062" 
d="M147 0v1434h414q203 0 331 -116t128 -304q0 -194 -127.5 -320.5t-327.5 -126.5h-176v-567h-242zM389 791h162q103 0 165 59.5t62 155.5q0 90 -62 146t-165 56h-162v-417z" />
    <glyph glyph-name="Q" unicode="Q" horiz-adv-x="1619" 
d="M836 0q-171 0 -313.5 56t-239 153.5t-150 232t-53.5 289.5q0 205 95 372t261.5 262t370.5 95q152 0 287 -55.5t231.5 -150.5t152.5 -225.5t56 -274.5q0 -163 -69 -299.5t-187 -231.5h309v-223h-751zM328 731q0 -215 137.5 -356.5t341.5 -141.5q205 0 342 141t137 357
q0 215 -137 357.5t-342 142.5t-342 -142.5t-137 -357.5z" />
    <glyph glyph-name="R" unicode="R" horiz-adv-x="1142" 
d="M147 0v1434h420q202 0 330.5 -114.5t128.5 -281.5q0 -111 -49.5 -198t-138.5 -140q90 -49 137 -136t47 -202v-362h-238v336q0 125 -63 182t-193 57h-141v-575h-240zM387 788h166q104 0 167.5 59t63.5 157q0 92 -63.5 148t-167.5 56h-166v-420z" />
    <glyph glyph-name="S" unicode="S" horiz-adv-x="1085" 
d="M553 -27q-204 0 -337.5 136t-133.5 350h242q0 -117 64 -189.5t165 -72.5q94 0 153.5 57.5t59.5 148.5q0 54 -23 93t-61.5 63t-88.5 42.5t-105 34.5t-110 35t-105 49t-88.5 71t-61.5 107t-23 151q0 181 119.5 296t306.5 115q201 0 323 -127.5t122 -326.5h-240
q-2 100 -59.5 164.5t-147.5 64.5q-83 0 -136.5 -51t-53.5 -127q0 -53 23 -91.5t61.5 -60.5t88.5 -38.5t105 -31.5t110.5 -33t106 -49t89.5 -74t62 -113.5t24 -162.5q1 -190 -127 -310t-324 -120z" />
    <glyph glyph-name="T" unicode="T" horiz-adv-x="987" 
d="M37 1206v228h913v-228h-336v-1206h-241v1206h-336z" />
    <glyph glyph-name="U" unicode="U" horiz-adv-x="1259" 
d="M631 -27q-224 0 -360 144t-136 381v936h242v-940q0 -133 69 -213t185 -80q115 0 184.5 80.5t69.5 212.5v940h239v-936q0 -237 -134.5 -381t-358.5 -144z" />
    <glyph glyph-name="V" unicode="V" horiz-adv-x="1230" 
d="M737 0h-243l-476 1434h254l355 -1088l344 1088h241z" />
    <glyph glyph-name="W" unicode="W" horiz-adv-x="1843" 
d="M397 0l-362 1434h254l186 -713q20 -86 38 -173t26 -131l8 -44q35 156 90 346l201 715h196l197 -697q24 -84 46 -170.5t32 -130.5l10 -45q24 155 67 350l181 693h243l-362 -1434h-231l-287 999l-289 -999h-244z" />
    <glyph glyph-name="X" unicode="X" horiz-adv-x="1118" 
d="M809 0l-254 567l-268 -567h-254l379 741l-346 693h266l239 -508l228 508h250l-334 -693l360 -741h-266z" />
    <glyph glyph-name="Y" unicode="Y" horiz-adv-x="1130" 
d="M23 1434h262l282 -592l277 592h262l-420 -861v-573h-240v573z" />
    <glyph glyph-name="Z" unicode="Z" horiz-adv-x="1015" 
d="M92 1434h848v-187l-580 -1020h584v-227h-883v186l580 1020h-549v228z" />
    <glyph glyph-name="bracketleft" unicode="[" horiz-adv-x="698" 
d="M379 1305v-1405h270v-207h-497v1818h497v-206h-270z" />
    <glyph glyph-name="backslash" unicode="\" horiz-adv-x="931" 
d="M903 0h-244l-630 1434h245z" />
    <glyph glyph-name="bracketright" unicode="]" horiz-adv-x="698" 
d="M319 -100v1405h-270v206h498v-1818h-498v207h270z" />
    <glyph glyph-name="asciicircum" unicode="^" 
d="M1108 616h-244l-231 531l-234 -531h-235l360 818h221z" />
    <glyph glyph-name="underscore" unicode="_" horiz-adv-x="1249" 
d="M84 -236v216h1081v-216h-1081z" />
    <glyph glyph-name="grave" unicode="`" horiz-adv-x="860" 
d="M205 1413h262l188 -307h-209z" />
    <glyph glyph-name="a" unicode="a" horiz-adv-x="1079" 
d="M455 -27q-169 0 -271 84.5t-102 223.5q0 151 123 242t348 91h180v25q0 94 -54.5 148.5t-150.5 54.5q-84 0 -144.5 -48t-66.5 -124h-227q7 158 130.5 258t311.5 100q199 0 315 -111.5t116 -298.5v-618h-224v104q-50 -59 -126.5 -95t-157.5 -36zM305 287q0 -61 44 -98
t124 -37q113 0 189.5 80t76.5 198v16h-180q-125 0 -189.5 -40.5t-64.5 -118.5z" />
    <glyph glyph-name="b" unicode="b" 
d="M690 -27q-95 0 -181.5 34t-150.5 95v-102h-229v1434h229v-535q64 61 150.5 95t181.5 34q142 0 258.5 -68t184 -189.5t67.5 -272.5q0 -228 -146.5 -376.5t-363.5 -148.5zM358 502q0 -136 89 -222.5t221 -86.5q129 0 218 88.5t89 220.5q0 130 -89.5 219.5t-217.5 89.5
q-131 0 -220.5 -88t-89.5 -221z" />
    <glyph glyph-name="c" unicode="c" horiz-adv-x="1132" 
d="M594 -27q-145 0 -265 68.5t-189.5 189.5t-69.5 269q0 111 41 209t111 168t167 110.5t205 40.5q182 0 318 -109.5t159 -275.5h-231q-17 73 -88.5 122.5t-161.5 49.5q-127 0 -212 -89.5t-85 -225.5q0 -135 85.5 -224.5t211.5 -89.5q90 0 161.5 51t90.5 130h229
q-20 -173 -156 -283.5t-321 -110.5z" />
    <glyph glyph-name="d" unicode="d" 
d="M578 -27q-217 0 -363.5 148.5t-146.5 376.5q0 151 67.5 272.5t184 189.5t258.5 68q95 0 181 -34t150 -95v535h230v-1434h-230v102q-64 -61 -150 -95t-181 -34zM293 502q0 -132 89 -220.5t218 -88.5q132 0 220.5 86.5t88.5 222.5q0 133 -89 221t-220 88
q-128 0 -217.5 -89.5t-89.5 -219.5z" />
    <glyph glyph-name="e" unicode="e" horiz-adv-x="1146" 
d="M584 -27q-222 0 -369 149.5t-147 366.5q0 150 72 274.5t192.5 194.5t259.5 70q208 0 348.5 -140t140.5 -345q0 -43 -8 -103h-782q17 -124 102 -198t205 -74q90 0 158 41t88 108h225q-38 -151 -169 -247.5t-316 -96.5zM307 627h541q-6 87 -78.5 147t-177.5 60
q-97 0 -174 -56t-111 -151z" />
    <glyph glyph-name="f" unicode="f" horiz-adv-x="714" 
d="M33 803v198h192v84q0 176 84.5 262.5t263.5 86.5h125v-187h-98q-145 0 -145 -143v-103h243v-198h-243v-803h-230v803h-192z" />
    <glyph glyph-name="g" unicode="g" horiz-adv-x="1247" 
d="M475 -385q-186 0 -280.5 91.5t-94.5 250.5v29h228v-27q0 -69 49 -109t143 -40h176q98 0 145.5 50t47.5 154v136q-135 -119 -316 -119q-216 0 -358.5 139t-142.5 358q0 216 143.5 359t357.5 143q191 0 328 -131v102h217v-981q0 -190 -102.5 -297.5t-292.5 -107.5h-248z
M303 528q0 -129 85 -216t212 -87q130 0 215.5 85.5t85.5 217.5q0 130 -86 215.5t-215 85.5q-127 0 -212 -87t-85 -214z" />
    <glyph glyph-name="h" unicode="h" horiz-adv-x="1161" 
d="M129 0v1434h223v-535q123 129 295 129q179 0 288 -122t109 -331v-575h-229v569q0 109 -59 178.5t-162 69.5q-104 0 -171 -71t-67 -189v-557h-227z" />
    <glyph glyph-name="i" unicode="i" horiz-adv-x="487" 
d="M129 1001h229v-1001h-229v1001zM123 1180v252h242v-252h-242z" />
    <glyph glyph-name="j" unicode="j" horiz-adv-x="487" 
d="M31 -180q46 0 72 27.5t26 78.5v1075h229v-1085q0 -165 -76.5 -233t-222.5 -68h-100v205h72zM123 1180v252h242v-252h-242z" />
    <glyph glyph-name="k" unicode="k" horiz-adv-x="1030" 
d="M129 0v1434h229v-844l371 411h279l-435 -477l469 -524h-294l-390 453v-453h-229z" />
    <glyph glyph-name="l" unicode="l" horiz-adv-x="487" 
d="M358 1434v-1434h-229v1434h229z" />
    <glyph glyph-name="m" unicode="m" horiz-adv-x="1792" 
d="M131 0v1001h244v-90q58 59 132 88t144 29q94 0 170.5 -41.5t124.5 -116.5q60 75 153.5 116.5t198.5 41.5q171 0 273 -109t102 -294v-625h-227v571q0 115 -54.5 180.5t-150.5 65.5q-93 0 -159 -64t-66 -184v-569h-228v571q0 115 -56.5 180.5t-156.5 65.5
q-92 0 -154.5 -67.5t-62.5 -196.5v-553h-227z" />
    <glyph glyph-name="n" unicode="n" horiz-adv-x="1159" 
d="M129 0v1001h223v-102q123 129 295 129q179 0 288 -122t109 -331v-575h-229v569q0 109 -59 178.5t-162 69.5q-104 0 -171 -71t-67 -189v-557h-227z" />
    <glyph glyph-name="o" unicode="o" horiz-adv-x="1191" 
d="M596 -27q-221 0 -374.5 153t-153.5 374t153.5 374.5t374.5 153.5t374.5 -153.5t153.5 -374.5t-153.5 -374t-374.5 -153zM291 500q0 -134 88 -225t217 -91q128 0 216.5 91.5t88.5 224.5q0 134 -88.5 225.5t-216.5 91.5q-129 0 -217 -91t-88 -226z" />
    <glyph glyph-name="p" unicode="p" 
d="M129 -385v1386h227v-102q64 61 151 95t183 34q217 0 363.5 -148t146.5 -376q0 -151 -67.5 -273t-184 -190t-258.5 -68q-96 0 -183 34t-151 95v-487h-227zM356 500q0 -133 90.5 -221.5t221.5 -88.5q128 0 217.5 90t89.5 220q0 132 -89 220.5t-218 88.5
q-133 0 -222.5 -86.5t-89.5 -222.5z" />
    <glyph glyph-name="q" unicode="q" horiz-adv-x="1257" 
d="M899 102q-135 -129 -326 -129q-216 0 -359.5 150.5t-143.5 380.5q0 229 143 376.5t360 147.5q191 0 326 -129v102h229v-1386h-229v487zM295 500q0 -131 87 -220.5t214 -89.5q130 0 216.5 88t86.5 222q0 137 -85.5 223t-217.5 86q-128 0 -214.5 -88t-86.5 -221z" />
    <glyph glyph-name="r" unicode="r" horiz-adv-x="733" 
d="M356 1001v-129q92 129 246 129h105v-198h-117q-108 0 -171 -65.5t-63 -180.5v-557h-227v1001h227z" />
    <glyph glyph-name="s" unicode="s" horiz-adv-x="950" 
d="M481 -27q-179 0 -291 88.5t-122 245.5h217q6 -70 59.5 -112.5t138.5 -42.5q83 0 131 36t48 93q0 43 -32 71.5t-83 43.5t-112.5 28t-123 32.5t-112.5 48t-83 82.5t-32 130q0 139 106 225t271 86q167 0 276.5 -80t126.5 -227h-223q-9 58 -60 96.5t-122 38.5
q-69 0 -115.5 -30t-46.5 -87q0 -40 32.5 -65.5t84 -39.5t114 -25.5t125 -31t114 -49t84 -86t32.5 -135.5q0 -148 -112 -241t-290 -93z" />
    <glyph glyph-name="t" unicode="t" horiz-adv-x="759" 
d="M20 803v198h189v267h229v-267h269v-198h-269v-451q0 -153 148 -153h121v-199h-150q-348 0 -348 336v467h-189z" />
    <glyph glyph-name="u" unicode="u" horiz-adv-x="1161" 
d="M1032 1001v-1001h-223v102q-123 -129 -295 -129q-179 0 -288 122t-109 331v575h229v-569q0 -109 59 -178.5t162 -69.5q104 0 171 71t67 189v557h227z" />
    <glyph glyph-name="v" unicode="v" horiz-adv-x="1069" 
d="M416 0l-398 1001h256l267 -712l266 712h246l-400 -1001h-237z" />
    <glyph glyph-name="w" unicode="w" horiz-adv-x="1570" 
d="M352 0l-329 1001h243l211 -665l221 665h191l221 -651l205 651h233l-329 -1001h-201l-234 655l-231 -655h-201z" />
    <glyph glyph-name="x" unicode="x" horiz-adv-x="997" 
d="M719 0l-223 365l-226 -365h-254l334 518l-319 483h262l213 -335l203 335h254l-308 -493l324 -508h-260z" />
    <glyph glyph-name="y" unicode="y" horiz-adv-x="1060" 
d="M18 1001h244l270 -675l269 675h246l-580 -1386h-244l193 442z" />
    <glyph glyph-name="z" unicode="z" horiz-adv-x="997" 
d="M57 0v182l574 621h-553v198h850v-182l-574 -620h578v-199h-875z" />
    <glyph glyph-name="braceleft" unicode="{" horiz-adv-x="763" 
d="M586 -309q-157 0 -255 97.5t-98 256.5v270q0 71 -48.5 123.5t-129.5 67.5v188q81 15 129.5 68.5t48.5 124.5v268q0 159 98 256.5t255 97.5h127v-202h-70q-82 0 -131 -49.5t-49 -143.5v-256q0 -89 -41.5 -155.5t-110.5 -104.5q69 -38 110.5 -104.5t41.5 -155.5v-240
q0 -95 50 -148.5t130 -53.5h70v-205h-127z" />
    <glyph glyph-name="bar" unicode="|" horiz-adv-x="536" 
d="M150 1634h237v-1958h-237v1958z" />
    <glyph glyph-name="braceright" unicode="}" horiz-adv-x="763" 
d="M178 1511q157 0 254.5 -97.5t97.5 -256.5v-270q0 -71 49 -123.5t130 -67.5v-188q-81 -15 -130 -68.5t-49 -124.5v-268q0 -159 -97.5 -256.5t-254.5 -97.5h-127v203h70q82 0 131 49t49 143v256q0 89 41.5 155.5t110.5 104.5q-69 38 -110.5 104.5t-41.5 155.5v240
q0 95 -50 149t-130 54h-70v204h127z" />
    <glyph glyph-name="asciitilde" unicode="~" 
d="M150 440q0 186 83 290t195 104q58 0 119.5 -26t104 -57t89 -57t78.5 -26q44 0 72.5 41t28.5 122l206 3q0 -187 -83.5 -290.5t-196.5 -103.5q-47 0 -94.5 17t-86.5 41t-74.5 48t-70.5 41t-63 17q-44 0 -73.5 -43t-29.5 -121h-204z" />
    <glyph glyph-name="uni00A0" unicode="&#xa0;" horiz-adv-x="452" 
 />
    <glyph glyph-name="exclamdown" unicode="&#xa1;" horiz-adv-x="505" 
d="M133 -432l8 1018h226l6 -1018h-240zM121 745v256h262v-256h-262z" />
    <glyph glyph-name="cent" unicode="&#xa2;" horiz-adv-x="1189" 
d="M729 1247v-229q147 -29 250 -132t123 -243h-232q-17 73 -88 122.5t-161 49.5q-127 0 -212 -89.5t-85 -225.5q0 -135 85.5 -224.5t211.5 -89.5q90 0 161 51t90 130h230q-17 -147 -120 -250t-253 -133v-230h-227v234q-176 40 -289 180.5t-113 331.5t113 332.5t289 181.5
v233h227z" />
    <glyph glyph-name="sterling" unicode="&#xa3;" horiz-adv-x="1208" 
d="M92 610v203h160v180q0 209 123 341t317 132q188 0 308.5 -119t123.5 -298l-239 2q-6 85 -60 138.5t-133 53.5q-92 0 -146 -65t-54 -174v-191h413v-203h-413v-90q0 -167 -132 -293h773v-227h-1051v217q170 101 170 289v104h-160z" />
    <glyph glyph-name="currency" unicode="&#xa4;" horiz-adv-x="1431" 
d="M1251 717q0 -156 -90 -287l185 -184l-156 -158l-186 188q-119 -90 -285 -90q-162 0 -291 93l-188 -189l-154 154l188 186q-94 132 -94 287q0 162 94 289l-190 186l156 158l190 -191q127 94 289 94q158 0 287 -92l186 187l154 -156l-187 -184q92 -129 92 -291zM395 717
q0 -134 95.5 -231t228.5 -97q132 0 224.5 95.5t92.5 232.5q0 139 -92.5 235.5t-224.5 96.5q-133 0 -228.5 -97.5t-95.5 -234.5z" />
    <glyph glyph-name="yen" unicode="&#xa5;" horiz-adv-x="1202" 
d="M82 1434h262l260 -594l254 594h260l-244 -533h222v-205h-316l-57 -123v-41h373v-204h-373v-328h-240v328h-377v204h377v41l-57 123h-320v205h224z" />
    <glyph glyph-name="brokenbar" unicode="&#xa6;" horiz-adv-x="536" 
d="M150 901v733h237v-733h-237zM150 -324v738h237v-738h-237z" />
    <glyph glyph-name="section" unicode="&#xa7;" horiz-adv-x="1114" 
d="M578 -393q-110 0 -194.5 33.5t-134.5 92.5t-74 134.5t-21 163.5h211q-3 -105 54 -169.5t161 -64.5q87 0 138.5 47t51.5 129q0 137 -174 185l-254 69q-116 31 -184 113.5t-68 214.5q0 79 38.5 157t104.5 132q-92 89 -92 237q0 171 113 275t281 104q111 0 195.5 -33.5
t134 -93t73 -134.5t20.5 -163h-208q2 104 -55 169t-160 65q-89 0 -141 -47t-52 -129q0 -136 176 -187l254 -67q116 -32 183 -114t67 -216q0 -78 -38 -155.5t-103 -131.5q92 -92 92 -239q0 -171 -112.5 -274t-282.5 -103zM291 565q0 -129 151 -168l195 -53q49 -14 84 -29
q100 80 100 185q0 64 -39 107.5t-110 62.5l-197 53q-36 10 -82 27q-99 -82 -102 -185z" />
    <glyph glyph-name="dieresis" unicode="&#xa8;" horiz-adv-x="1042" 
d="M602 1354h236v-217h-236v217zM205 1137v217h235v-217h-235z" />
    <glyph glyph-name="copyright" unicode="&#xa9;" horiz-adv-x="1691" 
d="M846 -27q-150 0 -288 59.5t-237.5 159t-159 237.5t-59.5 288q0 151 59.5 288.5t159 237t237.5 158.5t288 59q151 0 288.5 -59t237 -158.5t158.5 -237t59 -288.5q0 -150 -59 -288t-158.5 -237.5t-237 -159t-288.5 -59.5zM207 717q0 -131 50.5 -250.5t136.5 -206
t204 -137.5t248 -51t248.5 51t204.5 137.5t137 206t51 250.5t-51 251t-137 206.5t-204.5 138t-248.5 51.5t-248 -51.5t-204 -138t-136.5 -206.5t-50.5 -251zM455 721q0 175 114 292t283 117q146 0 250 -84t121 -215h-168q-17 66 -75 110t-128 44q-102 0 -171 -74.5
t-69 -189.5t68.5 -190.5t171.5 -75.5q71 0 129.5 46t75.5 117h168q-20 -136 -125 -222.5t-248 -86.5q-169 0 -283 118.5t-114 293.5z" />
    <glyph glyph-name="ordfeminine" unicode="&#xaa;" horiz-adv-x="974" 
d="M373 553q-130 0 -205.5 67t-75.5 183q0 130 102.5 206t272.5 76h178v31q0 85 -43.5 129.5t-122.5 44.5q-68 0 -117 -40.5t-53 -104.5h-207q6 135 115 225t268 90q171 0 271 -95.5t100 -256.5v-528h-211v104q-48 -61 -118.5 -96t-153.5 -35zM303 823q0 -49 35.5 -79.5
t99.5 -30.5q93 0 154 67t61 166v15l-149 -5q-201 -6 -201 -133z" />
    <glyph glyph-name="guillemotleft" unicode="&#xab;" horiz-adv-x="1310" 
d="M1206 25l-571 413v172l571 414v-236l-358 -262l358 -262v-239zM90 438v172l572 414v-236l-359 -262l359 -262v-239z" />
    <glyph glyph-name="logicalnot" unicode="&#xac;" 
d="M1110 754v-643h-227v430h-738v213h965z" />
    <glyph glyph-name="uni00AD" unicode="&#xad;" horiz-adv-x="790" 
d="M90 465v211h610v-211h-610z" />
    <glyph glyph-name="registered" unicode="&#xae;" horiz-adv-x="927" 
d="M463 719q-154 0 -262.5 108t-108.5 263q0 154 108.5 262t262.5 108t262.5 -108t108.5 -262t-108.5 -262.5t-262.5 -108.5zM158 1090q0 -128 89.5 -219t215.5 -91t215.5 91t89.5 219t-89.5 218.5t-215.5 90.5t-215.5 -90.5t-89.5 -218.5zM344 895v393h119q56 0 92.5 -32.5
t36.5 -77.5q0 -30 -14.5 -55.5t-38.5 -37.5q51 -28 51 -94v-96h-72v90q0 62 -63 62h-39v-152h-72zM416 1108h43q26 0 42.5 16t16.5 41q0 26 -16 41t-43 15h-43v-113z" />
    <glyph glyph-name="macron" unicode="&#xaf;" horiz-adv-x="1077" 
d="M205 1128v183h667v-183h-667z" />
    <glyph glyph-name="degree" unicode="&#xb0;" horiz-adv-x="978" 
d="M489 686q-167 0 -281 112.5t-114 276.5q0 166 114 278.5t281 112.5t281.5 -112.5t114.5 -278.5q0 -164 -114.5 -276.5t-281.5 -112.5zM291 1077q0 -86 56.5 -143t141.5 -57q84 0 140.5 57t56.5 143q0 85 -57 142t-140 57q-85 0 -141.5 -57t-56.5 -142z" />
    <glyph glyph-name="plusminus" unicode="&#xb1;" 
d="M178 743v211h342v328h230v-328h344v-211h-344v-325h-230v325h-342zM178 111v204h916v-204h-916z" />
    <glyph glyph-name="acute" unicode="&#xb4;" horiz-adv-x="856" 
d="M651 1413l-239 -307h-207l196 307h250z" />
    <glyph glyph-name="uni00B5" unicode="&#xb5;" horiz-adv-x="1187" 
d="M135 -385v1386h230v-569q0 -109 59.5 -178.5t163.5 -69.5q103 0 169 71t66 189v557h230v-1001h-224v154q-48 -85 -130.5 -133t-186.5 -48q-80 0 -147 39v-397h-230z" />
    <glyph glyph-name="paragraph" unicode="&#xb6;" horiz-adv-x="1361" 
d="M479 -385v938q-204 12 -324 134.5t-120 305.5q0 125 58 224t173 158t269 59h761v-228h-172v-1591h-217v1591h-211v-1591h-217z" />
    <glyph glyph-name="periodcentered" unicode="&#xb7;" horiz-adv-x="487" 
d="M113 860h262v-250h-262v250z" />
    <glyph glyph-name="cedilla" unicode="&#xb8;" horiz-adv-x="765" 
d="M412 39v-27l-58 -143h21q80 0 133 -53.5t53 -134.5q0 -86 -53.5 -141.5t-136.5 -55.5h-166v115h135q40 0 65 22t25 57t-25 57.5t-65 22.5h-121v97l72 184h121z" />
    <glyph glyph-name="ordmasculine" unicode="&#xba;" horiz-adv-x="1069" 
d="M532 1460q195 0 326 -130.5t131 -325.5q0 -197 -131 -329t-326 -132q-194 0 -323 129.5t-129 324.5q0 196 129.5 329.5t322.5 133.5zM291 999q0 -107 70.5 -179t173.5 -72t172 72t69 179q0 110 -69 184t-172 74t-173.5 -74t-70.5 -184z" />
    <glyph glyph-name="guillemotright" unicode="&#xbb;" horiz-adv-x="1310" 
d="M104 1026l572 -414v-172l-572 -413v235l359 262l-359 262v240zM649 27v235l359 262l-359 262v240l572 -414v-172z" />
    <glyph glyph-name="onequarter" unicode="&#xbc;" horiz-adv-x="1509" 
d="M350 1436v-861h-153v576h-142v141h47q53 0 78 23t25 74v47h145zM190 0l793 1434h191l-795 -1434h-189zM831 186v138l242 536h164l-240 -534h209v186h150v-186h117v-140h-117v-186h-156v186h-369z" />
    <glyph glyph-name="onehalf" unicode="&#xbd;" horiz-adv-x="1572" 
d="M350 1436v-861h-153v576h-142v141h47q53 0 78 23t25 74v47h145zM190 0l793 1434h191l-795 -1434h-189zM922 0v127l284 279q72 69 101.5 111t29.5 93q0 52 -33.5 85.5t-86.5 33.5q-61 0 -100.5 -46.5t-37.5 -115.5h-151q-1 136 83 223t212 87q118 0 195 -75t77 -184
q0 -86 -45 -152.5t-141 -158.5l-152 -160h344v-147h-579z" />
    <glyph glyph-name="threequarters" unicode="&#xbe;" horiz-adv-x="1705" 
d="M365 559q-133 0 -218 78t-84 203h154q0 -58 40.5 -98t102.5 -40q61 0 101.5 35.5t40.5 89.5q0 51 -45 85t-115 34h-31v133h31q67 0 108.5 33t41.5 84q0 50 -37 81.5t-93 31.5q-60 0 -97.5 -35.5t-37.5 -91.5l-151 2q0 116 81 192t205 76q125 0 204 -67t79 -175
q0 -62 -35 -113.5t-96 -80.5q66 -22 105.5 -75.5t39.5 -125.5q0 -110 -84 -183t-210 -73zM385 0l793 1434h190l-795 -1434h-188zM1026 186v138l242 536h164l-240 -534h209v186h149v-186h117v-140h-117v-186h-155v186h-369z" />
    <glyph glyph-name="questiondown" unicode="&#xbf;" horiz-adv-x="997" 
d="M494 -459q-200 0 -321.5 114.5t-121.5 285.5q0 75 20.5 139.5t53.5 109.5t73 85t80 74.5t73.5 69t54.5 77t22 90.5h231q-1 -75 -21.5 -137.5t-52.5 -105t-70.5 -79t-77 -68t-70 -63t-51 -73t-19.5 -89.5q0 -86 54 -141t149 -55q106 0 164.5 71.5t56.5 190.5h237
q3 -220 -122 -358t-342 -138zM414 745v256h262v-256h-262z" />
    <glyph glyph-name="Agrave" unicode="&#xc0;" horiz-adv-x="1228" 
d="M16 0l486 1434h227l481 -1434h-258l-90 293h-504l-90 -293h-252zM266 1780h262l197 -262h-209zM408 516h395l-195 600z" />
    <glyph glyph-name="Aacute" unicode="&#xc1;" horiz-adv-x="1228" 
d="M16 0l486 1434h227l481 -1434h-258l-90 293h-504l-90 -293h-252zM408 516h395l-195 600zM496 1518l194 262h262l-247 -262h-209z" />
    <glyph glyph-name="Acircumflex" unicode="&#xc2;" horiz-adv-x="1228" 
d="M16 0l486 1434h227l481 -1434h-258l-90 293h-504l-90 -293h-252zM236 1518l253 274h248l252 -274h-231l-144 149l-147 -149h-231zM408 516h395l-195 600z" />
    <glyph glyph-name="Atilde" unicode="&#xc3;" horiz-adv-x="1228" 
d="M16 0l486 1434h227l481 -1434h-258l-90 293h-504l-90 -293h-252zM227 1518q1 128 61 201t154 73q46 0 97 -18.5t87.5 -40t74 -40t59.5 -18.5q72 0 80 107h161q-1 -127 -64 -201t-159 -74q-46 0 -95 18t-83.5 39.5t-71.5 39.5t-61 18q-31 0 -53 -26.5t-25 -77.5h-162z
M408 516h395l-195 600z" />
    <glyph glyph-name="Adieresis" unicode="&#xc4;" horiz-adv-x="1228" 
d="M16 0l486 1434h227l481 -1434h-258l-90 293h-504l-90 -293h-252zM281 1522v211h225v-211h-225zM408 516h395l-195 600zM721 1522v211h225v-211h-225z" />
    <glyph glyph-name="Aring" unicode="&#xc5;" horiz-adv-x="1228" 
d="M16 0l486 1434h227l481 -1434h-258l-90 293h-504l-90 -293h-252zM332 1741q0 105 80.5 175.5t201.5 70.5q120 0 200.5 -71t80.5 -175t-80.5 -175t-200.5 -71q-121 0 -201.5 70.5t-80.5 175.5zM408 516h395l-195 600zM481 1741q0 -51 38 -86t95 -35q55 0 93 35t38 86
t-37.5 85t-93.5 34q-57 0 -95 -34t-38 -85z" />
    <glyph glyph-name="AE" unicode="&#xc6;" horiz-adv-x="1622" 
d="M-33 0l690 1434h875v-228h-485v-348h421v-219h-421v-412h485v-227h-725v317h-414l-155 -317h-271zM485 543h322v688z" />
    <glyph glyph-name="Ccedilla" unicode="&#xc7;" horiz-adv-x="1542" 
d="M78 719q0 209 95.5 379t262.5 266t371 96q170 0 315.5 -67t239.5 -187t117 -272h-262q-35 131 -150 215t-260 84q-207 0 -344 -145.5t-137 -368.5q0 -224 137.5 -371t343.5 -147q146 0 262 90t150 229h262q-38 -227 -208.5 -376.5t-404.5 -168.5l-43 -106h21
q80 0 133 -53.5t53 -134.5q0 -86 -53.5 -141.5t-136.5 -55.5h-166v115h135q40 0 65 22t25 57t-25 57.5t-65 22.5h-121v97l47 122q-140 12 -262.5 74.5t-209.5 160t-137 229t-50 278.5z" />
    <glyph glyph-name="Egrave" unicode="&#xc8;" horiz-adv-x="970" 
d="M147 1434h734v-228h-492v-348h428v-219h-428v-412h492v-227h-734v1434zM176 1780h262l197 -262h-209z" />
    <glyph glyph-name="Eacute" unicode="&#xc9;" horiz-adv-x="970" 
d="M147 1434h734v-228h-492v-348h428v-219h-428v-412h492v-227h-734v1434zM403 1518l195 262h262l-248 -262h-209z" />
    <glyph glyph-name="Ecircumflex" unicode="&#xca;" horiz-adv-x="970" 
d="M147 1434h734v-228h-492v-348h428v-219h-428v-412h492v-227h-734v1434zM145 1518l254 274h248l252 -274h-231l-144 149l-147 -149h-232z" />
    <glyph glyph-name="Edieresis" unicode="&#xcb;" horiz-adv-x="970" 
d="M147 1434h734v-228h-492v-348h428v-219h-428v-412h492v-227h-734v1434zM190 1522v211h226v-211h-226zM631 1522v211h225v-211h-225z" />
    <glyph glyph-name="Igrave" unicode="&#xcc;" horiz-adv-x="536" 
d="M147 1434h242v-1434h-242v1434zM-80 1780h262l197 -262h-209z" />
    <glyph glyph-name="Iacute" unicode="&#xcd;" horiz-adv-x="536" 
d="M147 1434h242v-1434h-242v1434zM150 1518l194 262h262l-248 -262h-208z" />
    <glyph glyph-name="Icircumflex" unicode="&#xce;" horiz-adv-x="536" 
d="M147 1434h242v-1434h-242v1434zM-111 1518l254 274h248l252 -274h-231l-144 149l-147 -149h-232z" />
    <glyph glyph-name="Idieresis" unicode="&#xcf;" horiz-adv-x="536" 
d="M147 1434h242v-1434h-242v1434zM-66 1522v211h226v-211h-226zM375 1522v211h225v-211h-225z" />
    <glyph glyph-name="Eth" unicode="&#xd0;" horiz-adv-x="1470" 
d="M66 606v228h139v600h471q204 0 367.5 -92t255.5 -254.5t92 -364.5q0 -205 -92 -370.5t-255.5 -259t-367.5 -93.5h-471v606h-139zM446 227h246q195 0 324 141.5t129 354.5q0 206 -128.5 344.5t-324.5 138.5h-246v-379h324v-215h-324v-385z" />
    <glyph glyph-name="Ntilde" unicode="&#xd1;" horiz-adv-x="1247" 
d="M725 788q39 -79 77 -163t56 -128l19 -44q-11 169 -11 368v613h234v-1434h-213l-363 686q-40 79 -78 163t-56 129l-19 44q12 -170 12 -369v-653h-236v1434h236zM238 1518q1 128 61 201t154 73q46 0 97 -18.5t87 -40t73.5 -40t59.5 -18.5q72 0 80 107h162
q-1 -127 -64.5 -201t-159.5 -74q-46 0 -95 18t-83.5 39.5t-71.5 39.5t-61 18q-31 0 -53 -26.5t-25 -77.5h-161z" />
    <glyph glyph-name="Ograve" unicode="&#xd2;" horiz-adv-x="1634" 
d="M817 -27q-153 0 -290 58t-235.5 157.5t-156 237.5t-57.5 291q0 154 57.5 292t156 236.5t235.5 156.5t290 58t289.5 -57.5t234.5 -156.5t155.5 -237t57.5 -292q0 -153 -57.5 -291t-155.5 -237.5t-234.5 -157.5t-289.5 -58zM326 717q0 -142 64.5 -260.5t177.5 -187
t249 -68.5q135 0 248 68t178.5 187t65.5 261t-65.5 261t-178.5 187t-248 68q-136 0 -249 -68.5t-177.5 -187t-64.5 -260.5zM469 1780h262l197 -262h-209z" />
    <glyph glyph-name="Oacute" unicode="&#xd3;" horiz-adv-x="1634" 
d="M817 -27q-153 0 -290 58t-235.5 157.5t-156 237.5t-57.5 291q0 154 57.5 292t156 236.5t235.5 156.5t290 58t289.5 -57.5t234.5 -156.5t155.5 -237t57.5 -292q0 -153 -57.5 -291t-155.5 -237.5t-234.5 -157.5t-289.5 -58zM326 717q0 -142 64.5 -260.5t177.5 -187
t249 -68.5q135 0 248 68t178.5 187t65.5 261t-65.5 261t-178.5 187t-248 68q-136 0 -249 -68.5t-177.5 -187t-64.5 -260.5zM698 1518l195 262h262l-248 -262h-209z" />
    <glyph glyph-name="Ocircumflex" unicode="&#xd4;" horiz-adv-x="1634" 
d="M817 -27q-153 0 -290 58t-235.5 157.5t-156 237.5t-57.5 291q0 154 57.5 292t156 236.5t235.5 156.5t290 58t289.5 -57.5t234.5 -156.5t155.5 -237t57.5 -292q0 -153 -57.5 -291t-155.5 -237.5t-234.5 -157.5t-289.5 -58zM326 717q0 -142 64.5 -260.5t177.5 -187
t249 -68.5q135 0 248 68t178.5 187t65.5 261t-65.5 261t-178.5 187t-248 68q-136 0 -249 -68.5t-177.5 -187t-64.5 -260.5zM440 1518l254 274h248l252 -274h-231l-144 149l-147 -149h-232z" />
    <glyph glyph-name="Otilde" unicode="&#xd5;" horiz-adv-x="1634" 
d="M817 -27q-153 0 -290 58t-235.5 157.5t-156 237.5t-57.5 291q0 154 57.5 292t156 236.5t235.5 156.5t290 58t289.5 -57.5t234.5 -156.5t155.5 -237t57.5 -292q0 -153 -57.5 -291t-155.5 -237.5t-234.5 -157.5t-289.5 -58zM326 717q0 -142 64.5 -260.5t177.5 -187
t249 -68.5q135 0 248 68t178.5 187t65.5 261t-65.5 261t-178.5 187t-248 68q-136 0 -249 -68.5t-177.5 -187t-64.5 -260.5zM430 1518q1 128 61 201t154 73q46 0 97 -18.5t87.5 -40t74 -40t59.5 -18.5q71 0 79 107h162q-1 -127 -64 -201t-159 -74q-46 0 -95 18t-83.5 39.5
t-71.5 39.5t-61 18q-31 0 -53 -26.5t-25 -77.5h-162z" />
    <glyph glyph-name="Odieresis" unicode="&#xd6;" horiz-adv-x="1634" 
d="M817 -27q-153 0 -290 58t-235.5 157.5t-156 237.5t-57.5 291q0 154 57.5 292t156 236.5t235.5 156.5t290 58t289.5 -57.5t234.5 -156.5t155.5 -237t57.5 -292q0 -153 -57.5 -291t-155.5 -237.5t-234.5 -157.5t-289.5 -58zM326 717q0 -142 64.5 -260.5t177.5 -187
t249 -68.5q135 0 248 68t178.5 187t65.5 261t-65.5 261t-178.5 187t-248 68q-136 0 -249 -68.5t-177.5 -187t-64.5 -260.5zM485 1522v211h226v-211h-226zM926 1522v211h225v-211h-225z" />
    <glyph glyph-name="multiply" unicode="&#xd7;" 
d="M346 240l-151 151l288 289l-290 289l153 153l289 -288l289 288l153 -151l-289 -291l289 -289l-151 -153l-291 290z" />
    <glyph glyph-name="Oslash" unicode="&#xd8;" horiz-adv-x="1634" 
d="M262 -94l-166 141l158 186q-174 206 -174 484q0 206 97.5 376.5t267 268.5t374.5 98q212 0 385 -106l131 151l168 -141l-129 -152q182 -207 182 -495q0 -153 -57.5 -291t-155.5 -237.5t-234.5 -157.5t-289.5 -58q-217 0 -401 115zM328 717q0 -164 86 -295l637 752
q-106 59 -232 59q-136 0 -249 -68.5t-177.5 -187t-64.5 -260.5zM571 268q112 -67 248 -67q135 0 247.5 68t177.5 187t65 261q0 171 -95 309z" />
    <glyph glyph-name="Ugrave" unicode="&#xd9;" horiz-adv-x="1259" 
d="M631 -27q-224 0 -360 144t-136 381v936h242v-940q0 -133 69 -213t185 -80q115 0 184.5 80.5t69.5 212.5v940h239v-936q0 -237 -134.5 -381t-358.5 -144zM283 1780h262l196 -262h-209z" />
    <glyph glyph-name="Uacute" unicode="&#xda;" horiz-adv-x="1259" 
d="M631 -27q-224 0 -360 144t-136 381v936h242v-940q0 -133 69 -213t185 -80q115 0 184.5 80.5t69.5 212.5v940h239v-936q0 -237 -134.5 -381t-358.5 -144zM512 1518l195 262h262l-248 -262h-209z" />
    <glyph glyph-name="Ucircumflex" unicode="&#xdb;" horiz-adv-x="1259" 
d="M631 -27q-224 0 -360 144t-136 381v936h242v-940q0 -133 69 -213t185 -80q115 0 184.5 80.5t69.5 212.5v940h239v-936q0 -237 -134.5 -381t-358.5 -144zM252 1518l254 274h248l252 -274h-232l-143 149l-148 -149h-231z" />
    <glyph glyph-name="Udieresis" unicode="&#xdc;" horiz-adv-x="1259" 
d="M631 -27q-224 0 -360 144t-136 381v936h242v-940q0 -133 69 -213t185 -80q115 0 184.5 80.5t69.5 212.5v940h239v-936q0 -237 -134.5 -381t-358.5 -144zM297 1522v211h225v-211h-225zM737 1522v211h226v-211h-226z" />
    <glyph glyph-name="Yacute" unicode="&#xdd;" horiz-adv-x="1130" 
d="M23 1434h262l282 -592l277 592h262l-420 -861v-573h-240v573zM444 1518l195 262h262l-248 -262h-209z" />
    <glyph glyph-name="Thorn" unicode="&#xde;" horiz-adv-x="1085" 
d="M147 1434h242v-267h170q203 0 331 -115t128 -302q0 -195 -127.5 -322t-327.5 -127h-174v-301h-242v1434zM389 524h158q105 0 167 59.5t62 155.5q0 90 -62 146.5t-167 56.5l-158 -2v-416z" />
    <glyph glyph-name="germandbls" unicode="&#xdf;" horiz-adv-x="1206" 
d="M129 975q0 220 134.5 352.5t352.5 132.5q200 0 327.5 -115.5t127.5 -291.5q0 -100 -55.5 -184.5t-138.5 -110.5q121 -38 190.5 -129t69.5 -207q0 -182 -123.5 -302t-306.5 -120h-209v219h190q95 0 157 62t62 153q0 97 -68 158t-184 61h-157v195h139q87 0 145 55t58 137
q0 86 -65 147.5t-159 61.5q-116 0 -188 -73.5t-72 -194.5v-981h-227v975z" />
    <glyph glyph-name="agrave" unicode="&#xe0;" horiz-adv-x="1079" 
d="M455 -27q-169 0 -271 84.5t-102 223.5q0 151 123 242t348 91h180v25q0 94 -54.5 148.5t-150.5 54.5q-84 0 -144.5 -48t-66.5 -124h-227q7 158 130.5 258t311.5 100q199 0 315 -111.5t116 -298.5v-618h-224v104q-50 -59 -126.5 -95t-157.5 -36zM201 1413h262l188 -307
h-209zM305 287q0 -61 44 -98t124 -37q113 0 189.5 80t76.5 198v16h-180q-125 0 -189.5 -40.5t-64.5 -118.5z" />
    <glyph glyph-name="aacute" unicode="&#xe1;" horiz-adv-x="1079" 
d="M455 -27q-169 0 -271 84.5t-102 223.5q0 151 123 242t348 91h180v25q0 94 -54.5 148.5t-150.5 54.5q-84 0 -144.5 -48t-66.5 -124h-227q7 158 130.5 258t311.5 100q199 0 315 -111.5t116 -298.5v-618h-224v104q-50 -59 -126.5 -95t-157.5 -36zM305 287q0 -61 44 -98
t124 -37q113 0 189.5 80t76.5 198v16h-180q-125 0 -189.5 -40.5t-64.5 -118.5zM436 1106l197 307h250l-240 -307h-207z" />
    <glyph glyph-name="acircumflex" unicode="&#xe2;" horiz-adv-x="1079" 
d="M455 -27q-169 0 -271 84.5t-102 223.5q0 151 123 242t348 91h180v25q0 94 -54.5 148.5t-150.5 54.5q-84 0 -144.5 -48t-66.5 -124h-227q7 158 130.5 258t311.5 100q199 0 315 -111.5t116 -298.5v-618h-224v104q-50 -59 -126.5 -95t-157.5 -36zM190 1106l220 307h247
l217 -307h-204l-135 168l-138 -168h-207zM305 287q0 -61 44 -98t124 -37q113 0 189.5 80t76.5 198v16h-180q-125 0 -189.5 -40.5t-64.5 -118.5z" />
    <glyph glyph-name="atilde" unicode="&#xe3;" horiz-adv-x="1079" 
d="M455 -27q-169 0 -271 84.5t-102 223.5q0 151 123 242t348 91h180v25q0 94 -54.5 148.5t-150.5 54.5q-84 0 -144.5 -48t-66.5 -124h-227q7 158 130.5 258t311.5 100q199 0 315 -111.5t116 -298.5v-618h-224v104q-50 -59 -126.5 -95t-157.5 -36zM166 1120q0 146 57.5 222.5
t153.5 76.5q44 0 88.5 -22t74 -48.5t65 -48.5t63.5 -22q74 0 80 131h153q0 -147 -60 -224t-157 -77q-45 0 -88 21.5t-71.5 48t-62.5 48t-63 21.5q-38 0 -59 -32t-21 -95h-153zM305 287q0 -61 44 -98t124 -37q113 0 189.5 80t76.5 198v16h-180q-125 0 -189.5 -40.5
t-64.5 -118.5z" />
    <glyph glyph-name="adieresis" unicode="&#xe4;" horiz-adv-x="1079" 
d="M455 -27q-169 0 -271 84.5t-102 223.5q0 151 123 242t348 91h180v25q0 94 -54.5 148.5t-150.5 54.5q-84 0 -144.5 -48t-66.5 -124h-227q7 158 130.5 258t311.5 100q199 0 315 -111.5t116 -298.5v-618h-224v104q-50 -59 -126.5 -95t-157.5 -36zM217 1137v217h236v-217
h-236zM305 287q0 -61 44 -98t124 -37q113 0 189.5 80t76.5 198v16h-180q-125 0 -189.5 -40.5t-64.5 -118.5zM614 1137v217h236v-217h-236z" />
    <glyph glyph-name="aring" unicode="&#xe5;" horiz-adv-x="1079" 
d="M455 -27q-169 0 -271 84.5t-102 223.5q0 151 123 242t348 91h180v25q0 94 -54.5 148.5t-150.5 54.5q-84 0 -144.5 -48t-66.5 -124h-227q7 158 130.5 258t311.5 100q199 0 315 -111.5t116 -298.5v-618h-224v104q-50 -59 -126.5 -95t-157.5 -36zM252 1339q0 103 81 174.5
t202 71.5q119 0 199.5 -71.5t80.5 -174.5q0 -104 -80 -174.5t-200 -70.5q-121 0 -202 70.5t-81 174.5zM305 287q0 -61 44 -98t124 -37q113 0 189.5 80t76.5 198v16h-180q-125 0 -189.5 -40.5t-64.5 -118.5zM401 1339q0 -52 38.5 -86t95.5 -34q56 0 93.5 34t37.5 86
q0 50 -38 84.5t-93 34.5q-57 0 -95.5 -34.5t-38.5 -84.5z" />
    <glyph glyph-name="ae" unicode="&#xe6;" horiz-adv-x="1810" 
d="M1247 -27q-129 0 -233 53.5t-170 147.5q-65 -97 -170.5 -149t-231.5 -52q-158 0 -258 85.5t-100 215.5q0 159 123.5 249.5t351.5 90.5h176v21q0 97 -54 152t-151 55q-83 0 -144 -48.5t-67 -123.5h-227q7 158 131 258t312 100q248 0 354 -170q141 170 364 170
q137 0 250 -64t177.5 -175.5t64.5 -245.5q0 -54 -8 -103h-783q18 -126 103.5 -199t202.5 -73q94 0 161 41.5t86 107.5h226q-38 -150 -168 -247t-318 -97zM307 285q0 -59 44 -96t126 -37q112 0 188 81.5t76 196.5v16h-182q-124 0 -188 -41.5t-64 -119.5zM971 627h540
q-7 92 -81.5 149.5t-176.5 57.5q-93 0 -171 -55.5t-111 -151.5z" />
    <glyph glyph-name="ccedilla" unicode="&#xe7;" horiz-adv-x="1132" 
d="M70 500q0 111 41 209t111 168t167 110.5t205 40.5q182 0 318 -109.5t159 -275.5h-231q-17 73 -88.5 122.5t-161.5 49.5q-127 0 -212 -89.5t-85 -225.5q0 -135 85.5 -224.5t211.5 -89.5q90 0 161.5 51t90.5 130h229q-18 -156 -131.5 -262t-275.5 -128l-43 -108h20
q80 0 133 -53.5t53 -134.5q0 -86 -53.5 -141.5t-136.5 -55.5h-166v115h135q40 0 65 22t25 57t-25 57.5t-65 22.5h-121v97l47 122q-199 22 -330.5 168.5t-131.5 354.5z" />
    <glyph glyph-name="egrave" unicode="&#xe8;" horiz-adv-x="1146" 
d="M584 -27q-222 0 -369 149.5t-147 366.5q0 150 72 274.5t192.5 194.5t259.5 70q208 0 348.5 -140t140.5 -345q0 -43 -8 -103h-782q17 -124 102 -198t205 -74q90 0 158 41t88 108h225q-38 -151 -169 -247.5t-316 -96.5zM242 1413h262l188 -307h-209zM307 627h541
q-6 87 -78.5 147t-177.5 60q-97 0 -174 -56t-111 -151z" />
    <glyph glyph-name="eacute" unicode="&#xe9;" horiz-adv-x="1146" 
d="M584 -27q-222 0 -369 149.5t-147 366.5q0 150 72 274.5t192.5 194.5t259.5 70q208 0 348.5 -140t140.5 -345q0 -43 -8 -103h-782q17 -124 102 -198t205 -74q90 0 158 41t88 108h225q-38 -151 -169 -247.5t-316 -96.5zM307 627h541q-6 87 -78.5 147t-177.5 60
q-97 0 -174 -56t-111 -151zM477 1106l197 307h250l-240 -307h-207z" />
    <glyph glyph-name="ecircumflex" unicode="&#xea;" horiz-adv-x="1146" 
d="M584 -27q-222 0 -369 149.5t-147 366.5q0 150 72 274.5t192.5 194.5t259.5 70q208 0 348.5 -140t140.5 -345q0 -43 -8 -103h-782q17 -124 102 -198t205 -74q90 0 158 41t88 108h225q-38 -151 -169 -247.5t-316 -96.5zM231 1106l220 307h247l217 -307h-204l-136 168
l-137 -168h-207zM307 627h541q-6 87 -78.5 147t-177.5 60q-97 0 -174 -56t-111 -151z" />
    <glyph glyph-name="edieresis" unicode="&#xeb;" horiz-adv-x="1146" 
d="M584 -27q-222 0 -369 149.5t-147 366.5q0 150 72 274.5t192.5 194.5t259.5 70q208 0 348.5 -140t140.5 -345q0 -43 -8 -103h-782q17 -124 102 -198t205 -74q90 0 158 41t88 108h225q-38 -151 -169 -247.5t-316 -96.5zM258 1137v217h236v-217h-236zM307 627h541
q-6 87 -78.5 147t-177.5 60q-97 0 -174 -56t-111 -151zM655 1137v217h236v-217h-236z" />
    <glyph glyph-name="igrave" unicode="&#xec;" horiz-adv-x="487" 
d="M129 1001h229v-1001h-229v1001zM-90 1413h262l188 -307h-208z" />
    <glyph glyph-name="iacute" unicode="&#xed;" horiz-adv-x="487" 
d="M129 1001h229v-1001h-229v1001zM147 1106l197 307h250l-240 -307h-207z" />
    <glyph glyph-name="icircumflex" unicode="&#xee;" horiz-adv-x="487" 
d="M129 1001h229v-1001h-229v1001zM-98 1106l219 307h248l217 -307h-205l-135 168l-137 -168h-207z" />
    <glyph glyph-name="idieresis" unicode="&#xef;" horiz-adv-x="487" 
d="M129 1001h229v-1001h-229v1001zM-74 1137v217h236v-217h-236zM324 1137v217h235v-217h-235z" />
    <glyph glyph-name="eth" unicode="&#xf0;" horiz-adv-x="1202" 
d="M596 -27q-231 0 -379.5 144t-148.5 366q0 217 147 361.5t365 144.5q67 0 131 -20l-119 194l-289 -41l-22 144l227 32l-84 136h264l62 -103l204 29l21 -143l-146 -21l175 -295q126 -206 126 -405q0 -142 -71 -262.5t-194 -190.5t-269 -70zM291 494q0 -129 87.5 -217.5
t217.5 -88.5q131 0 216 87.5t85 218.5q0 135 -84.5 224t-214.5 89q-132 0 -219.5 -89t-87.5 -224z" />
    <glyph glyph-name="ntilde" unicode="&#xf1;" horiz-adv-x="1161" 
d="M129 0v1001h223v-102q123 129 295 129q179 0 288 -122t109 -331v-575h-229v569q0 109 -59 178.5t-162 69.5q-104 0 -171 -71t-67 -189v-557h-227zM213 1120q0 146 57.5 222.5t153.5 76.5q44 0 88.5 -22t74 -48.5t65 -48.5t63.5 -22q74 0 80 131h153q0 -147 -60 -224
t-157 -77q-45 0 -88 21.5t-71.5 48t-62.5 48t-63 21.5q-79 0 -79 -127h-154z" />
    <glyph glyph-name="ograve" unicode="&#xf2;" horiz-adv-x="1191" 
d="M596 -27q-221 0 -374.5 153t-153.5 374t153.5 374.5t374.5 153.5t374.5 -153.5t153.5 -374.5t-153.5 -374t-374.5 -153zM264 1413h262l189 -307h-209zM291 500q0 -134 88 -225t217 -91q128 0 216.5 91.5t88.5 224.5q0 134 -88.5 225.5t-216.5 91.5q-129 0 -217 -91
t-88 -226z" />
    <glyph glyph-name="oacute" unicode="&#xf3;" horiz-adv-x="1191" 
d="M596 -27q-221 0 -374.5 153t-153.5 374t153.5 374.5t374.5 153.5t374.5 -153.5t153.5 -374.5t-153.5 -374t-374.5 -153zM291 500q0 -134 88 -225t217 -91q128 0 216.5 91.5t88.5 224.5q0 134 -88.5 225.5t-216.5 91.5q-129 0 -217 -91t-88 -226zM500 1106l196 307h250
l-239 -307h-207z" />
    <glyph glyph-name="ocircumflex" unicode="&#xf4;" horiz-adv-x="1191" 
d="M596 -27q-221 0 -374.5 153t-153.5 374t153.5 374.5t374.5 153.5t374.5 -153.5t153.5 -374.5t-153.5 -374t-374.5 -153zM254 1106l219 307h248l217 -307h-205l-135 168l-137 -168h-207zM291 500q0 -134 88 -225t217 -91q128 0 216.5 91.5t88.5 224.5q0 134 -88.5 225.5
t-216.5 91.5q-129 0 -217 -91t-88 -226z" />
    <glyph glyph-name="otilde" unicode="&#xf5;" horiz-adv-x="1191" 
d="M596 -27q-221 0 -374.5 153t-153.5 374t153.5 374.5t374.5 153.5t374.5 -153.5t153.5 -374.5t-153.5 -374t-374.5 -153zM229 1120q0 146 57.5 222.5t153.5 76.5q44 0 88.5 -22t74 -48.5t65 -48.5t63.5 -22q74 0 80 131h154q0 -147 -60 -224t-157 -77q-45 0 -88 21.5
t-71.5 48t-62.5 48t-63 21.5q-38 0 -59 -32t-21 -95h-154zM291 500q0 -134 88 -225t217 -91q128 0 216.5 91.5t88.5 224.5q0 134 -88.5 225.5t-216.5 91.5q-129 0 -217 -91t-88 -226z" />
    <glyph glyph-name="odieresis" unicode="&#xf6;" horiz-adv-x="1191" 
d="M596 -27q-221 0 -374.5 153t-153.5 374t153.5 374.5t374.5 153.5t374.5 -153.5t153.5 -374.5t-153.5 -374t-374.5 -153zM281 1137v217h235v-217h-235zM291 500q0 -134 88 -225t217 -91q128 0 216.5 91.5t88.5 224.5q0 134 -88.5 225.5t-216.5 91.5q-129 0 -217 -91
t-88 -226zM678 1137v217h235v-217h-235z" />
    <glyph glyph-name="divide" unicode="&#xf7;" 
d="M504 1180h264v-232h-264v232zM158 573v209h956v-209h-956zM504 172v234h264v-234h-264z" />
    <glyph glyph-name="oslash" unicode="&#xf8;" horiz-adv-x="1193" 
d="M236 -86l-142 123l99 119q-121 143 -121 342q0 111 40 209t109.5 168.5t167.5 112t209 42.5q142 0 264 -67l101 122l143 -122l-100 -121q116 -141 116 -338q0 -227 -150 -379t-374 -152q-141 0 -260 64zM287 500q0 -100 47 -174l393 475q-61 28 -129 28
q-133 0 -222 -94.5t-89 -234.5zM475 201q58 -25 123 -25q130 0 219.5 93.5t89.5 230.5q0 92 -43 170z" />
    <glyph glyph-name="ugrave" unicode="&#xf9;" horiz-adv-x="1161" 
d="M1032 1001v-1001h-223v102q-123 -129 -295 -129q-179 0 -288 122t-109 331v575h229v-569q0 -109 59 -178.5t162 -69.5q104 0 171 71t67 189v557h227zM246 1413h262l188 -307h-209z" />
    <glyph glyph-name="uacute" unicode="&#xfa;" horiz-adv-x="1161" 
d="M1032 1001v-1001h-223v102q-123 -129 -295 -129q-179 0 -288 122t-109 331v575h229v-569q0 -109 59 -178.5t162 -69.5q104 0 171 71t67 189v557h227zM483 1106l197 307h250l-240 -307h-207z" />
    <glyph glyph-name="ucircumflex" unicode="&#xfb;" horiz-adv-x="1161" 
d="M1032 1001v-1001h-223v102q-123 -129 -295 -129q-179 0 -288 122t-109 331v575h229v-569q0 -109 59 -178.5t162 -69.5q104 0 171 71t67 189v557h227zM238 1106l219 307h248l217 -307h-205l-135 168l-138 -168h-206z" />
    <glyph glyph-name="udieresis" unicode="&#xfc;" horiz-adv-x="1161" 
d="M1032 1001v-1001h-223v102q-123 -129 -295 -129q-179 0 -288 122t-109 331v575h229v-569q0 -109 59 -178.5t162 -69.5q104 0 171 71t67 189v557h227zM262 1137v217h236v-217h-236zM659 1137v217h236v-217h-236z" />
    <glyph glyph-name="yacute" unicode="&#xfd;" horiz-adv-x="1060" 
d="M18 1001h244l270 -675l269 675h246l-580 -1386h-244l193 442zM436 1106l197 307h250l-240 -307h-207z" />
    <glyph glyph-name="thorn" unicode="&#xfe;" horiz-adv-x="1267" 
d="M129 -385v1819h225v-537q64 62 150 96.5t182 34.5q142 0 259 -67t185 -187.5t68 -269.5q0 -226 -148 -378.5t-364 -152.5q-96 0 -182 34.5t-150 96.5v-489h-225zM354 500q0 -132 89.5 -222t220.5 -90q128 0 218.5 91.5t90.5 220.5q0 131 -90.5 221t-218.5 90
q-132 0 -221 -88t-89 -223z" />
    <glyph glyph-name="ydieresis" unicode="&#xff;" horiz-adv-x="1060" 
d="M18 1001h244l270 -675l269 675h246l-580 -1386h-244l193 442zM217 1137v217h236v-217h-236zM614 1137v217h236v-217h-236z" />
    <glyph glyph-name="Amacron" unicode="&#x100;" horiz-adv-x="1228" 
d="M16 0l486 1434h227l481 -1434h-258l-90 293h-504l-90 -293h-252zM272 1542v170h682v-170h-682zM408 516h395l-195 600z" />
    <glyph glyph-name="amacron" unicode="&#x101;" horiz-adv-x="1079" 
d="M455 -27q-169 0 -271 84.5t-102 223.5q0 151 123 242t348 91h180v25q0 94 -54.5 148.5t-150.5 54.5q-84 0 -144.5 -48t-66.5 -124h-227q7 158 130.5 258t311.5 100q199 0 315 -111.5t116 -298.5v-618h-224v104q-50 -59 -126.5 -95t-157.5 -36zM199 1128v183h667v-183
h-667zM305 287q0 -61 44 -98t124 -37q113 0 189.5 80t76.5 198v16h-180q-125 0 -189.5 -40.5t-64.5 -118.5z" />
    <glyph glyph-name="Abreve" unicode="&#x102;" horiz-adv-x="1228" 
d="M16 0l486 1434h227l481 -1434h-258l-90 293h-504l-90 -293h-252zM297 1788h182q0 -65 37 -103t96 -38q61 0 99 38t39 103h182q-7 -139 -93 -213t-227 -74q-138 0 -223 74t-92 213zM408 516h395l-195 600z" />
    <glyph glyph-name="abreve" unicode="&#x103;" horiz-adv-x="1079" 
d="M455 -27q-169 0 -271 84.5t-102 223.5q0 151 123 242t348 91h180v25q0 94 -54.5 148.5t-150.5 54.5q-84 0 -144.5 -48t-66.5 -124h-227q7 158 130.5 258t311.5 100q199 0 315 -111.5t116 -298.5v-618h-224v104q-50 -59 -126.5 -95t-157.5 -36zM217 1405h176
q0 -71 39 -118.5t100 -47.5t101.5 47.5t40.5 118.5h174q0 -141 -89 -229.5t-227 -88.5q-136 0 -225.5 88.5t-89.5 229.5zM305 287q0 -61 44 -98t124 -37q113 0 189.5 80t76.5 198v16h-180q-125 0 -189.5 -40.5t-64.5 -118.5z" />
    <glyph glyph-name="Aogonek" unicode="&#x104;" horiz-adv-x="1228" 
d="M16 0l486 1434h227l481 -1434q-120 -86 -120 -168q0 -41 28 -60.5t72 -19.5h43l-43 -170h-60q-103 0 -161 55.5t-58 141.5q0 129 105 221h-64l-90 293h-504l-90 -293h-252zM408 516h395l-195 600z" />
    <glyph glyph-name="aogonek" unicode="&#x105;" horiz-adv-x="1079" 
d="M455 -27q-169 0 -271 84.5t-102 223.5q0 151 123 242t348 91h180v25q0 94 -54.5 148.5t-150.5 54.5q-84 0 -144.5 -48t-66.5 -124h-227q7 158 130.5 258t311.5 100q199 0 315 -111.5t116 -298.5v-618q-63 -45 -92 -85t-29 -83q0 -41 28 -60.5t72 -19.5h43l-43 -170h-59
q-103 0 -161 55.5t-58 141.5q0 130 104 221h-29v104q-50 -59 -126.5 -95t-157.5 -36zM305 287q0 -61 44 -98t124 -37q113 0 189.5 80t76.5 198v16h-180q-125 0 -189.5 -40.5t-64.5 -118.5z" />
    <glyph glyph-name="Cacute" unicode="&#x106;" horiz-adv-x="1542" 
d="M807 -27q-122 0 -234.5 36.5t-201.5 104.5t-155.5 159.5t-102 206t-35.5 239.5q0 209 95.5 379t262.5 266t371 96q170 0 315.5 -67t239.5 -187t117 -272h-262q-35 131 -150 215t-260 84q-207 0 -344 -145.5t-137 -368.5q0 -224 137.5 -371t343.5 -147q146 0 262 90
t150 229h262q-41 -243 -230 -395t-444 -152zM686 1518l195 262h262l-248 -262h-209z" />
    <glyph glyph-name="cacute" unicode="&#x107;" horiz-adv-x="1132" 
d="M594 -27q-145 0 -265 68.5t-189.5 189.5t-69.5 269q0 111 41 209t111 168t167 110.5t205 40.5q182 0 318 -109.5t159 -275.5h-231q-17 73 -88.5 122.5t-161.5 49.5q-127 0 -212 -89.5t-85 -225.5q0 -135 85.5 -224.5t211.5 -89.5q90 0 161.5 51t90.5 130h229
q-20 -173 -156 -283.5t-321 -110.5zM496 1106l196 307h250l-240 -307h-206z" />
    <glyph glyph-name="Ccircumflex" unicode="&#x108;" horiz-adv-x="1542" 
d="M807 -27q-122 0 -234.5 36.5t-201.5 104.5t-155.5 159.5t-102 206t-35.5 239.5q0 209 95.5 379t262.5 266t371 96q170 0 315.5 -67t239.5 -187t117 -272h-262q-35 131 -150 215t-260 84q-207 0 -344 -145.5t-137 -368.5q0 -224 137.5 -371t343.5 -147q146 0 262 90
t150 229h262q-41 -243 -230 -395t-444 -152zM428 1518l254 274h248l252 -274h-232l-143 149l-148 -149h-231z" />
    <glyph glyph-name="ccircumflex" unicode="&#x109;" horiz-adv-x="1132" 
d="M594 -27q-145 0 -265 68.5t-189.5 189.5t-69.5 269q0 111 41 209t111 168t167 110.5t205 40.5q182 0 318 -109.5t159 -275.5h-231q-17 73 -88.5 122.5t-161.5 49.5q-127 0 -212 -89.5t-85 -225.5q0 -135 85.5 -224.5t211.5 -89.5q90 0 161.5 51t90.5 130h229
q-20 -173 -156 -283.5t-321 -110.5zM250 1106l219 307h248l217 -307h-205l-135 168l-137 -168h-207z" />
    <glyph glyph-name="Cdotaccent" unicode="&#x10a;" horiz-adv-x="1542" 
d="M807 -27q-122 0 -234.5 36.5t-201.5 104.5t-155.5 159.5t-102 206t-35.5 239.5q0 209 95.5 379t262.5 266t371 96q170 0 315.5 -67t239.5 -187t117 -272h-262q-35 131 -150 215t-260 84q-207 0 -344 -145.5t-137 -368.5q0 -224 137.5 -371t343.5 -147q146 0 262 90
t150 229h262q-41 -243 -230 -395t-444 -152zM678 1522v211h254v-211h-254z" />
    <glyph glyph-name="cdotaccent" unicode="&#x10b;" horiz-adv-x="1132" 
d="M594 -27q-145 0 -265 68.5t-189.5 189.5t-69.5 269q0 111 41 209t111 168t167 110.5t205 40.5q182 0 318 -109.5t159 -275.5h-231q-17 73 -88.5 122.5t-161.5 49.5q-127 0 -212 -89.5t-85 -225.5q0 -135 85.5 -224.5t211.5 -89.5q90 0 161.5 51t90.5 130h229
q-20 -173 -156 -283.5t-321 -110.5zM473 1180v252h242v-252h-242z" />
    <glyph glyph-name="Ccaron" unicode="&#x10c;" horiz-adv-x="1542" 
d="M807 -27q-122 0 -234.5 36.5t-201.5 104.5t-155.5 159.5t-102 206t-35.5 239.5q0 209 95.5 379t262.5 266t371 96q170 0 315.5 -67t239.5 -187t117 -272h-262q-35 131 -150 215t-260 84q-207 0 -344 -145.5t-137 -368.5q0 -224 137.5 -371t343.5 -147q146 0 262 90
t150 229h262q-41 -243 -230 -395t-444 -152zM428 1798h231l146 -156l145 156h230l-252 -280h-248z" />
    <glyph glyph-name="ccaron" unicode="&#x10d;" horiz-adv-x="1132" 
d="M594 -27q-145 0 -265 68.5t-189.5 189.5t-69.5 269q0 111 41 209t111 168t167 110.5t205 40.5q182 0 318 -109.5t159 -275.5h-231q-17 73 -88.5 122.5t-161.5 49.5q-127 0 -212 -89.5t-85 -225.5q0 -135 85.5 -224.5t211.5 -89.5q90 0 161.5 51t90.5 130h229
q-20 -173 -156 -283.5t-321 -110.5zM250 1413h207l137 -168l135 168h205l-219 -307h-246z" />
    <glyph glyph-name="Dcaron" unicode="&#x10e;" horiz-adv-x="1413" 
d="M618 1434q204 0 367.5 -92t255.5 -254.5t92 -364.5q0 -205 -92 -370.5t-255.5 -259t-367.5 -93.5h-471v1434h471zM242 1798h231l145 -156l146 156h229l-252 -280h-247zM389 227h246q128 0 231.5 64.5t162 178t58.5 253.5q0 136 -58 246t-161.5 173.5t-232.5 63.5h-246
v-979z" />
    <glyph glyph-name="dcaron" unicode="&#x10f;" horiz-adv-x="1331" 
d="M578 -27q-217 0 -363.5 148.5t-146.5 376.5q0 151 67.5 272.5t184 189.5t258.5 68q95 0 181 -34t150 -95v535h230v-1434h-230v102q-64 -61 -150 -95t-181 -34zM293 502q0 -132 89 -220.5t218 -88.5q132 0 220.5 86.5t88.5 222.5q0 133 -89 221t-220 88
q-128 0 -217.5 -89.5t-89.5 -219.5zM1260 1094l38 417h213l-81 -417h-170z" />
    <glyph glyph-name="Dcroat" unicode="&#x110;" horiz-adv-x="1470" 
d="M66 606v228h139v600h471q204 0 367.5 -92t255.5 -254.5t92 -364.5q0 -205 -92 -370.5t-255.5 -259t-367.5 -93.5h-471v606h-139zM446 227h246q195 0 324 141.5t129 354.5q0 206 -128.5 344.5t-324.5 138.5h-246v-379h324v-215h-324v-385z" />
    <glyph glyph-name="dcroat" unicode="&#x111;" 
d="M606 1169v144h303v121h230v-121h133v-144h-133v-1169h-230v102q-64 -61 -150 -95t-181 -34q-217 0 -363.5 148.5t-146.5 376.5q0 151 67.5 272.5t184 189.5t258.5 68q95 0 181 -34t150 -95v270h-303zM293 502q0 -132 89 -220.5t218 -88.5q132 0 220.5 86.5t88.5 222.5
q0 133 -89 221t-220 88q-128 0 -217.5 -89.5t-89.5 -219.5z" />
    <glyph glyph-name="Emacron" unicode="&#x112;" horiz-adv-x="970" 
d="M147 1434h734v-228h-492v-348h428v-219h-428v-412h492v-227h-734v1434zM180 1542v170h682v-170h-682z" />
    <glyph glyph-name="emacron" unicode="&#x113;" horiz-adv-x="1146" 
d="M584 -27q-222 0 -369 149.5t-147 366.5q0 150 72 274.5t192.5 194.5t259.5 70q208 0 348.5 -140t140.5 -345q0 -43 -8 -103h-782q17 -124 102 -198t205 -74q90 0 158 41t88 108h225q-38 -151 -169 -247.5t-316 -96.5zM240 1128v183h667v-183h-667zM307 627h541
q-6 87 -78.5 147t-177.5 60q-97 0 -174 -56t-111 -151z" />
    <glyph glyph-name="Ebreve" unicode="&#x114;" horiz-adv-x="970" 
d="M147 1434h734v-228h-492v-348h428v-219h-428v-412h492v-227h-734v1434zM205 1788h182q0 -65 37 -103t96 -38q61 0 98.5 38t38.5 103h183q-7 -139 -93 -213t-227 -74q-138 0 -223 74t-92 213z" />
    <glyph glyph-name="ebreve" unicode="&#x115;" horiz-adv-x="1146" 
d="M584 -27q-222 0 -369 149.5t-147 366.5q0 150 72 274.5t192.5 194.5t259.5 70q208 0 348.5 -140t140.5 -345q0 -43 -8 -103h-782q17 -124 102 -198t205 -74q90 0 158 41t88 108h225q-38 -151 -169 -247.5t-316 -96.5zM258 1405h176q0 -71 39 -118.5t100 -47.5t101.5 47.5
t40.5 118.5h174q0 -141 -89 -229.5t-227 -88.5q-136 0 -225.5 88.5t-89.5 229.5zM307 627h541q-6 87 -78.5 147t-177.5 60q-97 0 -174 -56t-111 -151z" />
    <glyph glyph-name="Edotaccent" unicode="&#x116;" horiz-adv-x="970" 
d="M147 1434h734v-228h-492v-348h428v-219h-428v-412h492v-227h-734v1434zM395 1522v211h254v-211h-254z" />
    <glyph glyph-name="edotaccent" unicode="&#x117;" horiz-adv-x="1146" 
d="M584 -27q-222 0 -369 149.5t-147 366.5q0 150 72 274.5t192.5 194.5t259.5 70q208 0 348.5 -140t140.5 -345q0 -43 -8 -103h-782q17 -124 102 -198t205 -74q90 0 158 41t88 108h225q-38 -151 -169 -247.5t-316 -96.5zM307 627h541q-6 87 -78.5 147t-177.5 60
q-97 0 -174 -56t-111 -151zM455 1180v252h241v-252h-241z" />
    <glyph glyph-name="Eogonek" unicode="&#x118;" horiz-adv-x="970" 
d="M147 1434h734v-228h-492v-348h428v-219h-428v-412h492v-227q-63 -45 -92 -85t-29 -83q0 -41 28 -60.5t72 -19.5h43l-43 -170h-59q-103 0 -161 55.5t-58 141.5q0 130 104 221h-539v1434z" />
    <glyph glyph-name="eogonek" unicode="&#x119;" horiz-adv-x="1146" 
d="M678 -418q-103 0 -161 55.5t-58 141.5q0 112 78 196q-135 11 -242.5 82t-167 184t-59.5 248q0 150 72 274.5t192.5 194.5t259.5 70q208 0 348.5 -140t140.5 -345q0 -43 -8 -103h-782q17 -124 102 -198t205 -74q90 0 158 41t88 108h225q-28 -111 -110.5 -196t-202.5 -123
q-61 -44 -90 -83.5t-29 -82.5q0 -41 28 -60.5t72 -19.5h43l-43 -170h-59zM307 627h541q-6 87 -78.5 147t-177.5 60q-97 0 -174 -56t-111 -151z" />
    <glyph glyph-name="Ecaron" unicode="&#x11a;" horiz-adv-x="970" 
d="M147 1434h734v-228h-492v-348h428v-219h-428v-412h492v-227h-734v1434zM145 1798h232l145 -156l146 156h229l-252 -280h-248z" />
    <glyph glyph-name="ecaron" unicode="&#x11b;" horiz-adv-x="1146" 
d="M584 -27q-222 0 -369 149.5t-147 366.5q0 150 72 274.5t192.5 194.5t259.5 70q208 0 348.5 -140t140.5 -345q0 -43 -8 -103h-782q17 -124 102 -198t205 -74q90 0 158 41t88 108h225q-38 -151 -169 -247.5t-316 -96.5zM231 1413h207l137 -168l136 168h204l-219 -307h-245z
M307 627h541q-6 87 -78.5 147t-177.5 60q-97 0 -174 -56t-111 -151z" />
    <glyph glyph-name="Gcircumflex" unicode="&#x11c;" horiz-adv-x="1568" 
d="M803 -27q-152 0 -286.5 56.5t-230 155t-151 236t-55.5 294.5q0 156 57 294t154.5 237t233.5 156.5t288 57.5q127 0 238 -37.5t192 -102t137.5 -148t83.5 -179.5h-264q-49 109 -159 176.5t-234 67.5q-130 0 -240 -66t-175.5 -185.5t-65.5 -266.5q0 -149 62.5 -268.5
t174 -187.5t250.5 -68q184 0 301.5 109.5t128.5 266.5h-442v222h686q6 -50 6 -107q0 -145 -50 -275.5t-139 -227t-219 -153.5t-282 -57zM436 1518l254 274h248l252 -274h-232l-143 149l-147 -149h-232z" />
    <glyph glyph-name="gcircumflex" unicode="&#x11d;" horiz-adv-x="1247" 
d="M475 -385q-186 0 -280.5 91.5t-94.5 250.5v29h228v-27q0 -69 49 -109t143 -40h176q98 0 145.5 50t47.5 154v136q-135 -119 -316 -119q-216 0 -358.5 139t-142.5 358q0 216 143.5 359t357.5 143q191 0 328 -131v102h217v-981q0 -190 -102.5 -297.5t-292.5 -107.5h-248z
M287 1106l219 307h248l217 -307h-205l-135 168l-137 -168h-207zM303 528q0 -129 85 -216t212 -87q130 0 215.5 85.5t85.5 217.5q0 130 -86 215.5t-215 85.5q-127 0 -212 -87t-85 -214z" />
    <glyph glyph-name="Gbreve" unicode="&#x11e;" horiz-adv-x="1568" 
d="M803 -27q-152 0 -286.5 56.5t-230 155t-151 236t-55.5 294.5q0 156 57 294t154.5 237t233.5 156.5t288 57.5q127 0 238 -37.5t192 -102t137.5 -148t83.5 -179.5h-264q-49 109 -159 176.5t-234 67.5q-130 0 -240 -66t-175.5 -185.5t-65.5 -266.5q0 -149 62.5 -268.5
t174 -187.5t250.5 -68q184 0 301.5 109.5t128.5 266.5h-442v222h686q6 -50 6 -107q0 -145 -50 -275.5t-139 -227t-219 -153.5t-282 -57zM498 1788h182q0 -65 37 -103t96 -38q61 0 98.5 38t38.5 103h183q-7 -139 -93 -213t-227 -74q-138 0 -223 74t-92 213z" />
    <glyph glyph-name="gbreve" unicode="&#x11f;" horiz-adv-x="1247" 
d="M475 -385q-186 0 -280.5 91.5t-94.5 250.5v29h228v-27q0 -69 49 -109t143 -40h176q98 0 145.5 50t47.5 154v136q-135 -119 -316 -119q-216 0 -358.5 139t-142.5 358q0 216 143.5 359t357.5 143q191 0 328 -131v102h217v-981q0 -190 -102.5 -297.5t-292.5 -107.5h-248z
M303 528q0 -129 85 -216t212 -87q130 0 215.5 85.5t85.5 217.5q0 130 -86 215.5t-215 85.5q-127 0 -212 -87t-85 -214zM313 1405h176q0 -71 39.5 -118.5t100.5 -47.5t101 47.5t40 118.5h174q0 -141 -88.5 -229.5t-226.5 -88.5q-137 0 -226.5 88.5t-89.5 229.5z" />
    <glyph glyph-name="Gdotaccent" unicode="&#x120;" horiz-adv-x="1568" 
d="M803 -27q-152 0 -286.5 56.5t-230 155t-151 236t-55.5 294.5q0 156 57 294t154.5 237t233.5 156.5t288 57.5q127 0 238 -37.5t192 -102t137.5 -148t83.5 -179.5h-264q-49 109 -159 176.5t-234 67.5q-130 0 -240 -66t-175.5 -185.5t-65.5 -266.5q0 -149 62.5 -268.5
t174 -187.5t250.5 -68q184 0 301.5 109.5t128.5 266.5h-442v222h686q6 -50 6 -107q0 -145 -50 -275.5t-139 -227t-219 -153.5t-282 -57zM688 1522v211h254v-211h-254z" />
    <glyph glyph-name="gdotaccent" unicode="&#x121;" horiz-adv-x="1247" 
d="M475 -385q-186 0 -280.5 91.5t-94.5 250.5v29h228v-27q0 -69 49 -109t143 -40h176q98 0 145.5 50t47.5 154v136q-135 -119 -316 -119q-216 0 -358.5 139t-142.5 358q0 216 143.5 359t357.5 143q191 0 328 -131v102h217v-981q0 -190 -102.5 -297.5t-292.5 -107.5h-248z
M303 528q0 -129 85 -216t212 -87q130 0 215.5 85.5t85.5 217.5q0 130 -86 215.5t-215 85.5q-127 0 -212 -87t-85 -214zM510 1180v252h242v-252h-242z" />
    <glyph glyph-name="uni0122" unicode="&#x122;" horiz-adv-x="1568" 
d="M803 -27q-152 0 -286.5 56.5t-230 155t-151 236t-55.5 294.5q0 156 57 294t154.5 237t233.5 156.5t288 57.5q127 0 238 -37.5t192 -102t137.5 -148t83.5 -179.5h-264q-49 109 -159 176.5t-234 67.5q-130 0 -240 -66t-175.5 -185.5t-65.5 -266.5q0 -149 62.5 -268.5
t174 -187.5t250.5 -68q184 0 301.5 109.5t128.5 266.5h-442v222h686q6 -50 6 -107q0 -145 -50 -275.5t-139 -227t-219 -153.5t-282 -57zM506 -362l170 280h242l-203 -280h-209z" />
    <glyph glyph-name="uni0123" unicode="&#x123;" horiz-adv-x="1247" 
d="M475 -385q-186 0 -280.5 91.5t-94.5 250.5v29h228v-27q0 -69 49 -109t143 -40h176q98 0 145.5 50t47.5 154v136q-135 -119 -316 -119q-216 0 -358.5 139t-142.5 358q0 216 143.5 359t357.5 143q191 0 328 -131v102h217v-981q0 -190 -102.5 -297.5t-292.5 -107.5h-248z
M303 528q0 -129 85 -216t212 -87q130 0 215.5 85.5t85.5 217.5q0 130 -86 215.5t-215 85.5q-127 0 -212 -87t-85 -214zM477 1106l213 297h205l-172 -297h-246z" />
    <glyph glyph-name="Hcircumflex" unicode="&#x124;" horiz-adv-x="1271" 
d="M147 0v1434h242v-584h494v584h241v-1434h-241v625h-494v-625h-242zM258 1518l254 274h248l252 -274h-232l-143 149l-148 -149h-231z" />
    <glyph glyph-name="hcircumflex" unicode="&#x125;" horiz-adv-x="1161" 
d="M129 0v1434h223v-535q123 129 295 129q179 0 288 -122t109 -331v-575h-229v569q0 109 -59 178.5t-162 69.5q-104 0 -171 -71t-67 -189v-557h-227zM-137 1518l254 274h248l251 -274h-231l-143 149l-148 -149h-231z" />
    <glyph glyph-name="Hbar" unicode="&#x126;" horiz-adv-x="1366" 
d="M195 0v1042h-148v195h148v197h241v-197h496v197h239v-197h148v-195h-148v-1042h-239v600h-496v-600h-241zM436 829h496v213h-496v-213z" />
    <glyph glyph-name="hbar" unicode="&#x127;" horiz-adv-x="1161" 
d="M-14 1169v144h143v121h223v-121h297v-144h-297v-270q123 129 295 129q179 0 288 -122t109 -331v-575h-229v569q0 109 -59 178.5t-162 69.5q-104 0 -171 -71t-67 -189v-557h-227v1169h-143z" />
    <glyph glyph-name="Itilde" unicode="&#x128;" horiz-adv-x="536" 
d="M147 1434h242v-1434h-242v1434zM-119 1518q1 128 61 201t154 73q46 0 97 -18.5t87.5 -40t74 -40t59.5 -18.5q72 0 80 107h161q-1 -127 -64 -201t-159 -74q-46 0 -95 18t-83.5 39.5t-71.5 39.5t-61 18q-31 0 -53 -26.5t-25 -77.5h-162z" />
    <glyph glyph-name="itilde" unicode="&#x129;" horiz-adv-x="487" 
d="M129 1001h229v-1001h-229v1001zM-125 1120q0 146 57.5 222.5t153.5 76.5q44 0 88.5 -22t74 -48.5t65 -48.5t63.5 -22q74 0 80 131h153q0 -147 -60 -224t-157 -77q-45 0 -88 21.5t-71 48t-62 48t-63 21.5q-38 0 -59 -32t-21 -95h-154z" />
    <glyph glyph-name="Imacron" unicode="&#x12a;" horiz-adv-x="536" 
d="M147 1434h242v-1434h-242v1434zM-74 1542v170h682v-170h-682z" />
    <glyph glyph-name="imacron" unicode="&#x12b;" horiz-adv-x="487" 
d="M129 1001h229v-1001h-229v1001zM-90 1128v183h668v-183h-668z" />
    <glyph glyph-name="Ibreve" unicode="&#x12c;" horiz-adv-x="536" 
d="M147 1434h242v-1434h-242v1434zM-49 1788h182q0 -65 37 -103t96 -38q61 0 98.5 38t38.5 103h183q-7 -139 -93 -213t-227 -74q-138 0 -223 74t-92 213z" />
    <glyph glyph-name="ibreve" unicode="&#x12d;" horiz-adv-x="487" 
d="M129 1001h229v-1001h-229v1001zM-72 1405h176q0 -71 39.5 -118.5t100.5 -47.5t101 47.5t40 118.5h174q0 -141 -88.5 -229.5t-226.5 -88.5q-137 0 -226.5 88.5t-89.5 229.5z" />
    <glyph glyph-name="Iogonek" unicode="&#x12e;" horiz-adv-x="536" 
d="M147 1434h242v-1434q-63 -45 -92 -85t-29 -83q0 -40 28 -60t73 -20h43l-43 -170h-60q-103 0 -161 55.5t-58 141.5q0 129 105 221h-48v1434z" />
    <glyph glyph-name="iogonek" unicode="&#x12f;" horiz-adv-x="487" 
d="M129 1001h229v-1001q-120 -86 -120 -168q0 -41 28 -60.5t72 -19.5h43l-43 -170h-59q-103 0 -161.5 55.5t-58.5 141.5q0 129 105 221h-35v1001zM123 1180v252h242v-252h-242z" />
    <glyph glyph-name="Idotaccent" unicode="&#x130;" horiz-adv-x="536" 
d="M147 1434h242v-1434h-242v1434zM141 1522v211h254v-211h-254z" />
    <glyph glyph-name="dotlessi" unicode="&#x131;" horiz-adv-x="487" 
d="M129 1001h229v-1001h-229v1001z" />
    <glyph glyph-name="IJ" unicode="&#x132;" horiz-adv-x="1200" 
d="M147 1434h242v-1434h-242v1434zM559 0v227h72q95 0 142.5 49.5t47.5 161.5v996h240v-1065q0 -176 -95.5 -272.5t-265.5 -96.5h-141z" />
    <glyph glyph-name="ij" unicode="&#x133;" horiz-adv-x="956" 
d="M129 1001h229v-1001h-229v1001zM123 1180v252h242v-252h-242zM428 -385v205h72q46 0 72 27.5t26 78.5v1075h229v-1085q0 -165 -76.5 -233t-222.5 -68h-100zM592 1180v252h242v-252h-242z" />
    <glyph glyph-name="Jcircumflex" unicode="&#x134;" horiz-adv-x="684" 
d="M115 227q95 0 142.5 49.5t47.5 161.5v996h240v-1065q0 -176 -95.5 -272.5t-265.5 -96.5h-141v227h72zM47 1518l254 274h248l252 -274h-232l-143 149l-147 -149h-232z" />
    <glyph glyph-name="jcircumflex" unicode="&#x135;" horiz-adv-x="487" 
d="M31 -180q46 0 72 27.5t26 78.5v1075h229v-1085q0 -165 -76.5 -233t-222.5 -68h-100v205h72zM-98 1106l219 307h248l217 -307h-205l-135 168l-137 -168h-207z" />
    <glyph glyph-name="uni0136" unicode="&#x136;" horiz-adv-x="1116" 
d="M842 0l-453 682v-682h-242v1434h242v-613l424 613h277l-488 -680l524 -754h-284zM315 -362l170 280h242l-203 -280h-209z" />
    <glyph glyph-name="uni0137" unicode="&#x137;" horiz-adv-x="1030" 
d="M129 0v1434h229v-844l371 411h279l-435 -477l469 -524h-294l-390 453v-453h-229zM260 -362l170 280h242l-203 -280h-209z" />
    <glyph glyph-name="kgreenlandic" unicode="&#x138;" horiz-adv-x="1030" 
d="M129 0v1001h229v-411l371 411h279l-435 -477l469 -524h-292l-392 453v-453h-229z" />
    <glyph glyph-name="Lacute" unicode="&#x139;" horiz-adv-x="921" 
d="M147 1434h242v-1207h494v-227h-736v1434zM158 1518l194 262h262l-247 -262h-209z" />
    <glyph glyph-name="lacute" unicode="&#x13a;" horiz-adv-x="487" 
d="M358 1434v-1434h-229v1434h229zM125 1518l194 262h263l-248 -262h-209z" />
    <glyph glyph-name="uni013B" unicode="&#x13b;" horiz-adv-x="921" 
d="M147 1434h242v-1207h494v-227h-736v1434zM211 -362l170 280h242l-203 -280h-209z" />
    <glyph glyph-name="uni013C" unicode="&#x13c;" horiz-adv-x="487" 
d="M358 1434v-1434h-229v1434h229zM-47 -362l170 280h242l-203 -280h-209z" />
    <glyph glyph-name="Lcaron" unicode="&#x13d;" horiz-adv-x="935" 
d="M147 1434h242v-1207h494v-227h-736v1434zM621 1094l38 417h213l-81 -417h-170z" />
    <glyph glyph-name="lcaron" unicode="&#x13e;" horiz-adv-x="548" 
d="M358 1434v-1434h-229v1434h229zM479 1094l39 417h213l-82 -417h-170z" />
    <glyph glyph-name="Ldot" unicode="&#x13f;" horiz-adv-x="974" 
d="M147 1434h242v-1207h494v-227h-736v1434zM629 610v250h262v-250h-262z" />
    <glyph glyph-name="ldot" unicode="&#x140;" horiz-adv-x="747" 
d="M358 1434v-1434h-229v1434h229zM487 610v250h263v-250h-263z" />
    <glyph glyph-name="Lslash" unicode="&#x141;" horiz-adv-x="985" 
d="M795 815l-349 -133v-455h494v-227h-735v590l-139 -53v208l139 54v635h241v-545l349 131v-205z" />
    <glyph glyph-name="lslash" unicode="&#x142;" horiz-adv-x="643" 
d="M586 813l-148 -63v-750h-229v649l-154 -67v213l154 65v574h229v-476l148 64v-209z" />
    <glyph glyph-name="Nacute" unicode="&#x143;" horiz-adv-x="1247" 
d="M725 788q39 -79 77 -163t56 -128l19 -44q-11 169 -11 368v613h234v-1434h-213l-363 686q-40 79 -78 163t-56 129l-19 44q12 -170 12 -369v-653h-236v1434h236zM506 1518l194 262h263l-248 -262h-209z" />
    <glyph glyph-name="nacute" unicode="&#x144;" horiz-adv-x="1161" 
d="M129 0v1001h223v-102q123 129 295 129q179 0 288 -122t109 -331v-575h-229v569q0 109 -59 178.5t-162 69.5q-104 0 -171 -71t-67 -189v-557h-227zM485 1106l197 307h250l-240 -307h-207z" />
    <glyph glyph-name="uni0145" unicode="&#x145;" horiz-adv-x="1247" 
d="M725 788q39 -79 77 -163t56 -128l19 -44q-11 169 -11 368v613h234v-1434h-213l-363 686q-40 79 -78 163t-56 129l-19 44q12 -170 12 -369v-653h-236v1434h236zM334 -362l170 280h241l-202 -280h-209z" />
    <glyph glyph-name="uni0146" unicode="&#x146;" horiz-adv-x="1161" 
d="M129 0v1001h223v-102q123 129 295 129q179 0 288 -122t109 -331v-575h-229v569q0 109 -59 178.5t-162 69.5q-104 0 -171 -71t-67 -189v-557h-227zM291 -362l170 280h241l-202 -280h-209z" />
    <glyph glyph-name="Ncaron" unicode="&#x147;" horiz-adv-x="1247" 
d="M725 788q39 -79 77 -163t56 -128l19 -44q-11 169 -11 368v613h234v-1434h-213l-363 686q-40 79 -78 163t-56 129l-19 44q12 -170 12 -369v-653h-236v1434h236zM248 1798h231l146 -156l145 156h229l-251 -280h-248z" />
    <glyph glyph-name="ncaron" unicode="&#x148;" horiz-adv-x="1161" 
d="M129 0v1001h223v-102q123 129 295 129q179 0 288 -122t109 -331v-575h-229v569q0 109 -59 178.5t-162 69.5q-104 0 -171 -71t-67 -189v-557h-227zM238 1413h206l138 -168l135 168h205l-220 -307h-245z" />
    <glyph glyph-name="napostrophe" unicode="&#x149;" horiz-adv-x="1161" 
d="M-96 1348v217h272v-265q0 -112 -69.5 -164.5t-188.5 -52.5v121q57 -1 79.5 20t22.5 66v58h-116zM129 0v1001h223v-102q123 129 295 129q179 0 288 -122t109 -331v-575h-229v569q0 109 -59 178.5t-162 69.5q-104 0 -171 -71t-67 -189v-557h-227z" />
    <glyph glyph-name="Eng" unicode="&#x14a;" horiz-adv-x="1247" 
d="M688 -180q90 0 138 45t51 147l-353 674q-40 79 -78 163t-56 129l-19 44q12 -170 12 -369v-653h-236v1434h236l342 -646q39 -79 77 -163t56 -128l19 -44q-11 169 -11 368v613h234v-1450q0 -176 -96 -272.5t-265 -96.5h-141v205h90z" />
    <glyph glyph-name="eng" unicode="&#x14b;" horiz-adv-x="1159" 
d="M664 -385v192h53q46 0 72 29t26 80v653q0 109 -59 178.5t-162 69.5q-104 0 -171 -71t-67 -189v-557h-227v1001h223v-102q123 129 295 129q179 0 288 -122t109 -331v-671q0 -155 -77.5 -222t-221.5 -67h-81z" />
    <glyph glyph-name="Omacron" unicode="&#x14c;" horiz-adv-x="1634" 
d="M817 -27q-153 0 -290 58t-235.5 157.5t-156 237.5t-57.5 291q0 154 57.5 292t156 236.5t235.5 156.5t290 58t289.5 -57.5t234.5 -156.5t155.5 -237t57.5 -292q0 -153 -57.5 -291t-155.5 -237.5t-234.5 -157.5t-289.5 -58zM326 717q0 -142 64.5 -260.5t177.5 -187
t249 -68.5q135 0 248 68t178.5 187t65.5 261t-65.5 261t-178.5 187t-248 68q-136 0 -249 -68.5t-177.5 -187t-64.5 -260.5zM475 1542v170h682v-170h-682z" />
    <glyph glyph-name="omacron" unicode="&#x14d;" horiz-adv-x="1191" 
d="M596 -27q-221 0 -374.5 153t-153.5 374t153.5 374.5t374.5 153.5t374.5 -153.5t153.5 -374.5t-153.5 -374t-374.5 -153zM262 1128v183h668v-183h-668zM291 500q0 -134 88 -225t217 -91q128 0 216.5 91.5t88.5 224.5q0 134 -88.5 225.5t-216.5 91.5q-129 0 -217 -91
t-88 -226z" />
    <glyph glyph-name="Obreve" unicode="&#x14e;" horiz-adv-x="1634" 
d="M817 -27q-153 0 -290 58t-235.5 157.5t-156 237.5t-57.5 291q0 154 57.5 292t156 236.5t235.5 156.5t290 58t289.5 -57.5t234.5 -156.5t155.5 -237t57.5 -292q0 -153 -57.5 -291t-155.5 -237.5t-234.5 -157.5t-289.5 -58zM326 717q0 -142 64.5 -260.5t177.5 -187
t249 -68.5q135 0 248 68t178.5 187t65.5 261t-65.5 261t-178.5 187t-248 68q-136 0 -249 -68.5t-177.5 -187t-64.5 -260.5zM500 1788h182q0 -65 37 -103t96 -38q61 0 98.5 38t38.5 103h183q-7 -139 -93 -213t-227 -74q-138 0 -223 74t-92 213z" />
    <glyph glyph-name="obreve" unicode="&#x14f;" horiz-adv-x="1191" 
d="M596 -27q-221 0 -374.5 153t-153.5 374t153.5 374.5t374.5 153.5t374.5 -153.5t153.5 -374.5t-153.5 -374t-374.5 -153zM281 1405h176q0 -71 39 -118.5t100 -47.5t101 47.5t40 118.5h174q0 -141 -88.5 -229.5t-226.5 -88.5q-136 0 -225.5 88.5t-89.5 229.5zM291 500
q0 -134 88 -225t217 -91q128 0 216.5 91.5t88.5 224.5q0 134 -88.5 225.5t-216.5 91.5q-129 0 -217 -91t-88 -226z" />
    <glyph glyph-name="Ohungarumlaut" unicode="&#x150;" horiz-adv-x="1634" 
d="M817 -27q-153 0 -290 58t-235.5 157.5t-156 237.5t-57.5 291q0 154 57.5 292t156 236.5t235.5 156.5t290 58t289.5 -57.5t234.5 -156.5t155.5 -237t57.5 -292q0 -153 -57.5 -291t-155.5 -237.5t-234.5 -157.5t-289.5 -58zM326 717q0 -142 64.5 -260.5t177.5 -187
t249 -68.5q135 0 248 68t178.5 187t65.5 261t-65.5 261t-178.5 187t-248 68q-136 0 -249 -68.5t-177.5 -187t-64.5 -260.5zM500 1518l184 266h227l-196 -266h-215zM915 1518l183 266h245l-227 -266h-201z" />
    <glyph glyph-name="ohungarumlaut" unicode="&#x151;" horiz-adv-x="1191" 
d="M596 -27q-221 0 -374.5 153t-153.5 374t153.5 374.5t374.5 153.5t374.5 -153.5t153.5 -374.5t-153.5 -374t-374.5 -153zM291 500q0 -134 88 -225t217 -91q128 0 216.5 91.5t88.5 224.5q0 134 -88.5 225.5t-216.5 91.5q-129 0 -217 -91t-88 -226zM313 1106h185l149 307
h-203zM684 1106h182l176 307h-217z" />
    <glyph glyph-name="OE" unicode="&#x152;" horiz-adv-x="1681" 
d="M797 0q-204 0 -368 93.5t-256.5 259t-92.5 370.5q0 201 92.5 364t256.5 255t368 92h794v-228h-491v-348h428v-219h-428v-412h491v-227h-794zM326 723q0 -214 129.5 -357t322.5 -143h80v987h-80q-195 0 -323.5 -139t-128.5 -348z" />
    <glyph glyph-name="oe" unicode="&#x153;" horiz-adv-x="1972" 
d="M590 -27q-143 0 -262 67.5t-188.5 187.5t-69.5 268q0 111 41.5 210t111.5 169.5t166 111.5t201 41q131 0 241 -59t179 -162q68 103 177 162t236 59q135 0 245 -64t172.5 -175.5t62.5 -245.5q0 -36 -9 -103h-782q15 -124 100.5 -201t206.5 -77q88 0 156.5 43t89.5 108h225
q-38 -149 -167.5 -244.5t-309.5 -95.5q-133 0 -239.5 57t-172.5 156q-69 -100 -176 -156.5t-235 -56.5zM293 498q0 -133 87 -222.5t218 -89.5q128 0 215.5 89.5t87.5 222.5q0 136 -87.5 226.5t-215.5 90.5q-131 0 -218 -90.5t-87 -226.5zM1128 616h543q-8 95 -81.5 159.5
t-176.5 64.5q-100 0 -177.5 -59.5t-107.5 -164.5z" />
    <glyph glyph-name="Racute" unicode="&#x154;" horiz-adv-x="1142" 
d="M147 0v1434h420q202 0 330.5 -114.5t128.5 -281.5q0 -111 -49.5 -198t-138.5 -140q90 -49 137 -136t47 -202v-362h-238v336q0 125 -63 182t-193 57h-141v-575h-240zM387 788h166q104 0 167.5 59t63.5 157q0 92 -63.5 148t-167.5 56h-166v-420zM412 1518l194 262h262
l-247 -262h-209z" />
    <glyph glyph-name="racute" unicode="&#x155;" horiz-adv-x="733" 
d="M356 1001v-129q92 129 246 129h105v-198h-117q-108 0 -171 -65.5t-63 -180.5v-557h-227v1001h227zM326 1106l196 307h250l-240 -307h-206z" />
    <glyph glyph-name="uni0156" unicode="&#x156;" horiz-adv-x="1142" 
d="M147 0v1434h420q202 0 330.5 -114.5t128.5 -281.5q0 -111 -49.5 -198t-138.5 -140q90 -49 137 -136t47 -202v-362h-238v336q0 125 -63 182t-193 57h-141v-575h-240zM291 -362l170 280h241l-202 -280h-209zM387 788h166q104 0 167.5 59t63.5 157q0 92 -63.5 148t-167.5 56
h-166v-420z" />
    <glyph glyph-name="uni0157" unicode="&#x157;" horiz-adv-x="733" 
d="M356 1001v-129q92 129 246 129h105v-198h-117q-108 0 -171 -65.5t-63 -180.5v-557h-227v1001h227zM-43 -362l170 280h242l-203 -280h-209z" />
    <glyph glyph-name="Rcaron" unicode="&#x158;" horiz-adv-x="1142" 
d="M147 0v1434h420q202 0 330.5 -114.5t128.5 -281.5q0 -111 -49.5 -198t-138.5 -140q90 -49 137 -136t47 -202v-362h-238v336q0 125 -63 182t-193 57h-141v-575h-240zM154 1798h231l145 -156l146 156h229l-252 -280h-247zM387 788h166q104 0 167.5 59t63.5 157
q0 92 -63.5 148t-167.5 56h-166v-420z" />
    <glyph glyph-name="rcaron" unicode="&#x159;" horiz-adv-x="733" 
d="M356 1001v-129q92 129 246 129h105v-198h-117q-108 0 -171 -65.5t-63 -180.5v-557h-227v1001h227zM80 1413h207l137 -168l135 168h205l-219 -307h-246z" />
    <glyph glyph-name="Sacute" unicode="&#x15a;" horiz-adv-x="1085" 
d="M553 -27q-204 0 -337.5 136t-133.5 350h242q0 -117 64 -189.5t165 -72.5q94 0 153.5 57.5t59.5 148.5q0 54 -23 93t-61.5 63t-88.5 42.5t-105 34.5t-110 35t-105 49t-88.5 71t-61.5 107t-23 151q0 181 119.5 296t306.5 115q201 0 323 -127.5t122 -326.5h-240
q-2 100 -59.5 164.5t-147.5 64.5q-83 0 -136.5 -51t-53.5 -127q0 -53 23 -91.5t61.5 -60.5t88.5 -38.5t105 -31.5t110.5 -33t106 -49t89.5 -74t62 -113.5t24 -162.5q1 -190 -127 -310t-324 -120zM422 1518l194 262h263l-248 -262h-209z" />
    <glyph glyph-name="sacute" unicode="&#x15b;" horiz-adv-x="950" 
d="M481 -27q-179 0 -291 88.5t-122 245.5h217q6 -70 59.5 -112.5t138.5 -42.5q83 0 131 36t48 93q0 43 -32 71.5t-83 43.5t-112.5 28t-123 32.5t-112.5 48t-83 82.5t-32 130q0 139 106 225t271 86q167 0 276.5 -80t126.5 -227h-223q-9 58 -60 96.5t-122 38.5
q-69 0 -115.5 -30t-46.5 -87q0 -40 32.5 -65.5t84 -39.5t114 -25.5t125 -31t114 -49t84 -86t32.5 -135.5q0 -148 -112 -241t-290 -93zM377 1106l196 307h250l-239 -307h-207z" />
    <glyph glyph-name="Scircumflex" unicode="&#x15c;" horiz-adv-x="1085" 
d="M553 -27q-204 0 -337.5 136t-133.5 350h242q0 -117 64 -189.5t165 -72.5q94 0 153.5 57.5t59.5 148.5q0 54 -23 93t-61.5 63t-88.5 42.5t-105 34.5t-110 35t-105 49t-88.5 71t-61.5 107t-23 151q0 181 119.5 296t306.5 115q201 0 323 -127.5t122 -326.5h-240
q-2 100 -59.5 164.5t-147.5 64.5q-83 0 -136.5 -51t-53.5 -127q0 -53 23 -91.5t61.5 -60.5t88.5 -38.5t105 -31.5t110.5 -33t106 -49t89.5 -74t62 -113.5t24 -162.5q1 -190 -127 -310t-324 -120zM164 1518l254 274h248l252 -274h-232l-143 149l-148 -149h-231z" />
    <glyph glyph-name="scircumflex" unicode="&#x15d;" horiz-adv-x="950" 
d="M481 -27q-179 0 -291 88.5t-122 245.5h217q6 -70 59.5 -112.5t138.5 -42.5q83 0 131 36t48 93q0 43 -32 71.5t-83 43.5t-112.5 28t-123 32.5t-112.5 48t-83 82.5t-32 130q0 139 106 225t271 86q167 0 276.5 -80t126.5 -227h-223q-9 58 -60 96.5t-122 38.5
q-69 0 -115.5 -30t-46.5 -87q0 -40 32.5 -65.5t84 -39.5t114 -25.5t125 -31t114 -49t84 -86t32.5 -135.5q0 -148 -112 -241t-290 -93zM131 1106l219 307h248l217 -307h-205l-135 168l-137 -168h-207z" />
    <glyph glyph-name="Scedilla" unicode="&#x15e;" horiz-adv-x="1085" 
d="M82 459h242q0 -117 64 -189.5t165 -72.5q94 0 153.5 57.5t59.5 148.5q0 54 -23 93t-61.5 63t-88.5 42.5t-105 34.5t-110 35t-105 49t-88.5 71t-61.5 107t-23 151q0 181 119.5 296t306.5 115q201 0 323 -127.5t122 -326.5h-240q-2 100 -59.5 164.5t-147.5 64.5
q-83 0 -136.5 -51t-53.5 -127q0 -53 23 -91.5t61.5 -60.5t88.5 -38.5t105 -31.5t110.5 -33t106 -49t89.5 -74t62 -113.5t24 -162.5q1 -169 -101.5 -283.5t-267.5 -139.5l-45 -111h20q80 0 133.5 -53.5t53.5 -134.5q0 -86 -54 -141.5t-137 -55.5h-166v115h135q40 0 65.5 22
t25.5 57t-25.5 57.5t-65.5 22.5h-120v97l47 120q-185 19 -302.5 152t-117.5 332z" />
    <glyph glyph-name="scedilla" unicode="&#x15f;" horiz-adv-x="950" 
d="M68 307h217q6 -70 59.5 -112.5t138.5 -42.5q83 0 131 36t48 93q0 43 -32 71.5t-83 43.5t-112.5 28t-123 32.5t-112.5 48t-83 82.5t-32 130q0 139 106 225t271 86q167 0 276.5 -80t126.5 -227h-223q-9 58 -60 96.5t-122 38.5q-69 0 -115.5 -30t-46.5 -87q0 -40 32.5 -65.5
t84 -39.5t114 -25.5t125 -31t114 -49t84 -86t32.5 -135.5q0 -130 -87.5 -218.5t-234.5 -108.5l-43 -111h21q80 0 133 -53.5t53 -134.5q0 -86 -53.5 -141.5t-136.5 -55.5h-166v115h135q40 0 65 22t25 57t-25 57.5t-65 22.5h-121v97l47 120q-157 12 -255 100t-107 232z" />
    <glyph glyph-name="Scaron" unicode="&#x160;" horiz-adv-x="1085" 
d="M553 -27q-204 0 -337.5 136t-133.5 350h242q0 -117 64 -189.5t165 -72.5q94 0 153.5 57.5t59.5 148.5q0 54 -23 93t-61.5 63t-88.5 42.5t-105 34.5t-110 35t-105 49t-88.5 71t-61.5 107t-23 151q0 181 119.5 296t306.5 115q201 0 323 -127.5t122 -326.5h-240
q-2 100 -59.5 164.5t-147.5 64.5q-83 0 -136.5 -51t-53.5 -127q0 -53 23 -91.5t61.5 -60.5t88.5 -38.5t105 -31.5t110.5 -33t106 -49t89.5 -74t62 -113.5t24 -162.5q1 -190 -127 -310t-324 -120zM164 1798h231l146 -156l145 156h229l-251 -280h-248z" />
    <glyph glyph-name="scaron" unicode="&#x161;" horiz-adv-x="950" 
d="M481 -27q-179 0 -291 88.5t-122 245.5h217q6 -70 59.5 -112.5t138.5 -42.5q83 0 131 36t48 93q0 43 -32 71.5t-83 43.5t-112.5 28t-123 32.5t-112.5 48t-83 82.5t-32 130q0 139 106 225t271 86q167 0 276.5 -80t126.5 -227h-223q-9 58 -60 96.5t-122 38.5
q-69 0 -115.5 -30t-46.5 -87q0 -40 32.5 -65.5t84 -39.5t114 -25.5t125 -31t114 -49t84 -86t32.5 -135.5q0 -148 -112 -241t-290 -93zM131 1413h207l137 -168l135 168h205l-219 -307h-246z" />
    <glyph glyph-name="uni0162" unicode="&#x162;" horiz-adv-x="987" 
d="M37 1206v228h913v-228h-336v-1206h-43l-53 -131h21q80 0 133 -53.5t53 -134.5q0 -86 -53.5 -141.5t-136.5 -55.5h-166v115h135q40 0 65 22t25 57t-25 57.5t-65 22.5h-121v97l57 145h-67v1206h-336z" />
    <glyph glyph-name="uni0163" unicode="&#x163;" horiz-adv-x="759" 
d="M20 803v198h189v267h229v-267h269v-198h-269v-451q0 -153 148 -153h121v-199h-129l-54 -131h21q80 0 133 -53.5t53 -134.5q0 -86 -53.5 -141.5t-136.5 -55.5h-166v115h135q40 0 65 22t25 57t-25 57.5t-65 22.5h-121v97l60 155q-240 44 -240 326v467h-189z" />
    <glyph glyph-name="Tcaron" unicode="&#x164;" horiz-adv-x="987" 
d="M37 1206v228h913v-228h-336v-1206h-241v1206h-336zM117 1798h231l146 -156l145 156h229l-252 -280h-247z" />
    <glyph glyph-name="tcaron" unicode="&#x165;" horiz-adv-x="759" 
d="M20 803v198h189v267h229v-267h269v-198h-269v-451q0 -153 148 -153h121v-199h-150q-348 0 -348 336v467h-189zM578 1094l38 417h213l-81 -417h-170z" />
    <glyph glyph-name="Tbar" unicode="&#x166;" horiz-adv-x="1009" 
d="M150 580v192h231v434h-336v228h913v-228h-335v-434h219v-192h-219v-580h-242v580h-231z" />
    <glyph glyph-name="tbar" unicode="&#x167;" horiz-adv-x="784" 
d="M43 827v174h190v267h228v-267h268v-174h-268v-245h268v-146h-268v-106q0 -154 147 -154h121v-176h-149q-173 0 -260 80.5t-87 251.5v104h-190v146h190v245h-190z" />
    <glyph glyph-name="Utilde" unicode="&#x168;" horiz-adv-x="1259" 
d="M631 -27q-224 0 -360 144t-136 381v936h242v-940q0 -133 69 -213t185 -80q115 0 184.5 80.5t69.5 212.5v940h239v-936q0 -237 -134.5 -381t-358.5 -144zM244 1518q1 128 61 201t154 73q46 0 97 -18.5t87 -40t73.5 -40t59.5 -18.5q72 0 80 107h162q-1 -127 -64 -201
t-159 -74q-46 0 -95.5 18t-84 39.5t-71.5 39.5t-61 18q-31 0 -52.5 -26.5t-24.5 -77.5h-162z" />
    <glyph glyph-name="utilde" unicode="&#x169;" horiz-adv-x="1161" 
d="M1032 1001v-1001h-223v102q-123 -129 -295 -129q-179 0 -288 122t-109 331v575h229v-569q0 -109 59 -178.5t162 -69.5q104 0 171 71t67 189v557h227zM211 1120q0 146 57.5 222.5t153.5 76.5q44 0 88.5 -22t74 -48.5t65 -48.5t63.5 -22q74 0 80 131h153q0 -147 -60 -224
t-157 -77q-45 0 -88 21.5t-71.5 48t-62.5 48t-63 21.5q-79 0 -79 -127h-154z" />
    <glyph glyph-name="Umacron" unicode="&#x16a;" horiz-adv-x="1259" 
d="M631 -27q-224 0 -360 144t-136 381v936h242v-940q0 -133 69 -213t185 -80q115 0 184.5 80.5t69.5 212.5v940h239v-936q0 -237 -134.5 -381t-358.5 -144zM289 1542v170h682v-170h-682z" />
    <glyph glyph-name="umacron" unicode="&#x16b;" horiz-adv-x="1161" 
d="M1032 1001v-1001h-223v102q-123 -129 -295 -129q-179 0 -288 122t-109 331v575h229v-569q0 -109 59 -178.5t162 -69.5q104 0 171 71t67 189v557h227zM246 1128v183h667v-183h-667z" />
    <glyph glyph-name="Ubreve" unicode="&#x16c;" horiz-adv-x="1259" 
d="M631 -27q-224 0 -360 144t-136 381v936h242v-940q0 -133 69 -213t185 -80q115 0 184.5 80.5t69.5 212.5v940h239v-936q0 -237 -134.5 -381t-358.5 -144zM313 1788h183q0 -65 37 -103t96 -38q61 0 98.5 38t38.5 103h182q-7 -140 -92.5 -213.5t-226.5 -73.5q-139 0 -224 74
t-92 213z" />
    <glyph glyph-name="ubreve" unicode="&#x16d;" horiz-adv-x="1161" 
d="M1032 1001v-1001h-223v102q-123 -129 -295 -129q-179 0 -288 122t-109 331v575h229v-569q0 -109 59 -178.5t162 -69.5q104 0 171 71t67 189v557h227zM264 1405h176q0 -71 39.5 -118.5t100.5 -47.5t101 47.5t40 118.5h174q0 -141 -88.5 -229.5t-226.5 -88.5
q-137 0 -226.5 88.5t-89.5 229.5z" />
    <glyph glyph-name="Uring" unicode="&#x16e;" horiz-adv-x="1259" 
d="M631 -27q-224 0 -360 144t-136 381v936h242v-940q0 -133 69 -213t185 -80q115 0 184.5 80.5t69.5 212.5v940h239v-936q0 -237 -134.5 -381t-358.5 -144zM348 1741q0 105 81 175.5t202 70.5q120 0 200 -70.5t80 -175.5t-80 -175.5t-200 -70.5q-121 0 -202 70.5t-81 175.5z
M498 1741q0 -51 38 -86t95 -35q55 0 93 35t38 86t-37.5 85t-93.5 34q-57 0 -95 -34t-38 -85z" />
    <glyph glyph-name="uring" unicode="&#x16f;" horiz-adv-x="1161" 
d="M1032 1001v-1001h-223v102q-123 -129 -295 -129q-179 0 -288 122t-109 331v575h229v-569q0 -109 59 -178.5t162 -69.5q104 0 171 71t67 189v557h227zM297 1339q0 103 81 174.5t202 71.5q119 0 199.5 -71.5t80.5 -174.5q0 -104 -80 -174.5t-200 -70.5q-121 0 -202 70.5
t-81 174.5zM446 1339q0 -52 38.5 -86t95.5 -34q56 0 93.5 34t37.5 86q0 50 -38 84.5t-93 34.5q-57 0 -95.5 -34.5t-38.5 -84.5z" />
    <glyph glyph-name="Uhungarumlaut" unicode="&#x170;" horiz-adv-x="1259" 
d="M631 -27q-224 0 -360 144t-136 381v936h242v-940q0 -133 69 -213t185 -80q115 0 184.5 80.5t69.5 212.5v940h239v-936q0 -237 -134.5 -381t-358.5 -144zM313 1518l185 266h227l-197 -266h-215zM729 1518l182 266h246l-227 -266h-201z" />
    <glyph glyph-name="uhungarumlaut" unicode="&#x171;" horiz-adv-x="1161" 
d="M1032 1001v-1001h-223v102q-123 -129 -295 -129q-179 0 -288 122t-109 331v575h229v-569q0 -109 59 -178.5t162 -69.5q104 0 171 71t67 189v557h227zM297 1106h184l150 307h-203zM668 1106h182l176 307h-217z" />
    <glyph glyph-name="Uogonek" unicode="&#x172;" horiz-adv-x="1259" 
d="M711 -418q-103 0 -161 55.5t-58 141.5q0 117 79 196q-200 20 -318 161.5t-118 361.5v936h242v-940q0 -133 69 -213t185 -80q115 0 184.5 80.5t69.5 212.5v940h239v-936q0 -193 -92 -327t-252 -177q-57 -44 -83.5 -82t-26.5 -80q0 -41 28 -60.5t72 -19.5h43l-43 -170h-59z
" />
    <glyph glyph-name="uogonek" unicode="&#x173;" horiz-adv-x="1161" 
d="M1032 1001v-1001q-63 -45 -92 -85t-29 -83q0 -40 28 -60t73 -20h43l-43 -170h-60q-103 0 -161 55.5t-58 141.5q0 129 105 221h-29v102q-123 -129 -295 -129q-179 0 -288 122t-109 331v575h229v-569q0 -109 59 -178.5t162 -69.5q104 0 171 71t67 189v557h227z" />
    <glyph glyph-name="Wcircumflex" unicode="&#x174;" horiz-adv-x="1843" 
d="M397 0l-362 1434h254l186 -713q20 -86 38 -173t26 -131l8 -44q35 156 90 346l201 715h196l197 -697q24 -84 46 -170.5t32 -130.5l10 -45q24 155 67 350l181 693h243l-362 -1434h-231l-287 999l-289 -999h-244zM545 1518l254 274h248l251 -274h-231l-143 149l-148 -149
h-231z" />
    <glyph glyph-name="wcircumflex" unicode="&#x175;" horiz-adv-x="1570" 
d="M352 0l-329 1001h243l211 -665l221 665h191l221 -651l205 651h233l-329 -1001h-201l-234 655l-231 -655h-201zM442 1106l220 307h247l217 -307h-204l-136 168l-137 -168h-207z" />
    <glyph glyph-name="Ycircumflex" unicode="&#x176;" horiz-adv-x="1130" 
d="M23 1434h262l282 -592l277 592h262l-420 -861v-573h-240v573zM186 1518l254 274h248l252 -274h-231l-144 149l-147 -149h-232z" />
    <glyph glyph-name="ycircumflex" unicode="&#x177;" horiz-adv-x="1060" 
d="M18 1001h244l270 -675l269 675h246l-580 -1386h-244l193 442zM190 1106l220 307h247l217 -307h-204l-135 168l-138 -168h-207z" />
    <glyph glyph-name="Ydieresis" unicode="&#x178;" horiz-adv-x="1130" 
d="M23 1434h262l282 -592l277 592h262l-420 -861v-573h-240v573zM231 1522v211h226v-211h-226zM672 1522v211h225v-211h-225z" />
    <glyph glyph-name="Zacute" unicode="&#x179;" horiz-adv-x="1015" 
d="M92 1434h848v-187l-580 -1020h584v-227h-883v186l580 1020h-549v228zM387 1518l195 262h262l-248 -262h-209z" />
    <glyph glyph-name="zacute" unicode="&#x17a;" horiz-adv-x="997" 
d="M57 0v182l574 621h-553v198h850v-182l-574 -620h578v-199h-875zM397 1106l197 307h250l-240 -307h-207z" />
    <glyph glyph-name="Zdotaccent" unicode="&#x17b;" horiz-adv-x="1015" 
d="M92 1434h848v-187l-580 -1020h584v-227h-883v186l580 1020h-549v228zM379 1522v211h254v-211h-254z" />
    <glyph glyph-name="zdotaccent" unicode="&#x17c;" horiz-adv-x="997" 
d="M57 0v182l574 621h-553v198h850v-182l-574 -620h578v-199h-875zM375 1180v252h241v-252h-241z" />
    <glyph glyph-name="Zcaron" unicode="&#x17d;" horiz-adv-x="1015" 
d="M92 1434h848v-187l-580 -1020h584v-227h-883v186l580 1020h-549v228zM129 1798h231l146 -156l145 156h230l-252 -280h-248z" />
    <glyph glyph-name="zcaron" unicode="&#x17e;" horiz-adv-x="997" 
d="M57 0v182l574 621h-553v198h850v-182l-574 -620h578v-199h-875zM152 1413h206l138 -168l135 168h205l-220 -307h-245z" />
    <glyph glyph-name="longs" unicode="&#x17f;" horiz-adv-x="581" 
d="M33 793v208h190v84q0 169 89.5 259t258.5 90h78v-209h-49q-147 0 -147 -156v-1069h-230v793h-190z" />
    <glyph glyph-name="uni018F" unicode="&#x18f;" horiz-adv-x="1581" 
d="M778 1460q210 0 375 -93.5t256.5 -262t91.5 -383.5q0 -156 -56.5 -294.5t-154 -238t-233.5 -157.5t-289 -58q-195 0 -353 89.5t-246.5 246t-88.5 348.5q0 80 6 115h1167q-15 207 -144 334t-331 127q-149 0 -264 -72t-147 -186h-273q31 141 128.5 251.5t242.5 172
t313 61.5zM346 594q13 -177 131 -285t293 -108q182 0 310 107.5t163 285.5h-897z" />
    <glyph glyph-name="florin" unicode="&#x192;" horiz-adv-x="825" 
d="M82 -385v205h53q150 0 150 145v838h-195v198h195v86q0 175 84 261t262 86h133v-187h-105q-147 0 -147 -145v-101h252v-198h-252v-842q0 -176 -83.5 -261t-262.5 -85h-84z" />
    <glyph glyph-name="uni019D" unicode="&#x19d;" horiz-adv-x="1251" 
d="M727 788q39 -79 77.5 -163t57.5 -128l19 -44q-13 169 -13 368v613h234v-1434h-213l-363 686q-40 79 -78.5 163t-56.5 129l-18 44q12 -170 12 -369v-671q0 -175 -93.5 -272t-262.5 -97h-142v227h74q94 0 141.5 50.5t47.5 162.5v1381h235z" />
    <glyph glyph-name="Gcaron" unicode="&#x1e6;" horiz-adv-x="1568" 
d="M803 -27q-152 0 -286.5 56.5t-230 155t-151 236t-55.5 294.5q0 156 57 294t154.5 237t233.5 156.5t288 57.5q127 0 238 -37.5t192 -102t137.5 -148t83.5 -179.5h-264q-49 109 -159 176.5t-234 67.5q-130 0 -240 -66t-175.5 -185.5t-65.5 -266.5q0 -149 62.5 -268.5
t174 -187.5t250.5 -68q184 0 301.5 109.5t128.5 266.5h-442v222h686q6 -50 6 -107q0 -145 -50 -275.5t-139 -227t-219 -153.5t-282 -57zM438 1798h232l145 -156l146 156h229l-252 -280h-248z" />
    <glyph glyph-name="gcaron" unicode="&#x1e7;" horiz-adv-x="1247" 
d="M475 -385q-186 0 -280.5 91.5t-94.5 250.5v29h228v-27q0 -69 49 -109t143 -40h176q98 0 145.5 50t47.5 154v136q-135 -119 -316 -119q-216 0 -358.5 139t-142.5 358q0 216 143.5 359t357.5 143q191 0 328 -131v102h217v-981q0 -190 -102.5 -297.5t-292.5 -107.5h-248z
M287 1413h207l137 -168l135 168h205l-219 -307h-246zM303 528q0 -129 85 -216t212 -87q130 0 215.5 85.5t85.5 217.5q0 130 -86 215.5t-215 85.5q-127 0 -212 -87t-85 -214z" />
    <glyph glyph-name="uni01EA" unicode="&#x1ea;" horiz-adv-x="1634" 
d="M817 201q135 0 248 68t178.5 187t65.5 261t-65.5 261t-178.5 187t-248 68q-136 0 -249 -68.5t-177.5 -187t-64.5 -260.5t64.5 -260.5t177.5 -187t249 -68.5zM78 717q0 154 57.5 292t156 236.5t235.5 156.5t290 58t289.5 -57.5t234.5 -156.5t155.5 -237t57.5 -292
q0 -265 -158.5 -465.5t-406.5 -257.5q-57 -44 -83.5 -82t-26.5 -80q0 -41 28 -60.5t72 -19.5h43l-43 -170h-59q-103 0 -161.5 55.5t-58.5 141.5q0 113 78 194q-195 10 -355.5 110.5t-252.5 268t-92 365.5z" />
    <glyph glyph-name="uni01EB" unicode="&#x1eb;" horiz-adv-x="1191" 
d="M596 184q128 0 216.5 91.5t88.5 224.5q0 134 -88.5 225.5t-216.5 91.5q-129 0 -217 -91t-88 -226q0 -134 88 -225t217 -91zM68 500q0 221 153.5 374.5t374.5 153.5t374.5 -153.5t153.5 -374.5q0 -178 -102.5 -315t-265.5 -187q-61 -45 -89 -84t-28 -82q0 -41 28 -60.5
t72 -19.5h43l-43 -170h-59q-103 0 -161 55.5t-58 141.5q0 116 80 196q-202 22 -337.5 170.5t-135.5 354.5z" />
    <glyph glyph-name="Aringacute" unicode="&#x1fa;" horiz-adv-x="1228" 
d="M16 0l486 1434h227l481 -1434h-258l-90 293h-504l-90 -293h-252zM332 1741q0 88 59 153.5t154 85.5l151 203h262l-210 -223q67 -31 107 -89.5t40 -129.5q0 -104 -80.5 -175t-200.5 -71q-121 0 -201.5 70.5t-80.5 175.5zM408 516h395l-195 600zM481 1741q0 -51 38 -86
t95 -35q55 0 93 35t38 86t-37.5 85t-93.5 34q-57 0 -95 -34t-38 -85z" />
    <glyph glyph-name="aringacute" unicode="&#x1fb;" horiz-adv-x="1079" 
d="M455 -27q-169 0 -271 84.5t-102 223.5q0 151 123 242t348 91h180v25q0 94 -54.5 148.5t-150.5 54.5q-84 0 -144.5 -48t-66.5 -124h-227q7 158 130.5 258t311.5 100q199 0 315 -111.5t116 -298.5v-618h-224v104q-50 -59 -126.5 -95t-157.5 -36zM252 1339q0 92 64.5 159.5
t166.5 82.5l160 250h250l-217 -279q64 -31 101.5 -88t37.5 -125q0 -104 -80 -174.5t-200 -70.5q-121 0 -202 70.5t-81 174.5zM305 287q0 -61 44 -98t124 -37q113 0 189.5 80t76.5 198v16h-180q-125 0 -189.5 -40.5t-64.5 -118.5zM401 1339q0 -52 38.5 -86t95.5 -34
q56 0 93.5 34t37.5 86q0 50 -38 84.5t-93 34.5q-57 0 -95.5 -34.5t-38.5 -84.5z" />
    <glyph glyph-name="AEacute" unicode="&#x1fc;" horiz-adv-x="1622" 
d="M-33 0l690 1434h875v-228h-485v-348h421v-219h-421v-412h485v-227h-725v317h-414l-155 -317h-271zM485 543h322v688zM967 1518l194 262h262l-247 -262h-209z" />
    <glyph glyph-name="aeacute" unicode="&#x1fd;" horiz-adv-x="1810" 
d="M1247 -27q-129 0 -233 53.5t-170 147.5q-65 -97 -170.5 -149t-231.5 -52q-158 0 -258 85.5t-100 215.5q0 159 123.5 249.5t351.5 90.5h176v21q0 97 -54 152t-151 55q-83 0 -144 -48.5t-67 -123.5h-227q7 158 131 258t312 100q248 0 354 -170q141 170 364 170
q137 0 250 -64t177.5 -175.5t64.5 -245.5q0 -54 -8 -103h-783q18 -126 103.5 -199t202.5 -73q94 0 161 41.5t86 107.5h226q-38 -150 -168 -247t-318 -97zM307 285q0 -59 44 -96t126 -37q112 0 188 81.5t76 196.5v16h-182q-124 0 -188 -41.5t-64 -119.5zM799 1106l196 307
h250l-239 -307h-207zM971 627h540q-7 92 -81.5 149.5t-176.5 57.5q-93 0 -171 -55.5t-111 -151.5z" />
    <glyph glyph-name="Oslashacute" unicode="&#x1fe;" horiz-adv-x="1634" 
d="M262 -94l-166 141l158 186q-174 206 -174 484q0 206 97.5 376.5t267 268.5t374.5 98q212 0 385 -106l131 151l168 -141l-129 -152q182 -207 182 -495q0 -153 -57.5 -291t-155.5 -237.5t-234.5 -157.5t-289.5 -58q-217 0 -401 115zM328 717q0 -164 86 -295l637 752
q-106 59 -232 59q-136 0 -249 -68.5t-177.5 -187t-64.5 -260.5zM571 268q112 -67 248 -67q135 0 247.5 68t177.5 187t65 261q0 171 -95 309zM688 1518l195 262h262l-248 -262h-209z" />
    <glyph glyph-name="oslashacute" unicode="&#x1ff;" horiz-adv-x="1193" 
d="M236 -86l-142 123l99 119q-121 143 -121 342q0 111 40 209t109.5 168.5t167.5 112t209 42.5q142 0 264 -67l101 122l143 -122l-100 -121q116 -141 116 -338q0 -227 -150 -379t-374 -152q-141 0 -260 64zM287 500q0 -100 47 -174l393 475q-61 28 -129 28
q-133 0 -222 -94.5t-89 -234.5zM475 201q58 -25 123 -25q130 0 219.5 93.5t89.5 230.5q0 92 -43 170zM502 1106l196 307h250l-239 -307h-207z" />
    <glyph glyph-name="uni0218" unicode="&#x218;" horiz-adv-x="1085" 
d="M553 -27q-204 0 -337.5 136t-133.5 350h242q0 -117 64 -189.5t165 -72.5q94 0 153.5 57.5t59.5 148.5q0 54 -23 93t-61.5 63t-88.5 42.5t-105 34.5t-110 35t-105 49t-88.5 71t-61.5 107t-23 151q0 181 119.5 296t306.5 115q201 0 323 -127.5t122 -326.5h-240
q-2 100 -59.5 164.5t-147.5 64.5q-83 0 -136.5 -51t-53.5 -127q0 -53 23 -91.5t61.5 -60.5t88.5 -38.5t105 -31.5t110.5 -33t106 -49t89.5 -74t62 -113.5t24 -162.5q1 -190 -127 -310t-324 -120zM256 -362l170 280h242l-203 -280h-209z" />
    <glyph glyph-name="uni0219" unicode="&#x219;" horiz-adv-x="950" 
d="M481 -27q-179 0 -291 88.5t-122 245.5h217q6 -70 59.5 -112.5t138.5 -42.5q83 0 131 36t48 93q0 43 -32 71.5t-83 43.5t-112.5 28t-123 32.5t-112.5 48t-83 82.5t-32 130q0 139 106 225t271 86q167 0 276.5 -80t126.5 -227h-223q-9 58 -60 96.5t-122 38.5
q-69 0 -115.5 -30t-46.5 -87q0 -40 32.5 -65.5t84 -39.5t114 -25.5t125 -31t114 -49t84 -86t32.5 -135.5q0 -148 -112 -241t-290 -93zM184 -362l170 280h242l-203 -280h-209z" />
    <glyph glyph-name="uni021A" unicode="&#x21a;" horiz-adv-x="987" 
d="M37 1206v228h913v-228h-336v-1206h-241v1206h-336zM203 -362l170 280h241l-202 -280h-209z" />
    <glyph glyph-name="uni021B" unicode="&#x21b;" horiz-adv-x="759" 
d="M20 803v198h189v267h229v-267h269v-198h-269v-451q0 -153 148 -153h121v-199h-150q-348 0 -348 336v467h-189zM188 -362l170 280h242l-203 -280h-209z" />
    <glyph glyph-name="uni0232" unicode="&#x232;" horiz-adv-x="1130" 
d="M23 1434h262l282 -592l277 592h262l-420 -861v-573h-240v573zM221 1542v170h682v-170h-682z" />
    <glyph glyph-name="uni0233" unicode="&#x233;" horiz-adv-x="1060" 
d="M18 1001h244l270 -675l269 675h246l-580 -1386h-244l193 442zM199 1128v183h667v-183h-667z" />
    <glyph glyph-name="uni0237" unicode="&#x237;" horiz-adv-x="487" 
d="M31 -180q46 0 72 27.5t26 78.5v1075h229v-1085q0 -165 -76.5 -233t-222.5 -68h-100v205h72z" />
    <glyph glyph-name="uni0259" unicode="&#x259;" horiz-adv-x="1146" 
d="M563 1028q222 0 369 -149.5t147 -366.5q0 -150 -72 -274.5t-192.5 -194.5t-259.5 -70q-208 0 -348.5 140.5t-140.5 345.5q0 42 8 102h782q-17 125 -102 199t-205 74q-90 0 -158 -41.5t-88 -108.5h-225q38 151 169 247.5t316 96.5zM299 375q6 -87 78.5 -147t177.5 -60
q97 0 174 56t111 151h-541z" />
    <glyph glyph-name="uni0272" unicode="&#x272;" horiz-adv-x="1159" 
d="M-41 -385v205h72q46 0 72 27.5t26 78.5v1075h223v-102q126 129 299 129t283 -121.5t110 -331.5v-575h-229v569q0 109 -58.5 178.5t-162.5 69.5q-103 0 -170.5 -71t-67.5 -189v-645q0 -163 -76 -230t-221 -67h-100z" />
    <glyph glyph-name="uni02B9" unicode="&#x2b9;" horiz-adv-x="344" 
d="M127 948l-41 279v207h205v-207l-43 -279h-121z" />
    <glyph glyph-name="uni02BA" unicode="&#x2ba;" horiz-adv-x="681" 
d="M465 948l-41 279v207h205v-207l-43 -279h-121zM86 1227v207h205v-207l-43 -279h-121z" />
    <glyph glyph-name="circumflex" unicode="&#x2c6;" horiz-adv-x="1093" 
d="M205 1106l219 307h248l217 -307h-205l-135 168l-137 -168h-207z" />
    <glyph glyph-name="caron" unicode="&#x2c7;" horiz-adv-x="1093" 
d="M424 1106l-219 307h207l137 -168l135 168h205l-219 -307h-246z" />
    <glyph glyph-name="breve" unicode="&#x2d8;" horiz-adv-x="1040" 
d="M836 1405q0 -141 -89 -229.5t-227 -88.5q-136 0 -225.5 88.5t-89.5 229.5h176q0 -71 39 -118.5t100 -47.5t101.5 47.5t40.5 118.5h174z" />
    <glyph glyph-name="dotaccent" unicode="&#x2d9;" horiz-adv-x="651" 
d="M205 1432h241v-252h-241v252z" />
    <glyph glyph-name="ring" unicode="&#x2da;" horiz-adv-x="972" 
d="M487 1094q-121 0 -201.5 70t-80.5 175q0 104 80.5 175t201.5 71q119 0 200 -71.5t81 -174.5q0 -104 -80.5 -174.5t-200.5 -70.5zM354 1339q0 -52 38 -86t95 -34q56 0 93.5 34t37.5 86q0 50 -38 84.5t-93 34.5q-57 0 -95 -34.5t-38 -84.5z" />
    <glyph glyph-name="ogonek" unicode="&#x2db;" horiz-adv-x="815" 
d="M424 -418q-103 0 -161 55.5t-58 141.5q0 97 52.5 166t176.5 145l70 -90q-63 -45 -92 -85t-29 -83q0 -41 28 -60.5t72 -19.5h43l-43 -170h-59z" />
    <glyph glyph-name="tilde" unicode="&#x2dc;" horiz-adv-x="1144" 
d="M723 1108q-45 0 -88 21.5t-71.5 48t-62.5 48t-63 21.5q-38 0 -59 -32t-21 -95h-153q0 146 57.5 222.5t153.5 76.5q44 0 88.5 -22t74 -48.5t65 -48.5t63.5 -22q73 0 79 131h154q0 -147 -60 -224t-157 -77z" />
    <glyph glyph-name="hungarumlaut" unicode="&#x2dd;" horiz-adv-x="1138" 
d="M389 1106l150 307h-203l-131 -307h184zM575 1106h183l176 307h-217z" />
    <glyph glyph-name="gravecomb" unicode="&#x300;" horiz-adv-x="0" 
d="M205 1413h262l188 -307h-209z" />
    <glyph glyph-name="acutecomb" unicode="&#x301;" horiz-adv-x="0" 
d="M651 1413l-239 -307h-207l196 307h250z" />
    <glyph glyph-name="uni0302" unicode="&#x302;" horiz-adv-x="0" 
d="M205 1106l219 307h248l217 -307h-205l-135 168l-137 -168h-207z" />
    <glyph glyph-name="tildecomb" unicode="&#x303;" horiz-adv-x="0" 
d="M723 1108q-45 0 -88 21.5t-71.5 48t-62.5 48t-63 21.5q-38 0 -59 -32t-21 -95h-153q0 146 57.5 222.5t153.5 76.5q44 0 88.5 -22t74 -48.5t65 -48.5t63.5 -22q73 0 79 131h154q0 -147 -60 -224t-157 -77z" />
    <glyph glyph-name="uni0304" unicode="&#x304;" horiz-adv-x="0" 
d="M205 1128v183h667v-183h-667z" />
    <glyph glyph-name="uni0306" unicode="&#x306;" horiz-adv-x="0" 
d="M836 1405q0 -141 -89 -229.5t-227 -88.5q-136 0 -225.5 88.5t-89.5 229.5h176q0 -71 39 -118.5t100 -47.5t101.5 47.5t40.5 118.5h174z" />
    <glyph glyph-name="uni0307" unicode="&#x307;" horiz-adv-x="0" 
d="M205 1432h241v-252h-241v252z" />
    <glyph glyph-name="uni0308" unicode="&#x308;" horiz-adv-x="0" 
d="M602 1354h236v-217h-236v217zM205 1137v217h235v-217h-235z" />
    <glyph glyph-name="uni030A" unicode="&#x30a;" horiz-adv-x="0" 
d="M487 1094q-121 0 -201.5 70t-80.5 175q0 104 80.5 175t201.5 71q119 0 200 -71.5t81 -174.5q0 -104 -80.5 -174.5t-200.5 -70.5zM354 1339q0 -52 38 -86t95 -34q56 0 93.5 34t37.5 86q0 50 -38 84.5t-93 34.5q-57 0 -95 -34.5t-38 -84.5z" />
    <glyph glyph-name="uni030B" unicode="&#x30b;" horiz-adv-x="0" 
d="M389 1106l150 307h-203l-131 -307h184zM575 1106h183l176 307h-217z" />
    <glyph glyph-name="uni030C" unicode="&#x30c;" horiz-adv-x="0" 
d="M424 1106l-219 307h207l137 -168l135 168h205l-219 -307h-246z" />
    <glyph glyph-name="uni0312" unicode="&#x312;" horiz-adv-x="0" 
d="M205 1106l213 297h205l-172 -297h-246z" />
    <glyph glyph-name="uni0326" unicode="&#x326;" horiz-adv-x="0" 
d="M616 -82l-202 -280h-209l170 280h241z" />
    <glyph glyph-name="uni0327" unicode="&#x327;" horiz-adv-x="0" 
d="M412 39v-27l-58 -143h21q80 0 133 -53.5t53 -134.5q0 -86 -53.5 -141.5t-136.5 -55.5h-166v115h135q40 0 65 22t25 57t-25 57.5t-65 22.5h-121v97l72 184h121z" />
    <glyph glyph-name="uni0328" unicode="&#x328;" horiz-adv-x="0" 
d="M424 -418q-103 0 -161 55.5t-58 141.5q0 97 52.5 166t176.5 145l70 -90q-63 -45 -92 -85t-29 -83q0 -41 28 -60.5t72 -19.5h43l-43 -170h-59z" />
    <glyph glyph-name="uni0394" unicode="&#x394;" horiz-adv-x="1216" 
d="M49 0v199l440 1235h240l442 -1235v-199h-1122zM293 227h629l-314 877z" />
    <glyph glyph-name="uni03A9" unicode="&#x3a9;" horiz-adv-x="1593" 
d="M94 0v227h309q-133 93 -216 238t-83 309q0 198 88.5 354.5t247 244t357.5 87.5t357 -87.5t246.5 -244t88.5 -354.5q0 -164 -83 -310t-216 -237h311v-227h-596v217q158 106 248 241.5t90 293.5q0 212 -124 343.5t-322 131.5t-321.5 -131.5t-123.5 -343.5q0 -157 89 -292
t247 -243v-217h-594z" />
    <glyph glyph-name="uni03BC" unicode="&#x3bc;" horiz-adv-x="1175" 
d="M129 -385v1386h229v-569q0 -109 59.5 -178.5t164.5 -69.5q103 0 169 71t66 189v557h230v-1001h-224v154q-48 -85 -130.5 -133t-186.5 -48q-81 0 -148 39v-397h-229z" />
    <glyph glyph-name="pi" unicode="&#x3c0;" horiz-adv-x="1273" 
d="M29 803l2 198h1159l-2 -198h-166v-453q0 -153 149 -153h43v-199h-86q-331 0 -331 336v469h-342v-803h-226v803h-200z" />
    <glyph glyph-name="uni0E3F" unicode="&#xe3f;" horiz-adv-x="1101" 
d="M625 1675v-245q160 -19 260 -118t100 -241q0 -110 -66.5 -201t-148.5 -116q103 -21 175.5 -120.5t72.5 -232.5q0 -161 -112.5 -274.5t-280.5 -124.5v-248h-219v246h-254v1434h254v241h219zM393 201h176q91 0 148 61t57 152q0 92 -57.5 153.5t-145.5 61.5h-178v-428z
M393 829h133q93 0 155 59.5t62 147.5q0 84 -58.5 140.5t-149.5 56.5h-142v-404z" />
    <glyph glyph-name="uni1E20" unicode="&#x1e20;" horiz-adv-x="1568" 
d="M803 -27q-152 0 -286.5 56.5t-230 155t-151 236t-55.5 294.5q0 156 57 294t154.5 237t233.5 156.5t288 57.5q127 0 238 -37.5t192 -102t137.5 -148t83.5 -179.5h-264q-49 109 -159 176.5t-234 67.5q-130 0 -240 -66t-175.5 -185.5t-65.5 -266.5q0 -149 62.5 -268.5
t174 -187.5t250.5 -68q184 0 301.5 109.5t128.5 266.5h-442v222h686q6 -50 6 -107q0 -145 -50 -275.5t-139 -227t-219 -153.5t-282 -57zM473 1542v170h682v-170h-682z" />
    <glyph glyph-name="uni1E21" unicode="&#x1e21;" horiz-adv-x="1247" 
d="M475 -385q-186 0 -280.5 91.5t-94.5 250.5v29h228v-27q0 -69 49 -109t143 -40h176q98 0 145.5 50t47.5 154v136q-135 -119 -316 -119q-216 0 -358.5 139t-142.5 358q0 216 143.5 359t357.5 143q191 0 328 -131v102h217v-981q0 -190 -102.5 -297.5t-292.5 -107.5h-248z
M295 1128v183h668v-183h-668zM303 528q0 -129 85 -216t212 -87q130 0 215.5 85.5t85.5 217.5q0 130 -86 215.5t-215 85.5q-127 0 -212 -87t-85 -214z" />
    <glyph glyph-name="Wgrave" unicode="&#x1e80;" horiz-adv-x="1843" 
d="M397 0l-362 1434h254l186 -713q20 -86 38 -173t26 -131l8 -44q35 156 90 346l201 715h196l197 -697q24 -84 46 -170.5t32 -130.5l10 -45q24 155 67 350l181 693h243l-362 -1434h-231l-287 999l-289 -999h-244zM575 1780h263l196 -262h-209z" />
    <glyph glyph-name="wgrave" unicode="&#x1e81;" horiz-adv-x="1570" 
d="M352 0l-329 1001h243l211 -665l221 665h191l221 -651l205 651h233l-329 -1001h-201l-234 655l-231 -655h-201zM453 1413h262l188 -307h-209z" />
    <glyph glyph-name="Wacute" unicode="&#x1e82;" horiz-adv-x="1843" 
d="M397 0l-362 1434h254l186 -713q20 -86 38 -173t26 -131l8 -44q35 156 90 346l201 715h196l197 -697q24 -84 46 -170.5t32 -130.5l10 -45q24 155 67 350l181 693h243l-362 -1434h-231l-287 999l-289 -999h-244zM805 1518l194 262h263l-248 -262h-209z" />
    <glyph glyph-name="wacute" unicode="&#x1e83;" horiz-adv-x="1570" 
d="M352 0l-329 1001h243l211 -665l221 665h191l221 -651l205 651h233l-329 -1001h-201l-234 655l-231 -655h-201zM688 1106l197 307h250l-240 -307h-207z" />
    <glyph glyph-name="Wdieresis" unicode="&#x1e84;" horiz-adv-x="1843" 
d="M397 0l-362 1434h254l186 -713q20 -86 38 -173t26 -131l8 -44q35 156 90 346l201 715h196l197 -697q24 -84 46 -170.5t32 -130.5l10 -45q24 155 67 350l181 693h243l-362 -1434h-231l-287 999l-289 -999h-244zM590 1522v211h225v-211h-225zM1030 1522v211h225v-211h-225z
" />
    <glyph glyph-name="wdieresis" unicode="&#x1e85;" horiz-adv-x="1570" 
d="M352 0l-329 1001h243l211 -665l221 665h191l221 -651l205 651h233l-329 -1001h-201l-234 655l-231 -655h-201zM469 1137v217h236v-217h-236zM866 1137v217h236v-217h-236z" />
    <glyph glyph-name="uni1E9E" unicode="&#x1e9e;" horiz-adv-x="1294" 
d="M604 1434h559v-189l-313 -416q153 -12 257.5 -119t104.5 -272q0 -185 -129.5 -311.5t-328.5 -126.5h-236v227h234q94 0 155.5 61t61.5 150q0 88 -59.5 147.5t-153.5 59.5h-166v156l295 411l-291 -2q-113 0 -165 -62.5t-52 -184.5v-963h-240v963q0 233 117.5 352
t349.5 119z" />
    <glyph glyph-name="uni1EA0" unicode="&#x1ea0;" horiz-adv-x="1228" 
d="M16 0l486 1434h227l481 -1434h-258l-90 293h-504l-90 -293h-252zM408 516h395l-195 600zM494 -424v252h241v-252h-241z" />
    <glyph glyph-name="uni1EA1" unicode="&#x1ea1;" horiz-adv-x="1079" 
d="M455 -27q-169 0 -271 84.5t-102 223.5q0 151 123 242t348 91h180v25q0 94 -54.5 148.5t-150.5 54.5q-84 0 -144.5 -48t-66.5 -124h-227q7 158 130.5 258t311.5 100q199 0 315 -111.5t116 -298.5v-618h-224v104q-50 -59 -126.5 -95t-157.5 -36zM305 287q0 -61 44 -98
t124 -37q113 0 189.5 80t76.5 198v16h-180q-125 0 -189.5 -40.5t-64.5 -118.5zM414 -424v252h241v-252h-241z" />
    <glyph glyph-name="uni1EB8" unicode="&#x1eb8;" horiz-adv-x="970" 
d="M147 1434h734v-228h-492v-348h428v-219h-428v-412h492v-227h-734v1434zM365 -424v252h241v-252h-241z" />
    <glyph glyph-name="uni1EB9" unicode="&#x1eb9;" horiz-adv-x="1146" 
d="M584 -27q-222 0 -369 149.5t-147 366.5q0 150 72 274.5t192.5 194.5t259.5 70q208 0 348.5 -140t140.5 -345q0 -43 -8 -103h-782q17 -124 102 -198t205 -74q90 0 158 41t88 108h225q-38 -151 -169 -247.5t-316 -96.5zM307 627h541q-6 87 -78.5 147t-177.5 60
q-97 0 -174 -56t-111 -151zM455 -424v252h241v-252h-241z" />
    <glyph glyph-name="uni1EBC" unicode="&#x1ebc;" horiz-adv-x="970" 
d="M147 1434h734v-228h-492v-348h428v-219h-428v-412h492v-227h-734v1434zM135 1518q1 128 61 201t154 73q46 0 97 -18.5t87.5 -40t74 -40t59.5 -18.5q72 0 80 107h161q-1 -127 -64 -201t-159 -74q-46 0 -95 18t-83.5 39.5t-71.5 39.5t-61 18q-31 0 -53 -26.5t-25 -77.5
h-162z" />
    <glyph glyph-name="uni1EBD" unicode="&#x1ebd;" horiz-adv-x="1146" 
d="M584 -27q-222 0 -369 149.5t-147 366.5q0 150 72 274.5t192.5 194.5t259.5 70q208 0 348.5 -140t140.5 -345q0 -43 -8 -103h-782q17 -124 102 -198t205 -74q90 0 158 41t88 108h225q-38 -151 -169 -247.5t-316 -96.5zM207 1120q0 146 57.5 222.5t153.5 76.5
q44 0 88.5 -22t74 -48.5t65 -48.5t63.5 -22q73 0 79 131h154q0 -147 -60 -224t-157 -77q-45 0 -88 21.5t-71.5 48t-62.5 48t-63 21.5q-38 0 -59 -32t-21 -95h-153zM307 627h541q-6 87 -78.5 147t-177.5 60q-97 0 -174 -56t-111 -151z" />
    <glyph glyph-name="uni1ECA" unicode="&#x1eca;" horiz-adv-x="536" 
d="M147 1434h242v-1434h-242v1434zM147 -424v252h242v-252h-242z" />
    <glyph glyph-name="uni1ECB" unicode="&#x1ecb;" horiz-adv-x="487" 
d="M129 1001h229v-1001h-229v1001zM123 -424v252h242v-252h-242zM123 1180v252h242v-252h-242z" />
    <glyph glyph-name="uni1ECC" unicode="&#x1ecc;" horiz-adv-x="1634" 
d="M817 -27q-153 0 -290 58t-235.5 157.5t-156 237.5t-57.5 291q0 154 57.5 292t156 236.5t235.5 156.5t290 58t289.5 -57.5t234.5 -156.5t155.5 -237t57.5 -292q0 -153 -57.5 -291t-155.5 -237.5t-234.5 -157.5t-289.5 -58zM326 717q0 -142 64.5 -260.5t177.5 -187
t249 -68.5q135 0 248 68t178.5 187t65.5 261t-65.5 261t-178.5 187t-248 68q-136 0 -249 -68.5t-177.5 -187t-64.5 -260.5zM696 -424v252h242v-252h-242z" />
    <glyph glyph-name="uni1ECD" unicode="&#x1ecd;" horiz-adv-x="1191" 
d="M596 -27q-221 0 -374.5 153t-153.5 374t153.5 374.5t374.5 153.5t374.5 -153.5t153.5 -374.5t-153.5 -374t-374.5 -153zM291 500q0 -134 88 -225t217 -91q128 0 216.5 91.5t88.5 224.5q0 134 -88.5 225.5t-216.5 91.5q-129 0 -217 -91t-88 -226zM475 -424v252h242v-252
h-242z" />
    <glyph glyph-name="uni1EE4" unicode="&#x1ee4;" horiz-adv-x="1259" 
d="M631 -27q-224 0 -360 144t-136 381v936h242v-940q0 -133 69 -213t185 -80q115 0 184.5 80.5t69.5 212.5v940h239v-936q0 -237 -134.5 -381t-358.5 -144zM510 -424v252h242v-252h-242z" />
    <glyph glyph-name="uni1EE5" unicode="&#x1ee5;" horiz-adv-x="1161" 
d="M1032 1001v-1001h-223v102q-123 -129 -295 -129q-179 0 -288 122t-109 331v575h229v-569q0 -109 59 -178.5t162 -69.5q104 0 171 71t67 189v557h227zM459 -424v252h241v-252h-241z" />
    <glyph glyph-name="Ygrave" unicode="&#x1ef2;" horiz-adv-x="1130" 
d="M23 1434h262l282 -592l277 592h262l-420 -861v-573h-240v573zM217 1780h262l197 -262h-209z" />
    <glyph glyph-name="ygrave" unicode="&#x1ef3;" horiz-adv-x="1060" 
d="M18 1001h244l270 -675l269 675h246l-580 -1386h-244l193 442zM201 1413h262l188 -307h-209z" />
    <glyph glyph-name="uni1EF8" unicode="&#x1ef8;" horiz-adv-x="1130" 
d="M23 1434h262l282 -592l277 592h262l-420 -861v-573h-240v573zM176 1518q1 128 61 201t154 73q46 0 97 -18.5t87.5 -40t74 -40t59.5 -18.5q71 0 79 107h162q-1 -127 -64 -201t-159 -74q-46 0 -95 18t-83.5 39.5t-71.5 39.5t-61 18q-31 0 -53 -26.5t-25 -77.5h-162z" />
    <glyph glyph-name="uni1EF9" unicode="&#x1ef9;" horiz-adv-x="1060" 
d="M18 1001h244l270 -675l269 675h246l-580 -1386h-244l193 442zM166 1120q0 146 57.5 222.5t153.5 76.5q44 0 88.5 -22t74 -48.5t65 -48.5t63.5 -22q74 0 80 131h153q0 -147 -60 -224t-157 -77q-45 0 -88 21.5t-71.5 48t-62.5 48t-63 21.5q-38 0 -59 -32t-21 -95h-153z" />
    <glyph glyph-name="endash" unicode="&#x2013;" horiz-adv-x="1181" 
d="M90 463v215h1002v-215h-1002z" />
    <glyph glyph-name="emdash" unicode="&#x2014;" horiz-adv-x="2222" 
d="M90 463v215h2044v-215h-2044z" />
    <glyph glyph-name="quoteleft" unicode="&#x2018;" horiz-adv-x="479" 
d="M272 1214q0 -26 17 -42.5t43 -16.5h49v-256h-262v535h153v-220z" />
    <glyph glyph-name="quoteright" unicode="&#x2019;" horiz-adv-x="466" 
d="M195 1118q0 26 -17 43t-43 17h-49v256h262v-535h-153v219z" />
    <glyph glyph-name="quotesinglbase" unicode="&#x201a;" horiz-adv-x="456" 
d="M203 -59q0 26 -17 42.5t-43 16.5h-49v256h262v-535h-153v220z" />
    <glyph glyph-name="quotedblleft" unicode="&#x201c;" horiz-adv-x="860" 
d="M272 1214q0 -26 17 -42.5t43 -16.5h49v-256h-262v535h153v-220zM498 899v535h153v-220q0 -26 17 -42.5t43 -16.5h49v-256h-262z" />
    <glyph glyph-name="quotedblright" unicode="&#x201d;" horiz-adv-x="845" 
d="M575 1118q0 26 -16.5 43t-42.5 17h-49v256h262v-535h-154v219zM86 1178v256h262v-535h-153v219q0 26 -17 43t-43 17h-49z" />
    <glyph glyph-name="quotedblbase" unicode="&#x201e;" horiz-adv-x="835" 
d="M582 -59q0 26 -17 42.5t-43 16.5h-49v256h262v-535h-153v220zM94 0v256h262v-535h-153v220q0 26 -17 42.5t-43 16.5h-49z" />
    <glyph glyph-name="dagger" unicode="&#x2020;" horiz-adv-x="911" 
d="M88 911v197h266v326h207v-326h262v-197h-262v-544h-207v544h-266z" />
    <glyph glyph-name="daggerdbl" unicode="&#x2021;" horiz-adv-x="929" 
d="M96 305v197h269v430h-269v196h269v306h206v-306h263v-196h-263v-430h263v-197h-263v-305h-206v305h-269z" />
    <glyph glyph-name="bullet" unicode="&#x2022;" horiz-adv-x="835" 
d="M418 238q-113 0 -187.5 75.5t-74.5 188.5q0 114 74 189t188 75q113 0 187.5 -75t74.5 -189q0 -113 -75 -188.5t-187 -75.5z" />
    <glyph glyph-name="ellipsis" unicode="&#x2026;" horiz-adv-x="1409" 
d="M573 256h263v-256h-263v256zM111 0v256h262v-256h-262zM1036 0v256h262v-256h-262z" />
    <glyph glyph-name="perthousand" unicode="&#x2030;" horiz-adv-x="2396" 
d="M2011 -27q-146 0 -242 102t-96 255q0 154 96 255t242 101q148 0 245 -101t97 -255q0 -153 -97.5 -255t-244.5 -102zM51 1104q0 154 96 255t244 101t245 -101t97 -255q0 -153 -97.5 -254.5t-244.5 -101.5t-243.5 101.5t-96.5 254.5zM225 1104q0 -88 45.5 -143.5
t122.5 -55.5q73 0 118.5 56t45.5 143t-45.5 141.5t-118.5 54.5q-77 0 -122.5 -54.5t-45.5 -141.5zM324 0l792 1434h191l-795 -1434h-188zM924 330q0 154 96 255t244 101t245 -101t97 -255q0 -153 -97.5 -255t-244.5 -102t-243.5 102t-96.5 255zM1098 330q0 -88 45.5 -143.5
t122.5 -55.5q73 0 118.5 56t45.5 143t-45.5 141.5t-118.5 54.5q-77 0 -122.5 -54.5t-45.5 -141.5zM1847 330q0 -87 45 -142t121 -55q74 0 120 55t46 142t-45.5 141.5t-120.5 54.5q-76 0 -121 -54.5t-45 -141.5z" />
    <glyph glyph-name="minute" unicode="&#x2032;" horiz-adv-x="407" 
d="M143 948l-41 279v207h205v-207l-43 -279h-121z" />
    <glyph glyph-name="second" unicode="&#x2033;" horiz-adv-x="747" 
d="M481 948l-41 279v207h205v-207l-43 -279h-121zM102 1227v207h205v-207l-43 -279h-121z" />
    <glyph glyph-name="guilsinglleft" unicode="&#x2039;" horiz-adv-x="780" 
d="M678 25l-588 413v172l588 414v-236l-375 -262l375 -262v-239z" />
    <glyph glyph-name="guilsinglright" unicode="&#x203a;" horiz-adv-x="780" 
d="M102 1026l588 -414v-172l-588 -413v235l375 262l-375 262v240z" />
    <glyph glyph-name="fraction" unicode="&#x2044;" horiz-adv-x="417" 
d="M510 1434h190l-794 -1434h-189z" />
    <glyph glyph-name="franc" unicode="&#x20a3;" horiz-adv-x="995" 
d="M711 233h-262v-233h-242v233h-137v193h137v1008h733v-228h-491v-350h428v-227h-428v-203h262v-193z" />
    <glyph glyph-name="uni20A6" unicode="&#x20a6;" horiz-adv-x="1579" 
d="M891 788q39 -79 77 -163t56 -128l18 -44q-10 169 -10 368v613h234v-478h207v-147h-207v-184h209v-146h-209v-479h-213l-363 686q-40 79 -78 163t-56 129l-19 44q12 -170 12 -369v-653h-236v479h-207v146h207v184h-209v147h209v478h236z" />
    <glyph glyph-name="uni20A9" unicode="&#x20a9;" horiz-adv-x="1968" 
d="M68 729v193h157l-129 512h254l133 -512h273l143 512h197l145 -512h254l133 512h244l-129 -512h158v-193h-207l-185 -729h-231l-209 729h-156l-211 -729h-243l-185 729h-206zM535 729l2 -8q20 -86 37.5 -173t25.5 -131l8 -44q35 156 90 346l2 10h-165zM969 922h45l-23 77z
M1294 729q24 -83 45.5 -167.5t30.5 -127.5l10 -43q23 150 66 338h-152z" />
    <glyph glyph-name="uni20AA" unicode="&#x20aa;" horiz-adv-x="1724" 
d="M553 0v1034h223v-827h379q205 0 205 207v1020h223v-1061q0 -179 -103.5 -276t-283.5 -97h-643zM152 0v1434h626q188 0 295 -95t107 -266v-674h-226v621q0 207 -202 207h-377v-1227h-223z" />
    <glyph glyph-name="dong" unicode="&#x20ab;" horiz-adv-x="1355" 
d="M1130 -168v-145h-958v145h958zM82 498q0 151 67.5 272.5t184 189.5t258.5 68q95 0 181.5 -34t150.5 -95v270h-303v144h303v121h229v-121h133v-144h-133v-1169h-229v102q-64 -61 -150.5 -95t-181.5 -34q-217 0 -363.5 148.5t-146.5 376.5zM307 502q0 -132 89 -220.5
t218 -88.5q132 0 221 86.5t89 222.5q0 133 -89.5 221t-220.5 88q-128 0 -217.5 -89.5t-89.5 -219.5z" />
    <glyph glyph-name="Euro" unicode="&#x20ac;" horiz-adv-x="1355" 
d="M852 985l-39 -186h-319v-164h358l-39 -184h-313q20 -115 90.5 -181.5t175.5 -66.5q113 0 184 75.5t78 202.5h236q-8 -230 -144 -369t-354 -139q-211 0 -345 128.5t-159 349.5h-158v184h152v164h-152v186h158q26 220 160.5 347.5t343.5 127.5q218 0 353 -139t143 -369
h-234q-6 126 -78 202.5t-184 76.5q-105 0 -175.5 -65.5t-90.5 -180.5h352z" />
    <glyph glyph-name="uni20B1" unicode="&#x20b1;" horiz-adv-x="1388" 
d="M268 0v799h-190v147h190v107h-190v147h190v234h414q147 0 257 -62t161 -172h223v-147h-184q2 -12 2 -39q0 -22 -4 -68h186v-147h-231q-57 -108 -163 -170t-243 -62h-176v-567h-242zM510 791h162q103 0 165 59.5t62 155.5q0 90 -62 146t-165 56h-162v-417z" />
    <glyph glyph-name="uni20B4" unicode="&#x20b4;" horiz-adv-x="1366" 
d="M678 -27q-196 0 -327 120.5t-130 309.5q0 69 19 121h-134v152h1154v-152h-754q-47 -50 -47 -121q0 -90 62.5 -148t156.5 -58q101 0 163 64.5t62 166.5h240q0 -204 -130.5 -329.5t-334.5 -125.5zM106 762v151h709q76 50 76 144q0 77 -55.5 127.5t-141.5 50.5
q-84 0 -138 -54t-60 -141h-240q0 182 121 301t321 119q188 0 308 -115t120 -296q0 -76 -26 -136h160v-151h-1154z" />
    <glyph glyph-name="uni20BA" unicode="&#x20ba;" horiz-adv-x="1284" 
d="M317 0v483l-213 -98v195l213 98v172l-213 -98v194l213 98v390h242v-277l356 164v-195l-356 -163v-172l356 163v-194l-356 -164v-369h199q107 0 165 58.5t58 165.5v57h240v-70q0 -206 -122.5 -322t-340.5 -116h-441z" />
    <glyph glyph-name="uni20BD" unicode="&#x20bd;" horiz-adv-x="1202" 
d="M100 285v190h158v166h-158v190h158v603h434q202 0 330.5 -109t128.5 -285q0 -182 -125.5 -290.5t-327.5 -108.5h-200v-166h364v-190h-364v-285h-240v285h-158zM498 831h184q104 0 165.5 54.5t61.5 144.5q0 84 -62 136.5t-165 52.5h-184v-388z" />
    <glyph glyph-name="uni20BF" unicode="&#x20bf;" horiz-adv-x="1097" 
d="M446 1675v-241h107q21 0 61 -4v245h160v-289q96 -46 151.5 -129t55.5 -186q0 -110 -66.5 -201t-148.5 -116q103 -21 175.5 -120.5t72.5 -232.5q0 -119 -65.5 -215t-174.5 -147v-285h-160v246h-28h-140v-246h-159v246h-140v1434h140v241h159zM389 201h176q91 0 148 61
t57 152q0 92 -57.5 153.5t-145.5 61.5h-178v-428zM389 829h133q93 0 155 59.5t62 147.5q0 84 -59 140.5t-150 56.5h-141v-404z" />
    <glyph glyph-name="uni2116" unicode="&#x2116;" horiz-adv-x="2375" 
d="M1784 1460q144 0 261.5 -66t185 -183t67.5 -259q0 -141 -68 -258.5t-186 -184.5t-260 -67q-105 0 -199.5 38.5t-162.5 105.5t-108 161.5t-40 200.5q0 140 68.5 258t186 186t255.5 68zM147 0v1434h236l342 -646q39 -79 77 -163t56 -128l19 -44q-11 169 -11 368v613h234
v-1434h-213l-363 686q-40 79 -78 163t-56 129l-19 44q12 -170 12 -369v-653h-236zM1307 0v213h958v-213h-958zM1489 950q0 -126 85.5 -213.5t211.5 -87.5t211.5 86.5t85.5 214.5q0 129 -85.5 216t-211.5 87t-211.5 -87t-85.5 -216z" />
    <glyph glyph-name="uni2117" unicode="&#x2117;" horiz-adv-x="1691" 
d="M846 -27q-150 0 -288 59.5t-237.5 159t-159 237.5t-59.5 288q0 151 59.5 288.5t159 237t237.5 158.5t288 59q151 0 288.5 -59t237 -158.5t158.5 -237t59 -288.5q0 -150 -59 -288t-158.5 -237.5t-237 -159t-288.5 -59.5zM207 717q0 -131 50.5 -250.5t136.5 -206
t204 -137.5t248 -51t248.5 51t204.5 137.5t137 206t51 250.5t-51 251t-137 206.5t-204.5 138t-248.5 51.5t-248 -51.5t-204 -138t-136.5 -206.5t-50.5 -251zM641 326v788h240q114 0 186 -66t72 -174q0 -109 -72 -181t-184 -72h-86v-295h-156zM797 756h75q51 0 82 32t31 80
t-30.5 77.5t-82.5 29.5h-75v-219z" />
    <glyph glyph-name="trademark" unicode="&#x2122;" horiz-adv-x="1599" 
d="M647 717v717h242l174 -447l172 447h235v-717h-163v487l-187 -487h-123l-186 489v-489h-164zM57 1278v156h498v-156h-160v-561h-178v561h-160z" />
    <glyph glyph-name="uni2126" unicode="&#x2126;" horiz-adv-x="1609" 
d="M102 0v227h310q-133 93 -216 238t-83 309q0 198 88.5 354.5t246.5 244t357 87.5t357 -87.5t246.5 -244t88.5 -354.5q0 -164 -83 -310t-216 -237h311v-227h-596v217q158 106 248 241.5t90 293.5q0 212 -124 343.5t-322 131.5t-321.5 -131.5t-123.5 -343.5q0 -157 89 -292
t247 -243v-217h-594z" />
    <glyph glyph-name="oneeighth" unicode="&#x215b;" horiz-adv-x="1576" 
d="M348 1436v-861h-153v576h-142v141h47q53 0 78 23t25 74v47h145zM188 0l793 1434h190l-794 -1434h-189zM909 242q0 65 38.5 120.5t105.5 88.5q-123 66 -123 186q0 106 79 173t203 67q125 0 203 -67.5t78 -172.5q0 -117 -119 -186q60 -29 99.5 -85.5t39.5 -125.5
q0 -108 -85 -182t-216 -74t-217 74t-86 184zM1067 246q0 -56 42 -93.5t103 -37.5q62 0 104 38t42 93t-43 93t-103 38q-61 0 -103 -37.5t-42 -93.5zM1075 629q0 -54 38.5 -87.5t98.5 -33.5t100 34t40 85q0 54 -40 90.5t-100 36.5q-59 0 -98 -36t-39 -89z" />
    <glyph glyph-name="threeeighths" unicode="&#x215c;" horiz-adv-x="1779" 
d="M365 559q-133 0 -218 78t-84 203h154q0 -58 40.5 -98t102.5 -40q61 0 101.5 35.5t40.5 89.5q0 51 -45 85t-115 34h-31v133h31q67 0 108.5 33t41.5 84q0 50 -37 81.5t-93 31.5q-60 0 -97.5 -35.5t-37.5 -91.5l-151 2q0 116 81 192t205 76q125 0 204 -67t79 -175
q0 -62 -35 -113.5t-96 -80.5q66 -22 105.5 -75.5t39.5 -125.5q0 -110 -84 -183t-210 -73zM385 0l793 1434h190l-795 -1434h-188zM1106 242q0 66 38.5 121.5t104.5 87.5q-123 66 -123 186q0 106 79 173t204 67t203 -67.5t78 -172.5q0 -117 -119 -186q60 -29 99.5 -85.5
t39.5 -125.5q0 -108 -85 -182t-216 -74t-217 74t-86 184zM1264 246q0 -56 42 -93.5t103 -37.5t103 37.5t42 93.5q0 55 -42.5 93t-102.5 38q-61 0 -103 -37.5t-42 -93.5zM1272 629q0 -54 38.5 -87.5t98.5 -33.5t99.5 34t39.5 85q0 54 -39.5 90.5t-99.5 36.5q-59 0 -98 -36
t-39 -89z" />
    <glyph glyph-name="fiveeighths" unicode="&#x215d;" horiz-adv-x="1777" 
d="M354 559q-131 0 -215 79t-84 204h156q2 -59 42 -96t101 -37q64 0 107 44.5t43 106.5q0 68 -41 110t-107 42q-74 0 -129 -58h-141l41 482h481v-148h-342l-22 -201q56 46 141 46q123 0 200 -73.5t77 -205.5q0 -127 -89.5 -211t-218.5 -84zM389 0l793 1434h190l-794 -1434
h-189zM1108 242q0 66 38.5 121.5t104.5 87.5q-123 66 -123 186q0 106 79 173t204 67t203 -67.5t78 -172.5q0 -117 -119 -186q60 -29 99.5 -85.5t39.5 -125.5q0 -108 -85 -182t-216 -74t-217 74t-86 184zM1266 246q0 -56 42 -93.5t103 -37.5t103 37.5t42 93.5q0 55 -42.5 93
t-102.5 38q-61 0 -103 -37.5t-42 -93.5zM1274 629q0 -54 38.5 -87.5t98.5 -33.5t99.5 34t39.5 85q0 54 -39.5 90.5t-99.5 36.5q-59 0 -98 -36t-39 -89z" />
    <glyph glyph-name="seveneighths" unicode="&#x215e;" horiz-adv-x="1615" 
d="M119 575l327 713h-397v148h574v-131l-332 -730h-172zM227 0l793 1434h190l-794 -1434h-189zM948 242q0 65 38.5 120.5t105.5 88.5q-123 66 -123 186q0 106 79 173t203 67q125 0 203 -67.5t78 -172.5q0 -117 -119 -186q60 -29 99.5 -85.5t39.5 -125.5q0 -108 -85 -182
t-216 -74t-217 74t-86 184zM1106 246q0 -56 42 -93.5t103 -37.5q62 0 104 38t42 93t-43 93t-103 38q-61 0 -103 -37.5t-42 -93.5zM1114 629q0 -54 38.5 -87.5t98.5 -33.5t100 34t40 85q0 54 -40 90.5t-100 36.5q-59 0 -98 -36t-39 -89z" />
    <glyph glyph-name="arrowleft" unicode="&#x2190;" horiz-adv-x="1490" 
d="M739 -23l-649 646l649 645l160 -158l-393 -381h885v-213h-887l391 -383z" />
    <glyph glyph-name="arrowup" unicode="&#x2191;" horiz-adv-x="1439" 
d="M1356 641l-158 -158l-364 375v-854h-228v860l-366 -379l-158 156l639 641z" />
    <glyph glyph-name="arrowright" unicode="&#x2192;" horiz-adv-x="1490" 
d="M752 -23l-156 156l393 383h-887v213h883l-391 381l158 158l649 -645z" />
    <glyph glyph-name="arrowdown" unicode="&#x2193;" horiz-adv-x="1439" 
d="M84 610l158 158l364 -375v854h228v-860l366 379l158 -156l-639 -641z" />
    <glyph glyph-name="uni2196" unicode="&#x2196;" horiz-adv-x="1275" 
d="M131 326l-4 897h905l2 -217l-530 2l692 -699l-160 -159l-692 704l8 -528h-221z" />
    <glyph glyph-name="uni2197" unicode="&#x2197;" horiz-adv-x="1280" 
d="M1153 293h-227v538l-693 -692l-151 152l700 700l-546 -2v219h915z" />
    <glyph glyph-name="uni2198" unicode="&#x2198;" horiz-adv-x="1253" 
d="M1130 897l5 -897h-906l-2 217l531 -2l-692 698l159 160l693 -704l-9 528h221z" />
    <glyph glyph-name="uni2199" unicode="&#x2199;" horiz-adv-x="1257" 
d="M119 915h227v-538l692 692l152 -151l-701 -701l547 2v-219h-915z" />
    <glyph glyph-name="partialdiff" unicode="&#x2202;" horiz-adv-x="1161" 
d="M573 -27q-144 0 -261.5 66t-184 180t-66.5 252q0 137 62.5 247.5t170 172t238.5 61.5q52 0 93 -14l-312 496h279l379 -607q56 -89 85 -186.5t29 -175.5q0 -210 -146.5 -351t-365.5 -141zM301 467q0 -117 78 -195.5t194 -78.5q117 0 195 78.5t78 195.5q0 119 -78 200
t-193 81q-120 0 -197 -79.5t-77 -201.5z" />
    <glyph glyph-name="emptyset" unicode="&#x2205;" horiz-adv-x="1687" 
d="M291 -94l-166 141l158 186q-174 206 -174 484q0 206 97.5 376.5t267 268.5t374.5 98q212 0 385 -106l131 151l168 -141l-129 -152q182 -207 182 -495q0 -153 -57.5 -291t-155.5 -237.5t-234.5 -157.5t-289.5 -58q-218 0 -402 115zM356 717q0 -164 86 -295l637 752
q-106 59 -231 59q-136 0 -249 -68t-178 -187t-65 -261zM600 268q112 -67 248 -67q205 0 347 149.5t142 366.5q0 172 -94 309z" />
    <glyph glyph-name="uni2206" unicode="&#x2206;" horiz-adv-x="1222" 
d="M51 0v199l441 1235h239l443 -1235v-199h-1123zM295 227h629l-314 877z" />
    <glyph glyph-name="product" unicode="&#x220f;" horiz-adv-x="1327" 
d="M147 0v1432h1033v-1432h-240v1204h-551v-1204h-242z" />
    <glyph glyph-name="summation" unicode="&#x2211;" horiz-adv-x="1155" 
d="M764 795v-156l-340 -412h653v-227h-995v203l428 512l-428 514v205h995v-230h-651z" />
    <glyph glyph-name="minus" unicode="&#x2212;" 
d="M1114 782v-209h-956v209h956z" />
    <glyph glyph-name="radical" unicode="&#x221a;" horiz-adv-x="1316" 
d="M86 774v227h379l211 -641l356 1074h242l-490 -1434h-231l-250 774h-217z" />
    <glyph glyph-name="infinity" unicode="&#x221e;" horiz-adv-x="1988" 
d="M1395 1178q142 0 254.5 -70t171.5 -185t59 -251q0 -137 -59 -252t-171 -184.5t-255 -69.5q-134 0 -245.5 72.5t-156.5 175.5q-45 -104 -156 -177t-245 -73q-142 0 -254 70t-170.5 185.5t-58.5 252.5q0 102 34.5 194t96.5 161t153.5 110t198.5 41q135 0 245.5 -72
t155.5 -176q44 103 156.5 175.5t245.5 72.5zM340 672q0 -129 73 -209t191 -80q106 0 189.5 78t107.5 211q-24 132 -107 210.5t-190 78.5q-117 0 -190.5 -80.5t-73.5 -208.5zM1102 672q24 -133 103 -211t179 -78q117 0 191 80t74 209q0 128 -74 208.5t-191 80.5
q-99 0 -178.5 -78.5t-103.5 -210.5z" />
    <glyph glyph-name="integral" unicode="&#x222b;" horiz-adv-x="712" 
d="M61 -334v195h37q67 0 99 33t32 102v1096q0 342 336 342h97v-195h-68q-63 0 -99 -35.5t-36 -103.5v-1094q0 -172 -80 -256t-250 -84h-68z" />
    <glyph glyph-name="approxequal" unicode="&#x2248;" 
d="M147 694q0 186 83.5 289.5t195.5 103.5q58 0 119.5 -26t104 -56.5t89 -56.5t78.5 -26q44 0 72.5 41t28.5 122l206 2q0 -187 -83.5 -290t-196.5 -103q-47 0 -94.5 17t-86.5 41t-74.5 48t-70.5 41t-63 17q-44 0 -73.5 -43t-29.5 -121h-205zM147 221q0 186 83.5 289.5
t195.5 103.5q58 0 119.5 -26t104 -56.5t89 -56.5t78.5 -26q44 0 72.5 41t28.5 122l206 2q0 -187 -83.5 -290t-196.5 -103q-47 0 -94.5 17t-86.5 41t-74.5 48t-70.5 41t-63 17q-44 0 -73.5 -43t-29.5 -121h-205z" />
    <glyph glyph-name="notequal" unicode="&#x2260;" 
d="M915 1239l-67 -227h266v-209h-330l-69 -238h399v-209h-463l-67 -227h-230l68 227h-264v209h327l70 238h-397v209h460l68 227h229z" />
    <glyph glyph-name="lessequal" unicode="&#x2264;" 
d="M172 111v204h915v-204h-915zM172 715v239l915 283v-217l-632 -184l632 -193v-217z" />
    <glyph glyph-name="greaterequal" unicode="&#x2265;" 
d="M184 111v204h914v-204h-914zM184 426v217l631 182l-631 193v219l914 -289v-241z" />
    <glyph glyph-name="uni2460" unicode="&#x2460;" horiz-adv-x="1691" 
d="M846 -27q-150 0 -288 59.5t-237.5 159t-159 237.5t-59.5 288q0 151 59.5 288.5t159 237t237.5 158.5t288 59q151 0 288.5 -59t237 -158.5t158.5 -237t59 -288.5q0 -150 -59 -288t-158.5 -237.5t-237 -159t-288.5 -59.5zM207 717q0 -131 50.5 -250.5t136.5 -206
t204 -137.5t248 -51t248.5 51t204.5 137.5t137 206t51 250.5t-51 251t-137 206.5t-204.5 138t-248.5 51.5t-248 -51.5t-204 -138t-136.5 -206.5t-50.5 -251zM641 877v141h47q53 0 78 23t25 73v47h145v-860h-154v576h-141z" />
    <glyph glyph-name="uni2461" unicode="&#x2461;" horiz-adv-x="1691" 
d="M846 -27q-150 0 -288 59.5t-237.5 159t-159 237.5t-59.5 288q0 151 59.5 288.5t159 237t237.5 158.5t288 59q151 0 288.5 -59t237 -158.5t158.5 -237t59 -288.5q0 -150 -59 -288t-158.5 -237.5t-237 -159t-288.5 -59.5zM207 717q0 -131 50.5 -250.5t136.5 -206
t204 -137.5t248 -51t248.5 51t204.5 137.5t137 206t51 250.5t-51 251t-137 206.5t-204.5 138t-248.5 51.5t-248 -51.5t-204 -138t-136.5 -206.5t-50.5 -251zM547 301v127l284 279q73 69 102.5 111t29.5 93t-33.5 85t-87.5 34q-61 0 -100 -46.5t-37 -115.5h-152
q-1 136 83 223t212 87q118 0 195 -74.5t77 -183.5q0 -86 -45 -153t-141 -159l-152 -159h344v-148h-579z" />
    <glyph glyph-name="uni2462" unicode="&#x2462;" horiz-adv-x="1691" 
d="M846 -27q-150 0 -288 59.5t-237.5 159t-159 237.5t-59.5 288q0 151 59.5 288.5t159 237t237.5 158.5t288 59q151 0 288.5 -59t237 -158.5t158.5 -237t59 -288.5q0 -150 -59 -288t-158.5 -237.5t-237 -159t-288.5 -59.5zM207 717q0 -131 50.5 -250.5t136.5 -206
t204 -137.5t248 -51t248.5 51t204.5 137.5t137 206t51 250.5t-51 251t-137 206.5t-204.5 138t-248.5 51.5t-248 -51.5t-204 -138t-136.5 -206.5t-50.5 -251zM539 563h153q0 -58 41 -97.5t103 -39.5q61 0 101 35.5t40 89.5q0 51 -45 85t-115 34h-31v133h31q67 0 108.5 33
t41.5 84q0 50 -36.5 81t-92.5 31q-60 0 -98 -35.5t-38 -91.5l-151 2q0 116 81.5 192.5t205.5 76.5q125 0 203.5 -67t78.5 -175q0 -62 -35 -114t-96 -81q66 -22 106 -75t40 -125q0 -110 -84.5 -183t-210.5 -73q-133 0 -217.5 77.5t-83.5 202.5z" />
    <glyph glyph-name="uni2463" unicode="&#x2463;" horiz-adv-x="1691" 
d="M846 -27q-150 0 -288 59.5t-237.5 159t-159 237.5t-59.5 288q0 151 59.5 288.5t159 237t237.5 158.5t288 59q151 0 288.5 -59t237 -158.5t158.5 -237t59 -288.5q0 -150 -59 -288t-158.5 -237.5t-237 -159t-288.5 -59.5zM207 717q0 -131 50.5 -250.5t136.5 -206
t204 -137.5t248 -51t248.5 51t204.5 137.5t137 206t51 250.5t-51 251t-137 206.5t-204.5 138t-248.5 51.5t-248 -51.5t-204 -138t-136.5 -206.5t-50.5 -251zM485 487v138l242 536h164l-240 -534h209v186h150v-186h116v-140h-116v-186h-156v186h-369z" />
    <glyph glyph-name="uni2464" unicode="&#x2464;" horiz-adv-x="1691" 
d="M846 -27q-150 0 -288 59.5t-237.5 159t-159 237.5t-59.5 288q0 151 59.5 288.5t159 237t237.5 158.5t288 59q151 0 288.5 -59t237 -158.5t158.5 -237t59 -288.5q0 -150 -59 -288t-158.5 -237.5t-237 -159t-288.5 -59.5zM207 717q0 -131 50.5 -250.5t136.5 -206
t204 -137.5t248 -51t248.5 51t204.5 137.5t137 206t51 250.5t-51 251t-137 206.5t-204.5 138t-248.5 51.5t-248 -51.5t-204 -138t-136.5 -206.5t-50.5 -251zM526 567h156q2 -59 42 -96t101 -37q64 0 107 45t43 107q0 67 -41 109t-107 42q-75 0 -129 -57h-141l41 481h481
v-147h-342l-22 -201q54 45 141 45q124 0 200.5 -73t76.5 -205q0 -127 -89.5 -211t-218.5 -84q-131 0 -215 78.5t-84 203.5z" />
    <glyph glyph-name="uni2465" unicode="&#x2465;" horiz-adv-x="1691" 
d="M846 -27q-150 0 -288 59.5t-237.5 159t-159 237.5t-59.5 288q0 151 59.5 288.5t159 237t237.5 158.5t288 59q151 0 288.5 -59t237 -158.5t158.5 -237t59 -288.5q0 -150 -59 -288t-158.5 -237.5t-237 -159t-288.5 -59.5zM207 717q0 -131 50.5 -250.5t136.5 -206
t204 -137.5t248 -51t248.5 51t204.5 137.5t137 206t51 250.5t-51 251t-137 206.5t-204.5 138t-248.5 51.5t-248 -51.5t-204 -138t-136.5 -206.5t-50.5 -251zM514 582q0 104 70 217l227 362h176l-184 -291q28 7 49 7q119 0 201 -83.5t82 -207.5q0 -128 -89 -214.5t-221 -86.5
q-133 0 -222 85.5t-89 211.5zM668 582q0 -66 45.5 -111t111.5 -45q65 0 110.5 45t45.5 111q0 70 -45 115.5t-113 45.5q-66 0 -110.5 -46.5t-44.5 -114.5z" />
    <glyph glyph-name="uni2466" unicode="&#x2466;" horiz-adv-x="1691" 
d="M846 -27q-150 0 -288 59.5t-237.5 159t-159 237.5t-59.5 288q0 151 59.5 288.5t159 237t237.5 158.5t288 59q151 0 288.5 -59t237 -158.5t158.5 -237t59 -288.5q0 -150 -59 -288t-158.5 -237.5t-237 -159t-288.5 -59.5zM207 717q0 -131 50.5 -250.5t136.5 -206
t204 -137.5t248 -51t248.5 51t204.5 137.5t137 206t51 250.5t-51 251t-137 206.5t-204.5 138t-248.5 51.5t-248 -51.5t-204 -138t-136.5 -206.5t-50.5 -251zM547 1014v147h573v-131l-332 -729h-172l328 713h-397z" />
    <glyph glyph-name="uni2467" unicode="&#x2467;" horiz-adv-x="1691" 
d="M846 -27q-150 0 -288 59.5t-237.5 159t-159 237.5t-59.5 288q0 151 59.5 288.5t159 237t237.5 158.5t288 59q151 0 288.5 -59t237 -158.5t158.5 -237t59 -288.5q0 -150 -59 -288t-158.5 -237.5t-237 -159t-288.5 -59.5zM207 717q0 -131 50.5 -250.5t136.5 -206
t204 -137.5t248 -51t248.5 51t204.5 137.5t137 206t51 250.5t-51 251t-137 206.5t-204.5 138t-248.5 51.5t-248 -51.5t-204 -138t-136.5 -206.5t-50.5 -251zM539 543q0 66 38.5 121.5t104.5 87.5q-123 66 -123 186q0 106 79 173t204 67t202.5 -67.5t77.5 -172.5
q0 -117 -118 -186q60 -29 99.5 -85.5t39.5 -125.5q0 -108 -85 -182t-216 -74t-217 74t-86 184zM696 547q0 -55 42 -93t104 -38q61 0 103 37.5t42 93.5q0 55 -42.5 93t-102.5 38q-62 0 -104 -38t-42 -93zM705 930q0 -54 38.5 -87.5t98.5 -33.5t99.5 34t39.5 85
q0 54 -39.5 90.5t-99.5 36.5q-59 0 -98 -36t-39 -89z" />
    <glyph glyph-name="uni2468" unicode="&#x2468;" horiz-adv-x="1691" 
d="M846 -27q-150 0 -288 59.5t-237.5 159t-159 237.5t-59.5 288q0 151 59.5 288.5t159 237t237.5 158.5t288 59q151 0 288.5 -59t237 -158.5t158.5 -237t59 -288.5q0 -150 -59 -288t-158.5 -237.5t-237 -159t-288.5 -59.5zM207 717q0 -131 50.5 -250.5t136.5 -206
t204 -137.5t248 -51t248.5 51t204.5 137.5t137 206t51 250.5t-51 251t-137 206.5t-204.5 138t-248.5 51.5t-248 -51.5t-204 -138t-136.5 -206.5t-50.5 -251zM535 879q0 128 88.5 214.5t220.5 86.5q133 0 222 -85.5t89 -211.5q0 -104 -70 -217l-227 -363h-176l184 291
q-24 -6 -49 -6q-119 0 -200.5 83.5t-81.5 207.5zM688 883q0 -70 45 -116t113 -46q66 0 110.5 47t44.5 115q0 66 -45.5 110.5t-111.5 44.5q-65 0 -110.5 -44.5t-45.5 -110.5z" />
    <glyph glyph-name="lozenge" unicode="&#x25ca;" horiz-adv-x="1136" 
d="M88 715l395 719h168l398 -719l-398 -715h-168zM301 715l266 -484l262 484l-262 485z" />
    <glyph glyph-name="circle" unicode="&#x25cb;" horiz-adv-x="1691" 
d="M846 -27q-150 0 -288 59.5t-237.5 159t-159 237.5t-59.5 288q0 151 59.5 288.5t159 237t237.5 158.5t288 59q151 0 288.5 -59t237 -158.5t158.5 -237t59 -288.5q0 -150 -59 -288t-158.5 -237.5t-237 -159t-288.5 -59.5zM207 717q0 -131 50.5 -250.5t136.5 -206
t204 -137.5t248 -51t248.5 51t204.5 137.5t137 206t51 250.5t-51 251t-137 206.5t-204.5 138t-248.5 51.5t-248 -51.5t-204 -138t-136.5 -206.5t-50.5 -251z" />
    <glyph glyph-name="uni25CF" unicode="&#x25cf;" horiz-adv-x="1679" 
d="M840 -20q-149 0 -286 58.5t-236 157.5t-157.5 235t-58.5 284q0 150 58.5 286t157.5 235t235.5 157.5t286.5 58.5q198 0 367.5 -99t268.5 -268.5t99 -369.5q0 -148 -58.5 -284t-157.5 -235t-235 -157.5t-284 -58.5z" />
    <glyph glyph-name="uniE132" unicode="&#xe132;" horiz-adv-x="956" 
d="M129 1001h229v-1001h-229v1001zM147 1106l197 307h250l-240 -307h-207zM428 -385v205h72q46 0 72 27.5t26 78.5v1075h229v-1085q0 -165 -76.5 -233t-222.5 -68h-100zM616 1106l197 307h250l-240 -307h-207z" />
    <glyph glyph-name="uniE133" unicode="&#xe133;" horiz-adv-x="1200" 
d="M147 1434h242v-1434h-242v1434zM150 1518l194 262h262l-248 -262h-208zM559 0v227h72q95 0 142.5 49.5t47.5 161.5v996h240v-1065q0 -176 -95.5 -272.5t-265.5 -96.5h-141zM821 1518l195 262h262l-248 -262h-209z" />
    <glyph glyph-name="S.ss02" horiz-adv-x="1095" 
d="M481 0q-168 0 -280.5 112.5t-112.5 288.5v58h242v-49q0 -90 53 -145.5t129 -55.5h86q87 0 130.5 49.5t43.5 138.5q0 79 -38.5 124t-108.5 71l-240 78q-281 94 -281 395q0 165 100.5 267t262.5 102h141q153 0 258 -98.5t105 -252.5v-77h-240v67q0 67 -46 107.5t-112 40.5
h-88q-63 0 -104 -44t-41 -112q0 -142 149 -193l242 -77q64 -21 111.5 -49.5t86.5 -73.5t59.5 -111.5t21.5 -154.5q2 -189 -101.5 -297.5t-292.5 -108.5h-135z" />
    <glyph glyph-name="Sacute.ss02" horiz-adv-x="1095" 
d="M481 0q-168 0 -280.5 112.5t-112.5 288.5v58h242v-49q0 -90 53 -145.5t129 -55.5h86q87 0 130.5 49.5t43.5 138.5q0 79 -38.5 124t-108.5 71l-240 78q-281 94 -281 395q0 165 100.5 267t262.5 102h141q153 0 258 -98.5t105 -252.5v-77h-240v67q0 67 -46 107.5t-112 40.5
h-88q-63 0 -104 -44t-41 -112q0 -142 149 -193l242 -77q64 -21 111.5 -49.5t86.5 -73.5t59.5 -111.5t21.5 -154.5q2 -189 -101.5 -297.5t-292.5 -108.5h-135zM420 1518l194 262h263l-248 -262h-209z" />
    <glyph glyph-name="Scaron.ss02" horiz-adv-x="1095" 
d="M481 0q-168 0 -280.5 112.5t-112.5 288.5v58h242v-49q0 -90 53 -145.5t129 -55.5h86q87 0 130.5 49.5t43.5 138.5q0 79 -38.5 124t-108.5 71l-240 78q-281 94 -281 395q0 165 100.5 267t262.5 102h141q153 0 258 -98.5t105 -252.5v-77h-240v67q0 67 -46 107.5t-112 40.5
h-88q-63 0 -104 -44t-41 -112q0 -142 149 -193l242 -77q64 -21 111.5 -49.5t86.5 -73.5t59.5 -111.5t21.5 -154.5q2 -189 -101.5 -297.5t-292.5 -108.5h-135zM162 1798h231l146 -156l145 156h229l-251 -280h-248z" />
    <glyph glyph-name="Scedilla.ss02" horiz-adv-x="1095" 
d="M481 0q-168 0 -280.5 112.5t-112.5 288.5v58h242v-49q0 -90 53 -145.5t129 -55.5h86q87 0 130.5 49.5t43.5 138.5q0 79 -38.5 124t-108.5 71l-240 78q-281 94 -281 395q0 165 100.5 267t262.5 102h141q153 0 258 -98.5t105 -252.5v-77h-240v67q0 67 -46 107.5t-112 40.5
h-88q-63 0 -104 -44t-41 -112q0 -142 149 -193l242 -77q64 -21 111.5 -49.5t86.5 -73.5t59.5 -111.5t21.5 -154.5q2 -183 -95.5 -291.5t-275.5 -114.5l-53 -131h20q80 0 133.5 -53.5t53.5 -134.5q0 -86 -54 -141.5t-137 -55.5h-166v115h135q40 0 65.5 22t25.5 57t-25.5 57.5
t-65.5 22.5h-120v97l57 145h-27z" />
    <glyph glyph-name="Scircumflex.ss02" horiz-adv-x="1095" 
d="M481 0q-168 0 -280.5 112.5t-112.5 288.5v58h242v-49q0 -90 53 -145.5t129 -55.5h86q87 0 130.5 49.5t43.5 138.5q0 79 -38.5 124t-108.5 71l-240 78q-281 94 -281 395q0 165 100.5 267t262.5 102h141q153 0 258 -98.5t105 -252.5v-77h-240v67q0 67 -46 107.5t-112 40.5
h-88q-63 0 -104 -44t-41 -112q0 -142 149 -193l242 -77q64 -21 111.5 -49.5t86.5 -73.5t59.5 -111.5t21.5 -154.5q2 -189 -101.5 -297.5t-292.5 -108.5h-135zM162 1518l254 274h248l251 -274h-231l-143 149l-148 -149h-231z" />
    <glyph glyph-name="uni0218.ss02" horiz-adv-x="1095" 
d="M481 0q-168 0 -280.5 112.5t-112.5 288.5v58h242v-49q0 -90 53 -145.5t129 -55.5h86q87 0 130.5 49.5t43.5 138.5q0 79 -38.5 124t-108.5 71l-240 78q-281 94 -281 395q0 165 100.5 267t262.5 102h141q153 0 258 -98.5t105 -252.5v-77h-240v67q0 67 -46 107.5t-112 40.5
h-88q-63 0 -104 -44t-41 -112q0 -142 149 -193l242 -77q64 -21 111.5 -49.5t86.5 -73.5t59.5 -111.5t21.5 -154.5q2 -189 -101.5 -297.5t-292.5 -108.5h-135zM250 -362l170 280h242l-203 -280h-209z" />
    <glyph glyph-name="C.titl" horiz-adv-x="1183" 
d="M344 532q0 -150 74 -239.5t198 -89.5q113 0 184.5 75.5t78.5 202.5h235q-8 -230 -144 -369t-354 -139q-233 0 -371.5 156t-138.5 416v342q0 260 138.5 416.5t371.5 156.5q218 0 353 -139t143 -369h-233q-6 126 -78 202.5t-185 76.5q-124 0 -198 -90.5t-74 -241.5v-367z
" />
    <glyph glyph-name="Cacute.titl" horiz-adv-x="1183" 
d="M344 532q0 -150 74 -239.5t198 -89.5q113 0 184.5 75.5t78.5 202.5h235q-8 -230 -144 -369t-354 -139q-233 0 -371.5 156t-138.5 416v342q0 260 138.5 416.5t371.5 156.5q218 0 353 -139t143 -369h-233q-6 126 -78 202.5t-185 76.5q-124 0 -198 -90.5t-74 -241.5v-367z
M502 1518l194 262h262l-247 -262h-209z" />
    <glyph glyph-name="Ccaron.titl" horiz-adv-x="1183" 
d="M344 532q0 -150 74 -239.5t198 -89.5q113 0 184.5 75.5t78.5 202.5h235q-8 -230 -144 -369t-354 -139q-233 0 -371.5 156t-138.5 416v342q0 260 138.5 416.5t371.5 156.5q218 0 353 -139t143 -369h-233q-6 126 -78 202.5t-185 76.5q-124 0 -198 -90.5t-74 -241.5v-367z
M244 1798h231l146 -156l145 156h229l-252 -280h-247z" />
    <glyph glyph-name="Ccedilla.titl" horiz-adv-x="1183" 
d="M344 532q0 -150 74 -239.5t198 -89.5q113 0 184.5 75.5t78.5 202.5h235q-7 -210 -122 -345.5t-304 -158.5l-43 -108h21q80 0 133 -53.5t53 -134.5q0 -86 -53.5 -141.5t-136.5 -55.5h-166v115h135q40 0 65 22t25 57t-25 57.5t-65 22.5h-121v97l47 120q-208 22 -329.5 175
t-121.5 395v342q0 260 138.5 416.5t371.5 156.5q218 0 353 -139t143 -369h-233q-6 126 -78 202.5t-185 76.5q-124 0 -198 -90.5t-74 -241.5v-367z" />
    <glyph glyph-name="Ccircumflex.titl" horiz-adv-x="1183" 
d="M344 532q0 -150 74 -239.5t198 -89.5q113 0 184.5 75.5t78.5 202.5h235q-8 -230 -144 -369t-354 -139q-233 0 -371.5 156t-138.5 416v342q0 260 138.5 416.5t371.5 156.5q218 0 353 -139t143 -369h-233q-6 126 -78 202.5t-185 76.5q-124 0 -198 -90.5t-74 -241.5v-367z
M242 1518l254 274h247l252 -274h-231l-143 149l-148 -149h-231z" />
    <glyph glyph-name="Cdotaccent.titl" horiz-adv-x="1183" 
d="M344 532q0 -150 74 -239.5t198 -89.5q113 0 184.5 75.5t78.5 202.5h235q-8 -230 -144 -369t-354 -139q-233 0 -371.5 156t-138.5 416v342q0 260 138.5 416.5t371.5 156.5q218 0 353 -139t143 -369h-233q-6 126 -78 202.5t-185 76.5q-124 0 -198 -90.5t-74 -241.5v-367z
M494 1522v211h254v-211h-254z" />
    <glyph glyph-name="D.titl" horiz-adv-x="1196" 
d="M573 0h-426v1434h426q242 0 380.5 -148.5t138.5 -404.5v-330q0 -256 -138.5 -403.5t-380.5 -147.5zM387 227h174q135 0 213 87t78 237v330q0 149 -78 236t-213 87h-174v-977z" />
    <glyph glyph-name="Eth.titl" horiz-adv-x="1247" 
d="M68 631v229h131v574h426q242 0 380 -148.5t138 -404.5v-330q0 -256 -138 -403.5t-380 -147.5h-426v631h-131zM438 227h174q135 0 213 87t78 237v330q0 149 -78 236t-213 87h-174v-344h256v-229h-256v-404z" />
    <glyph glyph-name="Dcaron.titl" horiz-adv-x="1196" 
d="M573 0h-426v1434h426q242 0 380.5 -148.5t138.5 -404.5v-330q0 -256 -138.5 -403.5t-380.5 -147.5zM176 1798h232l145 -156l145 156h230l-252 -280h-248zM387 227h174q135 0 213 87t78 237v330q0 149 -78 236t-213 87h-174v-977z" />
    <glyph glyph-name="Dcroat.titl" horiz-adv-x="1247" 
d="M68 631v229h131v574h426q242 0 380 -148.5t138 -404.5v-330q0 -256 -138 -403.5t-380 -147.5h-426v631h-131zM438 227h174q135 0 213 87t78 237v330q0 149 -78 236t-213 87h-174v-344h256v-229h-256v-404z" />
    <glyph glyph-name="uni018F.titl" horiz-adv-x="1216" 
d="M596 -27q-223 0 -358.5 137t-135.5 367v311h768v111q0 152 -73.5 242t-200.5 90q-104 0 -172.5 -73.5t-77.5 -190.5h-244q8 220 143.5 356.5t350.5 136.5q237 0 375.5 -156t138.5 -417v-342q0 -261 -138.5 -416.5t-375.5 -155.5zM334 477q0 -118 73.5 -196t186.5 -78
q127 0 201.5 89.5t74.5 239.5v43h-536v-98z" />
    <glyph glyph-name="G.titl" horiz-adv-x="1214" 
d="M621 -27q-238 0 -376.5 155.5t-138.5 416.5v342q0 261 138.5 417t376.5 156q214 0 349 -136t144 -357h-246q-8 117 -76 190.5t-171 73.5q-127 0 -202 -90.5t-75 -241.5v-367q0 -150 76 -239.5t203 -89.5q112 0 185 78t73 196v98h-256v213h489v-311q0 -230 -135 -367
t-358 -137z" />
    <glyph glyph-name="Gbreve.titl" horiz-adv-x="1214" 
d="M621 -27q-238 0 -376.5 155.5t-138.5 416.5v342q0 261 138.5 417t376.5 156q214 0 349 -136t144 -357h-246q-8 117 -76 190.5t-171 73.5q-127 0 -202 -90.5t-75 -241.5v-367q0 -150 76 -239.5t203 -89.5q112 0 185 78t73 196v98h-256v213h489v-311q0 -230 -135 -367
t-358 -137zM303 1788h182q0 -65 37 -103t96 -38q61 0 99 38t39 103h182q-7 -139 -93 -213t-227 -74q-138 0 -223 74t-92 213z" />
    <glyph glyph-name="Gcaron.titl" horiz-adv-x="1214" 
d="M621 -27q-238 0 -376.5 155.5t-138.5 416.5v342q0 261 138.5 417t376.5 156q214 0 349 -136t144 -357h-246q-8 117 -76 190.5t-171 73.5q-127 0 -202 -90.5t-75 -241.5v-367q0 -150 76 -239.5t203 -89.5q112 0 185 78t73 196v98h-256v213h489v-311q0 -230 -135 -367
t-358 -137zM244 1798h231l146 -156l145 156h229l-252 -280h-247z" />
    <glyph glyph-name="Gcircumflex.titl" horiz-adv-x="1214" 
d="M621 -27q-238 0 -376.5 155.5t-138.5 416.5v342q0 261 138.5 417t376.5 156q214 0 349 -136t144 -357h-246q-8 117 -76 190.5t-171 73.5q-127 0 -202 -90.5t-75 -241.5v-367q0 -150 76 -239.5t203 -89.5q112 0 185 78t73 196v98h-256v213h489v-311q0 -230 -135 -367
t-358 -137zM242 1518l254 274h247l252 -274h-231l-143 149l-148 -149h-231z" />
    <glyph glyph-name="uni0122.titl" horiz-adv-x="1214" 
d="M621 -27q-238 0 -376.5 155.5t-138.5 416.5v342q0 261 138.5 417t376.5 156q214 0 349 -136t144 -357h-246q-8 117 -76 190.5t-171 73.5q-127 0 -202 -90.5t-75 -241.5v-367q0 -150 76 -239.5t203 -89.5q112 0 185 78t73 196v98h-256v213h489v-311q0 -230 -135 -367
t-358 -137zM319 -362l170 280h242l-203 -280h-209z" />
    <glyph glyph-name="Gdotaccent.titl" horiz-adv-x="1214" 
d="M621 -27q-238 0 -376.5 155.5t-138.5 416.5v342q0 261 138.5 417t376.5 156q214 0 349 -136t144 -357h-246q-8 117 -76 190.5t-171 73.5q-127 0 -202 -90.5t-75 -241.5v-367q0 -150 76 -239.5t203 -89.5q112 0 185 78t73 196v98h-256v213h489v-311q0 -230 -135 -367
t-358 -137zM494 1522v211h254v-211h-254z" />
    <glyph glyph-name="M.titl" horiz-adv-x="1605" 
d="M147 0v1434h340l326 -1110l334 1110h311v-1434h-227v750l6 370q-35 -167 -88 -360l-240 -760h-219l-233 758q-24 86 -45.5 176t-31.5 137l-9 47q6 -171 6 -370v-748h-230z" />
    <glyph glyph-name="O.titl" horiz-adv-x="1249" 
d="M625 -27q-237 0 -378 155.5t-141 420.5v334q0 265 141 421t378 156q238 0 379 -156t141 -421v-334q0 -265 -141 -420.5t-379 -155.5zM344 537q0 -156 76 -245t205 -89q128 0 204 89t76 245v358q0 156 -76 246t-204 90t-204.5 -90t-76.5 -246v-358z" />
    <glyph glyph-name="Oacute.titl" horiz-adv-x="1249" 
d="M625 -27q-237 0 -378 155.5t-141 420.5v334q0 265 141 421t378 156q238 0 379 -156t141 -421v-334q0 -265 -141 -420.5t-379 -155.5zM344 537q0 -156 76 -245t205 -89q128 0 204 89t76 245v358q0 156 -76 246t-204 90t-204.5 -90t-76.5 -246v-358zM506 1518l194 262h263
l-248 -262h-209z" />
    <glyph glyph-name="Obreve.titl" horiz-adv-x="1249" 
d="M625 -27q-237 0 -378 155.5t-141 420.5v334q0 265 141 421t378 156q238 0 379 -156t141 -421v-334q0 -265 -141 -420.5t-379 -155.5zM309 1788h183q0 -65 37 -103t96 -38q61 0 98.5 38t38.5 103h182q-7 -140 -92.5 -213.5t-226.5 -73.5q-139 0 -224 74t-92 213zM344 537
q0 -156 76 -245t205 -89q128 0 204 89t76 245v358q0 156 -76 246t-204 90t-204.5 -90t-76.5 -246v-358z" />
    <glyph glyph-name="Ocircumflex.titl" horiz-adv-x="1249" 
d="M625 -27q-237 0 -378 155.5t-141 420.5v334q0 265 141 421t378 156q238 0 379 -156t141 -421v-334q0 -265 -141 -420.5t-379 -155.5zM248 1518l254 274h248l251 -274h-231l-143 149l-148 -149h-231zM344 537q0 -156 76 -245t205 -89q128 0 204 89t76 245v358
q0 156 -76 246t-204 90t-204.5 -90t-76.5 -246v-358z" />
    <glyph glyph-name="Odieresis.titl" horiz-adv-x="1249" 
d="M625 -27q-237 0 -378 155.5t-141 420.5v334q0 265 141 421t378 156q238 0 379 -156t141 -421v-334q0 -265 -141 -420.5t-379 -155.5zM293 1522v211h225v-211h-225zM344 537q0 -156 76 -245t205 -89q128 0 204 89t76 245v358q0 156 -76 246t-204 90t-204.5 -90t-76.5 -246
v-358zM733 1522v211h225v-211h-225z" />
    <glyph glyph-name="Ograve.titl" horiz-adv-x="1249" 
d="M625 -27q-237 0 -378 155.5t-141 420.5v334q0 265 141 421t378 156q238 0 379 -156t141 -421v-334q0 -265 -141 -420.5t-379 -155.5zM279 1780h262l196 -262h-209zM344 537q0 -156 76 -245t205 -89q128 0 204 89t76 245v358q0 156 -76 246t-204 90t-204.5 -90t-76.5 -246
v-358z" />
    <glyph glyph-name="Ohungarumlaut.titl" horiz-adv-x="1249" 
d="M625 -27q-237 0 -378 155.5t-141 420.5v334q0 265 141 421t378 156q238 0 379 -156t141 -421v-334q0 -265 -141 -420.5t-379 -155.5zM307 1518l185 266h227l-197 -266h-215zM344 537q0 -156 76 -245t205 -89q128 0 204 89t76 245v358q0 156 -76 246t-204 90t-204.5 -90
t-76.5 -246v-358zM723 1518l182 266h246l-227 -266h-201z" />
    <glyph glyph-name="Omacron.titl" horiz-adv-x="1249" 
d="M625 -27q-237 0 -378 155.5t-141 420.5v334q0 265 141 421t378 156q238 0 379 -156t141 -421v-334q0 -265 -141 -420.5t-379 -155.5zM285 1542v170h682v-170h-682zM344 537q0 -156 76 -245t205 -89q128 0 204 89t76 245v358q0 156 -76 246t-204 90t-204.5 -90t-76.5 -246
v-358z" />
    <glyph glyph-name="uni01EA.titl" horiz-adv-x="1249" 
d="M625 203q128 0 204 89t76 245v358q0 156 -76 246t-204 90t-204.5 -90t-76.5 -246v-358q0 -156 76 -245t205 -89zM106 549v334q0 265 141 421t378 156q238 0 379 -156t141 -421v-334q0 -217 -95.5 -362t-265.5 -193q-112 -81 -112 -162q0 -41 28 -60.5t72 -19.5h43
l-43 -170h-59q-103 0 -161 55.5t-58 141.5q0 113 77 196q-215 17 -340 170.5t-125 403.5z" />
    <glyph glyph-name="Oslash.titl" horiz-adv-x="1255" 
d="M629 -27q-153 0 -271 68l-86 -152l-190 111l115 199q-88 142 -88 352v332q0 265 141.5 421t378.5 156q145 0 254 -59l80 135l192 -111l-104 -178q96 -148 96 -364v-332q0 -266 -140.5 -422t-377.5 -156zM342 535q0 -26 4 -76l424 747q-59 35 -141 35q-131 0 -209 -91.5
t-78 -250.5v-364zM471 238q65 -45 158 -45q131 0 207.5 91t76.5 251v364q0 57 -8 98z" />
    <glyph glyph-name="Oslashacute.titl" horiz-adv-x="1255" 
d="M629 -27q-153 0 -271 68l-86 -152l-190 111l115 199q-88 142 -88 352v332q0 265 141.5 421t378.5 156q145 0 254 -59l80 135l192 -111l-104 -178q96 -148 96 -364v-332q0 -266 -140.5 -422t-377.5 -156zM342 535q0 -26 4 -76l424 747q-59 35 -141 35q-131 0 -209 -91.5
t-78 -250.5v-364zM471 238q65 -45 158 -45q131 0 207.5 91t76.5 251v364q0 57 -8 98zM510 1518l195 262h262l-248 -262h-209z" />
    <glyph glyph-name="Otilde.titl" horiz-adv-x="1249" 
d="M625 -27q-237 0 -378 155.5t-141 420.5v334q0 265 141 421t378 156q238 0 379 -156t141 -421v-334q0 -265 -141 -420.5t-379 -155.5zM238 1518q1 128 61 201t154 73q46 0 97 -18.5t87 -40t73.5 -40t59.5 -18.5q72 0 80 107h162q-1 -127 -64.5 -201t-159.5 -74
q-46 0 -95 18t-83.5 39.5t-71.5 39.5t-61 18q-31 0 -53 -26.5t-25 -77.5h-161zM344 537q0 -156 76 -245t205 -89q128 0 204 89t76 245v358q0 156 -76 246t-204 90t-204.5 -90t-76.5 -246v-358z" />
    <glyph glyph-name="OE.titl" horiz-adv-x="1609" 
d="M637 1204q-135 0 -213 -86t-78 -237v-330q0 -150 78 -237t213 -87h149v977h-149zM104 551v330q0 257 138.5 405t382.5 148h895v-228h-492v-348h428v-219h-428v-412h492v-227h-895q-244 0 -382.5 147.5t-138.5 403.5z" />
    <glyph glyph-name="Q.titl" horiz-adv-x="1249" 
d="M635 0q-245 0 -387 153.5t-142 421.5v308q0 265 141 421t378 156q238 0 379 -156t141 -421v-308q0 -196 -113 -348h234v-227h-631zM344 561q0 -156 76 -245t205 -89q128 0 204 89t76 245v334q0 156 -76 246t-204 90t-204.5 -90t-76.5 -246v-334z" />
    <glyph glyph-name="r.calt" horiz-adv-x="675" 
d="M356 1001v-124q87 124 232 124h45v-198h-43q-108 0 -171 -65.5t-63 -180.5v-557h-227v1001h227z" />
    <glyph glyph-name="racute.calt" horiz-adv-x="675" 
d="M356 1001v-124q87 124 232 124h45v-198h-43q-108 0 -171 -65.5t-63 -180.5v-557h-227v1001h227zM299 1106l197 307h249l-239 -307h-207z" />
    <glyph glyph-name="rcaron.calt" horiz-adv-x="675" 
d="M356 1001v-124q87 124 232 124h45v-198h-43q-108 0 -171 -65.5t-63 -180.5v-557h-227v1001h227zM53 1413h207l137 -168l135 168h205l-219 -307h-246z" />
    <glyph glyph-name="uni0157.calt" horiz-adv-x="675" 
d="M356 1001v-124q87 124 232 124h45v-198h-43q-108 0 -171 -65.5t-63 -180.5v-557h-227v1001h227zM-43 -362l170 280h242l-203 -280h-209z" />
    <glyph glyph-name="germandbls.calt" horiz-adv-x="1271" 
d="M596 1434h559v-189l-313 -416q153 -12 257.5 -119t104.5 -272q0 -185 -130 -311.5t-329 -126.5h-235v227h233q94 0 156 61t62 150q0 88 -59.5 147.5t-153.5 59.5h-166v156l295 411l-291 -2q-113 0 -165 -62.5t-52 -184.5v-963h-240v963q0 233 117.5 352t349.5 119z" />
    <glyph glyph-name="iacute_j.loclNLD" horiz-adv-x="956" 
d="M129 1001h229v-1001h-229v1001zM147 1106l197 307h250l-240 -307h-207zM428 -385v205h72q46 0 72 27.5t26 78.5v1075h229v-1085q0 -165 -76.5 -233t-222.5 -68h-100zM616 1106l197 307h250l-240 -307h-207z" />
    <glyph glyph-name="a.ss01" 
d="M578 -27q-217 0 -362.5 148.5t-145.5 376.5q0 151 67 272.5t183 189.5t258 68q194 0 329 -129v105h230v-1004h-230v102q-135 -129 -329 -129zM295 502q0 -132 88.5 -220.5t216.5 -88.5q132 0 219.5 86.5t87.5 222.5q0 133 -88 221t-219 88q-128 0 -216.5 -89.5
t-88.5 -219.5z" />
    <glyph glyph-name="aacute.ss01" 
d="M578 -27q-217 0 -362.5 148.5t-145.5 376.5q0 151 67 272.5t183 189.5t258 68q194 0 329 -129v105h230v-1004h-230v102q-135 -129 -329 -129zM295 502q0 -132 88.5 -220.5t216.5 -88.5q132 0 219.5 86.5t87.5 222.5q0 133 -88 221t-219 88q-128 0 -216.5 -89.5
t-88.5 -219.5zM535 1106l196 307h250l-240 -307h-206z" />
    <glyph glyph-name="abreve.ss01" 
d="M578 -27q-217 0 -362.5 148.5t-145.5 376.5q0 151 67 272.5t183 189.5t258 68q194 0 329 -129v105h230v-1004h-230v102q-135 -129 -329 -129zM295 502q0 -132 88.5 -220.5t216.5 -88.5q132 0 219.5 86.5t87.5 222.5q0 133 -88 221t-219 88q-128 0 -216.5 -89.5
t-88.5 -219.5zM315 1405h177q0 -71 39 -118.5t100 -47.5t101 47.5t40 118.5h174q0 -141 -88.5 -229.5t-226.5 -88.5q-137 0 -226.5 88.5t-89.5 229.5z" />
    <glyph glyph-name="acircumflex.ss01" 
d="M578 -27q-217 0 -362.5 148.5t-145.5 376.5q0 151 67 272.5t183 189.5t258 68q194 0 329 -129v105h230v-1004h-230v102q-135 -129 -329 -129zM289 1106l219 307h248l217 -307h-205l-135 168l-137 -168h-207zM295 502q0 -132 88.5 -220.5t216.5 -88.5q132 0 219.5 86.5
t87.5 222.5q0 133 -88 221t-219 88q-128 0 -216.5 -89.5t-88.5 -219.5z" />
    <glyph glyph-name="adieresis.ss01" 
d="M578 -27q-217 0 -362.5 148.5t-145.5 376.5q0 151 67 272.5t183 189.5t258 68q194 0 329 -129v105h230v-1004h-230v102q-135 -129 -329 -129zM295 502q0 -132 88.5 -220.5t216.5 -88.5q132 0 219.5 86.5t87.5 222.5q0 133 -88 221t-219 88q-128 0 -216.5 -89.5
t-88.5 -219.5zM315 1137v217h236v-217h-236zM713 1137v217h235v-217h-235z" />
    <glyph glyph-name="uni1EA1.ss01" 
d="M578 -27q-217 0 -362.5 148.5t-145.5 376.5q0 151 67 272.5t183 189.5t258 68q194 0 329 -129v105h230v-1004h-230v102q-135 -129 -329 -129zM295 502q0 -132 88.5 -220.5t216.5 -88.5q132 0 219.5 86.5t87.5 222.5q0 133 -88 221t-219 88q-128 0 -216.5 -89.5
t-88.5 -219.5zM512 -424v252h242v-252h-242z" />
    <glyph glyph-name="agrave.ss01" 
d="M578 -27q-217 0 -362.5 148.5t-145.5 376.5q0 151 67 272.5t183 189.5t258 68q194 0 329 -129v105h230v-1004h-230v102q-135 -129 -329 -129zM295 502q0 -132 88.5 -220.5t216.5 -88.5q132 0 219.5 86.5t87.5 222.5q0 133 -88 221t-219 88q-128 0 -216.5 -89.5
t-88.5 -219.5zM299 1413h262l189 -307h-209z" />
    <glyph glyph-name="amacron.ss01" 
d="M578 -27q-217 0 -362.5 148.5t-145.5 376.5q0 151 67 272.5t183 189.5t258 68q194 0 329 -129v105h230v-1004h-230v102q-135 -129 -329 -129zM295 502q0 -132 88.5 -220.5t216.5 -88.5q132 0 219.5 86.5t87.5 222.5q0 133 -88 221t-219 88q-128 0 -216.5 -89.5
t-88.5 -219.5zM297 1128v183h668v-183h-668z" />
    <glyph glyph-name="aogonek.ss01" 
d="M578 -27q-217 0 -362.5 148.5t-145.5 376.5q0 151 67 272.5t183 189.5t258 68q194 0 329 -129v105h230v-1002l2 -2q-63 -45 -92 -85t-29 -83q0 -41 28 -60.5t72 -19.5h43l-43 -170h-59q-103 0 -161 55.5t-58 141.5q0 130 104 221h-37v102q-135 -129 -329 -129zM295 502
q0 -132 88.5 -220.5t216.5 -88.5q132 0 219.5 86.5t87.5 222.5q0 133 -88 221t-219 88q-128 0 -216.5 -89.5t-88.5 -219.5z" />
    <glyph glyph-name="aring.ss01" 
d="M578 -27q-217 0 -362.5 148.5t-145.5 376.5q0 151 67 272.5t183 189.5t258 68q194 0 329 -129v105h230v-1004h-230v102q-135 -129 -329 -129zM295 502q0 -132 88.5 -220.5t216.5 -88.5q132 0 219.5 86.5t87.5 222.5q0 133 -88 221t-219 88q-128 0 -216.5 -89.5
t-88.5 -219.5zM350 1339q0 103 81 174.5t202 71.5q119 0 199.5 -71.5t80.5 -174.5q0 -104 -80 -174.5t-200 -70.5q-121 0 -202 70.5t-81 174.5zM500 1339q0 -52 38 -86t95 -34q56 0 93.5 34t37.5 86q0 50 -38 84.5t-93 34.5q-57 0 -95 -34.5t-38 -84.5z" />
    <glyph glyph-name="aringacute.ss01" horiz-adv-x="1282" 
d="M578 -27q-217 0 -362.5 148.5t-145.5 376.5q0 151 67 272.5t183 189.5t258 68q194 0 329 -129v105h230v-1004h-230v102q-135 -129 -329 -129zM295 502q0 -132 88.5 -220.5t216.5 -88.5q132 0 219.5 86.5t87.5 222.5q0 133 -88 221t-219 88q-128 0 -216.5 -89.5
t-88.5 -219.5zM393 1339q0 92 65 159.5t167 82.5l123 193h249l-174 -224q62 -33 97.5 -88.5t35.5 -122.5q0 -104 -80 -174.5t-200 -70.5q-121 0 -202 70.5t-81 174.5zM543 1339q0 -52 38 -86t95 -34q56 0 93.5 34t37.5 86q0 50 -38 84.5t-93 34.5q-57 0 -95 -34.5t-38 -84.5
z" />
    <glyph glyph-name="atilde.ss01" 
d="M578 -27q-217 0 -362.5 148.5t-145.5 376.5q0 151 67 272.5t183 189.5t258 68q194 0 329 -129v105h230v-1004h-230v102q-135 -129 -329 -129zM264 1120q0 146 57.5 222.5t153.5 76.5q44 0 88.5 -22t74 -48.5t65 -48.5t63.5 -22q74 0 80 131h153q0 -147 -60 -224t-157 -77
q-45 0 -88 21.5t-71 48t-62 48t-63 21.5q-38 0 -59 -32t-21 -95h-154zM295 502q0 -132 88.5 -220.5t216.5 -88.5q132 0 219.5 86.5t87.5 222.5q0 133 -88 221t-219 88q-128 0 -216.5 -89.5t-88.5 -219.5z" />
    <glyph glyph-name="s.ss02" horiz-adv-x="954" 
d="M422 0q-147 0 -247.5 77.5t-100.5 207.5v28h219v-20q0 -57 39.5 -89t101.5 -32h80q150 0 150 121q0 93 -115 117l-248 53q-96 22 -155.5 85.5t-59.5 172.5q0 127 93.5 203.5t232.5 76.5h90q73 0 134 -14t110 -43.5t76.5 -80.5t27.5 -120v-22h-215v14q0 49 -39.5 77
t-95.5 28h-70q-58 0 -94.5 -26t-36.5 -77q0 -83 119 -106l227 -45q111 -23 175.5 -91.5t64.5 -187.5q0 -140 -102.5 -223.5t-243.5 -83.5h-117z" />
    <glyph glyph-name="sacute.ss02" horiz-adv-x="954" 
d="M422 0q-147 0 -247.5 77.5t-100.5 207.5v28h219v-20q0 -57 39.5 -89t101.5 -32h80q150 0 150 121q0 93 -115 117l-248 53q-96 22 -155.5 85.5t-59.5 172.5q0 127 93.5 203.5t232.5 76.5h90q73 0 134 -14t110 -43.5t76.5 -80.5t27.5 -120v-22h-215v14q0 49 -39.5 77
t-95.5 28h-70q-58 0 -94.5 -26t-36.5 -77q0 -83 119 -106l227 -45q111 -23 175.5 -91.5t64.5 -187.5q0 -140 -102.5 -223.5t-243.5 -83.5h-117zM379 1106l196 307h250l-239 -307h-207z" />
    <glyph glyph-name="scaron.ss02" horiz-adv-x="954" 
d="M422 0q-147 0 -247.5 77.5t-100.5 207.5v28h219v-20q0 -57 39.5 -89t101.5 -32h80q150 0 150 121q0 93 -115 117l-248 53q-96 22 -155.5 85.5t-59.5 172.5q0 127 93.5 203.5t232.5 76.5h90q73 0 134 -14t110 -43.5t76.5 -80.5t27.5 -120v-22h-215v14q0 49 -39.5 77
t-95.5 28h-70q-58 0 -94.5 -26t-36.5 -77q0 -83 119 -106l227 -45q111 -23 175.5 -91.5t64.5 -187.5q0 -140 -102.5 -223.5t-243.5 -83.5h-117zM133 1413h207l137 -168l135 168h205l-219 -307h-246z" />
    <glyph glyph-name="scedilla.ss02" horiz-adv-x="954" 
d="M422 0q-147 0 -247.5 77.5t-100.5 207.5v28h219v-20q0 -57 39.5 -89t101.5 -32h80q150 0 150 121q0 93 -115 117l-248 53q-96 22 -155.5 85.5t-59.5 172.5q0 127 93.5 203.5t232.5 76.5h90q73 0 134 -14t110 -43.5t76.5 -80.5t27.5 -120v-22h-215v14q0 49 -39.5 77
t-95.5 28h-70q-58 0 -94.5 -26t-36.5 -77q0 -83 119 -106l227 -45q111 -23 175.5 -91.5t64.5 -187.5q0 -131 -91 -213t-221 -92l-53 -133h21q80 0 133 -53.5t53 -134.5q0 -86 -53.5 -141.5t-136.5 -55.5h-166v115h135q40 0 65 22t25 57t-25 57.5t-65 22.5h-121v97l57 145
h-20z" />
    <glyph glyph-name="scircumflex.ss02" horiz-adv-x="954" 
d="M422 0q-147 0 -247.5 77.5t-100.5 207.5v28h219v-20q0 -57 39.5 -89t101.5 -32h80q150 0 150 121q0 93 -115 117l-248 53q-96 22 -155.5 85.5t-59.5 172.5q0 127 93.5 203.5t232.5 76.5h90q73 0 134 -14t110 -43.5t76.5 -80.5t27.5 -120v-22h-215v14q0 49 -39.5 77
t-95.5 28h-70q-58 0 -94.5 -26t-36.5 -77q0 -83 119 -106l227 -45q111 -23 175.5 -91.5t64.5 -187.5q0 -140 -102.5 -223.5t-243.5 -83.5h-117zM133 1106l219 307h248l217 -307h-205l-135 168l-137 -168h-207z" />
    <glyph glyph-name="uni0219.ss02" horiz-adv-x="954" 
d="M422 0q-147 0 -247.5 77.5t-100.5 207.5v28h219v-20q0 -57 39.5 -89t101.5 -32h80q150 0 150 121q0 93 -115 117l-248 53q-96 22 -155.5 85.5t-59.5 172.5q0 127 93.5 203.5t232.5 76.5h90q73 0 134 -14t110 -43.5t76.5 -80.5t27.5 -120v-22h-215v14q0 49 -39.5 77
t-95.5 28h-70q-58 0 -94.5 -26t-36.5 -77q0 -83 119 -106l227 -45q111 -23 175.5 -91.5t64.5 -187.5q0 -140 -102.5 -223.5t-243.5 -83.5h-117zM186 -362l170 280h242l-203 -280h-209z" />
    <glyph glyph-name="t.ss03" horiz-adv-x="759" 
d="M20 803v198h74q129 0 129 129v138h215v-267h269v-198h-269v-451q0 -153 148 -153h121v-199h-150q-348 0 -348 336v467h-189z" />
    <glyph glyph-name="tbar.ss03" horiz-adv-x="784" 
d="M43 827v174h72q129 0 129 129v138h215v-267h270v-174h-270v-245h270v-146h-270v-106q0 -154 147 -154h123v-176h-151q-347 0 -347 336v100h-188v146h188v245h-188z" />
    <glyph glyph-name="tcaron.ss03" horiz-adv-x="759" 
d="M20 803v198h74q129 0 129 129v138h215v-267h269v-198h-269v-451q0 -153 148 -153h121v-199h-150q-348 0 -348 336v467h-189zM578 1094l38 417h213l-81 -417h-170z" />
    <glyph glyph-name="uni0163.ss03" horiz-adv-x="759" 
d="M20 803v198h74q129 0 129 129v138h215v-267h269v-198h-269v-451q0 -153 148 -153h121v-199h-129l-54 -131h21q80 0 133 -53.5t53 -134.5q0 -86 -53.5 -141.5t-136.5 -55.5h-166v115h135q40 0 65 22t25 57t-25 57.5t-65 22.5h-121v97l60 155q-240 44 -240 326v467h-189z
" />
    <glyph glyph-name="uni021B.ss03" horiz-adv-x="759" 
d="M20 803v198h74q129 0 129 129v138h215v-267h269v-198h-269v-451q0 -153 148 -153h121v-199h-150q-348 0 -348 336v467h-189zM188 -362l170 280h242l-203 -280h-209z" />
    <glyph glyph-name="ae.ss04" horiz-adv-x="2048" 
d="M565 -27q-212 0 -353.5 150.5t-141.5 374.5q0 226 140 378t349 152q112 0 203 -48t149 -134v155h226v-157q59 86 154.5 135t209.5 49q201 0 340 -140.5t139 -344.5q0 -45 -6 -82h-780q12 -135 96 -217t205 -82q90 0 160.5 44t87.5 111h225q-33 -148 -161 -246t-302 -98
q-121 0 -215.5 50.5t-152.5 136.5v-160h-226v156q-56 -86 -146.5 -134.5t-199.5 -48.5zM291 502q0 -133 89 -224.5t220 -91.5q134 0 222.5 89.5t88.5 226.5q0 134 -89 223.5t-222 89.5q-130 0 -219.5 -91t-89.5 -222zM1206 610h543q-8 100 -81 169t-179 69q-102 0 -181 -65
t-102 -173z" />
    <glyph glyph-name="aeacute.ss04" horiz-adv-x="2048" 
d="M565 -27q-212 0 -353.5 150.5t-141.5 374.5q0 226 140 378t349 152q112 0 203 -48t149 -134v155h226v-157q59 86 154.5 135t209.5 49q201 0 340 -140.5t139 -344.5q0 -45 -6 -82h-780q12 -135 96 -217t205 -82q90 0 160.5 44t87.5 111h225q-33 -148 -161 -246t-302 -98
q-121 0 -215.5 50.5t-152.5 136.5v-160h-226v156q-56 -86 -146.5 -134.5t-199.5 -48.5zM291 502q0 -133 89 -224.5t220 -91.5q134 0 222.5 89.5t88.5 226.5q0 134 -89 223.5t-222 89.5q-130 0 -219.5 -91t-89.5 -222zM905 1106l197 307h250l-240 -307h-207zM1206 610h543
q-8 100 -81 169t-179 69q-102 0 -181 -65t-102 -173z" />
    <glyph glyph-name="f_f.dlig" horiz-adv-x="1312" 
d="M225 0v803h-192v198h192v84q0 176 84.5 262.5t263.5 86.5h113v-187h-86q-145 0 -145 -143v-103h366v84q0 176 84.5 262.5t263.5 86.5h125v-187h-98q-145 0 -145 -143v-103h243v-198h-243v-803h-230v803h-366v-803h-230z" />
    <glyph glyph-name="f_f_i.dlig" horiz-adv-x="1777" 
d="M225 0v803h-192v198h192v84q0 176 84.5 262.5t263.5 86.5h113v-187h-86q-145 0 -145 -143v-103h366v84q0 176 84.5 262.5t263.5 86.5h338v-187h-311q-145 0 -145 -143v-103h596v-1001h-228v803h-368v-803h-230v803h-366v-803h-230z" />
    <glyph glyph-name="f_f_l.dlig" horiz-adv-x="1777" 
d="M225 0v803h-192v198h192v84q0 176 84.5 262.5t263.5 86.5h113v-187h-86q-145 0 -145 -143v-103h366v84q0 176 84.5 262.5t263.5 86.5h103v-187h-76q-145 0 -145 -143v-103h368v433h228v-1434h-228v803h-368v-803h-230v803h-366v-803h-230z" />
    <glyph glyph-name="f_f_t.dlig" horiz-adv-x="1980" 
d="M225 0v803h-192v198h192v84q0 176 84.5 262.5t263.5 86.5h125v-187h-98q-145 0 -145 -143v-103h379v84q0 176 84.5 262.5t261.5 86.5h96v-187h-68q-145 0 -145 -143v-103h367v267h227v-267h270v-198h-270v-451q0 -153 149 -153h121v-199h-149q-348 0 -348 336v467h-367
v-803h-229v803h-379v-803h-230z" />
    <glyph glyph-name="f_i.dlig" horiz-adv-x="1179" 
d="M225 0v803h-192v198h192v84q0 176 84.5 262.5t263.5 86.5h338v-187h-311q-145 0 -145 -143v-103h596v-1001h-230v803h-366v-803h-230z" />
    <glyph glyph-name="f_l.dlig" horiz-adv-x="1179" 
d="M225 0v803h-192v198h192v84q0 176 84.5 262.5t263.5 86.5h103v-187h-76q-145 0 -145 -143v-103h366v433h230v-1434h-230v803h-366v-803h-230z" />
    <glyph glyph-name="f_t.dlig" horiz-adv-x="1372" 
d="M225 0v803h-192v198h192v84q0 176 84.5 262.5t263.5 86.5h95v-187h-68q-145 0 -145 -143v-103h366v267h230v-267h268v-198h-268v-451q0 -153 147 -153h121v-199h-150q-348 0 -348 336v467h-366v-803h-230z" />
    <glyph glyph-name="zero.zero" horiz-adv-x="1267" 
d="M633 -27q-244 0 -384 154.5t-140 423.5v332q0 268 140 422.5t384 154.5q245 0 384.5 -154.5t139.5 -422.5v-332q0 -269 -139.5 -423.5t-384.5 -154.5zM354 551q0 -27 2 -39l496 604q-73 115 -219 115q-129 0 -204 -94t-75 -254v-332zM416 315q73 -112 217 -112
q129 0 204.5 94t75.5 254v332v35z" />
    <glyph glyph-name="two.ss02" horiz-adv-x="1136" 
d="M88 0v199l483 479q61 59 95 96t64 80t42 83t12 87q0 88 -50.5 140.5t-131.5 52.5h-72q-84 0 -138 -56t-54 -147v-105h-236v125q0 173 102.5 286.5t258.5 113.5h188q184 0 281.5 -108t97.5 -292q0 -76 -21 -143.5t-67 -132.5t-90.5 -113.5t-120.5 -120.5l-278 -293h594
v-231h-959z" />
    <glyph glyph-name="zero.tf" horiz-adv-x="1310" 
d="M655 -27q-244 0 -384 154.5t-140 423.5v332q0 268 140 422.5t384 154.5q245 0 385 -154.5t140 -422.5v-332q0 -269 -140 -423.5t-385 -154.5zM377 551q0 -160 74.5 -254t203.5 -94t205 94t76 254v332q0 160 -76 254t-205 94t-203.5 -94t-74.5 -254v-332z" />
    <glyph glyph-name="one.tf" horiz-adv-x="1310" 
d="M203 0v217h381v760h-340v217h186q87 0 126.5 38t39.5 120v82h227v-1217h338v-217h-958z" />
    <glyph glyph-name="two.tf" horiz-adv-x="1310" 
d="M170 0v199l483 479q121 117 169 188t48 158q0 92 -59 149.5t-156 57.5q-107 0 -172.5 -79.5t-60.5 -201.5h-240q-4 221 134 365.5t352 144.5q197 0 322.5 -122t125.5 -304q0 -61 -16.5 -119.5t-40 -103.5t-67.5 -99t-81 -92t-98 -96l-276 -293h591v-231h-958z" />
    <glyph glyph-name="three.tf" horiz-adv-x="1310" 
d="M649 -27q-219 0 -357.5 128.5t-137.5 334.5h239q0 -102 72 -171.5t180 -69.5q106 0 176 63t70 158q0 92 -76 151.5t-199 59.5h-55v207h55q116 0 188.5 57.5t72.5 144.5q0 89 -65 146t-165 57q-104 0 -170.5 -63.5t-66.5 -161.5l-234 2q0 192 133.5 318t337.5 126
q210 0 338.5 -109.5t128.5 -289.5q0 -106 -59 -193.5t-164 -134.5q115 -37 180.5 -125.5t65.5 -208.5q0 -184 -138.5 -305t-349.5 -121z" />
    <glyph glyph-name="four.tf" horiz-adv-x="1310" 
d="M139 315v213l410 906h258l-408 -904h369v322h231v-322h201v-215h-201v-315h-239v315h-621z" />
    <glyph glyph-name="five.tf" horiz-adv-x="1310" 
d="M645 -27q-209 0 -348 126t-145 341h239q9 -106 78.5 -169.5t179.5 -63.5q111 0 185.5 77t74.5 187q0 120 -71 193t-187 73q-136 0 -225 -102h-221l71 799h791v-230h-575l-39 -360q44 38 109 60t134 22q205 0 332 -122.5t127 -340.5q0 -140 -68 -252.5t-184.5 -175
t-257.5 -62.5z" />
    <glyph glyph-name="six.tf" horiz-adv-x="1310" 
d="M664 -27q-219 0 -366.5 141t-147.5 351q0 77 29.5 174.5t84.5 187.5l381 607h279l-312 -494q44 12 93 12q131 0 238.5 -61.5t170 -172t62.5 -247.5q0 -138 -66.5 -252t-184 -180t-261.5 -66zM391 467q0 -117 78 -195.5t195 -78.5q116 0 194 78.5t78 195.5
q0 122 -77 201.5t-197 79.5q-115 0 -193 -81t-78 -200z" />
    <glyph glyph-name="seven.tf" horiz-adv-x="1310" 
d="M297 0l557 1204h-678v230h952v-205l-563 -1229h-268z" />
    <glyph glyph-name="eight.tf" horiz-adv-x="1310" 
d="M657 -27q-217 0 -358 122t-141 306q0 114 66 208t175 145q-206 105 -206 311q0 174 129 284.5t335 110.5q207 0 335 -111.5t128 -285.5q0 -202 -207 -309q106 -46 174 -143t68 -214q0 -181 -140.5 -302.5t-357.5 -121.5zM401 408q0 -97 73.5 -163.5t182.5 -66.5
q107 0 180.5 66.5t73.5 163.5q0 95 -73.5 161t-180.5 66q-108 0 -182 -65.5t-74 -161.5zM416 1051q0 -92 67.5 -150.5t173.5 -58.5q105 0 172.5 58.5t67.5 150.5q0 94 -68 154.5t-172 60.5q-106 0 -173.5 -60.5t-67.5 -154.5z" />
    <glyph glyph-name="nine.tf" horiz-adv-x="1310" 
d="M647 1460q220 0 367 -141t147 -350q0 -77 -29.5 -175t-84.5 -188l-381 -606h-279l311 494q-47 -13 -92 -13q-98 0 -185 36.5t-150 99.5t-99.5 153t-36.5 193q0 210 146.5 353.5t365.5 143.5zM375 967q0 -122 77 -201.5t197 -79.5q115 0 193 81t78 200q0 117 -78 195.5
t-195 78.5q-116 0 -194 -78.5t-78 -195.5z" />
    <glyph glyph-name="zero.tf.zero" horiz-adv-x="1310" 
d="M655 -27q-244 0 -384 154.5t-140 423.5v332q0 268 140 422.5t384 154.5q245 0 385 -154.5t140 -422.5v-332q0 -269 -140 -423.5t-385 -154.5zM377 551q0 -27 2 -39l495 604q-73 115 -219 115q-129 0 -203.5 -94t-74.5 -254v-332zM438 315q73 -112 217 -112q129 0 205 94
t76 254v332v35z" />
    <glyph glyph-name="zero.dnom" horiz-adv-x="782" 
d="M391 -16q-148 0 -232.5 93.5t-84.5 254.5v196q0 161 84.5 255t232.5 94t233 -94t85 -255v-196q0 -162 -84.5 -255t-233.5 -93zM231 332q0 -92 43.5 -146.5t116.5 -54.5q74 0 118 54.5t44 146.5v196q0 92 -44 146.5t-118 54.5q-73 0 -116.5 -54.5t-43.5 -146.5v-196z" />
    <glyph glyph-name="one.dnom" horiz-adv-x="432" 
d="M334 860v-860h-154v575h-141v142h47q53 0 77.5 22.5t24.5 73.5v47h146z" />
    <glyph glyph-name="two.dnom" horiz-adv-x="698" 
d="M55 0v127l285 279q72 69 101.5 111t29.5 93q0 52 -33.5 85.5t-87.5 33.5q-61 0 -100 -46.5t-37 -115.5h-152q-1 136 83 223t212 87q118 0 195.5 -75t77.5 -184q0 -46 -13 -86.5t-43 -81t-56.5 -69t-74.5 -74.5l-151 -160h344v-147h-580z" />
    <glyph glyph-name="three.dnom" horiz-adv-x="710" 
d="M352 -16q-133 0 -217.5 77.5t-83.5 202.5h154q0 -58 40.5 -97.5t102.5 -39.5q61 0 101 35.5t40 89.5q0 51 -44.5 85t-114.5 34h-31v133h31q67 0 108 33t41 84q0 50 -36.5 81t-92.5 31q-60 0 -97.5 -35.5t-37.5 -91.5l-152 2q0 116 81.5 192.5t205.5 76.5q125 0 204 -67
t79 -175q0 -62 -35 -114t-96 -81q66 -22 105.5 -75t39.5 -125q0 -110 -84.5 -183t-210.5 -73z" />
    <glyph glyph-name="four.dnom" horiz-adv-x="722" 
d="M49 186v138l242 536h164l-240 -534h209v186h149v-186h117v-140h-117v-186h-155v186h-369z" />
    <glyph glyph-name="five.dnom" horiz-adv-x="712" 
d="M352 -16q-131 0 -215 78.5t-84 203.5h156q2 -59 42 -96t101 -37q64 0 107 45t43 107q0 67 -41 109t-107 42q-75 0 -129 -57h-141l41 481h481v-147h-342l-22 -201q54 45 141 45q123 0 199.5 -73t76.5 -205q0 -128 -89 -211.5t-218 -83.5z" />
    <glyph glyph-name="six.dnom" horiz-adv-x="720" 
d="M365 -16q-133 0 -222.5 85.5t-89.5 211.5q0 104 70 217l227 362h176l-184 -291q24 6 49 6q119 0 201 -83t82 -207q0 -128 -88.5 -214.5t-220.5 -86.5zM207 281q0 -66 46 -111t112 -45q65 0 110 45t45 111q0 70 -45 115.5t-113 45.5q-66 0 -110.5 -46.5t-44.5 -114.5z" />
    <glyph glyph-name="seven.dnom" horiz-adv-x="636" 
d="M98 0l328 713h-397v147h573v-131l-332 -729h-172z" />
    <glyph glyph-name="eight.dnom" horiz-adv-x="729" 
d="M365 -16q-131 0 -217.5 74t-86.5 184q0 65 38.5 120.5t105.5 88.5q-123 66 -123 186q0 106 79 173t204 67t202.5 -67.5t77.5 -172.5q0 -117 -119 -186q60 -29 100 -85.5t40 -125.5q0 -108 -85 -182t-216 -74zM219 246q0 -55 42 -93t104 -38q61 0 103 37.5t42 93.5
q0 55 -42.5 93t-102.5 38q-62 0 -104 -38t-42 -93zM227 629q0 -54 39 -87.5t99 -33.5t99.5 34t39.5 85q0 54 -39.5 90.5t-99.5 36.5t-99 -36t-39 -89z" />
    <glyph glyph-name="nine.dnom" horiz-adv-x="718" 
d="M354 877q133 0 222.5 -85.5t89.5 -211.5q0 -105 -70 -218l-227 -362h-176l184 291q-24 -6 -49 -6q-119 0 -201 83t-82 207q0 128 88.5 215t220.5 87zM199 580q0 -70 44.5 -116t112.5 -46q66 0 111 47t45 115q0 66 -46 110.5t-112 44.5q-65 0 -110 -44.5t-45 -110.5z" />
    <glyph glyph-name="zero.numr" horiz-adv-x="782" 
d="M391 559q-148 0 -232.5 93.5t-84.5 254.5v197q0 161 84.5 254.5t232.5 93.5t233 -93.5t85 -254.5v-197q0 -162 -84.5 -255t-233.5 -93zM231 907q0 -92 43 -146t117 -54t118 54t44 146v197q0 92 -44 146.5t-118 54.5q-73 0 -116.5 -54.5t-43.5 -146.5v-197z" />
    <glyph glyph-name="one.numr" horiz-adv-x="432" 
d="M334 1436v-861h-154v576h-141v141h47q53 0 77.5 23t24.5 74v47h146z" />
    <glyph glyph-name="two.numr" horiz-adv-x="696" 
d="M55 575v127l285 279q72 68 101.5 111t29.5 94q0 52 -33.5 85.5t-87.5 33.5q-61 0 -100 -46.5t-37 -115.5h-152q-1 135 82.5 222t212.5 87q118 0 195.5 -74.5t77.5 -183.5q0 -46 -13 -86.5t-43 -81t-56.5 -69t-74.5 -74.5l-151 -160h344v-148h-580z" />
    <glyph glyph-name="three.numr" horiz-adv-x="708" 
d="M352 559q-133 0 -217.5 78t-83.5 203h154q0 -58 40.5 -98t102.5 -40q61 0 101 35.5t40 89.5q0 51 -44.5 85t-114.5 34h-31v133h31q67 0 108 33t41 84q0 50 -36.5 81.5t-92.5 31.5q-60 0 -97.5 -35.5t-37.5 -91.5l-152 2q0 116 81.5 192t205.5 76q125 0 204 -67t79 -175
q0 -62 -35 -113.5t-96 -80.5q66 -22 105.5 -75.5t39.5 -125.5q0 -110 -84.5 -183t-210.5 -73z" />
    <glyph glyph-name="four.numr" horiz-adv-x="718" 
d="M47 762v137l242 537h164l-240 -535h209v186h149v-186h117v-139h-117v-187h-155v187h-369z" />
    <glyph glyph-name="five.numr" horiz-adv-x="712" 
d="M352 559q-131 0 -215 79t-84 204h156q2 -59 42 -96t101 -37q64 0 107 44.5t43 106.5q0 68 -41 110t-107 42q-74 0 -129 -58h-141l41 482h481v-148h-342l-22 -201q56 46 141 46q123 0 199.5 -73.5t76.5 -205.5q0 -128 -89 -211.5t-218 -83.5z" />
    <glyph glyph-name="six.numr" horiz-adv-x="718" 
d="M365 559q-133 0 -222.5 85.5t-89.5 211.5q0 104 70 217l227 363h176l-184 -291q24 6 49 6q119 0 201 -83.5t82 -207.5q0 -128 -88.5 -214.5t-220.5 -86.5zM207 856q0 -66 46 -111t112 -45q65 0 110 45t45 111q0 70 -45 116t-113 46q-66 0 -110.5 -47t-44.5 -115z" />
    <glyph glyph-name="seven.numr" horiz-adv-x="636" 
d="M98 575l328 713h-397v148h573v-131l-332 -730h-172z" />
    <glyph glyph-name="eight.numr" horiz-adv-x="724" 
d="M362 559q-131 0 -217 74t-86 184q0 65 38.5 120.5t105.5 88.5q-123 66 -123 186q0 106 79 173t203 67q125 0 203 -67.5t78 -172.5q0 -117 -119 -186q60 -29 100 -85.5t40 -125.5q0 -108 -85.5 -182t-216.5 -74zM217 821q0 -56 42 -93.5t103 -37.5q62 0 104 38t42 93
t-43 93t-103 38q-61 0 -103 -37.5t-42 -93.5zM225 1204q0 -54 38.5 -87.5t98.5 -33.5t100 34t40 85q0 54 -40 90.5t-100 36.5q-59 0 -98 -36t-39 -89z" />
    <glyph glyph-name="nine.numr" horiz-adv-x="718" 
d="M354 1452q133 0 222.5 -85.5t89.5 -211.5q0 -104 -70 -217l-227 -363h-176l184 291q-24 -6 -49 -6q-119 0 -201 83.5t-82 207.5q0 128 88.5 214.5t220.5 86.5zM199 1155q0 -70 44.5 -116t112.5 -46q66 0 111 47t45 115q0 66 -46 111t-112 45q-65 0 -110 -45t-45 -111z
" />
    <glyph glyph-name="zero.dnom.zero" horiz-adv-x="782" 
d="M391 -16q-148 0 -232.5 93.5t-84.5 254.5v194q0 162 84.5 256.5t232.5 94.5t233 -94.5t85 -256.5v-194q0 -162 -84.5 -255t-233.5 -93zM229 322l285 346q-45 61 -125 61q-74 0 -117 -54.5t-43 -148.5v-194v-10zM266 193q46 -62 123 -62q75 0 119.5 54.5t44.5 146.5v194
v13z" />
    <glyph glyph-name="zero.numr.zero" horiz-adv-x="782" 
d="M391 559q-148 0 -232.5 93.5t-84.5 254.5v195q0 162 84.5 256t232.5 94q149 0 233.5 -94t84.5 -256v-195q0 -162 -84.5 -255t-233.5 -93zM229 897l285 346q-46 62 -125 62q-74 0 -117 -54.5t-43 -148.5v-195v-10zM266 768q45 -61 123 -61q75 0 119.5 54t44.5 146v195v12z
" />
    <glyph glyph-name="zero.sinf" horiz-adv-x="782" 
d="M391 -262q-148 0 -232.5 93.5t-84.5 254.5v197q0 161 84.5 254.5t232.5 93.5t233 -93.5t85 -254.5v-197q0 -162 -84.5 -255t-233.5 -93zM231 86q0 -92 43.5 -146.5t116.5 -54.5q74 0 118 54.5t44 146.5v197q0 92 -44 146t-118 54t-117 -54t-43 -146v-197z" />
    <glyph glyph-name="one.sinf" horiz-adv-x="432" 
d="M334 614v-860h-154v576h-141v141h47q53 0 77.5 22.5t24.5 73.5v47h146z" />
    <glyph glyph-name="two.sinf" horiz-adv-x="698" 
d="M55 -246v127l285 279q72 68 101.5 111t29.5 94t-33.5 84.5t-87.5 33.5q-61 0 -100 -46t-37 -115h-152q-1 135 82.5 222t212.5 87q118 0 195.5 -74.5t77.5 -183.5q0 -86 -45.5 -153t-141.5 -159l-151 -159h344v-148h-580z" />
    <glyph glyph-name="three.sinf" horiz-adv-x="710" 
d="M352 -262q-133 0 -217.5 77.5t-83.5 202.5h154q0 -58 40.5 -97.5t102.5 -39.5q61 0 101 35.5t40 89.5q0 51 -44.5 85t-114.5 34h-31v133h31q67 0 108 33t41 84q0 50 -36.5 81t-92.5 31q-60 0 -97.5 -35.5t-37.5 -91.5l-152 2q0 116 81.5 192.5t205.5 76.5q125 0 204 -67
t79 -175q0 -62 -35 -113.5t-96 -80.5q66 -22 105.5 -75.5t39.5 -125.5q0 -110 -84.5 -183t-210.5 -73z" />
    <glyph glyph-name="four.sinf" horiz-adv-x="722" 
d="M49 -59v137l242 536h164l-240 -534h209v186h149v-186h117v-139h-117v-187h-155v187h-369z" />
    <glyph glyph-name="five.sinf" horiz-adv-x="712" 
d="M352 -262q-131 0 -215 78.5t-84 203.5h156q2 -59 42 -96t101 -37q64 0 107 45t43 107q0 67 -41 109t-107 42q-75 0 -129 -57h-141l41 481h481v-147h-342l-22 -201q54 45 141 45q123 0 199.5 -73t76.5 -205q0 -128 -89 -211.5t-218 -83.5z" />
    <glyph glyph-name="six.sinf" horiz-adv-x="720" 
d="M365 -262q-133 0 -222.5 85.5t-89.5 211.5q0 104 70 217l227 362h176l-184 -290q24 6 49 6q119 0 201 -83.5t82 -207.5q0 -128 -88.5 -214.5t-220.5 -86.5zM207 35q0 -66 46 -111t112 -45q65 0 110 45t45 111q0 70 -45 116t-113 46q-66 0 -110.5 -47t-44.5 -115z" />
    <glyph glyph-name="seven.sinf" horiz-adv-x="636" 
d="M98 -246l328 713h-397v147h573v-131l-332 -729h-172z" />
    <glyph glyph-name="eight.sinf" horiz-adv-x="729" 
d="M365 -262q-131 0 -217.5 74t-86.5 184q0 65 38.5 120.5t105.5 88.5q-123 66 -123 186q0 106 79 173t204 67t202.5 -67.5t77.5 -172.5q0 -117 -119 -186q60 -29 100 -85.5t40 -125.5q0 -108 -85 -182t-216 -74zM219 0q0 -55 42 -93t104 -38q61 0 103 37.5t42 93.5
q0 55 -42.5 93t-102.5 38q-62 0 -104 -38t-42 -93zM227 383q0 -54 39 -87.5t99 -33.5t99.5 34t39.5 85q0 54 -39.5 90.5t-99.5 36.5t-99 -36t-39 -89z" />
    <glyph glyph-name="nine.sinf" horiz-adv-x="718" 
d="M354 631q133 0 222.5 -85.5t89.5 -211.5q0 -104 -70 -217l-227 -363h-176l184 291q-24 -6 -49 -6q-119 0 -201 83.5t-82 207.5q0 128 88.5 214.5t220.5 86.5zM199 334q0 -70 44.5 -116t112.5 -46q66 0 111 47t45 115q0 66 -46 110.5t-112 44.5q-65 0 -110 -44.5
t-45 -110.5z" />
    <glyph glyph-name="zero.sups" horiz-adv-x="782" 
d="M391 641q-148 0 -232.5 93.5t-84.5 254.5v197q0 161 84.5 254.5t232.5 93.5t233 -93.5t85 -254.5v-197q0 -162 -84.5 -255t-233.5 -93zM231 989q0 -92 43.5 -146.5t116.5 -54.5q74 0 118 54.5t44 146.5v197q0 92 -44 146t-118 54t-117 -54t-43 -146v-197z" />
    <glyph glyph-name="one.sups" horiz-adv-x="432" 
d="M334 1518v-861h-154v576h-141v141h47q53 0 77.5 22.5t24.5 73.5v48h146z" />
    <glyph glyph-name="two.sups" horiz-adv-x="696" 
d="M55 657v127l285 279q72 68 101.5 111t29.5 94t-33.5 84.5t-87.5 33.5q-61 0 -100 -46t-37 -115h-152q-1 135 82.5 222t212.5 87q118 0 195.5 -74.5t77.5 -183.5q0 -46 -13 -86.5t-43 -81t-56.5 -69t-74.5 -74.5l-151 -160h344v-148h-580z" />
    <glyph glyph-name="three.sups" horiz-adv-x="708" 
d="M352 641q-133 0 -217.5 78t-83.5 203h154q0 -58 40.5 -98t102.5 -40q61 0 101 35.5t40 89.5q0 51 -44.5 85t-114.5 34h-31v133h31q67 0 108 33t41 84q0 50 -36.5 81.5t-92.5 31.5q-60 0 -97.5 -35.5t-37.5 -91.5l-152 2q0 116 81.5 192t205.5 76q125 0 204 -67t79 -175
q0 -62 -35 -113.5t-96 -80.5q66 -22 105.5 -75.5t39.5 -125.5q0 -110 -84.5 -183t-210.5 -73z" />
    <glyph glyph-name="four.sups" horiz-adv-x="722" 
d="M47 848v137l242 537h164l-240 -535h209v187h149v-187h117v-139h-117v-186h-155v186h-369z" />
    <glyph glyph-name="five.sups" horiz-adv-x="710" 
d="M350 645q-131 0 -215 79t-84 204h156q2 -59 42 -96t101 -37q64 0 107 44.5t43 106.5q0 68 -41 110t-107 42q-74 0 -129 -58h-141l41 482h481v-148h-342l-22 -200q54 45 141 45q123 0 199.5 -73.5t76.5 -205.5q0 -128 -89 -211.5t-218 -83.5z" />
    <glyph glyph-name="six.sups" horiz-adv-x="718" 
d="M365 645q-133 0 -222.5 85.5t-89.5 211.5q0 104 70 217l227 363h176l-184 -291q24 6 49 6q119 0 201 -83.5t82 -207.5q0 -128 -88.5 -214.5t-220.5 -86.5zM207 942q0 -66 46 -111t112 -45q65 0 110 45t45 111q0 70 -45 116t-113 46q-66 0 -110.5 -47t-44.5 -115z" />
    <glyph glyph-name="seven.sups" horiz-adv-x="636" 
d="M98 662l328 712h-397v148h573v-131l-332 -729h-172z" />
    <glyph glyph-name="eight.sups" horiz-adv-x="727" 
d="M365 645q-131 0 -217.5 74t-86.5 184q0 65 38.5 120.5t105.5 88.5q-123 66 -123 186q0 106 79 173t204 67t202.5 -67.5t77.5 -172.5q0 -117 -119 -186q60 -29 100 -85.5t40 -125.5q0 -108 -85 -182t-216 -74zM219 907q0 -55 42 -93t104 -38q61 0 103 37.5t42 93.5
q0 55 -42.5 93t-102.5 38q-62 0 -104 -38t-42 -93zM227 1290q0 -54 39 -87.5t99 -33.5t99.5 34t39.5 85q0 54 -39.5 90.5t-99.5 36.5t-99 -36t-39 -89z" />
    <glyph glyph-name="nine.sups" horiz-adv-x="718" 
d="M354 1534q133 0 222.5 -85.5t89.5 -211.5q0 -104 -70 -217l-227 -363h-176l184 291q-24 -6 -49 -6q-119 0 -201 83.5t-82 207.5q0 128 88.5 214.5t220.5 86.5zM199 1237q0 -70 44.5 -116t112.5 -46q66 0 111 47t45 115q0 66 -46 111t-112 45q-65 0 -110 -45t-45 -111z
" />
    <glyph glyph-name="zero.sinf.zero" horiz-adv-x="782" 
d="M391 -262q-148 0 -232.5 93.5t-84.5 254.5v195q0 162 84.5 256t232.5 94q149 0 233.5 -94t84.5 -256v-195q0 -162 -84.5 -255t-233.5 -93zM229 76l285 346q-45 61 -125 61q-74 0 -117 -54t-43 -148v-195v-10zM266 -53q46 -62 123 -62q75 0 119.5 54.5t44.5 146.5v195v12z
" />
    <glyph glyph-name="zero.sups.zero" horiz-adv-x="782" 
d="M391 641q-148 0 -232.5 93.5t-84.5 254.5v195q0 162 84.5 256t232.5 94q149 0 233.5 -94t84.5 -256v-195q0 -162 -84.5 -255t-233.5 -93zM229 979l285 346q-45 61 -125 61q-74 0 -117 -54t-43 -148v-195v-10zM266 850q46 -62 123 -62q75 0 119.5 54.5t44.5 146.5v195v12z
" />
    <glyph glyph-name="colon.case" horiz-adv-x="516" 
d="M127 1171h262v-256h-262v256zM127 236v256h262v-256h-262z" />
    <glyph glyph-name="bullet.case" horiz-adv-x="831" 
d="M416 444q-113 0 -187.5 76t-74.5 189q0 114 74 189t188 75q113 0 187.5 -75t74.5 -189q0 -113 -75 -189t-187 -76z" />
    <glyph glyph-name="question.ss02" horiz-adv-x="991" 
d="M332 416q0 94 25 158t79 120l148 154q55 61 76.5 103t21.5 114q0 67 -39 111.5t-102 44.5h-103q-61 0 -106 -47t-45 -117v-68h-240v74q0 83 28.5 153.5t77 117.5t110.5 73.5t130 26.5h195q146 0 240 -101.5t94 -255.5q0 -53 -9.5 -99t-20.5 -75.5t-38 -67t-41 -54
t-51 -56.5l-125 -139q-38 -43 -54 -77.5t-16 -92.5h-235zM336 0v256h262v-256h-262z" />
    <glyph glyph-name="questiondown.ss02" horiz-adv-x="966" 
d="M643 586q0 -94 -25 -158.5t-79 -120.5l-148 -153q-55 -61 -76.5 -103t-21.5 -114q0 -67 39 -111.5t102 -44.5h103q61 0 106 47t45 117v67h240v-73q0 -83 -28.5 -153.5t-77 -117.5t-110.5 -73.5t-130 -26.5h-195q-146 0 -240 101t-94 255q0 53 9.5 99t20.5 75.5t38 67
t41 54t51 56.5l125 140q38 43 54 77.5t16 92.5h235zM377 745v256h262v-256h-262z" />
    <glyph glyph-name="hyphen.case" horiz-adv-x="833" 
d="M113 649v211h610v-211h-610z" />
    <glyph glyph-name="endash.case" horiz-adv-x="1224" 
d="M113 647v215h1001v-215h-1001z" />
    <glyph glyph-name="emdash.case" horiz-adv-x="2267" 
d="M113 647v215h2044v-215h-2044z" />
    <glyph glyph-name="parenleft.case" horiz-adv-x="684" 
d="M510 -186q-179 0 -282 115t-103 323v942q0 210 103 324t282 114h119v-202h-64q-99 0 -156 -59.5t-57 -176.5v-942q0 -117 57 -176.5t156 -59.5h64v-202h-119z" />
    <glyph glyph-name="parenright.case" horiz-adv-x="681" 
d="M172 1634q179 0 282 -115t103 -323v-942q0 -210 -103 -324t-282 -114h-119v202h64q99 0 156 59.5t57 176.5v942q0 117 -57 176.5t-156 59.5h-64v202h119z" />
    <glyph glyph-name="braceleft.case" horiz-adv-x="776" 
d="M590 -186q-157 0 -254.5 97.5t-97.5 256.5v270q0 71 -49 123.5t-130 67.5v188q81 15 130 68.5t49 124.5v268q0 159 97.5 256.5t254.5 97.5h127v-202h-70q-82 0 -131 -49.5t-49 -143.5v-256q0 -89 -41.5 -155.5t-110.5 -104.5q69 -38 110.5 -104.5t41.5 -155.5v-240
q0 -95 50 -149t130 -54h70v-204h-127z" />
    <glyph glyph-name="braceright.case" horiz-adv-x="776" 
d="M186 1634q157 0 255 -97.5t98 -256.5v-270q0 -71 48.5 -123.5t129.5 -67.5v-188q-81 -15 -129.5 -68.5t-48.5 -124.5v-268q0 -159 -98 -256.5t-255 -97.5h-127v202h70q82 0 131 49.5t49 143.5v256q0 89 41.5 155.5t110.5 104.5q-69 38 -110.5 104.5t-41.5 155.5v240
q0 95 -50 149t-130 54h-70v204h127z" />
    <glyph glyph-name="bracketleft.case" horiz-adv-x="702" 
d="M377 1427v-1404h270v-207h-497v1818h497v-207h-270z" />
    <glyph glyph-name="bracketright.case" horiz-adv-x="702" 
d="M326 20v1405h-271v207h498v-1818h-498v206h271z" />
    <glyph glyph-name="guillemotleft.case" horiz-adv-x="1361" 
d="M1223 209l-572 414v172l572 413v-235l-359 -262l359 -262v-240zM106 623v172l572 413v-235l-359 -262l359 -262v-240z" />
    <glyph glyph-name="guillemotright.case" horiz-adv-x="1363" 
d="M141 1210l572 -413v-172l-572 -414v235l359 263l-359 262v239zM686 211v235l358 263l-358 262v239l571 -413v-172z" />
    <glyph glyph-name="guilsinglleft.case" horiz-adv-x="833" 
d="M694 209l-588 414v172l588 413v-235l-375 -262l375 -262v-240z" />
    <glyph glyph-name="guilsinglright.case" horiz-adv-x="835" 
d="M139 1210l588 -413v-172l-588 -414v235l375 263l-375 262v239z" />
    <glyph glyph-name="registered.alt" horiz-adv-x="1691" 
d="M846 -27q-150 0 -288 59.5t-237.5 159t-159 237.5t-59.5 288q0 151 59.5 288.5t159 237t237.5 158.5t288 59q151 0 288.5 -59t237 -158.5t158.5 -237t59 -288.5q0 -150 -59 -288t-158.5 -237.5t-237 -159t-288.5 -59.5zM207 717q0 -131 50.5 -250.5t136.5 -206
t204 -137.5t248 -51t248.5 51t204.5 137.5t137 206t51 250.5t-51 251t-137 206.5t-204.5 138t-248.5 51.5t-248 -51.5t-204 -138t-136.5 -206.5t-50.5 -251zM612 326v788h242q113 0 185.5 -65t72.5 -158q0 -119 -100 -186q100 -56 100 -187v-192h-154v174q0 65 -31.5 96
t-101.5 31h-59v-301h-154zM766 756h78q52 0 83 30t31 80t-31 79.5t-83 29.5h-78v-219z" />
    <glyph glyph-name="at.case" horiz-adv-x="1837" 
d="M924 469q94 0 151.5 66t59.5 174q0 106 -58.5 171.5t-152.5 65.5q-91 0 -153 -68t-62 -169t62 -170.5t153 -69.5zM78 698q0 178 64.5 334.5t177 269t273 177.5t345.5 65q193 0 352 -58.5t265 -160t163.5 -238.5t57.5 -294q0 -117 -30.5 -214.5t-81 -160t-114.5 -97
t-133 -34.5q-151 0 -223 145q-44 -61 -129 -103t-188 -42q-162 0 -276 122t-114 300q0 174 114 295.5t276 121.5q86 0 153 -38t105 -107v129h217v-479q0 -78 15 -115t58 -37q65 0 101.5 77.5t36.5 227.5q0 121 -41.5 223t-119.5 177t-197 117t-267 42q-140 0 -261.5 -49
t-205.5 -133.5t-132 -201.5t-48 -250q0 -294 181.5 -461.5t531.5 -167.5h436v-205h-457q-207 0 -378 62t-286 172t-178 261t-63 328z" />
    <glyph glyph-name="uni030C.alt" horiz-adv-x="0" 
d="M205 1094l39 417h213l-82 -417h-170z" />
    <glyph glyph-name="uni0308.case" horiz-adv-x="0" 
d="M645 1733h225v-211h-225v211zM205 1522v211h225v-211h-225z" />
    <glyph glyph-name="uni0307.case" horiz-adv-x="0" 
d="M205 1733h254v-211h-254v211z" />
    <glyph glyph-name="gravecomb.case" horiz-adv-x="0" 
d="M205 1780h262l197 -262h-209z" />
    <glyph glyph-name="acutecomb.case" horiz-adv-x="0" 
d="M662 1780l-248 -262h-209l194 262h263z" />
    <glyph glyph-name="uni030B.case" horiz-adv-x="0" 
d="M616 1784l-196 -266h-215l184 266h227zM621 1518l182 266h246l-228 -266h-200z" />
    <glyph glyph-name="uni0302.case" horiz-adv-x="0" 
d="M205 1518l254 274h248l251 -274h-231l-143 149l-148 -149h-231z" />
    <glyph glyph-name="uni030C.case" horiz-adv-x="0" 
d="M205 1798h231l146 -156l145 156h229l-251 -280h-248z" />
    <glyph glyph-name="uni0306.case" horiz-adv-x="0" 
d="M883 1788q-7 -139 -93 -213t-227 -74q-138 0 -223 74t-92 213h182q0 -65 37 -103t96 -38q61 0 98.5 38t38.5 103h183z" />
    <glyph glyph-name="uni030A.case" horiz-adv-x="0" 
d="M487 1495q-121 0 -201.5 70.5t-80.5 175.5t80.5 175.5t201.5 70.5q120 0 200.5 -71t80.5 -175t-80.5 -175t-200.5 -71zM354 1741q0 -51 38 -86t95 -35q55 0 93 35t38 86t-37.5 85t-93.5 34q-57 0 -95 -34t-38 -85z" />
    <glyph glyph-name="tildecomb.case" horiz-adv-x="0" 
d="M205 1518q1 128 61 201t154 73q46 0 97 -18.5t87 -40t73.5 -40t59.5 -18.5q72 0 80 107h162q-1 -127 -64 -201t-159 -74q-46 0 -95.5 18t-84 39.5t-71.5 39.5t-61 18q-31 0 -52.5 -26.5t-24.5 -77.5h-162z" />
    <glyph glyph-name="uni0304.case" horiz-adv-x="0" 
d="M205 1542v170h682v-170h-682z" />
    </font>
</defs>
</svg>
