<?xml version="1.0" standalone="no"?>
<!DOCTYPE svg PUBLIC "-//W3C//DTD SVG 1.1//EN" "http://www.w3.org/Graphics/SVG/1.1/DTD/svg11.dtd" >
<svg xmlns="http://www.w3.org/2000/svg" xmlns:xlink="http://www.w3.org/1999/xlink" version="1.1">
<metadata>
Created by FontForge 20201107 at Tue May 20 08:22:15 2025
 By 
Copyright (c) 2020 by Martin Va'cha. All rights reserved.
</metadata>
<defs>
<font id="AvanttTRIAL-HeavyItalic" horiz-adv-x="0" >
  <font-face 
    font-family="Avantt TRIAL Heavy Italic"
    font-weight="900"
    font-style="italic"
    font-stretch="normal"
    units-per-em="2048"
    panose-1="0 0 0 0 0 0 0 0 0 0"
    ascent="1638"
    descent="-410"
    x-height="1012"
    cap-height="1434"
    bbox="-379 -553 2621 2257"
    underline-thickness="204"
    underline-position="-306"
    slope="-12"
    unicode-range="U+0020-E133"
  />
<missing-glyph horiz-adv-x="2179" 
d="M94 631q1 202 79 387.5t209.5 322.5t313.5 222t383 92v-2042q-161 5 -312 59.5t-272 149t-211.5 218.5t-140 276.5t-49.5 314.5zM1155 -383v2032q81 -29 151 -172.5t111.5 -368.5t40.5 -477q1 -251 -40.5 -475.5t-111.5 -367t-151 -171.5zM1309 -350q104 136 164 399
t59 582q1 322 -58.5 586t-164.5 401q146 -63 261 -208t180.5 -349t64.5 -430q0 -227 -65 -430t-180 -346.5t-261 -204.5zM1518 -307q171 150 272 400t100 538q0 289 -100.5 540t-271.5 400q279 -118 449.5 -374.5t170.5 -565.5t-169.5 -565t-450.5 -373z" />
    <glyph glyph-name=".notdef" horiz-adv-x="2179" 
d="M94 631q1 202 79 387.5t209.5 322.5t313.5 222t383 92v-2042q-161 5 -312 59.5t-272 149t-211.5 218.5t-140 276.5t-49.5 314.5zM1155 -383v2032q81 -29 151 -172.5t111.5 -368.5t40.5 -477q1 -251 -40.5 -475.5t-111.5 -367t-151 -171.5zM1309 -350q104 136 164 399
t59 582q1 322 -58.5 586t-164.5 401q146 -63 261 -208t180.5 -349t64.5 -430q0 -227 -65 -430t-180 -346.5t-261 -204.5zM1518 -307q171 150 272 400t100 538q0 289 -100.5 540t-271.5 400q279 -118 449.5 -374.5t170.5 -565.5t-169.5 -565t-450.5 -373z" />
    <glyph glyph-name=".null" 
 />
    <glyph glyph-name="nonmarkingreturn" horiz-adv-x="682" 
 />
    <glyph glyph-name="space" unicode=" " horiz-adv-x="376" 
 />
    <glyph glyph-name="exclam" unicode="!" horiz-adv-x="585" 
d="M297 1434h387l-211 -955h-369zM-2 0l80 367h379l-80 -367h-379z" />
    <glyph glyph-name="quotedbl" unicode="&#x22;" horiz-adv-x="878" 
d="M629 834l14 333l55 267h308l-56 -267l-129 -333h-192zM193 834l14 333l55 267h307l-55 -267l-129 -333h-192z" />
    <glyph glyph-name="numbersign" unicode="#" horiz-adv-x="1544" 
d="M1606 1434l-117 -277h133l-68 -317h-198l-105 -248h168l-67 -318h-236l-115 -274h-409l115 274h-154l-117 -274h-407l114 274h-131l68 318h199l104 248h-168l68 317h233l117 277h409l-116 -277h153l117 277h410zM686 592h156l104 248h-155z" />
    <glyph glyph-name="dollar" unicode="$" horiz-adv-x="1157" 
d="M981 1675l-53 -258q134 -61 193 -185.5t26 -285.5h-389q14 61 -7 105.5t-83 44.5q-46 0 -76.5 -27.5t-30.5 -67.5q0 -32 29 -54.5t75 -39t101.5 -33.5t111 -45.5t101.5 -67.5t75 -106t29 -155q0 -220 -128 -361.5t-334 -165.5l-48 -219h-352l60 277q-130 66 -191.5 187
t-30.5 267h390q-13 -58 15.5 -103.5t98.5 -45.5q60 0 91.5 30t31.5 72q0 32 -28 55.5t-73 40.5t-99.5 35.5t-109 48.5t-99.5 71.5t-73 112t-28 163.5q0 197 112 328.5t296 162.5l45 219h352z" />
    <glyph glyph-name="percent" unicode="%" horiz-adv-x="1849" 
d="M1266 1434h323l-958 -1434h-322zM152 1042q0 76 30.5 150t85 135t140.5 99t188 38q145 0 239.5 -91t94.5 -224q0 -73 -31 -146.5t-86.5 -135.5t-143 -101t-190.5 -39q-143 0 -235 90.5t-92 224.5zM428 1073q0 -43 26 -70.5t66 -27.5q61 0 96 42.5t35 98.5
q0 46 -27.5 73.5t-66.5 27.5q-60 0 -94.5 -42.5t-34.5 -101.5zM1014 285q0 76 30.5 150t85 135t140.5 99t188 38q145 0 239.5 -91.5t94.5 -224.5q0 -73 -31 -146.5t-86.5 -135.5t-143 -101t-190.5 -39q-143 0 -235 91t-92 225zM1290 315q0 -43 26 -70.5t66 -27.5
q61 0 96 42.5t35 98.5q0 46 -27.5 73.5t-66.5 27.5q-60 0 -94.5 -42.5t-34.5 -101.5z" />
    <glyph glyph-name="ampersand" unicode="&#x26;" horiz-adv-x="1472" 
d="M504 -31q-215 0 -340 99t-125 266q0 91 24.5 164.5t70 126.5t97.5 89.5t121 67.5q-61 106 -61 215q0 89 39 174t105 149.5t160 104t198 39.5q177 0 289 -86t112 -245q0 -97 -27 -174.5t-77.5 -131t-106 -89t-129.5 -66.5l111 -152q66 78 114 180l43 93h369l-37 -103
q-88 -249 -297 -438l182 -252h-428l-41 57q-190 -88 -366 -88zM412 395q0 -50 38 -78t101 -28q70 0 135 26l-164 230q-55 -30 -82.5 -65t-27.5 -85zM651 1020q0 -50 39 -117q80 32 122 71.5t42 96.5q0 36 -23 58t-61 22q-51 0 -85 -37t-34 -94z" />
    <glyph glyph-name="quotesingle" unicode="'" horiz-adv-x="442" 
d="M193 834l14 333l55 267h307l-55 -267l-129 -333h-192z" />
    <glyph glyph-name="parenleft" unicode="(" horiz-adv-x="747" 
d="M395 -283q-133 0 -225.5 63.5t-131 191.5t2.5 319l168 790q43 204 172 329.5t319 125.5h218l-70 -328h-96q-60 0 -114 -47.5t-71 -122.5l-174 -817q-17 -81 17.5 -128.5t101.5 -47.5h88l-70 -328h-135z" />
    <glyph glyph-name="parenright" unicode=")" horiz-adv-x="749" 
d="M408 1536q133 0 225.5 -63.5t131 -191t-2.5 -318.5l-168 -791q-43 -204 -172.5 -329.5t-319.5 -125.5h-217l70 328h96q60 0 114 47.5t71 122.5l174 817q17 81 -17.5 128.5t-101.5 47.5h-88l69 328h136z" />
    <glyph glyph-name="asterisk" unicode="*" horiz-adv-x="1001" 
d="M342 590l-180 196l225 193l-233 104l147 260l205 -100l49 232h287l-49 -232l245 100l41 -276l-266 -102l162 -211l-246 -164l-149 203z" />
    <glyph glyph-name="plus" unicode="+" horiz-adv-x="1269" 
d="M102 532l72 338h354l78 365h369l-78 -365h354l-71 -338h-355l-77 -364h-369l78 364h-355z" />
    <glyph glyph-name="comma" unicode="," horiz-adv-x="548" 
d="M109 -74q6 32 -11 53t-49 21h-72l80 367h379l-149 -697h-234z" />
    <glyph glyph-name="hyphen" unicode="-" horiz-adv-x="892" 
d="M57 389l72 338h731l-72 -338h-731z" />
    <glyph glyph-name="period" unicode="." horiz-adv-x="544" 
d="M57 367h379l-80 -367h-379z" />
    <glyph glyph-name="slash" unicode="/" horiz-adv-x="1116" 
d="M-80 0l934 1434h432l-936 -1434h-430z" />
    <glyph glyph-name="slash" unicode="&#x2215;" horiz-adv-x="1116" 
d="M-80 0l934 1434h432l-936 -1434h-430z" />
    <glyph glyph-name="zero" unicode="0" horiz-adv-x="1323" 
d="M612 -20q-189 0 -318 83.5t-178.5 231.5t-9.5 336l58 270q58 273 220 412t419 139q289 0 426.5 -180t73.5 -492l-56 -270q-54 -259 -217 -394.5t-418 -135.5zM496 590q-24 -114 13.5 -177t131.5 -63q90 0 143.5 61t79.5 179l54 252q23 113 -14 175t-132 62
q-173 0 -219 -215z" />
    <glyph glyph-name="one" unicode="1" horiz-adv-x="786" 
d="M872 1434l-305 -1434h-389l178 834h-247l75 352h35q230 0 277 215l6 33h370z" />
    <glyph glyph-name="two" unicode="2" horiz-adv-x="1177" 
d="M-33 0l70 319l467 355q170 130 229.5 194.5t59.5 135.5q0 40 -24.5 64t-66.5 24q-58 0 -101 -54.5t-46 -138.5h-387q15 142 66.5 251.5t130 177.5t177 102t212.5 34q203 0 323.5 -112t120.5 -285q0 -84 -28 -163.5t-70 -141t-111.5 -127.5t-131.5 -112.5t-150 -106.5
l-68 -39h430l-82 -377h-1020z" />
    <glyph glyph-name="three" unicode="3" horiz-adv-x="1165" 
d="M510 -31q-116 0 -214 37.5t-162.5 102t-90 157.5t-0.5 199h387q-13 -55 16 -96t91 -41t107.5 40t45.5 95q0 43 -37 70.5t-102 27.5h-59l69 334h60q75 0 125.5 38.5t50.5 90.5q0 38 -27.5 60t-71.5 22q-59 0 -103 -34.5t-56 -88.5h-377q48 232 203 356.5t368 124.5
t336 -95.5t123 -262.5q0 -238 -240 -373q131 -76 131 -244q0 -150 -76 -269.5t-206.5 -185t-290.5 -65.5z" />
    <glyph glyph-name="four" unicode="4" horiz-adv-x="1226" 
d="M16 279l76 348l477 807h426l-475 -805h158l49 231h375l-49 -231h166l-76 -350h-166l-59 -279h-390l60 279h-572z" />
    <glyph glyph-name="five" unicode="5" horiz-adv-x="1202" 
d="M532 -31q-114 0 -212.5 38t-165.5 104t-97.5 161t-11.5 203h395q3 -127 127 -127q70 0 122 54t52 130q0 56 -32.5 90.5t-87.5 34.5q-82 0 -146 -67h-356l250 844h878l-78 -373h-530l-51 -143q59 36 160 36q182 0 287.5 -95.5t105.5 -278.5q0 -181 -82.5 -321.5
t-220.5 -215t-306 -74.5z" />
    <glyph glyph-name="six" unicode="6" horiz-adv-x="1210" 
d="M565 -31q-231 0 -373.5 124t-142.5 327q0 67 17.5 133t41 116.5t68 113.5t76 101t88.5 103l391 447h490l-420 -463q160 -15 262 -134.5t102 -289.5q0 -118 -47 -224.5t-127 -184t-191.5 -123.5t-234.5 -46zM442 467q0 -63 40 -103t104 -40q76 0 130 54.5t54 133.5
q0 66 -41.5 109t-107.5 43q-76 0 -127.5 -57t-51.5 -140z" />
    <glyph glyph-name="seven" unicode="7" horiz-adv-x="1079" 
d="M6 0l701 1061h-547l78 373h997l-70 -330l-725 -1104h-434z" />
    <glyph glyph-name="eight" unicode="8" horiz-adv-x="1206" 
d="M551 -31q-227 0 -367.5 105.5t-140.5 283.5q0 75 28 152t89.5 144.5t144.5 97.5q-49 54 -72.5 105t-23.5 118q0 139 70.5 251.5t193 175t272.5 62.5q216 0 349 -98t133 -262q0 -101 -51 -195.5t-168 -156.5q118 -118 118 -269q0 -147 -76.5 -265t-207.5 -183.5
t-291 -65.5zM440 403q0 -46 33.5 -76t87.5 -30q66 0 119 45.5t53 106.5q0 48 -33.5 80t-85.5 32q-67 0 -120.5 -48t-53.5 -110zM565 999q0 -46 34.5 -77t88.5 -31q66 0 118 45.5t52 107.5q0 47 -33.5 79t-85.5 32q-67 0 -120.5 -47.5t-53.5 -108.5z" />
    <glyph glyph-name="nine" unicode="9" horiz-adv-x="1210" 
d="M737 1464q231 0 373.5 -123.5t142.5 -326.5q0 -67 -17.5 -133t-41 -117t-67.5 -113.5t-76 -101.5t-88 -103l-392 -446h-489l420 463q-160 15 -262.5 134.5t-102.5 289.5q0 118 47 224.5t127 184t191.5 123t234.5 45.5zM532 922q0 -66 42 -109t108 -43q76 0 127 56.5
t51 140.5q0 63 -39.5 103t-103.5 40q-76 0 -130.5 -54.5t-54.5 -133.5z" />
    <glyph glyph-name="colon" unicode=":" horiz-adv-x="561" 
d="M201 1012h379l-80 -367h-379zM-16 0l79 367h379l-80 -367h-378z" />
    <glyph glyph-name="semicolon" unicode=";" horiz-adv-x="561" 
d="M201 1012h379l-80 -367h-379zM-16 0l79 367h379l-149 -697h-234l56 256q6 32 -11 53t-49 21h-71z" />
    <glyph glyph-name="less" unicode="&#x3c;" horiz-adv-x="1269" 
d="M1217 1124l-84 -397l-445 -170l371 -174l-74 -350l-823 405l59 279z" />
    <glyph glyph-name="equal" unicode="=" horiz-adv-x="1269" 
d="M1307 1137l-72 -338h-1077l71 338h1078zM53 303l72 338h1077l-72 -338h-1077z" />
    <glyph glyph-name="greater" unicode="&#x3e;" horiz-adv-x="1269" 
d="M86 33l84 397l444 170l-370 174l73 350l824 -405l-60 -279z" />
    <glyph glyph-name="question" unicode="?" horiz-adv-x="1083" 
d="M700 1464q205 0 326 -112t121 -279q0 -68 -19.5 -125.5t-52.5 -99.5t-74 -78t-87 -69t-88 -64.5t-80 -72.5t-60 -85h-379q18 73 51.5 133.5t72.5 101t82.5 74.5t83 60t72 50t51.5 52t19 60q0 35 -20 55t-60 20q-61 0 -103 -48t-54 -130h-385q109 557 583 557zM225 0
l80 367h379l-80 -367h-379z" />
    <glyph glyph-name="at" unicode="@" horiz-adv-x="1826" 
d="M883 365q64 0 110.5 53t46.5 129q0 50 -26.5 80t-75.5 30q-63 0 -108.5 -52.5t-45.5 -125.5q0 -54 27 -84t72 -30zM51 397q0 158 46.5 305t134 267.5t204.5 211t267 140t313 49.5q157 0 287 -33.5t221.5 -93t154 -141.5t92 -178.5t29.5 -204.5q0 -85 -17.5 -170t-58 -168
t-98 -146.5t-145.5 -103t-193 -39.5q-140 0 -213 109q-45 -46 -112.5 -77.5t-147.5 -31.5q-147 0 -236.5 102t-89.5 252q0 121 53.5 230.5t156 181.5t229.5 72q128 0 180 -74l12 57h287l-90 -430q-5 -27 -6 -53t11.5 -44.5t37.5 -18.5q32 0 60 41.5t45 100t26.5 113
t9.5 87.5q0 51 -10.5 96t-32.5 88t-60 77.5t-90 60.5t-126.5 40t-165.5 14q-136 0 -256.5 -51.5t-206.5 -140t-136 -212.5t-50 -265q0 -104 33 -189.5t99 -150t173.5 -100t247.5 -35.5h419l-59 -281h-381q-204 0 -366.5 55.5t-267 155t-159.5 233.5t-55 293z" />
    <glyph glyph-name="A" unicode="A" horiz-adv-x="1308" 
d="M-111 0l783 1434h360l172 -1434h-397l-14 186h-385l-89 -186h-430zM551 549h223l-33 371z" />
    <glyph glyph-name="B" unicode="B" horiz-adv-x="1169" 
d="M0 0l305 1434h436q204 0 327.5 -87t123.5 -239q0 -101 -56.5 -203.5t-166.5 -148.5q61 -26 98 -92.5t37 -165.5q0 -115 -44 -210t-119.5 -157.5t-176 -96.5t-215.5 -34h-549zM459 322h114q63 0 99.5 41.5t36.5 99.5q0 43 -27 68.5t-76 25.5h-98zM575 877h70
q76 0 111 41.5t35 103.5q0 90 -115 90h-49z" />
    <glyph glyph-name="C" unicode="C" horiz-adv-x="1533" 
d="M786 -31q-209 0 -365.5 82.5t-238.5 228.5t-82 336q0 172 60.5 327.5t164.5 270.5t253.5 182.5t318.5 67.5q173 0 309.5 -49t217.5 -131t119 -184.5t28 -214.5h-424q-3 89 -77 150t-173 61q-119 0 -212 -64.5t-141 -166t-48 -218.5q0 -140 77.5 -224.5t212.5 -84.5
q117 0 192.5 66.5t98.5 156.5h430q-25 -174 -124.5 -309t-255 -209t-341.5 -74z" />
    <glyph glyph-name="D" unicode="D" horiz-adv-x="1417" 
d="M780 1434q150 0 270.5 -45t199.5 -124.5t121 -188t42 -236.5q0 -226 -104 -418t-292 -307t-419 -115h-598l305 1434h475zM469 369h156q81 0 156.5 39.5t127 102.5t82.5 141t31 155q0 113 -67.5 185.5t-182.5 72.5h-156z" />
    <glyph glyph-name="E" unicode="E" horiz-adv-x="1007" 
d="M305 1434h817l-78 -369h-428l-34 -166h372l-75 -354h-373l-37 -176h428l-80 -369h-817z" />
    <glyph glyph-name="F" unicode="F" horiz-adv-x="978" 
d="M305 1434h817l-78 -369h-428l-36 -170h370l-78 -371h-370l-113 -524h-389z" />
    <glyph glyph-name="G" unicode="G" horiz-adv-x="1564" 
d="M770 -31q-195 0 -350 86.5t-239.5 234t-84.5 326.5q0 122 36 243.5t108 230.5t171 192.5t234.5 132.5t288.5 49q129 0 236 -27.5t180.5 -75.5t124.5 -113.5t75 -140t25 -157.5h-438q-13 76 -76.5 115t-163.5 39t-180 -45t-126.5 -116t-70.5 -150t-24 -156q0 -141 81 -224
t226 -83q117 0 200 53.5t107 140.5l-377 -18l76 354h747q-3 -115 -32 -254q-60 -299 -258 -468t-496 -169z" />
    <glyph glyph-name="H" unicode="H" horiz-adv-x="1337" 
d="M0 0l305 1434h389l-110 -521h344l110 521h389l-305 -1434h-389l117 545h-344l-117 -545h-389z" />
    <glyph glyph-name="I" unicode="I" horiz-adv-x="604" 
d="M305 1434h389l-305 -1434h-389z" />
    <glyph glyph-name="J" unicode="J" horiz-adv-x="749" 
d="M84 369q74 0 117 30t61 111l197 924h389l-215 -1010q-44 -205 -175 -314.5t-331 -109.5h-182l80 369h59z" />
    <glyph glyph-name="K" unicode="K" horiz-adv-x="1249" 
d="M729 0l-201 653l-139 -653h-389l305 1434h389l-123 -574l437 574h442l-555 -689l268 -745h-434z" />
    <glyph glyph-name="L" unicode="L" horiz-adv-x="958" 
d="M305 1434h389l-225 -1065h428l-80 -369h-817z" />
    <glyph glyph-name="M" unicode="M" horiz-adv-x="1847" 
d="M0 0l305 1434h518l92 -928l455 928h567l-305 -1434h-379l93 432q23 106 50 222t42 180l16 63q-98 -213 -209 -428l-237 -469h-363l-45 426q-11 107 -21 225t-14 183l-4 65q-39 -229 -90 -467l-92 -432h-379z" />
    <glyph glyph-name="N" unicode="N" horiz-adv-x="1269" 
d="M745 1192q26 -104 52 -220t39 -180l12 -65q33 231 82 469l51 238h379l-305 -1434h-344l-80 313q-26 105 -52 221t-39 180l-12 64q-33 -231 -84 -469l-65 -309h-379l305 1434h381z" />
    <glyph glyph-name="O" unicode="O" horiz-adv-x="1628" 
d="M766 -31q-143 0 -268 50t-213 136t-138.5 205.5t-50.5 255.5q0 130 40.5 256t117 232t180 187t238 127t282.5 46q190 0 343.5 -85.5t239 -235.5t85.5 -334q0 -164 -64.5 -317t-176 -268.5t-272.5 -185t-343 -69.5zM500 653q0 -137 85.5 -226t219.5 -89q165 0 289.5 128.5
t124.5 307.5q0 139 -86 230.5t-220 91.5q-165 0 -289 -131.5t-124 -311.5z" />
    <glyph glyph-name="P" unicode="P" horiz-adv-x="1132" 
d="M0 0l305 1434h451q202 0 326 -113t124 -301q0 -160 -79.5 -293.5t-210 -208t-279.5 -74.5h-152l-96 -444h-389zM561 807h84q44 0 77.5 16t51.5 41.5t26.5 52.5t8.5 54q0 44 -29 71t-80 27h-84z" />
    <glyph glyph-name="Q" unicode="Q" horiz-adv-x="1636" 
d="M807 0q-152 0 -284 49t-225 133.5t-146.5 203t-53.5 253.5q0 126 42.5 248.5t121 225.5t183 182.5t237 124t274.5 44.5q144 0 270 -48.5t213 -131t137 -195.5t50 -239q0 -144 -60 -273t-173 -215h178l-78 -362h-686zM502 670q0 -134 85.5 -222t219.5 -88q107 0 202.5 57
t153.5 156.5t58 214.5q0 136 -86 226t-220 90q-165 0 -289 -129t-124 -305z" />
    <glyph glyph-name="R" unicode="R" horiz-adv-x="1179" 
d="M0 0l305 1434h451q204 0 330 -107.5t126 -277.5q0 -135 -60.5 -239t-170.5 -167q123 -123 80 -328l-68 -315h-387l66 309q13 61 -14.5 106.5t-96.5 45.5h-76l-98 -461h-387zM559 805h86q79 0 121.5 50t42.5 114q0 46 -29 73t-78 27h-88z" />
    <glyph glyph-name="S" unicode="S" horiz-adv-x="1155" 
d="M547 -31q-157 0 -279.5 68t-180 187.5t-26.5 260.5h390q-13 -58 15.5 -103.5t98.5 -45.5q60 0 91.5 30t31.5 72q0 32 -28 55.5t-73 40.5t-99.5 35.5t-109 48.5t-99.5 71.5t-73 112t-28 163.5q0 225 144.5 362t367.5 137q246 0 376 -146.5t83 -371.5h-389q14 61 -7 105.5
t-83 44.5q-46 0 -76.5 -27.5t-30.5 -67.5q0 -32 29 -54.5t75 -39t101.5 -33.5t111 -45.5t101.5 -67.5t75 -106t29 -155q0 -160 -70 -281.5t-192 -185.5t-276 -64z" />
    <glyph glyph-name="T" unicode="T" horiz-adv-x="1024" 
d="M154 1065l77 369h959l-78 -369h-285l-227 -1065h-389l227 1065h-284z" />
    <glyph glyph-name="U" unicode="U" horiz-adv-x="1310" 
d="M584 -31q-270 0 -400.5 172.5t-70.5 450.5l178 842h389l-188 -891q-19 -86 19.5 -145.5t113.5 -59.5q76 0 133.5 55.5t77.5 149.5l188 891h389l-196 -924q-54 -254 -221.5 -397.5t-411.5 -143.5z" />
    <glyph glyph-name="V" unicode="V" horiz-adv-x="1312" 
d="M750 0h-392l-168 1434h398l67 -877l408 877h444z" />
    <glyph glyph-name="W" unicode="W" horiz-adv-x="1902" 
d="M242 0l-31 1434h403l2 -324q1 -108 -1.5 -226.5t-5.5 -183.5l-3 -65q89 217 195 432l180 367h319l33 -326q10 -107 17.5 -225t9.5 -183l2 -65q74 221 164 446l141 353h406l-619 -1434h-367l-79 739l-383 -739h-383z" />
    <glyph glyph-name="X" unicode="X" horiz-adv-x="1228" 
d="M686 0l-76 436l-278 -436h-432l528 735l-188 699h407l82 -390l229 390h422l-467 -709l183 -725h-410z" />
    <glyph glyph-name="Y" unicode="Y" horiz-adv-x="1243" 
d="M195 1434h419l86 -498l316 498h424l-623 -934l-106 -500h-389l106 500z" />
    <glyph glyph-name="Z" unicode="Z" horiz-adv-x="1079" 
d="M291 1434h905l-61 -295l-613 -770h453l-80 -369h-932l64 295l612 770h-426z" />
    <glyph glyph-name="bracketleft" unicode="[" horiz-adv-x="768" 
d="M629 1204l-244 -1155h236l-72 -332h-612l387 1819h612l-72 -332h-235z" />
    <glyph glyph-name="backslash" unicode="\" horiz-adv-x="1056" 
d="M934 0h-393l-326 1434h395z" />
    <glyph glyph-name="bracketright" unicode="]" horiz-adv-x="765" 
d="M193 49l243 1155h-235l71 332h613l-387 -1819h-613l72 332h236z" />
    <glyph glyph-name="asciicircum" unicode="^" horiz-adv-x="1269" 
d="M1196 633h-381l-72 338l-217 -338h-393l520 801h361z" />
    <glyph glyph-name="underscore" unicode="_" horiz-adv-x="1402" 
d="M-119 -367l74 347h1274l-74 -347h-1274z" />
    <glyph glyph-name="grave" unicode="`" horiz-adv-x="989" 
d="M406 1452h399l108 -338h-307z" />
    <glyph glyph-name="a" unicode="a" horiz-adv-x="1087" 
d="M315 -31q-140 0 -224.5 75.5t-84.5 197.5q0 97 45 173t123 122.5t177 70t214 23.5h103l4 18q9 41 -16.5 70t-69.5 29q-96 0 -125 -86h-367q40 183 177.5 281.5t351.5 98.5q102 0 186.5 -30t141.5 -84.5t79.5 -136.5t1.5 -179l-131 -612h-358l16 72q-96 -103 -244 -103z
M371 301q0 -27 21 -43t57 -16q60 0 109.5 40t66.5 107l2 8h-105q-66 0 -108.5 -23.5t-42.5 -72.5z" />
    <glyph glyph-name="b" unicode="b" horiz-adv-x="1245" 
d="M657 -31q-192 0 -292 133l-23 -102h-358l305 1434h368l-98 -463q109 71 238 71q182 0 293.5 -124t111.5 -324q0 -120 -39 -232.5t-108.5 -199.5t-173 -140t-224.5 -53zM459 477q0 -73 46.5 -119.5t119.5 -46.5q89 0 153 65t64 159q0 74 -46.5 119.5t-121.5 45.5
q-89 0 -152 -64.5t-63 -158.5z" />
    <glyph glyph-name="c" unicode="c" horiz-adv-x="1138" 
d="M530 -31q-131 0 -239.5 58t-175 169.5t-66.5 254.5q0 122 43.5 231t119 188.5t183.5 125.5t232 46q219 0 356.5 -128t122.5 -316h-365q-2 40 -38.5 71t-88.5 31q-97 0 -151.5 -66t-54.5 -157q0 -76 44.5 -121t106.5 -45q61 0 103 31.5t53 79.5h368q-26 -206 -177 -329.5
t-376 -123.5z" />
    <glyph glyph-name="d" unicode="d" horiz-adv-x="1245" 
d="M451 -31q-182 0 -294 124.5t-112 324.5q0 122 39.5 234.5t110 199t177 138.5t232.5 52q89 0 164.5 -32.5t108.5 -87.5l108 512h369l-305 -1434h-357l21 98q-38 -56 -112.5 -92.5t-149.5 -36.5zM406 477q0 -74 46 -120t121 -46q89 0 152 65t63 159q0 73 -46 119t-119 46
q-89 0 -153 -64.5t-64 -158.5z" />
    <glyph glyph-name="e" unicode="e" horiz-adv-x="1140" 
d="M510 -31q-205 0 -336 124t-131 331q0 169 77.5 310.5t215 224.5t305.5 83q109 0 204 -40t159 -108t91 -165t5 -205q-7 -34 -33 -114h-680q6 -67 47.5 -104.5t104.5 -37.5q47 0 85 17t58 49h360q-56 -170 -197.5 -267.5t-334.5 -97.5zM442 643h310q3 47 -30.5 80t-96.5 33
q-113 0 -183 -113z" />
    <glyph glyph-name="f" unicode="f" horiz-adv-x="841" 
d="M88 694l68 318h172l10 53q40 189 154.5 279t312.5 90h209l-64 -297h-139q-91 0 -106 -82l-9 -43h230l-68 -318h-229l-150 -694h-368l149 694h-172z" />
    <glyph glyph-name="g" unicode="g" horiz-adv-x="1210" 
d="M315 -385q-195 0 -282.5 98.5t-65.5 270.5l2 16h361l-2 -12q-4 -28 16 -45t53 -17h148q50 0 73.5 23.5t34.5 75.5l19 84q-100 -56 -207 -56q-175 0 -290.5 125.5t-115.5 319.5q0 116 42 218t112.5 173t165.5 112t199 41q80 0 157.5 -30.5t112.5 -77.5l16 78h369
l-225 -1057q-34 -159 -146 -249.5t-313 -90.5h-234zM428 514q0 -69 42.5 -113.5t109.5 -44.5q86 0 146 62t60 155q0 70 -42.5 114t-110.5 44q-84 0 -144.5 -62.5t-60.5 -154.5z" />
    <glyph glyph-name="h" unicode="h" horiz-adv-x="1169" 
d="M-16 0l305 1434h358l-110 -519q133 127 292 127q167 0 246 -131t29 -358l-119 -553h-369l121 561q12 62 -14.5 103t-85.5 41q-62 0 -106 -40.5t-62 -121.5l-117 -543h-368z" />
    <glyph glyph-name="i" unicode="i" horiz-adv-x="546" 
d="M199 1012h368l-217 -1012h-368zM219 1114l68 318h372l-67 -318h-373z" />
    <glyph glyph-name="j" unicode="j" horiz-adv-x="548" 
d="M-106 -55q79 0 94 82l211 985h368l-223 -1045q-15 -69 -35 -121t-42.5 -89.5t-54.5 -63t-64 -41t-79 -24t-90 -11t-106 -2.5h-109l70 330h60zM219 1114l68 318h372l-67 -318h-373z" />
    <glyph glyph-name="k" unicode="k" horiz-adv-x="1167" 
d="M-16 0l305 1434h368l-163 -775l321 353h463l-463 -484l289 -528h-432l-217 473l-103 -473h-368z" />
    <glyph glyph-name="l" unicode="l" horiz-adv-x="548" 
d="M657 1434l-305 -1434h-368l305 1434h368z" />
    <glyph glyph-name="m" unicode="m" horiz-adv-x="1744" 
d="M-18 0l217 1012h358l-20 -92q130 122 303 122q76 0 133.5 -35t89.5 -100q135 135 330 135q169 0 255.5 -108t47.5 -293l-137 -641h-369l119 555q15 73 -7 111.5t-77 38.5q-117 0 -148 -136l-123 -569h-368l119 555q15 72 -10 111t-83 39q-57 0 -91.5 -38.5t-53.5 -125.5
l-117 -541h-368z" />
    <glyph glyph-name="n" unicode="n" horiz-adv-x="1167" 
d="M-18 0l217 1012h358l-22 -103q136 133 292 133q167 0 245 -130.5t30 -358.5l-119 -553h-369l117 543q15 74 -10 118t-86 44q-133 0 -168 -162l-117 -543h-368z" />
    <glyph glyph-name="o" unicode="o" horiz-adv-x="1185" 
d="M537 -31q-212 0 -351 136t-139 341q0 157 76.5 293t216.5 219.5t311 83.5q212 0 351 -136t139 -341q0 -157 -76.5 -293t-216.5 -219.5t-311 -83.5zM408 475q0 -74 44.5 -120t116.5 -46q88 0 149.5 65.5t61.5 162.5q0 73 -45 119t-117 46q-88 0 -149 -65t-61 -162z" />
    <glyph glyph-name="p" unicode="p" horiz-adv-x="1243" 
d="M-98 -385l297 1397h356l-16 -82q50 50 125 81t151 31q169 0 277 -124.5t108 -321.5q0 -120 -39 -232.5t-108 -200.5t-173 -141t-225 -53q-184 0 -286 113l-99 -467h-368zM457 477q0 -73 46.5 -119.5t119.5 -46.5q89 0 153 65t64 159q0 74 -46.5 119.5t-121.5 45.5
q-89 0 -152 -64.5t-63 -158.5z" />
    <glyph glyph-name="q" unicode="q" horiz-adv-x="1241" 
d="M713 98q-38 -56 -112.5 -92.5t-149.5 -36.5q-182 0 -294 124.5t-112 324.5q0 122 39.5 234.5t110 199t177 138.5t232.5 52q89 0 164.5 -32.5t108.5 -87.5l18 90h369l-297 -1397h-357zM406 477q0 -74 46 -120t121 -46q89 0 152 65t63 159q0 73 -46 119t-119 46
q-89 0 -153 -64.5t-64 -158.5z" />
    <glyph glyph-name="r" unicode="r" horiz-adv-x="806" 
d="M565 1012l-22 -101q119 101 245 101h99l-68 -318h-117q-94 0 -161.5 -55.5t-87.5 -149.5l-105 -489h-366l217 1012h366z" />
    <glyph glyph-name="s" unicode="s" horiz-adv-x="1005" 
d="M459 -31q-209 0 -334.5 100.5t-108.5 254.5h346q-2 -29 27.5 -50.5t81.5 -21.5q88 0 88 43q0 19 -25.5 33t-66.5 25t-90 24t-98.5 35.5t-90.5 53.5t-66.5 83.5t-25.5 120.5q0 175 127.5 273.5t315.5 98.5q208 0 328 -86t110 -251h-356q-5 29 -33.5 47t-71.5 18
q-34 0 -54 -11.5t-20 -31.5t26.5 -34t68 -24t92.5 -22t102 -33.5t92.5 -52t68 -84t26.5 -123.5q0 -126 -61.5 -214.5t-163 -129.5t-234.5 -41z" />
    <glyph glyph-name="t" unicode="t" horiz-adv-x="849" 
d="M61 694l68 318h172l53 254h367l-53 -254h229l-68 -318h-229l-59 -274q-12 -57 4 -80t67 -23h136l-68 -317h-186q-186 0 -275.5 104.5t-50.5 286.5l65 303h-172z" />
    <glyph glyph-name="u" unicode="u" horiz-adv-x="1167" 
d="M1188 1012l-217 -1012h-359l23 102q-136 -133 -293 -133q-167 0 -244.5 131t-29.5 359l118 553h369l-117 -543q-15 -74 10.5 -118t86.5 -44q132 0 167 162l117 543h369z" />
    <glyph glyph-name="v" unicode="v" horiz-adv-x="1128" 
d="M264 0l-155 1012h380l41 -549l273 549h436l-590 -1012h-385z" />
    <glyph glyph-name="w" unicode="w" horiz-adv-x="1597" 
d="M203 0l-101 1012h369l31 -463l246 463h294l58 -441l211 441h397l-534 -1012h-322l-76 449l-264 -449h-309z" />
    <glyph glyph-name="x" unicode="x" horiz-adv-x="1091" 
d="M596 0l-88 262l-191 -262h-426l426 530l-198 482h385l86 -248l174 248h426l-406 -518l197 -494h-385z" />
    <glyph glyph-name="y" unicode="y" horiz-adv-x="1114" 
d="M106 1012h373l70 -494l258 494h420l-860 -1397h-416l336 504z" />
    <glyph glyph-name="z" unicode="z" horiz-adv-x="1042" 
d="M-47 0l61 289l510 405h-405l67 318h895l-63 -291l-522 -404h444l-68 -317h-919z" />
    <glyph glyph-name="braceleft" unicode="{" horiz-adv-x="839" 
d="M518 -283q-98 0 -177 32t-131.5 93.5t-70.5 152.5t6 208l27 123q12 58 -22 97t-109 48l65 309q82 9 133 52.5t66 115.5l47 226q33 151 159.5 256.5t311.5 105.5h178l-69 -330h-70q-54 0 -101.5 -37t-60.5 -102l-43 -201q-15 -66 -45 -113.5t-60.5 -72t-84.5 -57.5
q119 -99 74 -306l-23 -104q-17 -73 16.5 -119.5t94.5 -46.5h55l-70 -330h-96z" />
    <glyph glyph-name="bar" unicode="|" horiz-adv-x="606" 
d="M350 1634h387l-411 -1941h-387z" />
    <glyph glyph-name="braceright" unicode="}" horiz-adv-x="839" 
d="M375 1536q98 0 177 -32t131.5 -93.5t70.5 -152t-6 -207.5l-27 -123q-12 -58 22 -97.5t109 -48.5l-66 -309q-81 -9 -132 -52.5t-66 -115.5l-47 -225q-33 -151 -159.5 -257t-311.5 -106h-179l70 330h70q54 0 101.5 37t60.5 102l43 201q11 50 29 88t45 66.5t51.5 47
t64.5 42.5q-119 99 -74 305l23 104q17 73 -16.5 119.5t-94.5 46.5h-55l70 330h96z" />
    <glyph glyph-name="asciitilde" unicode="~" horiz-adv-x="1269" 
d="M41 381q22 105 58 188.5t78 138t92 91t100 52t102 15.5q59 0 120 -18t102 -39t86 -39t75 -18q70 0 94 108l332 4q-22 -105 -58 -188.5t-78 -138t-92 -91t-100 -52t-102 -15.5q-75 0 -150 29t-134.5 57.5t-96.5 28.5q-33 0 -58.5 -29t-37.5 -82z" />
    <glyph glyph-name="uni00A0" unicode="&#xa0;" horiz-adv-x="376" 
 />
    <glyph glyph-name="exclamdown" unicode="&#xa1;" horiz-adv-x="567" 
d="M-106 -422l210 954h369l-192 -954h-387zM123 645l80 367h379l-80 -367h-379z" />
    <glyph glyph-name="cent" unicode="&#xa2;" horiz-adv-x="1204" 
d="M950 1255l-55 -262q120 -56 185 -161t55 -234h-365q-2 40 -38.5 71t-88.5 31q-97 0 -152 -66t-55 -157q0 -76 45 -121t107 -45q61 0 102.5 31.5t52.5 79.5h369q-23 -177 -138.5 -294t-295.5 -148l-47 -226h-375l59 277q-109 60 -173 169t-64 251q0 215 124.5 375.5
t325.5 203.5l47 225h375z" />
    <glyph glyph-name="sterling" unicode="&#xa3;" horiz-adv-x="1269" 
d="M86 530l70 328h149l37 172q42 205 187 325t360 120q106 0 195 -38t146.5 -102.5t81 -154.5t3.5 -189h-385q6 53 -17 88t-65 35q-51 0 -82.5 -36.5t-46.5 -110.5l-23 -109h336l-69 -328h-345q-33 -72 -124 -159h682l-80 -371h-1125l76 350q67 30 115.5 77.5t70.5 102.5
h-147z" />
    <glyph glyph-name="currency" unicode="&#xa4;" horiz-adv-x="1523" 
d="M1378 723q-5 -122 -73 -254l149 -160l-264 -252l-154 162q-112 -59 -252 -59q-144 0 -258 63l-170 -164l-235 248l174 162q-61 113 -55 254q6 137 79 254l-155 162l262 254l156 -166q120 65 262 65q137 0 248 -63l170 162l235 -250l-168 -160q55 -119 49 -258zM590 723
q-5 -96 56.5 -165t154.5 -69q90 0 156.5 68t70.5 166q4 101 -55 170.5t-148 69.5q-93 0 -161.5 -70.5t-73.5 -169.5z" />
    <glyph glyph-name="yen" unicode="&#xa5;" horiz-adv-x="1304" 
d="M268 1434h424l58 -498l262 498h420l-283 -453h168l-70 -328h-301l-61 -98h342l-70 -328h-364l-50 -227h-389l49 227h-370l69 328h347l-19 98h-307l70 328h169z" />
    <glyph glyph-name="brokenbar" unicode="&#xa6;" horiz-adv-x="606" 
d="M180 838l170 796h387l-170 -796h-387zM-61 -307l170 801h387l-170 -801h-387z" />
    <glyph glyph-name="section" unicode="&#xa7;" horiz-adv-x="1126" 
d="M504 -385q-239 0 -357 127.5t-81 327.5h335q-7 -23 -4.5 -49.5t11.5 -49.5t35 -38t65 -15q62 0 90.5 28.5t28.5 73.5q0 35 -29.5 59.5t-93.5 43.5l-166 49q-131 39 -198.5 125t-67.5 207q0 94 44 193t126 163q-47 73 -47 174q0 188 123 309t321 121q235 0 354 -125
t82 -329h-336q5 33 3 66.5t-30 59t-79 25.5q-61 0 -90 -27t-29 -69q0 -74 123 -109l166 -49q270 -80 270 -329q0 -100 -48 -195t-126 -160q49 -71 49 -172q0 -189 -117.5 -312.5t-326.5 -123.5zM393 557q0 -37 28.5 -70.5t88.5 -52.5l104 -33q6 -2 18 -5.5t22.5 -7
t19.5 -7.5q4 5 14.5 17.5t14 17t11.5 14.5t10.5 14.5t8 13t7 14t4 13.5t3.5 15.5t1 15.5q0 38 -28 73t-87 54l-105 33q-4 1 -23 7t-28 11q-84 -75 -84 -137z" />
    <glyph glyph-name="dieresis" unicode="&#xa8;" horiz-adv-x="1220" 
d="M860 1432h352l-67 -318h-352zM334 1114l67 318h353l-68 -318h-352z" />
    <glyph glyph-name="copyright" unicode="&#xa9;" horiz-adv-x="1660" 
d="M834 -31q-197 0 -359.5 93t-255 253t-92.5 351q0 159 65 307t173 255.5t254 171.5t301 64q196 0 358.5 -92.5t255 -252t92.5 -351.5q0 -159 -65 -306.5t-173 -255.5t-253.5 -172.5t-300.5 -64.5zM272 676q0 -156 74 -286.5t203 -205.5t285 -75q127 0 246.5 52.5t207 140
t140.5 208.5t53 252q0 117 -43.5 221.5t-118 180t-178.5 119.5t-221 44q-127 0 -246.5 -52.5t-207.5 -140t-141 -208t-53 -250.5zM461 653q0 124 57 233.5t164.5 179t239.5 69.5q168 0 273.5 -93.5t84.5 -236.5h-258q-1 43 -37 72.5t-86 29.5q-87 0 -139.5 -71t-52.5 -158
q0 -65 36.5 -105.5t100.5 -40.5q97 0 145 115h262q-103 -340 -432 -340q-157 0 -257.5 96t-100.5 250z" />
    <glyph glyph-name="ordfeminine" unicode="&#xaa;" horiz-adv-x="1026" 
d="M377 485q-115 0 -185.5 66.5t-70.5 171.5q0 103 66.5 184t167 121.5t212.5 40.5h154l4 18q10 46 -7 78.5t-69 32.5q-44 0 -75 -26t-39 -66h-334q29 155 174.5 256.5t322.5 101.5q198 0 299 -104t62 -287l-119 -559h-336l10 47q-107 -76 -237 -76zM467 780q0 -51 65 -51
q45 0 88 36t66 95h-106q-52 0 -82.5 -22t-30.5 -58z" />
    <glyph glyph-name="guillemotleft" unicode="&#xab;" horiz-adv-x="1419" 
d="M1219 -6l-514 391l59 279l680 395l-80 -404l-268 -145l202 -139zM51 414l60 278l680 395l-80 -403l-269 -145l203 -140l-80 -376z" />
    <glyph glyph-name="logicalnot" unicode="&#xac;" horiz-adv-x="1269" 
d="M1225 829l-168 -786h-367l94 440h-696l74 346h1063z" />
    <glyph glyph-name="uni00AD" unicode="&#xad;" horiz-adv-x="892" 
d="M57 389l72 338h731l-72 -338h-731z" />
    <glyph glyph-name="registered" unicode="&#xae;" horiz-adv-x="892" 
d="M571 719q-155 0 -263.5 108.5t-108.5 264.5q0 155 108 263.5t262 108.5q157 0 266 -108.5t109 -263.5t-109 -264t-264 -109zM287 1092q0 -120 83 -204.5t201 -84.5q117 0 200 84.5t83 204.5t-83 204t-200 84q-118 0 -201 -84t-83 -204zM440 897v393h133q59 0 98.5 -35.5
t39.5 -83.5q0 -60 -47 -92q45 -29 45 -94v-88h-101v78q0 51 -51 51h-16v-129h-101zM541 1112h26q17 0 29 12t12 31q0 20 -11.5 31.5t-29.5 11.5h-26v-86z" />
    <glyph glyph-name="macron" unicode="&#xaf;" horiz-adv-x="1144" 
d="M334 1114l61 287h735l-61 -287h-735z" />
    <glyph glyph-name="degree" unicode="&#xb0;" horiz-adv-x="1079" 
d="M616 565q-187 0 -310.5 120t-123.5 300q0 134 68 247.5t183 178t249 64.5q187 0 310.5 -120t123.5 -300q0 -134 -68 -247.5t-183 -178t-249 -64.5zM500 1010q0 -60 39.5 -100t99.5 -40q66 0 113 47.5t47 116.5q0 58 -40 96.5t-100 38.5q-66 0 -112.5 -46t-46.5 -113z" />
    <glyph glyph-name="plusminus" unicode="&#xb1;" horiz-adv-x="1269" 
d="M195 719l71 338h303l60 274h368l-59 -274h303l-72 -338h-303l-57 -270h-369l58 270h-303zM53 55l70 328h975l-70 -328h-975z" />
    <glyph glyph-name="acute" unicode="&#xb4;" horiz-adv-x="985" 
d="M975 1452l-303 -338h-332l231 338h404z" />
    <glyph glyph-name="uni00B5" unicode="&#xb5;" horiz-adv-x="1196" 
d="M-90 -385l297 1397h368l-120 -570q-12 -60 16 -97.5t84 -37.5q133 0 168 162l117 543h368l-217 -1012h-358l22 102q-136 -133 -293 -133h-8l-75 -354h-369z" />
    <glyph glyph-name="paragraph" unicode="&#xb6;" horiz-adv-x="1589" 
d="M311 -385l178 840q-171 20 -271.5 134t-100.5 273q0 124 52 231.5t141.5 181.5t212 116.5t259.5 42.5h940l-77 -369h-179l-307 -1450h-348l307 1450h-153l-308 -1450h-346z" />
    <glyph glyph-name="periodcentered" unicode="&#xb7;" horiz-adv-x="550" 
d="M174 926h379l-78 -365h-379z" />
    <glyph glyph-name="cedilla" unicode="&#xb8;" horiz-adv-x="843" 
d="M385 33l-8 -33l-80 -109h4q72 0 118 -50t46 -128q0 -105 -72 -185.5t-192 -80.5h-221l36 168h166q36 0 61 20t25 50q0 21 -16 34t-45 13h-146l29 139l111 162h184z" />
    <glyph glyph-name="ordmasculine" unicode="&#xba;" horiz-adv-x="1122" 
d="M705 1466q203 0 329.5 -125t126.5 -321q0 -153 -71.5 -281t-197.5 -202t-278 -74q-202 0 -329 124t-127 318q0 154 72.5 283t198.5 203.5t276 74.5zM498 934q0 -63 39 -103t100 -40q77 0 129.5 59t52.5 145q0 65 -36 104.5t-97 39.5q-81 0 -134.5 -65t-53.5 -140z" />
    <glyph glyph-name="guillemotright" unicode="&#xbb;" horiz-adv-x="1419" 
d="M211 1059l514 -391l-59 -279l-680 -395l80 403l268 146l-203 139zM639 -35l80 404l268 145l-203 139l80 377l514 -391l-59 -279z" />
    <glyph glyph-name="onequarter" unicode="&#xbc;" horiz-adv-x="1644" 
d="M614 1436l-182 -861h-237l104 496h-149l47 215h20q68 0 111 38.5t55 92.5l4 19h227zM131 0l956 1434h324l-958 -1434h-322zM870 166l45 213l285 481h260l-272 -479h80l28 135h230l-29 -135h98l-47 -215h-98l-35 -166h-237l34 166h-342z" />
    <glyph glyph-name="onehalf" unicode="&#xbd;" horiz-adv-x="1662" 
d="M612 1436l-182 -861h-237l104 496h-150l48 215h20q68 0 111 38.5t55 92.5l4 19h227zM129 0l956 1434h324l-958 -1434h-322zM895 0l43 195l281 213q100 76 136 114t36 78q0 25 -16 38t-40 13q-70 0 -86 -112h-231q66 340 350 340q122 0 195 -67.5t73 -170.5
q0 -26 -5 -51.5t-11.5 -46t-21.5 -44.5t-24.5 -39.5t-32.5 -38.5t-34 -34.5t-40 -35t-39.5 -31.5t-43.5 -33t-41 -31l-34 -27h252l-50 -229h-616z" />
    <glyph glyph-name="threequarters" unicode="&#xbe;" horiz-adv-x="1802" 
d="M403 557q-151 0 -232.5 83.5t-51.5 215.5h235q-6 -32 12 -56t52 -24q36 0 62 21t26 51q0 25 -20 43t-58 18h-39l43 205h37q46 0 72 22t26 54q0 21 -16 33t-41 12q-35 0 -59.5 -19.5t-30.5 -50.5h-232q31 141 126 215t225 74q129 0 200.5 -56.5t71.5 -156.5
q0 -57 -33.5 -118.5t-109.5 -106.5q80 -44 80 -146q0 -140 -98.5 -226.5t-246.5 -86.5zM289 0l956 1434h324l-959 -1434h-321zM1028 166l45 213l285 481h260l-272 -479h79l29 135h229l-28 -135h98l-47 -215h-98l-35 -166h-238l35 166h-342z" />
    <glyph glyph-name="questiondown" unicode="&#xbf;" horiz-adv-x="1077" 
d="M379 -453q-205 0 -326 112.5t-121 279.5q0 68 19.5 125.5t52.5 99.5t74 78t87 68.5t88 64t80 72.5t60 85h379q-18 -73 -51.5 -133.5t-72.5 -101t-82.5 -74.5t-83 -59.5t-72 -49.5t-51.5 -52t-19 -60q0 -35 20 -55.5t60 -20.5q61 0 103.5 48t54.5 130h385
q-109 -557 -584 -557zM395 645l80 367h379l-80 -367h-379z" />
    <glyph glyph-name="Agrave" unicode="&#xc0;" horiz-adv-x="1308" 
d="M-111 0l783 1434h360l172 -1434h-397l-14 186h-385l-89 -186h-430zM485 1800h420l121 -282h-328zM551 549h223l-33 371z" />
    <glyph glyph-name="Aacute" unicode="&#xc1;" horiz-adv-x="1308" 
d="M-111 0l783 1434h360l172 -1434h-397l-14 186h-385l-89 -186h-430zM551 549h223l-33 371zM696 1518l219 282h418l-309 -282h-328z" />
    <glyph glyph-name="Acircumflex" unicode="&#xc2;" horiz-adv-x="1308" 
d="M-111 0l783 1434h360l172 -1434h-397l-14 186h-385l-89 -186h-430zM432 1518l291 307h405l172 -307h-358l-45 110l-94 -110h-371zM551 549h223l-33 371z" />
    <glyph glyph-name="Atilde" unicode="&#xc3;" horiz-adv-x="1308" 
d="M-111 0l783 1434h360l172 -1434h-397l-14 186h-385l-89 -186h-430zM420 1518q65 329 334 329q67 0 130.5 -20.5t107.5 -41t63 -20.5q29 0 43.5 14t21.5 52h262q-62 -330 -346 -330q-66 0 -126 19.5t-102 39t-63 19.5q-54 0 -63 -61h-262zM551 549h223l-33 371z" />
    <glyph glyph-name="Adieresis" unicode="&#xc4;" horiz-adv-x="1308" 
d="M-111 0l783 1434h360l172 -1434h-397l-14 186h-385l-89 -186h-430zM457 1518l65 307h340l-65 -307h-340zM551 549h223l-33 371zM936 1518l65 307h340l-65 -307h-340z" />
    <glyph glyph-name="Aring" unicode="&#xc5;" horiz-adv-x="1308" 
d="M-111 0l783 1434h360l172 -1434h-397l-14 186h-385l-89 -186h-430zM551 549h223l-33 371zM555 1778q9 118 108 199t236 81q139 0 229.5 -81.5t81.5 -198.5q-11 -118 -109.5 -198.5t-236.5 -80.5t-228.5 81t-80.5 198zM782 1778q-3 -37 23 -63.5t67 -26.5q43 0 75.5 26.5
t35.5 63.5t-25 63.5t-71 26.5q-41 0 -71.5 -26.5t-33.5 -63.5z" />
    <glyph glyph-name="AE" unicode="&#xc6;" horiz-adv-x="1753" 
d="M-137 0l919 1434h1082l-76 -369h-420l-33 -166h365l-74 -354h-366l-35 -176h420l-80 -369h-801l49 231h-332l-141 -231h-477zM700 594h187l100 479z" />
    <glyph glyph-name="Ccedilla" unicode="&#xc7;" horiz-adv-x="1533" 
d="M100 616q0 172 60.5 327.5t164.5 270.5t253.5 182.5t318.5 67.5q173 0 309.5 -49t217.5 -131t119 -184.5t28 -214.5h-424q-3 89 -77 150t-173 61q-119 0 -212 -64.5t-141 -166t-48 -218.5q0 -140 77.5 -224.5t212.5 -84.5q117 0 192.5 66.5t98.5 156.5h430
q-35 -248 -214.5 -409t-438.5 -181l-59 -80h4q72 0 118 -50t46 -128q0 -105 -72.5 -185.5t-192.5 -80.5h-221l37 168h166q36 0 61 20t25 50q0 21 -16 34t-45 13h-146l29 139l74 106q-262 35 -412 207.5t-150 431.5z" />
    <glyph glyph-name="Egrave" unicode="&#xc8;" horiz-adv-x="1007" 
d="M305 1434h817l-78 -369h-428l-34 -166h372l-75 -354h-373l-37 -176h428l-80 -369h-817zM348 1800h420l121 -282h-328z" />
    <glyph glyph-name="Eacute" unicode="&#xc9;" horiz-adv-x="1007" 
d="M305 1434h817l-78 -369h-428l-34 -166h372l-75 -354h-373l-37 -176h428l-80 -369h-817zM559 1518l219 282h418l-309 -282h-328z" />
    <glyph glyph-name="Ecircumflex" unicode="&#xca;" horiz-adv-x="1007" 
d="M305 1434h817l-78 -369h-428l-34 -166h372l-75 -354h-373l-37 -176h428l-80 -369h-817zM295 1518l291 307h405l172 -307h-358l-45 110l-94 -110h-371z" />
    <glyph glyph-name="Edieresis" unicode="&#xcb;" horiz-adv-x="1007" 
d="M305 1434h817l-78 -369h-428l-34 -166h372l-75 -354h-373l-37 -176h428l-80 -369h-817zM319 1518l66 307h340l-66 -307h-340zM799 1518l65 307h340l-65 -307h-340z" />
    <glyph glyph-name="Igrave" unicode="&#xcc;" horiz-adv-x="604" 
d="M305 1434h389l-305 -1434h-389zM133 1800h420l121 -282h-328z" />
    <glyph glyph-name="Iacute" unicode="&#xcd;" horiz-adv-x="604" 
d="M305 1434h389l-305 -1434h-389zM344 1518l219 282h418l-309 -282h-328z" />
    <glyph glyph-name="Icircumflex" unicode="&#xce;" horiz-adv-x="604" 
d="M305 1434h389l-305 -1434h-389zM80 1518l291 307h405l172 -307h-358l-45 110l-94 -110h-371z" />
    <glyph glyph-name="Idieresis" unicode="&#xcf;" horiz-adv-x="604" 
d="M305 1434h389l-305 -1434h-389zM104 1518l66 307h340l-66 -307h-340zM584 1518l65 307h340l-65 -307h-340z" />
    <glyph glyph-name="Eth" unicode="&#xd0;" horiz-adv-x="1492" 
d="M70 547l80 368h120l111 519h475q150 0 270.5 -45t199.5 -124.5t121 -188t42 -236.5q0 -226 -104 -418t-292 -307t-419 -115h-598l117 547h-123zM545 369h155q108 0 201.5 67t145 167.5t51.5 203.5q0 113 -67.5 185.5t-182.5 72.5h-156l-35 -160h306l-74 -348h-305z" />
    <glyph glyph-name="Ntilde" unicode="&#xd1;" horiz-adv-x="1269" 
d="M745 1192q26 -104 52 -220t39 -180l12 -65q33 231 82 469l51 238h379l-305 -1434h-344l-80 313q-26 105 -52 221t-39 180l-12 64q-33 -231 -84 -469l-65 -309h-379l305 1434h381zM401 1518q65 329 334 329q67 0 130.5 -20.5t107.5 -41t63 -20.5q30 0 44.5 14t21.5 52h262
q-62 -330 -346 -330q-66 0 -126 19.5t-102 39t-63 19.5q-54 0 -63 -61h-263z" />
    <glyph glyph-name="Ograve" unicode="&#xd2;" horiz-adv-x="1628" 
d="M766 -31q-143 0 -268 50t-213 136t-138.5 205.5t-50.5 255.5q0 130 40.5 256t117 232t180 187t238 127t282.5 46q190 0 343.5 -85.5t239 -235.5t85.5 -334q0 -164 -64.5 -317t-176 -268.5t-272.5 -185t-343 -69.5zM500 653q0 -137 85.5 -226t219.5 -89q165 0 289.5 128.5
t124.5 307.5q0 139 -86 230.5t-220 91.5q-165 0 -289 -131.5t-124 -311.5zM590 1800h420l120 -282h-327z" />
    <glyph glyph-name="Oacute" unicode="&#xd3;" horiz-adv-x="1628" 
d="M766 -31q-143 0 -268 50t-213 136t-138.5 205.5t-50.5 255.5q0 130 40.5 256t117 232t180 187t238 127t282.5 46q190 0 343.5 -85.5t239 -235.5t85.5 -334q0 -164 -64.5 -317t-176 -268.5t-272.5 -185t-343 -69.5zM500 653q0 -137 85.5 -226t219.5 -89q165 0 289.5 128.5
t124.5 307.5q0 139 -86 230.5t-220 91.5q-165 0 -289 -131.5t-124 -311.5zM801 1518l219 282h418l-310 -282h-327z" />
    <glyph glyph-name="Ocircumflex" unicode="&#xd4;" horiz-adv-x="1628" 
d="M766 -31q-143 0 -268 50t-213 136t-138.5 205.5t-50.5 255.5q0 130 40.5 256t117 232t180 187t238 127t282.5 46q190 0 343.5 -85.5t239 -235.5t85.5 -334q0 -164 -64.5 -317t-176 -268.5t-272.5 -185t-343 -69.5zM500 653q0 -137 85.5 -226t219.5 -89q165 0 289.5 128.5
t124.5 307.5q0 139 -86 230.5t-220 91.5q-165 0 -289 -131.5t-124 -311.5zM537 1518l290 307h406l172 -307h-358l-46 110l-94 -110h-370z" />
    <glyph glyph-name="Otilde" unicode="&#xd5;" horiz-adv-x="1628" 
d="M766 -31q-143 0 -268 50t-213 136t-138.5 205.5t-50.5 255.5q0 130 40.5 256t117 232t180 187t238 127t282.5 46q190 0 343.5 -85.5t239 -235.5t85.5 -334q0 -164 -64.5 -317t-176 -268.5t-272.5 -185t-343 -69.5zM500 653q0 -137 85.5 -226t219.5 -89q165 0 289.5 128.5
t124.5 307.5q0 139 -86 230.5t-220 91.5q-165 0 -289 -131.5t-124 -311.5zM524 1518q65 329 334 329q67 0 130.5 -20.5t107.5 -41t63 -20.5q30 0 44.5 14t21.5 52h262q-62 -330 -346 -330q-66 0 -126 19.5t-102 39t-63 19.5q-55 0 -64 -61h-262z" />
    <glyph glyph-name="Odieresis" unicode="&#xd6;" horiz-adv-x="1628" 
d="M766 -31q-143 0 -268 50t-213 136t-138.5 205.5t-50.5 255.5q0 130 40.5 256t117 232t180 187t238 127t282.5 46q190 0 343.5 -85.5t239 -235.5t85.5 -334q0 -164 -64.5 -317t-176 -268.5t-272.5 -185t-343 -69.5zM500 653q0 -137 85.5 -226t219.5 -89q165 0 289.5 128.5
t124.5 307.5q0 139 -86 230.5t-220 91.5q-165 0 -289 -131.5t-124 -311.5zM561 1518l66 307h340l-66 -307h-340zM1040 1518l66 307h340l-66 -307h-340z" />
    <glyph glyph-name="multiply" unicode="&#xd7;" horiz-adv-x="1269" 
d="M309 162l-215 272l336 283l-221 280l268 222l221 -275l324 275l231 -271l-338 -278l226 -283l-267 -225l-223 282z" />
    <glyph glyph-name="Oslash" unicode="&#xd8;" horiz-adv-x="1630" 
d="M217 -117l-250 240l199 199q-68 139 -68 294q0 130 40.5 256t117 232t180 187t238 127t282.5 46q183 0 334 -80l150 146l258 -240l-158 -153q84 -144 84 -328q0 -164 -64.5 -317t-176 -268.5t-272.5 -185t-343 -69.5q-203 0 -365 97zM502 653q0 -25 2 -35l500 465
q-47 13 -89 13q-165 0 -289 -131.5t-124 -311.5zM686 360q58 -22 121 -22q165 0 289.5 128.5t124.5 307.5q0 30 -7 70z" />
    <glyph glyph-name="Ugrave" unicode="&#xd9;" horiz-adv-x="1310" 
d="M584 -31q-270 0 -400.5 172.5t-70.5 450.5l178 842h389l-188 -891q-19 -86 19.5 -145.5t113.5 -59.5q76 0 133.5 55.5t77.5 149.5l188 891h389l-196 -924q-54 -254 -221.5 -397.5t-411.5 -143.5zM485 1800h420l121 -282h-328z" />
    <glyph glyph-name="Uacute" unicode="&#xda;" horiz-adv-x="1310" 
d="M584 -31q-270 0 -400.5 172.5t-70.5 450.5l178 842h389l-188 -891q-19 -86 19.5 -145.5t113.5 -59.5q76 0 133.5 55.5t77.5 149.5l188 891h389l-196 -924q-54 -254 -221.5 -397.5t-411.5 -143.5zM696 1518l219 282h418l-309 -282h-328z" />
    <glyph glyph-name="Ucircumflex" unicode="&#xdb;" horiz-adv-x="1310" 
d="M584 -31q-270 0 -400.5 172.5t-70.5 450.5l178 842h389l-188 -891q-19 -86 19.5 -145.5t113.5 -59.5q76 0 133.5 55.5t77.5 149.5l188 891h389l-196 -924q-54 -254 -221.5 -397.5t-411.5 -143.5zM432 1518l291 307h405l172 -307h-358l-45 110l-94 -110h-371z" />
    <glyph glyph-name="Udieresis" unicode="&#xdc;" horiz-adv-x="1310" 
d="M584 -31q-270 0 -400.5 172.5t-70.5 450.5l178 842h389l-188 -891q-19 -86 19.5 -145.5t113.5 -59.5q76 0 133.5 55.5t77.5 149.5l188 891h389l-196 -924q-54 -254 -221.5 -397.5t-411.5 -143.5zM457 1518l65 307h340l-65 -307h-340zM936 1518l65 307h340l-65 -307h-340z
" />
    <glyph glyph-name="Yacute" unicode="&#xdd;" horiz-adv-x="1243" 
d="M195 1434h419l86 -498l316 498h424l-623 -934l-106 -500h-389l106 500zM662 1518l219 282h417l-309 -282h-327z" />
    <glyph glyph-name="Thorn" unicode="&#xde;" horiz-adv-x="1146" 
d="M305 1434h389l-43 -201h58q210 0 328 -111.5t118 -296.5q0 -116 -41.5 -221t-116 -184.5t-186 -126.5t-242.5 -47h-127l-53 -246h-389zM518 608h66q73 0 125.5 43.5t52.5 118.5q0 44 -28 71t-79 27h-82z" />
    <glyph glyph-name="germandbls" unicode="&#xdf;" horiz-adv-x="1216" 
d="M193 979q49 228 200 356.5t395 128.5q140 0 249 -58t160.5 -161t25.5 -227q-35 -157 -168 -252q143 -122 92 -369q-37 -176 -189.5 -286.5t-367.5 -110.5h-115l76 354h86q63 0 103.5 32t52.5 89t-17.5 90t-89.5 33h-82l66 313h53q45 0 79.5 28t45.5 73q9 46 -20.5 79
t-82.5 33q-152 0 -196 -202l-197 -922h-368z" />
    <glyph glyph-name="agrave" unicode="&#xe0;" horiz-adv-x="1087" 
d="M315 -31q-140 0 -224.5 75.5t-84.5 197.5q0 97 45 173t123 122.5t177 70t214 23.5h103l4 18q9 41 -16.5 70t-69.5 29q-96 0 -125 -86h-367q40 183 177.5 281.5t351.5 98.5q102 0 186.5 -30t141.5 -84.5t79.5 -136.5t1.5 -179l-131 -612h-358l16 72q-96 -103 -244 -103z
M311 1452h400l108 -338h-307zM371 301q0 -27 21 -43t57 -16q60 0 109.5 40t66.5 107l2 8h-105q-66 0 -108.5 -23.5t-42.5 -72.5z" />
    <glyph glyph-name="aacute" unicode="&#xe1;" horiz-adv-x="1087" 
d="M315 -31q-140 0 -224.5 75.5t-84.5 197.5q0 97 45 173t123 122.5t177 70t214 23.5h103l4 18q9 41 -16.5 70t-69.5 29q-96 0 -125 -86h-367q40 183 177.5 281.5t351.5 98.5q102 0 186.5 -30t141.5 -84.5t79.5 -136.5t1.5 -179l-131 -612h-358l16 72q-96 -103 -244 -103z
M371 301q0 -27 21 -43t57 -16q60 0 109.5 40t66.5 107l2 8h-105q-66 0 -108.5 -23.5t-42.5 -72.5zM500 1114l231 338h404l-304 -338h-331z" />
    <glyph glyph-name="acircumflex" unicode="&#xe2;" horiz-adv-x="1087" 
d="M315 -31q-140 0 -224.5 75.5t-84.5 197.5q0 97 45 173t123 122.5t177 70t214 23.5h103l4 18q9 41 -16.5 70t-69.5 29q-96 0 -125 -86h-367q40 183 177.5 281.5t351.5 98.5q102 0 186.5 -30t141.5 -84.5t79.5 -136.5t1.5 -179l-131 -612h-358l16 72q-96 -103 -244 -103z
M264 1114l279 338h399l135 -338h-309l-57 115l-107 -115h-340zM371 301q0 -27 21 -43t57 -16q60 0 109.5 40t66.5 107l2 8h-105q-66 0 -108.5 -23.5t-42.5 -72.5z" />
    <glyph glyph-name="atilde" unicode="&#xe3;" horiz-adv-x="1087" 
d="M315 -31q-140 0 -224.5 75.5t-84.5 197.5q0 97 45 173t123 122.5t177 70t214 23.5h103l4 18q9 41 -16.5 70t-69.5 29q-96 0 -125 -86h-367q40 183 177.5 281.5t351.5 98.5q102 0 186.5 -30t141.5 -84.5t79.5 -136.5t1.5 -179l-131 -612h-358l16 72q-96 -103 -244 -103z
M244 1114q20 164 104 253t199 89q56 0 118 -23.5t113 -47t80 -23.5q27 0 43 19t29 59h237q-21 -165 -109.5 -253.5t-207.5 -88.5q-56 0 -114 22t-106 44t-79 22q-58 0 -70 -72h-237zM371 301q0 -27 21 -43t57 -16q60 0 109.5 40t66.5 107l2 8h-105q-66 0 -108.5 -23.5
t-42.5 -72.5z" />
    <glyph glyph-name="adieresis" unicode="&#xe4;" horiz-adv-x="1087" 
d="M315 -31q-140 0 -224.5 75.5t-84.5 197.5q0 97 45 173t123 122.5t177 70t214 23.5h103l4 18q9 41 -16.5 70t-69.5 29q-96 0 -125 -86h-367q40 183 177.5 281.5t351.5 98.5q102 0 186.5 -30t141.5 -84.5t79.5 -136.5t1.5 -179l-131 -612h-358l16 72q-96 -103 -244 -103z
M266 1114l68 318h352l-68 -318h-352zM371 301q0 -27 21 -43t57 -16q60 0 109.5 40t66.5 107l2 8h-105q-66 0 -108.5 -23.5t-42.5 -72.5zM725 1114l68 318h352l-68 -318h-352z" />
    <glyph glyph-name="aring" unicode="&#xe5;" horiz-adv-x="1087" 
d="M315 -31q-140 0 -224.5 75.5t-84.5 197.5q0 97 45 173t123 122.5t177 70t214 23.5h103l4 18q9 41 -16.5 70t-69.5 29q-96 0 -125 -86h-367q40 183 177.5 281.5t351.5 98.5q102 0 186.5 -30t141.5 -84.5t79.5 -136.5t1.5 -179l-131 -612h-358l16 72q-96 -103 -244 -103z
M358 1354q0 125 100 214t244 89q133 0 222.5 -75.5t89.5 -186.5q0 -124 -100 -210.5t-246 -86.5q-132 0 -221 73.5t-89 182.5zM371 301q0 -27 21 -43t57 -16q60 0 109.5 40t66.5 107l2 8h-105q-66 0 -108.5 -23.5t-42.5 -72.5zM586 1370q0 -36 25.5 -60t64.5 -24q44 0 77 29
t33 67q0 35 -27.5 59.5t-68.5 24.5q-42 0 -73 -28.5t-31 -67.5z" />
    <glyph glyph-name="ae" unicode="&#xe6;" horiz-adv-x="1734" 
d="M1104 -31q-223 0 -354 144q-64 -68 -160.5 -106t-212.5 -38q-166 0 -267.5 76t-101.5 203q0 122 74.5 210.5t194 130.5t268.5 42h123l4 18q9 42 -18 70.5t-72 28.5q-92 0 -121 -86h-367q40 183 177.5 281.5t351.5 98.5q176 0 282 -106q142 106 330 106q130 0 237 -53.5
t169.5 -150t62.5 -217.5q0 -80 -43 -211h-680q6 -67 47.5 -104.5t104.5 -37.5q47 0 85 17t58 49h360q-56 -170 -197.5 -267.5t-334.5 -97.5zM373 301q0 -28 19.5 -43.5t56.5 -15.5q64 0 114.5 45t65.5 110h-107q-66 0 -107.5 -23.5t-41.5 -72.5zM1036 643h310q3 47 -30.5 80
t-96.5 33q-113 0 -183 -113z" />
    <glyph glyph-name="ccedilla" unicode="&#xe7;" horiz-adv-x="1138" 
d="M49 451q0 122 43.5 231t119 188.5t183.5 125.5t232 46q219 0 356.5 -128t122.5 -316h-365q-2 40 -38.5 71t-88.5 31q-97 0 -151.5 -66t-54.5 -157q0 -76 44.5 -121t106.5 -45q61 0 103 31.5t53 79.5h368q-23 -178 -139.5 -295.5t-296.5 -146.5l-63 -89h4q72 0 118 -50
t46 -128q0 -105 -72.5 -185.5t-192.5 -80.5h-221l37 168h166q36 0 61 20t25 50q0 21 -16 34t-45 13h-146l29 139l72 104q-173 27 -286.5 155.5t-113.5 320.5z" />
    <glyph glyph-name="egrave" unicode="&#xe8;" horiz-adv-x="1140" 
d="M510 -31q-205 0 -336 124t-131 331q0 169 77.5 310.5t215 224.5t305.5 83q109 0 204 -40t159 -108t91 -165t5 -205q-7 -34 -33 -114h-680q6 -67 47.5 -104.5t104.5 -37.5q47 0 85 17t58 49h360q-56 -170 -197.5 -267.5t-334.5 -97.5zM303 1452h399l109 -338h-307z
M442 643h310q3 47 -30.5 80t-96.5 33q-113 0 -183 -113z" />
    <glyph glyph-name="eacute" unicode="&#xe9;" horiz-adv-x="1140" 
d="M510 -31q-205 0 -336 124t-131 331q0 169 77.5 310.5t215 224.5t305.5 83q109 0 204 -40t159 -108t91 -165t5 -205q-7 -34 -33 -114h-680q6 -67 47.5 -104.5t104.5 -37.5q47 0 85 17t58 49h360q-56 -170 -197.5 -267.5t-334.5 -97.5zM442 643h310q3 47 -30.5 80t-96.5 33
q-113 0 -183 -113zM492 1114l231 338h403l-303 -338h-331z" />
    <glyph glyph-name="ecircumflex" unicode="&#xea;" horiz-adv-x="1140" 
d="M510 -31q-205 0 -336 124t-131 331q0 169 77.5 310.5t215 224.5t305.5 83q109 0 204 -40t159 -108t91 -165t5 -205q-7 -34 -33 -114h-680q6 -67 47.5 -104.5t104.5 -37.5q47 0 85 17t58 49h360q-56 -170 -197.5 -267.5t-334.5 -97.5zM256 1114l279 338h399l135 -338h-309
l-58 115l-106 -115h-340zM442 643h310q3 47 -30.5 80t-96.5 33q-113 0 -183 -113z" />
    <glyph glyph-name="edieresis" unicode="&#xeb;" horiz-adv-x="1140" 
d="M510 -31q-205 0 -336 124t-131 331q0 169 77.5 310.5t215 224.5t305.5 83q109 0 204 -40t159 -108t91 -165t5 -205q-7 -34 -33 -114h-680q6 -67 47.5 -104.5t104.5 -37.5q47 0 85 17t58 49h360q-56 -170 -197.5 -267.5t-334.5 -97.5zM258 1114l68 318h352l-68 -318h-352z
M442 643h310q3 47 -30.5 80t-96.5 33q-113 0 -183 -113zM717 1114l67 318h353l-68 -318h-352z" />
    <glyph glyph-name="igrave" unicode="&#xec;" horiz-adv-x="546" 
d="M199 1012h368l-217 -1012h-368zM45 1452h399l109 -338h-307z" />
    <glyph glyph-name="iacute" unicode="&#xed;" horiz-adv-x="546" 
d="M199 1012h368l-217 -1012h-368zM233 1114l232 338h403l-303 -338h-332z" />
    <glyph glyph-name="icircumflex" unicode="&#xee;" horiz-adv-x="546" 
d="M199 1012h368l-217 -1012h-368zM-2 1114l278 338h400l135 -338h-309l-58 115l-106 -115h-340z" />
    <glyph glyph-name="idieresis" unicode="&#xef;" horiz-adv-x="546" 
d="M199 1012h368l-217 -1012h-368zM0 1114l68 318h352l-68 -318h-352zM459 1114l67 318h353l-68 -318h-352z" />
    <glyph glyph-name="eth" unicode="&#xf0;" horiz-adv-x="1191" 
d="M532 -31q-216 0 -351.5 132.5t-135.5 330.5q0 153 69.5 279t198 200t289.5 74q48 0 113 -14l-62 145l-274 -39l16 230l170 24l-43 103h393l19 -52l194 27l-16 -229l-102 -15l112 -317q33 -90 33 -211q0 -103 -27 -201t-80.5 -182t-127 -148t-174 -100.5t-214.5 -36.5z
M403 461q0 -71 47.5 -117.5t120.5 -46.5q80 0 138.5 57.5t58.5 145.5q0 73 -45.5 120.5t-116.5 47.5q-82 0 -142.5 -60.5t-60.5 -146.5z" />
    <glyph glyph-name="ntilde" unicode="&#xf1;" horiz-adv-x="1167" 
d="M-18 0l217 1012h358l-22 -103q136 133 292 133q167 0 245 -130.5t30 -358.5l-119 -553h-369l117 543q15 74 -10 118t-86 44q-133 0 -168 -162l-117 -543h-368zM305 1114q20 164 104 253t199 89q56 0 118.5 -23.5t113.5 -47t80 -23.5q27 0 42.5 18.5t28.5 59.5h238
q-21 -164 -110 -253t-208 -89q-56 0 -114 22t-106 44t-79 22q-57 0 -69 -72h-238z" />
    <glyph glyph-name="ograve" unicode="&#xf2;" horiz-adv-x="1185" 
d="M537 -31q-212 0 -351 136t-139 341q0 157 76.5 293t216.5 219.5t311 83.5q212 0 351 -136t139 -341q0 -157 -76.5 -293t-216.5 -219.5t-311 -83.5zM365 1452h399l108 -338h-307zM408 475q0 -74 44.5 -120t116.5 -46q88 0 149.5 65.5t61.5 162.5q0 73 -45 119t-117 46
q-88 0 -149 -65t-61 -162z" />
    <glyph glyph-name="oacute" unicode="&#xf3;" horiz-adv-x="1185" 
d="M537 -31q-212 0 -351 136t-139 341q0 157 76.5 293t216.5 219.5t311 83.5q212 0 351 -136t139 -341q0 -157 -76.5 -293t-216.5 -219.5t-311 -83.5zM408 475q0 -74 44.5 -120t116.5 -46q88 0 149.5 65.5t61.5 162.5q0 73 -45 119t-117 46q-88 0 -149 -65t-61 -162z
M553 1114l231 338h404l-303 -338h-332z" />
    <glyph glyph-name="ocircumflex" unicode="&#xf4;" horiz-adv-x="1185" 
d="M537 -31q-212 0 -351 136t-139 341q0 157 76.5 293t216.5 219.5t311 83.5q212 0 351 -136t139 -341q0 -157 -76.5 -293t-216.5 -219.5t-311 -83.5zM317 1114l279 338h399l135 -338h-309l-57 115l-107 -115h-340zM408 475q0 -74 44.5 -120t116.5 -46q88 0 149.5 65.5
t61.5 162.5q0 73 -45 119t-117 46q-88 0 -149 -65t-61 -162z" />
    <glyph glyph-name="otilde" unicode="&#xf5;" horiz-adv-x="1185" 
d="M537 -31q-212 0 -351 136t-139 341q0 157 76.5 293t216.5 219.5t311 83.5q212 0 351 -136t139 -341q0 -157 -76.5 -293t-216.5 -219.5t-311 -83.5zM297 1114q20 164 104 253t199 89q56 0 118 -23.5t113 -47t80 -23.5q27 0 43 19t29 59h238q-21 -164 -110 -253t-208 -89
q-56 0 -114 22t-106 44t-79 22q-57 0 -69 -72h-238zM408 475q0 -74 44.5 -120t116.5 -46q88 0 149.5 65.5t61.5 162.5q0 73 -45 119t-117 46q-88 0 -149 -65t-61 -162z" />
    <glyph glyph-name="odieresis" unicode="&#xf6;" horiz-adv-x="1185" 
d="M537 -31q-212 0 -351 136t-139 341q0 157 76.5 293t216.5 219.5t311 83.5q212 0 351 -136t139 -341q0 -157 -76.5 -293t-216.5 -219.5t-311 -83.5zM319 1114l68 318h352l-67 -318h-353zM408 475q0 -74 44.5 -120t116.5 -46q88 0 149.5 65.5t61.5 162.5q0 73 -45 119
t-117 46q-88 0 -149 -65t-61 -162zM778 1114l68 318h352l-68 -318h-352z" />
    <glyph glyph-name="divide" unicode="&#xf7;" horiz-adv-x="1269" 
d="M614 1305h379l-71 -336h-379zM102 532l72 338h1077l-71 -338h-1078zM356 92l72 338h379l-72 -338h-379z" />
    <glyph glyph-name="oslash" unicode="&#xf8;" horiz-adv-x="1185" 
d="M137 -119l-180 201l145 137q-55 101 -55 227q0 157 76.5 293t216.5 219.5t311 83.5q137 0 250 -61l156 149l182 -200l-149 -144q51 -102 51 -221q0 -157 -76.5 -293t-216.5 -219.5t-311 -83.5q-135 0 -246 60zM389 471v-10l273 258q-24 4 -41 4q-96 0 -164 -72t-68 -180z
M526 293q24 -4 41 -4q96 0 164 72t68 180v8z" />
    <glyph glyph-name="ugrave" unicode="&#xf9;" horiz-adv-x="1167" 
d="M1188 1012l-217 -1012h-359l23 102q-136 -133 -293 -133q-167 0 -244.5 131t-29.5 359l118 553h369l-117 -543q-15 -74 10.5 -118t86.5 -44q132 0 167 162l117 543h369zM352 1452h400l108 -338h-307z" />
    <glyph glyph-name="uacute" unicode="&#xfa;" horiz-adv-x="1167" 
d="M1188 1012l-217 -1012h-359l23 102q-136 -133 -293 -133q-167 0 -244.5 131t-29.5 359l118 553h369l-117 -543q-15 -74 10.5 -118t86.5 -44q132 0 167 162l117 543h369zM541 1114l231 338h404l-304 -338h-331z" />
    <glyph glyph-name="ucircumflex" unicode="&#xfb;" horiz-adv-x="1167" 
d="M1188 1012l-217 -1012h-359l23 102q-136 -133 -293 -133q-167 0 -244.5 131t-29.5 359l118 553h369l-117 -543q-15 -74 10.5 -118t86.5 -44q132 0 167 162l117 543h369zM305 1114l279 338h399l135 -338h-309l-57 115l-107 -115h-340z" />
    <glyph glyph-name="udieresis" unicode="&#xfc;" horiz-adv-x="1167" 
d="M1188 1012l-217 -1012h-359l23 102q-136 -133 -293 -133q-167 0 -244.5 131t-29.5 359l118 553h369l-117 -543q-15 -74 10.5 -118t86.5 -44q132 0 167 162l117 543h369zM307 1114l68 318h352l-68 -318h-352zM766 1114l68 318h352l-68 -318h-352z" />
    <glyph glyph-name="yacute" unicode="&#xfd;" horiz-adv-x="1114" 
d="M106 1012h373l70 -494l258 494h420l-860 -1397h-416l336 504zM518 1114l232 338h403l-303 -338h-332z" />
    <glyph glyph-name="thorn" unicode="&#xfe;" horiz-adv-x="1243" 
d="M-98 -385l385 1819h366l-104 -494q43 43 117.5 72.5t148.5 29.5q169 0 277 -124.5t108 -321.5q0 -120 -39 -232.5t-108 -200.5t-173 -141t-225 -53q-184 0 -286 113l-99 -467h-368zM457 477q0 -73 46.5 -119.5t119.5 -46.5q89 0 153 65t64 159q0 74 -46.5 119.5
t-121.5 45.5q-89 0 -152 -64.5t-63 -158.5z" />
    <glyph glyph-name="ydieresis" unicode="&#xff;" horiz-adv-x="1114" 
d="M106 1012h373l70 -494l258 494h420l-860 -1397h-416l336 504zM285 1114l67 318h353l-68 -318h-352zM743 1114l68 318h352l-67 -318h-353z" />
    <glyph glyph-name="Amacron" unicode="&#x100;" horiz-adv-x="1308" 
d="M-111 0l783 1434h360l172 -1434h-397l-14 186h-385l-89 -186h-430zM502 1518l55 268h735l-55 -268h-735zM551 549h223l-33 371z" />
    <glyph glyph-name="amacron" unicode="&#x101;" horiz-adv-x="1087" 
d="M315 -31q-140 0 -224.5 75.5t-84.5 197.5q0 97 45 173t123 122.5t177 70t214 23.5h103l4 18q9 41 -16.5 70t-69.5 29q-96 0 -125 -86h-367q40 183 177.5 281.5t351.5 98.5q102 0 186.5 -30t141.5 -84.5t79.5 -136.5t1.5 -179l-131 -612h-358l16 72q-96 -103 -244 -103z
M303 1114l62 287h735l-62 -287h-735zM371 301q0 -27 21 -43t57 -16q60 0 109.5 40t66.5 107l2 8h-105q-66 0 -108.5 -23.5t-42.5 -72.5z" />
    <glyph glyph-name="Abreve" unicode="&#x102;" horiz-adv-x="1308" 
d="M-111 0l783 1434h360l172 -1434h-397l-14 186h-385l-89 -186h-430zM551 549h223l-33 371zM555 1812h299q-12 -44 6 -71t55 -27q75 0 95 98h297q-31 -148 -137.5 -232.5t-260.5 -84.5q-178 0 -276 82.5t-78 234.5z" />
    <glyph glyph-name="abreve" unicode="&#x103;" horiz-adv-x="1087" 
d="M315 -31q-140 0 -224.5 75.5t-84.5 197.5q0 97 45 173t123 122.5t177 70t214 23.5h103l4 18q9 41 -16.5 70t-69.5 29q-96 0 -125 -86h-367q40 183 177.5 281.5t351.5 98.5q102 0 186.5 -30t141.5 -84.5t79.5 -136.5t1.5 -179l-131 -612h-358l16 72q-96 -103 -244 -103z
M371 301q0 -27 21 -43t57 -16q60 0 109.5 40t66.5 107l2 8h-105q-66 0 -108.5 -23.5t-42.5 -72.5zM377 1444h276q-13 -56 5 -87.5t59 -31.5q39 0 70.5 31.5t43.5 87.5h275q-35 -171 -139 -264t-260 -93q-107 0 -189.5 41t-123.5 124t-17 192z" />
    <glyph glyph-name="Aogonek" unicode="&#x104;" horiz-adv-x="1308" 
d="M-111 0l783 1434h360l172 -1434q-110 -63 -108 -129q0 -45 82 -45h28l-104 -270h-64q-112 0 -174.5 56.5t-62.5 151.5q0 139 108 236h-102l-14 186h-385l-89 -186h-430zM551 549h223l-33 371z" />
    <glyph glyph-name="aogonek" unicode="&#x105;" horiz-adv-x="1087" 
d="M315 -31q-140 0 -224.5 75.5t-84.5 197.5q0 97 45 173t123 122.5t177 70t214 23.5h103l4 18q9 41 -16.5 70t-69.5 29q-96 0 -125 -86h-367q40 183 177.5 281.5t351.5 98.5q102 0 186.5 -30t141.5 -84.5t79.5 -136.5t1.5 -179l-131 -612q-110 -63 -108 -129q0 -45 81 -45
h29l-104 -270h-64q-112 0 -174.5 56.5t-62.5 151.5q0 139 108 236h-63l16 72q-96 -103 -244 -103zM371 301q0 -27 21 -43t57 -16q60 0 109.5 40t66.5 107l2 8h-105q-66 0 -108.5 -23.5t-42.5 -72.5z" />
    <glyph glyph-name="Cacute" unicode="&#x106;" horiz-adv-x="1533" 
d="M786 -31q-209 0 -365.5 82.5t-238.5 228.5t-82 336q0 172 60.5 327.5t164.5 270.5t253.5 182.5t318.5 67.5q173 0 309.5 -49t217.5 -131t119 -184.5t28 -214.5h-424q-3 89 -77 150t-173 61q-119 0 -212 -64.5t-141 -166t-48 -218.5q0 -140 77.5 -224.5t212.5 -84.5
q117 0 192.5 66.5t98.5 156.5h430q-25 -174 -124.5 -309t-255 -209t-341.5 -74zM778 1518l219 282h418l-309 -282h-328z" />
    <glyph glyph-name="cacute" unicode="&#x107;" horiz-adv-x="1138" 
d="M530 -31q-131 0 -239.5 58t-175 169.5t-66.5 254.5q0 122 43.5 231t119 188.5t183.5 125.5t232 46q219 0 356.5 -128t122.5 -316h-365q-2 40 -38.5 71t-88.5 31q-97 0 -151.5 -66t-54.5 -157q0 -76 44.5 -121t106.5 -45q61 0 103 31.5t53 79.5h368q-26 -206 -177 -329.5
t-376 -123.5zM473 1114l232 338h403l-303 -338h-332z" />
    <glyph glyph-name="Ccircumflex" unicode="&#x108;" horiz-adv-x="1533" 
d="M786 -31q-209 0 -365.5 82.5t-238.5 228.5t-82 336q0 172 60.5 327.5t164.5 270.5t253.5 182.5t318.5 67.5q173 0 309.5 -49t217.5 -131t119 -184.5t28 -214.5h-424q-3 89 -77 150t-173 61q-119 0 -212 -64.5t-141 -166t-48 -218.5q0 -140 77.5 -224.5t212.5 -84.5
q117 0 192.5 66.5t98.5 156.5h430q-25 -174 -124.5 -309t-255 -209t-341.5 -74zM514 1518l291 307h405l172 -307h-358l-45 110l-94 -110h-371z" />
    <glyph glyph-name="ccircumflex" unicode="&#x109;" horiz-adv-x="1138" 
d="M530 -31q-131 0 -239.5 58t-175 169.5t-66.5 254.5q0 122 43.5 231t119 188.5t183.5 125.5t232 46q219 0 356.5 -128t122.5 -316h-365q-2 40 -38.5 71t-88.5 31q-97 0 -151.5 -66t-54.5 -157q0 -76 44.5 -121t106.5 -45q61 0 103 31.5t53 79.5h368q-26 -206 -177 -329.5
t-376 -123.5zM238 1114l278 338h399l136 -338h-310l-57 115l-106 -115h-340z" />
    <glyph glyph-name="Cdotaccent" unicode="&#x10a;" horiz-adv-x="1533" 
d="M786 -31q-209 0 -365.5 82.5t-238.5 228.5t-82 336q0 172 60.5 327.5t164.5 270.5t253.5 182.5t318.5 67.5q173 0 309.5 -49t217.5 -131t119 -184.5t28 -214.5h-424q-3 89 -77 150t-173 61q-119 0 -212 -64.5t-141 -166t-48 -218.5q0 -140 77.5 -224.5t212.5 -84.5
q117 0 192.5 66.5t98.5 156.5h430q-25 -174 -124.5 -309t-255 -209t-341.5 -74zM752 1518l65 307h393l-65 -307h-393z" />
    <glyph glyph-name="cdotaccent" unicode="&#x10b;" horiz-adv-x="1138" 
d="M530 -31q-131 0 -239.5 58t-175 169.5t-66.5 254.5q0 122 43.5 231t119 188.5t183.5 125.5t232 46q219 0 356.5 -128t122.5 -316h-365q-2 40 -38.5 71t-88.5 31q-97 0 -151.5 -66t-54.5 -157q0 -76 44.5 -121t106.5 -45q61 0 103 31.5t53 79.5h368q-26 -206 -177 -329.5
t-376 -123.5zM459 1114l67 318h373l-68 -318h-372z" />
    <glyph glyph-name="Ccaron" unicode="&#x10c;" horiz-adv-x="1533" 
d="M786 -31q-209 0 -365.5 82.5t-238.5 228.5t-82 336q0 172 60.5 327.5t164.5 270.5t253.5 182.5t318.5 67.5q173 0 309.5 -49t217.5 -131t119 -184.5t28 -214.5h-424q-3 89 -77 150t-173 61q-119 0 -212 -64.5t-141 -166t-48 -218.5q0 -140 77.5 -224.5t212.5 -84.5
q117 0 192.5 66.5t98.5 156.5h430q-25 -174 -124.5 -309t-255 -209t-341.5 -74zM582 1821h360l49 -105l96 105h361l-295 -303h-408z" />
    <glyph glyph-name="ccaron" unicode="&#x10d;" horiz-adv-x="1138" 
d="M530 -31q-131 0 -239.5 58t-175 169.5t-66.5 254.5q0 122 43.5 231t119 188.5t183.5 125.5t232 46q219 0 356.5 -128t122.5 -316h-365q-2 40 -38.5 71t-88.5 31q-97 0 -151.5 -66t-54.5 -157q0 -76 44.5 -121t106.5 -45q61 0 103 31.5t53 79.5h368q-26 -206 -177 -329.5
t-376 -123.5zM309 1452h309l58 -117l106 117h340l-278 -338h-400z" />
    <glyph glyph-name="Dcaron" unicode="&#x10e;" horiz-adv-x="1417" 
d="M780 1434q150 0 270.5 -45t199.5 -124.5t121 -188t42 -236.5q0 -226 -104 -418t-292 -307t-419 -115h-598l305 1434h475zM469 369h156q81 0 156.5 39.5t127 102.5t82.5 141t31 155q0 113 -67.5 185.5t-182.5 72.5h-156zM469 1821h360l50 -105l96 105h360l-295 -303h-407z
" />
    <glyph glyph-name="dcaron" unicode="&#x10f;" horiz-adv-x="1306" 
d="M451 -31q-182 0 -294 124.5t-112 324.5q0 122 39.5 234.5t110 199t177 138.5t232.5 52q89 0 164.5 -32.5t108.5 -87.5l108 512h369l-305 -1434h-357l21 98q-38 -56 -112.5 -92.5t-149.5 -36.5zM406 477q0 -74 46 -120t121 -46q89 0 152 65t63 159q0 73 -46 119t-119 46
q-89 0 -153 -64.5t-64 -158.5zM1360 1094l129 442h356l-192 -442h-293z" />
    <glyph glyph-name="Dcroat" unicode="&#x110;" horiz-adv-x="1492" 
d="M70 547l80 368h120l111 519h475q150 0 270.5 -45t199.5 -124.5t121 -188t42 -236.5q0 -226 -104 -418t-292 -307t-419 -115h-598l117 547h-123zM545 369h155q108 0 201.5 67t145 167.5t51.5 203.5q0 113 -67.5 185.5t-182.5 72.5h-156l-35 -160h306l-74 -348h-305z" />
    <glyph glyph-name="dcroat" unicode="&#x111;" horiz-adv-x="1245" 
d="M647 1130l49 226h273l16 78h369l-17 -78h101l-49 -226h-101l-239 -1130h-357l21 98q-38 -56 -112.5 -92.5t-149.5 -36.5q-182 0 -294 124.5t-112 324.5q0 122 39.5 234.5t110 199t177 138.5t232.5 52q89 0 164.5 -32.5t108.5 -87.5l45 208h-275zM406 477q0 -74 46 -120
t121 -46q89 0 152 65t63 159q0 73 -46 119t-119 46q-89 0 -153 -64.5t-64 -158.5z" />
    <glyph glyph-name="Emacron" unicode="&#x112;" horiz-adv-x="1007" 
d="M305 1434h817l-78 -369h-428l-34 -166h372l-75 -354h-373l-37 -176h428l-80 -369h-817zM365 1518l55 268h735l-55 -268h-735z" />
    <glyph glyph-name="emacron" unicode="&#x113;" horiz-adv-x="1140" 
d="M510 -31q-205 0 -336 124t-131 331q0 169 77.5 310.5t215 224.5t305.5 83q109 0 204 -40t159 -108t91 -165t5 -205q-7 -34 -33 -114h-680q6 -67 47.5 -104.5t104.5 -37.5q47 0 85 17t58 49h360q-56 -170 -197.5 -267.5t-334.5 -97.5zM295 1114l61 287h736l-62 -287h-735z
M442 643h310q3 47 -30.5 80t-96.5 33q-113 0 -183 -113z" />
    <glyph glyph-name="Ebreve" unicode="&#x114;" horiz-adv-x="1007" 
d="M305 1434h817l-78 -369h-428l-34 -166h372l-75 -354h-373l-37 -176h428l-80 -369h-817zM418 1812h299q-12 -44 6 -71t55 -27q74 0 94 98h297q-31 -148 -137 -232.5t-260 -84.5q-178 0 -276 82.5t-78 234.5z" />
    <glyph glyph-name="ebreve" unicode="&#x115;" horiz-adv-x="1140" 
d="M510 -31q-205 0 -336 124t-131 331q0 169 77.5 310.5t215 224.5t305.5 83q109 0 204 -40t159 -108t91 -165t5 -205q-7 -34 -33 -114h-680q6 -67 47.5 -104.5t104.5 -37.5q47 0 85 17t58 49h360q-56 -170 -197.5 -267.5t-334.5 -97.5zM369 1444h276q-13 -56 5 -87.5
t59 -31.5q39 0 70.5 31.5t43.5 87.5h275q-35 -171 -139.5 -264t-260.5 -93q-107 0 -189 41t-123 124t-17 192zM442 643h310q3 47 -30.5 80t-96.5 33q-113 0 -183 -113z" />
    <glyph glyph-name="Edotaccent" unicode="&#x116;" horiz-adv-x="1007" 
d="M305 1434h817l-78 -369h-428l-34 -166h372l-75 -354h-373l-37 -176h428l-80 -369h-817zM532 1518l66 307h393l-65 -307h-394z" />
    <glyph glyph-name="edotaccent" unicode="&#x117;" horiz-adv-x="1140" 
d="M510 -31q-205 0 -336 124t-131 331q0 169 77.5 310.5t215 224.5t305.5 83q109 0 204 -40t159 -108t91 -165t5 -205q-7 -34 -33 -114h-680q6 -67 47.5 -104.5t104.5 -37.5q47 0 85 17t58 49h360q-56 -170 -197.5 -267.5t-334.5 -97.5zM442 643h310q3 47 -30.5 80t-96.5 33
q-113 0 -183 -113zM477 1114l68 318h373l-68 -318h-373z" />
    <glyph glyph-name="Eogonek" unicode="&#x118;" horiz-adv-x="1007" 
d="M305 1434h817l-78 -369h-428l-34 -166h372l-75 -354h-373l-37 -176h428l-80 -369q-110 -63 -108 -129q0 -45 82 -45h28l-104 -270h-64q-112 0 -174.5 56.5t-62.5 151.5q0 139 108 236h-522z" />
    <glyph glyph-name="eogonek" unicode="&#x119;" horiz-adv-x="1140" 
d="M541 -444q-112 0 -175 56.5t-63 151.5q0 123 88 218q-158 33 -253 150t-95 292q0 169 77.5 310.5t215 224.5t305.5 83q109 0 204 -40t159 -108t91 -165t5 -205q-7 -34 -33 -114h-680q6 -67 47.5 -104.5t104.5 -37.5q47 0 85 17t58 49h360q-39 -125 -127.5 -211
t-212.5 -125q-107 -61 -104 -127q0 -45 82 -45h29l-105 -270h-63zM442 643h310q3 47 -30.5 80t-96.5 33q-113 0 -183 -113z" />
    <glyph glyph-name="Ecaron" unicode="&#x11a;" horiz-adv-x="1007" 
d="M305 1434h817l-78 -369h-428l-34 -166h372l-75 -354h-373l-37 -176h428l-80 -369h-817zM362 1821h361l49 -105l96 105h361l-295 -303h-408z" />
    <glyph glyph-name="ecaron" unicode="&#x11b;" horiz-adv-x="1140" 
d="M510 -31q-205 0 -336 124t-131 331q0 169 77.5 310.5t215 224.5t305.5 83q109 0 204 -40t159 -108t91 -165t5 -205q-7 -34 -33 -114h-680q6 -67 47.5 -104.5t104.5 -37.5q47 0 85 17t58 49h360q-56 -170 -197.5 -267.5t-334.5 -97.5zM328 1452h309l57 -117l107 117h340
l-279 -338h-399zM442 643h310q3 47 -30.5 80t-96.5 33q-113 0 -183 -113z" />
    <glyph glyph-name="Gcircumflex" unicode="&#x11c;" horiz-adv-x="1564" 
d="M770 -31q-195 0 -350 86.5t-239.5 234t-84.5 326.5q0 122 36 243.5t108 230.5t171 192.5t234.5 132.5t288.5 49q129 0 236 -27.5t180.5 -75.5t124.5 -113.5t75 -140t25 -157.5h-438q-13 76 -76.5 115t-163.5 39t-180 -45t-126.5 -116t-70.5 -150t-24 -156q0 -141 81 -224
t226 -83q117 0 200 53.5t107 140.5l-377 -18l76 354h747q-3 -115 -32 -254q-60 -299 -258 -468t-496 -169zM514 1518l291 307h405l172 -307h-358l-45 110l-94 -110h-371z" />
    <glyph glyph-name="gcircumflex" unicode="&#x11d;" horiz-adv-x="1210" 
d="M315 -385q-195 0 -282.5 98.5t-65.5 270.5l2 16h361l-2 -12q-4 -28 16 -45t53 -17h148q50 0 73.5 23.5t34.5 75.5l19 84q-100 -56 -207 -56q-175 0 -290.5 125.5t-115.5 319.5q0 116 42 218t112.5 173t165.5 112t199 41q80 0 157.5 -30.5t112.5 -77.5l16 78h369
l-225 -1057q-34 -159 -146 -249.5t-313 -90.5h-234zM309 1114l279 338h399l135 -338h-309l-57 115l-107 -115h-340zM428 514q0 -69 42.5 -113.5t109.5 -44.5q86 0 146 62t60 155q0 70 -42.5 114t-110.5 44q-84 0 -144.5 -62.5t-60.5 -154.5z" />
    <glyph glyph-name="Gbreve" unicode="&#x11e;" horiz-adv-x="1564" 
d="M770 -31q-195 0 -350 86.5t-239.5 234t-84.5 326.5q0 122 36 243.5t108 230.5t171 192.5t234.5 132.5t288.5 49q129 0 236 -27.5t180.5 -75.5t124.5 -113.5t75 -140t25 -157.5h-438q-13 76 -76.5 115t-163.5 39t-180 -45t-126.5 -116t-70.5 -150t-24 -156q0 -141 81 -224
t226 -83q117 0 200 53.5t107 140.5l-377 -18l76 354h747q-3 -115 -32 -254q-60 -299 -258 -468t-496 -169zM637 1812h299q-12 -44 6 -71t55 -27q75 0 95 98h297q-31 -148 -137.5 -232.5t-260.5 -84.5q-178 0 -276 82.5t-78 234.5z" />
    <glyph glyph-name="gbreve" unicode="&#x11f;" horiz-adv-x="1210" 
d="M315 -385q-195 0 -282.5 98.5t-65.5 270.5l2 16h361l-2 -12q-4 -28 16 -45t53 -17h148q50 0 73.5 23.5t34.5 75.5l19 84q-100 -56 -207 -56q-175 0 -290.5 125.5t-115.5 319.5q0 116 42 218t112.5 173t165.5 112t199 41q80 0 157.5 -30.5t112.5 -77.5l16 78h369
l-225 -1057q-34 -159 -146 -249.5t-313 -90.5h-234zM422 1444h276q-13 -56 5 -87.5t59 -31.5q39 0 71 31.5t44 87.5h274q-35 -171 -139 -264t-260 -93q-107 0 -189.5 41t-123.5 124t-17 192zM428 514q0 -69 42.5 -113.5t109.5 -44.5q86 0 146 62t60 155q0 70 -42.5 114
t-110.5 44q-84 0 -144.5 -62.5t-60.5 -154.5z" />
    <glyph glyph-name="Gdotaccent" unicode="&#x120;" horiz-adv-x="1564" 
d="M770 -31q-195 0 -350 86.5t-239.5 234t-84.5 326.5q0 122 36 243.5t108 230.5t171 192.5t234.5 132.5t288.5 49q129 0 236 -27.5t180.5 -75.5t124.5 -113.5t75 -140t25 -157.5h-438q-13 76 -76.5 115t-163.5 39t-180 -45t-126.5 -116t-70.5 -150t-24 -156q0 -141 81 -224
t226 -83q117 0 200 53.5t107 140.5l-377 -18l76 354h747q-3 -115 -32 -254q-60 -299 -258 -468t-496 -169zM752 1518l65 307h393l-65 -307h-393z" />
    <glyph glyph-name="gdotaccent" unicode="&#x121;" horiz-adv-x="1210" 
d="M315 -385q-195 0 -282.5 98.5t-65.5 270.5l2 16h361l-2 -12q-4 -28 16 -45t53 -17h148q50 0 73.5 23.5t34.5 75.5l19 84q-100 -56 -207 -56q-175 0 -290.5 125.5t-115.5 319.5q0 116 42 218t112.5 173t165.5 112t199 41q80 0 157.5 -30.5t112.5 -77.5l16 78h369
l-225 -1057q-34 -159 -146 -249.5t-313 -90.5h-234zM428 514q0 -69 42.5 -113.5t109.5 -44.5q86 0 146 62t60 155q0 70 -42.5 114t-110.5 44q-84 0 -144.5 -62.5t-60.5 -154.5zM530 1114l68 318h373l-68 -318h-373z" />
    <glyph glyph-name="uni0122" unicode="&#x122;" horiz-adv-x="1564" 
d="M770 -31q-195 0 -350 86.5t-239.5 234t-84.5 326.5q0 122 36 243.5t108 230.5t171 192.5t234.5 132.5t288.5 49q129 0 236 -27.5t180.5 -75.5t124.5 -113.5t75 -140t25 -157.5h-438q-13 76 -76.5 115t-163.5 39t-180 -45t-126.5 -116t-70.5 -150t-24 -156q0 -141 81 -224
t226 -83q117 0 200 53.5t107 140.5l-377 -18l76 354h747q-3 -115 -32 -254q-60 -299 -258 -468t-496 -169zM287 -385l241 293h387l-294 -293h-334z" />
    <glyph glyph-name="uni0123" unicode="&#x123;" horiz-adv-x="1210" 
d="M315 -385q-195 0 -282.5 98.5t-65.5 270.5l2 16h361l-2 -12q-4 -28 16 -45t53 -17h148q50 0 73.5 23.5t34.5 75.5l19 84q-100 -56 -207 -56q-175 0 -290.5 125.5t-115.5 319.5q0 116 42 218t112.5 173t165.5 112t199 41q80 0 157.5 -30.5t112.5 -77.5l16 78h369
l-225 -1057q-34 -159 -146 -249.5t-313 -90.5h-234zM428 514q0 -69 42.5 -113.5t109.5 -44.5q86 0 146 62t60 155q0 70 -42.5 114t-110.5 44q-84 0 -144.5 -62.5t-60.5 -154.5zM487 1114l324 338h344l-252 -338h-416z" />
    <glyph glyph-name="Hcircumflex" unicode="&#x124;" horiz-adv-x="1337" 
d="M0 0l305 1434h389l-110 -521h344l110 521h389l-305 -1434h-389l117 545h-344l-117 -545h-389zM446 1518l291 307h406l172 -307h-359l-45 110l-94 -110h-371z" />
    <glyph glyph-name="hcircumflex" unicode="&#x125;" horiz-adv-x="1169" 
d="M-16 0l305 1434h358l-110 -519q133 127 292 127q167 0 246 -131t29 -358l-119 -553h-369l121 561q12 62 -14.5 103t-85.5 41q-62 0 -106 -40.5t-62 -121.5l-117 -543h-368zM41 1518l291 307h405l172 -307h-358l-45 110l-94 -110h-371z" />
    <glyph glyph-name="Hbar" unicode="&#x126;" horiz-adv-x="1439" 
d="M51 0l213 999h-108l67 314h107l26 121h389l-26 -121h344l27 121h389l-27 -121h111l-68 -314h-109l-212 -999h-390l109 506h-344l-109 -506h-389zM627 877h344l26 122h-344z" />
    <glyph glyph-name="hbar" unicode="&#x127;" horiz-adv-x="1169" 
d="M121 1130l49 226h102l17 78h358l-16 -78h280l-49 -226h-278l-47 -215q133 127 292 127q167 0 246 -131t29 -358l-119 -553h-369l121 561q12 62 -14.5 103t-85.5 41q-62 0 -106 -40.5t-62 -121.5l-117 -543h-368l239 1130h-102z" />
    <glyph glyph-name="Itilde" unicode="&#x128;" horiz-adv-x="604" 
d="M305 1434h389l-305 -1434h-389zM68 1518q65 329 333 329q67 0 130.5 -20.5t107.5 -41t63 -20.5q30 0 44.5 14t21.5 52h262q-62 -330 -346 -330q-66 0 -126 19.5t-102 39t-63 19.5q-54 0 -63 -61h-262z" />
    <glyph glyph-name="itilde" unicode="&#x129;" horiz-adv-x="546" 
d="M199 1012h368l-217 -1012h-368zM-23 1114q20 164 104.5 253t199.5 89q56 0 118 -23.5t113 -47t80 -23.5q27 0 43 19t29 59h237q-21 -165 -109.5 -253.5t-207.5 -88.5q-56 0 -114 22t-106 44t-79 22q-58 0 -70 -72h-238z" />
    <glyph glyph-name="Imacron" unicode="&#x12a;" horiz-adv-x="604" 
d="M305 1434h389l-305 -1434h-389zM150 1518l55 268h735l-55 -268h-735z" />
    <glyph glyph-name="imacron" unicode="&#x12b;" horiz-adv-x="546" 
d="M199 1012h368l-217 -1012h-368zM37 1114l61 287h736l-62 -287h-735z" />
    <glyph glyph-name="Ibreve" unicode="&#x12c;" horiz-adv-x="604" 
d="M305 1434h389l-305 -1434h-389zM203 1812h299q-12 -44 6 -71t55 -27q74 0 94 98h297q-31 -148 -137 -232.5t-260 -84.5q-178 0 -276 82.5t-78 234.5z" />
    <glyph glyph-name="ibreve" unicode="&#x12d;" horiz-adv-x="546" 
d="M199 1012h368l-217 -1012h-368zM111 1444h276q-13 -56 5 -87.5t59 -31.5q39 0 70.5 31.5t43.5 87.5h275q-35 -171 -139.5 -264t-260.5 -93q-107 0 -189 41t-123 124t-17 192z" />
    <glyph glyph-name="Iogonek" unicode="&#x12e;" horiz-adv-x="604" 
d="M305 1434h389l-305 -1434q-110 -63 -108 -129q0 -45 81 -45h29l-104 -270h-64q-112 0 -174.5 56.5t-62.5 151.5q0 139 108 236h-94z" />
    <glyph glyph-name="iogonek" unicode="&#x12f;" horiz-adv-x="546" 
d="M199 1012h368l-217 -1012q-110 -63 -108 -129q0 -45 82 -45h28l-104 -270h-64q-112 0 -174.5 56.5t-62.5 151.5q0 139 108 236h-73zM219 1114l68 318h372l-67 -318h-373z" />
    <glyph glyph-name="Idotaccent" unicode="&#x130;" horiz-adv-x="604" 
d="M305 1434h389l-305 -1434h-389zM317 1518l66 307h393l-65 -307h-394z" />
    <glyph glyph-name="dotlessi" unicode="&#x131;" horiz-adv-x="546" 
d="M199 1012h368l-217 -1012h-368z" />
    <glyph glyph-name="IJ" unicode="&#x132;" horiz-adv-x="1310" 
d="M305 1434h389l-305 -1434h-389zM506 0l80 369h59q74 0 117 30t61 111l197 924h389l-215 -1010q-44 -205 -175 -314.5t-331 -109.5h-182z" />
    <glyph glyph-name="ij" unicode="&#x133;" horiz-adv-x="1073" 
d="M199 1012h368l-217 -1012h-368zM219 1114l68 318h372l-67 -318h-373zM289 -385l69 330h60q79 0 94 82l211 985h369l-224 -1045q-15 -69 -35 -121t-42.5 -89.5t-54.5 -63t-64 -41t-79 -24t-90 -11t-106 -2.5h-108zM743 1114l68 318h373l-68 -318h-373z" />
    <glyph glyph-name="Jcircumflex" unicode="&#x134;" horiz-adv-x="749" 
d="M84 369q74 0 117 30t61 111l197 924h389l-215 -1010q-44 -205 -175 -314.5t-331 -109.5h-182l80 369h59zM242 1518l290 307h406l172 -307h-358l-45 110l-95 -110h-370z" />
    <glyph glyph-name="jcircumflex" unicode="&#x135;" horiz-adv-x="548" 
d="M-106 -55q79 0 94 82l211 985h368l-223 -1045q-15 -69 -35 -121t-42.5 -89.5t-54.5 -63t-64 -41t-79 -24t-90 -11t-106 -2.5h-109l70 330h60zM-2 1114l278 338h400l135 -338h-309l-58 115l-106 -115h-340z" />
    <glyph glyph-name="uni0136" unicode="&#x136;" horiz-adv-x="1249" 
d="M729 0l-201 653l-139 -653h-389l305 1434h389l-123 -574l437 574h442l-555 -689l268 -745h-434zM76 -385l241 293h388l-295 -293h-334z" />
    <glyph glyph-name="uni0137" unicode="&#x137;" horiz-adv-x="1167" 
d="M-16 0l305 1434h368l-163 -775l321 353h463l-463 -484l289 -528h-432l-217 473l-103 -473h-368zM27 -385l241 293h387l-295 -293h-333z" />
    <glyph glyph-name="kgreenlandic" unicode="&#x138;" horiz-adv-x="1165" 
d="M-18 0l217 1012h368l-75 -353l321 353h463l-463 -484l289 -528h-432l-217 473l-103 -473h-368z" />
    <glyph glyph-name="Lacute" unicode="&#x139;" horiz-adv-x="958" 
d="M305 1434h389l-225 -1065h428l-80 -369h-817zM330 1518l219 282h418l-310 -282h-327z" />
    <glyph glyph-name="lacute" unicode="&#x13a;" horiz-adv-x="548" 
d="M657 1434l-305 -1434h-368l305 1434h368zM322 1518l219 282h417l-309 -282h-327z" />
    <glyph glyph-name="uni013B" unicode="&#x13b;" horiz-adv-x="958" 
d="M305 1434h389l-225 -1065h428l-80 -369h-817zM-82 -385l242 293h387l-295 -293h-334z" />
    <glyph glyph-name="uni013C" unicode="&#x13c;" horiz-adv-x="548" 
d="M657 1434l-305 -1434h-368l305 1434h368zM-303 -385l242 293h387l-295 -293h-334z" />
    <glyph glyph-name="Lcaron" unicode="&#x13d;" horiz-adv-x="978" 
d="M305 1434h389l-225 -1065h428l-80 -369h-817zM711 1094l129 442h356l-192 -442h-293z" />
    <glyph glyph-name="lcaron" unicode="&#x13e;" horiz-adv-x="610" 
d="M657 1434l-305 -1434h-368l305 1434h368zM664 1094l129 442h356l-193 -442h-292z" />
    <glyph glyph-name="Ldot" unicode="&#x13f;" horiz-adv-x="1042" 
d="M305 1434h389l-225 -1065h428l-80 -369h-817zM637 561l78 365h379l-78 -365h-379z" />
    <glyph glyph-name="ldot" unicode="&#x140;" horiz-adv-x="968" 
d="M657 1434l-305 -1434h-368l305 1434h368zM582 561l77 365h379l-77 -365h-379z" />
    <glyph glyph-name="Lslash" unicode="&#x141;" horiz-adv-x="1030" 
d="M889 727l-293 -88l-57 -270h428l-80 -369h-817l110 516l-123 -37l74 355l123 36l121 564h389l-92 -441l289 86z" />
    <glyph glyph-name="lslash" unicode="&#x142;" horiz-adv-x="749" 
d="M41 446l72 342l151 58l125 588h369l-92 -435l151 58l-72 -336l-151 -59l-141 -662h-369l106 506z" />
    <glyph glyph-name="Nacute" unicode="&#x143;" horiz-adv-x="1269" 
d="M745 1192q26 -104 52 -220t39 -180l12 -65q33 231 82 469l51 238h379l-305 -1434h-344l-80 313q-26 105 -52 221t-39 180l-12 64q-33 -231 -84 -469l-65 -309h-379l305 1434h381zM678 1518l219 282h418l-309 -282h-328z" />
    <glyph glyph-name="nacute" unicode="&#x144;" horiz-adv-x="1167" 
d="M-18 0l217 1012h358l-22 -103q136 133 292 133q167 0 245 -130.5t30 -358.5l-119 -553h-369l117 543q15 74 -10 118t-86 44q-133 0 -168 -162l-117 -543h-368zM547 1114l231 338h404l-303 -338h-332z" />
    <glyph glyph-name="uni0145" unicode="&#x145;" horiz-adv-x="1269" 
d="M745 1192q26 -104 52 -220t39 -180l12 -65q33 231 82 469l51 238h379l-305 -1434h-344l-80 313q-26 105 -52 221t-39 180l-12 64q-33 -231 -84 -469l-65 -309h-379l305 1434h381zM57 -385l242 293h387l-295 -293h-334z" />
    <glyph glyph-name="uni0146" unicode="&#x146;" horiz-adv-x="1167" 
d="M-18 0l217 1012h358l-22 -103q136 133 292 133q167 0 245 -130.5t30 -358.5l-119 -553h-369l117 543q15 74 -10 118t-86 44q-133 0 -168 -162l-117 -543h-368zM8 -385l242 293h387l-295 -293h-334z" />
    <glyph glyph-name="Ncaron" unicode="&#x147;" horiz-adv-x="1269" 
d="M745 1192q26 -104 52 -220t39 -180l12 -65q33 231 82 469l51 238h379l-305 -1434h-344l-80 313q-26 105 -52 221t-39 180l-12 64q-33 -231 -84 -469l-65 -309h-379l305 1434h381zM481 1821h361l49 -105l96 105h361l-295 -303h-408z" />
    <glyph glyph-name="ncaron" unicode="&#x148;" horiz-adv-x="1167" 
d="M-18 0l217 1012h358l-22 -103q136 133 292 133q167 0 245 -130.5t30 -358.5l-119 -553h-369l117 543q15 74 -10 118t-86 44q-133 0 -168 -162l-117 -543h-368zM383 1452h309l58 -117l106 117h340l-278 -338h-400z" />
    <glyph glyph-name="napostrophe" unicode="&#x149;" horiz-adv-x="1167" 
d="M20 1374l64 293h379l-66 -303q-19 -88 -54.5 -146t-91.5 -89.5t-123.5 -44t-162.5 -11.5l37 178q80 -1 112 23t44 74l6 26h-144zM-18 0l217 1012h358l-22 -103q136 133 292 133q167 0 245 -130.5t30 -358.5l-119 -553h-369l117 543q15 74 -10 118t-86 44
q-133 0 -168 -162l-117 -543h-368z" />
    <glyph glyph-name="Eng" unicode="&#x14a;" horiz-adv-x="1269" 
d="M537 -57q67 0 101.5 19t59.5 81l-67 270q-26 104 -52 220t-39 181l-12 64q-33 -231 -84 -469l-65 -309h-379l305 1434h381l59 -242q26 -104 52 -220t39 -180l12 -65q33 231 82 469l51 238h379l-305 -1436q-45 -215 -162.5 -299t-353.5 -84h-162l69 328h91z" />
    <glyph glyph-name="eng" unicode="&#x14b;" horiz-adv-x="1167" 
d="M397 -385l66 309h59q75 0 94 82l115 537q15 74 -10.5 118t-85.5 44q-133 0 -168 -162l-117 -543h-368l217 1012h358l-22 -103q136 133 292 133q167 0 245 -130.5t30 -358.5l-125 -588q-23 -109 -62 -179t-99 -107t-128.5 -50.5t-169.5 -13.5h-121z" />
    <glyph glyph-name="Omacron" unicode="&#x14c;" horiz-adv-x="1628" 
d="M766 -31q-143 0 -268 50t-213 136t-138.5 205.5t-50.5 255.5q0 130 40.5 256t117 232t180 187t238 127t282.5 46q190 0 343.5 -85.5t239 -235.5t85.5 -334q0 -164 -64.5 -317t-176 -268.5t-272.5 -185t-343 -69.5zM500 653q0 -137 85.5 -226t219.5 -89q165 0 289.5 128.5
t124.5 307.5q0 139 -86 230.5t-220 91.5q-165 0 -289 -131.5t-124 -311.5zM606 1518l56 268h735l-56 -268h-735z" />
    <glyph glyph-name="omacron" unicode="&#x14d;" horiz-adv-x="1185" 
d="M537 -31q-212 0 -351 136t-139 341q0 157 76.5 293t216.5 219.5t311 83.5q212 0 351 -136t139 -341q0 -157 -76.5 -293t-216.5 -219.5t-311 -83.5zM356 1114l62 287h735l-61 -287h-736zM408 475q0 -74 44.5 -120t116.5 -46q88 0 149.5 65.5t61.5 162.5q0 73 -45 119
t-117 46q-88 0 -149 -65t-61 -162z" />
    <glyph glyph-name="Obreve" unicode="&#x14e;" horiz-adv-x="1628" 
d="M766 -31q-143 0 -268 50t-213 136t-138.5 205.5t-50.5 255.5q0 130 40.5 256t117 232t180 187t238 127t282.5 46q190 0 343.5 -85.5t239 -235.5t85.5 -334q0 -164 -64.5 -317t-176 -268.5t-272.5 -185t-343 -69.5zM500 653q0 -137 85.5 -226t219.5 -89q165 0 289.5 128.5
t124.5 307.5q0 139 -86 230.5t-220 91.5q-165 0 -289 -131.5t-124 -311.5zM659 1812h299q-12 -44 6.5 -71t55.5 -27q74 0 94 98h297q-31 -148 -137 -232.5t-260 -84.5q-178 0 -276.5 82.5t-78.5 234.5z" />
    <glyph glyph-name="obreve" unicode="&#x14f;" horiz-adv-x="1185" 
d="M537 -31q-212 0 -351 136t-139 341q0 157 76.5 293t216.5 219.5t311 83.5q212 0 351 -136t139 -341q0 -157 -76.5 -293t-216.5 -219.5t-311 -83.5zM408 475q0 -74 44.5 -120t116.5 -46q88 0 149.5 65.5t61.5 162.5q0 73 -45 119t-117 46q-88 0 -149 -65t-61 -162z
M430 1444h277q-13 -56 4.5 -87.5t58.5 -31.5q39 0 71 31.5t44 87.5h274q-35 -171 -139 -264t-260 -93q-107 0 -189.5 41t-123.5 124t-17 192z" />
    <glyph glyph-name="Ohungarumlaut" unicode="&#x150;" horiz-adv-x="1628" 
d="M766 -31q-143 0 -268 50t-213 136t-138.5 205.5t-50.5 255.5q0 130 40.5 256t117 232t180 187t238 127t282.5 46q190 0 343.5 -85.5t239 -235.5t85.5 -334q0 -164 -64.5 -317t-176 -268.5t-272.5 -185t-343 -69.5zM500 653q0 -137 85.5 -226t219.5 -89q165 0 289.5 128.5
t124.5 307.5q0 139 -86 230.5t-220 91.5q-165 0 -289 -131.5t-124 -311.5zM580 1518l239 282h369l-258 -282h-350zM1059 1518l237 282h400l-312 -282h-325z" />
    <glyph glyph-name="ohungarumlaut" unicode="&#x151;" horiz-adv-x="1185" 
d="M537 -31q-212 0 -351 136t-139 341q0 157 76.5 293t216.5 219.5t311 83.5q212 0 351 -136t139 -341q0 -157 -76.5 -293t-216.5 -219.5t-311 -83.5zM352 1114h310l217 338h-338zM408 475q0 -74 44.5 -120t116.5 -46q88 0 149.5 65.5t61.5 162.5q0 73 -45 119t-117 46
q-88 0 -149 -65t-61 -162zM788 1114h306l268 338h-367z" />
    <glyph glyph-name="OE" unicode="&#x152;" horiz-adv-x="1720" 
d="M729 0h-16q-142 2 -259 48.5t-195.5 126t-121.5 188.5t-43 235q0 163 60 312.5t171 266.5t284 187t384 70h842l-78 -369h-428l-35 -166h373l-76 -354h-372l-37 -176h428l-80 -369h-801zM496 633q0 -120 64 -196.5t175 -76.5h53l154 713h-55q-109 0 -200 -64.5t-141 -165
t-50 -210.5z" />
    <glyph glyph-name="oe" unicode="&#x153;" horiz-adv-x="1853" 
d="M537 -31q-212 0 -351 136t-139 341q0 157 76.5 293t216.5 219.5t311 83.5q210 0 336 -139q152 139 367 139q197 0 333 -119t136 -302q0 -106 -43 -211h-680q6 -68 47 -105t104 -37q47 0 85.5 17t58.5 49h360q-56 -170 -197.5 -267.5t-334.5 -97.5q-208 0 -328 129
q-145 -129 -358 -129zM408 475q0 -74 44.5 -120t116.5 -46q88 0 149.5 65.5t61.5 162.5q0 73 -45 119t-117 46q-88 0 -149 -65t-61 -162zM1155 643h309q3 47 -30.5 80t-96.5 33q-112 0 -182 -113z" />
    <glyph glyph-name="Racute" unicode="&#x154;" horiz-adv-x="1179" 
d="M0 0l305 1434h451q204 0 330 -107.5t126 -277.5q0 -135 -60.5 -239t-170.5 -167q123 -123 80 -328l-68 -315h-387l66 309q13 61 -14.5 106.5t-96.5 45.5h-76l-98 -461h-387zM559 805h86q79 0 121.5 50t42.5 114q0 46 -29 73t-78 27h-88zM600 1518l219 282h418l-309 -282
h-328z" />
    <glyph glyph-name="racute" unicode="&#x155;" horiz-adv-x="806" 
d="M565 1012l-22 -101q119 101 245 101h99l-68 -318h-117q-94 0 -161.5 -55.5t-87.5 -149.5l-105 -489h-366l217 1012h366zM401 1114l232 338h403l-303 -338h-332z" />
    <glyph glyph-name="uni0156" unicode="&#x156;" horiz-adv-x="1179" 
d="M0 0l305 1434h451q204 0 330 -107.5t126 -277.5q0 -135 -60.5 -239t-170.5 -167q123 -123 80 -328l-68 -315h-387l66 309q13 61 -14.5 106.5t-96.5 45.5h-76l-98 -461h-387zM23 -385l241 293h387l-295 -293h-333zM559 805h86q79 0 121.5 50t42.5 114q0 46 -29 73t-78 27
h-88z" />
    <glyph glyph-name="uni0157" unicode="&#x157;" horiz-adv-x="806" 
d="M565 1012l-22 -101q119 101 245 101h99l-68 -318h-117q-94 0 -161.5 -55.5t-87.5 -149.5l-105 -489h-366l217 1012h366zM-379 -385l242 293h387l-295 -293h-334z" />
    <glyph glyph-name="Rcaron" unicode="&#x158;" horiz-adv-x="1179" 
d="M0 0l305 1434h451q204 0 330 -107.5t126 -277.5q0 -135 -60.5 -239t-170.5 -167q123 -123 80 -328l-68 -315h-387l66 309q13 61 -14.5 106.5t-96.5 45.5h-76l-98 -461h-387zM403 1821h361l49 -105l96 105h361l-295 -303h-408zM559 805h86q79 0 121.5 50t42.5 114
q0 46 -29 73t-78 27h-88z" />
    <glyph glyph-name="rcaron" unicode="&#x159;" horiz-adv-x="806" 
d="M565 1012l-22 -101q119 101 245 101h99l-68 -318h-117q-94 0 -161.5 -55.5t-87.5 -149.5l-105 -489h-366l217 1012h366zM238 1452h309l57 -117l107 117h340l-279 -338h-399z" />
    <glyph glyph-name="Sacute" unicode="&#x15a;" horiz-adv-x="1155" 
d="M547 -31q-157 0 -279.5 68t-180 187.5t-26.5 260.5h390q-13 -58 15.5 -103.5t98.5 -45.5q60 0 91.5 30t31.5 72q0 32 -28 55.5t-73 40.5t-99.5 35.5t-109 48.5t-99.5 71.5t-73 112t-28 163.5q0 225 144.5 362t367.5 137q246 0 376 -146.5t83 -371.5h-389q14 61 -7 105.5
t-83 44.5q-46 0 -76.5 -27.5t-30.5 -67.5q0 -32 29 -54.5t75 -39t101.5 -33.5t111 -45.5t101.5 -67.5t75 -106t29 -155q0 -160 -70 -281.5t-192 -185.5t-276 -64zM625 1518l219 282h418l-310 -282h-327z" />
    <glyph glyph-name="sacute" unicode="&#x15b;" horiz-adv-x="1005" 
d="M459 -31q-209 0 -334.5 100.5t-108.5 254.5h346q-2 -29 27.5 -50.5t81.5 -21.5q88 0 88 43q0 19 -25.5 33t-66.5 25t-90 24t-98.5 35.5t-90.5 53.5t-66.5 83.5t-25.5 120.5q0 175 127.5 273.5t315.5 98.5q208 0 328 -86t110 -251h-356q-5 29 -33.5 47t-71.5 18
q-34 0 -54 -11.5t-20 -31.5t26.5 -34t68 -24t92.5 -22t102 -33.5t92.5 -52t68 -84t26.5 -123.5q0 -126 -61.5 -214.5t-163 -129.5t-234.5 -41zM412 1114l231 338h404l-304 -338h-331z" />
    <glyph glyph-name="Scircumflex" unicode="&#x15c;" horiz-adv-x="1155" 
d="M547 -31q-157 0 -279.5 68t-180 187.5t-26.5 260.5h390q-13 -58 15.5 -103.5t98.5 -45.5q60 0 91.5 30t31.5 72q0 32 -28 55.5t-73 40.5t-99.5 35.5t-109 48.5t-99.5 71.5t-73 112t-28 163.5q0 225 144.5 362t367.5 137q246 0 376 -146.5t83 -371.5h-389q14 61 -7 105.5
t-83 44.5q-46 0 -76.5 -27.5t-30.5 -67.5q0 -32 29 -54.5t75 -39t101.5 -33.5t111 -45.5t101.5 -67.5t75 -106t29 -155q0 -160 -70 -281.5t-192 -185.5t-276 -64zM360 1518l291 307h406l172 -307h-359l-45 110l-94 -110h-371z" />
    <glyph glyph-name="scircumflex" unicode="&#x15d;" horiz-adv-x="1005" 
d="M459 -31q-209 0 -334.5 100.5t-108.5 254.5h346q-2 -29 27.5 -50.5t81.5 -21.5q88 0 88 43q0 19 -25.5 33t-66.5 25t-90 24t-98.5 35.5t-90.5 53.5t-66.5 83.5t-25.5 120.5q0 175 127.5 273.5t315.5 98.5q208 0 328 -86t110 -251h-356q-5 29 -33.5 47t-71.5 18
q-34 0 -54 -11.5t-20 -31.5t26.5 -34t68 -24t92.5 -22t102 -33.5t92.5 -52t68 -84t26.5 -123.5q0 -126 -61.5 -214.5t-163 -129.5t-234.5 -41zM176 1114l279 338h399l135 -338h-309l-57 115l-107 -115h-340z" />
    <glyph glyph-name="Scedilla" unicode="&#x15e;" horiz-adv-x="1155" 
d="M61 485h390q-13 -58 15.5 -103.5t98.5 -45.5q60 0 91.5 30t31.5 72q0 32 -28 55.5t-73 40.5t-99.5 35.5t-109 48.5t-99.5 71.5t-73 112t-28 163.5q0 225 144.5 362t367.5 137q246 0 376 -146.5t83 -371.5h-389q14 61 -7 105.5t-83 44.5q-46 0 -76.5 -27.5t-30.5 -67.5
q0 -32 29 -54.5t75 -39t101.5 -33.5t111 -45.5t101.5 -67.5t75 -106t29 -155q0 -216 -123.5 -356.5t-324.5 -168.5l-62 -84h5q72 0 117.5 -50t45.5 -128q0 -105 -72 -185.5t-192 -80.5h-221l37 168h166q36 0 61 20t25 50q0 21 -16.5 34t-45.5 13h-145l29 139l73 106
q-131 22 -227 93.5t-138.5 180.5t-15.5 234z" />
    <glyph glyph-name="scedilla" unicode="&#x15f;" horiz-adv-x="1005" 
d="M16 324h346q-2 -29 27.5 -50.5t81.5 -21.5q88 0 88 43q0 19 -25.5 33t-66.5 25t-90 24t-98.5 35.5t-90.5 53.5t-66.5 83.5t-25.5 120.5q0 175 127.5 273.5t315.5 98.5q208 0 328 -86t110 -251h-356q-5 29 -33.5 47t-71.5 18q-34 0 -54 -11.5t-20 -31.5t26.5 -34t68 -24
t92.5 -22t102 -33.5t92.5 -52t68 -84t26.5 -123.5q0 -164 -99 -261t-266 -118l-61 -84h4q72 0 117.5 -50t45.5 -128q0 -105 -72 -185.5t-192 -80.5h-221l37 168h166q36 0 61 20t25 50q0 21 -16.5 34t-45.5 13h-145l29 139l71 104q-167 25 -261 120.5t-79 228.5z" />
    <glyph glyph-name="Scaron" unicode="&#x160;" horiz-adv-x="1155" 
d="M547 -31q-157 0 -279.5 68t-180 187.5t-26.5 260.5h390q-13 -58 15.5 -103.5t98.5 -45.5q60 0 91.5 30t31.5 72q0 32 -28 55.5t-73 40.5t-99.5 35.5t-109 48.5t-99.5 71.5t-73 112t-28 163.5q0 225 144.5 362t367.5 137q246 0 376 -146.5t83 -371.5h-389q14 61 -7 105.5
t-83 44.5q-46 0 -76.5 -27.5t-30.5 -67.5q0 -32 29 -54.5t75 -39t101.5 -33.5t111 -45.5t101.5 -67.5t75 -106t29 -155q0 -160 -70 -281.5t-192 -185.5t-276 -64zM428 1821h360l50 -105l96 105h360l-295 -303h-407z" />
    <glyph glyph-name="scaron" unicode="&#x161;" horiz-adv-x="1005" 
d="M459 -31q-209 0 -334.5 100.5t-108.5 254.5h346q-2 -29 27.5 -50.5t81.5 -21.5q88 0 88 43q0 19 -25.5 33t-66.5 25t-90 24t-98.5 35.5t-90.5 53.5t-66.5 83.5t-25.5 120.5q0 175 127.5 273.5t315.5 98.5q208 0 328 -86t110 -251h-356q-5 29 -33.5 47t-71.5 18
q-34 0 -54 -11.5t-20 -31.5t26.5 -34t68 -24t92.5 -22t102 -33.5t92.5 -52t68 -84t26.5 -123.5q0 -126 -61.5 -214.5t-163 -129.5t-234.5 -41zM248 1452h309l57 -117l107 117h340l-279 -338h-399z" />
    <glyph glyph-name="uni0162" unicode="&#x162;" horiz-adv-x="1024" 
d="M154 1065l77 369h959l-78 -369h-285l-227 -1065h-70l-79 -109h4q72 0 117.5 -50t45.5 -128q0 -105 -72 -185.5t-192 -80.5h-221l37 168h166q36 0 61 20t25 50q0 21 -16.5 34t-45.5 13h-145l29 139l88 129h-121l227 1065h-284z" />
    <glyph glyph-name="uni0163" unicode="&#x163;" horiz-adv-x="849" 
d="M61 694l68 318h172l53 254h367l-53 -254h229l-68 -318h-229l-59 -274q-12 -57 4 -80t67 -23h136l-68 -317h-125l-80 -109h4q72 0 118 -50t46 -128q0 -105 -72 -185.5t-192 -80.5h-221l37 168h165q36 0 61 20t25 50q0 21 -16 34t-45 13h-145l28 139l99 145
q-124 33 -177.5 130.5t-21.5 244.5l65 303h-172z" />
    <glyph glyph-name="Tcaron" unicode="&#x164;" horiz-adv-x="1024" 
d="M154 1065l77 369h959l-78 -369h-285l-227 -1065h-389l227 1065h-284zM358 1821h361l49 -105l96 105h361l-295 -303h-408z" />
    <glyph glyph-name="tcaron" unicode="&#x165;" horiz-adv-x="849" 
d="M61 694l68 318h172l53 254h367l-53 -254h229l-68 -318h-229l-59 -274q-12 -57 4 -80t67 -23h136l-68 -317h-186q-186 0 -275.5 104.5t-50.5 286.5l65 303h-172zM743 1094l129 442h357l-193 -442h-293z" />
    <glyph glyph-name="Tbar" unicode="&#x166;" horiz-adv-x="1058" 
d="M123 459l67 313h201l64 293h-285l78 369h958l-78 -369h-284l-64 -293h205l-67 -313h-203l-99 -459h-389l99 459h-203z" />
    <glyph glyph-name="tbar" unicode="&#x167;" horiz-adv-x="864" 
d="M82 735l59 277h174l54 254h366l-53 -254h229l-59 -277h-229l-23 -104h229l-47 -225h-229l-6 -27q-10 -49 8.5 -76t62.5 -27h136l-60 -276h-209q-183 0 -264 103.5t-41 287.5l4 15h-172l47 225h174l23 104h-174z" />
    <glyph glyph-name="Utilde" unicode="&#x168;" horiz-adv-x="1310" 
d="M584 -31q-270 0 -400.5 172.5t-70.5 450.5l178 842h389l-188 -891q-19 -86 19.5 -145.5t113.5 -59.5q76 0 133.5 55.5t77.5 149.5l188 891h389l-196 -924q-54 -254 -221.5 -397.5t-411.5 -143.5zM420 1518q65 329 334 329q67 0 130.5 -20.5t107.5 -41t63 -20.5
q29 0 43.5 14t21.5 52h262q-62 -330 -346 -330q-66 0 -126 19.5t-102 39t-63 19.5q-54 0 -63 -61h-262z" />
    <glyph glyph-name="utilde" unicode="&#x169;" horiz-adv-x="1167" 
d="M1188 1012l-217 -1012h-359l23 102q-136 -133 -293 -133q-167 0 -244.5 131t-29.5 359l118 553h369l-117 -543q-15 -74 10.5 -118t86.5 -44q132 0 167 162l117 543h369zM285 1114q20 164 104 253t199 89q56 0 118 -23.5t113 -47t80 -23.5q27 0 43 19t29 59h237
q-21 -165 -109.5 -253.5t-207.5 -88.5q-56 0 -114 22t-106 44t-79 22q-58 0 -70 -72h-237z" />
    <glyph glyph-name="Umacron" unicode="&#x16a;" horiz-adv-x="1310" 
d="M584 -31q-270 0 -400.5 172.5t-70.5 450.5l178 842h389l-188 -891q-19 -86 19.5 -145.5t113.5 -59.5q76 0 133.5 55.5t77.5 149.5l188 891h389l-196 -924q-54 -254 -221.5 -397.5t-411.5 -143.5zM502 1518l55 268h735l-55 -268h-735z" />
    <glyph glyph-name="umacron" unicode="&#x16b;" horiz-adv-x="1167" 
d="M1188 1012l-217 -1012h-359l23 102q-136 -133 -293 -133q-167 0 -244.5 131t-29.5 359l118 553h369l-117 -543q-15 -74 10.5 -118t86.5 -44q132 0 167 162l117 543h369zM344 1114l62 287h735l-62 -287h-735z" />
    <glyph glyph-name="Ubreve" unicode="&#x16c;" horiz-adv-x="1310" 
d="M584 -31q-270 0 -400.5 172.5t-70.5 450.5l178 842h389l-188 -891q-19 -86 19.5 -145.5t113.5 -59.5q76 0 133.5 55.5t77.5 149.5l188 891h389l-196 -924q-54 -254 -221.5 -397.5t-411.5 -143.5zM555 1812h299q-12 -44 6 -71t55 -27q75 0 95 98h297
q-31 -148 -137.5 -232.5t-260.5 -84.5q-178 0 -276 82.5t-78 234.5z" />
    <glyph glyph-name="ubreve" unicode="&#x16d;" horiz-adv-x="1167" 
d="M1188 1012l-217 -1012h-359l23 102q-136 -133 -293 -133q-167 0 -244.5 131t-29.5 359l118 553h369l-117 -543q-15 -74 10.5 -118t86.5 -44q132 0 167 162l117 543h369zM418 1444h276q-13 -56 5 -87.5t59 -31.5q39 0 70.5 31.5t43.5 87.5h275q-35 -171 -139 -264
t-260 -93q-107 0 -189.5 41t-123.5 124t-17 192z" />
    <glyph glyph-name="Uring" unicode="&#x16e;" horiz-adv-x="1310" 
d="M584 -31q-270 0 -400.5 172.5t-70.5 450.5l178 842h389l-188 -891q-19 -86 19.5 -145.5t113.5 -59.5q76 0 133.5 55.5t77.5 149.5l188 891h389l-196 -924q-54 -254 -221.5 -397.5t-411.5 -143.5zM555 1778q9 118 108 199t236 81q139 0 229.5 -81.5t81.5 -198.5
q-11 -118 -109.5 -198.5t-236.5 -80.5t-228.5 81t-80.5 198zM782 1778q-3 -37 23 -63.5t67 -26.5q43 0 75.5 26.5t35.5 63.5t-25 63.5t-71 26.5q-41 0 -71.5 -26.5t-33.5 -63.5z" />
    <glyph glyph-name="uring" unicode="&#x16f;" horiz-adv-x="1167" 
d="M1188 1012l-217 -1012h-359l23 102q-136 -133 -293 -133q-167 0 -244.5 131t-29.5 359l118 553h369l-117 -543q-15 -74 10.5 -118t86.5 -44q132 0 167 162l117 543h369zM410 1354q0 125 100 214t244 89q133 0 222 -75.5t89 -186.5q0 -124 -100 -210.5t-246 -86.5
q-132 0 -220.5 73.5t-88.5 182.5zM637 1370q0 -36 25.5 -60t64.5 -24q44 0 77.5 29t33.5 67q0 35 -28 59.5t-69 24.5q-42 0 -73 -28.5t-31 -67.5z" />
    <glyph glyph-name="Uhungarumlaut" unicode="&#x170;" horiz-adv-x="1310" 
d="M584 -31q-270 0 -400.5 172.5t-70.5 450.5l178 842h389l-188 -891q-19 -86 19.5 -145.5t113.5 -59.5q76 0 133.5 55.5t77.5 149.5l188 891h389l-196 -924q-54 -254 -221.5 -397.5t-411.5 -143.5zM475 1518l240 282h368l-258 -282h-350zM954 1518l238 282h399l-311 -282
h-326z" />
    <glyph glyph-name="uhungarumlaut" unicode="&#x171;" horiz-adv-x="1167" 
d="M1188 1012l-217 -1012h-359l23 102q-136 -133 -293 -133q-167 0 -244.5 131t-29.5 359l118 553h369l-117 -543q-15 -74 10.5 -118t86.5 -44q132 0 167 162l117 543h369zM340 1114h309l217 338h-338zM776 1114h305l269 338h-367z" />
    <glyph glyph-name="Uogonek" unicode="&#x172;" horiz-adv-x="1310" 
d="M606 -444q-112 0 -174.5 56.5t-62.5 151.5q0 127 88 218q-208 40 -302 204.5t-42 405.5l178 842h389l-188 -891q-19 -86 19.5 -145.5t113.5 -59.5q76 0 133.5 55.5t77.5 149.5l188 891h389l-196 -924q-44 -207 -164 -341.5t-299 -178.5q-92 -60 -90 -119q0 -45 81 -45h29
l-104 -270h-64z" />
    <glyph glyph-name="uogonek" unicode="&#x173;" horiz-adv-x="1167" 
d="M1188 1012l-217 -1012q-111 -63 -109 -129q0 -45 82 -45h29l-105 -270h-63q-112 0 -175 56.5t-63 151.5q0 139 109 236h-64l23 102q-136 -133 -293 -133q-167 0 -244.5 131t-29.5 359l118 553h369l-117 -543q-15 -74 10.5 -118t86.5 -44q132 0 167 162l117 543h369z" />
    <glyph glyph-name="Wcircumflex" unicode="&#x174;" horiz-adv-x="1902" 
d="M242 0l-31 1434h403l2 -324q1 -108 -1.5 -226.5t-5.5 -183.5l-3 -65q89 217 195 432l180 367h319l33 -326q10 -107 17.5 -225t9.5 -183l2 -65q74 221 164 446l141 353h406l-619 -1434h-367l-79 739l-383 -739h-383zM723 1518l291 307h405l172 -307h-358l-45 110l-94 -110
h-371z" />
    <glyph glyph-name="wcircumflex" unicode="&#x175;" horiz-adv-x="1597" 
d="M203 0l-101 1012h369l31 -463l246 463h294l58 -441l211 441h397l-534 -1012h-322l-76 449l-264 -449h-309zM520 1114l279 338h399l135 -338h-309l-57 115l-107 -115h-340z" />
    <glyph glyph-name="Ycircumflex" unicode="&#x176;" horiz-adv-x="1243" 
d="M195 1434h419l86 -498l316 498h424l-623 -934l-106 -500h-389l106 500zM397 1518l291 307h406l172 -307h-359l-45 110l-94 -110h-371z" />
    <glyph glyph-name="ycircumflex" unicode="&#x177;" horiz-adv-x="1114" 
d="M106 1012h373l70 -494l258 494h420l-860 -1397h-416l336 504zM283 1114l278 338h400l135 -338h-310l-57 115l-106 -115h-340z" />
    <glyph glyph-name="Ydieresis" unicode="&#x178;" horiz-adv-x="1243" 
d="M195 1434h419l86 -498l316 498h424l-623 -934l-106 -500h-389l106 500zM422 1518l65 307h340l-65 -307h-340zM901 1518l66 307h340l-66 -307h-340z" />
    <glyph glyph-name="Zacute" unicode="&#x179;" horiz-adv-x="1079" 
d="M291 1434h905l-61 -295l-613 -770h453l-80 -369h-932l64 295l612 770h-426zM580 1518l219 282h418l-310 -282h-327z" />
    <glyph glyph-name="zacute" unicode="&#x17a;" horiz-adv-x="1042" 
d="M-47 0l61 289l510 405h-405l67 318h895l-63 -291l-522 -404h444l-68 -317h-919zM481 1114l232 338h403l-303 -338h-332z" />
    <glyph glyph-name="Zdotaccent" unicode="&#x17b;" horiz-adv-x="1079" 
d="M291 1434h905l-61 -295l-613 -770h453l-80 -369h-932l64 295l612 770h-426zM553 1518l65 307h394l-66 -307h-393z" />
    <glyph glyph-name="zdotaccent" unicode="&#x17c;" horiz-adv-x="1042" 
d="M-47 0l61 289l510 405h-405l67 318h895l-63 -291l-522 -404h444l-68 -317h-919zM467 1114l68 318h372l-67 -318h-373z" />
    <glyph glyph-name="Zcaron" unicode="&#x17d;" horiz-adv-x="1079" 
d="M291 1434h905l-61 -295l-613 -770h453l-80 -369h-932l64 295l612 770h-426zM383 1821h360l50 -105l96 105h360l-295 -303h-407z" />
    <glyph glyph-name="zcaron" unicode="&#x17e;" horiz-adv-x="1042" 
d="M-47 0l61 289l510 405h-405l67 318h895l-63 -291l-522 -404h444l-68 -317h-919zM317 1452h310l57 -117l107 117h339l-278 -338h-399z" />
    <glyph glyph-name="longs" unicode="&#x17f;" horiz-adv-x="681" 
d="M80 674l74 338h180l10 51q74 371 467 371h125l-72 -338h-53q-44 0 -73 -26t-40 -73l-213 -997h-368l143 674h-180z" />
    <glyph glyph-name="uni018F" unicode="&#x18f;" horiz-adv-x="1568" 
d="M934 1464q136 0 253.5 -46.5t199.5 -127t129 -191t47 -235.5q0 -202 -63 -370.5t-173.5 -283.5t-264.5 -178t-333 -63q-137 0 -256 48.5t-202 132.5t-130 200t-47 248q0 136 37 252h1022q-7 112 -79 179t-185 67q-88 0 -167.5 -39t-121.5 -101h-442q101 235 298 371.5
t478 136.5zM502 567q6 -95 78.5 -162t189.5 -67q115 0 199 62t131 167h-598z" />
    <glyph glyph-name="florin" unicode="&#x192;" horiz-adv-x="890" 
d="M-119 -385l64 297h78q95 0 112 84l150 698h-174l67 318h174l2 14q29 206 148 307t332 101h202l-61 -297h-139q-92 0 -109 -84l-8 -41h229l-67 -318h-230l-147 -694q-40 -181 -151.5 -283t-268.5 -102h-203z" />
    <glyph glyph-name="uni019D" unicode="&#x19d;" horiz-adv-x="1273" 
d="M750 1192q26 -104 51.5 -220t38.5 -180l12 -65q33 231 82 469l51 238h379l-305 -1434h-344l-80 313q-26 105 -52 221t-39 180l-12 64q-32 -231 -81 -469l-68 -313q-37 -175 -169.5 -279t-317.5 -104h-183l80 369h60q74 0 117 30t61 111l278 1311h381z" />
    <glyph glyph-name="Gcaron" unicode="&#x1e6;" horiz-adv-x="1564" 
d="M770 -31q-195 0 -350 86.5t-239.5 234t-84.5 326.5q0 122 36 243.5t108 230.5t171 192.5t234.5 132.5t288.5 49q129 0 236 -27.5t180.5 -75.5t124.5 -113.5t75 -140t25 -157.5h-438q-13 76 -76.5 115t-163.5 39t-180 -45t-126.5 -116t-70.5 -150t-24 -156q0 -141 81 -224
t226 -83q117 0 200 53.5t107 140.5l-377 -18l76 354h747q-3 -115 -32 -254q-60 -299 -258 -468t-496 -169zM582 1821h360l49 -105l96 105h361l-295 -303h-408z" />
    <glyph glyph-name="gcaron" unicode="&#x1e7;" horiz-adv-x="1210" 
d="M315 -385q-195 0 -282.5 98.5t-65.5 270.5l2 16h361l-2 -12q-4 -28 16 -45t53 -17h148q50 0 73.5 23.5t34.5 75.5l19 84q-100 -56 -207 -56q-175 0 -290.5 125.5t-115.5 319.5q0 116 42 218t112.5 173t165.5 112t199 41q80 0 157.5 -30.5t112.5 -77.5l16 78h369
l-225 -1057q-34 -159 -146 -249.5t-313 -90.5h-234zM381 1452h309l58 -117l106 117h340l-279 -338h-399zM428 514q0 -69 42.5 -113.5t109.5 -44.5q86 0 146 62t60 155q0 70 -42.5 114t-110.5 44q-84 0 -144.5 -62.5t-60.5 -154.5z" />
    <glyph glyph-name="uni01EA" unicode="&#x1ea;" horiz-adv-x="1628" 
d="M805 338q165 0 289.5 128.5t124.5 307.5q0 139 -86 230.5t-220 91.5q-165 0 -289 -131.5t-124 -311.5q0 -137 85.5 -226t219.5 -89zM96 616q0 130 40.5 256t117 232t180 187t238 127t282.5 46q190 0 343.5 -85.5t239 -235.5t85.5 -334q0 -142 -48.5 -276.5t-135 -243.5
t-211 -188t-269.5 -111q-94 -58 -92 -119q0 -45 82 -45h29l-105 -270h-63q-112 0 -175 56.5t-63 151.5q0 119 84 213q-248 35 -403.5 212.5t-155.5 426.5z" />
    <glyph glyph-name="uni01EB" unicode="&#x1eb;" horiz-adv-x="1185" 
d="M569 309q88 0 149.5 65.5t61.5 162.5q0 73 -45 119t-117 46q-88 0 -149 -65t-61 -162q0 -74 44.5 -120t116.5 -46zM47 446q0 157 76.5 293t216.5 219.5t311 83.5q212 0 351 -136t139 -341q0 -201 -124.5 -362.5t-322.5 -212.5q-93 -57 -90 -119q0 -45 82 -45h29
l-105 -270h-63q-112 0 -175 56.5t-63 151.5q0 130 92 222q-159 40 -256.5 165.5t-97.5 294.5z" />
    <glyph glyph-name="Aringacute" unicode="&#x1fa;" horiz-adv-x="1308" 
d="M-111 0l783 1434h360l172 -1434h-397l-14 186h-385l-89 -186h-430zM551 549h223l-33 371zM555 1778q7 101 84.5 177.5t191.5 96.5l158 205h418l-293 -268q105 -81 96 -211q-11 -118 -109.5 -198.5t-236.5 -80.5t-228.5 81t-80.5 198zM782 1778q-3 -37 23 -63.5t67 -26.5
q43 0 75.5 26.5t35.5 63.5t-25 63.5t-71 26.5q-41 0 -71.5 -26.5t-33.5 -63.5z" />
    <glyph glyph-name="aringacute" unicode="&#x1fb;" horiz-adv-x="1087" 
d="M315 -31q-140 0 -224.5 75.5t-84.5 197.5q0 97 45 173t123 122.5t177 70t214 23.5h103l4 18q9 41 -16.5 70t-69.5 29q-96 0 -125 -86h-367q40 183 177.5 281.5t351.5 98.5q102 0 186.5 -30t141.5 -84.5t79.5 -136.5t1.5 -179l-131 -612h-358l16 72q-96 -103 -244 -103z
M369 1354q0 95 61 172.5t158 109.5l196 287h404l-285 -317q56 -36 88.5 -91t32.5 -120q0 -124 -100 -210.5t-246 -86.5q-132 0 -220.5 73.5t-88.5 182.5zM371 301q0 -27 21 -43t57 -16q60 0 109.5 40t66.5 107l2 8h-105q-66 0 -108.5 -23.5t-42.5 -72.5zM596 1370
q0 -36 25.5 -60t64.5 -24q44 0 77.5 29t33.5 67q0 35 -28 59.5t-69 24.5q-42 0 -73 -28.5t-31 -67.5z" />
    <glyph glyph-name="AEacute" unicode="&#x1fc;" horiz-adv-x="1753" 
d="M-137 0l919 1434h1082l-76 -369h-420l-33 -166h365l-74 -354h-366l-35 -176h420l-80 -369h-801l49 231h-332l-141 -231h-477zM700 594h187l100 479zM1178 1518l219 282h418l-310 -282h-327z" />
    <glyph glyph-name="aeacute" unicode="&#x1fd;" horiz-adv-x="1734" 
d="M1104 -31q-223 0 -354 144q-64 -68 -160.5 -106t-212.5 -38q-166 0 -267.5 76t-101.5 203q0 122 74.5 210.5t194 130.5t268.5 42h123l4 18q9 42 -18 70.5t-72 28.5q-92 0 -121 -86h-367q40 183 177.5 281.5t351.5 98.5q176 0 282 -106q142 106 330 106q130 0 237 -53.5
t169.5 -150t62.5 -217.5q0 -80 -43 -211h-680q6 -67 47.5 -104.5t104.5 -37.5q47 0 85 17t58 49h360q-56 -170 -197.5 -267.5t-334.5 -97.5zM373 301q0 -28 19.5 -43.5t56.5 -15.5q64 0 114.5 45t65.5 110h-107q-66 0 -107.5 -23.5t-41.5 -72.5zM831 1114l232 338h403
l-303 -338h-332zM1036 643h310q3 47 -30.5 80t-96.5 33q-113 0 -183 -113z" />
    <glyph glyph-name="Oslashacute" unicode="&#x1fe;" horiz-adv-x="1630" 
d="M217 -117l-250 240l199 199q-68 139 -68 294q0 130 40.5 256t117 232t180 187t238 127t282.5 46q183 0 334 -80l150 146l258 -240l-158 -153q84 -144 84 -328q0 -164 -64.5 -317t-176 -268.5t-272.5 -185t-343 -69.5q-203 0 -365 97zM502 653q0 -25 2 -35l500 465
q-47 13 -89 13q-165 0 -289 -131.5t-124 -311.5zM686 360q58 -22 121 -22q165 0 289.5 128.5t124.5 307.5q0 30 -7 70zM858 1518l219 282h418l-309 -282h-328z" />
    <glyph glyph-name="oslashacute" unicode="&#x1ff;" horiz-adv-x="1185" 
d="M137 -119l-180 201l145 137q-55 101 -55 227q0 157 76.5 293t216.5 219.5t311 83.5q137 0 250 -61l156 149l182 -200l-149 -144q51 -102 51 -221q0 -157 -76.5 -293t-216.5 -219.5t-311 -83.5q-135 0 -246 60zM389 471v-10l273 258q-24 4 -41 4q-96 0 -164 -72t-68 -180z
M526 293q24 -4 41 -4q96 0 164 72t68 180v8zM557 1114l231 338h404l-303 -338h-332z" />
    <glyph glyph-name="uni0218" unicode="&#x218;" horiz-adv-x="1155" 
d="M547 -31q-157 0 -279.5 68t-180 187.5t-26.5 260.5h390q-13 -58 15.5 -103.5t98.5 -45.5q60 0 91.5 30t31.5 72q0 32 -28 55.5t-73 40.5t-99.5 35.5t-109 48.5t-99.5 71.5t-73 112t-28 163.5q0 225 144.5 362t367.5 137q246 0 376 -146.5t83 -371.5h-389q14 61 -7 105.5
t-83 44.5q-46 0 -76.5 -27.5t-30.5 -67.5q0 -32 29 -54.5t75 -39t101.5 -33.5t111 -45.5t101.5 -67.5t75 -106t29 -155q0 -160 -70 -281.5t-192 -185.5t-276 -64zM82 -385l242 293h387l-295 -293h-334z" />
    <glyph glyph-name="uni0219" unicode="&#x219;" horiz-adv-x="1005" 
d="M459 -31q-209 0 -334.5 100.5t-108.5 254.5h346q-2 -29 27.5 -50.5t81.5 -21.5q88 0 88 43q0 19 -25.5 33t-66.5 25t-90 24t-98.5 35.5t-90.5 53.5t-66.5 83.5t-25.5 120.5q0 175 127.5 273.5t315.5 98.5q208 0 328 -86t110 -251h-356q-5 29 -33.5 47t-71.5 18
q-34 0 -54 -11.5t-20 -31.5t26.5 -34t68 -24t92.5 -22t102 -33.5t92.5 -52t68 -84t26.5 -123.5q0 -126 -61.5 -214.5t-163 -129.5t-234.5 -41zM-2 -385l242 293h387l-295 -293h-334z" />
    <glyph glyph-name="uni021A" unicode="&#x21a;" horiz-adv-x="1024" 
d="M154 1065l77 369h959l-78 -369h-285l-227 -1065h-389l227 1065h-284zM-66 -385l242 293h387l-295 -293h-334z" />
    <glyph glyph-name="uni021B" unicode="&#x21b;" horiz-adv-x="849" 
d="M61 694l68 318h172l53 254h367l-53 -254h229l-68 -318h-229l-59 -274q-12 -57 4 -80t67 -23h136l-68 -317h-186q-186 0 -275.5 104.5t-50.5 286.5l65 303h-172zM-18 -385l241 293h387l-295 -293h-333z" />
    <glyph glyph-name="uni0232" unicode="&#x232;" horiz-adv-x="1243" 
d="M195 1434h419l86 -498l316 498h424l-623 -934l-106 -500h-389l106 500zM467 1518l55 268h735l-55 -268h-735z" />
    <glyph glyph-name="uni0233" unicode="&#x233;" horiz-adv-x="1114" 
d="M106 1012h373l70 -494l258 494h420l-860 -1397h-416l336 504zM322 1114l61 287h735l-61 -287h-735z" />
    <glyph glyph-name="uni0237" unicode="&#x237;" horiz-adv-x="548" 
d="M-106 -55q79 0 94 82l211 985h368l-223 -1045q-15 -69 -35 -121t-42.5 -89.5t-54.5 -63t-64 -41t-79 -24t-90 -11t-106 -2.5h-109l70 330h60z" />
    <glyph glyph-name="uni0259" unicode="&#x259;" horiz-adv-x="1140" 
d="M633 1042q205 0 336 -123.5t131 -330.5q0 -169 -77.5 -311t-215 -225t-305.5 -83q-109 0 -204 40t-159 108t-91 165t-5 205q8 37 33 115h680q-6 67 -47.5 104t-104.5 37q-102 0 -143 -65h-361q55 170 197 267t336 97zM391 369q-3 -47 30.5 -80t96.5 -33q112 0 182 113
h-309z" />
    <glyph glyph-name="uni0272" unicode="&#x272;" horiz-adv-x="1167" 
d="M-236 -385l70 330h60q75 0 94 82l211 985h358l-25 -107q140 137 297 137q165 0 244 -131.5t29 -359.5l-119 -551h-369l117 543q15 75 -10.5 118.5t-87.5 43.5q-65 0 -108 -43.5t-58 -118.5l-117 -543q-20 -93 -53 -161.5t-74 -111t-97.5 -68t-116 -35t-136.5 -9.5h-109z
" />
    <glyph glyph-name="uni02B9" unicode="&#x2b9;" horiz-adv-x="409" 
d="M199 834l14 333l55 267h307l-55 -267l-129 -333h-192z" />
    <glyph glyph-name="uni02BA" unicode="&#x2ba;" horiz-adv-x="845" 
d="M635 834l14 333l56 267h307l-56 -267l-129 -333h-192zM199 834l14 333l55 267h307l-55 -267l-129 -333h-192z" />
    <glyph glyph-name="circumflex" unicode="&#x2c6;" horiz-adv-x="1222" 
d="M322 1114l278 338h399l136 -338h-310l-57 115l-106 -115h-340z" />
    <glyph glyph-name="caron" unicode="&#x2c7;" horiz-adv-x="1222" 
d="M557 1114l-135 338h309l57 -117l107 117h340l-279 -338h-399z" />
    <glyph glyph-name="breve" unicode="&#x2d8;" horiz-adv-x="1138" 
d="M1133 1444q-35 -171 -139.5 -264t-260.5 -93q-107 0 -189.5 41t-123.5 124t-17 192h277q-13 -56 4.5 -87.5t58.5 -31.5q39 0 71 31.5t44 87.5h275z" />
    <glyph glyph-name="dotaccent" unicode="&#x2d9;" horiz-adv-x="782" 
d="M401 1432h373l-67 -318h-373z" />
    <glyph glyph-name="ring" unicode="&#x2da;" horiz-adv-x="1069" 
d="M707 1098q-132 0 -221 73.5t-89 182.5q0 125 100 214t244 89q133 0 222.5 -75.5t89.5 -186.5q0 -124 -100 -210.5t-246 -86.5zM625 1370q0 -36 25.5 -60t64.5 -24q44 0 77 29t33 67q0 35 -27.5 59.5t-68.5 24.5q-42 0 -73 -28.5t-31 -67.5z" />
    <glyph glyph-name="ogonek" unicode="&#x2db;" horiz-adv-x="911" 
d="M313 -385q-137 0 -203 68.5t-42 177.5q21 93 92.5 158.5t197.5 123.5l164 -143q-109 -14 -116 -55q-4 -21 26 -30t68 -9h80l-152 -291h-115z" />
    <glyph glyph-name="tilde" unicode="&#x2dc;" horiz-adv-x="1263" 
d="M940 1098q-56 0 -114 22t-106 44t-79 22q-58 0 -70 -72h-237q20 164 104 253t199 89q56 0 118 -23.5t113 -47t80 -23.5q27 0 43 19t29 59h237q-21 -165 -109.5 -253.5t-207.5 -88.5z" />
    <glyph glyph-name="hungarumlaut" unicode="&#x2dd;" horiz-adv-x="1347" 
d="M643 1114l217 338h-338l-188 -338h309zM770 1114h305l268 338h-366z" />
    <glyph glyph-name="gravecomb" unicode="&#x300;" 
d="M406 1452h399l108 -338h-307z" />
    <glyph glyph-name="acutecomb" unicode="&#x301;" 
d="M975 1452l-303 -338h-332l231 338h404z" />
    <glyph glyph-name="uni0302" unicode="&#x302;" 
d="M322 1114l278 338h399l136 -338h-310l-57 115l-106 -115h-340z" />
    <glyph glyph-name="tildecomb" unicode="&#x303;" 
d="M940 1098q-56 0 -114 22t-106 44t-79 22q-58 0 -70 -72h-237q20 164 104 253t199 89q56 0 118 -23.5t113 -47t80 -23.5q27 0 43 19t29 59h237q-21 -165 -109.5 -253.5t-207.5 -88.5z" />
    <glyph glyph-name="uni0304" unicode="&#x304;" 
d="M334 1114l61 287h735l-61 -287h-735z" />
    <glyph glyph-name="uni0306" unicode="&#x306;" 
d="M1133 1444q-35 -171 -139.5 -264t-260.5 -93q-107 0 -189.5 41t-123.5 124t-17 192h277q-13 -56 4.5 -87.5t58.5 -31.5q39 0 71 31.5t44 87.5h275z" />
    <glyph glyph-name="uni0307" unicode="&#x307;" 
d="M401 1432h373l-67 -318h-373z" />
    <glyph glyph-name="uni0308" unicode="&#x308;" 
d="M860 1432h352l-67 -318h-352zM334 1114l67 318h353l-68 -318h-352z" />
    <glyph glyph-name="uni030A" unicode="&#x30a;" 
d="M707 1098q-132 0 -221 73.5t-89 182.5q0 125 100 214t244 89q133 0 222.5 -75.5t89.5 -186.5q0 -124 -100 -210.5t-246 -86.5zM625 1370q0 -36 25.5 -60t64.5 -24q44 0 77 29t33 67q0 35 -27.5 59.5t-68.5 24.5q-42 0 -73 -28.5t-31 -67.5z" />
    <glyph glyph-name="uni030B" unicode="&#x30b;" 
d="M643 1114l217 338h-338l-188 -338h309zM770 1114h305l268 338h-366z" />
    <glyph glyph-name="uni030C" unicode="&#x30c;" 
d="M557 1114l-135 338h309l57 -117l107 117h340l-279 -338h-399z" />
    <glyph glyph-name="uni0312" unicode="&#x312;" 
d="M334 1114l323 338h344l-251 -338h-416z" />
    <glyph glyph-name="uni0326" unicode="&#x326;" 
d="M645 -92l-295 -293h-334l242 293h387z" />
    <glyph glyph-name="uni0327" unicode="&#x327;" 
d="M385 33l-8 -33l-80 -109h4q72 0 118 -50t46 -128q0 -105 -72 -185.5t-192 -80.5h-221l36 168h166q36 0 61 20t25 50q0 21 -16 34t-45 13h-146l29 139l111 162h184z" />
    <glyph glyph-name="uni0328" unicode="&#x328;" 
d="M291 -444q-112 0 -175 56.5t-63 151.5q0 67 24 123t70.5 99.5t97 75.5t122.5 67l90 -129q-111 -63 -109 -129q0 -45 82 -45h29l-105 -270h-63z" />
    <glyph glyph-name="uni0394" unicode="&#x394;" horiz-adv-x="1193" 
d="M-53 0l67 317l592 1117h377l121 -1117l-68 -317h-1089zM438 371h291l-33 516z" />
    <glyph glyph-name="uni03A9" unicode="&#x3a9;" horiz-adv-x="1566" 
d="M-35 0l80 371h236q-58 57 -92.5 147.5t-34.5 194.5q0 143 57.5 277.5t160 240t258 169.5t337.5 64q259 0 419 -150.5t160 -393.5q0 -150 -80.5 -310t-214.5 -239h217l-79 -371h-660l76 350q148 94 241 224t93 280q0 109 -61.5 170t-170.5 61q-106 0 -191 -60.5t-129 -153
t-44 -195.5q0 -185 157 -326l-75 -350h-660z" />
    <glyph glyph-name="uni03BC" unicode="&#x3bc;" horiz-adv-x="1179" 
d="M-98 -385l297 1397h368l-121 -570q-12 -60 16.5 -97.5t84.5 -37.5q133 0 168 162l116 543h369l-217 -1012h-358l22 102q-136 -133 -293 -133h-8l-76 -354h-368z" />
    <glyph glyph-name="pi" unicode="&#x3c0;" horiz-adv-x="1351" 
d="M80 694l72 318h1220l-72 -318h-120l-62 -297q-8 -36 9 -58t61 -22h59l-65 -317h-86q-222 0 -305 94t-35 320l59 280h-188l-148 -694h-364l147 694h-182z" />
    <glyph glyph-name="uni0E3F" unicode="&#xe3f;" horiz-adv-x="1185" 
d="M981 1675l-55 -262q129 -33 201.5 -111.5t72.5 -193.5q0 -101 -56.5 -203.5t-166.5 -148.5q61 -26 98 -92.5t37 -165.5q0 -211 -136.5 -343t-348.5 -151l-54 -250h-350l51 246h-266l305 1434h267l51 241h350zM467 322h115q63 0 99 41.5t36 99.5q0 43 -27 68.5t-76 25.5
h-98zM584 877h69q76 0 111 41.5t35 103.5q0 90 -115 90h-49z" />
    <glyph glyph-name="uni1E20" unicode="&#x1e20;" horiz-adv-x="1564" 
d="M770 -31q-195 0 -350 86.5t-239.5 234t-84.5 326.5q0 122 36 243.5t108 230.5t171 192.5t234.5 132.5t288.5 49q129 0 236 -27.5t180.5 -75.5t124.5 -113.5t75 -140t25 -157.5h-438q-13 76 -76.5 115t-163.5 39t-180 -45t-126.5 -116t-70.5 -150t-24 -156q0 -141 81 -224
t226 -83q117 0 200 53.5t107 140.5l-377 -18l76 354h747q-3 -115 -32 -254q-60 -299 -258 -468t-496 -169zM584 1518l55 268h735l-55 -268h-735z" />
    <glyph glyph-name="uni1E21" unicode="&#x1e21;" horiz-adv-x="1210" 
d="M315 -385q-195 0 -282.5 98.5t-65.5 270.5l2 16h361l-2 -12q-4 -28 16 -45t53 -17h148q50 0 73.5 23.5t34.5 75.5l19 84q-100 -56 -207 -56q-175 0 -290.5 125.5t-115.5 319.5q0 116 42 218t112.5 173t165.5 112t199 41q80 0 157.5 -30.5t112.5 -77.5l16 78h369
l-225 -1057q-34 -159 -146 -249.5t-313 -90.5h-234zM348 1114l62 287h735l-62 -287h-735zM428 514q0 -69 42.5 -113.5t109.5 -44.5q86 0 146 62t60 155q0 70 -42.5 114t-110.5 44q-84 0 -144.5 -62.5t-60.5 -154.5z" />
    <glyph glyph-name="Wgrave" unicode="&#x1e80;" horiz-adv-x="1902" 
d="M242 0l-31 1434h403l2 -324q1 -108 -1.5 -226.5t-5.5 -183.5l-3 -65q89 217 195 432l180 367h319l33 -326q10 -107 17.5 -225t9.5 -183l2 -65q74 221 164 446l141 353h406l-619 -1434h-367l-79 739l-383 -739h-383zM776 1800h420l121 -282h-328z" />
    <glyph glyph-name="wgrave" unicode="&#x1e81;" horiz-adv-x="1597" 
d="M203 0l-101 1012h369l31 -463l246 463h294l58 -441l211 441h397l-534 -1012h-322l-76 449l-264 -449h-309zM567 1452h400l108 -338h-307z" />
    <glyph glyph-name="Wacute" unicode="&#x1e82;" horiz-adv-x="1902" 
d="M242 0l-31 1434h403l2 -324q1 -108 -1.5 -226.5t-5.5 -183.5l-3 -65q89 217 195 432l180 367h319l33 -326q10 -107 17.5 -225t9.5 -183l2 -65q74 221 164 446l141 353h406l-619 -1434h-367l-79 739l-383 -739h-383zM987 1518l219 282h418l-309 -282h-328z" />
    <glyph glyph-name="wacute" unicode="&#x1e83;" horiz-adv-x="1597" 
d="M203 0l-101 1012h369l31 -463l246 463h294l58 -441l211 441h397l-534 -1012h-322l-76 449l-264 -449h-309zM756 1114l231 338h404l-304 -338h-331z" />
    <glyph glyph-name="Wdieresis" unicode="&#x1e84;" horiz-adv-x="1902" 
d="M242 0l-31 1434h403l2 -324q1 -108 -1.5 -226.5t-5.5 -183.5l-3 -65q89 217 195 432l180 367h319l33 -326q10 -107 17.5 -225t9.5 -183l2 -65q74 221 164 446l141 353h406l-619 -1434h-367l-79 739l-383 -739h-383zM748 1518l65 307h340l-66 -307h-339zM1227 1518l65 307
h340l-65 -307h-340z" />
    <glyph glyph-name="wdieresis" unicode="&#x1e85;" horiz-adv-x="1597" 
d="M203 0l-101 1012h369l31 -463l246 463h294l58 -441l211 441h397l-534 -1012h-322l-76 449l-264 -449h-309zM522 1114l68 318h352l-68 -318h-352zM981 1114l68 318h352l-68 -318h-352z" />
    <glyph glyph-name="uni1E9E" unicode="&#x1e9e;" horiz-adv-x="1361" 
d="M817 1434h625l-66 -308l-274 -315q89 -42 139.5 -121t50.5 -184q0 -220 -156 -363t-403 -143h-231l80 371h186q55 0 92 31.5t37 80.5q0 37 -29 58.5t-80 21.5h-165l51 238l227 272h-135q-81 0 -128.5 -43t-66.5 -133l-192 -897h-387l198 934q30 140 81 236t129 154.5
t178.5 84t238.5 25.5z" />
    <glyph glyph-name="uni1EA0" unicode="&#x1ea0;" horiz-adv-x="1308" 
d="M-111 0l783 1434h360l172 -1434h-397l-14 186h-385l-89 -186h-430zM268 -428l68 317h373l-68 -317h-373zM551 549h223l-33 371z" />
    <glyph glyph-name="uni1EA1" unicode="&#x1ea1;" horiz-adv-x="1087" 
d="M315 -31q-140 0 -224.5 75.5t-84.5 197.5q0 97 45 173t123 122.5t177 70t214 23.5h103l4 18q9 41 -16.5 70t-69.5 29q-96 0 -125 -86h-367q40 183 177.5 281.5t351.5 98.5q102 0 186.5 -30t141.5 -84.5t79.5 -136.5t1.5 -179l-131 -612h-358l16 72q-96 -103 -244 -103z
M154 -428l67 317h373l-68 -317h-372zM371 301q0 -27 21 -43t57 -16q60 0 109.5 40t66.5 107l2 8h-105q-66 0 -108.5 -23.5t-42.5 -72.5z" />
    <glyph glyph-name="uni1EB8" unicode="&#x1eb8;" horiz-adv-x="1007" 
d="M305 1434h817l-78 -369h-428l-34 -166h372l-75 -354h-373l-37 -176h428l-80 -369h-817zM121 -428l67 317h373l-67 -317h-373z" />
    <glyph glyph-name="uni1EB9" unicode="&#x1eb9;" horiz-adv-x="1140" 
d="M510 -31q-205 0 -336 124t-131 331q0 169 77.5 310.5t215 224.5t305.5 83q109 0 204 -40t159 -108t91 -165t5 -205q-7 -34 -33 -114h-680q6 -67 47.5 -104.5t104.5 -37.5q47 0 85 17t58 49h360q-56 -170 -197.5 -267.5t-334.5 -97.5zM184 -428l68 317h373l-68 -317h-373z
M442 643h310q3 47 -30.5 80t-96.5 33q-113 0 -183 -113z" />
    <glyph glyph-name="uni1EBC" unicode="&#x1ebc;" horiz-adv-x="1007" 
d="M305 1434h817l-78 -369h-428l-34 -166h372l-75 -354h-373l-37 -176h428l-80 -369h-817zM283 1518q65 329 333 329q67 0 130.5 -20.5t108 -41t63.5 -20.5q30 0 44 14t21 52h262q-62 -330 -346 -330q-66 0 -126 19.5t-102 39t-63 19.5q-54 0 -63 -61h-262z" />
    <glyph glyph-name="uni1EBD" unicode="&#x1ebd;" horiz-adv-x="1140" 
d="M510 -31q-205 0 -336 124t-131 331q0 169 77.5 310.5t215 224.5t305.5 83q109 0 204 -40t159 -108t91 -165t5 -205q-7 -34 -33 -114h-680q6 -67 47.5 -104.5t104.5 -37.5q47 0 85 17t58 49h360q-56 -170 -197.5 -267.5t-334.5 -97.5zM236 1114q20 164 104 253t199 89
q56 0 118 -23.5t113 -47t80 -23.5q27 0 43 19t29 59h237q-21 -165 -109.5 -253.5t-207.5 -88.5q-56 0 -114 22t-106 44t-79 22q-58 0 -70 -72h-237zM442 643h310q3 47 -30.5 80t-96.5 33q-113 0 -183 -113z" />
    <glyph glyph-name="uni1ECA" unicode="&#x1eca;" horiz-adv-x="604" 
d="M305 1434h389l-305 -1434h-389zM-84 -428l68 317h372l-67 -317h-373z" />
    <glyph glyph-name="uni1ECB" unicode="&#x1ecb;" horiz-adv-x="546" 
d="M199 1012h368l-217 -1012h-368zM-113 -428l68 317h373l-68 -317h-373zM219 1114l68 318h372l-67 -318h-373z" />
    <glyph glyph-name="uni1ECC" unicode="&#x1ecc;" horiz-adv-x="1628" 
d="M766 -31q-143 0 -268 50t-213 136t-138.5 205.5t-50.5 255.5q0 130 40.5 256t117 232t180 187t238 127t282.5 46q190 0 343.5 -85.5t239 -235.5t85.5 -334q0 -164 -64.5 -317t-176 -268.5t-272.5 -185t-343 -69.5zM408 -428l67 317h373l-68 -317h-372zM500 653
q0 -137 85.5 -226t219.5 -89q165 0 289.5 128.5t124.5 307.5q0 139 -86 230.5t-220 91.5q-165 0 -289 -131.5t-124 -311.5z" />
    <glyph glyph-name="uni1ECD" unicode="&#x1ecd;" horiz-adv-x="1185" 
d="M537 -31q-212 0 -351 136t-139 341q0 157 76.5 293t216.5 219.5t311 83.5q212 0 351 -136t139 -341q0 -157 -76.5 -293t-216.5 -219.5t-311 -83.5zM207 -428l67 317h373l-67 -317h-373zM408 475q0 -74 44.5 -120t116.5 -46q88 0 149.5 65.5t61.5 162.5q0 73 -45 119
t-117 46q-88 0 -149 -65t-61 -162z" />
    <glyph glyph-name="uni1EE4" unicode="&#x1ee4;" horiz-adv-x="1310" 
d="M584 -31q-270 0 -400.5 172.5t-70.5 450.5l178 842h389l-188 -891q-19 -86 19.5 -145.5t113.5 -59.5q76 0 133.5 55.5t77.5 149.5l188 891h389l-196 -924q-54 -254 -221.5 -397.5t-411.5 -143.5zM268 -428l68 317h373l-68 -317h-373z" />
    <glyph glyph-name="uni1EE5" unicode="&#x1ee5;" horiz-adv-x="1167" 
d="M1188 1012l-217 -1012h-359l23 102q-136 -133 -293 -133q-167 0 -244.5 131t-29.5 359l118 553h369l-117 -543q-15 -74 10.5 -118t86.5 -44q132 0 167 162l117 543h369zM195 -428l67 317h373l-68 -317h-372z" />
    <glyph glyph-name="Ygrave" unicode="&#x1ef2;" horiz-adv-x="1243" 
d="M195 1434h419l86 -498l316 498h424l-623 -934l-106 -500h-389l106 500zM451 1800h419l121 -282h-327z" />
    <glyph glyph-name="ygrave" unicode="&#x1ef3;" horiz-adv-x="1114" 
d="M106 1012h373l70 -494l258 494h420l-860 -1397h-416l336 504zM330 1452h399l109 -338h-308z" />
    <glyph glyph-name="uni1EF8" unicode="&#x1ef8;" horiz-adv-x="1243" 
d="M195 1434h419l86 -498l316 498h424l-623 -934l-106 -500h-389l106 500zM385 1518q65 329 334 329q67 0 130.5 -20.5t107.5 -41t63 -20.5q30 0 44 14t21 52h263q-62 -330 -347 -330q-66 0 -126 19.5t-101.5 39t-62.5 19.5q-55 0 -64 -61h-262z" />
    <glyph glyph-name="uni1EF9" unicode="&#x1ef9;" horiz-adv-x="1114" 
d="M106 1012h373l70 -494l258 494h420l-860 -1397h-416l336 504zM262 1114q20 164 104 253t199 89q56 0 118.5 -23.5t113.5 -47t80 -23.5q27 0 42.5 18.5t28.5 59.5h238q-21 -164 -110 -253t-208 -89q-56 0 -114 22t-106 44t-79 22q-57 0 -69 -72h-238z" />
    <glyph glyph-name="endash" unicode="&#x2013;" horiz-adv-x="1261" 
d="M55 385l74 346h1104l-74 -346h-1104z" />
    <glyph glyph-name="emdash" unicode="&#x2014;" horiz-adv-x="2203" 
d="M55 385l74 346h2044l-74 -346h-2044z" />
    <glyph glyph-name="quoteleft" unicode="&#x2018;" horiz-adv-x="532" 
d="M467 1178q-6 -32 10.5 -53t48.5 -21h72l-80 -367h-379l150 697h233z" />
    <glyph glyph-name="quoteright" unicode="&#x2019;" horiz-adv-x="524" 
d="M303 993q6 32 -10.5 53t-48.5 21h-72l80 367h379l-150 -697h-233z" />
    <glyph glyph-name="quotesinglbase" unicode="&#x201a;" horiz-adv-x="548" 
d="M109 -74q6 32 -11 53t-49 21h-72l80 367h379l-149 -697h-234z" />
    <glyph glyph-name="quotedblleft" unicode="&#x201c;" horiz-adv-x="1038" 
d="M467 1178q-6 -32 10.5 -53t48.5 -21h72l-80 -367h-379l150 697h233zM645 737l150 697h233l-55 -256q-6 -32 10.5 -53t48.5 -21h72l-80 -367h-379z" />
    <glyph glyph-name="quotedblright" unicode="&#x201d;" horiz-adv-x="1030" 
d="M809 993q6 32 -10.5 53t-48.5 21h-72l80 367h379l-150 -697h-233zM172 1067l80 367h379l-150 -697h-233l55 256q6 32 -10.5 53t-48.5 21h-72z" />
    <glyph glyph-name="quotedblbase" unicode="&#x201e;" horiz-adv-x="1054" 
d="M614 -74q6 32 -10.5 53t-48.5 21h-72l80 367h379l-149 -697h-234zM-23 0l80 367h379l-149 -697h-234l56 256q6 32 -11 53t-49 21h-72z" />
    <glyph glyph-name="dagger" unicode="&#x2020;" horiz-adv-x="919" 
d="M143 825l68 314h223l62 295h329l-61 -295h215l-68 -314h-215l-108 -516h-330l109 516h-224z" />
    <glyph glyph-name="daggerdbl" unicode="&#x2021;" horiz-adv-x="925" 
d="M31 274l67 314h224l53 258h-223l67 313h223l58 275h329l-57 -275h215l-67 -313h-215l-54 -258h215l-67 -314h-215l-60 -274h-329l59 274h-223z" />
    <glyph glyph-name="bullet" unicode="&#x2022;" horiz-adv-x="862" 
d="M414 184q-136 0 -223.5 93.5t-79.5 230.5q7 138 102.5 229.5t232.5 91.5q138 0 225.5 -91.5t80.5 -229.5q-8 -137 -104.5 -230.5t-233.5 -93.5z" />
    <glyph glyph-name="ellipsis" unicode="&#x2026;" horiz-adv-x="1703" 
d="M637 367h379l-80 -367h-379zM-23 0l80 367h379l-80 -367h-379zM1137 0l80 367h378l-79 -367h-379z" />
    <glyph glyph-name="perthousand" unicode="&#x2030;" horiz-adv-x="2678" 
d="M2171 -31q-143 0 -235.5 91.5t-92.5 226.5q0 76 30.5 150t85.5 134.5t141 98t188 37.5q145 0 239 -91t94 -225q0 -73 -30.5 -146.5t-86 -135.5t-143 -101t-190.5 -39zM152 1042q0 76 30.5 150t85 135t140.5 99t188 38q145 0 239.5 -91t94.5 -224q0 -73 -31 -146.5
t-86.5 -135.5t-143 -101t-190.5 -39q-143 0 -235 90.5t-92 224.5zM309 0l957 1434h323l-958 -1434h-322zM428 1073q0 -43 26 -70.5t66 -27.5q61 0 96 42.5t35 98.5q0 46 -27.5 73.5t-66.5 27.5q-60 0 -94.5 -42.5t-34.5 -101.5zM1014 285q0 76 30.5 150t85 135t140.5 99
t188 38q145 0 239.5 -91.5t94.5 -224.5q0 -73 -31 -146.5t-86.5 -135.5t-143 -101t-190.5 -39q-143 0 -235 91t-92 225zM1290 315q0 -43 26 -70.5t66 -27.5q61 0 96 42.5t35 98.5q0 46 -27.5 73.5t-66.5 27.5q-60 0 -94.5 -42.5t-34.5 -101.5zM2120 315q0 -43 26 -70.5
t66 -27.5q61 0 96 42.5t35 98.5q0 46 -27.5 73.5t-66.5 27.5q-59 0 -94 -43.5t-35 -100.5z" />
    <glyph glyph-name="minute" unicode="&#x2032;" horiz-adv-x="442" 
d="M193 834l14 333l55 267h307l-55 -267l-129 -333h-192z" />
    <glyph glyph-name="second" unicode="&#x2033;" horiz-adv-x="878" 
d="M629 834l14 333l55 267h308l-56 -267l-129 -333h-192zM193 834l14 333l55 267h307l-55 -267l-129 -333h-192z" />
    <glyph glyph-name="guilsinglleft" unicode="&#x2039;" horiz-adv-x="763" 
d="M563 -6l-514 391l60 279l679 395l-79 -395l-260 -160l194 -133z" />
    <glyph glyph-name="guilsinglright" unicode="&#x203a;" horiz-adv-x="761" 
d="M211 1059l514 -391l-59 -279l-680 -395l80 395l260 160l-195 133z" />
    <glyph glyph-name="fraction" unicode="&#x2044;" horiz-adv-x="471" 
d="M598 1434h324l-959 -1434h-321z" />
    <glyph glyph-name="franc" unicode="&#x20a3;" horiz-adv-x="1054" 
d="M719 119h-227l-25 -119h-389l24 119h-125l66 307h125l215 1008h817l-78 -369h-428l-37 -170h371l-78 -371h-370l-21 -98h225z" />
    <glyph glyph-name="uni20A6" unicode="&#x20a6;" horiz-adv-x="1646" 
d="M932 1192q26 -104 51.5 -220t38.5 -180l12 -65q33 231 82 469l51 238h379l-94 -443h211l-47 -225h-211l-23 -98h213l-49 -226h-211l-94 -442h-344l-80 313q-26 105 -51.5 221t-37.5 180l-13 64q-33 -231 -84 -469l-66 -309h-379l95 442h-207l49 226h205l22 98h-207
l47 225h207l95 443h380z" />
    <glyph glyph-name="uni20A9" unicode="&#x20a9;" horiz-adv-x="2074" 
d="M326 0l-17 727h-209l66 307h137l-8 400h403l2 -324q1 -108 -1.5 -226.5t-5.5 -183.5l-3 -65q89 217 195 432l180 367h319l33 -326q10 -107 17.5 -225t9.5 -183l2 -65q74 221 164 446l141 353h406l-172 -400h149l-66 -307h-217l-313 -727h-367l-79 739l-383 -739h-383z
" />
    <glyph glyph-name="uni20AA" unicode="&#x20aa;" horiz-adv-x="1841" 
d="M434 0l213 1001h336l-145 -692h350q177 0 215 174l201 951h335l-217 -1024q-40 -189 -182.5 -299.5t-345.5 -110.5h-760zM2 0l305 1434h760q203 0 298.5 -110.5t55.5 -299.5l-127 -592h-336l111 518q19 86 -17 130t-124 44h-350l-240 -1124h-336z" />
    <glyph glyph-name="dong" unicode="&#x20ab;" horiz-adv-x="1351" 
d="M1026 -139l-47 -226h-977l47 226h977zM74 418q0 122 39.5 234.5t110 199t177 138.5t232.5 52q89 0 164 -32.5t108 -87.5l45 208h-274l49 226h272l17 78h368l-16 -78h100l-49 -226h-100l-240 -1130h-356l20 98q-38 -56 -112.5 -92.5t-149.5 -36.5q-182 0 -293.5 124.5
t-111.5 324.5zM434 477q0 -74 46.5 -120t121.5 -46q89 0 152 65t63 159q0 73 -46 119t-120 46q-89 0 -153 -64.5t-64 -158.5z" />
    <glyph glyph-name="Euro" unicode="&#x20ac;" horiz-adv-x="1411" 
d="M952 952l-90 -186h-196l-21 -98h248l-92 -187h-183q7 -66 50.5 -103.5t109.5 -37.5q81 0 125.5 44.5t69.5 131.5h381q-30 -129 -78.5 -226.5t-122 -171t-179 -111.5t-241.5 -38q-142 0 -256.5 59t-182.5 177t-63 276h-151l41 187h137l21 98h-138l39 186h139
q26 109 74 199t121 161.5t179 111.5t235 40q120 0 224 -42.5t174 -115t101.5 -174.5t10.5 -214h-379q12 72 -34 123t-128 51q-127 0 -184 -140h239z" />
    <glyph glyph-name="uni20B1" unicode="&#x20b1;" horiz-adv-x="1519" 
d="M154 0l147 692h-188l49 226h186l10 40h-188l47 226h189l53 250h450q153 0 263.5 -66t156.5 -184h262l-47 -226h-188q0 -12 -4 -40h184l-49 -226h-230q-79 -115 -202.5 -181.5t-263.5 -66.5h-152l-96 -444h-389zM715 807h84q44 0 77.5 16t51.5 41.5t26.5 52.5t8.5 54
q0 44 -29 71t-80 27h-84z" />
    <glyph glyph-name="uni20B4" unicode="&#x20b4;" horiz-adv-x="1474" 
d="M637 -31q-192 0 -318 98.5t-126 260.5q0 104 45 176h-152l39 186h1305l-39 -186h-740q-63 -32 -63 -92q0 -37 28.5 -58.5t77.5 -21.5q58 0 98.5 27.5t49.5 70.5h389q-45 -214 -206 -337.5t-388 -123.5zM137 748l39 186h713q78 35 78 100q0 30 -23.5 48t-62.5 18
q-45 0 -79.5 -24.5t-51.5 -67.5h-388q43 201 195.5 328.5t382.5 127.5q182 0 298 -96.5t116 -253.5q0 -101 -43 -180h170l-39 -186h-1305z" />
    <glyph glyph-name="uni20BA" unicode="&#x20ba;" horiz-adv-x="1357" 
d="M162 0l86 406l-189 -72l66 309l188 72l19 86l-189 -72l66 309l188 72l70 324h389l-35 -162l299 114l-65 -309l-299 -114l-19 -86l299 114l-65 -309l-299 -115l-43 -198h133q67 0 114 38.5t62 106.5l8 43h389l-12 -61q-49 -229 -222 -362.5t-419 -133.5h-520z" />
    <glyph glyph-name="uni20BD" unicode="&#x20bd;" horiz-adv-x="1320" 
d="M8 131l66 305h139l29 139h-140l66 306h139l117 553h491q97 0 186 -28.5t160 -87t97.5 -147.5t-0.5 -210q-47 -186 -194.5 -286t-377.5 -100h-157l-29 -139h293l-66 -305h-292l-29 -131h-387l28 131h-139zM694 881h119q63 0 104 29t50 65q11 46 -14.5 79t-84.5 33h-131z
" />
    <glyph glyph-name="uni20BF" unicode="&#x20bf;" horiz-adv-x="1177" 
d="M723 1675l-51 -241h67q43 0 97 -7l51 248h246l-68 -327q125 -86 125 -240q0 -101 -56.5 -203.5t-166.5 -148.5q61 -26 98 -92.5t37 -165.5q0 -165 -85.5 -283t-230.5 -174l-61 -287h-246l51 246h-163l-52 -246h-245l51 246h-123l305 1434h123l51 241h246zM457 322h114
q63 0 99.5 41.5t36.5 99.5q0 43 -27 68.5t-76 25.5h-98zM573 877h70q76 0 110.5 41t34.5 104q0 90 -114 90h-49z" />
    <glyph glyph-name="uni2116" unicode="&#x2116;" horiz-adv-x="2385" 
d="M1960 1464q113 0 208.5 -42t156 -116t86 -174t-0.5 -217q-43 -201 -197 -329.5t-378 -128.5q-108 0 -201.5 43.5t-155 116.5t-86.5 175t-1 214q43 198 197.5 328t371.5 130zM2 0l305 1434h381l60 -242q26 -104 51.5 -220t38.5 -180l12 -65q33 231 82 469l51 238h379
l-305 -1434h-344l-80 313q-26 105 -52 221t-39 180l-12 64q-33 -231 -84 -469l-65 -309h-379zM1194 0l74 346h1001l-74 -346h-1001zM1724 971q-15 -73 28 -128t120 -55q76 0 132.5 47t74.5 121q18 69 -24.5 123t-119.5 54q-78 0 -137 -45t-74 -117z" />
    <glyph glyph-name="uni2117" unicode="&#x2117;" horiz-adv-x="1660" 
d="M834 -31q-197 0 -359.5 93t-255 253t-92.5 351q0 159 65 307t173 255.5t254 171.5t301 64q196 0 358.5 -92.5t255 -252t92.5 -351.5q0 -159 -65 -306.5t-173 -255.5t-253.5 -172.5t-300.5 -64.5zM272 676q0 -156 74 -286.5t203 -205.5t285 -75q127 0 246.5 52.5t207 140
t140.5 208.5t53 252q0 117 -43.5 221.5t-118 180t-178.5 119.5t-221 44q-127 0 -246.5 -52.5t-207.5 -140t-141 -208t-53 -250.5zM563 326l168 788h244q115 0 189.5 -71.5t74.5 -178.5q0 -132 -100 -222.5t-240 -90.5h-51l-49 -225h-236zM893 760h20q41 0 66 27t25 61
q0 24 -16.5 38.5t-43.5 14.5h-22z" />
    <glyph glyph-name="trademark" unicode="&#x2122;" horiz-adv-x="1777" 
d="M844 717v717h387l80 -265l78 265h378v-717h-258v350l-106 -350h-193l-108 354v-354h-258zM225 1188v246h545v-246h-133v-471h-279v471h-133z" />
    <glyph glyph-name="uni2126" unicode="&#x2126;" horiz-adv-x="1566" 
d="M-35 0l80 371h236q-58 57 -92.5 147.5t-34.5 194.5q0 143 57.5 277.5t160 240t258 169.5t337.5 64q259 0 419 -150.5t160 -393.5q0 -150 -80.5 -310t-214.5 -239h217l-79 -371h-660l76 350q148 94 241 224t93 280q0 109 -61.5 170t-170.5 61q-106 0 -191 -60.5t-129 -153
t-44 -195.5q0 -185 157 -326l-75 -350h-660z" />
    <glyph glyph-name="oneeighth" unicode="&#x215b;" horiz-adv-x="1644" 
d="M614 1436l-182 -861h-237l104 496h-149l47 215h20q68 0 111 38.5t55 92.5l4 19h227zM131 0l956 1434h324l-958 -1434h-322zM903 215q0 71 42.5 140t111.5 96q-56 62 -56 131q0 129 94 213t230 84q129 0 209 -58t80 -157q0 -141 -129 -213q67 -70 67 -160
q0 -134 -101 -221.5t-243 -87.5q-136 0 -220.5 63.5t-84.5 169.5zM1145 242q0 -26 20 -43t49 -17q37 0 69 26t32 60q0 28 -20.5 47t-49.5 19q-37 0 -68.5 -28t-31.5 -64zM1221 612q-6 -31 14.5 -53t54.5 -22q38 0 69.5 29t31.5 63q0 26 -19.5 43.5t-48.5 17.5
q-36 0 -65 -22.5t-37 -55.5z" />
    <glyph glyph-name="threeeighths" unicode="&#x215c;" horiz-adv-x="1804" 
d="M403 557q-151 0 -232.5 83.5t-51.5 215.5h235q-6 -32 12 -56t52 -24q36 0 62 21t26 51q0 25 -20 43t-58 18h-39l43 205h37q46 0 72 22t26 54q0 21 -16 33t-41 12q-35 0 -59.5 -19.5t-30.5 -50.5h-232q31 141 126 215t225 74q129 0 200.5 -56.5t71.5 -156.5
q0 -57 -33.5 -118.5t-109.5 -106.5q80 -44 80 -146q0 -140 -98.5 -226.5t-246.5 -86.5zM289 0l956 1434h324l-959 -1434h-321zM1061 215q0 71 42 140t111 96q-55 61 -55 131q0 129 94 213t230 84q129 0 209 -58t80 -157q0 -23 -5 -47t-17.5 -54.5t-40 -60t-67.5 -51.5
q68 -71 68 -160q0 -134 -101 -221.5t-243 -87.5q-136 0 -220.5 63.5t-84.5 169.5zM1303 242q0 -26 20 -43t49 -17q37 0 69 26t32 60q0 28 -20.5 47t-49.5 19q-37 0 -68.5 -28t-31.5 -64zM1378 612q-6 -31 15 -53t55 -22q38 0 69 29t31 63q0 26 -19 43.5t-48 17.5
q-36 0 -65.5 -22.5t-37.5 -55.5z" />
    <glyph glyph-name="fiveeighths" unicode="&#x215d;" horiz-adv-x="1843" 
d="M403 557q-142 0 -228.5 87.5t-63.5 217.5h235q0 -35 19 -55.5t55 -20.5q40 0 74 34.5t34 78.5q0 30 -18.5 49t-48.5 19q-58 0 -86 -39h-221l149 508h531l-48 -228h-317l-31 -80q43 21 97 21q108 0 171.5 -57t63.5 -162q0 -157 -106 -265t-261 -108zM328 0l956 1434h324
l-959 -1434h-321zM1100 215q0 71 42 140t111 96q-55 61 -55 131q0 129 94 213t230 84q129 0 208.5 -58t79.5 -157q0 -141 -129 -213q68 -71 68 -160q0 -134 -101 -221.5t-243 -87.5q-136 0 -220.5 63.5t-84.5 169.5zM1341 242q0 -26 20 -43t50 -17q37 0 68.5 26t31.5 60
q0 28 -20 47t-49 19q-38 0 -69.5 -28t-31.5 -64zM1417 612q-6 -31 15 -53t55 -22q38 0 69 29t31 63q0 26 -19 43.5t-48 17.5q-36 0 -65.5 -22.5t-37.5 -55.5z" />
    <glyph glyph-name="seveneighths" unicode="&#x215e;" horiz-adv-x="1716" 
d="M94 575l408 633h-316l47 228h601l-43 -201l-424 -660h-273zM203 0l956 1434h324l-959 -1434h-321zM975 215q0 71 42 140t111 96q-55 61 -55 131q0 129 94 213t230 84q129 0 209 -58t80 -157q0 -23 -5 -47t-17.5 -54.5t-40 -60t-67.5 -51.5q68 -71 68 -160
q0 -134 -101 -221.5t-243 -87.5q-136 0 -220.5 63.5t-84.5 169.5zM1217 242q0 -26 20 -43t49 -17q37 0 68.5 26t31.5 60q0 28 -20 47t-49 19q-37 0 -68.5 -28t-31.5 -64zM1292 612q-6 -31 15 -53t55 -22q38 0 69 29t31 63q0 26 -19 43.5t-48 17.5q-36 0 -65.5 -22.5
t-37.5 -55.5z" />
    <glyph glyph-name="arrowleft" unicode="&#x2190;" horiz-adv-x="1599" 
d="M698 -31l-587 733l833 672l217 -272l-344 -268h770l-74 -347h-763l237 -284z" />
    <glyph glyph-name="arrowup" unicode="&#x2191;" horiz-adv-x="1591" 
d="M1550 616l-288 -235l-226 303l-143 -678h-369l144 672l-340 -264l-222 291l871 653z" />
    <glyph glyph-name="arrowright" unicode="&#x2192;" horiz-adv-x="1599" 
d="M729 -31l-217 273l344 268h-770l74 346h764l-238 285l289 233l588 -733z" />
    <glyph glyph-name="arrowdown" unicode="&#x2193;" horiz-adv-x="1589" 
d="M104 700l289 236l225 -303l144 678h368l-143 -672l340 264l221 -291l-870 -653z" />
    <glyph glyph-name="uni2196" unicode="&#x2196;" horiz-adv-x="1337" 
d="M37 203l209 1011h1024l-74 -350l-428 2l473 -614l-283 -232l-483 633l-84 -450h-354z" />
    <glyph glyph-name="uni2197" unicode="&#x2197;" horiz-adv-x="1343" 
d="M1184 207h-365l90 420l-682 -607l-229 261l694 616h-405l75 350h1043z" />
    <glyph glyph-name="uni2198" unicode="&#x2198;" horiz-adv-x="1337" 
d="M1348 1012l-209 -1012h-1024l73 350l428 -2l-473 615l283 231l483 -633l84 451h355z" />
    <glyph glyph-name="uni2199" unicode="&#x2199;" horiz-adv-x="1343" 
d="M211 1040h364l-90 -419l682 606l230 -260l-695 -617h406l-76 -350h-1042z" />
    <glyph glyph-name="partialdiff" unicode="&#x2202;" horiz-adv-x="1198" 
d="M524 -31q-216 0 -350.5 126t-134.5 321q0 145 73 274.5t194 206t257 76.5q33 0 47 -2l-207 463h431l256 -574q59 -130 59 -282q0 -134 -51.5 -249.5t-137.5 -193.5t-199.5 -122t-236.5 -44zM422 467q0 -64 38.5 -103.5t102.5 -39.5q78 0 132.5 57.5t54.5 140.5
q0 63 -37 102.5t-99 39.5q-78 0 -135 -57.5t-57 -139.5z" />
    <glyph glyph-name="emptyset" unicode="&#x2205;" horiz-adv-x="1683" 
d="M246 -117l-250 240l199 199q-68 139 -68 294q0 130 40.5 256t117 232t180 187t238 127t282.5 46q183 0 334 -80l149 146l258 -240l-157 -153q84 -144 84 -328q0 -164 -64.5 -317t-176 -268.5t-272.5 -185t-343 -69.5q-203 0 -365 97zM530 653q0 -25 2 -35l500 465
q-47 13 -88 13q-165 0 -289.5 -131.5t-124.5 -311.5zM715 360q58 -22 121 -22q165 0 289 128.5t124 307.5q0 35 -6 70z" />
    <glyph glyph-name="uni2206" unicode="&#x2206;" horiz-adv-x="1198" 
d="M-51 0l67 317l592 1117h377l121 -1117l-68 -317h-1089zM440 371h291l-33 516z" />
    <glyph glyph-name="product" unicode="&#x220f;" horiz-adv-x="1331" 
d="M0 0l305 1432h1116l-305 -1432h-389l227 1061h-338l-227 -1061h-389z" />
    <glyph glyph-name="summation" unicode="&#x2211;" horiz-adv-x="1183" 
d="M965 844l-54 -250l-262 -223h428l-80 -371h-1022l68 317l500 439l-330 358l68 320h1022l-78 -373h-443z" />
    <glyph glyph-name="minus" unicode="&#x2212;" horiz-adv-x="1269" 
d="M1251 870l-71 -338h-1078l72 338h1077z" />
    <glyph glyph-name="radical" unicode="&#x221a;" horiz-adv-x="1386" 
d="M113 641l80 371h448l53 -406l416 828h442l-768 -1434h-397l-72 641h-202z" />
    <glyph glyph-name="infinity" unicode="&#x221e;" horiz-adv-x="2043" 
d="M1534 1233q212 0 342.5 -132t130.5 -335q0 -118 -47.5 -233.5t-129 -205t-199.5 -145t-249 -55.5q-130 0 -244 57t-157 129q-85 -85 -179 -136.5t-218 -51.5q-213 0 -342 131.5t-129 331.5q0 162 80 309.5t225.5 241.5t318.5 94q129 0 242.5 -56.5t157.5 -129.5
q88 84 183 135t214 51zM494 639q0 -69 40.5 -113.5t104.5 -44.5q162 0 272 197q-12 90 -65 145.5t-121 55.5q-105 0 -168 -72.5t-63 -167.5zM1233 678q12 -88 60 -142.5t104 -54.5q104 0 166.5 72t62.5 164q0 71 -40 116.5t-103 45.5q-139 0 -250 -201z" />
    <glyph glyph-name="integral" unicode="&#x222b;" horiz-adv-x="761" 
d="M-135 -385l65 309h29q48 0 75.5 23.5t39.5 81.5l221 1036q42 200 156 284.5t331 84.5h133l-65 -310h-80q-96 0 -117 -104l-219 -1034q-44 -204 -157 -287.5t-330 -83.5h-82z" />
    <glyph glyph-name="approxequal" unicode="&#x2248;" horiz-adv-x="1269" 
d="M115 729q22 105 58 188.5t78 138t92 91t100 52t102 15.5q59 0 120 -18t102 -39t86 -39t75 -18q70 0 94 108l332 4q-22 -105 -58 -188.5t-78 -138t-92 -91t-100 -52t-102 -15.5q-59 0 -119.5 18t-101.5 39.5t-85 39.5t-75 18q-33 0 -59 -29t-38 -82zM-2 176
q27 130 74.5 227t106.5 152t121 81t128 26q75 0 150.5 -29t135.5 -57.5t97 -28.5q70 0 94 108l332 4q-22 -105 -58 -188.5t-78 -138t-92 -91t-100 -52t-102 -15.5q-75 0 -150 29t-134.5 57.5t-96.5 28.5q-33 0 -58.5 -29t-37.5 -82z" />
    <glyph glyph-name="notequal" unicode="&#x2260;" horiz-adv-x="1269" 
d="M1151 1337l-94 -202h252l-72 -338h-336l-72 -158h375l-71 -338h-459l-92 -201h-369l92 201h-250l72 338h334l71 158h-372l71 338h457l94 202h369z" />
    <glyph glyph-name="lessequal" unicode="&#x2264;" horiz-adv-x="1269" 
d="M49 55l70 328h975l-70 -328h-975zM178 664l84 395l1026 237l-78 -360l-538 -92l502 -86l-70 -332z" />
    <glyph glyph-name="greaterequal" unicode="&#x2265;" horiz-adv-x="1269" 
d="M57 55l70 328h975l-70 -328h-975zM137 426l76 362l547 93l-510 86l72 329l923 -237l-84 -395z" />
    <glyph glyph-name="uni2460" unicode="&#x2460;" horiz-adv-x="1660" 
d="M834 -31q-197 0 -359.5 93t-255 253t-92.5 351q0 159 65 307t173 255.5t254 171.5t301 64q196 0 358.5 -92.5t255 -252t92.5 -351.5q0 -159 -65 -306.5t-173 -255.5t-253.5 -172.5t-300.5 -64.5zM272 676q0 -156 74 -286.5t203 -205.5t285 -75q127 0 246.5 52.5t207 140
t140.5 208.5t53 252q0 117 -43.5 221.5t-118 180t-178.5 119.5t-221 44q-127 0 -246.5 -52.5t-207.5 -140t-141 -208t-53 -250.5zM639 803l47 215h21q68 0 110.5 38.5t54.5 92.5l5 18h227l-182 -860h-238l104 496h-149z" />
    <glyph glyph-name="uni2461" unicode="&#x2461;" horiz-adv-x="1660" 
d="M834 -31q-197 0 -359.5 93t-255 253t-92.5 351q0 159 65 307t173 255.5t254 171.5t301 64q196 0 358.5 -92.5t255 -252t92.5 -351.5q0 -159 -65 -306.5t-173 -255.5t-253.5 -172.5t-300.5 -64.5zM272 676q0 -156 74 -286.5t203 -205.5t285 -75q127 0 246.5 52.5t207 140
t140.5 208.5t53 252q0 117 -43.5 221.5t-118 180t-178.5 119.5t-221 44q-127 0 -246.5 -52.5t-207.5 -140t-141 -208t-53 -250.5zM504 307l43 195l280 213q100 76 136 114t36 78q0 25 -16 38t-39 13q-70 0 -86 -112h-231q66 340 350 340q122 0 195 -67.5t73 -170.5
q0 -26 -5 -51.5t-11.5 -46t-21.5 -44.5t-24.5 -39.5t-32.5 -38.5t-34 -34.5t-40 -35t-39.5 -31.5t-43.5 -33t-41 -31l-34 -26h251l-49 -230h-616z" />
    <glyph glyph-name="uni2462" unicode="&#x2462;" horiz-adv-x="1660" 
d="M834 -31q-197 0 -359.5 93t-255 253t-92.5 351q0 159 65 307t173 255.5t254 171.5t301 64q196 0 358.5 -92.5t255 -252t92.5 -351.5q0 -159 -65 -306.5t-173 -255.5t-253.5 -172.5t-300.5 -64.5zM272 676q0 -156 74 -286.5t203 -205.5t285 -75q127 0 246.5 52.5t207 140
t140.5 208.5t53 252q0 117 -43.5 221.5t-118 180t-178.5 119.5t-221 44q-127 0 -246.5 -52.5t-207.5 -140t-141 -208t-53 -250.5zM530 588h236q-6 -32 11.5 -56t51.5 -24q36 0 62.5 21t26.5 51q0 25 -20 43t-58 18h-39l43 205h37q46 0 72 22t26 54q0 21 -16 33t-41 12
q-35 0 -60 -19.5t-31 -50.5h-231q31 141 125.5 215t224.5 74q129 0 201 -56.5t72 -156.5q0 -56 -34 -118t-110 -107q80 -44 80 -146q0 -140 -98 -226.5t-246 -86.5q-151 0 -233 83.5t-52 215.5z" />
    <glyph glyph-name="uni2463" unicode="&#x2463;" horiz-adv-x="1660" 
d="M834 -31q-197 0 -359.5 93t-255 253t-92.5 351q0 159 65 307t173 255.5t254 171.5t301 64q196 0 358.5 -92.5t255 -252t92.5 -351.5q0 -159 -65 -306.5t-173 -255.5t-253.5 -172.5t-300.5 -64.5zM272 676q0 -156 74 -286.5t203 -205.5t285 -75q127 0 246.5 52.5t207 140
t140.5 208.5t53 252q0 117 -43.5 221.5t-118 180t-178.5 119.5t-221 44q-127 0 -246.5 -52.5t-207.5 -140t-141 -208t-53 -250.5zM494 473l45 213l284 481h260l-272 -479h80l29 135h229l-29 -135h99l-48 -215h-98l-35 -166h-237l35 166h-342z" />
    <glyph glyph-name="uni2464" unicode="&#x2464;" horiz-adv-x="1660" 
d="M834 -31q-197 0 -359.5 93t-255 253t-92.5 351q0 159 65 307t173 255.5t254 171.5t301 64q196 0 358.5 -92.5t255 -252t92.5 -351.5q0 -159 -65 -306.5t-173 -255.5t-253.5 -172.5t-300.5 -64.5zM272 676q0 -156 74 -286.5t203 -205.5t285 -75q127 0 246.5 52.5t207 140
t140.5 208.5t53 252q0 117 -43.5 221.5t-118 180t-178.5 119.5t-221 44q-127 0 -246.5 -52.5t-207.5 -140t-141 -208t-53 -250.5zM494 594h235q0 -35 19 -55.5t55 -20.5q40 0 74 34.5t34 78.5q0 30 -18.5 48.5t-48.5 18.5q-58 0 -86 -39h-221l149 508h531l-48 -227h-317
l-31 -80q43 21 97 21q108 0 171.5 -57t63.5 -162q0 -157 -106 -265t-261 -108q-142 0 -228.5 87.5t-63.5 217.5z" />
    <glyph glyph-name="uni2465" unicode="&#x2465;" horiz-adv-x="1660" 
d="M834 -31q-197 0 -359.5 93t-255 253t-92.5 351q0 159 65 307t173 255.5t254 171.5t301 64q196 0 358.5 -92.5t255 -252t92.5 -351.5q0 -159 -65 -306.5t-173 -255.5t-253.5 -172.5t-300.5 -64.5zM272 676q0 -156 74 -286.5t203 -205.5t285 -75q127 0 246.5 52.5t207 140
t140.5 208.5t53 252q0 117 -43.5 221.5t-118 180t-178.5 119.5t-221 44q-127 0 -246.5 -52.5t-207.5 -140t-141 -208t-53 -250.5zM514 555q0 24 3.5 47t12.5 47.5t15.5 43t23.5 44.5t25 39.5t30 41.5t29.5 37.5t33 40t30.5 36.5l194 235h297l-243 -278q91 -14 152 -86
t61 -170q0 -137 -106 -240.5t-257 -103.5q-136 0 -218.5 72t-82.5 194zM752 586q0 -35 23.5 -57.5t58.5 -22.5q44 0 77 33t33 79q0 37 -24.5 60.5t-61.5 23.5q-43 0 -74.5 -33.5t-31.5 -82.5z" />
    <glyph glyph-name="uni2466" unicode="&#x2466;" horiz-adv-x="1660" 
d="M834 -31q-197 0 -359.5 93t-255 253t-92.5 351q0 159 65 307t173 255.5t254 171.5t301 64q196 0 358.5 -92.5t255 -252t92.5 -351.5q0 -159 -65 -306.5t-173 -255.5t-253.5 -172.5t-300.5 -64.5zM272 676q0 -156 74 -286.5t203 -205.5t285 -75q127 0 246.5 52.5t207 140
t140.5 208.5t53 252q0 117 -43.5 221.5t-118 180t-178.5 119.5t-221 44q-127 0 -246.5 -52.5t-207.5 -140t-141 -208t-53 -250.5zM510 307l408 633h-316l47 227h600l-43 -200l-424 -660h-272z" />
    <glyph glyph-name="uni2467" unicode="&#x2467;" horiz-adv-x="1660" 
d="M834 -31q-197 0 -359.5 93t-255 253t-92.5 351q0 159 65 307t173 255.5t254 171.5t301 64q196 0 358.5 -92.5t255 -252t92.5 -351.5q0 -159 -65 -306.5t-173 -255.5t-253.5 -172.5t-300.5 -64.5zM272 676q0 -156 74 -286.5t203 -205.5t285 -75q127 0 246.5 52.5t207 140
t140.5 208.5t53 252q0 117 -43.5 221.5t-118 180t-178.5 119.5t-221 44q-127 0 -246.5 -52.5t-207.5 -140t-141 -208t-53 -250.5zM516 522q0 71 42.5 140t111.5 96q-56 62 -56 131q0 129 94 213t230 84q129 0 209 -58t80 -157q0 -141 -129 -213q67 -70 67 -160
q0 -134 -101 -221.5t-243 -87.5q-136 0 -220.5 63.5t-84.5 169.5zM758 549q0 -26 20 -43t49 -17q37 0 69 26t32 60q0 28 -20.5 47t-49.5 19q-37 0 -68.5 -28t-31.5 -64zM834 920q-6 -31 14.5 -53.5t54.5 -22.5q38 0 69.5 29t31.5 63q0 26 -19.5 43.5t-48.5 17.5
q-36 0 -65 -22t-37 -55z" />
    <glyph glyph-name="uni2468" unicode="&#x2468;" horiz-adv-x="1660" 
d="M834 -31q-197 0 -359.5 93t-255 253t-92.5 351q0 159 65 307t173 255.5t254 171.5t301 64q196 0 358.5 -92.5t255 -252t92.5 -351.5q0 -159 -65 -306.5t-173 -255.5t-253.5 -172.5t-300.5 -64.5zM272 676q0 -156 74 -286.5t203 -205.5t285 -75q127 0 246.5 52.5t207 140
t140.5 208.5t53 252q0 117 -43.5 221.5t-118 180t-178.5 119.5t-221 44q-127 0 -246.5 -52.5t-207.5 -140t-141 -208t-53 -250.5zM549 307l244 279q-91 14 -152 86t-61 170q0 138 105.5 241t256.5 103q136 0 218.5 -72t82.5 -194q0 -24 -3.5 -47t-12.5 -47.5t-15.5 -43
t-23.5 -44.5t-25 -39.5t-30 -41.5t-29.5 -37.5t-33 -40t-30.5 -36.5l-194 -236h-297zM813 856q0 -37 24.5 -60.5t61.5 -23.5q43 0 75 34t32 83q0 35 -23.5 57.5t-58.5 22.5q-44 0 -77.5 -33.5t-33.5 -79.5z" />
    <glyph glyph-name="lozenge" unicode="&#x25ca;" horiz-adv-x="1216" 
d="M113 715l563 719h258l262 -719l-567 -715h-258zM444 682l113 -313l291 379l-107 309z" />
    <glyph glyph-name="circle" unicode="&#x25cb;" horiz-adv-x="1660" 
d="M834 -31q-197 0 -359.5 93t-255 253t-92.5 351q0 159 65 307t173 255.5t254 171.5t301 64q196 0 358.5 -92.5t255 -252t92.5 -351.5q0 -159 -65 -306.5t-173 -255.5t-253.5 -172.5t-300.5 -64.5zM272 676q0 -156 74 -286.5t203 -205.5t285 -75q127 0 246.5 52.5t207 140
t140.5 208.5t53 252q0 117 -43.5 221.5t-118 180t-178.5 119.5t-221 44q-127 0 -246.5 -52.5t-207.5 -140t-141 -208t-53 -250.5z" />
    <glyph glyph-name="uni25CF" unicode="&#x25cf;" horiz-adv-x="1660" 
d="M834 -31q-197 0 -359.5 93t-255 253t-92.5 351q0 159 65 307t173 255.5t254 171.5t301 64q196 0 358.5 -92.5t255 -252t92.5 -351.5q0 -159 -65 -306.5t-173 -255.5t-253.5 -172.5t-300.5 -64.5z" />
    <glyph glyph-name="uniE132" unicode="&#xe132;" horiz-adv-x="1073" 
d="M199 1012h368l-217 -1012h-368zM233 1114l232 338h403l-303 -338h-332zM289 -385l69 330h60q79 0 94 82l211 985h369l-224 -1045q-15 -69 -35 -121t-42.5 -89.5t-54.5 -63t-64 -41t-79 -24t-90 -11t-106 -2.5h-108zM758 1114l231 338h404l-303 -338h-332z" />
    <glyph glyph-name="uniE133" unicode="&#xe133;" horiz-adv-x="1310" 
d="M305 1434h389l-305 -1434h-389zM344 1518l219 282h418l-309 -282h-328zM506 0l80 369h59q74 0 117 30t61 111l197 924h389l-215 -1010q-44 -205 -175 -314.5t-331 -109.5h-182zM1067 1518l219 282h418l-309 -282h-328z" />
    <glyph glyph-name="S.ss02" horiz-adv-x="1155" 
d="M465 0q-105 0 -192.5 34t-144 94.5t-78.5 145.5t5 187l6 24h390l-7 -30q-9 -45 15 -82t67 -37h64q52 0 74 33t22 75q0 30 -18 47t-54 29l-223 78q-100 33 -158.5 104t-58.5 203q0 101 31 193.5t89.5 168.5t156 121.5t219.5 45.5h139q190 0 291.5 -118t64.5 -292l-16 -78
h-389l12 60q7 37 -13.5 61.5t-58.5 24.5h-45q-41 0 -67.5 -28.5t-26.5 -66.5q0 -31 19.5 -48t56.5 -29l194 -64q129 -41 191.5 -121.5t62.5 -204.5q0 -103 -28 -195.5t-83.5 -168.5t-147.5 -121t-210 -45h-151z" />
    <glyph glyph-name="Sacute.ss02" horiz-adv-x="1155" 
d="M465 0q-105 0 -192.5 34t-144 94.5t-78.5 145.5t5 187l6 24h390l-7 -30q-9 -45 15 -82t67 -37h64q52 0 74 33t22 75q0 30 -18 47t-54 29l-223 78q-100 33 -158.5 104t-58.5 203q0 101 31 193.5t89.5 168.5t156 121.5t219.5 45.5h139q190 0 291.5 -118t64.5 -292l-16 -78
h-389l12 60q7 37 -13.5 61.5t-58.5 24.5h-45q-41 0 -67.5 -28.5t-26.5 -66.5q0 -31 19.5 -48t56.5 -29l194 -64q129 -41 191.5 -121.5t62.5 -204.5q0 -103 -28 -195.5t-83.5 -168.5t-147.5 -121t-210 -45h-151zM606 1518l219 282h418l-309 -282h-328z" />
    <glyph glyph-name="Scaron.ss02" horiz-adv-x="1155" 
d="M465 0q-105 0 -192.5 34t-144 94.5t-78.5 145.5t5 187l6 24h390l-7 -30q-9 -45 15 -82t67 -37h64q52 0 74 33t22 75q0 30 -18 47t-54 29l-223 78q-100 33 -158.5 104t-58.5 203q0 101 31 193.5t89.5 168.5t156 121.5t219.5 45.5h139q190 0 291.5 -118t64.5 -292l-16 -78
h-389l12 60q7 37 -13.5 61.5t-58.5 24.5h-45q-41 0 -67.5 -28.5t-26.5 -66.5q0 -31 19.5 -48t56.5 -29l194 -64q129 -41 191.5 -121.5t62.5 -204.5q0 -103 -28 -195.5t-83.5 -168.5t-147.5 -121t-210 -45h-151zM410 1821h360l49 -105l96 105h361l-295 -303h-408z" />
    <glyph glyph-name="Scedilla.ss02" horiz-adv-x="1155" 
d="M55 461l6 24h390l-7 -30q-9 -45 15 -82t67 -37h64q52 0 74 33t22 75q0 30 -18 47t-54 29l-223 78q-100 33 -158.5 104t-58.5 203q0 101 31 193.5t89.5 168.5t156 121.5t219.5 45.5h139q190 0 291.5 -118t64.5 -292l-16 -78h-389l12 60q7 37 -13.5 61.5t-58.5 24.5h-45
q-41 0 -67.5 -28.5t-26.5 -66.5q0 -31 19.5 -48t56.5 -29l194 -64q129 -41 191.5 -121.5t62.5 -204.5q0 -100 -26.5 -191t-79 -166t-139.5 -121.5t-199 -51.5l-80 -109h4q72 0 118 -50t46 -128q0 -105 -72 -185.5t-192 -80.5h-221l37 168h165q36 0 61 20t25 50q0 21 -16 34
t-45 13h-145l28 139l88 129q-100 4 -183 39.5t-136.5 96t-73.5 143.5t6 182z" />
    <glyph glyph-name="Scircumflex.ss02" horiz-adv-x="1155" 
d="M465 0q-105 0 -192.5 34t-144 94.5t-78.5 145.5t5 187l6 24h390l-7 -30q-9 -45 15 -82t67 -37h64q52 0 74 33t22 75q0 30 -18 47t-54 29l-223 78q-100 33 -158.5 104t-58.5 203q0 101 31 193.5t89.5 168.5t156 121.5t219.5 45.5h139q190 0 291.5 -118t64.5 -292l-16 -78
h-389l12 60q7 37 -13.5 61.5t-58.5 24.5h-45q-41 0 -67.5 -28.5t-26.5 -66.5q0 -31 19.5 -48t56.5 -29l194 -64q129 -41 191.5 -121.5t62.5 -204.5q0 -103 -28 -195.5t-83.5 -168.5t-147.5 -121t-210 -45h-151zM342 1518l291 307h405l172 -307h-358l-45 110l-94 -110h-371z
" />
    <glyph glyph-name="uni0218.ss02" horiz-adv-x="1155" 
d="M465 0q-105 0 -192.5 34t-144 94.5t-78.5 145.5t5 187l6 24h390l-7 -30q-9 -45 15 -82t67 -37h64q52 0 74 33t22 75q0 30 -18 47t-54 29l-223 78q-100 33 -158.5 104t-58.5 203q0 101 31 193.5t89.5 168.5t156 121.5t219.5 45.5h139q190 0 291.5 -118t64.5 -292l-16 -78
h-389l12 60q7 37 -13.5 61.5t-58.5 24.5h-45q-41 0 -67.5 -28.5t-26.5 -66.5q0 -31 19.5 -48t56.5 -29l194 -64q129 -41 191.5 -121.5t62.5 -204.5q0 -103 -28 -195.5t-83.5 -168.5t-147.5 -121t-210 -45h-151zM68 -385l241 293h387l-295 -293h-333z" />
    <glyph glyph-name="C.titl" horiz-adv-x="1245" 
d="M475 575q-23 -109 21.5 -172t132.5 -63q81 0 125 44.5t69 131.5h381q-30 -129 -78.5 -226.5t-122 -171t-179 -111.5t-240.5 -38q-121 0 -223 44t-172.5 127.5t-96.5 204.5t6 276l68 313q24 112 71 205t120 167.5t180.5 116t240.5 41.5q120 0 224 -42.5t174 -115
t101.5 -174.5t10.5 -214h-379q12 72 -33.5 123t-127.5 51t-134 -57.5t-75 -160.5z" />
    <glyph glyph-name="Cacute.titl" horiz-adv-x="1245" 
d="M475 575q-23 -109 21.5 -172t132.5 -63q81 0 125 44.5t69 131.5h381q-30 -129 -78.5 -226.5t-122 -171t-179 -111.5t-240.5 -38q-121 0 -223 44t-172.5 127.5t-96.5 204.5t6 276l68 313q24 112 71 205t120 167.5t180.5 116t240.5 41.5q120 0 224 -42.5t174 -115
t101.5 -174.5t10.5 -214h-379q12 72 -33.5 123t-127.5 51t-134 -57.5t-75 -160.5zM653 1518l219 282h418l-309 -282h-328z" />
    <glyph glyph-name="Ccaron.titl" horiz-adv-x="1245" 
d="M475 575q-23 -109 21.5 -172t132.5 -63q81 0 125 44.5t69 131.5h381q-30 -129 -78.5 -226.5t-122 -171t-179 -111.5t-240.5 -38q-121 0 -223 44t-172.5 127.5t-96.5 204.5t6 276l68 313q24 112 71 205t120 167.5t180.5 116t240.5 41.5q120 0 224 -42.5t174 -115
t101.5 -174.5t10.5 -214h-379q12 72 -33.5 123t-127.5 51t-134 -57.5t-75 -160.5zM457 1821h360l49 -105l97 105h360l-295 -303h-407z" />
    <glyph glyph-name="Ccedilla.titl" horiz-adv-x="1245" 
d="M475 575q-23 -109 21.5 -172t132.5 -63q81 0 125 44.5t69 131.5h381q-57 -242 -183.5 -380.5t-348.5 -162.5l-62 -82h4q72 0 118 -50t46 -128q0 -105 -72 -185.5t-192 -80.5h-221l37 168h166q36 0 61 20t25 50q0 21 -16.5 34t-45.5 13h-145l28 139l74 109
q-101 18 -182.5 68.5t-136 132.5t-71.5 192.5t11 247.5l68 313q24 112 71 205t120 167.5t180.5 116t240.5 41.5q120 0 224 -42.5t174 -115t101.5 -174.5t10.5 -214h-379q12 72 -33.5 123t-127.5 51t-134 -57.5t-75 -160.5z" />
    <glyph glyph-name="Ccircumflex.titl" horiz-adv-x="1245" 
d="M475 575q-23 -109 21.5 -172t132.5 -63q81 0 125 44.5t69 131.5h381q-30 -129 -78.5 -226.5t-122 -171t-179 -111.5t-240.5 -38q-121 0 -223 44t-172.5 127.5t-96.5 204.5t6 276l68 313q24 112 71 205t120 167.5t180.5 116t240.5 41.5q120 0 224 -42.5t174 -115
t101.5 -174.5t10.5 -214h-379q12 72 -33.5 123t-127.5 51t-134 -57.5t-75 -160.5zM389 1518l291 307h405l172 -307h-358l-45 110l-94 -110h-371z" />
    <glyph glyph-name="Cdotaccent.titl" horiz-adv-x="1245" 
d="M475 575q-23 -109 21.5 -172t132.5 -63q81 0 125 44.5t69 131.5h381q-30 -129 -78.5 -226.5t-122 -171t-179 -111.5t-240.5 -38q-121 0 -223 44t-172.5 127.5t-96.5 204.5t6 276l68 313q24 112 71 205t120 167.5t180.5 116t240.5 41.5q120 0 224 -42.5t174 -115
t101.5 -174.5t10.5 -214h-379q12 72 -33.5 123t-127.5 51t-134 -57.5t-75 -160.5zM627 1518l65 307h393l-65 -307h-393z" />
    <glyph glyph-name="D.titl" horiz-adv-x="1271" 
d="M575 0h-575l305 1434h455q314 0 442 -154t68 -436l-62 -295q-54 -258 -222 -403.5t-411 -145.5zM467 371h108q101 0 164.5 56t85.5 163l54 254q22 103 -19 160t-137 57h-109z" />
    <glyph glyph-name="Eth.titl" horiz-adv-x="1337" 
d="M68 535l79 372h111l113 527h454q314 0 442 -154t68 -436l-61 -295q-54 -258 -222 -403.5t-411 -145.5h-575l114 535h-112zM532 371h109q101 0 164.5 56t85.5 163l53 254q22 103 -19 160t-137 57h-108l-33 -154h178l-80 -372h-178z" />
    <glyph glyph-name="Dcaron.titl" horiz-adv-x="1271" 
d="M575 0h-575l305 1434h455q314 0 442 -154t68 -436l-62 -295q-54 -258 -222 -403.5t-411 -145.5zM426 1821h360l50 -105l96 105h360l-295 -303h-407zM467 371h108q101 0 164.5 56t85.5 163l54 254q22 103 -19 160t-137 57h-109z" />
    <glyph glyph-name="Dcroat.titl" horiz-adv-x="1337" 
d="M68 535l79 372h111l113 527h454q314 0 442 -154t68 -436l-61 -295q-54 -258 -222 -403.5t-411 -145.5h-575l114 535h-112zM532 371h109q101 0 164.5 56t85.5 163l53 254q22 103 -19 160t-137 57h-108l-33 -154h178l-80 -372h-178z" />
    <glyph glyph-name="uni018F.titl" horiz-adv-x="1269" 
d="M543 -31q-169 0 -285.5 65t-164.5 193.5t-11 304.5l68 322h735l4 20q22 99 -15.5 158.5t-121.5 59.5q-63 0 -114.5 -43t-72.5 -105h-397q56 231 235.5 375.5t421.5 144.5q264 0 385 -166t62 -444l-58 -274q-60 -283 -235 -447t-436 -164zM449 492q-12 -56 28.5 -104
t110.5 -48q73 0 132 46t87 124h-354z" />
    <glyph glyph-name="G.titl" horiz-adv-x="1273" 
d="M606 -31q-129 0 -236 44t-179 127.5t-98.5 204.5t5.5 276l68 313q24 112 71 205t120.5 167.5t181.5 116t241 41.5q117 0 221.5 -42.5t175 -112.5t102.5 -166.5t11 -198.5h-397q8 62 -29.5 105t-113.5 43q-161 0 -209 -218l-66 -299q-24 -109 21.5 -172t134.5 -63
q81 0 130.5 47.5t59.5 110.5l2 12h-170l74 344h545l-74 -354q-24 -113 -71 -206.5t-118.5 -167.5t-174.5 -115.5t-228 -41.5z" />
    <glyph glyph-name="Gbreve.titl" horiz-adv-x="1273" 
d="M606 -31q-129 0 -236 44t-179 127.5t-98.5 204.5t5.5 276l68 313q24 112 71 205t120.5 167.5t181.5 116t241 41.5q117 0 221.5 -42.5t175 -112.5t102.5 -166.5t11 -198.5h-397q8 62 -29.5 105t-113.5 43q-161 0 -209 -218l-66 -299q-24 -109 21.5 -172t134.5 -63
q81 0 130.5 47.5t59.5 110.5l2 12h-170l74 344h545l-74 -354q-24 -113 -71 -206.5t-118.5 -167.5t-174.5 -115.5t-228 -41.5zM512 1812h299q-12 -44 6 -71t55 -27q75 0 95 98h297q-31 -148 -137.5 -232.5t-260.5 -84.5q-178 0 -276 82.5t-78 234.5z" />
    <glyph glyph-name="Gcaron.titl" horiz-adv-x="1273" 
d="M606 -31q-129 0 -236 44t-179 127.5t-98.5 204.5t5.5 276l68 313q24 112 71 205t120.5 167.5t181.5 116t241 41.5q117 0 221.5 -42.5t175 -112.5t102.5 -166.5t11 -198.5h-397q8 62 -29.5 105t-113.5 43q-161 0 -209 -218l-66 -299q-24 -109 21.5 -172t134.5 -63
q81 0 130.5 47.5t59.5 110.5l2 12h-170l74 344h545l-74 -354q-24 -113 -71 -206.5t-118.5 -167.5t-174.5 -115.5t-228 -41.5zM457 1821h360l49 -105l97 105h360l-295 -303h-407z" />
    <glyph glyph-name="Gcircumflex.titl" horiz-adv-x="1273" 
d="M606 -31q-129 0 -236 44t-179 127.5t-98.5 204.5t5.5 276l68 313q24 112 71 205t120.5 167.5t181.5 116t241 41.5q117 0 221.5 -42.5t175 -112.5t102.5 -166.5t11 -198.5h-397q8 62 -29.5 105t-113.5 43q-161 0 -209 -218l-66 -299q-24 -109 21.5 -172t134.5 -63
q81 0 130.5 47.5t59.5 110.5l2 12h-170l74 344h545l-74 -354q-24 -113 -71 -206.5t-118.5 -167.5t-174.5 -115.5t-228 -41.5zM389 1518l291 307h405l172 -307h-358l-45 110l-94 -110h-371z" />
    <glyph glyph-name="uni0122.titl" horiz-adv-x="1273" 
d="M606 -31q-129 0 -236 44t-179 127.5t-98.5 204.5t5.5 276l68 313q24 112 71 205t120.5 167.5t181.5 116t241 41.5q117 0 221.5 -42.5t175 -112.5t102.5 -166.5t11 -198.5h-397q8 62 -29.5 105t-113.5 43q-161 0 -209 -218l-66 -299q-24 -109 21.5 -172t134.5 -63
q81 0 130.5 47.5t59.5 110.5l2 12h-170l74 344h545l-74 -354q-24 -113 -71 -206.5t-118.5 -167.5t-174.5 -115.5t-228 -41.5zM117 -385l241 293h387l-294 -293h-334z" />
    <glyph glyph-name="Gdotaccent.titl" horiz-adv-x="1273" 
d="M606 -31q-129 0 -236 44t-179 127.5t-98.5 204.5t5.5 276l68 313q24 112 71 205t120.5 167.5t181.5 116t241 41.5q117 0 221.5 -42.5t175 -112.5t102.5 -166.5t11 -198.5h-397q8 62 -29.5 105t-113.5 43q-161 0 -209 -218l-66 -299q-24 -109 21.5 -172t134.5 -63
q81 0 130.5 47.5t59.5 110.5l2 12h-170l74 344h545l-74 -354q-24 -113 -71 -206.5t-118.5 -167.5t-174.5 -115.5t-228 -41.5zM627 1518l65 307h393l-65 -307h-393z" />
    <glyph glyph-name="M.titl" horiz-adv-x="1693" 
d="M0 0l305 1434h537l6 -916l399 916h537l-305 -1434h-369l100 469q23 106 49.5 222t42.5 179l15 64q-89 -217 -187 -438l-221 -496h-352l-2 457q-1 108 0 226.5t3 183.5l1 65q-41 -229 -92 -467l-98 -465h-369z" />
    <glyph glyph-name="O.titl" horiz-adv-x="1294" 
d="M596 -31q-124 0 -228.5 44t-176.5 127.5t-98.5 204.5t5.5 276l68 313q24 112 72.5 205.5t123.5 167.5t185 115.5t244 41.5q124 0 229 -44t176 -127.5t97.5 -204t-5.5 -273.5l-67 -315q-24 -113 -72 -206.5t-123 -167.5t-185 -115.5t-245 -41.5zM477 575q-22 -109 24 -172
t134 -63q81 0 135 58t76 159l63 297q24 110 -22 174t-133 64q-82 0 -136 -58t-77 -160z" />
    <glyph glyph-name="Oacute.titl" horiz-adv-x="1294" 
d="M596 -31q-124 0 -228.5 44t-176.5 127.5t-98.5 204.5t5.5 276l68 313q24 112 72.5 205.5t123.5 167.5t185 115.5t244 41.5q124 0 229 -44t176 -127.5t97.5 -204t-5.5 -273.5l-67 -315q-24 -113 -72 -206.5t-123 -167.5t-185 -115.5t-245 -41.5zM477 575q-22 -109 24 -172
t134 -63q81 0 135 58t76 159l63 297q24 110 -22 174t-133 64q-82 0 -136 -58t-77 -160zM635 1518l219 282h418l-309 -282h-328z" />
    <glyph glyph-name="Obreve.titl" horiz-adv-x="1294" 
d="M596 -31q-124 0 -228.5 44t-176.5 127.5t-98.5 204.5t5.5 276l68 313q24 112 72.5 205.5t123.5 167.5t185 115.5t244 41.5q124 0 229 -44t176 -127.5t97.5 -204t-5.5 -273.5l-67 -315q-24 -113 -72 -206.5t-123 -167.5t-185 -115.5t-245 -41.5zM477 575q-22 -109 24 -172
t134 -63q81 0 135 58t76 159l63 297q24 110 -22 174t-133 64q-82 0 -136 -58t-77 -160zM494 1812h299q-12 -44 6 -71t55 -27q74 0 94 98h297q-31 -148 -137 -232.5t-260 -84.5q-178 0 -276 82.5t-78 234.5z" />
    <glyph glyph-name="Ocircumflex.titl" horiz-adv-x="1294" 
d="M596 -31q-124 0 -228.5 44t-176.5 127.5t-98.5 204.5t5.5 276l68 313q24 112 72.5 205.5t123.5 167.5t185 115.5t244 41.5q124 0 229 -44t176 -127.5t97.5 -204t-5.5 -273.5l-67 -315q-24 -113 -72 -206.5t-123 -167.5t-185 -115.5t-245 -41.5zM371 1518l291 307h405
l172 -307h-358l-45 110l-95 -110h-370zM477 575q-22 -109 24 -172t134 -63q81 0 135 58t76 159l63 297q24 110 -22 174t-133 64q-82 0 -136 -58t-77 -160z" />
    <glyph glyph-name="Odieresis.titl" horiz-adv-x="1294" 
d="M596 -31q-124 0 -228.5 44t-176.5 127.5t-98.5 204.5t5.5 276l68 313q24 112 72.5 205.5t123.5 167.5t185 115.5t244 41.5q124 0 229 -44t176 -127.5t97.5 -204t-5.5 -273.5l-67 -315q-24 -113 -72 -206.5t-123 -167.5t-185 -115.5t-245 -41.5zM395 1518l66 307h340
l-66 -307h-340zM477 575q-22 -109 24 -172t134 -63q81 0 135 58t76 159l63 297q24 110 -22 174t-133 64q-82 0 -136 -58t-77 -160zM874 1518l66 307h340l-66 -307h-340z" />
    <glyph glyph-name="Ograve.titl" horiz-adv-x="1294" 
d="M596 -31q-124 0 -228.5 44t-176.5 127.5t-98.5 204.5t5.5 276l68 313q24 112 72.5 205.5t123.5 167.5t185 115.5t244 41.5q124 0 229 -44t176 -127.5t97.5 -204t-5.5 -273.5l-67 -315q-24 -113 -72 -206.5t-123 -167.5t-185 -115.5t-245 -41.5zM424 1800h420l121 -282
h-328zM477 575q-22 -109 24 -172t134 -63q81 0 135 58t76 159l63 297q24 110 -22 174t-133 64q-82 0 -136 -58t-77 -160z" />
    <glyph glyph-name="Ohungarumlaut.titl" horiz-adv-x="1294" 
d="M596 -31q-124 0 -228.5 44t-176.5 127.5t-98.5 204.5t5.5 276l68 313q24 112 72.5 205.5t123.5 167.5t185 115.5t244 41.5q124 0 229 -44t176 -127.5t97.5 -204t-5.5 -273.5l-67 -315q-24 -113 -72 -206.5t-123 -167.5t-185 -115.5t-245 -41.5zM414 1518l239 282h369
l-258 -282h-350zM477 575q-22 -109 24 -172t134 -63q81 0 135 58t76 159l63 297q24 110 -22 174t-133 64q-82 0 -136 -58t-77 -160zM893 1518l237 282h400l-311 -282h-326z" />
    <glyph glyph-name="Omacron.titl" horiz-adv-x="1294" 
d="M596 -31q-124 0 -228.5 44t-176.5 127.5t-98.5 204.5t5.5 276l68 313q24 112 72.5 205.5t123.5 167.5t185 115.5t244 41.5q124 0 229 -44t176 -127.5t97.5 -204t-5.5 -273.5l-67 -315q-24 -113 -72 -206.5t-123 -167.5t-185 -115.5t-245 -41.5zM440 1518l56 268h735
l-55 -268h-736zM477 575q-22 -109 24 -172t134 -63q81 0 135 58t76 159l63 297q24 110 -22 174t-133 64q-82 0 -136 -58t-77 -160z" />
    <glyph glyph-name="uni01EA.titl" horiz-adv-x="1294" 
d="M635 340q81 0 135 58t76 159l63 297q24 110 -22 174t-133 64q-82 0 -136 -58t-77 -160l-64 -299q-22 -109 24 -172t134 -63zM98 621l68 313q24 112 72.5 205.5t123.5 167.5t185 115.5t244 41.5q124 0 229 -44t176 -127.5t97.5 -204t-5.5 -273.5l-67 -315
q-41 -190 -151 -325.5t-290 -182.5q-96 -59 -94 -121q0 -45 82 -45h29l-105 -270h-63q-112 0 -175 56.5t-63 151.5q0 128 88 216q-102 19 -184 71t-137 134t-71.5 191.5t11.5 244.5z" />
    <glyph glyph-name="Oslash.titl" horiz-adv-x="1298" 
d="M598 -31q-139 0 -258 58l-125 -154l-268 178l172 213q-64 157 -19 357l68 313q24 112 72.5 205.5t123.5 167.5t185 115.5t244 41.5q143 0 256 -55l125 152l270 -183l-172 -209q63 -157 18 -354l-67 -315q-24 -113 -72 -206.5t-123 -167.5t-185 -115.5t-245 -41.5z
M498 700l321 398q-27 12 -61 12q-87 0 -142.5 -60.5t-78.5 -166.5zM569 334q27 -12 66 -12q86 0 141.5 60t77.5 167l39 182z" />
    <glyph glyph-name="Oslashacute.titl" horiz-adv-x="1298" 
d="M598 -31q-139 0 -258 58l-125 -154l-268 178l172 213q-64 157 -19 357l68 313q24 112 72.5 205.5t123.5 167.5t185 115.5t244 41.5q143 0 256 -55l125 152l270 -183l-172 -209q63 -157 18 -354l-67 -315q-24 -113 -72 -206.5t-123 -167.5t-185 -115.5t-245 -41.5z
M498 700l321 398q-27 12 -61 12q-87 0 -142.5 -60.5t-78.5 -166.5zM569 334q27 -12 66 -12q86 0 141.5 60t77.5 167l39 182zM692 1518l219 282h418l-309 -282h-328z" />
    <glyph glyph-name="Otilde.titl" horiz-adv-x="1294" 
d="M596 -31q-124 0 -228.5 44t-176.5 127.5t-98.5 204.5t5.5 276l68 313q24 112 72.5 205.5t123.5 167.5t185 115.5t244 41.5q124 0 229 -44t176 -127.5t97.5 -204t-5.5 -273.5l-67 -315q-24 -113 -72 -206.5t-123 -167.5t-185 -115.5t-245 -41.5zM358 1518q65 329 334 329
q67 0 130.5 -20.5t107.5 -41t63 -20.5q30 0 44.5 14t21.5 52h262q-62 -330 -346 -330q-66 0 -126 19.5t-102 39t-63 19.5q-54 0 -63 -61h-263zM477 575q-22 -109 24 -172t134 -63q81 0 135 58t76 159l63 297q24 110 -22 174t-133 64q-82 0 -136 -58t-77 -160z" />
    <glyph glyph-name="OE.titl" horiz-adv-x="1652" 
d="M745 1061q-164 0 -210 -217l-52 -238q-24 -108 22 -171.5t132 -63.5h88l145 690h-125zM102 651l54 252q23 110 72.5 203.5t125 168t185.5 117t243 42.5h985l-77 -369h-428l-35 -166h372l-75 -354h-373l-37 -176h428l-80 -369h-860q-124 0 -229 44.5t-176.5 128.5t-99 205
t4.5 273z" />
    <glyph glyph-name="Q.titl" horiz-adv-x="1294" 
d="M602 0q-124 0 -228.5 44t-176.5 127t-98.5 203.5t5.5 274.5l62 285q24 111 72.5 204.5t123.5 167.5t185 116t244 42q124 0 229 -44.5t175.5 -128t97.5 -204t-5 -272.5l-53 -246q-23 -106 -72 -198h129l-80 -371h-610zM483 606q-24 -109 22.5 -172t135.5 -63
q81 0 134.5 58.5t76.5 160.5l57 264q24 110 -22 174t-133 64q-82 0 -136 -58t-77 -160z" />
    <glyph glyph-name="r.calt" horiz-adv-x="733" 
d="M565 1012l-20 -90q107 90 219 90h41l-68 -318h-35q-97 0 -162.5 -54t-88.5 -161l-103 -479h-366l217 1012h366z" />
    <glyph glyph-name="racute.calt" horiz-adv-x="733" 
d="M565 1012l-20 -90q107 90 219 90h41l-68 -318h-35q-97 0 -162.5 -54t-88.5 -161l-103 -479h-366l217 1012h366zM354 1114l232 338h403l-303 -338h-332z" />
    <glyph glyph-name="rcaron.calt" horiz-adv-x="733" 
d="M565 1012l-20 -90q107 90 219 90h41l-68 -318h-35q-97 0 -162.5 -54t-88.5 -161l-103 -479h-366l217 1012h366zM190 1452h310l57 -117l107 117h340l-279 -338h-399z" />
    <glyph glyph-name="uni0157.calt" horiz-adv-x="733" 
d="M565 1012l-20 -90q107 90 219 90h41l-68 -318h-35q-97 0 -162.5 -54t-88.5 -161l-103 -479h-366l217 1012h366zM-291 -385l242 293h387l-295 -293h-334z" />
    <glyph glyph-name="germandbls.calt" horiz-adv-x="1339" 
d="M809 1434h625l-66 -308l-274 -315q89 -42 139.5 -121t50.5 -184q0 -220 -156 -363t-403 -143h-231l79 371h187q55 0 92 31.5t37 80.5q0 37 -29 58.5t-80 21.5h-166l52 238l227 272h-135q-81 0 -128.5 -43t-66.5 -133l-192 -897h-387l198 934q30 140 81 236t129 154.5
t178.5 84t238.5 25.5z" />
    <glyph glyph-name="iacute_j.loclNLD" horiz-adv-x="1073" 
d="M199 1012h368l-217 -1012h-368zM233 1114l232 338h403l-303 -338h-332zM289 -385l69 330h60q79 0 94 82l211 985h369l-224 -1045q-15 -69 -35 -121t-42.5 -89.5t-54.5 -63t-64 -41t-79 -24t-90 -11t-106 -2.5h-108zM758 1114l231 338h404l-303 -338h-332z" />
    <glyph glyph-name="a.ss01" horiz-adv-x="1243" 
d="M451 -31q-182 0 -294 124.5t-112 324.5q0 122 39.5 234.5t110 199t177 138.5t232.5 52q89 0 164.5 -32.5t108.5 -87.5l18 90h369l-217 -1012h-357l23 98q-38 -56 -112.5 -92.5t-149.5 -36.5zM406 477q0 -74 46 -120t121 -46q89 0 152 65t63 159q0 73 -46 119t-119 46
q-89 0 -153 -64.5t-64 -158.5z" />
    <glyph glyph-name="aacute.ss01" horiz-adv-x="1243" 
d="M451 -31q-182 0 -294 124.5t-112 324.5q0 122 39.5 234.5t110 199t177 138.5t232.5 52q89 0 164.5 -32.5t108.5 -87.5l18 90h369l-217 -1012h-357l23 98q-38 -56 -112.5 -92.5t-149.5 -36.5zM406 477q0 -74 46 -120t121 -46q89 0 152 65t63 159q0 73 -46 119t-119 46
q-89 0 -153 -64.5t-64 -158.5zM584 1114l231 338h404l-304 -338h-331z" />
    <glyph glyph-name="abreve.ss01" horiz-adv-x="1243" 
d="M451 -31q-182 0 -294 124.5t-112 324.5q0 122 39.5 234.5t110 199t177 138.5t232.5 52q89 0 164.5 -32.5t108.5 -87.5l18 90h369l-217 -1012h-357l23 98q-38 -56 -112.5 -92.5t-149.5 -36.5zM406 477q0 -74 46 -120t121 -46q89 0 152 65t63 159q0 73 -46 119t-119 46
q-89 0 -153 -64.5t-64 -158.5zM461 1444h276q-13 -56 5 -87.5t59 -31.5q39 0 70.5 31.5t43.5 87.5h275q-35 -171 -139 -264t-260 -93q-107 0 -189.5 41t-123.5 124t-17 192z" />
    <glyph glyph-name="acircumflex.ss01" horiz-adv-x="1243" 
d="M451 -31q-182 0 -294 124.5t-112 324.5q0 122 39.5 234.5t110 199t177 138.5t232.5 52q89 0 164.5 -32.5t108.5 -87.5l18 90h369l-217 -1012h-357l23 98q-38 -56 -112.5 -92.5t-149.5 -36.5zM348 1114l279 338h399l135 -338h-309l-57 115l-107 -115h-340zM406 477
q0 -74 46 -120t121 -46q89 0 152 65t63 159q0 73 -46 119t-119 46q-89 0 -153 -64.5t-64 -158.5z" />
    <glyph glyph-name="adieresis.ss01" horiz-adv-x="1243" 
d="M451 -31q-182 0 -294 124.5t-112 324.5q0 122 39.5 234.5t110 199t177 138.5t232.5 52q89 0 164.5 -32.5t108.5 -87.5l18 90h369l-217 -1012h-357l23 98q-38 -56 -112.5 -92.5t-149.5 -36.5zM350 1114l68 318h352l-68 -318h-352zM406 477q0 -74 46 -120t121 -46
q89 0 152 65t63 159q0 73 -46 119t-119 46q-89 0 -153 -64.5t-64 -158.5zM809 1114l68 318h352l-68 -318h-352z" />
    <glyph glyph-name="uni1EA1.ss01" horiz-adv-x="1243" 
d="M451 -31q-182 0 -294 124.5t-112 324.5q0 122 39.5 234.5t110 199t177 138.5t232.5 52q89 0 164.5 -32.5t108.5 -87.5l18 90h369l-217 -1012h-357l23 98q-38 -56 -112.5 -92.5t-149.5 -36.5zM238 -428l67 317h373l-68 -317h-372zM406 477q0 -74 46 -120t121 -46
q89 0 152 65t63 159q0 73 -46 119t-119 46q-89 0 -153 -64.5t-64 -158.5z" />
    <glyph glyph-name="agrave.ss01" horiz-adv-x="1243" 
d="M451 -31q-182 0 -294 124.5t-112 324.5q0 122 39.5 234.5t110 199t177 138.5t232.5 52q89 0 164.5 -32.5t108.5 -87.5l18 90h369l-217 -1012h-357l23 98q-38 -56 -112.5 -92.5t-149.5 -36.5zM395 1452h400l108 -338h-307zM406 477q0 -74 46 -120t121 -46q89 0 152 65
t63 159q0 73 -46 119t-119 46q-89 0 -153 -64.5t-64 -158.5z" />
    <glyph glyph-name="amacron.ss01" horiz-adv-x="1243" 
d="M451 -31q-182 0 -294 124.5t-112 324.5q0 122 39.5 234.5t110 199t177 138.5t232.5 52q89 0 164.5 -32.5t108.5 -87.5l18 90h369l-217 -1012h-357l23 98q-38 -56 -112.5 -92.5t-149.5 -36.5zM387 1114l62 287h735l-62 -287h-735zM406 477q0 -74 46 -120t121 -46
q89 0 152 65t63 159q0 73 -46 119t-119 46q-89 0 -153 -64.5t-64 -158.5z" />
    <glyph glyph-name="aogonek.ss01" horiz-adv-x="1243" 
d="M451 -31q-182 0 -294 124.5t-112 324.5q0 122 39.5 234.5t110 199t177 138.5t232.5 52q89 0 164.5 -32.5t108.5 -87.5l18 90h369l-217 -1012q-111 -63 -109 -129q0 -45 82 -45h29l-105 -270h-63q-112 0 -175 56.5t-63 151.5q0 139 109 236h-62l23 98
q-38 -56 -112.5 -92.5t-149.5 -36.5zM406 477q0 -74 46 -120t121 -46q89 0 152 65t63 159q0 73 -46 119t-119 46q-89 0 -153 -64.5t-64 -158.5z" />
    <glyph glyph-name="aring.ss01" horiz-adv-x="1243" 
d="M451 -31q-182 0 -294 124.5t-112 324.5q0 122 39.5 234.5t110 199t177 138.5t232.5 52q89 0 164.5 -32.5t108.5 -87.5l18 90h369l-217 -1012h-357l23 98q-38 -56 -112.5 -92.5t-149.5 -36.5zM406 477q0 -74 46 -120t121 -46q89 0 152 65t63 159q0 73 -46 119t-119 46
q-89 0 -153 -64.5t-64 -158.5zM453 1354q0 125 100 214t244 89q133 0 222 -75.5t89 -186.5q0 -124 -100 -210.5t-246 -86.5q-132 0 -220.5 73.5t-88.5 182.5zM680 1370q0 -36 25.5 -60t64.5 -24q44 0 77.5 29t33.5 67q0 35 -28 59.5t-69 24.5q-42 0 -73 -28.5t-31 -67.5z
" />
    <glyph glyph-name="aringacute.ss01" horiz-adv-x="1243" 
d="M451 -31q-182 0 -294 124.5t-112 324.5q0 122 39.5 234.5t110 199t177 138.5t232.5 52q89 0 164.5 -32.5t108.5 -87.5l18 90h369l-217 -1012h-357l23 98q-38 -56 -112.5 -92.5t-149.5 -36.5zM406 477q0 -74 46 -120t121 -46q89 0 152 65t63 159q0 73 -46 119t-119 46
q-89 0 -153 -64.5t-64 -158.5zM500 1354q0 102 70.5 183.5t179.5 107.5l114 167h404l-205 -229q92 -76 92 -188q0 -124 -100 -210.5t-246 -86.5q-132 0 -220.5 73.5t-88.5 182.5zM727 1370q0 -36 25.5 -60t64.5 -24q44 0 77.5 29t33.5 67q0 35 -28 59.5t-69 24.5
q-42 0 -73 -28.5t-31 -67.5z" />
    <glyph glyph-name="atilde.ss01" horiz-adv-x="1243" 
d="M451 -31q-182 0 -294 124.5t-112 324.5q0 122 39.5 234.5t110 199t177 138.5t232.5 52q89 0 164.5 -32.5t108.5 -87.5l18 90h369l-217 -1012h-357l23 98q-38 -56 -112.5 -92.5t-149.5 -36.5zM328 1114q20 164 104 253t199 89q56 0 118 -23.5t113 -47t80 -23.5q27 0 43 19
t29 59h237q-21 -165 -109.5 -253.5t-207.5 -88.5q-56 0 -114 22t-106 44t-79 22q-58 0 -70 -72h-237zM406 477q0 -74 46 -120t121 -46q89 0 152 65t63 159q0 73 -46 119t-119 46q-89 0 -153 -64.5t-64 -158.5z" />
    <glyph glyph-name="s.ss02" horiz-adv-x="1001" 
d="M352 0q-182 0 -277 81.5t-67 213.5l6 29h351l-3 -13q-3 -20 14.5 -30.5t47.5 -10.5h55q68 0 78 43q3 15 -10 28t-37 17l-180 39q-144 31 -196.5 110.5t-20.5 227.5q27 123 127.5 200t251.5 77h141q188 0 279 -76t63 -211l-4 -20h-342l2 12q3 19 -16 31t-44 12h-59
q-55 0 -61 -35q-4 -22 12 -33t51 -18l193 -37q124 -23 176.5 -113.5t23.5 -228.5q-31 -138 -136.5 -216.5t-260.5 -78.5h-158z" />
    <glyph glyph-name="sacute.ss02" horiz-adv-x="1001" 
d="M352 0q-182 0 -277 81.5t-67 213.5l6 29h351l-3 -13q-3 -20 14.5 -30.5t47.5 -10.5h55q68 0 78 43q3 15 -10 28t-37 17l-180 39q-144 31 -196.5 110.5t-20.5 227.5q27 123 127.5 200t251.5 77h141q188 0 279 -76t63 -211l-4 -20h-342l2 12q3 19 -16 31t-44 12h-59
q-55 0 -61 -35q-4 -22 12 -33t51 -18l193 -37q124 -23 176.5 -113.5t23.5 -228.5q-31 -138 -136.5 -216.5t-260.5 -78.5h-158zM461 1114l231 338h404l-303 -338h-332z" />
    <glyph glyph-name="scaron.ss02" horiz-adv-x="1001" 
d="M352 0q-182 0 -277 81.5t-67 213.5l6 29h351l-3 -13q-3 -20 14.5 -30.5t47.5 -10.5h55q68 0 78 43q3 15 -10 28t-37 17l-180 39q-144 31 -196.5 110.5t-20.5 227.5q27 123 127.5 200t251.5 77h141q188 0 279 -76t63 -211l-4 -20h-342l2 12q3 19 -16 31t-44 12h-59
q-55 0 -61 -35q-4 -22 12 -33t51 -18l193 -37q124 -23 176.5 -113.5t23.5 -228.5q-31 -138 -136.5 -216.5t-260.5 -78.5h-158zM297 1452h309l58 -117l106 117h340l-279 -338h-399z" />
    <glyph glyph-name="scedilla.ss02" horiz-adv-x="1001" 
d="M352 0q-182 0 -277 81.5t-67 213.5l6 29h351l-3 -13q-3 -20 14.5 -30.5t47.5 -10.5h55q68 0 78 43q3 15 -10 28t-37 17l-180 39q-144 31 -196.5 110.5t-20.5 227.5q27 123 127.5 200t251.5 77h141q188 0 279 -76t63 -211l-4 -20h-342l2 12q3 19 -16 31t-44 12h-59
q-55 0 -61 -35q-4 -22 12 -33t51 -18l193 -37q124 -23 176.5 -113.5t23.5 -228.5q-28 -127 -119.5 -204t-228.5 -89v-2l-80 -109h4q72 0 118 -50t46 -128q0 -105 -72 -185.5t-192 -80.5h-221l37 168h166q36 0 61 20t25 50q0 21 -16.5 34t-45.5 13h-145l28 139l88 129h-8z
" />
    <glyph glyph-name="scircumflex.ss02" horiz-adv-x="1001" 
d="M352 0q-182 0 -277 81.5t-67 213.5l6 29h351l-3 -13q-3 -20 14.5 -30.5t47.5 -10.5h55q68 0 78 43q3 15 -10 28t-37 17l-180 39q-144 31 -196.5 110.5t-20.5 227.5q27 123 127.5 200t251.5 77h141q188 0 279 -76t63 -211l-4 -20h-342l2 12q3 19 -16 31t-44 12h-59
q-55 0 -61 -35q-4 -22 12 -33t51 -18l193 -37q124 -23 176.5 -113.5t23.5 -228.5q-31 -138 -136.5 -216.5t-260.5 -78.5h-158zM225 1114l279 338h399l135 -338h-309l-57 115l-107 -115h-340z" />
    <glyph glyph-name="uni0219.ss02" horiz-adv-x="1001" 
d="M352 0q-182 0 -277 81.5t-67 213.5l6 29h351l-3 -13q-3 -20 14.5 -30.5t47.5 -10.5h55q68 0 78 43q3 15 -10 28t-37 17l-180 39q-144 31 -196.5 110.5t-20.5 227.5q27 123 127.5 200t251.5 77h141q188 0 279 -76t63 -211l-4 -20h-342l2 12q3 19 -16 31t-44 12h-59
q-55 0 -61 -35q-4 -22 12 -33t51 -18l193 -37q124 -23 176.5 -113.5t23.5 -228.5q-31 -138 -136.5 -216.5t-260.5 -78.5h-158zM-14 -385l241 293h387l-295 -293h-333z" />
    <glyph glyph-name="t.ss03" horiz-adv-x="849" 
d="M61 694l68 318h35q155 0 190 157l21 97h346l-53 -254h229l-68 -318h-229l-59 -274q-12 -57 4 -80t67 -23h136l-68 -317h-186q-186 0 -275.5 104.5t-50.5 286.5l65 303h-172z" />
    <glyph glyph-name="tbar.ss03" horiz-adv-x="862" 
d="M82 735l59 277h35q156 0 191 157l20 97h346l-53 -254h229l-59 -277h-229l-23 -104h231l-47 -225h-231l-6 -29q-12 -57 4 -80t67 -23h136l-60 -274h-186q-186 0 -275.5 104.5t-50.5 286.5l4 15h-172l47 225h172l23 104h-172z" />
    <glyph glyph-name="tcaron.ss03" horiz-adv-x="849" 
d="M61 694l68 318h35q155 0 190 157l21 97h346l-53 -254h229l-68 -318h-229l-59 -274q-12 -57 4 -80t67 -23h136l-68 -317h-186q-186 0 -275.5 104.5t-50.5 286.5l65 303h-172zM743 1094l129 442h357l-193 -442h-293z" />
    <glyph glyph-name="uni0163.ss03" horiz-adv-x="851" 
d="M63 694l68 318h35q155 0 190 157l21 97h346l-53 -254h229l-68 -318h-229l-59 -274q-12 -57 4 -80t67 -23h136l-68 -317h-125l-80 -109h4q72 0 118 -50t46 -128q0 -105 -72 -185.5t-192 -80.5h-221l37 168h165q36 0 61.5 20t25.5 50q0 21 -16.5 34t-45.5 13h-145l28 139
l99 145q-124 33 -177.5 130.5t-21.5 244.5l66 303h-173z" />
    <glyph glyph-name="uni021B.ss03" horiz-adv-x="849" 
d="M61 694l68 318h35q155 0 190 157l21 97h346l-53 -254h229l-68 -318h-229l-59 -274q-12 -57 4 -80t67 -23h136l-68 -317h-186q-186 0 -275.5 104.5t-50.5 286.5l65 303h-172zM-18 -385l241 293h387l-295 -293h-333z" />
    <glyph glyph-name="ae.ss04" horiz-adv-x="2013" 
d="M451 -10q-184 0 -295 116t-111 312q0 121 39.5 233.5t110 199.5t177 139t232.5 52q89 0 164.5 -32.5t108.5 -87.5l18 90h369l-19 -84q50 52 133.5 83t177.5 31q188 0 307 -117.5t119 -295.5q0 -92 -43 -219h-679q6 -68 47 -105t104 -37q47 0 85 17t58 49h361
q-56 -170 -198 -267.5t-335 -97.5q-96 0 -184 35t-131 94l-20 -98h-357l23 98q-36 -53 -109 -80.5t-153 -27.5zM406 477q0 -74 46 -120t121 -46q89 0 152 65t63 159q0 73 -46 119t-119 46q-89 0 -153 -64.5t-64 -158.5zM1315 643h309q3 47 -30.5 80t-96.5 33
q-119 0 -182 -113z" />
    <glyph glyph-name="aeacute.ss04" horiz-adv-x="2013" 
d="M451 -10q-184 0 -295 116t-111 312q0 121 39.5 233.5t110 199.5t177 139t232.5 52q89 0 164.5 -32.5t108.5 -87.5l18 90h369l-19 -84q50 52 133.5 83t177.5 31q188 0 307 -117.5t119 -295.5q0 -92 -43 -219h-679q6 -68 47 -105t104 -37q47 0 85 17t58 49h361
q-56 -170 -198 -267.5t-335 -97.5q-96 0 -184 35t-131 94l-20 -98h-357l23 98q-36 -53 -109 -80.5t-153 -27.5zM406 477q0 -74 46 -120t121 -46q89 0 152 65t63 159q0 73 -46 119t-119 46q-89 0 -153 -64.5t-64 -158.5zM969 1114l231 338h404l-304 -338h-331zM1315 643h309
q3 47 -30.5 80t-96.5 33q-119 0 -182 -113z" />
    <glyph glyph-name="f_f.dlig" horiz-adv-x="1497" 
d="M111 0l149 694h-172l68 318h172l10 53q37 188 152.5 278.5t314.5 90.5h188l-63 -297h-119q-92 0 -106 -82l-9 -43h287l10 53q37 188 152.5 278.5t314.5 90.5h209l-63 -297h-140q-92 0 -106 -82l-8 -43h229l-68 -318h-229l-149 -694h-369l149 694h-286l-150 -694h-368z
" />
    <glyph glyph-name="f_f_i.dlig" horiz-adv-x="1986" 
d="M111 0l149 694h-172l68 318h172l10 53q37 188 152.5 278.5t314.5 90.5h188l-63 -297h-119q-92 0 -106 -82l-9 -43h287l10 53q37 188 152.5 278.5t314.5 90.5h455l-64 -297h-385q-92 0 -106 -82l-8 -43h655l-217 -1012h-369l150 694h-287l-149 -694h-369l149 694h-286
l-150 -694h-368z" />
    <glyph glyph-name="f_f_l.dlig" horiz-adv-x="1986" 
d="M111 0l149 694h-172l68 318h172l10 53q37 188 152.5 278.5t314.5 90.5h188l-63 -297h-119q-92 0 -106 -82l-9 -43h287l10 53q37 188 152.5 278.5t314.5 90.5h168l-63 -297h-99q-92 0 -106 -82l-8 -43h284l90 422h369l-305 -1434h-369l148 694h-285l-149 -694h-369
l149 694h-286l-150 -694h-368z" />
    <glyph glyph-name="f_f_t.dlig" horiz-adv-x="2207" 
d="M111 0l149 694h-172l68 318h172l10 53q37 189 155.5 279t331.5 90h189l-64 -297h-139q-91 0 -106 -82l-9 -43h308l10 53q37 189 155.5 279t331.5 90h127l-63 -297h-78q-92 0 -107 -82l-8 -43h287l53 254h367l-54 -254h230l-68 -318h-229l-60 -274q-10 -49 9.5 -76
t64.5 -27h135l-69 -317h-187q-408 0 -325 391l65 303h-286l-150 -694h-369l150 694h-307l-150 -694h-368z" />
    <glyph glyph-name="f_i.dlig" horiz-adv-x="1331" 
d="M111 0l149 694h-172l68 318h172l10 53q37 188 152.5 278.5t314.5 90.5h455l-64 -297h-385q-92 0 -106 -82l-9 -43h656l-217 -1012h-369l149 694h-286l-150 -694h-368z" />
    <glyph glyph-name="f_l.dlig" horiz-adv-x="1331" 
d="M111 0l149 694h-172l68 318h172l10 53q37 188 152.5 278.5t314.5 90.5h168l-64 -297h-98q-92 0 -106 -82l-9 -43h285l90 422h369l-305 -1434h-369l147 694h-284l-150 -694h-368z" />
    <glyph glyph-name="f_t.dlig" horiz-adv-x="1531" 
d="M111 0l149 694h-172l68 318h172l10 53q37 189 155.5 279t331.5 90h127l-63 -297h-78q-91 0 -106 -82l-9 -43h287l53 254h367l-53 -254h229l-68 -318h-229l-59 -274q-10 -49 9 -76t64 -27h136l-70 -317h-186q-409 0 -326 391l65 303h-286l-150 -694h-368z" />
    <glyph glyph-name="zero.zero" horiz-adv-x="1323" 
d="M612 -20q-189 0 -318 83.5t-178.5 231.5t-9.5 336l58 270q58 273 220 412t419 139q289 0 426.5 -180t73.5 -492l-56 -270q-54 -259 -217 -394.5t-418 -135.5zM520 705l359 342q-38 32 -107 32q-173 0 -219 -215zM532 385q41 -35 109 -35q90 0 143.5 61t79.5 179l29 137z
" />
    <glyph glyph-name="two.ss02" horiz-adv-x="1181" 
d="M-29 0l70 319l469 375q22 18 56.5 45t51.5 40.5t43 34.5t38.5 32.5t30.5 28.5t26.5 28.5t18.5 25.5t14.5 27t7.5 27q9 43 -10.5 70.5t-55.5 27.5h-41q-48 0 -79.5 -28t-41.5 -80l-18 -94h-381l35 168q38 175 161 281t279 106h211q211 0 297.5 -117t44.5 -316
q-19 -89 -50.5 -157t-94 -133.5t-105 -101.5t-145.5 -115q-35 -27 -53 -41l-99 -76h422l-82 -377h-1020z" />
    <glyph glyph-name="zero.tf" horiz-adv-x="1310" 
d="M606 -20q-189 0 -318 83.5t-178.5 231.5t-9.5 336l58 270q58 273 220 412t419 139q289 0 426 -180t73 -492l-55 -270q-54 -259 -217 -394.5t-418 -135.5zM489 590q-23 -114 14.5 -177t131.5 -63q90 0 143.5 61t79.5 179l53 252q23 113 -14 175t-131 62q-173 0 -219 -215z
" />
    <glyph glyph-name="one.tf" horiz-adv-x="1310" 
d="M47 0l76 350h360l103 484h-320l76 352h107q229 0 276 215l6 33h371l-230 -1084h297l-75 -350h-1047z" />
    <glyph glyph-name="two.tf" horiz-adv-x="1310" 
d="M35 0l69 319l467 355q170 130 229.5 194.5t59.5 135.5q0 40 -24 64t-66 24q-58 0 -101 -54.5t-46 -138.5h-387q30 280 189.5 422.5t395.5 142.5q203 0 324 -112t121 -285q0 -84 -28 -163.5t-70.5 -141t-112 -127.5t-131.5 -112.5t-150 -106.5l-67 -39h430l-82 -377h-1020
z" />
    <glyph glyph-name="three.tf" horiz-adv-x="1310" 
d="M584 -31q-116 0 -214 37.5t-162.5 102t-90 157.5t-0.5 199h387q-13 -55 15.5 -96t90.5 -41t108 40t46 95q0 43 -37 70.5t-102 27.5h-60l70 334h59q75 0 125.5 38.5t50.5 90.5q0 38 -27.5 60t-70.5 22q-60 0 -104 -34.5t-56 -88.5h-376q48 232 203 356.5t368 124.5
t336 -95.5t123 -262.5q0 -238 -240 -373q131 -76 131 -244q0 -150 -76 -269.5t-206.5 -185t-290.5 -65.5z" />
    <glyph glyph-name="four.tf" horiz-adv-x="1310" 
d="M59 279l76 348l477 807h426l-475 -805h158l49 231h375l-49 -231h166l-76 -350h-166l-59 -279h-390l60 279h-572z" />
    <glyph glyph-name="five.tf" horiz-adv-x="1310" 
d="M586 -31q-114 0 -212.5 38t-166 104t-98 161t-11.5 203h396q3 -127 127 -127q70 0 122 54t52 130q0 56 -33 90.5t-88 34.5q-82 0 -146 -67h-356l250 844h878l-77 -373h-531l-51 -143q59 36 160 36q182 0 287.5 -95.5t105.5 -278.5q0 -181 -82 -321.5t-220 -215
t-306 -74.5z" />
    <glyph glyph-name="six.tf" horiz-adv-x="1310" 
d="M616 -31q-231 0 -373.5 124t-142.5 327q0 67 17.5 133t41 116.5t68 113.5t76 101t88.5 103l391 447h490l-420 -463q160 -15 262.5 -134.5t102.5 -289.5q0 -157 -80 -290t-218.5 -210.5t-302.5 -77.5zM494 467q0 -63 39.5 -103t103.5 -40q76 0 130 54.5t54 133.5
q0 66 -41.5 109t-107.5 43q-76 0 -127 -56.5t-51 -140.5z" />
    <glyph glyph-name="seven.tf" horiz-adv-x="1310" 
d="M121 0l700 1061h-547l78 373h998l-70 -330l-725 -1104h-434z" />
    <glyph glyph-name="eight.tf" horiz-adv-x="1310" 
d="M602 -31q-227 0 -367.5 105.5t-140.5 283.5q0 75 28 152t89.5 144.5t144.5 97.5q-49 54 -72.5 105t-23.5 118q0 104 41.5 195.5t113 155.5t171 101t211.5 37q216 0 348.5 -98t132.5 -262q0 -101 -51 -195.5t-168 -156.5q119 -119 119 -269q0 -147 -76.5 -265t-208 -183.5
t-291.5 -65.5zM492 403q0 -46 33.5 -76t86.5 -30q66 0 119 45.5t53 106.5q0 48 -33 80t-85 32q-67 0 -120.5 -48t-53.5 -110zM616 999q0 -46 34.5 -77t88.5 -31q66 0 118 45.5t52 107.5q0 47 -33 79t-85 32q-67 0 -121 -47.5t-54 -108.5z" />
    <glyph glyph-name="nine.tf" horiz-adv-x="1310" 
d="M786 1464q231 0 374 -123.5t143 -326.5q0 -67 -17.5 -133t-41 -116.5t-68 -114t-76.5 -102t-88 -102.5l-391 -446h-490l420 463q-160 15 -262.5 134.5t-102.5 289.5q0 118 47 224.5t127 184t191.5 123t234.5 45.5zM582 922q0 -66 41.5 -109t107.5 -43q76 0 127 56.5
t51 140.5q0 63 -39.5 103t-103.5 40q-76 0 -130 -54.5t-54 -133.5z" />
    <glyph glyph-name="zero.tf.zero" horiz-adv-x="1310" 
d="M606 -20q-189 0 -318 83.5t-178.5 231.5t-9.5 336l58 270q58 273 220 412t419 139q289 0 426 -180t73 -492l-55 -270q-54 -259 -217 -394.5t-418 -135.5zM514 705l358 342q-38 32 -106 32q-173 0 -219 -215zM526 385q41 -35 109 -35q90 0 143.5 61t79.5 179l29 137z" />
    <glyph glyph-name="zero.dnom" horiz-adv-x="804" 
d="M328 -18q-171 0 -255.5 109t-47.5 280l38 178q71 330 381 330q173 0 255 -108.5t46 -297.5l-34 -176q-31 -153 -130 -234t-253 -81zM262 348q-14 -65 7.5 -102t76.5 -37q103 0 131 139l35 164q14 67 -7.5 103t-76.5 36q-53 0 -83 -34.5t-46 -104.5z" />
    <glyph glyph-name="one.dnom" horiz-adv-x="491" 
d="M496 860l-183 -860h-237l104 496h-149l47 215h20q68 0 111 38.5t55 92.5l4 18h228z" />
    <glyph glyph-name="two.dnom" horiz-adv-x="718" 
d="M-59 0l43 195l280 213q100 76 136 114t36 78q0 25 -16 38t-39 13q-70 0 -86 -112h-232q66 340 351 340q122 0 195 -67.5t73 -170.5q0 -26 -5 -51.5t-11.5 -46t-21.5 -44.5t-24.5 -39.5t-32.5 -38.5t-34 -34.5t-40 -35t-39.5 -31.5t-43.5 -33t-41 -31l-35 -27h252
l-49 -229h-616z" />
    <glyph glyph-name="three.dnom" horiz-adv-x="714" 
d="M274 -18q-151 0 -232.5 83.5t-51.5 215.5h235q-6 -32 12 -56t52 -24q36 0 62 20.5t26 50.5q0 25 -20.5 43.5t-57.5 18.5h-39l43 205h37q46 0 72 21.5t26 53.5q0 21 -16 33t-41 12q-35 0 -59.5 -19t-30.5 -50h-232q31 141 126 215t225 74q129 0 200.5 -56.5t71.5 -156.5
q0 -57 -33.5 -119t-109.5 -107q79 -43 79 -145q0 -140 -98 -226.5t-246 -86.5z" />
    <glyph glyph-name="four.dnom" horiz-adv-x="753" 
d="M-27 166l45 213l285 481h260l-272 -479h80l28 135h230l-29 -135h98l-47 -215h-98l-35 -166h-237l34 166h-342z" />
    <glyph glyph-name="five.dnom" horiz-adv-x="733" 
d="M285 -18q-142 0 -229 87.5t-64 217.5h235q0 -35 19 -55.5t55 -20.5q40 0 74.5 34.5t34.5 78.5q0 30 -19 48.5t-49 18.5q-58 0 -86 -39h-221l149 508h531l-47 -227h-318l-31 -80q41 20 97 20q108 0 171.5 -57t63.5 -162q0 -157 -105.5 -264.5t-260.5 -107.5z" />
    <glyph glyph-name="six.dnom" horiz-adv-x="729" 
d="M291 -18q-136 0 -218.5 72t-82.5 194q0 24 3.5 47t12.5 47.5t15.5 43t23.5 44.5t25 39.5t30 41.5t29.5 37.5t33 40t30.5 36.5l194 235h297l-244 -278q91 -14 152 -86t61 -170q0 -138 -105.5 -241t-256.5 -103zM227 279q0 -35 23.5 -57.5t58.5 -22.5q44 0 77.5 33t33.5 79
q0 37 -24.5 60.5t-61.5 23.5q-43 0 -75 -33.5t-32 -82.5z" />
    <glyph glyph-name="seven.dnom" horiz-adv-x="661" 
d="M-33 0l408 633h-316l47 227h601l-43 -201l-424 -659h-273z" />
    <glyph glyph-name="eight.dnom" horiz-adv-x="733" 
d="M293 -18q-136 0 -220.5 63.5t-84.5 169.5q0 71 42 140t111 96q-55 61 -55 131q0 129 94 213t230 84q129 0 208.5 -58t79.5 -157q0 -141 -129 -213q68 -71 68 -160q0 -134 -101 -221.5t-243 -87.5zM229 242q0 -26 20 -43t50 -17q37 0 68.5 26t31.5 60q0 28 -20 47t-49 19
q-38 0 -69.5 -28t-31.5 -64zM305 612q-6 -31 15 -53t55 -22q38 0 69 29t31 63q0 26 -19 43.5t-48 17.5q-36 0 -65.5 -22.5t-37.5 -55.5z" />
    <glyph glyph-name="nine.dnom" horiz-adv-x="729" 
d="M408 879q136 0 218.5 -72.5t82.5 -194.5q0 -24 -3.5 -47.5t-12 -47.5t-16 -42.5t-23.5 -44t-25 -40t-30 -41t-29.5 -37.5t-32.5 -39.5t-31 -36.5l-195 -236h-297l244 279q-91 14 -152 86t-61 170q0 137 106 240.5t257 103.5zM279 549q0 -37 24.5 -60.5t61.5 -23.5
q43 0 74.5 34t31.5 83q0 35 -23.5 57.5t-58.5 22.5q-43 0 -76.5 -33t-33.5 -80z" />
    <glyph glyph-name="zero.numr" horiz-adv-x="802" 
d="M449 557q-171 0 -256 109t-48 280l39 178q71 330 381 330q173 0 255 -108t46 -297l-35 -177q-31 -153 -129.5 -234t-252.5 -81zM383 924q-14 -66 7.5 -103t76.5 -37q102 0 131 140l35 163q14 67 -7.5 103.5t-76.5 36.5q-53 0 -83 -35t-46 -105z" />
    <glyph glyph-name="one.numr" horiz-adv-x="491" 
d="M618 1436l-182 -861h-237l104 496h-149l47 215h20q68 0 111 38.5t55 92.5l4 19h227z" />
    <glyph glyph-name="two.numr" horiz-adv-x="716" 
d="M61 575l43 195l281 213q99 75 135.5 114t36.5 79q0 25 -16 38t-39 13q-70 0 -86 -113h-232q66 340 351 340q122 0 195 -67t73 -170q0 -59 -21 -110.5t-63 -97.5t-80.5 -78t-97.5 -77q-21 -15 -31 -23l-35 -26h252l-49 -230h-617z" />
    <glyph glyph-name="three.numr" horiz-adv-x="712" 
d="M395 557q-151 0 -232.5 83.5t-51.5 215.5h235q-6 -32 12 -56t52 -24q36 0 62 21t26 51q0 25 -20 43t-58 18h-39l43 205h37q46 0 72 22t26 54q0 21 -16 33t-41 12q-35 0 -59.5 -19.5t-30.5 -50.5h-232q31 141 125.5 215t224.5 74q129 0 201 -56.5t72 -156.5
q0 -56 -34 -118t-110 -107q80 -44 80 -146q0 -140 -98 -226.5t-246 -86.5z" />
    <glyph glyph-name="four.numr" horiz-adv-x="747" 
d="M96 741l45 213l285 482h260l-272 -480h80l28 136h230l-29 -136h98l-47 -215h-98l-35 -166h-238l35 166h-342z" />
    <glyph glyph-name="five.numr" horiz-adv-x="731" 
d="M406 557q-142 0 -229 87.5t-64 217.5h235q0 -35 19 -55.5t55 -20.5q40 0 74 34.5t34 78.5q0 30 -18.5 49t-48.5 19q-58 0 -86 -39h-221l149 508h531l-48 -228h-317l-31 -80q43 21 97 21q108 0 171.5 -57t63.5 -162q0 -157 -105.5 -265t-260.5 -108z" />
    <glyph glyph-name="six.numr" horiz-adv-x="729" 
d="M414 557q-136 0 -218.5 72t-82.5 194q0 24 3 47t12.5 48t15.5 42.5t23.5 44.5t24.5 39.5t30.5 42.5t29 37t33 40t30.5 36l195 236h297l-244 -279q91 -14 152 -86t61 -170q0 -138 -105.5 -241t-256.5 -103zM350 854q0 -35 23.5 -57.5t58.5 -22.5q44 0 77.5 33.5t33.5 79.5
q0 37 -24.5 60.5t-61.5 23.5q-43 0 -75 -34t-32 -83z" />
    <glyph glyph-name="seven.numr" horiz-adv-x="659" 
d="M88 575l408 633h-316l47 228h600l-43 -201l-424 -660h-272z" />
    <glyph glyph-name="eight.numr" horiz-adv-x="733" 
d="M416 557q-136 0 -220.5 64t-84.5 170q0 71 42 139.5t111 95.5q-55 61 -55 131q0 129 94 213t229 84q129 0 209 -58t80 -157q0 -141 -129 -213q68 -71 68 -160q0 -134 -101 -221.5t-243 -87.5zM352 817q0 -26 20 -42.5t50 -16.5q37 0 68.5 26t31.5 60q0 28 -20 46.5
t-49 18.5q-38 0 -69.5 -28t-31.5 -64zM428 1188q-6 -31 15 -53.5t55 -22.5q38 0 69 29t31 63q0 26 -19.5 44t-48.5 18q-36 0 -65 -22.5t-37 -55.5z" />
    <glyph glyph-name="nine.numr" horiz-adv-x="727" 
d="M528 1454q136 0 218.5 -72t82.5 -194q0 -24 -3 -47t-12.5 -48t-15.5 -42.5t-23.5 -44.5t-24.5 -39.5t-30.5 -42.5t-29 -37t-33 -40t-30.5 -36l-195 -236h-297l244 279q-91 14 -152 86t-61 170q0 138 105.5 241t256.5 103zM399 1124q0 -37 24.5 -60.5t61.5 -23.5
q43 0 75 34t32 83q0 35 -23.5 57.5t-58.5 22.5q-44 0 -77.5 -33.5t-33.5 -79.5z" />
    <glyph glyph-name="zero.dnom.zero" horiz-adv-x="804" 
d="M328 -18q-171 0 -255.5 109t-47.5 280l38 178q71 330 381 330q173 0 255 -108.5t46 -297.5l-34 -176q-31 -153 -130 -234t-253 -81zM281 430l206 203q-21 18 -59 18q-53 0 -83 -34.5t-46 -104.5zM285 227q24 -18 61 -18q103 0 131 139l19 84z" />
    <glyph glyph-name="zero.numr.zero" horiz-adv-x="802" 
d="M449 557q-171 0 -256 109t-48 280l39 178q71 330 381 330q173 0 255 -108t46 -297l-35 -177q-31 -153 -129.5 -234t-252.5 -81zM401 1006l207 202q-22 19 -59 19q-53 0 -83 -35t-46 -105zM406 803q25 -19 61 -19q102 0 131 140l18 84z" />
    <glyph glyph-name="zero.sinf" horiz-adv-x="804" 
d="M274 -264q-171 0 -255.5 109t-47.5 280l39 178q71 330 381 330q173 0 255 -108.5t46 -297.5l-35 -176q-31 -153 -130 -234t-253 -81zM209 102q-14 -65 7.5 -102t76.5 -37q103 0 131 139l35 164q14 67 -7.5 103.5t-76.5 36.5q-53 0 -83 -35t-46 -105z" />
    <glyph glyph-name="one.sinf" horiz-adv-x="491" 
d="M442 614l-182 -860h-237l104 496h-150l48 215h20q68 0 111 38.5t55 92.5l4 18h227z" />
    <glyph glyph-name="two.sinf" horiz-adv-x="716" 
d="M-113 -246l43 195l281 213q100 76 136 114t36 78q0 25 -16 38.5t-39 13.5q-70 0 -86 -113h-232q66 340 350 340q122 0 195.5 -67.5t73.5 -170.5q0 -26 -5 -51.5t-11.5 -46t-21.5 -44.5t-24.5 -39.5t-32.5 -38.5t-34 -34.5t-40 -35t-39.5 -31.5t-43.5 -33t-41 -31l-35 -26
h252l-49 -230h-617z" />
    <glyph glyph-name="three.sinf" horiz-adv-x="714" 
d="M221 -264q-151 0 -232.5 83.5t-51.5 215.5h235q-6 -32 12 -56t52 -24q36 0 62 21t26 51q0 25 -20 43t-58 18h-39l43 205h37q46 0 72 22t26 54q0 21 -16 33t-41 12q-35 0 -59.5 -19.5t-30.5 -50.5h-232q31 141 125.5 215t224.5 74q129 0 201 -56.5t72 -156.5
q0 -56 -34 -118t-110 -107q80 -44 80 -146q0 -140 -98 -226.5t-246 -86.5z" />
    <glyph glyph-name="four.sinf" horiz-adv-x="753" 
d="M-80 -80l45 213l285 481h260l-272 -479h79l29 135h229l-28 -135h98l-47 -215h-98l-35 -166h-238l35 166h-342z" />
    <glyph glyph-name="five.sinf" horiz-adv-x="733" 
d="M231 -264q-142 0 -228.5 87.5t-63.5 217.5h235q0 -35 19 -55.5t55 -20.5q40 0 74 34.5t34 78.5q0 30 -18.5 48.5t-48.5 18.5q-58 0 -86 -39h-221l149 508h531l-48 -227h-317l-31 -80q44 21 96 21q108 0 172 -57t64 -162q0 -157 -106 -265t-261 -108z" />
    <glyph glyph-name="six.sinf" horiz-adv-x="729" 
d="M240 -264q-136 0 -218.5 72t-82.5 194q0 24 3 47t12.5 48t15.5 42.5t23.5 44.5t24.5 39.5t30.5 42.5t29 37t33 40t30.5 36l195 235h297l-244 -278q91 -14 152 -86t61 -170q0 -138 -105.5 -241t-256.5 -103zM176 33q0 -35 23.5 -57.5t58.5 -22.5q44 0 77.5 33.5t33.5 79.5
q0 37 -24.5 60.5t-61.5 23.5q-43 0 -75 -34t-32 -83z" />
    <glyph glyph-name="seven.sinf" horiz-adv-x="659" 
d="M-86 -246l408 633h-316l47 227h600l-43 -200l-424 -660h-272z" />
    <glyph glyph-name="eight.sinf" horiz-adv-x="733" 
d="M242 -264q-136 0 -220.5 63.5t-84.5 169.5q0 71 42 140t111 96q-55 61 -55 131q0 129 94 213t229 84q129 0 209 -58t80 -157q0 -141 -129 -213q68 -71 68 -160q0 -134 -101 -221.5t-243 -87.5zM178 -4q0 -26 20 -42.5t50 -16.5q37 0 68.5 26t31.5 60q0 28 -20 46.5
t-49 18.5q-38 0 -69.5 -28t-31.5 -64zM254 367q-6 -31 15 -53.5t55 -22.5q38 0 69 29t31 63q0 26 -19.5 43.5t-48.5 17.5q-36 0 -65 -22t-37 -55z" />
    <glyph glyph-name="nine.sinf" horiz-adv-x="727" 
d="M354 633q136 0 218.5 -72t82.5 -194q0 -24 -3 -47t-12.5 -48t-15.5 -42.5t-23.5 -44.5t-24.5 -39.5t-30.5 -42.5t-29 -37t-33 -40t-30.5 -36l-195 -236h-297l244 279q-91 14 -152 86t-61 170q0 138 105.5 241t256.5 103zM225 303q0 -37 24.5 -60.5t61.5 -23.5q43 0 75 34
t32 83q0 35 -23.5 57.5t-58.5 22.5q-44 0 -77.5 -33.5t-33.5 -79.5z" />
    <glyph glyph-name="zero.sups" horiz-adv-x="804" 
d="M467 639q-171 0 -255.5 109t-47.5 280l39 178q71 330 381 330q173 0 255 -108.5t46 -297.5l-35 -176q-31 -153 -130 -234t-253 -81zM401 1006q-14 -66 7.5 -103t76.5 -37q102 0 131 140l35 163q14 67 -7.5 103.5t-76.5 36.5q-53 0 -83 -35t-46 -105z" />
    <glyph glyph-name="one.sups" horiz-adv-x="491" 
d="M635 1518l-182 -861h-238l104 496h-149l47 215h21q68 0 110.5 38.5t54.5 92.5l5 19h227z" />
    <glyph glyph-name="two.sups" horiz-adv-x="716" 
d="M80 657l43 195l280 213q100 76 136 114t36 78q0 25 -16 38.5t-39 13.5q-70 0 -86 -113h-231q66 340 350 340q122 0 195 -67.5t73 -170.5q0 -26 -5 -51.5t-11.5 -46t-21.5 -44.5t-24.5 -39.5t-32.5 -38.5t-34 -34.5t-40 -35t-39.5 -31.5t-43.5 -33t-41 -31l-34 -26h251
l-49 -230h-616z" />
    <glyph glyph-name="three.sups" horiz-adv-x="714" 
d="M414 639q-151 0 -233 83.5t-52 215.5h236q-6 -32 11.5 -56t51.5 -24q36 0 62 21t26 51q0 25 -20 43t-58 18h-39l43 205h37q46 0 72.5 22t26.5 54q0 21 -16 33t-42 12q-35 0 -59.5 -19.5t-30.5 -50.5h-231q31 141 125.5 215t224.5 74q129 0 200.5 -56.5t71.5 -156.5
q0 -57 -33.5 -118.5t-109.5 -106.5q80 -44 80 -146q0 -140 -98 -226.5t-246 -86.5z" />
    <glyph glyph-name="four.sups" horiz-adv-x="755" 
d="M115 831l45 213l284 482h261l-273 -479h80l29 135h229l-29 -135h99l-47 -216h-99l-35 -165h-237l35 165h-342z" />
    <glyph glyph-name="five.sups" horiz-adv-x="731" 
d="M424 647q-142 0 -229 87.5t-64 217.5h236q0 -35 18.5 -55t54.5 -20q40 0 74.5 34.5t34.5 77.5q0 30 -19 49t-49 19q-58 0 -86 -39h-221l150 508h530l-47 -228h-318l-30 -79q41 20 96 20q108 0 172 -57t64 -162q0 -157 -106 -265t-261 -108z" />
    <glyph glyph-name="six.sups" horiz-adv-x="731" 
d="M434 647q-136 0 -218.5 72t-82.5 194q0 24 3.5 47t12.5 47.5t15.5 43t23.5 44.5t25 39.5t30 41.5t29.5 37.5t33 40t30.5 36.5l194 236h297l-243 -279q91 -14 152 -86t61 -170q0 -137 -106 -240.5t-257 -103.5zM371 944q0 -35 23.5 -57.5t58.5 -22.5q43 0 76.5 33t33.5 80
q0 37 -24.5 60.5t-61.5 23.5q-43 0 -74.5 -34t-31.5 -83z" />
    <glyph glyph-name="seven.sups" horiz-adv-x="661" 
d="M109 666l407 632h-315l47 228h600l-43 -201l-424 -659h-272z" />
    <glyph glyph-name="eight.sups" horiz-adv-x="733" 
d="M434 647q-136 0 -220.5 64t-84.5 170q0 71 42.5 139.5t111.5 95.5q-56 62 -56 131q0 129 94 213t230 84q129 0 209 -58t80 -157q0 -141 -129 -213q67 -70 67 -160q0 -134 -101 -221.5t-243 -87.5zM371 907q0 -26 19.5 -42.5t49.5 -16.5q37 0 69 26t32 60q0 28 -20.5 46.5
t-49.5 18.5q-37 0 -68.5 -28t-31.5 -64zM446 1278q-6 -31 15 -53.5t55 -22.5q38 0 69 29t31 63q0 26 -19 44t-48 18q-36 0 -65.5 -22.5t-37.5 -55.5z" />
    <glyph glyph-name="nine.sups" horiz-adv-x="729" 
d="M547 1536q136 0 218.5 -72t82.5 -194q0 -24 -3.5 -47t-12.5 -47.5t-15.5 -43t-23.5 -44.5t-25 -39.5t-30 -41.5t-29.5 -37.5t-33 -40t-30.5 -36.5l-194 -236h-297l243 279q-91 14 -152 86t-61 170q0 137 106 240.5t257 103.5zM418 1206q0 -37 24.5 -60.5t61.5 -23.5
q43 0 74.5 34t31.5 83q0 35 -23.5 57.5t-58.5 22.5q-44 0 -77 -33.5t-33 -79.5z" />
    <glyph glyph-name="zero.sinf.zero" horiz-adv-x="804" 
d="M274 -264q-171 0 -255.5 109t-47.5 280l39 178q71 330 381 330q173 0 255 -108.5t46 -297.5l-35 -176q-31 -153 -130 -234t-253 -81zM227 184l207 203q-22 19 -59 19q-53 0 -83 -35t-46 -105zM231 -18q25 -19 62 -19q103 0 131 139l18 84z" />
    <glyph glyph-name="zero.sups.zero" horiz-adv-x="804" 
d="M467 639q-171 0 -255.5 109t-47.5 280l39 178q71 330 381 330q173 0 255 -108.5t46 -297.5l-35 -176q-31 -153 -130 -234t-253 -81zM420 1087l207 203q-22 19 -60 19q-53 0 -83 -35t-46 -105zM424 885q25 -19 61 -19q102 0 131 140l19 84z" />
    <glyph glyph-name="colon.case" horiz-adv-x="589" 
d="M250 1171h379l-80 -366h-379zM33 160l80 366h379l-80 -366h-379z" />
    <glyph glyph-name="bullet.case" horiz-adv-x="868" 
d="M455 367q-136 0 -223.5 93t-79.5 230q8 138 103.5 230t231.5 92q138 0 225.5 -92t80.5 -230q-8 -137 -104.5 -230t-233.5 -93z" />
    <glyph glyph-name="question.ss02" horiz-adv-x="1054" 
d="M297 479q22 97 62.5 171t119.5 130l180 127q76 52 76 121q0 27 -16.5 45.5t-46.5 18.5h-49q-42 0 -68.5 -23t-32.5 -59l-12 -64h-389l22 107q34 162 162.5 271.5t284.5 109.5h180q151 0 253.5 -91t102.5 -237q0 -123 -51.5 -224t-169.5 -188l-131 -96q-85 -62 -98 -119
h-379zM215 0l80 367h379l-80 -367h-379z" />
    <glyph glyph-name="questiondown.ss02" horiz-adv-x="1048" 
d="M756 532q-22 -96 -63 -170t-120 -131l-180 -127q-76 -52 -76 -120q0 -27 17 -45.5t47 -18.5h49q41 0 67.5 22.5t32.5 59.5l13 64h389l-23 -107q-34 -162 -162 -271.5t-284 -109.5h-180q-151 0 -254 91t-103 237q0 123 51.5 223.5t169.5 187.5l132 97q85 63 98 118h379z
M379 645l80 367h379l-80 -367h-379z" />
    <glyph glyph-name="hyphen.case" horiz-adv-x="911" 
d="M104 573l72 338h731l-71 -338h-732z" />
    <glyph glyph-name="endash.case" horiz-adv-x="1282" 
d="M102 569l74 346h1104l-74 -346h-1104z" />
    <glyph glyph-name="emdash.case" horiz-adv-x="2222" 
d="M102 569l74 346h2044l-74 -346h-2044z" />
    <glyph glyph-name="parenleft.case" horiz-adv-x="761" 
d="M426 -160q-133 0 -225.5 63.5t-131 191.5t2.5 319l168 790q43 204 172 329.5t319 125.5h217l-69 -328h-97q-60 0 -113.5 -47.5t-70.5 -122.5l-174 -817q-17 -81 17.5 -128.5t101.5 -47.5h88l-70 -328h-135z" />
    <glyph glyph-name="parenright.case" horiz-adv-x="763" 
d="M442 1659q133 0 225.5 -63.5t131.5 -191.5t-2 -319l-168 -790q-43 -204 -172.5 -329.5t-319.5 -125.5h-217l70 328h96q60 0 113.5 47.5t70.5 122.5l174 817q17 81 -17 128.5t-101 47.5h-88l69 328h135z" />
    <glyph glyph-name="braceleft.case" horiz-adv-x="851" 
d="M549 -160q-98 0 -177 32t-131.5 93.5t-70.5 152.5t6 208l27 123q12 58 -22 97t-109 48l65 309q82 9 133 52.5t66 115.5l47 225q33 151 159.5 257t311.5 106h178l-69 -330h-70q-54 0 -101.5 -37t-60.5 -102l-43 -201q-11 -50 -29 -88t-45 -66.5t-51.5 -47t-64.5 -42.5
q118 -98 73 -305l-22 -104q-17 -73 16 -119.5t94 -46.5h56l-70 -330h-96z" />
    <glyph glyph-name="braceright.case" horiz-adv-x="851" 
d="M410 1659q98 0 177 -32t131 -93.5t70 -152t-6 -207.5l-26 -123q-12 -58 22 -97.5t109 -48.5l-66 -309q-81 -9 -132 -52.5t-66 -115.5l-48 -225q-33 -151 -159.5 -257t-311.5 -106h-178l70 330h70q54 0 101 37t60 102l43 201q11 50 29 88t45.5 66.5t52 46.5t64.5 43
q-119 99 -74 305l23 104q17 73 -16.5 119.5t-94.5 46.5h-55l69 330h97z" />
    <glyph glyph-name="bracketleft.case" horiz-adv-x="780" 
d="M659 1327l-243 -1155h235l-71 -332h-613l387 1819h613l-72 -332h-236z" />
    <glyph glyph-name="bracketright.case" horiz-adv-x="782" 
d="M227 172l244 1155h-235l71 332h613l-388 -1819h-612l72 332h235z" />
    <glyph glyph-name="guillemotleft.case" horiz-adv-x="1454" 
d="M1272 178l-514 391l59 279l680 395l-80 -403l-268 -146l203 -139zM104 598l60 279l680 395l-80 -404l-268 -145l202 -139l-80 -377z" />
    <glyph glyph-name="guillemotright.case" horiz-adv-x="1452" 
d="M270 1243l514 -391l-59 -279l-680 -395l80 404l268 145l-203 139zM698 150l80 403l269 145l-203 140l80 376l514 -391l-60 -278z" />
    <glyph glyph-name="guilsinglleft.case" horiz-adv-x="794" 
d="M612 178l-514 391l60 279l680 395l-80 -395l-260 -160l194 -133z" />
    <glyph glyph-name="guilsinglright.case" horiz-adv-x="794" 
d="M270 1243l514 -391l-59 -279l-680 -395l80 395l260 160l-195 133z" />
    <glyph glyph-name="registered.alt" horiz-adv-x="1660" 
d="M834 -31q-197 0 -359.5 93t-255 253t-92.5 351q0 159 65 307t173 255.5t254 171.5t301 64q196 0 358.5 -92.5t255 -252t92.5 -351.5q0 -159 -65 -306.5t-173 -255.5t-253.5 -172.5t-300.5 -64.5zM272 676q0 -156 74 -286.5t203 -205.5t285 -75q127 0 246.5 52.5t207 140
t140.5 208.5t53 252q0 117 -43.5 221.5t-118 180t-178.5 119.5t-221 44q-127 0 -246.5 -52.5t-207.5 -140t-141 -208t-53 -250.5zM537 326l168 788h243q116 0 193.5 -64t77.5 -165q0 -139 -121 -211q66 -66 43 -174l-39 -174h-236l33 147q9 46 -5 67t-60 21h-11l-51 -235
h-235zM866 760h21q41 0 65.5 26t24.5 62q0 25 -15.5 39t-43.5 14h-23z" />
    <glyph glyph-name="at.case" horiz-adv-x="1824" 
d="M926 551q64 0 110.5 53t46.5 129q0 51 -26.5 81t-75.5 30q-63 0 -108.5 -52.5t-45.5 -125.5q0 -55 27 -85t72 -30zM94 584q0 197 73.5 376t200 310t307 208.5t384.5 77.5q157 0 287 -33.5t221.5 -93t154 -141.5t92 -178.5t29.5 -204.5q0 -60 -9 -120.5t-29 -122.5
t-48.5 -117.5t-71 -104.5t-93.5 -84.5t-118 -56t-143 -20.5q-140 0 -213 108q-44 -46 -112 -77t-148 -31q-147 0 -236.5 102t-89.5 252q0 120 53.5 230t156 181.5t229.5 71.5q128 0 180 -74l12 58h287l-90 -430q-5 -27 -6 -53t11.5 -45t37.5 -19q32 0 60 41.5t45 100
t26.5 113t9.5 87.5q0 61 -14.5 114t-49.5 102.5t-89 84t-139 55.5t-193 21q-136 0 -256.5 -51.5t-206.5 -140.5t-136 -213t-50 -265q0 -104 33 -189.5t99 -150t173.5 -100t247.5 -35.5h419l-59 -281h-381q-204 0 -366.5 56t-267 155t-159.5 233.5t-55 293.5z" />
    <glyph glyph-name="uni030C.alt" 
d="M330 1094l129 442h356l-192 -442h-293z" />
    <glyph glyph-name="uni0308.case" 
d="M958 1825h340l-65 -307h-340zM414 1518l65 307h340l-65 -307h-340z" />
    <glyph glyph-name="uni0307.case" 
d="M483 1825h394l-66 -307h-393z" />
    <glyph glyph-name="gravecomb.case" 
d="M479 1800h420l121 -282h-328z" />
    <glyph glyph-name="acutecomb.case" 
d="M1057 1800l-309 -282h-328l219 282h418z" />
    <glyph glyph-name="uni030B.case" 
d="M1018 1800l-258 -282h-350l239 282h369zM889 1518l237 282h400l-312 -282h-325z" />
    <glyph glyph-name="uni0302.case" 
d="M418 1518l291 307h405l172 -307h-358l-45 110l-95 -110h-370z" />
    <glyph glyph-name="uni030C.case" 
d="M483 1821h361l49 -105l96 105h361l-295 -303h-408z" />
    <glyph glyph-name="uni0306.case" 
d="M1257 1812q-31 -148 -137 -232.5t-260 -84.5q-178 0 -276 82.5t-78 234.5h299q-12 -44 6 -71t55 -27q75 0 95 98h296z" />
    <glyph glyph-name="uni030A.case" 
d="M786 1499q-138 0 -228.5 81t-80.5 198q9 118 108 199t236 81q139 0 230 -81.5t82 -198.5q-11 -118 -110 -198.5t-237 -80.5zM705 1778q-3 -37 23 -63.5t67 -26.5q43 0 75 26.5t35 63.5t-25 63.5t-71 26.5q-41 0 -71 -26.5t-33 -63.5z" />
    <glyph glyph-name="tildecomb.case" 
d="M418 1518q65 329 334 329q67 0 130.5 -20.5t107.5 -41t63 -20.5q29 0 43.5 14t21.5 52h262q-62 -330 -346 -330q-66 0 -126 19.5t-102 39t-63 19.5q-54 0 -63 -61h-262z" />
    <glyph glyph-name="uni0304.case" 
d="M420 1518l55 268h735l-55 -268h-735z" />
    </font>
</defs>
</svg>
