<?xml version="1.0" standalone="no"?>
<!DOCTYPE svg PUBLIC "-//W3C//DTD SVG 1.1//EN" "http://www.w3.org/Graphics/SVG/1.1/DTD/svg11.dtd" >
<svg xmlns="http://www.w3.org/2000/svg" xmlns:xlink="http://www.w3.org/1999/xlink" version="1.1">
<metadata>
Created by FontForge 20201107 at Tue May 20 08:22:18 2025
 By 
Copyright (c) 2020 by Martin Va'cha. All rights reserved.
</metadata>
<defs>
<font id="AvanttTRIAL-RegularItalic" horiz-adv-x="0" >
  <font-face 
    font-family="Avantt TRIAL Italic"
    font-weight="400"
    font-style="italic"
    font-stretch="normal"
    units-per-em="2048"
    panose-1="0 0 0 0 0 0 0 0 0 0"
    ascent="1638"
    descent="-410"
    x-height="995"
    cap-height="1434"
    bbox="-406 -496 2392.08 2142"
    underline-thickness="92"
    underline-position="-221"
    slope="-12"
    unicode-range="U+0020-E133"
  />
<missing-glyph horiz-adv-x="2285" 
d="M150 631q1 202 79 387.5t209.5 322.5t313.5 222t383 92v-2042q-161 5 -312 59.5t-272 149t-211.5 218.5t-140 276.5t-49.5 314.5zM1210 -383v2032q82 -29 152 -172.5t111 -368.5t40 -477q1 -251 -40 -475t-111 -367t-152 -172zM1364 -350q104 136 164 399t59 582
q1 321 -58.5 585.5t-162.5 401.5q146 -63 260.5 -208t179.5 -349t64 -430q0 -344 -141 -616t-365 -365zM1573 -307q172 150 273 400.5t100 537.5q1 288 -100.5 539t-272.5 401q280 -117 450 -373.5t170 -566.5q0 -309 -169.5 -565t-450.5 -373z" />
    <glyph glyph-name=".notdef" horiz-adv-x="2285" 
d="M150 631q1 202 79 387.5t209.5 322.5t313.5 222t383 92v-2042q-161 5 -312 59.5t-272 149t-211.5 218.5t-140 276.5t-49.5 314.5zM1210 -383v2032q82 -29 152 -172.5t111 -368.5t40 -477q1 -251 -40 -475t-111 -367t-152 -172zM1364 -350q104 136 164 399t59 582
q1 321 -58.5 585.5t-162.5 401.5q146 -63 260.5 -208t179.5 -349t64 -430q0 -344 -141 -616t-365 -365zM1573 -307q172 150 273 400.5t100 537.5q1 288 -100.5 539t-272.5 401q280 -117 450 -373.5t170 -566.5q0 -309 -169.5 -565t-450.5 -373z" />
    <glyph glyph-name=".null" 
 />
    <glyph glyph-name="nonmarkingreturn" horiz-adv-x="682" 
 />
    <glyph glyph-name="space" unicode=" " horiz-adv-x="495" 
 />
    <glyph glyph-name="exclam" unicode="!" horiz-adv-x="512" 
d="M375 1434h157l-231 -1055h-141zM59 0l41 193h195l-41 -193h-195z" />
    <glyph glyph-name="quotedbl" unicode="&#x22;" horiz-adv-x="669" 
d="M543 1016l18 244l35 174h147l-34 -174l-86 -244h-80zM260 1016l19 244l34 174h148l-35 -174l-86 -244h-80z" />
    <glyph glyph-name="numbersign" unicode="#" horiz-adv-x="1415" 
d="M1382 1434l-196 -418h246l-29 -133h-279l-155 -334h282l-28 -127h-314l-198 -422h-166l198 422h-272l-199 -422h-163l198 422h-225l27 127h258l155 334h-260l27 133h295l196 418h166l-196 -418h270l197 418h165zM530 549h273l155 334h-270z" />
    <glyph glyph-name="dollar" unicode="$" horiz-adv-x="1024" 
d="M825 1675l-49 -231q142 -34 211.5 -144.5t36.5 -261.5h-154q21 121 -37 197t-184 76q-67 0 -121.5 -25t-86.5 -66t-49 -89t-17 -97q0 -59 30.5 -101.5t78.5 -67.5t106.5 -47t117.5 -49t107 -63t78.5 -99.5t30.5 -149.5q0 -98 -31 -184.5t-88 -152.5t-145.5 -105
t-196.5 -40l-47 -221h-144l52 240q-143 42 -215 165.5t-37 282.5h155q-18 -78 -0.5 -149.5t78 -120.5t156.5 -49q75 0 135 27t95.5 72.5t54 100t18.5 113.5q0 50 -18.5 88t-50 63.5t-72.5 46t-86 38t-90.5 37t-86.5 46t-72.5 61t-50 87t-18.5 119.5q0 114 47.5 210.5
t143.5 158.5t225 67l45 217h145z" />
    <glyph glyph-name="percent" unicode="%" horiz-adv-x="1540" 
d="M1319 1434h137l-1155 -1434h-137zM186 1036q0 71 25.5 144t72 135.5t121 102.5t162.5 40q118 0 189 -75.5t71 -196.5q0 -71 -25.5 -144.5t-72 -137t-121.5 -104t-164 -40.5q-115 0 -186.5 76.5t-71.5 199.5zM305 1044q0 -78 41.5 -127t110.5 -49q75 0 134.5 48.5
t88.5 118t29 141.5q0 78 -42 126t-112 48q-74 0 -132.5 -46.5t-88 -116t-29.5 -143.5zM811 252q0 71 25.5 144t72 135.5t121 102.5t162.5 40q118 0 189 -76t71 -197q0 -71 -25.5 -144.5t-72 -137t-121.5 -104t-164 -40.5q-115 0 -186.5 77t-71.5 200zM930 260q0 -78 41 -127
t110 -49q75 0 134.5 48.5t88.5 117.5t29 141q0 79 -41.5 126.5t-111.5 47.5q-74 0 -132.5 -46.5t-88 -115.5t-29.5 -143z" />
    <glyph glyph-name="ampersand" unicode="&#x26;" horiz-adv-x="1325" 
d="M457 -25q-182 0 -286.5 88.5t-104.5 237.5q0 79 22.5 146t56.5 113.5t89 87.5t105.5 67t119.5 55q-52 70 -82.5 137t-30.5 148q0 168 121 285.5t295 117.5q144 0 234.5 -77t90.5 -205q0 -78 -24.5 -142.5t-60 -108t-96 -84t-111 -64.5t-125.5 -54l264 -356
q81 104 147 239l54 109h151l-61 -127q-87 -190 -207 -332l190 -256h-174l-116 156q-208 -181 -461 -181zM215 322q0 -98 70 -157t188 -59q193 0 365 156l-303 408q-74 -31 -124 -58.5t-99 -69t-73 -96.5t-24 -124zM494 1059q0 -63 24.5 -116t75.5 -122q68 27 110 46t93.5 50
t80 62t48.5 76.5t20 99.5q0 76 -52.5 125t-139.5 49q-108 0 -184 -74.5t-76 -195.5z" />
    <glyph glyph-name="quotesingle" unicode="'" horiz-adv-x="387" 
d="M260 1016l19 244l34 174h148l-35 -174l-86 -244h-80z" />
    <glyph glyph-name="parenleft" unicode="(" horiz-adv-x="645" 
d="M354 -324q-172 0 -246 110t-28 331l219 1030q39 165 145 256.5t273 91.5h98l-29 -131h-61q-108 0 -183.5 -65t-103.5 -193l-221 -1038q-27 -130 22 -195.5t158 -65.5h58l-27 -131h-74z" />
    <glyph glyph-name="parenright" unicode=")" horiz-adv-x="643" 
d="M330 1493q172 0 246 -109.5t28 -330.5l-219 -1030q-39 -165 -145 -257t-273 -92h-98l29 131h61q108 0 183.5 65t103.5 193l221 1039q27 130 -22 195t-158 65h-58l27 131h74z" />
    <glyph glyph-name="asterisk" unicode="*" horiz-adv-x="995" 
d="M324 659l-80 84l270 287l-299 92l57 107l293 -88l70 319h121l-70 -319l332 88l14 -115l-336 -90l156 -295l-104 -65l-150 288z" />
    <glyph glyph-name="plus" unicode="+" horiz-adv-x="1269" 
d="M213 596l29 137h370l78 373h148l-80 -373h370l-28 -137h-371l-80 -375h-145l78 375h-369z" />
    <glyph glyph-name="comma" unicode="," horiz-adv-x="407" 
d="M78 -51q4 23 -6.5 37t-32.5 14h-39l41 193h195l-95 -443h-106z" />
    <glyph glyph-name="hyphen" unicode="-" horiz-adv-x="737" 
d="M98 508l29 139h543l-29 -139h-543z" />
    <glyph glyph-name="period" unicode="." horiz-adv-x="460" 
d="M74 193h194l-41 -193h-194z" />
    <glyph glyph-name="slash" unicode="/" horiz-adv-x="903" 
d="M-55 0l934 1434h172l-932 -1434h-174z" />
    <glyph glyph-name="slash" unicode="&#x2215;" horiz-adv-x="903" 
d="M-55 0l934 1434h172l-932 -1434h-174z" />
    <glyph glyph-name="zero" unicode="0" horiz-adv-x="1245" 
d="M555 -20q-112 0 -201.5 40.5t-145 115t-74.5 179.5t9 234l78 364q113 541 565 541q232 0 347.5 -160.5t58.5 -431.5l-76 -364q-53 -254 -193.5 -386t-367.5 -132zM295 522q-38 -177 38.5 -286t229.5 -109q165 0 263.5 103.5t140.5 306.5l75 358q39 187 -36.5 299.5
t-227.5 112.5q-165 0 -263 -105t-142 -313z" />
    <glyph glyph-name="one" unicode="1" horiz-adv-x="616" 
d="M637 1434l-303 -1434h-156l225 1059h-225l31 141h106q69 0 105 28.5t49 94.5l23 111h145z" />
    <glyph glyph-name="two" unicode="2" horiz-adv-x="1099" 
d="M-14 0l26 129l652 551q62 52 95.5 81.5t77.5 75.5t65.5 81.5t37.5 82.5t16 97q0 99 -68.5 156t-185.5 57q-124 0 -218 -92.5t-119 -239.5h-154q36 226 176 352.5t338 126.5q179 0 285 -93.5t106 -248.5q0 -67 -20.5 -130.5t-51 -113t-82 -105t-96.5 -94t-112 -91.5
l-508 -432h694l-31 -150h-923z" />
    <glyph glyph-name="three" unicode="3" horiz-adv-x="1144" 
d="M485 -25q-139 0 -243 57.5t-150.5 160.5t-19.5 229h155q-27 -132 49.5 -217.5t217.5 -85.5q110 0 196 51t128 127t42 160q0 98 -76 152.5t-213 54.5h-51l29 135h51q157 0 270 87.5t113 223.5q0 97 -68 151t-188 54q-119 0 -217.5 -76t-126.5 -205h-152q41 202 183 313
t331 111q184 0 290 -87.5t106 -235.5q0 -141 -90.5 -249t-241.5 -153q100 -28 153.5 -95.5t53.5 -168.5q0 -211 -150.5 -352.5t-380.5 -141.5z" />
    <glyph glyph-name="four" unicode="4" horiz-adv-x="1130" 
d="M37 336l31 137l661 961h174l-661 -961h477l78 375h153l-80 -375h220l-31 -137h-219l-70 -336h-158l72 336h-647z" />
    <glyph glyph-name="five" unicode="5" horiz-adv-x="1128" 
d="M487 -25q-138 0 -242.5 57.5t-152 160t-22.5 227.5h157q-23 -135 53 -215t218 -80q155 0 269 123t114 284q0 121 -73 186.5t-200 65.5q-170 0 -289 -122h-141l234 772h739l-29 -148h-602l-151 -479q121 100 278 100q182 0 286.5 -92t104.5 -268q0 -155 -71.5 -286
t-198.5 -208.5t-281 -77.5z" />
    <glyph glyph-name="six" unicode="6" horiz-adv-x="1138" 
d="M528 -25q-192 0 -319 122.5t-127 303.5q0 111 55 230.5t150 230.5l483 572h201l-471 -547q74 35 157 35q180 0 298 -116t118 -296q0 -143 -75 -267t-201 -196t-269 -72zM240 408q0 -121 81.5 -205t208.5 -84q156 0 270.5 113t114.5 272q0 129 -81 210t-213 81
q-102 0 -190.5 -54.5t-139.5 -144t-51 -188.5z" />
    <glyph glyph-name="seven" unicode="7" horiz-adv-x="993" 
d="M66 0l874 1286h-750l31 148h926l-29 -134l-878 -1300h-174z" />
    <glyph glyph-name="eight" unicode="8" horiz-adv-x="1165" 
d="M508 -25q-191 0 -308.5 96.5t-117.5 254.5q0 150 102 272t250 156q-83 32 -130.5 97t-47.5 159q0 123 68 226.5t181 162.5t243 59q181 0 291 -85.5t110 -231.5q0 -58 -17.5 -114.5t-53 -110t-97 -96.5t-141.5 -66q93 -30 148.5 -105t55.5 -182q0 -134 -71 -247
t-194.5 -179t-270.5 -66zM240 340q0 -101 73.5 -165t196.5 -64q156 0 267.5 103t111.5 245q0 102 -70.5 160.5t-191.5 58.5q-158 0 -272.5 -100.5t-114.5 -237.5zM401 1016q0 -92 66.5 -147.5t179.5 -55.5q153 0 252.5 89t99.5 220q0 94 -70 150.5t-184 56.5
q-141 0 -242.5 -94t-101.5 -219z" />
    <glyph glyph-name="nine" unicode="9" horiz-adv-x="1138" 
d="M705 1458q192 0 319 -122.5t127 -303.5q0 -111 -55 -230.5t-150 -230.5l-483 -571h-201l471 547q-74 -35 -158 -35q-180 0 -297.5 116t-117.5 296q0 108 44.5 207t118.5 170.5t174.5 114t207.5 42.5zM317 930q0 -128 81.5 -209.5t213.5 -81.5q102 0 190.5 54.5t139.5 144
t51 188.5q0 121 -82 205t-209 84q-156 0 -270.5 -113t-114.5 -272z" />
    <glyph glyph-name="colon" unicode=":" horiz-adv-x="458" 
d="M215 889h195l-41 -193h-195zM27 0l41 193h194l-41 -193h-194z" />
    <glyph glyph-name="semicolon" unicode=";" horiz-adv-x="456" 
d="M215 889h195l-41 -193h-195zM27 0l41 193h194l-94 -443h-107l43 199q4 23 -6 37t-32 14h-39z" />
    <glyph glyph-name="less" unicode="&#x3c;" horiz-adv-x="1269" 
d="M1169 1026l-34 -162l-719 -289l596 -290l-29 -142l-778 383l24 117z" />
    <glyph glyph-name="equal" unicode="=" horiz-adv-x="1269" 
d="M1171 944l-28 -137h-887l29 137h886zM166 387l29 137h886l-28 -137h-887z" />
    <glyph glyph-name="greater" unicode="&#x3e;" horiz-adv-x="1269" 
d="M137 143l35 162l719 289l-596 291l29 141l778 -383l-25 -117z" />
    <glyph glyph-name="question" unicode="?" horiz-adv-x="983" 
d="M653 1458q166 0 268.5 -93.5t102.5 -244.5q0 -79 -25 -145.5t-66 -115t-92 -91t-105.5 -84t-103 -83.5t-89 -99.5t-58.5 -122.5h-149q17 79 56 145.5t86 112.5t100.5 87.5t103.5 79.5t90.5 78.5t65 95.5t24.5 120q0 97 -61 154t-162 57q-121 0 -211.5 -90.5
t-114.5 -223.5h-153q43 216 174.5 339.5t318.5 123.5zM248 0l41 193h194l-41 -193h-194z" />
    <glyph glyph-name="at" unicode="@" horiz-adv-x="1865" 
d="M854 195q99 0 180 58.5t123.5 146t42.5 180.5q0 101 -58 160t-159 59q-145 0 -248.5 -106.5t-103.5 -254.5q0 -106 61.5 -174.5t161.5 -68.5zM86 385q0 187 69.5 357.5t192.5 299t305.5 205t395.5 76.5q345 0 546 -170.5t201 -447.5q0 -60 -12.5 -128t-35.5 -138.5
t-61 -135.5t-85 -115.5t-111.5 -81t-136.5 -30.5q-170 0 -178 188q-62 -85 -157 -136.5t-202 -51.5q-148 0 -240 102t-92 252q0 95 37 184t101 156t156.5 107.5t197.5 40.5q102 0 173 -50t91 -137l37 170h141l-112 -526q-6 -28 -8.5 -48.5t-1 -46t9.5 -41.5t27 -27t48 -11
q66 0 121 53t87.5 132t50.5 161.5t18 150.5q0 221 -162 356.5t-450 135.5q-182 0 -338 -65.5t-261.5 -175.5t-165 -256t-59.5 -306q0 -179 88 -311t240.5 -199t349.5 -67h381l-29 -134h-354q-241 0 -425 86.5t-286 248t-102 374.5z" />
    <glyph glyph-name="A" unicode="A" horiz-adv-x="1179" 
d="M-76 0l793 1434h151l181 -1434h-158l-43 352h-561l-191 -352h-172zM350 498h490l-90 731z" />
    <glyph glyph-name="B" unicode="B" horiz-adv-x="1073" 
d="M68 0l303 1434h305q176 0 278.5 -80.5t102.5 -220.5q0 -136 -93 -245t-227 -134q87 -14 145 -89.5t58 -195.5q0 -206 -136 -337.5t-353 -131.5h-383zM250 131h209q105 0 180 48.5t109 121.5t34 158q0 97 -55.5 155t-153.5 58h-206zM393 803h170q133 0 234.5 86.5
t101.5 214.5q0 93 -64.5 146t-179.5 53h-155z" />
    <glyph glyph-name="C" unicode="C" horiz-adv-x="1523" 
d="M758 -25q-279 0 -451 173t-172 450q0 174 65 333t174.5 274.5t262 184t319.5 68.5q261 0 424 -142t166 -355h-168q-7 101 -66.5 181.5t-154 124.5t-203.5 44q-139 0 -263.5 -59t-210.5 -156.5t-136.5 -225t-50.5 -262.5q0 -217 129 -351t336 -134q176 0 313.5 92
t202.5 250h172q-79 -231 -263.5 -360.5t-424.5 -129.5z" />
    <glyph glyph-name="D" unicode="D" horiz-adv-x="1417" 
d="M797 1434q273 0 428 -153.5t155 -406.5q0 -118 -28.5 -236.5t-93.5 -234.5t-159.5 -204.5t-238 -143.5t-317.5 -55h-475l303 1434h426zM256 145h295q144 0 261.5 47t192 121t125.5 171t72 192t21 188q0 192 -114 308t-314 116h-297z" />
    <glyph glyph-name="E" unicode="E" horiz-adv-x="950" 
d="M371 1434h686l-29 -146h-530l-99 -452h463l-31 -142h-460l-117 -549h530l-30 -145h-686z" />
    <glyph glyph-name="F" unicode="F" horiz-adv-x="921" 
d="M371 1434h686l-29 -146h-530l-99 -454h461l-31 -146h-460l-146 -688h-155z" />
    <glyph glyph-name="G" unicode="G" horiz-adv-x="1576" 
d="M764 -25q-281 0 -456 172.5t-175 444.5q0 167 65 325t176.5 277.5t271 191.5t337.5 72q245 0 402 -125.5t178 -312.5h-172q-16 86 -76.5 153.5t-150 103.5t-193.5 36q-116 0 -223 -40t-189 -109.5t-143 -160t-93 -195t-32 -210.5q0 -214 132.5 -346.5t350.5 -132.5
q213 0 372.5 138t213.5 364l-496 -9l31 142h639q-4 -58 -16 -113q-40 -195 -145 -345.5t-263.5 -235.5t-345.5 -85z" />
    <glyph glyph-name="H" unicode="H" horiz-adv-x="1236" 
d="M68 0l303 1434h155l-129 -619h580l131 619h156l-303 -1434h-158l143 670h-581l-142 -670h-155z" />
    <glyph glyph-name="I" unicode="I" horiz-adv-x="499" 
d="M371 1434h155l-303 -1434h-155z" />
    <glyph glyph-name="J" unicode="J" horiz-adv-x="659" 
d="M55 145q214 0 267 254l219 1035h155l-225 -1061q-77 -373 -410 -373h-116l30 145h80z" />
    <glyph glyph-name="K" unicode="K" horiz-adv-x="1036" 
d="M758 0l-383 719l-152 -719h-155l303 1434h155l-137 -654l627 654h184l-676 -691l412 -743h-178z" />
    <glyph glyph-name="L" unicode="L" horiz-adv-x="890" 
d="M371 1434h155l-272 -1289h532l-30 -145h-688z" />
    <glyph glyph-name="M" unicode="M" horiz-adv-x="1787" 
d="M68 0l303 1434h196l260 -1229l775 1229h213l-304 -1434h-153l192 907q16 76 34.5 151.5t29.5 113.5l10 38q-64 -123 -154 -270l-606 -940h-143l-205 907q-15 76 -26.5 152t-15.5 115l-5 38q-20 -133 -55 -305l-195 -907h-151z" />
    <glyph glyph-name="N" unicode="N" horiz-adv-x="1239" 
d="M803 573q22 -74 41 -149t27 -114l8 -38q18 136 53 306l180 856h154l-303 -1434h-142l-284 881q-22 74 -41.5 149t-27.5 114l-9 38q-16 -136 -53 -308l-187 -874h-151l303 1434h151z" />
    <glyph glyph-name="O" unicode="O" horiz-adv-x="1646" 
d="M770 -25q-181 0 -327 84t-227 230t-81 325q0 162 64.5 315.5t174 270t267 187.5t332.5 71q180 0 325.5 -83t226.5 -228t81 -322q0 -130 -40 -255.5t-116 -232t-177.5 -188.5t-231.5 -128t-271 -46zM295 627q0 -220 137 -362t354 -142q175 0 328 95.5t242.5 254.5
t89.5 340q0 216 -137 357t-353 141q-131 0 -253.5 -56t-211.5 -148.5t-142.5 -219t-53.5 -260.5z" />
    <glyph glyph-name="P" unicode="P" horiz-adv-x="1026" 
d="M68 0l303 1434h342q175 0 279 -89t104 -241q0 -128 -61.5 -234.5t-174.5 -169.5t-254 -63h-248l-135 -637h-155zM387 780h221q84 0 150 28.5t104 74.5t57 98t19 106q0 93 -64.5 147t-177.5 54h-198z" />
    <glyph glyph-name="Q" unicode="Q" horiz-adv-x="1648" 
d="M772 0q-137 0 -255.5 48.5t-201.5 132.5t-130.5 200t-47.5 248q0 159 65.5 309.5t176 264.5t267.5 183.5t329 69.5q136 0 254.5 -47.5t202 -130t131 -197.5t47.5 -245q0 -208 -109.5 -396.5t-316.5 -294.5h334l-31 -145h-715zM297 639q0 -215 137.5 -355.5t353.5 -140.5
q176 0 329 95t242 251.5t89 333.5q0 214 -137.5 353t-352.5 139q-131 0 -253.5 -55.5t-211.5 -147.5t-142.5 -216.5t-53.5 -256.5z" />
    <glyph glyph-name="R" unicode="R" horiz-adv-x="1122" 
d="M68 0l303 1434h350q177 0 280 -86.5t103 -233.5q0 -143 -71.5 -245t-201.5 -152q89 -48 119 -134.5t6 -193.5l-82 -389h-153l80 387q55 254 -213 254h-230l-135 -641h-155zM387 780h215q160 0 252 87t92 220q0 93 -64.5 147t-176.5 54h-209z" />
    <glyph glyph-name="S" unicode="S" horiz-adv-x="1050" 
d="M469 -25q-130 0 -228 62t-140.5 170t-14.5 235h156q-18 -78 -1 -149t77.5 -120.5t156.5 -49.5q75 0 135 27t95.5 72.5t54 100t18.5 113.5q0 50 -18.5 88t-50 63.5t-72.5 46t-86 38t-90.5 37t-86.5 46t-72.5 61t-50 87t-18.5 119.5q0 118 50 215.5t151 159t236 61.5
q195 0 301 -118.5t67 -301.5h-153q21 121 -37 197t-184 76q-89 0 -153.5 -43.5t-93 -105t-28.5 -128.5q0 -59 30.5 -101.5t78.5 -67.5t106.5 -47t117.5 -49t107 -63t78.5 -99.5t30.5 -149.5q0 -133 -53.5 -241t-161.5 -174.5t-254 -66.5z" />
    <glyph glyph-name="T" unicode="T" horiz-adv-x="954" 
d="M201 1288l30 146h885l-29 -146h-366l-272 -1288h-156l274 1288h-366z" />
    <glyph glyph-name="U" unicode="U" horiz-adv-x="1232" 
d="M532 -25q-211 0 -316 140t-58 366l202 953h156l-209 -983q-31 -142 37.5 -235t202.5 -93q141 0 235 92t127 250l207 969h156l-207 -979q-46 -223 -185.5 -351.5t-347.5 -128.5z" />
    <glyph glyph-name="V" unicode="V" horiz-adv-x="1175" 
d="M565 0h-159l-183 1434h158l143 -1213l647 1213h177z" />
    <glyph glyph-name="W" unicode="W" horiz-adv-x="1822" 
d="M317 0l-73 1434h159l54 -908q3 -77 4 -149.5t1 -106.5l-1 -34q47 108 123 264l454 934h136l61 -906l16 -290q41 108 113 268l444 928h164l-676 -1434h-161l-82 1153l-570 -1153h-166z" />
    <glyph glyph-name="X" unicode="X" horiz-adv-x="1060" 
d="M737 0l-172 629l-444 -629h-176l542 745l-204 689h161l162 -572l395 572h173l-490 -695l215 -739h-162z" />
    <glyph glyph-name="Y" unicode="Y" horiz-adv-x="1064" 
d="M233 1434h168l187 -648l463 648h174l-588 -820l-131 -614h-156l129 614z" />
    <glyph glyph-name="Z" unicode="Z" horiz-adv-x="974" 
d="M291 1434h813l-25 -123l-909 -1166h668l-31 -145h-856l24 123l910 1165h-625z" />
    <glyph glyph-name="bracketleft" unicode="[" horiz-adv-x="659" 
d="M516 1362l-328 -1548h279l-29 -136h-432l387 1819h432l-30 -135h-279z" />
    <glyph glyph-name="backslash" unicode="\" horiz-adv-x="856" 
d="M717 0h-158l-326 1434h158z" />
    <glyph glyph-name="bracketright" unicode="]" horiz-adv-x="657" 
d="M182 -186l328 1548h-279l29 135h432l-387 -1819h-432l31 136h278z" />
    <glyph glyph-name="asciicircum" unicode="^" horiz-adv-x="1269" 
d="M1100 608h-152l-147 639l-416 -639h-160l539 826h143z" />
    <glyph glyph-name="underscore" unicode="_" horiz-adv-x="1153" 
d="M-37 -160l31 140h969l-31 -140h-969z" />
    <glyph glyph-name="grave" unicode="`" horiz-adv-x="763" 
d="M397 1391h162l131 -289h-131z" />
    <glyph glyph-name="a" unicode="a" horiz-adv-x="1081" 
d="M377 -25q-145 0 -235.5 73t-90.5 190q0 88 41 157.5t112 112t162 64.5t195 22h254l6 35q24 121 -30 194.5t-191 73.5q-108 0 -195.5 -62.5t-105.5 -158.5h-149q31 150 160.5 247t297.5 97q208 0 304 -112.5t57 -289.5l-131 -618h-146l31 150q-67 -79 -158.5 -127
t-187.5 -48zM197 246q0 -70 54 -112t148 -42q130 0 243 100.5t142 239.5l9 43h-244q-73 0 -134.5 -12.5t-111.5 -38.5t-78 -71.5t-28 -106.5z" />
    <glyph glyph-name="b" unicode="b" horiz-adv-x="1288" 
d="M637 -25q-138 0 -243.5 64.5t-151.5 173.5l-45 -213h-148l303 1434h150l-123 -576q71 77 168.5 119.5t206.5 42.5q197 0 325.5 -127.5t128.5 -329.5q0 -159 -75 -294t-206.5 -214.5t-289.5 -79.5zM301 446q0 -147 93 -238t243 -91q173 0 297.5 128.5t124.5 301.5
q0 143 -93.5 237.5t-238.5 94.5q-180 0 -303 -125.5t-123 -307.5z" />
    <glyph glyph-name="c" unicode="c" horiz-adv-x="1132" 
d="M532 -25q-195 0 -323.5 125.5t-128.5 329.5q0 121 44.5 229.5t121 188t185 126t231.5 46.5q179 0 301.5 -101t121.5 -251h-147q-4 91 -86 153t-193 62q-183 0 -308.5 -127.5t-125.5 -313.5q0 -149 88.5 -238t227.5 -89q117 0 207.5 56t130.5 163h153
q-50 -172 -186 -265.5t-314 -93.5z" />
    <glyph glyph-name="d" unicode="d" horiz-adv-x="1286" 
d="M532 -25q-195 0 -323.5 127.5t-128.5 329.5q0 161 77.5 296.5t209 213.5t284.5 78q138 0 244 -64.5t152 -173.5l137 652h149l-305 -1434h-147l30 152q-62 -80 -165.5 -128.5t-213.5 -48.5zM229 449q0 -143 93 -236.5t239 -93.5q180 0 304 125t124 305q0 148 -93.5 239
t-244.5 91q-113 0 -210.5 -59t-154.5 -158t-57 -213z" />
    <glyph glyph-name="e" unicode="e" horiz-adv-x="1146" 
d="M524 -25q-203 0 -324.5 125.5t-121.5 317.5q0 161 77.5 299.5t213 220.5t297.5 82q143 0 246.5 -65.5t146.5 -177.5t18 -247q-12 -49 -14 -53h-842q-4 -40 -4 -59q0 -144 86.5 -228t231.5 -84q107 0 201 54t130 145h154q-57 -153 -190 -241.5t-306 -88.5zM252 602h688
q20 124 -65 206.5t-224 82.5q-135 0 -241 -81t-158 -208z" />
    <glyph glyph-name="f" unicode="f" horiz-adv-x="645" 
d="M100 866l27 129h205l30 140q31 152 121.5 225.5t245.5 73.5h96l-26 -123h-74q-89 0 -142 -44.5t-73 -136.5l-29 -135h252l-26 -129h-252l-185 -866h-149l184 866h-205z" />
    <glyph glyph-name="g" unicode="g" horiz-adv-x="1267" 
d="M348 -385q-184 0 -278.5 84.5t-63.5 243.5l8 34h148l-8 -38q-22 -104 35.5 -149.5t181.5 -45.5h192q131 0 201.5 62t99.5 202l37 170q-68 -74 -162 -114.5t-202 -40.5q-198 0 -323.5 120t-125.5 312q0 154 75 284t204 205.5t280 75.5q140 0 242 -64.5t145 -177.5l47 217
h142l-207 -983q-44 -203 -146 -300t-290 -97h-232zM238 465q0 -136 91 -225.5t234 -89.5q122 0 219.5 59.5t149 156t51.5 209.5q0 139 -91.5 226.5t-238.5 87.5q-118 0 -214.5 -61.5t-148.5 -158t-52 -204.5z" />
    <glyph glyph-name="h" unicode="h" horiz-adv-x="1159" 
d="M49 0l303 1434h146l-121 -572q72 75 161.5 116.5t184.5 41.5q188 0 272 -122.5t37 -342.5l-117 -555h-149l123 573q30 142 -26.5 226t-188.5 84q-128 0 -227.5 -87t-129.5 -231l-120 -565h-148z" />
    <glyph glyph-name="i" unicode="i" horiz-adv-x="454" 
d="M260 995h150l-211 -995h-152zM299 1217l45 217h168l-45 -217h-168z" />
    <glyph glyph-name="j" unicode="j" horiz-adv-x="454" 
d="M-117 -252q52 0 88 32t49 91l240 1124h148l-242 -1142q-28 -131 -100.5 -184.5t-194.5 -53.5h-94l28 133h78zM297 1217l45 217h168l-45 -217h-168z" />
    <glyph glyph-name="k" unicode="k" horiz-adv-x="948" 
d="M49 0l303 1434h150l-180 -854l507 415h203l-581 -475l391 -520h-178l-361 494l-104 -494h-150z" />
    <glyph glyph-name="l" unicode="l" horiz-adv-x="454" 
d="M502 1434l-305 -1434h-148l303 1434h150z" />
    <glyph glyph-name="m" unicode="m" horiz-adv-x="1818" 
d="M49 0l211 995h158l-27 -127q67 76 152.5 114t161.5 38q117 0 195 -53t106 -148q72 95 176.5 148t208.5 53q184 0 268.5 -114t42.5 -314l-125 -592h-150l123 573q30 144 -24 227t-180 83q-50 0 -100.5 -18t-98.5 -54.5t-85.5 -100.5t-55.5 -147l-119 -563h-148l121 573
q31 145 -25.5 227.5t-185.5 82.5q-49 0 -98 -18t-96 -54.5t-83.5 -100.5t-54.5 -147l-120 -563h-148z" />
    <glyph glyph-name="n" unicode="n" horiz-adv-x="1157" 
d="M49 0l211 995h146l-31 -137q72 75 162.5 118.5t185.5 43.5q181 0 268 -123.5t41 -341.5l-117 -555h-149l123 573q30 142 -26.5 226t-188.5 84q-128 0 -227.5 -87t-131.5 -231l-118 -565h-148z" />
    <glyph glyph-name="o" unicode="o" horiz-adv-x="1204" 
d="M535 -25q-196 0 -325.5 131.5t-129.5 325.5q0 152 77.5 287t215 218t299.5 83q129 0 233 -60t162.5 -164.5t58.5 -232.5q0 -114 -46.5 -221.5t-125 -188t-188.5 -129.5t-231 -49zM225 440q0 -142 91 -234.5t233 -92.5q114 0 213.5 60.5t159 162.5t59.5 219q0 140 -92 234
t-232 94q-116 0 -216.5 -62t-158 -164t-57.5 -217z" />
    <glyph glyph-name="p" unicode="p" horiz-adv-x="1288" 
d="M-33 -385l293 1380h148l-29 -137q71 77 168.5 119.5t206.5 42.5q197 0 325.5 -127.5t128.5 -329.5q0 -159 -75 -294t-206.5 -214.5t-289.5 -79.5q-138 0 -243.5 64.5t-151.5 173.5l-127 -598h-148zM301 446q0 -147 93 -238t243 -91q173 0 297.5 128.5t124.5 301.5
q0 143 -93.5 237.5t-238.5 94.5q-180 0 -303 -125.5t-123 -307.5z" />
    <glyph glyph-name="q" unicode="q" horiz-adv-x="1284" 
d="M911 152q-62 -80 -165.5 -128.5t-213.5 -48.5q-195 0 -323.5 127.5t-128.5 329.5q0 161 77.5 296.5t209 213.5t284.5 78q138 0 244 -64.5t152 -173.5l45 213h149l-295 -1380h-147zM229 449q0 -143 93 -236.5t239 -93.5q180 0 304 125t124 305q0 148 -93.5 239t-244.5 91
q-113 0 -210.5 -59t-154.5 -158t-57 -213z" />
    <glyph glyph-name="r" unicode="r" horiz-adv-x="694" 
d="M408 995l-29 -135q116 135 278 135h115l-27 -129h-114q-117 0 -198 -71.5t-109 -198.5l-127 -596h-150l213 995h148z" />
    <glyph glyph-name="s" unicode="s" horiz-adv-x="921" 
d="M403 -25q-175 0 -279 91.5t-87 230.5h141q-10 -91 54 -146t176 -55q102 0 172.5 54t70.5 145q0 47 -28 79.5t-72 51t-98 33t-108 32.5t-98 42.5t-72 69t-28 106.5q0 99 53.5 171.5t137 106t184.5 33.5q164 0 261 -77.5t85 -213.5h-145q3 78 -52 126t-155 48
q-94 0 -159.5 -43t-65.5 -131q0 -36 22 -62.5t57.5 -41t81 -28t93.5 -24.5t93.5 -31.5t81 -47t57.5 -72.5t22 -107q0 -160 -114.5 -250t-281.5 -90z" />
    <glyph glyph-name="t" unicode="t" horiz-adv-x="696" 
d="M90 866l27 129h198l58 273h147l-57 -273h293l-27 -129h-293l-119 -553q-20 -94 12.5 -138t123.5 -44h118l-26 -131h-129q-150 0 -215 78.5t-33 226.5l121 561h-199z" />
    <glyph glyph-name="u" unicode="u" horiz-adv-x="1157" 
d="M1110 995l-211 -995h-145l30 137q-72 -75 -162.5 -118.5t-185.5 -43.5q-181 0 -268 123.5t-41 341.5l117 555h149l-123 -573q-30 -141 26.5 -225t188.5 -84q128 0 227.5 86.5t131.5 230.5l119 565h147z" />
    <glyph glyph-name="v" unicode="v" horiz-adv-x="1030" 
d="M334 0l-201 995h154l151 -809l498 809h174l-625 -995h-151z" />
    <glyph glyph-name="w" unicode="w" horiz-adv-x="1546" 
d="M264 0l-125 995h150l94 -780l430 780h129l96 -772l418 772h162l-547 -995h-137l-103 774l-434 -774h-133z" />
    <glyph glyph-name="x" unicode="x" horiz-adv-x="940" 
d="M653 0l-190 412l-363 -412h-178l461 516l-231 479h155l187 -385l331 385h176l-430 -493l240 -502h-158z" />
    <glyph glyph-name="y" unicode="y" horiz-adv-x="1026" 
d="M131 995h152l159 -809l496 809h168l-864 -1380h-166l262 408z" />
    <glyph glyph-name="z" unicode="z" horiz-adv-x="964" 
d="M-51 0l24 121l811 745h-626l26 129h822l-27 -121l-811 -743h655l-26 -131h-848z" />
    <glyph glyph-name="braceleft" unicode="{" horiz-adv-x="718" 
d="M395 -324q-141 0 -213 91.5t-39 252.5l66 306q14 67 -26 124.5t-117 75.5l24 119q87 19 152 80t84 145l71 338q27 128 120 207.5t228 79.5h142l-29 -133h-102q-78 0 -138.5 -52t-80.5 -145l-70 -331q-19 -87 -77 -151.5t-136 -98.5q62 -33 91 -108.5t11 -164.5l-63 -299
q-21 -93 18.5 -147.5t120.5 -54.5h96l-28 -134h-105z" />
    <glyph glyph-name="bar" unicode="|" horiz-adv-x="501" 
d="M416 1634h153l-417 -1966h-152z" />
    <glyph glyph-name="braceright" unicode="}" horiz-adv-x="716" 
d="M360 1495q141 0 213 -91.5t39 -252.5l-65 -305q-14 -67 26 -125t117 -76l-24 -119q-87 -19 -152 -80t-84 -145l-72 -338q-27 -128 -120 -207.5t-228 -79.5h-141l29 134h102q78 0 138.5 52t80.5 144l70 332q19 87 77 151.5t136 98.5q-63 33 -92 108t-11 164l64 299
q21 93 -18.5 148t-120.5 55h-97l29 133h104z" />
    <glyph glyph-name="asciitilde" unicode="~" horiz-adv-x="1269" 
d="M188 473q34 164 116.5 253t178.5 89q48 0 92.5 -20t77.5 -48.5t63.5 -57t64.5 -48.5t67 -20q49 0 95 51.5t67 140.5l137 2q-34 -162 -119 -251t-182 -89q-46 0 -89 20t-76 48.5t-64 56.5t-66 48t-70 20q-48 0 -91.5 -52t-63.5 -141z" />
    <glyph glyph-name="uni00A0" unicode="&#xa0;" horiz-adv-x="495" 
 />
    <glyph glyph-name="exclamdown" unicode="&#xa1;" horiz-adv-x="471" 
d="M-41 -438l229 1054h144l-215 -1054h-158zM203 805l41 190h196l-41 -190h-196z" />
    <glyph glyph-name="cent" unicode="&#xa2;" horiz-adv-x="1177" 
d="M872 1241l-51 -237q131 -34 212.5 -125.5t80.5 -210.5h-147q-4 91 -86 153t-193 62q-183 0 -308.5 -127.5t-125.5 -313.5q0 -149 88 -238t227 -89q117 0 207.5 56t130.5 163h154q-46 -161 -169.5 -253.5t-287.5 -103.5l-47 -223h-154l50 232q-154 33 -249 151.5
t-95 292.5q0 158 72.5 291.5t202.5 214t290 84.5l47 221h151z" />
    <glyph glyph-name="sterling" unicode="&#xa3;" horiz-adv-x="1161" 
d="M133 655l29 131h164l57 273q37 179 167.5 290t309.5 111q178 0 273.5 -108.5t64.5 -270.5h-154q17 109 -37 171.5t-161 62.5q-114 0 -201 -80t-113 -209l-51 -240h457l-29 -131h-456l-41 -192q-24 -113 -76.5 -186t-140.5 -130h823l-31 -147h-1007l30 141
q108 61 165.5 138t82.5 192l39 184h-164z" />
    <glyph glyph-name="currency" unicode="&#xa4;" horiz-adv-x="1492" 
d="M1309 713q-6 -172 -123 -305l190 -199l-106 -103l-191 201q-131 -106 -309 -106q-175 0 -305 108l-213 -203l-92 101l213 201q-100 133 -94 305q9 176 124 307l-192 203l104 102l195 -205q136 111 313 111q173 0 301 -109l211 201l95 -100l-211 -199q99 -136 90 -311z
M416 713q-5 -103 41.5 -190t131 -138t187.5 -51q157 0 271.5 110.5t123.5 268.5q8 161 -95.5 274t-258.5 113q-157 0 -274.5 -113.5t-126.5 -273.5z" />
    <glyph glyph-name="yen" unicode="&#xa5;" horiz-adv-x="1136" 
d="M283 1434h170l178 -648l446 648h170l-407 -580h258l-29 -133h-321l-76 -107l-21 -94h375l-29 -133h-374l-82 -387h-156l82 387h-379l29 133h379l20 94l-31 107h-327l28 133h263z" />
    <glyph glyph-name="brokenbar" unicode="&#xa6;" horiz-adv-x="501" 
d="M268 936l148 698h153l-147 -698h-154zM0 -332l147 701h154l-149 -701h-152z" />
    <glyph glyph-name="section" unicode="&#xa7;" horiz-adv-x="1083" 
d="M434 -399q-197 0 -298 114.5t-64 292.5h139q-23 -117 35 -198.5t188 -81.5q124 0 200.5 71.5t76.5 190.5q0 150 -154 194l-195 52q-126 34 -191 108t-65 182q0 103 59 197t148 145q-59 75 -59 185q0 174 118 289.5t296 115.5q201 0 299.5 -110.5t58.5 -296.5h-139
q5 39 7.5 78t-10.5 75.5t-36.5 64.5t-71 45t-112.5 17q-113 0 -195 -73.5t-82 -194.5q0 -73 41.5 -122t118.5 -69l194 -53q248 -65 248 -287q0 -108 -58 -201.5t-147 -142.5q58 -71 58 -182q0 -186 -113.5 -295.5t-294.5 -109.5zM242 545q0 -145 184 -197l174 -47
q52 -15 96 -39q69 44 114.5 111t45.5 141q0 69 -44 119t-132 74l-176 47q-53 14 -101 39q-69 -39 -115 -105.5t-46 -142.5z" />
    <glyph glyph-name="dieresis" unicode="&#xa8;" horiz-adv-x="942" 
d="M739 1309h170l-35 -160h-169zM342 1149l35 160h172l-37 -160h-170z" />
    <glyph glyph-name="copyright" unicode="&#xa9;" horiz-adv-x="1710" 
d="M862 -25q-194 0 -355 93.5t-253 254.5t-92 353q0 156 63.5 300.5t168.5 250t248.5 168.5t297.5 63q195 0 356.5 -93.5t253.5 -254t92 -352.5q0 -125 -40.5 -244t-113.5 -215.5t-169.5 -169.5t-214.5 -113.5t-242 -40.5zM240 680q0 -129 48.5 -245.5t131 -200.5
t198 -133.5t244.5 -49.5q140 0 269.5 57t224.5 151.5t152 225t57 271.5q0 129 -48.5 245.5t-131.5 200.5t-199 133t-246 49q-138 0 -267 -56.5t-224 -151t-152 -225t-57 -271.5zM496 651q0 195 133 336t323 141q141 0 234 -77.5t94 -202.5h-115q-7 82 -70 131t-151 49
q-141 0 -240.5 -111.5t-99.5 -259.5q0 -109 65 -177t171 -68q184 0 274 190h115q-116 -291 -398 -291q-148 0 -241.5 94t-93.5 246z" />
    <glyph glyph-name="ordfeminine" unicode="&#xaa;" horiz-adv-x="937" 
d="M406 596q-104 0 -169 56.5t-65 144.5q0 94 60 163.5t154.5 102.5t207.5 33h201l6 34q10 40 5 78.5t-20.5 69t-54.5 49.5t-96 19q-89 0 -158 -51t-84 -128h-137q23 124 137.5 207.5t257.5 83.5q160 0 239 -91t48 -239l-109 -512h-137l27 127q-58 -69 -139 -108t-174 -39z
M311 819q0 -53 41 -86t105 -33q114 0 201.5 79.5t113.5 193.5l6 31h-180q-122 0 -204.5 -48.5t-82.5 -136.5z" />
    <glyph glyph-name="guillemotleft" unicode="&#xab;" horiz-adv-x="1255" 
d="M1051 43l-469 426l24 111l647 426l-30 -168l-482 -322l340 -323zM98 492l25 110l647 426l-35 -170l-477 -319l342 -324l-33 -149z" />
    <glyph glyph-name="logicalnot" unicode="&#xac;" horiz-adv-x="1269" 
d="M1128 711l-120 -561h-148l88 421h-758l29 140h909z" />
    <glyph glyph-name="uni00AD" unicode="&#xad;" horiz-adv-x="737" 
d="M98 508l29 139h543l-29 -139h-543z" />
    <glyph glyph-name="registered" unicode="&#xae;" horiz-adv-x="950" 
d="M596 719q-153 0 -261 107.5t-108 260.5q0 154 107.5 262.5t261.5 108.5t262.5 -108.5t108.5 -262.5q0 -153 -108.5 -260.5t-262.5 -107.5zM279 1087q0 -132 93.5 -226.5t223.5 -94.5q131 0 225 94.5t94 226.5t-94 227t-225 95q-130 0 -223.5 -95t-93.5 -227zM483 893v393
h111q53 0 87 -30.5t34 -75.5q0 -66 -58 -93q58 -25 58 -92v-102h-56v98q0 32 -18.5 50t-52.5 18h-51v-166h-54zM537 1106h51q32 0 51.5 18t19.5 47t-19.5 46.5t-51.5 17.5h-51v-129z" />
    <glyph glyph-name="macron" unicode="&#xaf;" horiz-adv-x="1038" 
d="M340 1139l27 121h628l-26 -121h-629z" />
    <glyph glyph-name="degree" unicode="&#xb0;" horiz-adv-x="923" 
d="M567 754q-146 0 -242 94t-96 235q0 158 112 267.5t269 109.5q143 0 238.5 -95t95.5 -237q0 -157 -110.5 -265.5t-266.5 -108.5zM360 1094q0 -92 61.5 -153.5t153.5 -61.5q99 0 168.5 70.5t69.5 172.5q0 92 -60 152.5t-151 60.5q-100 0 -171 -70t-71 -171z" />
    <glyph glyph-name="plusminus" unicode="&#xb1;" horiz-adv-x="1269" 
d="M252 758l29 137h364l76 360h149l-75 -360h366l-31 -137h-364l-76 -359h-149l75 359h-364zM121 143l26 133h881l-27 -133h-880z" />
    <glyph glyph-name="acute" unicode="&#xb4;" horiz-adv-x="782" 
d="M770 1391l-289 -289h-147l262 289h174z" />
    <glyph glyph-name="uni00B5" unicode="&#xb5;" horiz-adv-x="1185" 
d="M-27 -385l293 1380h148l-125 -585q-26 -139 32 -218t187 -79t226.5 84.5t127.5 232.5l123 565h148l-211 -995h-146l37 180q-67 -95 -165.5 -150t-209.5 -55q-142 0 -221 88l-96 -448h-148z" />
    <glyph glyph-name="paragraph" unicode="&#xb6;" horiz-adv-x="1234" 
d="M283 -385l211 991q-168 9 -258.5 103t-90.5 235q0 218 159 354t401 136h659l-29 -146h-168l-356 -1673h-141l354 1673h-244l-354 -1673h-143z" />
    <glyph glyph-name="periodcentered" unicode="&#xb7;" horiz-adv-x="458" 
d="M197 821h196l-39 -182h-196z" />
    <glyph glyph-name="cedilla" unicode="&#xb8;" horiz-adv-x="720" 
d="M268 23l-6 -23l-88 -145h31q61 0 99 -39.5t38 -104.5q0 -89 -60.5 -148t-154.5 -59h-133l18 84h117q50 0 85.5 33t35.5 80q0 34 -22.5 54t-59.5 20h-109l15 69l106 179h88z" />
    <glyph glyph-name="ordmasculine" unicode="&#xba;" horiz-adv-x="1038" 
d="M686 1458q168 0 273.5 -103.5t105.5 -264.5q0 -97 -39 -189t-105 -160.5t-158 -110.5t-192 -42q-167 0 -271.5 103t-104.5 263q0 97 39 189t104.5 161.5t157 111.5t190.5 42zM334 965q0 -106 68 -175t176 -69q140 0 244 109t104 251q0 106 -68.5 175t-175.5 69
q-94 0 -175.5 -52.5t-127 -135t-45.5 -172.5z" />
    <glyph glyph-name="guillemotright" unicode="&#xbb;" horiz-adv-x="1255" 
d="M219 1020l469 -426l-24 -111l-648 -426l31 168l481 322l-340 323zM500 35l35 170l477 319l-342 324l32 149l469 -426l-24 -110z" />
    <glyph glyph-name="onequarter" unicode="&#xbc;" horiz-adv-x="1429" 
d="M512 1434l-182 -859h-107l133 623h-135l21 96h59q36 0 63 22t35 58l13 60h100zM59 0l1155 1434h138l-1155 -1434h-138zM707 199l20 94l387 567h121l-385 -567h264l47 217h103l-45 -217h129l-23 -94h-127l-43 -199h-106l43 199h-385z" />
    <glyph glyph-name="onehalf" unicode="&#xbd;" horiz-adv-x="1521" 
d="M514 1434l-182 -859h-107l133 623h-135l21 96h59q36 0 63 22t35 58l13 60h100zM61 0l1156 1434h137l-1155 -1434h-138zM774 0l19 88l381 322q48 39 71.5 60.5t52.5 53.5t40.5 63t11.5 66q0 57 -40 89t-106 32q-72 0 -123.5 -51t-68.5 -139h-105q27 143 108.5 216.5
t203.5 73.5q108 0 173.5 -56.5t65.5 -149.5q0 -42 -13.5 -81.5t-29.5 -67.5t-51 -64t-56.5 -55t-66.5 -56l-283 -244h398l-23 -100h-559z" />
    <glyph glyph-name="threequarters" unicode="&#xbe;" horiz-adv-x="1638" 
d="M395 561q-130 0 -205.5 78t-50.5 192h107q-15 -74 29 -123t122 -49q92 0 150.5 56t58.5 133q0 57 -42 89t-118 32h-36l18 92h37q89 0 150 49.5t61 126.5q0 55 -36.5 85t-104.5 30t-124.5 -41.5t-72.5 -116.5h-105q25 121 114.5 188.5t203.5 67.5q110 0 171.5 -51.5
t61.5 -141.5q0 -84 -53 -150t-139 -91q121 -35 121 -160q0 -120 -87 -207.5t-231 -87.5zM266 0l1155 1434h138l-1156 -1434h-137zM915 199l21 94l387 567h121l-385 -567h264l47 217h103l-46 -217h129l-22 -94h-127l-43 -199h-107l43 199h-385z" />
    <glyph glyph-name="questiondown" unicode="&#xbf;" horiz-adv-x="956" 
d="M313 -463q-166 0 -268 93.5t-102 244.5q0 79 25 145.5t66 115t91.5 91t105 84t103 83.5t89 99.5t58.5 122.5h150q-17 -79 -56 -145.5t-86.5 -112t-101 -87t-103.5 -79.5t-90.5 -78.5t-65 -95.5t-24.5 -120q0 -97 61.5 -154t162.5 -57q121 0 211 90t114 223h154
q-43 -215 -175 -339t-319 -124zM485 803l41 192h195l-41 -192h-195z" />
    <glyph glyph-name="Agrave" unicode="&#xc0;" horiz-adv-x="1179" 
d="M-76 0l793 1434h151l181 -1434h-158l-43 352h-561l-191 -352h-172zM350 498h490l-90 731zM561 1769h170l152 -253h-140z" />
    <glyph glyph-name="Aacute" unicode="&#xc1;" horiz-adv-x="1179" 
d="M-76 0l793 1434h151l181 -1434h-158l-43 352h-561l-191 -352h-172zM350 498h490l-90 731zM727 1516l252 253h178l-283 -253h-147z" />
    <glyph glyph-name="Acircumflex" unicode="&#xc2;" horiz-adv-x="1179" 
d="M-76 0l793 1434h151l181 -1434h-158l-43 352h-561l-191 -352h-172zM350 498h490l-90 731zM461 1516l321 258h154l215 -258h-154l-147 170l-225 -170h-164z" />
    <glyph glyph-name="Atilde" unicode="&#xc3;" horiz-adv-x="1179" 
d="M-76 0l793 1434h151l181 -1434h-158l-43 352h-561l-191 -352h-172zM350 498h490l-90 731zM455 1518q28 123 91 183t144 60q42 0 87.5 -21.5t77 -47t66.5 -47t60 -21.5q82 0 117 129h112q-27 -121 -90 -181.5t-145 -60.5q-43 0 -87 21.5t-74.5 47.5t-65.5 47.5t-62 21.5
q-38 0 -69 -33t-48 -98h-114z" />
    <glyph glyph-name="Adieresis" unicode="&#xc4;" horiz-adv-x="1179" 
d="M-76 0l793 1434h151l181 -1434h-158l-43 352h-561l-191 -352h-172zM350 498h490l-90 731zM514 1524l35 157h166l-33 -157h-168zM934 1524l33 157h168l-35 -157h-166z" />
    <glyph glyph-name="Aring" unicode="&#xc5;" horiz-adv-x="1179" 
d="M-76 0l793 1434h151l181 -1434h-158l-43 352h-561l-191 -352h-172zM350 498h490l-90 731zM584 1720q9 97 87 161.5t185 64.5q110 0 178.5 -64.5t59.5 -161.5t-86.5 -162t-184.5 -65q-111 0 -180 65.5t-59 161.5zM688 1720q-6 -60 32.5 -99.5t104.5 -39.5q65 0 111.5 39.5
t52.5 99.5q6 58 -33 96.5t-104 38.5q-66 0 -112 -38t-52 -97z" />
    <glyph glyph-name="AE" unicode="&#xc6;" horiz-adv-x="1562" 
d="M-121 0l998 1434h792l-29 -146h-526l-98 -452h461l-31 -142h-459l-117 -549h529l-31 -145h-682l78 369h-440l-256 -369h-189zM414 512h381l166 793z" />
    <glyph glyph-name="Ccedilla" unicode="&#xc7;" horiz-adv-x="1523" 
d="M135 598q0 174 65 333t174.5 274.5t262 184t319.5 68.5q261 0 424 -142t166 -355h-168q-7 101 -66.5 181.5t-154 124.5t-203.5 44q-139 0 -263.5 -59t-210.5 -156.5t-136.5 -225t-50.5 -262.5q0 -217 129 -351t336 -134q176 0 313.5 92t202.5 250h172q-76 -223 -252 -352
t-406 -138l-73 -120h30q62 0 100 -40t38 -104q0 -89 -60.5 -148t-154.5 -59h-133l18 84h117q50 0 85.5 33t35.5 80q0 34 -22.5 54t-59.5 20h-109l14 69l80 133q-254 22 -406.5 191t-152.5 430z" />
    <glyph glyph-name="Egrave" unicode="&#xc8;" horiz-adv-x="950" 
d="M371 1434h686l-29 -146h-530l-99 -452h463l-31 -142h-460l-117 -549h530l-30 -145h-686zM487 1769h170l152 -253h-139z" />
    <glyph glyph-name="Eacute" unicode="&#xc9;" horiz-adv-x="950" 
d="M371 1434h686l-29 -146h-530l-99 -452h463l-31 -142h-460l-117 -549h530l-30 -145h-686zM653 1516l252 253h178l-282 -253h-148z" />
    <glyph glyph-name="Ecircumflex" unicode="&#xca;" horiz-adv-x="950" 
d="M371 1434h686l-29 -146h-530l-99 -452h463l-31 -142h-460l-117 -549h530l-30 -145h-686zM387 1516l322 258h153l215 -258h-153l-148 170l-225 -170h-164z" />
    <glyph glyph-name="Edieresis" unicode="&#xcb;" horiz-adv-x="950" 
d="M371 1434h686l-29 -146h-530l-99 -452h463l-31 -142h-460l-117 -549h530l-30 -145h-686zM440 1524l35 157h166l-33 -157h-168zM860 1524l33 157h168l-35 -157h-166z" />
    <glyph glyph-name="Igrave" unicode="&#xcc;" horiz-adv-x="499" 
d="M371 1434h155l-303 -1434h-155zM221 1769h170l152 -253h-140z" />
    <glyph glyph-name="Iacute" unicode="&#xcd;" horiz-adv-x="499" 
d="M371 1434h155l-303 -1434h-155zM385 1516l252 253h178l-283 -253h-147z" />
    <glyph glyph-name="Icircumflex" unicode="&#xce;" horiz-adv-x="499" 
d="M371 1434h155l-303 -1434h-155zM121 1516l321 258h154l215 -258h-154l-147 170l-225 -170h-164z" />
    <glyph glyph-name="Idieresis" unicode="&#xcf;" horiz-adv-x="499" 
d="M371 1434h155l-303 -1434h-155zM174 1524l35 157h166l-33 -157h-168zM594 1524l33 157h168l-35 -157h-166z" />
    <glyph glyph-name="Eth" unicode="&#xd0;" horiz-adv-x="1464" 
d="M98 641l31 145h152l137 648h426q273 0 428 -153.5t155 -406.5q0 -118 -28.5 -236.5t-93.5 -234.5t-159.5 -204.5t-238 -143.5t-317.5 -55h-475l135 641h-152zM303 145h295q144 0 261.5 47t192 121t125.5 171t72 192t21 188q0 192 -114 308t-314 116h-297l-107 -506h334
l-29 -137h-333z" />
    <glyph glyph-name="Ntilde" unicode="&#xd1;" horiz-adv-x="1239" 
d="M803 573q22 -74 41 -149t27 -114l8 -38q18 136 53 306l180 856h154l-303 -1434h-142l-284 881q-22 74 -41.5 149t-27.5 114l-9 38q-16 -136 -53 -308l-187 -874h-151l303 1434h151zM483 1518q28 123 91 183t145 60q42 0 87.5 -21.5t77 -47t66.5 -47t60 -21.5
q81 0 116 129h113q-27 -121 -90 -181.5t-145 -60.5q-43 0 -87 21.5t-74.5 47.5t-65.5 47.5t-62 21.5q-38 0 -69 -33t-48 -98h-115z" />
    <glyph glyph-name="Ograve" unicode="&#xd2;" horiz-adv-x="1646" 
d="M770 -25q-181 0 -327 84t-227 230t-81 325q0 162 64.5 315.5t174 270t267 187.5t332.5 71q180 0 325.5 -83t226.5 -228t81 -322q0 -130 -40 -255.5t-116 -232t-177.5 -188.5t-231.5 -128t-271 -46zM295 627q0 -220 137 -362t354 -142q175 0 328 95.5t242.5 254.5
t89.5 340q0 216 -137 357t-353 141q-131 0 -253.5 -56t-211.5 -148.5t-142.5 -219t-53.5 -260.5zM741 1769h170l152 -253h-139z" />
    <glyph glyph-name="Oacute" unicode="&#xd3;" horiz-adv-x="1646" 
d="M770 -25q-181 0 -327 84t-227 230t-81 325q0 162 64.5 315.5t174 270t267 187.5t332.5 71q180 0 325.5 -83t226.5 -228t81 -322q0 -130 -40 -255.5t-116 -232t-177.5 -188.5t-231.5 -128t-271 -46zM295 627q0 -220 137 -362t354 -142q175 0 328 95.5t242.5 254.5
t89.5 340q0 216 -137 357t-353 141q-131 0 -253.5 -56t-211.5 -148.5t-142.5 -219t-53.5 -260.5zM907 1516l252 253h178l-282 -253h-148z" />
    <glyph glyph-name="Ocircumflex" unicode="&#xd4;" horiz-adv-x="1646" 
d="M770 -25q-181 0 -327 84t-227 230t-81 325q0 162 64.5 315.5t174 270t267 187.5t332.5 71q180 0 325.5 -83t226.5 -228t81 -322q0 -130 -40 -255.5t-116 -232t-177.5 -188.5t-231.5 -128t-271 -46zM295 627q0 -220 137 -362t354 -142q175 0 328 95.5t242.5 254.5
t89.5 340q0 216 -137 357t-353 141q-131 0 -253.5 -56t-211.5 -148.5t-142.5 -219t-53.5 -260.5zM641 1516l322 258h153l215 -258h-153l-148 170l-225 -170h-164z" />
    <glyph glyph-name="Otilde" unicode="&#xd5;" horiz-adv-x="1646" 
d="M770 -25q-181 0 -327 84t-227 230t-81 325q0 162 64.5 315.5t174 270t267 187.5t332.5 71q180 0 325.5 -83t226.5 -228t81 -322q0 -130 -40 -255.5t-116 -232t-177.5 -188.5t-231.5 -128t-271 -46zM295 627q0 -220 137 -362t354 -142q175 0 328 95.5t242.5 254.5
t89.5 340q0 216 -137 357t-353 141q-131 0 -253.5 -56t-211.5 -148.5t-142.5 -219t-53.5 -260.5zM635 1518q28 123 91 183t144 60q42 0 87.5 -21.5t77 -47t66.5 -47t60 -21.5q82 0 117 129h113q-27 -121 -90.5 -181.5t-145.5 -60.5q-43 0 -87 21.5t-74.5 47.5t-65.5 47.5
t-62 21.5q-38 0 -68.5 -33t-47.5 -98h-115z" />
    <glyph glyph-name="Odieresis" unicode="&#xd6;" horiz-adv-x="1646" 
d="M770 -25q-181 0 -327 84t-227 230t-81 325q0 162 64.5 315.5t174 270t267 187.5t332.5 71q180 0 325.5 -83t226.5 -228t81 -322q0 -130 -40 -255.5t-116 -232t-177.5 -188.5t-231.5 -128t-271 -46zM295 627q0 -220 137 -362t354 -142q175 0 328 95.5t242.5 254.5
t89.5 340q0 216 -137 357t-353 141q-131 0 -253.5 -56t-211.5 -148.5t-142.5 -219t-53.5 -260.5zM696 1524l35 157h166l-33 -157h-168zM1116 1524l33 157h168l-35 -157h-166z" />
    <glyph glyph-name="multiply" unicode="&#xd7;" horiz-adv-x="1269" 
d="M307 272l-88 111l352 291l-225 291l107 88l227 -289l348 291l92 -109l-354 -293l229 -291l-106 -90l-227 291z" />
    <glyph glyph-name="Oslash" unicode="&#xd8;" horiz-adv-x="1646" 
d="M201 -90l-107 94l185 197q-142 175 -142 415q0 160 64 313t173 269.5t266.5 188t332.5 71.5q215 0 379 -117l149 162l109 -94l-152 -164q150 -177 150 -420q0 -129 -40.5 -255t-116.5 -232.5t-177.5 -188.5t-232 -128t-271.5 -46q-224 0 -389 127zM297 627
q0 -177 92 -308l854 906q-122 86 -287 86q-176 0 -328.5 -95t-241.5 -253t-89 -336zM487 217q131 -94 299 -94q179 0 332.5 97.5t241.5 256t88 334.5q0 187 -102 317z" />
    <glyph glyph-name="Ugrave" unicode="&#xd9;" horiz-adv-x="1232" 
d="M532 -25q-211 0 -316 140t-58 366l202 953h156l-209 -983q-31 -142 37.5 -235t202.5 -93q141 0 235 92t127 250l207 969h156l-207 -979q-46 -223 -185.5 -351.5t-347.5 -128.5zM584 1769h170l151 -253h-139z" />
    <glyph glyph-name="Uacute" unicode="&#xda;" horiz-adv-x="1232" 
d="M532 -25q-211 0 -316 140t-58 366l202 953h156l-209 -983q-31 -142 37.5 -235t202.5 -93q141 0 235 92t127 250l207 969h156l-207 -979q-46 -223 -185.5 -351.5t-347.5 -128.5zM750 1516l251 253h179l-283 -253h-147z" />
    <glyph glyph-name="Ucircumflex" unicode="&#xdb;" horiz-adv-x="1232" 
d="M532 -25q-211 0 -316 140t-58 366l202 953h156l-209 -983q-31 -142 37.5 -235t202.5 -93q141 0 235 92t127 250l207 969h156l-207 -979q-46 -223 -185.5 -351.5t-347.5 -128.5zM483 1516l322 258h153l216 -258h-154l-148 170l-225 -170h-164z" />
    <glyph glyph-name="Udieresis" unicode="&#xdc;" horiz-adv-x="1232" 
d="M532 -25q-211 0 -316 140t-58 366l202 953h156l-209 -983q-31 -142 37.5 -235t202.5 -93q141 0 235 92t127 250l207 969h156l-207 -979q-46 -223 -185.5 -351.5t-347.5 -128.5zM537 1524l34 157h166l-32 -157h-168zM956 1524l33 157h168l-35 -157h-166z" />
    <glyph glyph-name="Yacute" unicode="&#xdd;" horiz-adv-x="1064" 
d="M233 1434h168l187 -648l463 648h174l-588 -820l-131 -614h-156l129 614zM666 1516l252 253h178l-283 -253h-147z" />
    <glyph glyph-name="Thorn" unicode="&#xde;" horiz-adv-x="1052" 
d="M371 1434h155l-65 -306h194q173 0 273 -88t100 -239q0 -203 -145 -335t-363 -132h-227l-70 -334h-155zM324 477h200q146 0 247 84.5t101 224.5q0 92 -62 144.5t-173 52.5h-207z" />
    <glyph glyph-name="germandbls" unicode="&#xdf;" horiz-adv-x="1202" 
d="M264 1020q44 208 186.5 323t352.5 115q122 0 214.5 -55.5t133 -152t16.5 -210.5q-25 -110 -109.5 -189.5t-193.5 -98.5q137 -22 200 -126.5t28 -267.5q-32 -152 -166.5 -255t-333.5 -103h-246l29 141h233q138 0 228.5 73.5t113.5 182.5q28 130 -40 208.5t-216 78.5h-202
l26 127h195q107 0 195 70t112 168q25 111 -42.5 191.5t-189.5 80.5q-141 0 -244.5 -85t-135.5 -235l-213 -1001h-148z" />
    <glyph glyph-name="agrave" unicode="&#xe0;" horiz-adv-x="1081" 
d="M377 -25q-145 0 -235.5 73t-90.5 190q0 88 41 157.5t112 112t162 64.5t195 22h254l6 35q24 121 -30 194.5t-191 73.5q-108 0 -195.5 -62.5t-105.5 -158.5h-149q31 150 160.5 247t297.5 97q208 0 304 -112.5t57 -289.5l-131 -618h-146l31 150q-67 -79 -158.5 -127
t-187.5 -48zM197 246q0 -70 54 -112t148 -42q130 0 243 100.5t142 239.5l9 43h-244q-73 0 -134.5 -12.5t-111.5 -38.5t-78 -71.5t-28 -106.5zM432 1391h162l131 -289h-131z" />
    <glyph glyph-name="aacute" unicode="&#xe1;" horiz-adv-x="1081" 
d="M377 -25q-145 0 -235.5 73t-90.5 190q0 88 41 157.5t112 112t162 64.5t195 22h254l6 35q24 121 -30 194.5t-191 73.5q-108 0 -195.5 -62.5t-105.5 -158.5h-149q31 150 160.5 247t297.5 97q208 0 304 -112.5t57 -289.5l-131 -618h-146l31 150q-67 -79 -158.5 -127
t-187.5 -48zM197 246q0 -70 54 -112t148 -42q130 0 243 100.5t142 239.5l9 43h-244q-73 0 -134.5 -12.5t-111.5 -38.5t-78 -71.5t-28 -106.5zM582 1102l262 289h174l-289 -289h-147z" />
    <glyph glyph-name="acircumflex" unicode="&#xe2;" horiz-adv-x="1081" 
d="M377 -25q-145 0 -235.5 73t-90.5 190q0 88 41 157.5t112 112t162 64.5t195 22h254l6 35q24 121 -30 194.5t-191 73.5q-108 0 -195.5 -62.5t-105.5 -158.5h-149q31 150 160.5 247t297.5 97q208 0 304 -112.5t57 -289.5l-131 -618h-146l31 150q-67 -79 -158.5 -127
t-187.5 -48zM197 246q0 -70 54 -112t148 -42q130 0 243 100.5t142 239.5l9 43h-244q-73 0 -134.5 -12.5t-111.5 -38.5t-78 -71.5t-28 -106.5zM358 1102l289 289h160l164 -289h-129l-125 194l-209 -194h-150z" />
    <glyph glyph-name="atilde" unicode="&#xe3;" horiz-adv-x="1081" 
d="M377 -25q-145 0 -235.5 73t-90.5 190q0 88 41 157.5t112 112t162 64.5t195 22h254l6 35q24 121 -30 194.5t-191 73.5q-108 0 -195.5 -62.5t-105.5 -158.5h-149q31 150 160.5 247t297.5 97q208 0 304 -112.5t57 -289.5l-131 -618h-146l31 150q-67 -79 -158.5 -127
t-187.5 -48zM197 246q0 -70 54 -112t148 -42q130 0 243 100.5t142 239.5l9 43h-244q-73 0 -134.5 -12.5t-111.5 -38.5t-78 -71.5t-28 -106.5zM336 1122q25 142 86.5 209.5t144.5 67.5q38 0 70.5 -17.5t54.5 -42.5t42.5 -50t46 -42.5t53.5 -17.5q81 0 118 164h107
q-25 -139 -88 -209t-140 -70q-42 0 -76 17.5t-56 42t-41 49t-41.5 42t-47.5 17.5q-94 0 -127 -160h-106z" />
    <glyph glyph-name="adieresis" unicode="&#xe4;" horiz-adv-x="1081" 
d="M377 -25q-145 0 -235.5 73t-90.5 190q0 88 41 157.5t112 112t162 64.5t195 22h254l6 35q24 121 -30 194.5t-191 73.5q-108 0 -195.5 -62.5t-105.5 -158.5h-149q31 150 160.5 247t297.5 97q208 0 304 -112.5t57 -289.5l-131 -618h-146l31 150q-67 -79 -158.5 -127
t-187.5 -48zM197 246q0 -70 54 -112t148 -42q130 0 243 100.5t142 239.5l9 43h-244q-73 0 -134.5 -12.5t-111.5 -38.5t-78 -71.5t-28 -106.5zM410 1149l34 160h172l-36 -160h-170zM772 1149l35 160h170l-35 -160h-170z" />
    <glyph glyph-name="aring" unicode="&#xe5;" horiz-adv-x="1081" 
d="M377 -25q-145 0 -235.5 73t-90.5 190q0 88 41 157.5t112 112t162 64.5t195 22h254l6 35q24 121 -30 194.5t-191 73.5q-108 0 -195.5 -62.5t-105.5 -158.5h-149q31 150 160.5 247t297.5 97q208 0 304 -112.5t57 -289.5l-131 -618h-146l31 150q-67 -79 -158.5 -127
t-187.5 -48zM197 246q0 -70 54 -112t148 -42q130 0 243 100.5t142 239.5l9 43h-244q-73 0 -134.5 -12.5t-111.5 -38.5t-78 -71.5t-28 -106.5zM412 1296q0 104 80 175t194 71q104 0 172 -58t68 -147q0 -103 -80 -174t-193 -71q-105 0 -173 57.5t-68 146.5zM518 1303
q0 -54 38 -88.5t99 -34.5q68 0 117 43.5t49 107.5q0 53 -39 87t-100 34q-69 0 -116.5 -42.5t-47.5 -106.5z" />
    <glyph glyph-name="ae" unicode="&#xe6;" horiz-adv-x="1859" 
d="M1233 -25q-153 0 -257 72t-149 193q-79 -127 -196.5 -196t-249.5 -69q-146 0 -237 73t-91 190q0 114 70 196t183 121t253 39h258l6 27q26 121 -25 198.5t-192 77.5q-110 0 -196.5 -62t-106.5 -159h-149q32 154 161.5 249t296.5 95q135 0 221.5 -54t116.5 -147
q82 95 194.5 148t235.5 53q184 0 302 -109.5t118 -281.5q0 -84 -22 -152h-842q-4 -36 -4 -57q0 -139 82 -226.5t233 -87.5q105 0 199 52t135 147h154q-61 -159 -196.5 -244.5t-305.5 -85.5zM201 246q0 -70 54.5 -112t145.5 -42q132 0 244.5 99.5t140.5 236.5l11 47h-248
q-69 0 -129 -12.5t-110.5 -38t-79.5 -71.5t-29 -107zM967 602h688q17 121 -65 205t-222 84q-138 0 -245 -81t-156 -208z" />
    <glyph glyph-name="ccedilla" unicode="&#xe7;" horiz-adv-x="1132" 
d="M80 430q0 121 44.5 229.5t121 188t185 126t231.5 46.5q179 0 301.5 -101t121.5 -251h-147q-4 91 -86 153t-193 62q-183 0 -308.5 -127.5t-125.5 -313.5q0 -149 88.5 -238t227.5 -89q117 0 207.5 56t130.5 163h153q-46 -160 -167 -252.5t-283 -104.5l-74 -122h31
q61 0 99 -39.5t38 -104.5q0 -89 -60.5 -148t-154.5 -59h-133l18 84h117q50 0 85.5 33t35.5 80q0 34 -22.5 54t-59.5 20h-109l15 69l79 133q-178 15 -292.5 138.5t-114.5 314.5z" />
    <glyph glyph-name="egrave" unicode="&#xe8;" horiz-adv-x="1146" 
d="M524 -25q-203 0 -324.5 125.5t-121.5 317.5q0 161 77.5 299.5t213 220.5t297.5 82q143 0 246.5 -65.5t146.5 -177.5t18 -247q-12 -49 -14 -53h-842q-4 -40 -4 -59q0 -144 86.5 -228t231.5 -84q107 0 201 54t130 145h154q-57 -153 -190 -241.5t-306 -88.5zM252 602h688
q20 124 -65 206.5t-224 82.5q-135 0 -241 -81t-158 -208zM453 1391h161l131 -289h-131z" />
    <glyph glyph-name="eacute" unicode="&#xe9;" horiz-adv-x="1146" 
d="M524 -25q-203 0 -324.5 125.5t-121.5 317.5q0 161 77.5 299.5t213 220.5t297.5 82q143 0 246.5 -65.5t146.5 -177.5t18 -247q-12 -49 -14 -53h-842q-4 -40 -4 -59q0 -144 86.5 -228t231.5 -84q107 0 201 54t130 145h154q-57 -153 -190 -241.5t-306 -88.5zM252 602h688
q20 124 -65 206.5t-224 82.5q-135 0 -241 -81t-158 -208zM602 1102l262 289h174l-288 -289h-148z" />
    <glyph glyph-name="ecircumflex" unicode="&#xea;" horiz-adv-x="1146" 
d="M524 -25q-203 0 -324.5 125.5t-121.5 317.5q0 161 77.5 299.5t213 220.5t297.5 82q143 0 246.5 -65.5t146.5 -177.5t18 -247q-12 -49 -14 -53h-842q-4 -40 -4 -59q0 -144 86.5 -228t231.5 -84q107 0 201 54t130 145h154q-57 -153 -190 -241.5t-306 -88.5zM252 602h688
q20 124 -65 206.5t-224 82.5q-135 0 -241 -81t-158 -208zM379 1102l289 289h159l164 -289h-129l-125 194l-209 -194h-149z" />
    <glyph glyph-name="edieresis" unicode="&#xeb;" horiz-adv-x="1146" 
d="M524 -25q-203 0 -324.5 125.5t-121.5 317.5q0 161 77.5 299.5t213 220.5t297.5 82q143 0 246.5 -65.5t146.5 -177.5t18 -247q-12 -49 -14 -53h-842q-4 -40 -4 -59q0 -144 86.5 -228t231.5 -84q107 0 201 54t130 145h154q-57 -153 -190 -241.5t-306 -88.5zM252 602h688
q20 124 -65 206.5t-224 82.5q-135 0 -241 -81t-158 -208zM430 1149l35 160h172l-37 -160h-170zM793 1149l34 160h170l-34 -160h-170z" />
    <glyph glyph-name="igrave" unicode="&#xec;" horiz-adv-x="454" 
d="M260 995h150l-211 -995h-152zM125 1391h162l131 -289h-131z" />
    <glyph glyph-name="iacute" unicode="&#xed;" horiz-adv-x="454" 
d="M260 995h150l-211 -995h-152zM274 1102l263 289h174l-289 -289h-148z" />
    <glyph glyph-name="icircumflex" unicode="&#xee;" horiz-adv-x="454" 
d="M260 995h150l-211 -995h-152zM51 1102l289 289h160l164 -289h-129l-125 194l-209 -194h-150z" />
    <glyph glyph-name="idieresis" unicode="&#xef;" horiz-adv-x="454" 
d="M260 995h150l-211 -995h-152zM100 1149l35 160h172l-37 -160h-170zM463 1149l35 160h170l-35 -160h-170z" />
    <glyph glyph-name="eth" unicode="&#xf0;" horiz-adv-x="1204" 
d="M545 -25q-210 0 -338.5 123.5t-128.5 317.5q0 118 44.5 225t120.5 185t181 124.5t221 46.5q155 0 270 -79l-108 270l-320 -45l7 102l274 39l-59 150h159l50 -129l212 30l-6 -104l-170 -23l105 -276q71 -188 71 -330q0 -122 -44.5 -236t-121 -200.5t-186.5 -138.5
t-233 -52zM223 428q0 -144 89.5 -230.5t242.5 -86.5q115 0 212.5 62.5t152.5 163.5t55 214q0 138 -90.5 227.5t-239.5 89.5q-106 0 -202.5 -56.5t-158 -159t-61.5 -224.5z" />
    <glyph glyph-name="ntilde" unicode="&#xf1;" horiz-adv-x="1157" 
d="M49 0l211 995h146l-31 -137q72 75 162.5 118.5t185.5 43.5q181 0 268 -123.5t41 -341.5l-117 -555h-149l123 573q30 142 -26.5 226t-188.5 84q-128 0 -227.5 -87t-131.5 -231l-118 -565h-148zM383 1122q25 142 86.5 209.5t144.5 67.5q38 0 70.5 -17.5t54.5 -42.5
t42.5 -50t46 -42.5t53.5 -17.5q81 0 118 164h107q-25 -139 -87.5 -209t-139.5 -70q-42 0 -76 17.5t-56 42t-41.5 49t-42 42t-47.5 17.5q-94 0 -127 -160h-106z" />
    <glyph glyph-name="ograve" unicode="&#xf2;" horiz-adv-x="1204" 
d="M535 -25q-196 0 -325.5 131.5t-129.5 325.5q0 152 77.5 287t215 218t299.5 83q129 0 233 -60t162.5 -164.5t58.5 -232.5q0 -114 -46.5 -221.5t-125 -188t-188.5 -129.5t-231 -49zM225 440q0 -142 91 -234.5t233 -92.5q114 0 213.5 60.5t159 162.5t59.5 219q0 140 -92 234
t-232 94q-116 0 -216.5 -62t-158 -164t-57.5 -217zM498 1391h161l132 -289h-132z" />
    <glyph glyph-name="oacute" unicode="&#xf3;" horiz-adv-x="1204" 
d="M535 -25q-196 0 -325.5 131.5t-129.5 325.5q0 152 77.5 287t215 218t299.5 83q129 0 233 -60t162.5 -164.5t58.5 -232.5q0 -114 -46.5 -221.5t-125 -188t-188.5 -129.5t-231 -49zM225 440q0 -142 91 -234.5t233 -92.5q114 0 213.5 60.5t159 162.5t59.5 219q0 140 -92 234
t-232 94q-116 0 -216.5 -62t-158 -164t-57.5 -217zM649 1102l262 289h174l-288 -289h-148z" />
    <glyph glyph-name="ocircumflex" unicode="&#xf4;" horiz-adv-x="1204" 
d="M535 -25q-196 0 -325.5 131.5t-129.5 325.5q0 152 77.5 287t215 218t299.5 83q129 0 233 -60t162.5 -164.5t58.5 -232.5q0 -114 -46.5 -221.5t-125 -188t-188.5 -129.5t-231 -49zM225 440q0 -142 91 -234.5t233 -92.5q114 0 213.5 60.5t159 162.5t59.5 219q0 140 -92 234
t-232 94q-116 0 -216.5 -62t-158 -164t-57.5 -217zM426 1102l289 289h159l164 -289h-129l-125 194l-209 -194h-149z" />
    <glyph glyph-name="otilde" unicode="&#xf5;" horiz-adv-x="1204" 
d="M535 -25q-196 0 -325.5 131.5t-129.5 325.5q0 152 77.5 287t215 218t299.5 83q129 0 233 -60t162.5 -164.5t58.5 -232.5q0 -114 -46.5 -221.5t-125 -188t-188.5 -129.5t-231 -49zM225 440q0 -142 91 -234.5t233 -92.5q114 0 213.5 60.5t159 162.5t59.5 219q0 140 -92 234
t-232 94q-116 0 -216.5 -62t-158 -164t-57.5 -217zM403 1122q25 142 87 209.5t145 67.5q38 0 70 -17.5t54 -42.5t42.5 -50t46 -42.5t53.5 -17.5q82 0 119 164h106q-25 -139 -87.5 -209t-139.5 -70q-42 0 -76 17.5t-56 42t-41 49t-41.5 42t-47.5 17.5q-94 0 -127 -160h-107z
" />
    <glyph glyph-name="odieresis" unicode="&#xf6;" horiz-adv-x="1204" 
d="M535 -25q-196 0 -325.5 131.5t-129.5 325.5q0 152 77.5 287t215 218t299.5 83q129 0 233 -60t162.5 -164.5t58.5 -232.5q0 -114 -46.5 -221.5t-125 -188t-188.5 -129.5t-231 -49zM225 440q0 -142 91 -234.5t233 -92.5q114 0 213.5 60.5t159 162.5t59.5 219q0 140 -92 234
t-232 94q-116 0 -216.5 -62t-158 -164t-57.5 -217zM475 1149l35 160h172l-37 -160h-170zM838 1149l34 160h170l-34 -160h-170z" />
    <glyph glyph-name="divide" unicode="&#xf7;" horiz-adv-x="1269" 
d="M672 1108h194l-37 -172h-196zM213 596l29 137h886l-28 -137h-887zM481 217l35 174h197l-37 -174h-195z" />
    <glyph glyph-name="oslash" unicode="&#xf8;" horiz-adv-x="1204" 
d="M94 -70l-78 84l150 144q-86 119 -86 274q0 112 46 219.5t124 188.5t189 130.5t233 49.5q159 0 286 -96l148 141l80 -84l-148 -141q88 -122 88 -277q0 -113 -46 -220.5t-124.5 -188.5t-189 -130t-231.5 -49q-166 0 -289 99zM219 438q0 -106 49 -182l590 569
q-86 64 -201 64q-117 0 -218 -62t-160.5 -166t-59.5 -223zM344 172q85 -63 203 -63q115 0 216.5 60.5t162.5 164t61 221.5q0 104 -51 186z" />
    <glyph glyph-name="ugrave" unicode="&#xf9;" horiz-adv-x="1157" 
d="M1110 995l-211 -995h-145l30 137q-72 -75 -162.5 -118.5t-185.5 -43.5q-181 0 -268 123.5t-41 341.5l117 555h149l-123 -573q-30 -141 26.5 -225t188.5 -84q128 0 227.5 86.5t131.5 230.5l119 565h147zM465 1391h162l131 -289h-131z" />
    <glyph glyph-name="uacute" unicode="&#xfa;" horiz-adv-x="1157" 
d="M1110 995l-211 -995h-145l30 137q-72 -75 -162.5 -118.5t-185.5 -43.5q-181 0 -268 123.5t-41 341.5l117 555h149l-123 -573q-30 -141 26.5 -225t188.5 -84q128 0 227.5 86.5t131.5 230.5l119 565h147zM614 1102l263 289h174l-289 -289h-148z" />
    <glyph glyph-name="ucircumflex" unicode="&#xfb;" horiz-adv-x="1157" 
d="M1110 995l-211 -995h-145l30 137q-72 -75 -162.5 -118.5t-185.5 -43.5q-181 0 -268 123.5t-41 341.5l117 555h149l-123 -573q-30 -141 26.5 -225t188.5 -84q128 0 227.5 86.5t131.5 230.5l119 565h147zM391 1102l289 289h160l164 -289h-130l-124 194l-209 -194h-150z" />
    <glyph glyph-name="udieresis" unicode="&#xfc;" horiz-adv-x="1157" 
d="M1110 995l-211 -995h-145l30 137q-72 -75 -162.5 -118.5t-185.5 -43.5q-181 0 -268 123.5t-41 341.5l117 555h149l-123 -573q-30 -141 26.5 -225t188.5 -84q128 0 227.5 86.5t131.5 230.5l119 565h147zM442 1149l35 160h172l-37 -160h-170zM805 1149l35 160h170l-35 -160
h-170z" />
    <glyph glyph-name="yacute" unicode="&#xfd;" horiz-adv-x="1026" 
d="M131 995h152l159 -809l496 809h168l-864 -1380h-166l262 408zM559 1102l262 289h174l-288 -289h-148z" />
    <glyph glyph-name="thorn" unicode="&#xfe;" horiz-adv-x="1288" 
d="M-35 -385l387 1819h148l-123 -576q71 77 169 119.5t208 42.5q197 0 325.5 -127.5t128.5 -329.5q0 -159 -75 -294t-206.5 -214.5t-289.5 -79.5q-138 0 -244 65t-151 173l-127 -598h-150zM299 446q0 -146 93.5 -237.5t244.5 -91.5q173 0 297.5 128.5t124.5 301.5
q0 143 -93.5 237.5t-238.5 94.5q-180 0 -304 -125.5t-124 -307.5z" />
    <glyph glyph-name="ydieresis" unicode="&#xff;" horiz-adv-x="1026" 
d="M131 995h152l159 -809l496 809h168l-864 -1380h-166l262 408zM385 1149l35 160h172l-37 -160h-170zM748 1149l34 160h170l-34 -160h-170z" />
    <glyph glyph-name="Amacron" unicode="&#x100;" horiz-adv-x="1179" 
d="M-76 0l793 1434h151l181 -1434h-158l-43 352h-561l-191 -352h-172zM350 498h490l-90 731zM489 1556l25 115h651l-24 -115h-652z" />
    <glyph glyph-name="amacron" unicode="&#x101;" horiz-adv-x="1081" 
d="M377 -25q-145 0 -235.5 73t-90.5 190q0 88 41 157.5t112 112t162 64.5t195 22h254l6 35q24 121 -30 194.5t-191 73.5q-108 0 -195.5 -62.5t-105.5 -158.5h-149q31 150 160.5 247t297.5 97q208 0 304 -112.5t57 -289.5l-131 -618h-146l31 150q-67 -79 -158.5 -127
t-187.5 -48zM197 246q0 -70 54 -112t148 -42q130 0 243 100.5t142 239.5l9 43h-244q-73 0 -134.5 -12.5t-111.5 -38.5t-78 -71.5t-28 -106.5zM358 1139l27 121h629l-27 -121h-629z" />
    <glyph glyph-name="Abreve" unicode="&#x102;" horiz-adv-x="1179" 
d="M-76 0l793 1434h151l181 -1434h-158l-43 352h-561l-191 -352h-172zM350 498h490l-90 731zM565 1774h123q-12 -78 26.5 -125t112.5 -47q77 0 133.5 46.5t69.5 125.5h123q-23 -126 -111 -198.5t-217 -72.5q-132 0 -205.5 74t-54.5 197z" />
    <glyph glyph-name="abreve" unicode="&#x103;" horiz-adv-x="1081" 
d="M377 -25q-145 0 -235.5 73t-90.5 190q0 88 41 157.5t112 112t162 64.5t195 22h254l6 35q24 121 -30 194.5t-191 73.5q-108 0 -195.5 -62.5t-105.5 -158.5h-149q31 150 160.5 247t297.5 97q208 0 304 -112.5t57 -289.5l-131 -618h-146l31 150q-67 -79 -158.5 -127
t-187.5 -48zM197 246q0 -70 54 -112t148 -42q130 0 243 100.5t142 239.5l9 43h-244q-73 0 -134.5 -12.5t-111.5 -38.5t-78 -71.5t-28 -106.5zM440 1382h117q-17 -89 18.5 -139.5t110.5 -50.5t134 53t79 137h117q-29 -136 -119 -214t-213 -78q-130 0 -200.5 83t-43.5 209z
" />
    <glyph glyph-name="Aogonek" unicode="&#x104;" horiz-adv-x="1179" 
d="M-76 0l793 1434h151l181 -1428l2 -6q-88 -63 -130.5 -112t-41.5 -105q0 -72 94 -72h49l-47 -114h-49q-83 0 -126.5 39t-43.5 108q0 76 40.5 136t118.5 120h-24l-43 352h-561l-191 -352h-172zM350 498h490l-90 731z" />
    <glyph glyph-name="aogonek" unicode="&#x105;" horiz-adv-x="1081" 
d="M377 -25q-145 0 -235.5 73t-90.5 190q0 88 41 157.5t112 112t162 64.5t195 22h254l6 35q24 121 -30 194.5t-191 73.5q-108 0 -195.5 -62.5t-105.5 -158.5h-149q31 150 160.5 247t297.5 97q208 0 304 -112.5t57 -289.5l-131 -618q-88 -63 -130.5 -112t-41.5 -105
q0 -72 94 -72h49l-47 -114h-49q-83 0 -126.5 39t-43.5 108q0 76 40.5 136t118.5 120h-10l31 150q-67 -79 -158.5 -127t-187.5 -48zM197 246q0 -70 54 -112t148 -42q130 0 243 100.5t142 239.5l9 43h-244q-73 0 -134.5 -12.5t-111.5 -38.5t-78 -71.5t-28 -106.5z" />
    <glyph glyph-name="Cacute" unicode="&#x106;" horiz-adv-x="1523" 
d="M758 -25q-279 0 -451 173t-172 450q0 174 65 333t174.5 274.5t262 184t319.5 68.5q261 0 424 -142t166 -355h-168q-7 101 -66.5 181.5t-154 124.5t-203.5 44q-139 0 -263.5 -59t-210.5 -156.5t-136.5 -225t-50.5 -262.5q0 -217 129 -351t336 -134q176 0 313.5 92
t202.5 250h172q-79 -231 -263.5 -360.5t-424.5 -129.5zM899 1516l252 253h178l-282 -253h-148z" />
    <glyph glyph-name="cacute" unicode="&#x107;" horiz-adv-x="1132" 
d="M532 -25q-195 0 -323.5 125.5t-128.5 329.5q0 121 44.5 229.5t121 188t185 126t231.5 46.5q179 0 301.5 -101t121.5 -251h-147q-4 91 -86 153t-193 62q-183 0 -308.5 -127.5t-125.5 -313.5q0 -149 88.5 -238t227.5 -89q117 0 207.5 56t130.5 163h153
q-50 -172 -186 -265.5t-314 -93.5zM598 1102l262 289h174l-289 -289h-147z" />
    <glyph glyph-name="Ccircumflex" unicode="&#x108;" horiz-adv-x="1523" 
d="M758 -25q-279 0 -451 173t-172 450q0 174 65 333t174.5 274.5t262 184t319.5 68.5q261 0 424 -142t166 -355h-168q-7 101 -66.5 181.5t-154 124.5t-203.5 44q-139 0 -263.5 -59t-210.5 -156.5t-136.5 -225t-50.5 -262.5q0 -217 129 -351t336 -134q176 0 313.5 92
t202.5 250h172q-79 -231 -263.5 -360.5t-424.5 -129.5zM633 1516l321 258h154l215 -258h-154l-147 170l-225 -170h-164z" />
    <glyph glyph-name="ccircumflex" unicode="&#x109;" horiz-adv-x="1132" 
d="M532 -25q-195 0 -323.5 125.5t-128.5 329.5q0 121 44.5 229.5t121 188t185 126t231.5 46.5q179 0 301.5 -101t121.5 -251h-147q-4 91 -86 153t-193 62q-183 0 -308.5 -127.5t-125.5 -313.5q0 -149 88.5 -238t227.5 -89q117 0 207.5 56t130.5 163h153
q-50 -172 -186 -265.5t-314 -93.5zM375 1102l289 289h159l164 -289h-129l-125 194l-209 -194h-149z" />
    <glyph glyph-name="Cdotaccent" unicode="&#x10a;" horiz-adv-x="1523" 
d="M758 -25q-279 0 -451 173t-172 450q0 174 65 333t174.5 274.5t262 184t319.5 68.5q261 0 424 -142t166 -355h-168q-7 101 -66.5 181.5t-154 124.5t-203.5 44q-139 0 -263.5 -59t-210.5 -156.5t-136.5 -225t-50.5 -262.5q0 -217 129 -351t336 -134q176 0 313.5 92
t202.5 250h172q-79 -231 -263.5 -360.5t-424.5 -129.5zM889 1524l33 157h184l-33 -157h-184z" />
    <glyph glyph-name="cdotaccent" unicode="&#x10b;" horiz-adv-x="1132" 
d="M532 -25q-195 0 -323.5 125.5t-128.5 329.5q0 121 44.5 229.5t121 188t185 126t231.5 46.5q179 0 301.5 -101t121.5 -251h-147q-4 91 -86 153t-193 62q-183 0 -308.5 -127.5t-125.5 -313.5q0 -149 88.5 -238t227.5 -89q117 0 207.5 56t130.5 163h153
q-50 -172 -186 -265.5t-314 -93.5zM623 1217l45 217h168l-45 -217h-168z" />
    <glyph glyph-name="Ccaron" unicode="&#x10c;" horiz-adv-x="1523" 
d="M758 -25q-279 0 -451 173t-172 450q0 174 65 333t174.5 274.5t262 184t319.5 68.5q261 0 424 -142t166 -355h-168q-7 101 -66.5 181.5t-154 124.5t-203.5 44q-139 0 -263.5 -59t-210.5 -156.5t-136.5 -225t-50.5 -262.5q0 -217 129 -351t336 -134q176 0 313.5 92
t202.5 250h172q-79 -231 -263.5 -360.5t-424.5 -129.5zM690 1784h152l149 -180l228 180h157l-321 -268h-156z" />
    <glyph glyph-name="ccaron" unicode="&#x10d;" horiz-adv-x="1132" 
d="M532 -25q-195 0 -323.5 125.5t-128.5 329.5q0 121 44.5 229.5t121 188t185 126t231.5 46.5q179 0 301.5 -101t121.5 -251h-147q-4 91 -86 153t-193 62q-183 0 -308.5 -127.5t-125.5 -313.5q0 -149 88.5 -238t227.5 -89q117 0 207.5 56t130.5 163h153
q-50 -172 -186 -265.5t-314 -93.5zM438 1391h131l125 -193l207 193h150l-289 -289h-160z" />
    <glyph glyph-name="Dcaron" unicode="&#x10e;" horiz-adv-x="1417" 
d="M797 1434q273 0 428 -153.5t155 -406.5q0 -118 -28.5 -236.5t-93.5 -234.5t-159.5 -204.5t-238 -143.5t-317.5 -55h-475l303 1434h426zM256 145h295q144 0 261.5 47t192 121t125.5 171t72 192t21 188q0 192 -114 308t-314 116h-297zM537 1784h151l150 -180l227 180h158
l-322 -268h-156z" />
    <glyph glyph-name="dcaron" unicode="&#x10f;" horiz-adv-x="1347" 
d="M532 -25q-195 0 -323.5 127.5t-128.5 329.5q0 161 77.5 296.5t209 213.5t284.5 78q138 0 244 -64.5t152 -173.5l137 652h149l-305 -1434h-147l30 152q-62 -80 -165.5 -128.5t-213.5 -48.5zM229 449q0 -143 93 -236.5t239 -93.5q180 0 304 125t124 305q0 148 -93.5 239
t-244.5 91q-113 0 -210.5 -59t-154.5 -158t-57 -213zM1407 1096l127 401h152l-156 -401h-123z" />
    <glyph glyph-name="Dcroat" unicode="&#x110;" horiz-adv-x="1464" 
d="M98 641l31 145h152l137 648h426q273 0 428 -153.5t155 -406.5q0 -118 -28.5 -236.5t-93.5 -234.5t-159.5 -204.5t-238 -143.5t-317.5 -55h-475l135 641h-152zM303 145h295q144 0 261.5 47t192 121t125.5 171t72 192t21 188q0 192 -114 308t-314 116h-297l-107 -506h334
l-29 -137h-333z" />
    <glyph glyph-name="dcroat" unicode="&#x111;" horiz-adv-x="1286" 
d="M827 1192l21 96h305l31 146h149l-30 -146h163l-20 -96h-164l-254 -1192h-147l30 152q-62 -80 -165.5 -128.5t-213.5 -48.5q-195 0 -323.5 127.5t-128.5 329.5q0 161 77.5 296.5t209 213.5t284.5 78q138 0 244 -64.5t152 -173.5l86 410h-306zM229 449q0 -143 93 -236.5
t239 -93.5q180 0 304 125t124 305q0 148 -93.5 239t-244.5 91q-113 0 -210.5 -59t-154.5 -158t-57 -213z" />
    <glyph glyph-name="Emacron" unicode="&#x112;" horiz-adv-x="950" 
d="M371 1434h686l-29 -146h-530l-99 -452h463l-31 -142h-460l-117 -549h530l-30 -145h-686zM416 1556l24 115h652l-25 -115h-651z" />
    <glyph glyph-name="emacron" unicode="&#x113;" horiz-adv-x="1146" 
d="M524 -25q-203 0 -324.5 125.5t-121.5 317.5q0 161 77.5 299.5t213 220.5t297.5 82q143 0 246.5 -65.5t146.5 -177.5t18 -247q-12 -49 -14 -53h-842q-4 -40 -4 -59q0 -144 86.5 -228t231.5 -84q107 0 201 54t130 145h154q-57 -153 -190 -241.5t-306 -88.5zM252 602h688
q20 124 -65 206.5t-224 82.5q-135 0 -241 -81t-158 -208zM379 1139l27 121h628l-26 -121h-629z" />
    <glyph glyph-name="Ebreve" unicode="&#x114;" horiz-adv-x="950" 
d="M371 1434h686l-29 -146h-530l-99 -452h463l-31 -142h-460l-117 -549h530l-30 -145h-686zM492 1774h122q-12 -78 27 -125t113 -47q77 0 133 46.5t69 125.5h123q-23 -126 -110.5 -198.5t-216.5 -72.5q-132 0 -205.5 74t-54.5 197z" />
    <glyph glyph-name="ebreve" unicode="&#x115;" horiz-adv-x="1146" 
d="M524 -25q-203 0 -324.5 125.5t-121.5 317.5q0 161 77.5 299.5t213 220.5t297.5 82q143 0 246.5 -65.5t146.5 -177.5t18 -247q-12 -49 -14 -53h-842q-4 -40 -4 -59q0 -144 86.5 -228t231.5 -84q107 0 201 54t130 145h154q-57 -153 -190 -241.5t-306 -88.5zM252 602h688
q20 124 -65 206.5t-224 82.5q-135 0 -241 -81t-158 -208zM461 1382h117q-17 -89 18.5 -139.5t110.5 -50.5t134 53t79 137h116q-29 -137 -118.5 -214.5t-212.5 -77.5q-130 0 -200.5 83t-43.5 209z" />
    <glyph glyph-name="Edotaccent" unicode="&#x116;" horiz-adv-x="950" 
d="M371 1434h686l-29 -146h-530l-99 -452h463l-31 -142h-460l-117 -549h530l-30 -145h-686zM643 1524l33 157h184l-33 -157h-184z" />
    <glyph glyph-name="edotaccent" unicode="&#x117;" horiz-adv-x="1146" 
d="M524 -25q-203 0 -324.5 125.5t-121.5 317.5q0 161 77.5 299.5t213 220.5t297.5 82q143 0 246.5 -65.5t146.5 -177.5t18 -247q-12 -49 -14 -53h-842q-4 -40 -4 -59q0 -144 86.5 -228t231.5 -84q107 0 201 54t130 145h154q-57 -153 -190 -241.5t-306 -88.5zM252 602h688
q20 124 -65 206.5t-224 82.5q-135 0 -241 -81t-158 -208zM627 1217l45 217h168l-45 -217h-168z" />
    <glyph glyph-name="Eogonek" unicode="&#x118;" horiz-adv-x="950" 
d="M371 1434h686l-29 -146h-530l-99 -452h463l-31 -142h-460l-117 -549h530l-30 -145q-88 -63 -130.5 -112t-41.5 -105q0 -72 94 -72h49l-47 -114h-49q-83 0 -126.5 39t-43.5 108q0 76 40.5 136t118.5 120h-550z" />
    <glyph glyph-name="eogonek" unicode="&#x119;" horiz-adv-x="1146" 
d="M557 -403q-83 0 -126.5 39t-43.5 108q0 127 129 231q-200 3 -319 128t-119 315q0 161 77.5 299.5t213 220.5t297.5 82q143 0 246.5 -65.5t146.5 -177.5t18 -247q-12 -49 -14 -53h-842q-4 -40 -4 -59q0 -144 86.5 -228t231.5 -84q107 0 201 54t130 145h154
q-44 -118 -134 -198.5t-212 -112.5q-84 -61 -124.5 -108.5t-39.5 -102.5q0 -72 94 -72h49l-47 -114h-49zM252 602h688q20 124 -65 206.5t-224 82.5q-135 0 -241 -81t-158 -208z" />
    <glyph glyph-name="Ecaron" unicode="&#x11a;" horiz-adv-x="950" 
d="M371 1434h686l-29 -146h-530l-99 -452h463l-31 -142h-460l-117 -549h530l-30 -145h-686zM444 1784h152l149 -180l228 180h157l-321 -268h-156z" />
    <glyph glyph-name="ecaron" unicode="&#x11b;" horiz-adv-x="1146" 
d="M524 -25q-203 0 -324.5 125.5t-121.5 317.5q0 161 77.5 299.5t213 220.5t297.5 82q143 0 246.5 -65.5t146.5 -177.5t18 -247q-12 -49 -14 -53h-842q-4 -40 -4 -59q0 -144 86.5 -228t231.5 -84q107 0 201 54t130 145h154q-57 -153 -190 -241.5t-306 -88.5zM252 602h688
q20 124 -65 206.5t-224 82.5q-135 0 -241 -81t-158 -208zM442 1391h131l125 -193l207 193h150l-289 -289h-160z" />
    <glyph glyph-name="Gcircumflex" unicode="&#x11c;" horiz-adv-x="1576" 
d="M764 -25q-281 0 -456 172.5t-175 444.5q0 167 65 325t176.5 277.5t271 191.5t337.5 72q245 0 402 -125.5t178 -312.5h-172q-16 86 -76.5 153.5t-150 103.5t-193.5 36q-116 0 -223 -40t-189 -109.5t-143 -160t-93 -195t-32 -210.5q0 -214 132.5 -346.5t350.5 -132.5
q213 0 372.5 138t213.5 364l-496 -9l31 142h639q-4 -58 -16 -113q-40 -195 -145 -345.5t-263.5 -235.5t-345.5 -85zM653 1516l322 258h153l215 -258h-153l-148 170l-225 -170h-164z" />
    <glyph glyph-name="gcircumflex" unicode="&#x11d;" horiz-adv-x="1267" 
d="M348 -385q-184 0 -278.5 84.5t-63.5 243.5l8 34h148l-8 -38q-22 -104 35.5 -149.5t181.5 -45.5h192q131 0 201.5 62t99.5 202l37 170q-68 -74 -162 -114.5t-202 -40.5q-198 0 -323.5 120t-125.5 312q0 154 75 284t204 205.5t280 75.5q140 0 242 -64.5t145 -177.5l47 217
h142l-207 -983q-44 -203 -146 -300t-290 -97h-232zM238 465q0 -136 91 -225.5t234 -89.5q122 0 219.5 59.5t149 156t51.5 209.5q0 139 -91.5 226.5t-238.5 87.5q-118 0 -214.5 -61.5t-148.5 -158t-52 -204.5zM406 1102l288 289h160l164 -289h-129l-125 194l-209 -194h-149z
" />
    <glyph glyph-name="Gbreve" unicode="&#x11e;" horiz-adv-x="1576" 
d="M764 -25q-281 0 -456 172.5t-175 444.5q0 167 65 325t176.5 277.5t271 191.5t337.5 72q245 0 402 -125.5t178 -312.5h-172q-16 86 -76.5 153.5t-150 103.5t-193.5 36q-116 0 -223 -40t-189 -109.5t-143 -160t-93 -195t-32 -210.5q0 -214 132.5 -346.5t350.5 -132.5
q213 0 372.5 138t213.5 364l-496 -9l31 142h639q-4 -58 -16 -113q-40 -195 -145 -345.5t-263.5 -235.5t-345.5 -85zM758 1774h123q-12 -78 26.5 -125t112.5 -47q77 0 133.5 46.5t69.5 125.5h123q-23 -126 -111 -198.5t-217 -72.5q-132 0 -205.5 74t-54.5 197z" />
    <glyph glyph-name="gbreve" unicode="&#x11f;" horiz-adv-x="1267" 
d="M348 -385q-184 0 -278.5 84.5t-63.5 243.5l8 34h148l-8 -38q-22 -104 35.5 -149.5t181.5 -45.5h192q131 0 201.5 62t99.5 202l37 170q-68 -74 -162 -114.5t-202 -40.5q-198 0 -323.5 120t-125.5 312q0 154 75 284t204 205.5t280 75.5q140 0 242 -64.5t145 -177.5l47 217
h142l-207 -983q-44 -203 -146 -300t-290 -97h-232zM238 465q0 -136 91 -225.5t234 -89.5q122 0 219.5 59.5t149 156t51.5 209.5q0 139 -91.5 226.5t-238.5 87.5q-118 0 -214.5 -61.5t-148.5 -158t-52 -204.5zM485 1382h117q-17 -89 18.5 -139.5t110.5 -50.5t134 53t79 137
h117q-29 -136 -119 -214t-213 -78q-130 0 -200.5 83t-43.5 209z" />
    <glyph glyph-name="Gdotaccent" unicode="&#x120;" horiz-adv-x="1576" 
d="M764 -25q-281 0 -456 172.5t-175 444.5q0 167 65 325t176.5 277.5t271 191.5t337.5 72q245 0 402 -125.5t178 -312.5h-172q-16 86 -76.5 153.5t-150 103.5t-193.5 36q-116 0 -223 -40t-189 -109.5t-143 -160t-93 -195t-32 -210.5q0 -214 132.5 -346.5t350.5 -132.5
q213 0 372.5 138t213.5 364l-496 -9l31 142h639q-4 -58 -16 -113q-40 -195 -145 -345.5t-263.5 -235.5t-345.5 -85zM907 1524l33 157h184l-32 -157h-185z" />
    <glyph glyph-name="gdotaccent" unicode="&#x121;" horiz-adv-x="1267" 
d="M348 -385q-184 0 -278.5 84.5t-63.5 243.5l8 34h148l-8 -38q-22 -104 35.5 -149.5t181.5 -45.5h192q131 0 201.5 62t99.5 202l37 170q-68 -74 -162 -114.5t-202 -40.5q-198 0 -323.5 120t-125.5 312q0 154 75 284t204 205.5t280 75.5q140 0 242 -64.5t145 -177.5l47 217
h142l-207 -983q-44 -203 -146 -300t-290 -97h-232zM238 465q0 -136 91 -225.5t234 -89.5q122 0 219.5 59.5t149 156t51.5 209.5q0 139 -91.5 226.5t-238.5 87.5q-118 0 -214.5 -61.5t-148.5 -158t-52 -204.5zM653 1217l45 217h168l-45 -217h-168z" />
    <glyph glyph-name="uni0122" unicode="&#x122;" horiz-adv-x="1576" 
d="M764 -25q-281 0 -456 172.5t-175 444.5q0 167 65 325t176.5 277.5t271 191.5t337.5 72q245 0 402 -125.5t178 -312.5h-172q-16 86 -76.5 153.5t-150 103.5t-193.5 36q-116 0 -223 -40t-189 -109.5t-143 -160t-93 -195t-32 -210.5q0 -214 132.5 -346.5t350.5 -132.5
q213 0 372.5 138t213.5 364l-496 -9l31 142h639q-4 -58 -16 -113q-40 -195 -145 -345.5t-263.5 -235.5t-345.5 -85zM430 -350l223 274h160l-244 -274h-139z" />
    <glyph glyph-name="uni0123" unicode="&#x123;" horiz-adv-x="1267" 
d="M348 -385q-184 0 -278.5 84.5t-63.5 243.5l8 34h148l-8 -38q-22 -104 35.5 -149.5t181.5 -45.5h192q131 0 201.5 62t99.5 202l37 170q-68 -74 -162 -114.5t-202 -40.5q-198 0 -323.5 120t-125.5 312q0 154 75 284t204 205.5t280 75.5q140 0 242 -64.5t145 -177.5l47 217
h142l-207 -983q-44 -203 -146 -300t-290 -97h-232zM238 465q0 -136 91 -225.5t234 -89.5q122 0 219.5 59.5t149 156t51.5 209.5q0 139 -91.5 226.5t-238.5 87.5q-118 0 -214.5 -61.5t-148.5 -158t-52 -204.5zM584 1102l252 274h143l-223 -274h-172z" />
    <glyph glyph-name="Hcircumflex" unicode="&#x124;" horiz-adv-x="1236" 
d="M68 0l303 1434h155l-129 -619h580l131 619h156l-303 -1434h-158l143 670h-581l-142 -670h-155zM489 1516l322 258h154l215 -258h-154l-147 170l-226 -170h-164z" />
    <glyph glyph-name="hcircumflex" unicode="&#x125;" horiz-adv-x="1159" 
d="M49 0l303 1434h146l-121 -572q72 75 161.5 116.5t184.5 41.5q188 0 272 -122.5t37 -342.5l-117 -555h-149l123 573q30 142 -26.5 226t-188.5 84q-128 0 -227.5 -87t-129.5 -231l-120 -565h-148zM92 1516l322 258h153l215 -258h-153l-148 170l-225 -170h-164z" />
    <glyph glyph-name="Hbar" unicode="&#x126;" horiz-adv-x="1325" 
d="M113 0l225 1069h-170l27 125h170l51 240h155l-51 -240h582l51 240h156l-52 -240h173l-29 -125h-170l-225 -1069h-156l139 655h-581l-142 -655h-153zM436 803h582l57 266h-581z" />
    <glyph glyph-name="hbar" unicode="&#x127;" horiz-adv-x="1159" 
d="M133 1192l21 98h168l30 144h146l-31 -144h307l-22 -98h-306l-69 -330q72 75 161.5 116.5t184.5 41.5q188 0 272 -122.5t37 -342.5l-117 -555h-149l123 573q30 142 -26.5 226t-188.5 84q-128 0 -227.5 -87t-129.5 -231l-120 -565h-148l252 1192h-168z" />
    <glyph glyph-name="Itilde" unicode="&#x128;" horiz-adv-x="499" 
d="M371 1434h155l-303 -1434h-155zM113 1518q28 123 91 183t144 60q42 0 87.5 -21.5t77 -47t66.5 -47t60 -21.5q82 0 117 129h112q-27 -121 -90 -181.5t-145 -60.5q-43 0 -87 21.5t-74.5 47.5t-65.5 47.5t-62 21.5q-38 0 -69 -33t-48 -98h-114z" />
    <glyph glyph-name="itilde" unicode="&#x129;" horiz-adv-x="454" 
d="M260 995h150l-211 -995h-152zM29 1122q25 142 86.5 209.5t144.5 67.5q38 0 70 -17.5t54 -42.5t42.5 -50t46 -42.5t53.5 -17.5q82 0 119 164h107q-25 -139 -88 -209t-140 -70q-42 0 -76 17.5t-56 42t-41 49t-41.5 42t-47.5 17.5q-94 0 -127 -160h-106z" />
    <glyph glyph-name="Imacron" unicode="&#x12a;" horiz-adv-x="499" 
d="M371 1434h155l-303 -1434h-155zM150 1556l24 115h651l-24 -115h-651z" />
    <glyph glyph-name="imacron" unicode="&#x12b;" horiz-adv-x="454" 
d="M260 995h150l-211 -995h-152zM49 1139l27 121h629l-27 -121h-629z" />
    <glyph glyph-name="Ibreve" unicode="&#x12c;" horiz-adv-x="499" 
d="M371 1434h155l-303 -1434h-155zM225 1774h123q-12 -78 26.5 -125t112.5 -47q77 0 133.5 46.5t69.5 125.5h123q-23 -126 -111 -198.5t-217 -72.5q-132 0 -205.5 74t-54.5 197z" />
    <glyph glyph-name="ibreve" unicode="&#x12d;" horiz-adv-x="454" 
d="M260 995h150l-211 -995h-152zM131 1382h117q-17 -89 18.5 -139.5t110.5 -50.5t134 53t79 137h117q-29 -136 -119 -214t-213 -78q-130 0 -200.5 83t-43.5 209z" />
    <glyph glyph-name="Iogonek" unicode="&#x12e;" horiz-adv-x="499" 
d="M371 1434h155l-303 -1434q-88 -63 -130.5 -112t-41.5 -105q0 -72 94 -72h50l-48 -114h-49q-83 0 -126.5 39t-43.5 108q0 76 41 136t119 120h-20z" />
    <glyph glyph-name="iogonek" unicode="&#x12f;" horiz-adv-x="454" 
d="M260 995h150l-211 -995q-88 -63 -130.5 -112t-41.5 -105q0 -72 94 -72h49l-47 -114h-49q-83 0 -126.5 39t-43.5 108q0 76 40.5 136t118.5 120h-16zM299 1217l45 217h168l-45 -217h-168z" />
    <glyph glyph-name="Idotaccent" unicode="&#x130;" horiz-adv-x="499" 
d="M371 1434h155l-303 -1434h-155zM375 1524l33 157h184l-33 -157h-184z" />
    <glyph glyph-name="dotlessi" unicode="&#x131;" horiz-adv-x="454" 
d="M260 995h150l-211 -995h-152z" />
    <glyph glyph-name="IJ" unicode="&#x132;" horiz-adv-x="1138" 
d="M371 1434h155l-303 -1434h-155zM424 0l31 145h80q106 0 172.5 61.5t93.5 192.5l219 1035h156l-226 -1061q-77 -373 -409 -373h-117z" />
    <glyph glyph-name="ij" unicode="&#x133;" horiz-adv-x="892" 
d="M260 995h150l-211 -995h-152zM215 -385l29 133h78q52 0 88 32t49 91l239 1124h148l-242 -1142q-28 -131 -100.5 -184.5t-194.5 -53.5h-94zM299 1217l45 217h168l-45 -217h-168zM735 1217l45 217h168l-45 -217h-168z" />
    <glyph glyph-name="Jcircumflex" unicode="&#x134;" horiz-adv-x="659" 
d="M55 145q214 0 267 254l219 1035h155l-225 -1061q-77 -373 -410 -373h-116l30 145h80zM291 1516l321 258h154l215 -258h-154l-147 170l-225 -170h-164z" />
    <glyph glyph-name="jcircumflex" unicode="&#x135;" horiz-adv-x="454" 
d="M-117 -252q52 0 88 32t49 91l240 1124h148l-242 -1142q-28 -131 -100.5 -184.5t-194.5 -53.5h-94l28 133h78zM49 1102l289 289h160l164 -289h-130l-124 194l-209 -194h-150z" />
    <glyph glyph-name="uni0136" unicode="&#x136;" horiz-adv-x="1036" 
d="M758 0l-383 719l-152 -719h-155l303 1434h155l-137 -654l627 654h184l-676 -691l412 -743h-178zM135 -350l223 274h160l-244 -274h-139z" />
    <glyph glyph-name="uni0137" unicode="&#x137;" horiz-adv-x="948" 
d="M49 0l303 1434h150l-180 -854l507 415h203l-581 -475l391 -520h-178l-361 494l-104 -494h-150zM100 -350l224 274h159l-243 -274h-140z" />
    <glyph glyph-name="kgreenlandic" unicode="&#x138;" horiz-adv-x="948" 
d="M47 0l213 995h148l-86 -415l507 415h201l-579 -475l391 -520h-178l-361 494l-104 -494h-152z" />
    <glyph glyph-name="Lacute" unicode="&#x139;" horiz-adv-x="890" 
d="M371 1434h155l-272 -1289h532l-30 -145h-688zM383 1516l252 253h178l-283 -253h-147z" />
    <glyph glyph-name="lacute" unicode="&#x13a;" horiz-adv-x="454" 
d="M502 1434l-305 -1434h-148l303 1434h150zM365 1516l251 253h179l-283 -253h-147z" />
    <glyph glyph-name="uni013B" unicode="&#x13b;" horiz-adv-x="890" 
d="M371 1434h155l-272 -1289h532l-30 -145h-688zM90 -350l223 274h160l-244 -274h-139z" />
    <glyph glyph-name="uni013C" unicode="&#x13c;" horiz-adv-x="454" 
d="M502 1434l-305 -1434h-148l303 1434h150zM-203 -350l223 274h160l-243 -274h-140z" />
    <glyph glyph-name="Lcaron" unicode="&#x13d;" horiz-adv-x="909" 
d="M371 1434h155l-272 -1289h532l-30 -145h-688zM758 1096l127 401h151l-155 -401h-123z" />
    <glyph glyph-name="lcaron" unicode="&#x13e;" horiz-adv-x="516" 
d="M502 1434l-305 -1434h-148l303 1434h150zM575 1096l127 401h152l-156 -401h-123z" />
    <glyph glyph-name="Ldot" unicode="&#x13f;" horiz-adv-x="927" 
d="M371 1434h155l-272 -1289h532l-30 -145h-688zM664 639l38 182h197l-39 -182h-196z" />
    <glyph glyph-name="ldot" unicode="&#x140;" horiz-adv-x="624" 
d="M502 1434l-305 -1434h-148l303 1434h150zM473 639l39 182h197l-39 -182h-197z" />
    <glyph glyph-name="Lslash" unicode="&#x141;" horiz-adv-x="946" 
d="M848 854l-430 -166l-115 -543h533l-31 -145h-688l131 623l-166 -64l31 146l166 63l141 666h155l-126 -603l428 164z" />
    <glyph glyph-name="lslash" unicode="&#x142;" horiz-adv-x="579" 
d="M565 1434l-116 -547l157 10l-174 -92l-172 -805h-147l163 774l-161 -8l178 90l123 578h149z" />
    <glyph glyph-name="Nacute" unicode="&#x143;" horiz-adv-x="1239" 
d="M803 573q22 -74 41 -149t27 -114l8 -38q18 136 53 306l180 856h154l-303 -1434h-142l-284 881q-22 74 -41.5 149t-27.5 114l-9 38q-16 -136 -53 -308l-187 -874h-151l303 1434h151zM756 1516l252 253h178l-283 -253h-147z" />
    <glyph glyph-name="nacute" unicode="&#x144;" horiz-adv-x="1157" 
d="M49 0l211 995h146l-31 -137q72 75 162.5 118.5t185.5 43.5q181 0 268 -123.5t41 -341.5l-117 -555h-149l123 573q30 142 -26.5 226t-188.5 84q-128 0 -227.5 -87t-131.5 -231l-118 -565h-148zM625 1102l262 289h174l-289 -289h-147z" />
    <glyph glyph-name="uni0145" unicode="&#x145;" horiz-adv-x="1239" 
d="M803 573q22 -74 41 -149t27 -114l8 -38q18 136 53 306l180 856h154l-303 -1434h-142l-284 881q-22 74 -41.5 149t-27.5 114l-9 38q-16 -136 -53 -308l-187 -874h-151l303 1434h151zM190 -350l224 274h159l-243 -274h-140z" />
    <glyph glyph-name="uni0146" unicode="&#x146;" horiz-adv-x="1157" 
d="M49 0l211 995h146l-31 -137q72 75 162.5 118.5t185.5 43.5q181 0 268 -123.5t41 -341.5l-117 -555h-149l123 573q30 142 -26.5 226t-188.5 84q-128 0 -227.5 -87t-131.5 -231l-118 -565h-148zM150 -350l223 274h159l-243 -274h-139z" />
    <glyph glyph-name="Ncaron" unicode="&#x147;" horiz-adv-x="1239" 
d="M803 573q22 -74 41 -149t27 -114l8 -38q18 136 53 306l180 856h154l-303 -1434h-142l-284 881q-22 74 -41.5 149t-27.5 114l-9 38q-16 -136 -53 -308l-187 -874h-151l303 1434h151zM549 1784h151l150 -180l227 180h158l-322 -268h-155z" />
    <glyph glyph-name="ncaron" unicode="&#x148;" horiz-adv-x="1157" 
d="M49 0l211 995h146l-31 -137q72 75 162.5 118.5t185.5 43.5q181 0 268 -123.5t41 -341.5l-117 -555h-149l123 573q30 142 -26.5 226t-188.5 84q-128 0 -227.5 -87t-131.5 -231l-118 -565h-148zM463 1391h131l125 -193l207 193h149l-289 -289h-159z" />
    <glyph glyph-name="napostrophe" unicode="&#x149;" horiz-adv-x="1157" 
d="M125 1331l37 176h211l-51 -243q-22 -102 -74 -138t-158 -36l19 88q51 -1 71 15.5t31 66.5l16 71h-102zM49 0l211 995h146l-31 -137q72 75 162.5 118.5t185.5 43.5q181 0 268 -123.5t41 -341.5l-117 -555h-149l123 573q30 142 -26.5 226t-188.5 84q-128 0 -227.5 -87
t-131.5 -231l-118 -565h-148z" />
    <glyph glyph-name="Eng" unicode="&#x14a;" horiz-adv-x="1239" 
d="M549 -252q108 0 172 59.5t96 196.5l-280 877q-22 74 -41.5 149t-27.5 114l-9 38q-16 -136 -53 -308l-187 -874h-151l303 1434h151l281 -861q22 -74 41 -149t27 -114l8 -38q18 136 53 306l180 856h154l-312 -1471q-40 -184 -136 -266t-267 -82h-117l27 133h88z" />
    <glyph glyph-name="eng" unicode="&#x14b;" horiz-adv-x="1157" 
d="M524 -385l27 127h49q53 0 89 32.5t48 90.5l152 708q28 142 -28 226t-187 84q-128 0 -228.5 -87t-130.5 -231l-118 -565h-148l211 995h146l-31 -137q72 75 162.5 118.5t185.5 43.5q181 0 268 -123.5t41 -341.5l-147 -702q-28 -127 -100.5 -182.5t-190.5 -55.5h-70z" />
    <glyph glyph-name="Omacron" unicode="&#x14c;" horiz-adv-x="1646" 
d="M770 -25q-181 0 -327 84t-227 230t-81 325q0 162 64.5 315.5t174 270t267 187.5t332.5 71q180 0 325.5 -83t226.5 -228t81 -322q0 -130 -40 -255.5t-116 -232t-177.5 -188.5t-231.5 -128t-271 -46zM295 627q0 -220 137 -362t354 -142q175 0 328 95.5t242.5 254.5
t89.5 340q0 216 -137 357t-353 141q-131 0 -253.5 -56t-211.5 -148.5t-142.5 -219t-53.5 -260.5zM670 1556l24 115h652l-25 -115h-651z" />
    <glyph glyph-name="omacron" unicode="&#x14d;" horiz-adv-x="1204" 
d="M535 -25q-196 0 -325.5 131.5t-129.5 325.5q0 152 77.5 287t215 218t299.5 83q129 0 233 -60t162.5 -164.5t58.5 -232.5q0 -114 -46.5 -221.5t-125 -188t-188.5 -129.5t-231 -49zM225 440q0 -142 91 -234.5t233 -92.5q114 0 213.5 60.5t159 162.5t59.5 219q0 140 -92 234
t-232 94q-116 0 -216.5 -62t-158 -164t-57.5 -217zM424 1139l27 121h628l-26 -121h-629z" />
    <glyph glyph-name="Obreve" unicode="&#x14e;" horiz-adv-x="1646" 
d="M770 -25q-181 0 -327 84t-227 230t-81 325q0 162 64.5 315.5t174 270t267 187.5t332.5 71q180 0 325.5 -83t226.5 -228t81 -322q0 -130 -40 -255.5t-116 -232t-177.5 -188.5t-231.5 -128t-271 -46zM295 627q0 -220 137 -362t354 -142q175 0 328 95.5t242.5 254.5
t89.5 340q0 216 -137 357t-353 141q-131 0 -253.5 -56t-211.5 -148.5t-142.5 -219t-53.5 -260.5zM745 1774h123q-12 -78 27 -125t113 -47q77 0 133 46.5t69 125.5h123q-23 -126 -110.5 -198.5t-216.5 -72.5q-132 0 -205.5 74t-55.5 197z" />
    <glyph glyph-name="obreve" unicode="&#x14f;" horiz-adv-x="1204" 
d="M535 -25q-196 0 -325.5 131.5t-129.5 325.5q0 152 77.5 287t215 218t299.5 83q129 0 233 -60t162.5 -164.5t58.5 -232.5q0 -114 -46.5 -221.5t-125 -188t-188.5 -129.5t-231 -49zM225 440q0 -142 91 -234.5t233 -92.5q114 0 213.5 60.5t159 162.5t59.5 219q0 140 -92 234
t-232 94q-116 0 -216.5 -62t-158 -164t-57.5 -217zM506 1382h117q-17 -89 18.5 -139.5t110.5 -50.5t134 53t79 137h116q-29 -137 -118.5 -214.5t-212.5 -77.5q-130 0 -200.5 83t-43.5 209z" />
    <glyph glyph-name="Ohungarumlaut" unicode="&#x150;" horiz-adv-x="1646" 
d="M770 -25q-181 0 -327 84t-227 230t-81 325q0 162 64.5 315.5t174 270t267 187.5t332.5 71q180 0 325.5 -83t226.5 -228t81 -322q0 -130 -40 -255.5t-116 -232t-177.5 -188.5t-231.5 -128t-271 -46zM295 627q0 -220 137 -362t354 -142q175 0 328 95.5t242.5 254.5
t89.5 340q0 216 -137 357t-353 141q-131 0 -253.5 -56t-211.5 -148.5t-142.5 -219t-53.5 -260.5zM737 1516l242 260h160l-248 -260h-154zM1122 1516l238 260h172l-266 -260h-144z" />
    <glyph glyph-name="ohungarumlaut" unicode="&#x151;" horiz-adv-x="1204" 
d="M535 -25q-196 0 -325.5 131.5t-129.5 325.5q0 152 77.5 287t215 218t299.5 83q129 0 233 -60t162.5 -164.5t58.5 -232.5q0 -114 -46.5 -221.5t-125 -188t-188.5 -129.5t-231 -49zM225 440q0 -142 91 -234.5t233 -92.5q114 0 213.5 60.5t159 162.5t59.5 219q0 140 -92 234
t-232 94q-116 0 -216.5 -62t-158 -164t-57.5 -217zM481 1102h135l213 289h-145zM831 1102h136l227 289h-156z" />
    <glyph glyph-name="OE" unicode="&#x152;" horiz-adv-x="1656" 
d="M705 0q-257 0 -416.5 162.5t-159.5 415.5q0 167 65.5 323t178.5 273.5t276 188.5t346 71h768l-28 -146h-531l-98 -452h463l-31 -142h-461l-116 -549h530l-31 -145h-755zM289 582q0 -194 116 -316.5t308 -122.5h92l242 1147h-91q-136 0 -261 -60.5t-213 -158.5
t-140.5 -227t-52.5 -262z" />
    <glyph glyph-name="oe" unicode="&#x153;" horiz-adv-x="2033" 
d="M535 -25q-196 0 -325.5 131.5t-129.5 325.5q0 112 46 219.5t124 188.5t189 130.5t233 49.5q140 0 246 -71.5t157 -192.5q79 122 203.5 193t273.5 71q187 0 303.5 -110.5t116.5 -284.5q0 -80 -20 -148h-844q-4 -40 -4 -59q0 -144 86 -228t231 -84q107 0 201.5 54
t130.5 145h154q-57 -153 -190 -241.5t-306 -88.5q-148 0 -252.5 69t-150.5 187q-80 -117 -203 -186.5t-270 -69.5zM225 440q0 -142 91 -234.5t231 -92.5q174 0 304 131.5t130 310.5q0 140 -92 234t-232 94q-176 0 -304 -132t-128 -311zM1139 602h688q20 124 -65 206.5
t-224 82.5q-135 0 -241 -81t-158 -208z" />
    <glyph glyph-name="Racute" unicode="&#x154;" horiz-adv-x="1122" 
d="M68 0l303 1434h350q177 0 280 -86.5t103 -233.5q0 -143 -71.5 -245t-201.5 -152q89 -48 119 -134.5t6 -193.5l-82 -389h-153l80 387q55 254 -213 254h-230l-135 -641h-155zM387 780h215q160 0 252 87t92 220q0 93 -64.5 147t-176.5 54h-209zM680 1516l252 253h178
l-283 -253h-147z" />
    <glyph glyph-name="racute" unicode="&#x155;" horiz-adv-x="694" 
d="M408 995l-29 -135q116 135 278 135h115l-27 -129h-114q-117 0 -198 -71.5t-109 -198.5l-127 -596h-150l213 995h148zM446 1102l263 289h174l-289 -289h-148z" />
    <glyph glyph-name="uni0156" unicode="&#x156;" horiz-adv-x="1122" 
d="M68 0l303 1434h350q177 0 280 -86.5t103 -233.5q0 -143 -71.5 -245t-201.5 -152q89 -48 119 -134.5t6 -193.5l-82 -389h-153l80 387q55 254 -213 254h-230l-135 -641h-155zM170 -350l223 274h160l-244 -274h-139zM387 780h215q160 0 252 87t92 220q0 93 -64.5 147
t-176.5 54h-209z" />
    <glyph glyph-name="uni0157" unicode="&#x157;" horiz-adv-x="694" 
d="M408 995l-29 -135q116 135 278 135h115l-27 -129h-114q-117 0 -198 -71.5t-109 -198.5l-127 -596h-150l213 995h148zM-223 -350l223 274h160l-244 -274h-139z" />
    <glyph glyph-name="Rcaron" unicode="&#x158;" horiz-adv-x="1122" 
d="M68 0l303 1434h350q177 0 280 -86.5t103 -233.5q0 -143 -71.5 -245t-201.5 -152q89 -48 119 -134.5t6 -193.5l-82 -389h-153l80 387q55 254 -213 254h-230l-135 -641h-155zM387 780h215q160 0 252 87t92 220q0 93 -64.5 147t-176.5 54h-209zM471 1784h152l149 -180
l227 180h158l-321 -268h-156z" />
    <glyph glyph-name="rcaron" unicode="&#x159;" horiz-adv-x="694" 
d="M408 995l-29 -135q116 135 278 135h115l-27 -129h-114q-117 0 -198 -71.5t-109 -198.5l-127 -596h-150l213 995h148zM285 1391h131l125 -193l207 193h149l-289 -289h-159z" />
    <glyph glyph-name="Sacute" unicode="&#x15a;" horiz-adv-x="1050" 
d="M469 -25q-130 0 -228 62t-140.5 170t-14.5 235h156q-18 -78 -1 -149t77.5 -120.5t156.5 -49.5q75 0 135 27t95.5 72.5t54 100t18.5 113.5q0 50 -18.5 88t-50 63.5t-72.5 46t-86 38t-90.5 37t-86.5 46t-72.5 61t-50 87t-18.5 119.5q0 118 50 215.5t151 159t236 61.5
q195 0 301 -118.5t67 -301.5h-153q21 121 -37 197t-184 76q-89 0 -153.5 -43.5t-93 -105t-28.5 -128.5q0 -59 30.5 -101.5t78.5 -67.5t106.5 -47t117.5 -49t107 -63t78.5 -99.5t30.5 -149.5q0 -133 -53.5 -241t-161.5 -174.5t-254 -66.5zM659 1516l252 253h179l-283 -253
h-148z" />
    <glyph glyph-name="sacute" unicode="&#x15b;" horiz-adv-x="921" 
d="M403 -25q-175 0 -279 91.5t-87 230.5h141q-10 -91 54 -146t176 -55q102 0 172.5 54t70.5 145q0 47 -28 79.5t-72 51t-98 33t-108 32.5t-98 42.5t-72 69t-28 106.5q0 99 53.5 171.5t137 106t184.5 33.5q164 0 261 -77.5t85 -213.5h-145q3 78 -52 126t-155 48
q-94 0 -159.5 -43t-65.5 -131q0 -36 22 -62.5t57.5 -41t81 -28t93.5 -24.5t93.5 -31.5t81 -47t57.5 -72.5t22 -107q0 -160 -114.5 -250t-281.5 -90zM471 1102l262 289h174l-289 -289h-147z" />
    <glyph glyph-name="Scircumflex" unicode="&#x15c;" horiz-adv-x="1050" 
d="M469 -25q-130 0 -228 62t-140.5 170t-14.5 235h156q-18 -78 -1 -149t77.5 -120.5t156.5 -49.5q75 0 135 27t95.5 72.5t54 100t18.5 113.5q0 50 -18.5 88t-50 63.5t-72.5 46t-86 38t-90.5 37t-86.5 46t-72.5 61t-50 87t-18.5 119.5q0 118 50 215.5t151 159t236 61.5
q195 0 301 -118.5t67 -301.5h-153q21 121 -37 197t-184 76q-89 0 -153.5 -43.5t-93 -105t-28.5 -128.5q0 -59 30.5 -101.5t78.5 -67.5t106.5 -47t117.5 -49t107 -63t78.5 -99.5t30.5 -149.5q0 -133 -53.5 -241t-161.5 -174.5t-254 -66.5zM393 1516l322 258h153l215 -258
h-153l-148 170l-225 -170h-164z" />
    <glyph glyph-name="scircumflex" unicode="&#x15d;" horiz-adv-x="921" 
d="M403 -25q-175 0 -279 91.5t-87 230.5h141q-10 -91 54 -146t176 -55q102 0 172.5 54t70.5 145q0 47 -28 79.5t-72 51t-98 33t-108 32.5t-98 42.5t-72 69t-28 106.5q0 99 53.5 171.5t137 106t184.5 33.5q164 0 261 -77.5t85 -213.5h-145q3 78 -52 126t-155 48
q-94 0 -159.5 -43t-65.5 -131q0 -36 22 -62.5t57.5 -41t81 -28t93.5 -24.5t93.5 -31.5t81 -47t57.5 -72.5t22 -107q0 -160 -114.5 -250t-281.5 -90zM248 1102l289 289h159l164 -289h-129l-125 194l-209 -194h-149z" />
    <glyph glyph-name="Scedilla" unicode="&#x15e;" horiz-adv-x="1050" 
d="M86 442h156q-18 -78 -1 -149t77.5 -120.5t156.5 -49.5q75 0 135 27t95.5 72.5t54 100t18.5 113.5q0 50 -18.5 88t-50 63.5t-72.5 46t-86 38t-90.5 37t-86.5 46t-72.5 61t-50 87t-18.5 119.5q0 118 50 215.5t151 159t236 61.5q195 0 301 -118.5t67 -301.5h-153
q21 121 -37 197t-184 76q-89 0 -153.5 -43.5t-93 -105t-28.5 -128.5q0 -59 30.5 -101.5t78.5 -67.5t106.5 -47t117.5 -49t107 -63t78.5 -99.5t30.5 -149.5q0 -193 -113.5 -329t-310.5 -151l-74 -122h31q61 0 99 -39.5t38 -104.5q0 -89 -60.5 -148t-154.5 -59h-133l19 84h116
q50 0 85.5 33t35.5 80q0 34 -22.5 54t-59.5 20h-108l14 69l80 133q-179 19 -276 151.5t-58 313.5z" />
    <glyph glyph-name="scedilla" unicode="&#x15f;" horiz-adv-x="921" 
d="M37 297h141q-10 -91 54 -146t176 -55q102 0 172.5 54t70.5 145q0 47 -28 79.5t-72 51t-98 33t-108 32.5t-98 42.5t-72 69t-28 106.5q0 99 53.5 171.5t137 106t184.5 33.5q164 0 261 -77.5t85 -213.5h-145q3 78 -52 126t-155 48q-94 0 -159.5 -43t-65.5 -131
q0 -36 22 -62.5t57.5 -41t81 -28t93.5 -24.5t93.5 -31.5t81 -47t57.5 -72.5t22 -107q0 -150 -101 -238.5t-254 -99.5l-73 -122h30q62 0 100 -40t38 -104q0 -89 -60.5 -148t-154.5 -59h-134l19 84h117q50 0 85 33t35 80q0 34 -22 54t-59 20h-109l14 69l80 133
q-153 14 -240.5 102.5t-72.5 217.5z" />
    <glyph glyph-name="Scaron" unicode="&#x160;" horiz-adv-x="1050" 
d="M469 -25q-130 0 -228 62t-140.5 170t-14.5 235h156q-18 -78 -1 -149t77.5 -120.5t156.5 -49.5q75 0 135 27t95.5 72.5t54 100t18.5 113.5q0 50 -18.5 88t-50 63.5t-72.5 46t-86 38t-90.5 37t-86.5 46t-72.5 61t-50 87t-18.5 119.5q0 118 50 215.5t151 159t236 61.5
q195 0 301 -118.5t67 -301.5h-153q21 121 -37 197t-184 76q-89 0 -153.5 -43.5t-93 -105t-28.5 -128.5q0 -59 30.5 -101.5t78.5 -67.5t106.5 -47t117.5 -49t107 -63t78.5 -99.5t30.5 -149.5q0 -133 -53.5 -241t-161.5 -174.5t-254 -66.5zM451 1784h151l150 -180l227 180h158
l-322 -268h-156z" />
    <glyph glyph-name="scaron" unicode="&#x161;" horiz-adv-x="921" 
d="M403 -25q-175 0 -279 91.5t-87 230.5h141q-10 -91 54 -146t176 -55q102 0 172.5 54t70.5 145q0 47 -28 79.5t-72 51t-98 33t-108 32.5t-98 42.5t-72 69t-28 106.5q0 99 53.5 171.5t137 106t184.5 33.5q164 0 261 -77.5t85 -213.5h-145q3 78 -52 126t-155 48
q-94 0 -159.5 -43t-65.5 -131q0 -36 22 -62.5t57.5 -41t81 -28t93.5 -24.5t93.5 -31.5t81 -47t57.5 -72.5t22 -107q0 -160 -114.5 -250t-281.5 -90zM309 1391h131l125 -193l207 193h150l-289 -289h-160z" />
    <glyph glyph-name="uni0162" unicode="&#x162;" horiz-adv-x="954" 
d="M201 1288l30 146h885l-29 -146h-366l-272 -1288h-23l-88 -145h31q61 0 99 -39.5t38 -104.5q0 -89 -60.5 -148t-154.5 -59h-133l18 84h117q50 0 85.5 33t35.5 80q0 34 -22.5 54t-59.5 20h-109l15 69l92 156h-37l274 1288h-366z" />
    <glyph glyph-name="uni0163" unicode="&#x163;" horiz-adv-x="696" 
d="M90 866l27 129h198l58 273h147l-57 -273h293l-27 -129h-293l-119 -553q-20 -94 12.5 -138t123.5 -44h118l-26 -131h-121l-88 -145h31q61 0 99 -39.5t38 -104.5q0 -89 -60.5 -148t-154.5 -59h-133l18 84h117q50 0 85.5 33t35.5 80q0 34 -22.5 54t-59.5 20h-109l15 69
l98 164q-107 20 -150 96t-16 201l121 561h-199z" />
    <glyph glyph-name="Tcaron" unicode="&#x164;" horiz-adv-x="954" 
d="M201 1288l30 146h885l-29 -146h-366l-272 -1288h-156l274 1288h-366zM403 1784h152l150 -180l227 180h158l-322 -268h-156z" />
    <glyph glyph-name="tcaron" unicode="&#x165;" horiz-adv-x="696" 
d="M90 866l27 129h198l58 273h147l-57 -273h293l-27 -129h-293l-119 -553q-20 -94 12.5 -138t123.5 -44h118l-26 -131h-129q-150 0 -215 78.5t-33 226.5l121 561h-199zM670 1096l127 401h151l-155 -401h-123z" />
    <glyph glyph-name="Tbar" unicode="&#x166;" horiz-adv-x="976" 
d="M203 647l26 127h250l109 514h-367l31 146h885l-29 -146h-367l-108 -514h231l-26 -127h-232l-137 -647h-156l138 647h-248z" />
    <glyph glyph-name="tbar" unicode="&#x167;" horiz-adv-x="727" 
d="M119 879l24 116h201l57 273h148l-57 -273h290l-22 -116h-293l-70 -326h291l-20 -100h-291l-33 -152q-21 -96 9.5 -140t123.5 -44h119l-25 -117h-135q-151 0 -212 77.5t-27 227.5l30 148h-198l20 100h201l69 326h-200z" />
    <glyph glyph-name="Utilde" unicode="&#x168;" horiz-adv-x="1232" 
d="M532 -25q-211 0 -316 140t-58 366l202 953h156l-209 -983q-31 -142 37.5 -235t202.5 -93q141 0 235 92t127 250l207 969h156l-207 -979q-46 -223 -185.5 -351.5t-347.5 -128.5zM477 1518q28 123 91 183t145 60q42 0 87.5 -21.5t77 -47t66.5 -47t60 -21.5q81 0 116 129
h113q-27 -121 -90.5 -181.5t-145.5 -60.5q-43 0 -87 21.5t-74 47.5t-65 47.5t-62 21.5q-38 0 -69 -33t-48 -98h-115z" />
    <glyph glyph-name="utilde" unicode="&#x169;" horiz-adv-x="1157" 
d="M1110 995l-211 -995h-145l30 137q-72 -75 -162.5 -118.5t-185.5 -43.5q-181 0 -268 123.5t-41 341.5l117 555h149l-123 -573q-30 -141 26.5 -225t188.5 -84q128 0 227.5 86.5t131.5 230.5l119 565h147zM369 1122q25 142 86.5 209.5t144.5 67.5q38 0 70 -17.5t54 -42.5
t42.5 -50t46 -42.5t53.5 -17.5q82 0 119 164h107q-25 -139 -88 -209t-140 -70q-42 0 -76 17.5t-56 42t-41 49t-41.5 42t-47.5 17.5q-94 0 -127 -160h-106z" />
    <glyph glyph-name="Umacron" unicode="&#x16a;" horiz-adv-x="1232" 
d="M532 -25q-211 0 -316 140t-58 366l202 953h156l-209 -983q-31 -142 37.5 -235t202.5 -93q141 0 235 92t127 250l207 969h156l-207 -979q-46 -223 -185.5 -351.5t-347.5 -128.5zM512 1556l25 115h651l-25 -115h-651z" />
    <glyph glyph-name="umacron" unicode="&#x16b;" horiz-adv-x="1157" 
d="M1110 995l-211 -995h-145l30 137q-72 -75 -162.5 -118.5t-185.5 -43.5q-181 0 -268 123.5t-41 341.5l117 555h149l-123 -573q-30 -141 26.5 -225t188.5 -84q128 0 227.5 86.5t131.5 230.5l119 565h147zM391 1139l27 121h629l-27 -121h-629z" />
    <glyph glyph-name="Ubreve" unicode="&#x16c;" horiz-adv-x="1232" 
d="M532 -25q-211 0 -316 140t-58 366l202 953h156l-209 -983q-31 -142 37.5 -235t202.5 -93q141 0 235 92t127 250l207 969h156l-207 -979q-46 -223 -185.5 -351.5t-347.5 -128.5zM588 1774h123q-12 -78 26.5 -125t112.5 -47q77 0 133.5 46.5t69.5 125.5h123
q-23 -126 -111 -198.5t-217 -72.5q-132 0 -205.5 74t-54.5 197z" />
    <glyph glyph-name="ubreve" unicode="&#x16d;" horiz-adv-x="1157" 
d="M1110 995l-211 -995h-145l30 137q-72 -75 -162.5 -118.5t-185.5 -43.5q-181 0 -268 123.5t-41 341.5l117 555h149l-123 -573q-30 -141 26.5 -225t188.5 -84q128 0 227.5 86.5t131.5 230.5l119 565h147zM473 1382h117q-17 -89 18.5 -139.5t110.5 -50.5t134 53t79 137h117
q-29 -136 -119 -214t-213 -78q-130 0 -200.5 83t-43.5 209z" />
    <glyph glyph-name="Uring" unicode="&#x16e;" horiz-adv-x="1232" 
d="M532 -25q-211 0 -316 140t-58 366l202 953h156l-209 -983q-31 -142 37.5 -235t202.5 -93q141 0 235 92t127 250l207 969h156l-207 -979q-46 -223 -185.5 -351.5t-347.5 -128.5zM606 1720q9 97 87.5 161.5t185.5 64.5q110 0 178 -64.5t59 -161.5t-86 -162t-184 -65
q-111 0 -180.5 65.5t-59.5 161.5zM711 1720q-6 -60 32.5 -99.5t104.5 -39.5q65 0 111.5 39.5t52.5 99.5q6 58 -33.5 96.5t-104.5 38.5q-66 0 -111.5 -38t-51.5 -97z" />
    <glyph glyph-name="uring" unicode="&#x16f;" horiz-adv-x="1157" 
d="M1110 995l-211 -995h-145l30 137q-72 -75 -162.5 -118.5t-185.5 -43.5q-181 0 -268 123.5t-41 341.5l117 555h149l-123 -573q-30 -141 26.5 -225t188.5 -84q128 0 227.5 86.5t131.5 230.5l119 565h147zM446 1296q0 104 80 175t195 71q104 0 172 -58t68 -147
q0 -103 -80 -174t-193 -71q-105 0 -173.5 57.5t-68.5 146.5zM553 1303q0 -54 38 -88.5t99 -34.5q68 0 117 43.5t49 107.5q0 53 -39 87t-100 34q-69 0 -116.5 -42.5t-47.5 -106.5z" />
    <glyph glyph-name="Uhungarumlaut" unicode="&#x170;" horiz-adv-x="1232" 
d="M532 -25q-211 0 -316 140t-58 366l202 953h156l-209 -983q-31 -142 37.5 -235t202.5 -93q141 0 235 92t127 250l207 969h156l-207 -979q-46 -223 -185.5 -351.5t-347.5 -128.5zM578 1516l241 260h160l-248 -260h-153zM963 1516l237 260h172l-266 -260h-143z" />
    <glyph glyph-name="uhungarumlaut" unicode="&#x171;" horiz-adv-x="1157" 
d="M1110 995l-211 -995h-145l30 137q-72 -75 -162.5 -118.5t-185.5 -43.5q-181 0 -268 123.5t-41 341.5l117 555h149l-123 -573q-30 -141 26.5 -225t188.5 -84q128 0 227.5 86.5t131.5 230.5l119 565h147zM449 1102h135l213 289h-146zM799 1102h135l227 289h-155z" />
    <glyph glyph-name="Uogonek" unicode="&#x172;" horiz-adv-x="1232" 
d="M559 -403q-83 0 -126.5 39t-43.5 108q0 127 129 231q-204 5 -304.5 144t-55.5 362l202 953h156l-209 -983q-31 -142 37.5 -235t202.5 -93q141 0 235 92t127 250l207 969h156l-207 -979q-39 -182 -139.5 -303t-251.5 -160q-82 -59 -122.5 -106.5t-39.5 -102.5
q0 -72 94 -72h49l-47 -114h-49z" />
    <glyph glyph-name="uogonek" unicode="&#x173;" horiz-adv-x="1157" 
d="M1110 995l-211 -993l2 -2q-88 -63 -130.5 -112t-41.5 -105q0 -72 94 -72h49l-47 -114h-49q-83 0 -126.5 39t-43.5 108q0 76 41 136t119 120h-12l30 137q-72 -75 -162.5 -118.5t-185.5 -43.5q-181 0 -268 123.5t-41 341.5l117 555h149l-123 -573q-30 -141 26.5 -225
t188.5 -84q128 0 227.5 86.5t131.5 230.5l119 565h147z" />
    <glyph glyph-name="Wcircumflex" unicode="&#x174;" horiz-adv-x="1822" 
d="M317 0l-73 1434h159l54 -908q3 -77 4 -149.5t1 -106.5l-1 -34q47 108 123 264l454 934h136l61 -906l16 -290q41 108 113 268l444 928h164l-676 -1434h-161l-82 1153l-570 -1153h-166zM778 1516l322 258h153l215 -258h-153l-148 170l-225 -170h-164z" />
    <glyph glyph-name="wcircumflex" unicode="&#x175;" horiz-adv-x="1546" 
d="M264 0l-125 995h150l94 -780l430 780h129l96 -772l418 772h162l-547 -995h-137l-103 774l-434 -774h-133zM594 1102l289 289h159l164 -289h-129l-125 194l-209 -194h-149z" />
    <glyph glyph-name="Ycircumflex" unicode="&#x176;" horiz-adv-x="1064" 
d="M233 1434h168l187 -648l463 648h174l-588 -820l-131 -614h-156l129 614zM401 1516l322 258h154l215 -258h-154l-147 170l-226 -170h-164z" />
    <glyph glyph-name="ycircumflex" unicode="&#x177;" horiz-adv-x="1026" 
d="M131 995h152l159 -809l496 809h168l-864 -1380h-166l262 408zM336 1102l289 289h159l164 -289h-129l-125 194l-209 -194h-149z" />
    <glyph glyph-name="Ydieresis" unicode="&#x178;" horiz-adv-x="1064" 
d="M233 1434h168l187 -648l463 648h174l-588 -820l-131 -614h-156l129 614zM455 1524l34 157h166l-32 -157h-168zM874 1524l33 157h168l-35 -157h-166z" />
    <glyph glyph-name="Zacute" unicode="&#x179;" horiz-adv-x="974" 
d="M291 1434h813l-25 -123l-909 -1166h668l-31 -145h-856l24 123l910 1165h-625zM621 1516l251 253h179l-283 -253h-147z" />
    <glyph glyph-name="zacute" unicode="&#x17a;" horiz-adv-x="964" 
d="M-51 0l24 121l811 745h-626l26 129h822l-27 -121l-811 -743h655l-26 -131h-848zM522 1102l262 289h174l-288 -289h-148z" />
    <glyph glyph-name="Zdotaccent" unicode="&#x17b;" horiz-adv-x="974" 
d="M291 1434h813l-25 -123l-909 -1166h668l-31 -145h-856l24 123l910 1165h-625zM610 1524l33 157h184l-32 -157h-185z" />
    <glyph glyph-name="zdotaccent" unicode="&#x17c;" horiz-adv-x="964" 
d="M-51 0l24 121l811 745h-626l26 129h822l-27 -121l-811 -743h655l-26 -131h-848zM547 1217l45 217h168l-45 -217h-168z" />
    <glyph glyph-name="Zcaron" unicode="&#x17d;" horiz-adv-x="974" 
d="M291 1434h813l-25 -123l-909 -1166h668l-31 -145h-856l24 123l910 1165h-625zM414 1784h151l150 -180l227 180h158l-322 -268h-155z" />
    <glyph glyph-name="zcaron" unicode="&#x17e;" horiz-adv-x="964" 
d="M-51 0l24 121l811 745h-626l26 129h822l-27 -121l-811 -743h655l-26 -131h-848zM362 1391h132l124 -193l207 193h150l-289 -289h-160z" />
    <glyph glyph-name="longs" unicode="&#x17f;" horiz-adv-x="522" 
d="M102 860l29 135h197l30 138q31 153 121 227t244 74h72l-29 -138h-47q-90 0 -142.5 -44.5t-74.5 -139.5l-236 -1112h-149l182 860h-197z" />
    <glyph glyph-name="uni018F" unicode="&#x18f;" horiz-adv-x="1587" 
d="M926 1458q132 0 248 -47.5t196.5 -128t127 -191.5t46.5 -235q0 -184 -59 -346t-164.5 -280t-260.5 -186.5t-337 -68.5q-132 0 -246 43t-193 117.5t-124 177.5t-45 219q0 106 22 197h1235q8 49 8 113q0 200 -134 334.5t-341 134.5q-178 0 -321 -90.5t-207 -235.5h-176
q90 215 277.5 344t447.5 129zM283 610q-31 -206 100.5 -346.5t357.5 -140.5q153 0 280 66.5t207.5 174.5t119.5 246h-1065z" />
    <glyph glyph-name="florin" unicode="&#x192;" horiz-adv-x="800" 
d="M-94 -385l26 123h41q89 0 142 44t73 136l203 948h-207l29 129h205l28 127q55 312 371 312h109l-25 -123h-90q-175 0 -215 -181l-29 -135h267l-27 -129h-266l-203 -948q-32 -149 -120.5 -226t-229.5 -77h-82z" />
    <glyph glyph-name="uni019D" unicode="&#x19d;" horiz-adv-x="1241" 
d="M803 573q22 -74 41.5 -149t27.5 -114l9 -38q16 136 51 306l182 856h154l-305 -1434h-140l-284 881q-23 74 -42.5 149t-27.5 114l-8 38q-16 -136 -53 -308l-193 -901q-37 -176 -140 -267t-263 -91h-117l31 145h79q214 0 267 252l301 1422h149z" />
    <glyph glyph-name="Gcaron" unicode="&#x1e6;" horiz-adv-x="1576" 
d="M764 -25q-281 0 -456 172.5t-175 444.5q0 167 65 325t176.5 277.5t271 191.5t337.5 72q245 0 402 -125.5t178 -312.5h-172q-16 86 -76.5 153.5t-150 103.5t-193.5 36q-116 0 -223 -40t-189 -109.5t-143 -160t-93 -195t-32 -210.5q0 -214 132.5 -346.5t350.5 -132.5
q213 0 372.5 138t213.5 364l-496 -9l31 142h639q-4 -58 -16 -113q-40 -195 -145 -345.5t-263.5 -235.5t-345.5 -85zM711 1784h151l150 -180l227 180h158l-322 -268h-155z" />
    <glyph glyph-name="gcaron" unicode="&#x1e7;" horiz-adv-x="1267" 
d="M348 -385q-184 0 -278.5 84.5t-63.5 243.5l8 34h148l-8 -38q-22 -104 35.5 -149.5t181.5 -45.5h192q131 0 201.5 62t99.5 202l37 170q-68 -74 -162 -114.5t-202 -40.5q-198 0 -323.5 120t-125.5 312q0 154 75 284t204 205.5t280 75.5q140 0 242 -64.5t145 -177.5l47 217
h142l-207 -983q-44 -203 -146 -300t-290 -97h-232zM238 465q0 -136 91 -225.5t234 -89.5q122 0 219.5 59.5t149 156t51.5 209.5q0 139 -91.5 226.5t-238.5 87.5q-118 0 -214.5 -61.5t-148.5 -158t-52 -204.5zM469 1391h131l125 -193l207 193h149l-288 -289h-160z" />
    <glyph glyph-name="uni01EA" unicode="&#x1ea;" horiz-adv-x="1646" 
d="M770 -25q-181 0 -327 84t-227 230t-81 325q0 162 64.5 315.5t174 270t267 187.5t332.5 71q180 0 325.5 -83t226.5 -228t81 -322q0 -192 -85 -368.5t-241 -301.5t-350 -163q-82 -61 -121.5 -108t-38.5 -101q0 -72 94 -72h49l-47 -114h-49q-83 0 -126.5 39t-43.5 108
q0 127 129 231h-6zM295 627q0 -220 137 -362t354 -142q175 0 328 95.5t242.5 254.5t89.5 340q0 216 -137 357t-353 141q-131 0 -253.5 -56t-211.5 -148.5t-142.5 -219t-53.5 -260.5z" />
    <glyph glyph-name="uni01EB" unicode="&#x1eb;" horiz-adv-x="1204" 
d="M549 113q114 0 213.5 60.5t159 162.5t59.5 219q0 140 -92 234t-232 94q-116 0 -216.5 -62t-158 -164t-57.5 -217q0 -142 91 -234.5t233 -92.5zM80 432q0 152 77.5 287t215 218t299.5 83q129 0 233 -60t162.5 -164.5t58.5 -232.5q0 -203 -135 -367.5t-338 -207.5
q-79 -59 -117.5 -105t-37.5 -100q0 -72 94 -72h49l-47 -114h-49q-83 0 -126.5 39t-43.5 108q0 128 131 231q-185 10 -305.5 140t-120.5 317z" />
    <glyph glyph-name="Aringacute" unicode="&#x1fa;" horiz-adv-x="1179" 
d="M-76 0l793 1434h151l181 -1434h-158l-43 352h-561l-191 -352h-172zM350 498h490l-90 731zM584 1720q9 97 87 161.5t185 64.5q17 0 49 -4l199 200h178l-270 -241q91 -66 82 -181q-9 -97 -86.5 -162t-184.5 -65q-111 0 -180 65.5t-59 161.5zM688 1720q-6 -60 32.5 -99.5
t104.5 -39.5q65 0 111.5 39.5t52.5 99.5q6 58 -33 96.5t-104 38.5q-66 0 -112 -38t-52 -97z" />
    <glyph glyph-name="aringacute" unicode="&#x1fb;" horiz-adv-x="1081" 
d="M377 -25q-145 0 -235.5 73t-90.5 190q0 88 41 157.5t112 112t162 64.5t195 22h254l6 35q24 121 -30 194.5t-191 73.5q-108 0 -195.5 -62.5t-105.5 -158.5h-149q31 150 160.5 247t297.5 97q208 0 304 -112.5t57 -289.5l-131 -618h-146l31 150q-67 -79 -158.5 -127
t-187.5 -48zM197 246q0 -70 54 -112t148 -42q130 0 243 100.5t142 239.5l9 43h-244q-73 0 -134.5 -12.5t-111.5 -38.5t-78 -71.5t-28 -106.5zM414 1296q0 99 73.5 168.5t180.5 77.5l223 246h174l-266 -266q59 -25 94 -74t35 -111q0 -103 -80 -174t-193 -71q-105 0 -173 57.5
t-68 146.5zM520 1303q0 -54 38 -88.5t99 -34.5q68 0 117 43.5t49 107.5q0 53 -39 87t-100 34q-69 0 -116.5 -42.5t-47.5 -106.5z" />
    <glyph glyph-name="AEacute" unicode="&#x1fc;" horiz-adv-x="1562" 
d="M-121 0l998 1434h792l-29 -146h-526l-98 -452h461l-31 -142h-459l-117 -549h529l-31 -145h-682l78 369h-440l-256 -369h-189zM414 512h381l166 793zM1214 1516l252 253h179l-283 -253h-148z" />
    <glyph glyph-name="aeacute" unicode="&#x1fd;" horiz-adv-x="1859" 
d="M1233 -25q-153 0 -257 72t-149 193q-79 -127 -196.5 -196t-249.5 -69q-146 0 -237 73t-91 190q0 114 70 196t183 121t253 39h258l6 27q26 121 -25 198.5t-192 77.5q-110 0 -196.5 -62t-106.5 -159h-149q32 154 161.5 249t296.5 95q135 0 221.5 -54t116.5 -147
q82 95 194.5 148t235.5 53q184 0 302 -109.5t118 -281.5q0 -84 -22 -152h-842q-4 -36 -4 -57q0 -139 82 -226.5t233 -87.5q105 0 199 52t135 147h154q-61 -159 -196.5 -244.5t-305.5 -85.5zM201 246q0 -70 54.5 -112t145.5 -42q132 0 244.5 99.5t140.5 236.5l11 47h-248
q-69 0 -129 -12.5t-110.5 -38t-79.5 -71.5t-29 -107zM967 602h688q17 121 -65 205t-222 84q-138 0 -245 -81t-156 -208zM981 1102l262 289h174l-289 -289h-147z" />
    <glyph glyph-name="Oslashacute" unicode="&#x1fe;" horiz-adv-x="1646" 
d="M201 -90l-107 94l185 197q-142 175 -142 415q0 160 64 313t173 269.5t266.5 188t332.5 71.5q215 0 379 -117l149 162l109 -94l-152 -164q150 -177 150 -420q0 -129 -40.5 -255t-116.5 -232.5t-177.5 -188.5t-232 -128t-271.5 -46q-224 0 -389 127zM297 627
q0 -177 92 -308l854 906q-122 86 -287 86q-176 0 -328.5 -95t-241.5 -253t-89 -336zM487 217q131 -94 299 -94q179 0 332.5 97.5t241.5 256t88 334.5q0 187 -102 317zM956 1516l252 253h178l-282 -253h-148z" />
    <glyph glyph-name="oslashacute" unicode="&#x1ff;" horiz-adv-x="1204" 
d="M94 -70l-78 84l150 144q-86 119 -86 274q0 112 46 219.5t124 188.5t189 130.5t233 49.5q159 0 286 -96l148 141l80 -84l-148 -141q88 -122 88 -277q0 -113 -46 -220.5t-124.5 -188.5t-189 -130t-231.5 -49q-166 0 -289 99zM219 438q0 -106 49 -182l590 569
q-86 64 -201 64q-117 0 -218 -62t-160.5 -166t-59.5 -223zM344 172q85 -63 203 -63q115 0 216.5 60.5t162.5 164t61 221.5q0 104 -51 186zM647 1102l262 289h174l-288 -289h-148z" />
    <glyph glyph-name="uni0218" unicode="&#x218;" horiz-adv-x="1050" 
d="M469 -25q-130 0 -228 62t-140.5 170t-14.5 235h156q-18 -78 -1 -149t77.5 -120.5t156.5 -49.5q75 0 135 27t95.5 72.5t54 100t18.5 113.5q0 50 -18.5 88t-50 63.5t-72.5 46t-86 38t-90.5 37t-86.5 46t-72.5 61t-50 87t-18.5 119.5q0 118 50 215.5t151 159t236 61.5
q195 0 301 -118.5t67 -301.5h-153q21 121 -37 197t-184 76q-89 0 -153.5 -43.5t-93 -105t-28.5 -128.5q0 -59 30.5 -101.5t78.5 -67.5t106.5 -47t117.5 -49t107 -63t78.5 -99.5t30.5 -149.5q0 -133 -53.5 -241t-161.5 -174.5t-254 -66.5zM156 -350l223 274h160l-244 -274
h-139z" />
    <glyph glyph-name="uni0219" unicode="&#x219;" horiz-adv-x="921" 
d="M403 -25q-175 0 -279 91.5t-87 230.5h141q-10 -91 54 -146t176 -55q102 0 172.5 54t70.5 145q0 47 -28 79.5t-72 51t-98 33t-108 32.5t-98 42.5t-72 69t-28 106.5q0 99 53.5 171.5t137 106t184.5 33.5q164 0 261 -77.5t85 -213.5h-145q3 78 -52 126t-155 48
q-94 0 -159.5 -43t-65.5 -131q0 -36 22 -62.5t57.5 -41t81 -28t93.5 -24.5t93.5 -31.5t81 -47t57.5 -72.5t22 -107q0 -160 -114.5 -250t-281.5 -90zM86 -350l223 274h160l-244 -274h-139z" />
    <glyph glyph-name="uni021A" unicode="&#x21a;" horiz-adv-x="954" 
d="M201 1288l30 146h885l-29 -146h-366l-272 -1288h-156l274 1288h-366zM45 -350l223 274h160l-244 -274h-139z" />
    <glyph glyph-name="uni021B" unicode="&#x21b;" horiz-adv-x="696" 
d="M90 866l27 129h198l58 273h147l-57 -273h293l-27 -129h-293l-119 -553q-20 -94 12.5 -138t123.5 -44h118l-26 -131h-129q-150 0 -215 78.5t-33 226.5l121 561h-199zM51 -350l223 274h160l-244 -274h-139z" />
    <glyph glyph-name="uni0232" unicode="&#x232;" horiz-adv-x="1064" 
d="M233 1434h168l187 -648l463 648h174l-588 -820l-131 -614h-156l129 614zM430 1556l25 115h651l-25 -115h-651z" />
    <glyph glyph-name="uni0233" unicode="&#x233;" horiz-adv-x="1026" 
d="M131 995h152l159 -809l496 809h168l-864 -1380h-166l262 408zM334 1139l26 121h629l-26 -121h-629z" />
    <glyph glyph-name="uni0237" unicode="&#x237;" horiz-adv-x="454" 
d="M-117 -252q52 0 88 32t49 91l240 1124h148l-242 -1142q-28 -131 -100.5 -184.5t-194.5 -53.5h-94l28 133h78z" />
    <glyph glyph-name="uni0259" unicode="&#x259;" horiz-adv-x="1146" 
d="M625 1020q203 0 324.5 -125t121.5 -317q0 -161 -77.5 -299.5t-213 -221t-297.5 -82.5q-143 0 -246.5 65.5t-146.5 177.5t-18 247q12 49 14 53h842q4 40 4 60q0 144 -86 227.5t-232 83.5q-107 0 -201 -54t-130 -145h-154q57 153 190 241.5t306 88.5zM209 393
q-20 -124 65 -206.5t224 -82.5q135 0 241 81t158 208h-688z" />
    <glyph glyph-name="uni0272" unicode="&#x272;" horiz-adv-x="1157" 
d="M-223 -385l28 133h78q50 0 87.5 32.5t49.5 88.5l240 1126h146l-31 -149q147 174 348 174q182 0 268.5 -124t40.5 -341l-117 -555h-149l123 573q29 139 -25.5 224.5t-189.5 85.5q-128 0 -228.5 -87t-130.5 -231l-147 -702q-54 -248 -295 -248h-96z" />
    <glyph glyph-name="uni02B9" unicode="&#x2b9;" horiz-adv-x="305" 
d="M238 1016l18 244l35 174h147l-35 -174l-86 -244h-79z" />
    <glyph glyph-name="uni02BA" unicode="&#x2ba;" horiz-adv-x="587" 
d="M520 1016l19 244l34 174h148l-35 -174l-86 -244h-80zM238 1016l18 244l35 174h147l-35 -174l-86 -244h-79z" />
    <glyph glyph-name="circumflex" unicode="&#x2c6;" horiz-adv-x="1021" 
d="M328 1102l288 289h160l164 -289h-129l-125 194l-209 -194h-149z" />
    <glyph glyph-name="caron" unicode="&#x2c7;" horiz-adv-x="1021" 
d="M563 1102l-164 289h131l125 -193l207 193h150l-289 -289h-160z" />
    <glyph glyph-name="breve" unicode="&#x2d8;" horiz-adv-x="985" 
d="M969 1382q-29 -136 -119 -214t-213 -78q-130 0 -200.5 83t-43.5 209h117q-17 -89 18.5 -139.5t110.5 -50.5t134 53t79 137h117z" />
    <glyph glyph-name="dotaccent" unicode="&#x2d9;" horiz-adv-x="577" 
d="M401 1434h168l-45 -217h-168z" />
    <glyph glyph-name="ring" unicode="&#x2da;" horiz-adv-x="923" 
d="M623 1092q-105 0 -173.5 57.5t-68.5 146.5q0 104 80 175t194 71q104 0 172 -58t68 -147q0 -104 -79.5 -174.5t-192.5 -70.5zM487 1303q0 -54 38.5 -88.5t99.5 -34.5q68 0 117 43.5t49 107.5q0 53 -39.5 87t-100.5 34q-69 0 -116.5 -42.5t-47.5 -106.5z" />
    <glyph glyph-name="ogonek" unicode="&#x2db;" horiz-adv-x="784" 
d="M227 -385q-95 0 -141.5 51.5t-28.5 132.5q18 87 94.5 153.5t202.5 119.5l58 -72q-91 -27 -149 -72t-70 -102q-9 -40 19 -65t79 -25h127l-53 -121h-138z" />
    <glyph glyph-name="tilde" unicode="&#x2dc;" horiz-adv-x="1077" 
d="M834 1114q-42 0 -76 17.5t-56 42t-41.5 49t-42 42t-47.5 17.5q-94 0 -127 -160h-106q25 142 86.5 209.5t144.5 67.5q38 0 70.5 -17.5t54.5 -42.5t42.5 -50t46 -42.5t53.5 -17.5q81 0 118 164h107q-25 -139 -87.5 -209t-139.5 -70z" />
    <glyph glyph-name="hungarumlaut" unicode="&#x2dd;" horiz-adv-x="1058" 
d="M467 1102l213 289h-145l-203 -289h135zM682 1102h135l227 289h-155z" />
    <glyph glyph-name="gravecomb" unicode="&#x300;" 
d="M397 1391h162l131 -289h-131z" />
    <glyph glyph-name="acutecomb" unicode="&#x301;" 
d="M770 1391l-289 -289h-147l262 289h174z" />
    <glyph glyph-name="uni0302" unicode="&#x302;" 
d="M328 1102l288 289h160l164 -289h-129l-125 194l-209 -194h-149z" />
    <glyph glyph-name="tildecomb" unicode="&#x303;" 
d="M834 1114q-42 0 -76 17.5t-56 42t-41.5 49t-42 42t-47.5 17.5q-94 0 -127 -160h-106q25 142 86.5 209.5t144.5 67.5q38 0 70.5 -17.5t54.5 -42.5t42.5 -50t46 -42.5t53.5 -17.5q81 0 118 164h107q-25 -139 -87.5 -209t-139.5 -70z" />
    <glyph glyph-name="uni0304" unicode="&#x304;" 
d="M340 1139l27 121h628l-26 -121h-629z" />
    <glyph glyph-name="uni0306" unicode="&#x306;" 
d="M969 1382q-29 -136 -119 -214t-213 -78q-130 0 -200.5 83t-43.5 209h117q-17 -89 18.5 -139.5t110.5 -50.5t134 53t79 137h117z" />
    <glyph glyph-name="uni0307" unicode="&#x307;" 
d="M401 1434h168l-45 -217h-168z" />
    <glyph glyph-name="uni0308" unicode="&#x308;" 
d="M739 1309h170l-35 -160h-169zM342 1149l35 160h172l-37 -160h-170z" />
    <glyph glyph-name="uni030A" unicode="&#x30a;" 
d="M623 1092q-105 0 -173.5 57.5t-68.5 146.5q0 104 80 175t194 71q104 0 172 -58t68 -147q0 -104 -79.5 -174.5t-192.5 -70.5zM487 1303q0 -54 38.5 -88.5t99.5 -34.5q68 0 117 43.5t49 107.5q0 53 -39.5 87t-100.5 34q-69 0 -116.5 -42.5t-47.5 -106.5z" />
    <glyph glyph-name="uni030B" unicode="&#x30b;" 
d="M467 1102l213 289h-145l-203 -289h135zM682 1102h135l227 289h-155z" />
    <glyph glyph-name="uni030C" unicode="&#x30c;" 
d="M563 1102l-164 289h131l125 -193l207 193h150l-289 -289h-160z" />
    <glyph glyph-name="uni0312" unicode="&#x312;" 
d="M332 1102l252 274h143l-223 -274h-172z" />
    <glyph glyph-name="uni0326" unicode="&#x326;" 
d="M408 -76l-244 -274h-139l223 274h160z" />
    <glyph glyph-name="uni0327" unicode="&#x327;" 
d="M268 23l-6 -23l-88 -145h31q61 0 99 -39.5t38 -104.5q0 -89 -60.5 -148t-154.5 -59h-133l18 84h117q50 0 85.5 33t35.5 80q0 34 -22.5 54t-59.5 20h-109l15 69l106 179h88z" />
    <glyph glyph-name="uni0328" unicode="&#x328;" 
d="M221 -403q-83 0 -126.5 39t-43.5 108q0 52 18.5 96.5t57.5 85t80 71t104 71.5l35 -68q-88 -63 -130.5 -112t-41.5 -105q0 -72 94 -72h49l-47 -114h-49z" />
    <glyph glyph-name="uni0394" unicode="&#x394;" horiz-adv-x="1230" 
d="M-59 0l26 131l768 1303h160l213 -1303l-27 -131h-1140zM139 147h817l-178 1082z" />
    <glyph glyph-name="uni03A9" unicode="&#x3a9;" horiz-adv-x="1613" 
d="M4 0l31 147h379q-254 206 -254 496q0 101 28 202t79 191t126 167.5t165.5 134t202 88.5t230.5 32q262 0 421 -154t159 -405q0 -233 -141 -430.5t-365 -321.5h367l-31 -147h-557l30 141q116 63 210.5 138.5t169.5 167.5t116 202.5t41 229.5q0 195 -118.5 312.5
t-319.5 117.5q-138 0 -262 -58t-210 -153t-136 -217t-50 -248q0 -279 277 -492l-29 -141h-559z" />
    <glyph glyph-name="uni03BC" unicode="&#x3bc;" horiz-adv-x="1173" 
d="M-33 -385l293 1380h148l-125 -585q-26 -139 32 -218t187 -79t226.5 84.5t127.5 232.5l123 565h147l-211 -995h-145l37 180q-67 -95 -165.5 -150t-209.5 -55q-142 0 -221 88l-96 -448h-148z" />
    <glyph glyph-name="pi" unicode="&#x3c0;" horiz-adv-x="1220" 
d="M96 866l27 129h1126l-28 -129h-193l-119 -565q-20 -90 11.5 -132t121.5 -42h45l-26 -131h-49q-163 0 -223.5 75.5t-24.5 247.5l117 547h-428l-183 -866h-149l184 866h-209z" />
    <glyph glyph-name="uni0E3F" unicode="&#xe3f;" horiz-adv-x="1056" 
d="M817 1675l-53 -248q138 -19 216.5 -95.5t78.5 -198.5q0 -136 -93 -245t-227 -134q87 -14 145 -89.5t58 -195.5q0 -205 -134.5 -336.5t-348.5 -132.5l-51 -246h-144l51 246h-245l303 1434h250l51 241h143zM252 131h209q105 0 180 48.5t109 121.5t34 158q0 97 -55.5 155
t-153.5 58h-206zM395 803h170q133 0 234.5 86.5t101.5 214.5q0 93 -64.5 146t-179.5 53h-155z" />
    <glyph glyph-name="uni1E20" unicode="&#x1e20;" horiz-adv-x="1576" 
d="M764 -25q-281 0 -456 172.5t-175 444.5q0 167 65 325t176.5 277.5t271 191.5t337.5 72q245 0 402 -125.5t178 -312.5h-172q-16 86 -76.5 153.5t-150 103.5t-193.5 36q-116 0 -223 -40t-189 -109.5t-143 -160t-93 -195t-32 -210.5q0 -214 132.5 -346.5t350.5 -132.5
q213 0 372.5 138t213.5 364l-496 -9l31 142h639q-4 -58 -16 -113q-40 -195 -145 -345.5t-263.5 -235.5t-345.5 -85zM682 1556l25 115h651l-25 -115h-651z" />
    <glyph glyph-name="uni1E21" unicode="&#x1e21;" horiz-adv-x="1267" 
d="M348 -385q-184 0 -278.5 84.5t-63.5 243.5l8 34h148l-8 -38q-22 -104 35.5 -149.5t181.5 -45.5h192q131 0 201.5 62t99.5 202l37 170q-68 -74 -162 -114.5t-202 -40.5q-198 0 -323.5 120t-125.5 312q0 154 75 284t204 205.5t280 75.5q140 0 242 -64.5t145 -177.5l47 217
h142l-207 -983q-44 -203 -146 -300t-290 -97h-232zM238 465q0 -136 91 -225.5t234 -89.5q122 0 219.5 59.5t149 156t51.5 209.5q0 139 -91.5 226.5t-238.5 87.5q-118 0 -214.5 -61.5t-148.5 -158t-52 -204.5zM406 1139l26 121h629l-27 -121h-628z" />
    <glyph glyph-name="Wgrave" unicode="&#x1e80;" horiz-adv-x="1822" 
d="M317 0l-73 1434h159l54 -908q3 -77 4 -149.5t1 -106.5l-1 -34q47 108 123 264l454 934h136l61 -906l16 -290q41 108 113 268l444 928h164l-676 -1434h-161l-82 1153l-570 -1153h-166zM879 1769h170l151 -253h-139z" />
    <glyph glyph-name="wgrave" unicode="&#x1e81;" horiz-adv-x="1546" 
d="M264 0l-125 995h150l94 -780l430 780h129l96 -772l418 772h162l-547 -995h-137l-103 774l-434 -774h-133zM668 1391h161l132 -289h-132z" />
    <glyph glyph-name="Wacute" unicode="&#x1e82;" horiz-adv-x="1822" 
d="M317 0l-73 1434h159l54 -908q3 -77 4 -149.5t1 -106.5l-1 -34q47 108 123 264l454 934h136l61 -906l16 -290q41 108 113 268l444 928h164l-676 -1434h-161l-82 1153l-570 -1153h-166zM1044 1516l252 253h179l-283 -253h-148z" />
    <glyph glyph-name="wacute" unicode="&#x1e83;" horiz-adv-x="1546" 
d="M264 0l-125 995h150l94 -780l430 780h129l96 -772l418 772h162l-547 -995h-137l-103 774l-434 -774h-133zM817 1102l262 289h174l-288 -289h-148z" />
    <glyph glyph-name="Wdieresis" unicode="&#x1e84;" horiz-adv-x="1822" 
d="M317 0l-73 1434h159l54 -908q3 -77 4 -149.5t1 -106.5l-1 -34q47 108 123 264l454 934h136l61 -906l16 -290q41 108 113 268l444 928h164l-676 -1434h-161l-82 1153l-570 -1153h-166zM834 1524l34 157h166l-33 -157h-167zM1253 1524l33 157h168l-35 -157h-166z" />
    <glyph glyph-name="wdieresis" unicode="&#x1e85;" horiz-adv-x="1546" 
d="M264 0l-125 995h150l94 -780l430 780h129l96 -772l418 772h162l-547 -995h-137l-103 774l-434 -774h-133zM645 1149l35 160h172l-37 -160h-170zM1008 1149l34 160h170l-34 -160h-170z" />
    <glyph glyph-name="uni1E9E" unicode="&#x1e9e;" horiz-adv-x="1259" 
d="M762 1434h557l-27 -121l-458 -500q147 -9 234 -99t87 -227q0 -94 -39 -183t-105.5 -156t-162.5 -107.5t-203 -40.5h-280l30 147h262q136 0 239 101.5t103 232.5q0 93 -61.5 152t-165.5 59h-147l24 109l445 489h-355q-253 0 -313 -289l-213 -1001h-156l215 1014
q45 213 162.5 316.5t327.5 103.5z" />
    <glyph glyph-name="uni1EA0" unicode="&#x1ea0;" horiz-adv-x="1179" 
d="M-76 0l793 1434h151l181 -1434h-158l-43 352h-561l-191 -352h-172zM315 -422l45 217h168l-45 -217h-168zM350 498h490l-90 731z" />
    <glyph glyph-name="uni1EA1" unicode="&#x1ea1;" horiz-adv-x="1081" 
d="M377 -25q-145 0 -235.5 73t-90.5 190q0 88 41 157.5t112 112t162 64.5t195 22h254l6 35q24 121 -30 194.5t-191 73.5q-108 0 -195.5 -62.5t-105.5 -158.5h-149q31 150 160.5 247t297.5 97q208 0 304 -112.5t57 -289.5l-131 -618h-146l31 150q-67 -79 -158.5 -127
t-187.5 -48zM197 246q0 -70 54 -112t148 -42q130 0 243 100.5t142 239.5l9 43h-244q-73 0 -134.5 -12.5t-111.5 -38.5t-78 -71.5t-28 -106.5zM260 -422l45 217h168l-45 -217h-168z" />
    <glyph glyph-name="uni1EB8" unicode="&#x1eb8;" horiz-adv-x="950" 
d="M371 1434h686l-29 -146h-530l-99 -452h463l-31 -142h-460l-117 -549h530l-30 -145h-686zM201 -422l45 217h168l-45 -217h-168z" />
    <glyph glyph-name="uni1EB9" unicode="&#x1eb9;" horiz-adv-x="1146" 
d="M524 -25q-203 0 -324.5 125.5t-121.5 317.5q0 161 77.5 299.5t213 220.5t297.5 82q143 0 246.5 -65.5t146.5 -177.5t18 -247q-12 -49 -14 -53h-842q-4 -40 -4 -59q0 -144 86.5 -228t231.5 -84q107 0 201 54t130 145h154q-57 -153 -190 -241.5t-306 -88.5zM252 602h688
q20 124 -65 206.5t-224 82.5q-135 0 -241 -81t-158 -208zM299 -422l45 217h168l-45 -217h-168z" />
    <glyph glyph-name="uni1EBC" unicode="&#x1ebc;" horiz-adv-x="950" 
d="M371 1434h686l-29 -146h-530l-99 -452h463l-31 -142h-460l-117 -549h530l-30 -145h-686zM381 1518q28 123 91 183t144 60q42 0 87.5 -21.5t77 -47t66.5 -47t60 -21.5q82 0 117 129h113q-27 -121 -90.5 -181.5t-145.5 -60.5q-43 0 -87 21.5t-74.5 47.5t-65.5 47.5
t-62 21.5q-38 0 -68.5 -33t-47.5 -98h-115z" />
    <glyph glyph-name="uni1EBD" unicode="&#x1ebd;" horiz-adv-x="1146" 
d="M524 -25q-203 0 -324.5 125.5t-121.5 317.5q0 161 77.5 299.5t213 220.5t297.5 82q143 0 246.5 -65.5t146.5 -177.5t18 -247q-12 -49 -14 -53h-842q-4 -40 -4 -59q0 -144 86.5 -228t231.5 -84q107 0 201 54t130 145h154q-57 -153 -190 -241.5t-306 -88.5zM252 602h688
q20 124 -65 206.5t-224 82.5q-135 0 -241 -81t-158 -208zM356 1122q25 142 87 209.5t145 67.5q38 0 70 -17.5t54 -42.5t42.5 -50t46 -42.5t53.5 -17.5q82 0 119 164h106q-25 -139 -87.5 -209t-139.5 -70q-42 0 -76 17.5t-56 42t-41 49t-41.5 42t-47.5 17.5q-94 0 -127 -160
h-107z" />
    <glyph glyph-name="uni1ECA" unicode="&#x1eca;" horiz-adv-x="499" 
d="M371 1434h155l-303 -1434h-155zM-27 -422l45 217h168l-45 -217h-168z" />
    <glyph glyph-name="uni1ECB" unicode="&#x1ecb;" horiz-adv-x="454" 
d="M260 995h150l-211 -995h-152zM-47 -422l45 217h168l-45 -217h-168zM299 1217l45 217h168l-45 -217h-168z" />
    <glyph glyph-name="uni1ECC" unicode="&#x1ecc;" horiz-adv-x="1646" 
d="M770 -25q-181 0 -327 84t-227 230t-81 325q0 162 64.5 315.5t174 270t267 187.5t332.5 71q180 0 325.5 -83t226.5 -228t81 -322q0 -130 -40 -255.5t-116 -232t-177.5 -188.5t-231.5 -128t-271 -46zM295 627q0 -220 137 -362t354 -142q175 0 328 95.5t242.5 254.5
t89.5 340q0 216 -137 357t-353 141q-131 0 -253.5 -56t-211.5 -148.5t-142.5 -219t-53.5 -260.5zM541 -422l45 217h168l-45 -217h-168z" />
    <glyph glyph-name="uni1ECD" unicode="&#x1ecd;" horiz-adv-x="1204" 
d="M535 -25q-196 0 -325.5 131.5t-129.5 325.5q0 152 77.5 287t215 218t299.5 83q129 0 233 -60t162.5 -164.5t58.5 -232.5q0 -114 -46.5 -221.5t-125 -188t-188.5 -129.5t-231 -49zM225 440q0 -142 91 -234.5t233 -92.5q114 0 213.5 60.5t159 162.5t59.5 219q0 140 -92 234
t-232 94q-116 0 -216.5 -62t-158 -164t-57.5 -217zM326 -422l45 217h168l-45 -217h-168z" />
    <glyph glyph-name="uni1EE4" unicode="&#x1ee4;" horiz-adv-x="1232" 
d="M532 -25q-211 0 -316 140t-58 366l202 953h156l-209 -983q-31 -142 37.5 -235t202.5 -93q141 0 235 92t127 250l207 969h156l-207 -979q-46 -223 -185.5 -351.5t-347.5 -128.5zM342 -422l45 217h168l-45 -217h-168z" />
    <glyph glyph-name="uni1EE5" unicode="&#x1ee5;" horiz-adv-x="1157" 
d="M1110 995l-211 -995h-145l30 137q-72 -75 -162.5 -118.5t-185.5 -43.5q-181 0 -268 123.5t-41 341.5l117 555h149l-123 -573q-30 -141 26.5 -225t188.5 -84q128 0 227.5 86.5t131.5 230.5l119 565h147zM303 -422l45 217h168l-45 -217h-168z" />
    <glyph glyph-name="Ygrave" unicode="&#x1ef2;" horiz-adv-x="1064" 
d="M233 1434h168l187 -648l463 648h174l-588 -820l-131 -614h-156l129 614zM502 1769h170l151 -253h-139z" />
    <glyph glyph-name="ygrave" unicode="&#x1ef3;" horiz-adv-x="1026" 
d="M131 995h152l159 -809l496 809h168l-864 -1380h-166l262 408zM410 1391h161l131 -289h-131z" />
    <glyph glyph-name="uni1EF8" unicode="&#x1ef8;" horiz-adv-x="1064" 
d="M233 1434h168l187 -648l463 648h174l-588 -820l-131 -614h-156l129 614zM393 1518q28 123 91 183t145 60q42 0 87.5 -21.5t77 -47t66.5 -47t60 -21.5q81 0 116 129h113q-27 -121 -90.5 -181.5t-145.5 -60.5q-43 0 -87 21.5t-74 47.5t-65 47.5t-62 21.5q-38 0 -69 -33
t-48 -98h-115z" />
    <glyph glyph-name="uni1EF9" unicode="&#x1ef9;" horiz-adv-x="1026" 
d="M131 995h152l159 -809l496 809h168l-864 -1380h-166l262 408zM313 1122q25 142 87 209.5t145 67.5q38 0 70 -17.5t54 -42.5t42.5 -50t46 -42.5t53.5 -17.5q82 0 119 164h106q-25 -139 -87.5 -209t-139.5 -70q-42 0 -76 17.5t-56 42t-41 49t-41.5 42t-47.5 17.5
q-94 0 -127 -160h-107z" />
    <glyph glyph-name="endash" unicode="&#x2013;" horiz-adv-x="1138" 
d="M98 508l29 139h946l-31 -139h-944z" />
    <glyph glyph-name="emdash" unicode="&#x2014;" horiz-adv-x="2238" 
d="M98 508l29 139h2044l-29 -139h-2044z" />
    <glyph glyph-name="quoteleft" unicode="&#x2018;" horiz-adv-x="444" 
d="M395 1235q-4 -23 6.5 -37t32.5 -14h39l-41 -193h-194l94 443h106z" />
    <glyph glyph-name="quoteright" unicode="&#x2019;" horiz-adv-x="428" 
d="M332 1190q4 23 -6.5 37t-32.5 14h-39l41 193h194l-94 -443h-106z" />
    <glyph glyph-name="quotesinglbase" unicode="&#x201a;" horiz-adv-x="407" 
d="M78 -51q4 23 -6.5 37t-32.5 14h-39l41 193h195l-95 -443h-106z" />
    <glyph glyph-name="quotedblleft" unicode="&#x201c;" horiz-adv-x="749" 
d="M395 1235q-4 -23 6.5 -37t32.5 -14h39l-41 -193h-194l94 443h106zM543 991l94 443h106l-43 -199q-4 -23 6.5 -37t32.5 -14h39l-41 -193h-194z" />
    <glyph glyph-name="quotedblright" unicode="&#x201d;" horiz-adv-x="731" 
d="M637 1196q4 23 -6.5 37t-32.5 14h-39l41 193h195l-95 -443h-106zM254 1247l41 193h194l-94 -443h-106l43 199q4 23 -6.5 37t-32.5 14h-39z" />
    <glyph glyph-name="quotedblbase" unicode="&#x201e;" horiz-adv-x="714" 
d="M383 -51q4 23 -6.5 37t-32.5 14h-39l41 193h195l-95 -443h-106zM0 0l41 193h195l-95 -443h-106l43 199q4 23 -6.5 37t-32.5 14h-39z" />
    <glyph glyph-name="dagger" unicode="&#x2020;" horiz-adv-x="919" 
d="M190 963l27 129h293l72 342h137l-72 -342h289l-27 -129h-291l-118 -564h-138l119 564h-291z" />
    <glyph glyph-name="daggerdbl" unicode="&#x2021;" horiz-adv-x="923" 
d="M66 322l26 129h293l113 532h-293l28 129h293l66 322h137l-67 -322h290l-28 -129h-289l-113 -532h289l-29 -129h-288l-68 -322h-137l67 322h-290z" />
    <glyph glyph-name="bullet" unicode="&#x2022;" horiz-adv-x="815" 
d="M395 268q-98 0 -159.5 66.5t-55.5 165.5q4 98 73 163.5t167 65.5t160.5 -65.5t56.5 -163.5q-5 -98 -74.5 -165t-167.5 -67z" />
    <glyph glyph-name="ellipsis" unicode="&#x2026;" horiz-adv-x="1253" 
d="M471 193h195l-41 -193h-195zM33 0l41 193h194l-41 -193h-194zM825 0l41 193h195l-41 -193h-195z" />
    <glyph glyph-name="perthousand" unicode="&#x2030;" horiz-adv-x="2228" 
d="M1769 -25q-115 0 -186.5 76.5t-71.5 198.5q0 56 15.5 114.5t48 114t77 99t107.5 70t135 26.5q116 0 187 -76.5t71 -198.5q0 -70 -25.5 -143t-71.5 -136.5t-121.5 -104t-164.5 -40.5zM164 0l1155 1434h137l-1155 -1434h-137zM186 1036q0 71 25.5 144t72 135.5t121 102.5
t162.5 40q118 0 189 -75.5t71 -196.5q0 -71 -25.5 -144.5t-72 -137t-121.5 -104t-164 -40.5q-115 0 -186.5 76.5t-71.5 199.5zM305 1044q0 -78 41.5 -127t110.5 -49q75 0 134.5 48.5t88.5 118t29 141.5q0 78 -42 126t-112 48q-74 0 -132.5 -46.5t-88 -116t-29.5 -143.5z
M811 252q0 71 25.5 144t72 135.5t121 102.5t162.5 40q118 0 189 -76t71 -197q0 -71 -25.5 -144.5t-72 -137t-121.5 -104t-164 -40.5q-115 0 -186.5 77t-71.5 200zM930 260q0 -78 41 -127t110 -49q75 0 134.5 48.5t88.5 117.5t29 141q0 79 -41.5 126.5t-111.5 47.5
q-74 0 -132.5 -46.5t-88 -115.5t-29.5 -143zM1628 256q0 -78 42 -125t112 -47q74 0 133.5 47.5t89 117t29.5 142.5q0 79 -41.5 126.5t-112.5 47.5q-74 0 -133.5 -48.5t-89 -118t-29.5 -142.5z" />
    <glyph glyph-name="minute" unicode="&#x2032;" horiz-adv-x="387" 
d="M260 1016l19 244l34 174h148l-35 -174l-86 -244h-80z" />
    <glyph glyph-name="second" unicode="&#x2033;" horiz-adv-x="669" 
d="M543 1016l18 244l35 174h147l-34 -174l-86 -244h-80zM260 1016l19 244l34 174h148l-35 -174l-86 -244h-80z" />
    <glyph glyph-name="guilsinglleft" unicode="&#x2039;" horiz-adv-x="768" 
d="M563 43l-467 426l25 111l647 426l-35 -168l-475 -324l338 -321z" />
    <glyph glyph-name="guilsinglright" unicode="&#x203a;" horiz-adv-x="768" 
d="M217 1006l467 -426l-25 -111l-647 -426l35 168l475 324l-338 321z" />
    <glyph glyph-name="fraction" unicode="&#x2044;" horiz-adv-x="387" 
d="M750 1434h137l-1155 -1434h-138z" />
    <glyph glyph-name="franc" unicode="&#x20a3;" horiz-adv-x="976" 
d="M621 301h-283l-64 -301h-155l63 301h-145l26 127h146l213 1006h686l-29 -146h-530l-98 -454h460l-30 -146h-461l-55 -260h282z" />
    <glyph glyph-name="uni20A6" unicode="&#x20a6;" horiz-adv-x="1531" 
d="M539 819l-43 -203h272l-66 203h-163zM119 496l24 120h201l43 203h-201l25 121h201l104 494h152l161 -494h324l104 494h154l-104 -494h200l-24 -121h-201l-43 -203h201l-25 -120h-203l-104 -496h-141l-160 496h-336l-106 -496h-152l104 496h-198zM565 940h101
q-17 61 -32.5 121.5t-22.5 90.5l-7 30q-12 -103 -39 -242zM868 819l66 -203h8l-2 -14v-4l4 18h141l43 203h-260zM971 496q16 -57 29 -113t18 -83l6 -28q12 95 37 224h-90z" />
    <glyph glyph-name="uni20A9" unicode="&#x20a9;" horiz-adv-x="1945" 
d="M135 731l27 127h176l-29 576h160l33 -576h321l281 576h135l39 -576h319l277 576h164l-271 -576h175l-27 -127h-209l-344 -731h-162l-51 731h-240l-360 -731h-166l-37 731h-211zM510 731l12 -205q3 -77 4 -149.5t0 -106.5v-34q47 108 123 264l113 231h-252zM973 858h166
l-21 295zM1286 731l14 -203l17 -290q41 108 113 268l108 225h-252z" />
    <glyph glyph-name="uni20AA" unicode="&#x20aa;" horiz-adv-x="1656" 
d="M453 0l225 1053h160l-193 -906h395q112 0 177 56t90 172l225 1059h160l-230 -1082q-37 -173 -151.5 -262.5t-280.5 -89.5h-577zM68 0l305 1434h553q178 0 259 -86t48 -246l-154 -721h-159l143 678q25 117 -16.5 172t-153.5 55h-391l-275 -1286h-159z" />
    <glyph glyph-name="dong" unicode="&#x20ab;" horiz-adv-x="1402" 
d="M995 -186l-20 -99h-948l20 99h948zM111 432q0 161 77.5 296.5t209 213.5t284.5 78q138 0 243.5 -64.5t151.5 -173.5l86 410h-305l21 96h305l30 146h150l-31 -146h164l-20 -96h-164l-254 -1192h-148l31 152q-62 -80 -165.5 -128.5t-213.5 -48.5q-195 0 -323.5 127.5
t-128.5 329.5zM260 449q0 -143 93 -236.5t239 -93.5q180 0 304 125t124 305q0 148 -93.5 239t-244.5 91q-113 0 -210.5 -59t-154.5 -158t-57 -213z" />
    <glyph glyph-name="Euro" unicode="&#x20ac;" horiz-adv-x="1323" 
d="M944 946l-65 -127h-383l-43 -203h419l-63 -124h-381q-25 -169 53 -269t217 -100q277 0 357 338h153q-55 -234 -182 -360t-342 -126q-98 0 -180 35t-139.5 100t-82 163.5t-8.5 218.5h-159l26 124h158l43 203h-158l29 127h158v4q48 233 184 370.5t354 137.5q130 0 233 -63
t152 -175.5t23 -246.5h-154q19 97 -12 175t-97.5 120.5t-152.5 42.5q-147 0 -242 -97.5t-137 -267.5h422z" />
    <glyph glyph-name="uni20B1" unicode="&#x20b1;" horiz-adv-x="1318" 
d="M170 0l182 854h-192l24 119h193l20 98h-190l22 117h193l53 246h342q143 0 238.5 -66t126.5 -180h219l-25 -117h-182q0 -17 -4 -49q-4 -34 -8 -49h174l-25 -119h-194q-63 -120 -184.5 -188t-276.5 -68h-223l-127 -598h-156zM483 741h209q168 0 264 113h-448zM532 973h488
q9 23 12 53q4 32 4 45h-483zM580 1188h428q-62 100 -220 100h-188z" />
    <glyph glyph-name="uni20B4" unicode="&#x20b4;" horiz-adv-x="1306" 
d="M100 526l27 121h260q63 38 72 43l180 98h-481l26 119h672l35 19q70 39 115 99t45 134q0 70 -52 112t-143 42q-129 0 -212 -74.5t-114 -200.5h-153q34 189 161.5 304.5t331.5 115.5q155 0 247.5 -77t92.5 -201q0 -161 -118 -273h217l-27 -119h-371l-256 -141h598l-26 -121
h-774q-105 -89 -105 -217q0 -83 61 -135.5t158 -52.5q133 0 225 84t123 225h156q-44 -204 -183.5 -329.5t-336.5 -125.5q-163 0 -264 88.5t-101 231.5q0 129 74 231h-160z" />
    <glyph glyph-name="uni20BA" unicode="&#x20ba;" horiz-adv-x="1247" 
d="M250 0l112 530l-264 -116l29 129l262 116l47 222l-264 -117l29 129l262 117l90 424h156l-74 -349l444 197l-26 -129l-445 -197l-47 -221l445 197l-29 -129l-442 -197l-99 -461h238q130 0 213 69t112 200l13 65h155l-14 -71q-41 -195 -175 -301.5t-335 -106.5h-393z" />
    <glyph glyph-name="uni20BD" unicode="&#x20bd;" horiz-adv-x="1146" 
d="M51 266l25 125h172l59 287h-170l27 125h170l133 631h364q124 0 216 -45t135.5 -137t15.5 -216q-37 -163 -171 -260.5t-329 -97.5h-235l-62 -287h404l-25 -125h-405l-56 -266h-155l57 266h-170zM489 803h218q130 0 221.5 70t115.5 182q22 107 -39 173t-190 66h-221z" />
    <glyph glyph-name="uni20BF" unicode="&#x20bf;" horiz-adv-x="1054" 
d="M682 1675l-51 -241h45q60 0 123 -13l53 254h111l-62 -289q75 -37 115.5 -102t40.5 -151q0 -136 -93 -245t-227 -134q87 -14 145 -89.5t58 -195.5q0 -165 -89 -284t-241 -162l-57 -269h-111l54 248q-14 -2 -45 -2h-125l-54 -246h-110l53 246h-147l303 1434h149l51 241h111
zM250 131h209q105 0 180 48.5t109 121.5t34 158q0 97 -55.5 155t-153.5 58h-206zM393 803h170q133 0 234.5 86.5t101.5 214.5q0 93 -64.5 146t-179.5 53h-155z" />
    <glyph glyph-name="uni2116" unicode="&#x2116;" horiz-adv-x="2385" 
d="M1972 1458q105 0 192.5 -42t141.5 -115t76 -171.5t-4 -211.5q-44 -212 -207.5 -347t-374.5 -135q-139 0 -246.5 72t-155 193.5t-18.5 259.5q47 223 212.5 360t383.5 137zM72 0l303 1434h151l281 -861q22 -74 41 -149t27 -114l8 -38q18 136 53 306l180 856h154l-303 -1434
h-142l-284 881q-22 74 -41.5 149t-27.5 114l-9 38q-16 -136 -53 -308l-187 -874h-151zM1212 0l29 137h932l-29 -137h-932zM1516 950q-21 -102 13 -190.5t108.5 -139.5t168.5 -51q157 0 280 106.5t157 272.5q33 156 -51.5 265.5t-233.5 109.5q-159 0 -283.5 -104.5
t-158.5 -268.5z" />
    <glyph glyph-name="uni2117" unicode="&#x2117;" horiz-adv-x="1710" 
d="M862 -25q-194 0 -355 93.5t-253 254.5t-92 353q0 156 63.5 300.5t168.5 250t248.5 168.5t297.5 63q195 0 356.5 -93.5t253.5 -254t92 -352.5q0 -125 -40.5 -244t-113.5 -215.5t-169.5 -169.5t-214.5 -113.5t-242 -40.5zM240 680q0 -129 48.5 -245.5t131 -200.5
t198 -133.5t244.5 -49.5q140 0 269.5 57t224.5 151.5t152 225t57 271.5q0 129 -48.5 245.5t-131.5 200.5t-199 133t-246 49q-138 0 -267 -56.5t-224 -151t-152 -225t-57 -271.5zM635 326l168 788h190q99 0 159 -51t60 -137q0 -105 -77.5 -186t-214.5 -81h-109l-72 -333h-104
zM831 754h95q40 0 72.5 11.5t52.5 29t34 40t19.5 44t5.5 41.5q0 45 -34.5 71.5t-96.5 26.5h-92z" />
    <glyph glyph-name="trademark" unicode="&#x2122;" horiz-adv-x="1640" 
d="M809 717v717h158l227 -543l229 543h154v-717h-113v555l-229 -555h-84l-231 561v-561h-111zM238 1329v105h469v-105h-177v-612h-118v612h-174z" />
    <glyph glyph-name="uni2126" unicode="&#x2126;" horiz-adv-x="1642" 
d="M16 0l31 147h379q-254 206 -254 496q0 152 62.5 299t170 261.5t265 184.5t334.5 70q262 0 420.5 -154t158.5 -405q0 -233 -141 -430.5t-365 -321.5h367l-31 -147h-557l31 141q116 63 210.5 138.5t169 167.5t115.5 202.5t41 229.5q0 195 -118.5 312.5t-319.5 117.5
q-111 0 -213.5 -37.5t-182 -103.5t-139 -151t-91 -184t-31.5 -200q0 -280 276 -492l-29 -141h-559z" />
    <glyph glyph-name="oneeighth" unicode="&#x215b;" horiz-adv-x="1540" 
d="M512 1434l-182 -859h-107l133 623h-135l21 96h59q36 0 63 22t35 58l13 60h100zM59 0l1155 1434h138l-1155 -1434h-138zM829 197q0 86 59 158.5t150 97.5q-102 45 -102 149q0 114 88 193t213 79q109 0 176.5 -52t67.5 -140q0 -77 -48 -138.5t-135 -90.5q53 -19 84 -63.5
t31 -108.5q0 -124 -92 -209.5t-229 -85.5q-119 0 -191 58t-72 153zM938 207q0 -58 42 -94.5t112 -36.5q86 0 150.5 58.5t64.5 137.5q0 59 -41.5 93t-108.5 34q-88 0 -153.5 -56.5t-65.5 -135.5zM1036 612q-3 -53 36 -86.5t106 -33.5q84 0 143 52.5t59 125.5q0 52 -40 85
t-103 33q-81 0 -140.5 -51t-60.5 -125z" />
    <glyph glyph-name="threeeighths" unicode="&#x215c;" horiz-adv-x="1748" 
d="M395 561q-130 0 -205.5 78t-50.5 192h107q-15 -74 29 -123t122 -49q92 0 150.5 56t58.5 133q0 57 -42 89t-118 32h-36l18 92h37q89 0 150 49.5t61 126.5q0 55 -36.5 85t-104.5 30t-124.5 -41.5t-72.5 -116.5h-105q25 121 114.5 188.5t203.5 67.5q110 0 171.5 -51.5
t61.5 -141.5q0 -84 -53 -150t-139 -91q121 -35 121 -160q0 -120 -87 -207.5t-231 -87.5zM266 0l1155 1434h138l-1156 -1434h-137zM1038 197q0 86 59 158.5t150 97.5q-102 45 -102 149q0 114 88 193t213 79q109 0 176.5 -52t67.5 -140q0 -77 -48 -138.5t-135 -90.5
q53 -19 84 -63.5t31 -108.5q0 -124 -92.5 -209.5t-229.5 -85.5q-118 0 -190 58t-72 153zM1147 207q0 -58 41.5 -94.5t111.5 -36.5q87 0 151.5 58.5t64.5 137.5q0 59 -41.5 93t-108.5 34q-88 0 -153.5 -56.5t-65.5 -135.5zM1245 612q-3 -53 35.5 -86.5t105.5 -33.5
q84 0 143.5 52.5t59.5 125.5q0 52 -40 85t-103 33q-81 0 -140.5 -51t-60.5 -125z" />
    <glyph glyph-name="fiveeighths" unicode="&#x215d;" horiz-adv-x="1736" 
d="M387 561q-124 0 -198 75t-50 193h105q-13 -77 29 -121t122 -44q86 0 154.5 69.5t68.5 167.5q0 66 -39 101.5t-108 35.5q-46 0 -92 -18.5t-80 -50.5l-96 6l137 461h455l-21 -101h-358l-86 -272q31 27 78 43t88 16q108 0 169.5 -55t61.5 -154q0 -146 -98 -249t-242 -103z
M256 0l1155 1434h137l-1155 -1434h-137zM1026 197q0 86 59 158.5t150 97.5q-102 45 -102 149q0 114 88 193t213 79q109 0 176 -52t67 -140q0 -78 -47.5 -139t-134.5 -90q53 -19 84 -63.5t31 -108.5q0 -124 -92.5 -209.5t-229.5 -85.5q-118 0 -190 58t-72 153zM1135 207
q0 -58 41.5 -94.5t111.5 -36.5q86 0 150.5 58.5t64.5 137.5q0 59 -41 93t-108 34q-88 0 -153.5 -56.5t-65.5 -135.5zM1233 612q-3 -53 35.5 -86.5t105.5 -33.5q84 0 143.5 52.5t59.5 125.5q0 52 -40 85t-103 33q-81 0 -140.5 -51t-60.5 -125z" />
    <glyph glyph-name="seveneighths" unicode="&#x215e;" horiz-adv-x="1552" 
d="M156 575l510 760h-435l21 101h559l-18 -90l-514 -771h-123zM72 0l1155 1434h137l-1155 -1434h-137zM842 197q0 86 59 158.5t150 97.5q-103 46 -103 149q0 114 88 193t213 79q109 0 176.5 -52t67.5 -140q0 -78 -47.5 -139t-134.5 -90q53 -19 83.5 -63.5t30.5 -108.5
q0 -124 -92 -209.5t-229 -85.5q-118 0 -190 58t-72 153zM950 207q0 -58 42 -94.5t112 -36.5q86 0 150.5 58.5t64.5 137.5q0 59 -41.5 93t-108.5 34q-88 0 -153.5 -56.5t-65.5 -135.5zM1049 612q-3 -53 35.5 -86.5t105.5 -33.5q84 0 143.5 52.5t59.5 125.5q0 52 -40.5 85
t-103.5 33q-80 0 -139.5 -51t-60.5 -125z" />
    <glyph glyph-name="arrowleft" unicode="&#x2190;" horiz-adv-x="1435" 
d="M602 35l-471 598l705 575l88 -112l-510 -412h948l-31 -139h-946l334 -416z" />
    <glyph glyph-name="arrowup" unicode="&#x2191;" horiz-adv-x="1323" 
d="M1262 655l-115 -96l-316 412l-206 -969h-148l203 963l-463 -377l-94 114l680 537z" />
    <glyph glyph-name="arrowright" unicode="&#x2192;" horiz-adv-x="1433" 
d="M651 35l-88 115l510 409h-948l31 139h946l-334 416l117 94l471 -596z" />
    <glyph glyph-name="arrowdown" unicode="&#x2193;" horiz-adv-x="1318" 
d="M106 557l115 96l316 -411l206 968h148l-203 -962l463 377l94 -115l-680 -537z" />
    <glyph glyph-name="uni2196" unicode="&#x2196;" horiz-adv-x="1236" 
d="M129 393l178 834h836l-29 -142l-596 2l586 -749l-113 -94l-592 762l-123 -613h-147z" />
    <glyph glyph-name="uni2197" unicode="&#x2197;" horiz-adv-x="1243" 
d="M1061 344h-150l129 600l-895 -756l-90 109l887 747l-575 -2l30 144h842z" />
    <glyph glyph-name="uni2198" unicode="&#x2198;" horiz-adv-x="1198" 
d="M1135 834l-179 -834h-835l29 141l595 -2l-585 750l112 94l592 -762l123 613h148z" />
    <glyph glyph-name="uni2199" unicode="&#x2199;" horiz-adv-x="1208" 
d="M211 842h149l-129 -600l895 755l91 -108l-887 -748l575 2l-31 -143h-841z" />
    <glyph glyph-name="partialdiff" unicode="&#x2202;" horiz-adv-x="1144" 
d="M487 -25q-183 0 -304.5 119t-121.5 289q0 130 69 254t191.5 204.5t262.5 80.5q119 0 207 -43l-242 555h172l264 -613q70 -158 70 -291q0 -148 -78.5 -276.5t-209.5 -203.5t-280 -75zM215 399q0 -118 79.5 -199t203.5 -81q162 0 280.5 118.5t118.5 280.5q0 122 -79 199.5
t-218 77.5q-100 0 -190 -58t-142.5 -149.5t-52.5 -188.5z" />
    <glyph glyph-name="emptyset" unicode="&#x2205;" horiz-adv-x="1689" 
d="M223 -90l-106 94l184 197q-141 174 -141 415q0 128 40 252.5t116 230t177 186.5t231 127t271 46q215 0 379 -117l150 162l108 -94l-151 -164q149 -176 149 -420q0 -162 -64 -316.5t-173.5 -272.5t-267 -189.5t-332.5 -71.5q-225 0 -390 127zM319 627q0 -176 93 -308
l854 906q-122 86 -287 86q-176 0 -329 -95t-242 -253t-89 -336zM510 217q131 -94 299 -94q134 0 257.5 57.5t211.5 152.5t140 220.5t52 257.5q0 187 -102 317z" />
    <glyph glyph-name="uni2206" unicode="&#x2206;" horiz-adv-x="1236" 
d="M-55 0l26 131l768 1303h160l213 -1303l-27 -131h-1140zM143 147h818l-179 1082z" />
    <glyph glyph-name="product" unicode="&#x220f;" horiz-adv-x="1329" 
d="M68 0l303 1434h985l-305 -1434h-154l272 1286h-671l-275 -1286h-155z" />
    <glyph glyph-name="summation" unicode="&#x2211;" horiz-adv-x="1142" 
d="M752 766l-23 -100l-500 -519h760l-31 -147h-981l29 139l580 594l-334 561l29 140h983l-31 -148h-772z" />
    <glyph glyph-name="minus" unicode="&#x2212;" horiz-adv-x="1269" 
d="M1128 733l-28 -137h-887l29 137h886z" />
    <glyph glyph-name="radical" unicode="&#x221a;" horiz-adv-x="1310" 
d="M164 850l31 145h340l83 -776l652 1215h176l-782 -1434h-168l-93 850h-239z" />
    <glyph glyph-name="infinity" unicode="&#x221e;" horiz-adv-x="1951" 
d="M1497 1145q172 0 275.5 -105t103.5 -272q0 -108 -41 -213t-111.5 -186t-172.5 -131t-216 -50q-141 0 -245.5 82.5t-116.5 200.5q-65 -124 -186 -204.5t-259 -80.5q-172 0 -275 106t-103 275q0 144 68.5 276t194.5 217t277 85q141 0 245.5 -82t115.5 -199
q63 120 186.5 200.5t259.5 80.5zM297 582q0 -114 66.5 -185t179.5 -71q128 0 241.5 93t165.5 249q14 144 -59.5 242t-202.5 98q-84 0 -158 -37t-124.5 -97t-79.5 -136.5t-29 -155.5zM1081 668q-12 -142 58.5 -242t197.5 -100q111 0 202.5 63t140.5 160.5t49 202.5
q0 114 -66.5 185t-179.5 71q-127 0 -238 -92.5t-164 -247.5z" />
    <glyph glyph-name="integral" unicode="&#x222b;" horiz-adv-x="690" 
d="M-104 -305l28 129h37q158 0 195 172l245 1161q29 136 119 206.5t232 70.5h75l-26 -127h-56q-73 0 -127.5 -47t-72.5 -132l-246 -1159q-30 -140 -112.5 -207t-231.5 -67h-59z" />
    <glyph glyph-name="approxequal" unicode="&#x2248;" horiz-adv-x="1269" 
d="M231 674q34 164 116.5 253t178.5 89q48 0 92.5 -20t77.5 -49t63.5 -57.5t64.5 -48.5t67 -20q49 0 95 51.5t67 141.5l137 2q-34 -162 -119 -251t-182 -89q-46 0 -89 20t-76 48t-64 56t-66 48t-70 20q-48 0 -91.5 -51.5t-63.5 -140.5zM141 248q34 164 116.5 253t178.5 89
q48 0 92.5 -20t77.5 -49t63.5 -57.5t64.5 -48.5t67 -20q49 0 95 51.5t67 141.5l137 2q-34 -162 -119 -251t-182 -89q-46 0 -89 20t-76 48t-64 56t-66 48t-70 20q-48 0 -91.5 -51.5t-63.5 -140.5z" />
    <glyph glyph-name="notequal" unicode="&#x2260;" horiz-adv-x="1269" 
d="M1030 1184l-131 -242h277l-29 -137h-324l-153 -281h415l-28 -137h-463l-131 -242h-150l131 242h-274l29 137h321l152 281h-412l29 137h459l131 242h151z" />
    <glyph glyph-name="lessequal" unicode="&#x2264;" horiz-adv-x="1269" 
d="M119 143l26 133h883l-29 -133h-880zM244 743l35 152l946 307l-33 -151l-746 -240l644 -250l-29 -137z" />
    <glyph glyph-name="greaterequal" unicode="&#x2265;" horiz-adv-x="1269" 
d="M131 143l27 133h880l-26 -133h-881zM190 424l31 151l748 240l-645 250l32 137l811 -317l-30 -156z" />
    <glyph glyph-name="uni2460" unicode="&#x2460;" horiz-adv-x="1710" 
d="M862 -25q-194 0 -355 93.5t-253 254.5t-92 353q0 156 63.5 300.5t168.5 250t248.5 168.5t297.5 63q195 0 356.5 -93.5t253.5 -254t92 -352.5q0 -125 -40.5 -244t-113.5 -215.5t-169.5 -169.5t-214.5 -113.5t-242 -40.5zM240 680q0 -129 48.5 -245.5t131 -200.5
t198 -133.5t244.5 -49.5q140 0 269.5 57t224.5 151.5t152 225t57 271.5q0 129 -48.5 245.5t-131.5 200.5t-199 133t-246 49q-138 0 -267 -56.5t-224 -151t-152 -225t-57 -271.5zM766 922l20 96h60q36 0 63 22t35 58l12 59h101l-183 -858h-106l133 623h-135z" />
    <glyph glyph-name="uni2461" unicode="&#x2461;" horiz-adv-x="1710" 
d="M862 -25q-194 0 -355 93.5t-253 254.5t-92 353q0 156 63.5 300.5t168.5 250t248.5 168.5t297.5 63q195 0 356.5 -93.5t253.5 -254t92 -352.5q0 -125 -40.5 -244t-113.5 -215.5t-169.5 -169.5t-214.5 -113.5t-242 -40.5zM240 680q0 -129 48.5 -245.5t131 -200.5
t198 -133.5t244.5 -49.5q140 0 269.5 57t224.5 151.5t152 225t57 271.5q0 129 -48.5 245.5t-131.5 200.5t-199 133t-246 49q-138 0 -267 -56.5t-224 -151t-152 -225t-57 -271.5zM555 299l18 88l381 322q48 39 71.5 60.5t52.5 53.5t40.5 63t11.5 66q0 57 -39.5 89t-105.5 32
q-72 0 -123.5 -51t-68.5 -139h-105q27 143 108 217t203 74q108 0 174 -57t66 -150q0 -42 -13.5 -81.5t-29.5 -67.5t-51 -64t-56.5 -55t-66.5 -56l-283 -244h398l-23 -100h-559z" />
    <glyph glyph-name="uni2462" unicode="&#x2462;" horiz-adv-x="1710" 
d="M862 -25q-194 0 -355 93.5t-253 254.5t-92 353q0 156 63.5 300.5t168.5 250t248.5 168.5t297.5 63q195 0 356.5 -93.5t253.5 -254t92 -352.5q0 -125 -40.5 -244t-113.5 -215.5t-169.5 -169.5t-214.5 -113.5t-242 -40.5zM240 680q0 -129 48.5 -245.5t131 -200.5
t198 -133.5t244.5 -49.5q140 0 269.5 57t224.5 151.5t152 225t57 271.5q0 129 -48.5 245.5t-131.5 200.5t-199 133t-246 49q-138 0 -267 -56.5t-224 -151t-152 -225t-57 -271.5zM582 551h106q-15 -74 29.5 -123t122.5 -49q92 0 150.5 56t58.5 132q0 57 -42 89t-118 32h-37
l18 92h37q89 0 150 49.5t61 126.5q0 55 -36.5 85t-104.5 30t-124.5 -41.5t-72.5 -116.5h-104q25 121 114 188.5t203 67.5q110 0 172 -51t62 -141q0 -84 -53.5 -150.5t-139.5 -91.5q121 -35 121 -160q0 -120 -86.5 -207t-230.5 -87q-130 0 -205.5 78t-50.5 192z" />
    <glyph glyph-name="uni2463" unicode="&#x2463;" horiz-adv-x="1710" 
d="M862 -25q-194 0 -355 93.5t-253 254.5t-92 353q0 156 63.5 300.5t168.5 250t248.5 168.5t297.5 63q195 0 356.5 -93.5t253.5 -254t92 -352.5q0 -125 -40.5 -244t-113.5 -215.5t-169.5 -169.5t-214.5 -113.5t-242 -40.5zM240 680q0 -129 48.5 -245.5t131 -200.5
t198 -133.5t244.5 -49.5q140 0 269.5 57t224.5 151.5t152 225t57 271.5q0 129 -48.5 245.5t-131.5 200.5t-199 133t-246 49q-138 0 -267 -56.5t-224 -151t-152 -225t-57 -271.5zM543 496l20 94l387 567h121l-385 -567h264l47 217h103l-45 -217h129l-23 -94h-127l-43 -199
h-106l43 199h-385z" />
    <glyph glyph-name="uni2464" unicode="&#x2464;" horiz-adv-x="1710" 
d="M862 -25q-194 0 -355 93.5t-253 254.5t-92 353q0 156 63.5 300.5t168.5 250t248.5 168.5t297.5 63q195 0 356.5 -93.5t253.5 -254t92 -352.5q0 -125 -40.5 -244t-113.5 -215.5t-169.5 -169.5t-214.5 -113.5t-242 -40.5zM240 680q0 -129 48.5 -245.5t131 -200.5
t198 -133.5t244.5 -49.5q140 0 269.5 57t224.5 151.5t152 225t57 271.5q0 129 -48.5 245.5t-131.5 200.5t-199 133t-246 49q-138 0 -267 -56.5t-224 -151t-152 -225t-57 -271.5zM565 551h105q-13 -77 29 -121.5t122 -44.5q86 0 154.5 70t68.5 168q0 66 -39 101.5t-108 35.5
q-46 0 -92 -19t-80 -51l-96 6l137 461h455l-21 -100h-358l-86 -273q31 27 78 43.5t88 16.5q108 0 169.5 -55t61.5 -154q0 -146 -98 -249t-242 -103q-124 0 -198 75t-50 193z" />
    <glyph glyph-name="uni2465" unicode="&#x2465;" horiz-adv-x="1710" 
d="M862 -25q-194 0 -355 93.5t-253 254.5t-92 353q0 156 63.5 300.5t168.5 250t248.5 168.5t297.5 63q195 0 356.5 -93.5t253.5 -254t92 -352.5q0 -125 -40.5 -244t-113.5 -215.5t-169.5 -169.5t-214.5 -113.5t-242 -40.5zM240 680q0 -129 48.5 -245.5t131 -200.5
t198 -133.5t244.5 -49.5q140 0 269.5 57t224.5 151.5t152 225t57 271.5q0 129 -48.5 245.5t-131.5 200.5t-199 133t-246 49q-138 0 -267 -56.5t-224 -151t-152 -225t-57 -271.5zM557 528q0 60 28 124t57.5 103t84.5 103l254 299h135l-272 -313q33 10 67 10q108 0 177 -67.5
t69 -172.5q0 -133 -101.5 -232t-238.5 -99q-115 0 -187.5 70t-72.5 175zM664 541q0 -67 46 -113.5t117 -46.5q90 0 158 66t68 159q0 71 -45.5 115.5t-120.5 44.5q-88 0 -155.5 -67.5t-67.5 -157.5z" />
    <glyph glyph-name="uni2466" unicode="&#x2466;" horiz-adv-x="1710" 
d="M862 -25q-194 0 -355 93.5t-253 254.5t-92 353q0 156 63.5 300.5t168.5 250t248.5 168.5t297.5 63q195 0 356.5 -93.5t253.5 -254t92 -352.5q0 -125 -40.5 -244t-113.5 -215.5t-169.5 -169.5t-214.5 -113.5t-242 -40.5zM240 680q0 -129 48.5 -245.5t131 -200.5
t198 -133.5t244.5 -49.5q140 0 269.5 57t224.5 151.5t152 225t57 271.5q0 129 -48.5 245.5t-131.5 200.5t-199 133t-246 49q-138 0 -267 -56.5t-224 -151t-152 -225t-57 -271.5zM594 297l510 760h-434l20 100h559l-18 -90l-514 -770h-123z" />
    <glyph glyph-name="uni2467" unicode="&#x2467;" horiz-adv-x="1710" 
d="M862 -25q-194 0 -355 93.5t-253 254.5t-92 353q0 156 63.5 300.5t168.5 250t248.5 168.5t297.5 63q195 0 356.5 -93.5t253.5 -254t92 -352.5q0 -125 -40.5 -244t-113.5 -215.5t-169.5 -169.5t-214.5 -113.5t-242 -40.5zM240 680q0 -129 48.5 -245.5t131 -200.5
t198 -133.5t244.5 -49.5q140 0 269.5 57t224.5 151.5t152 225t57 271.5q0 129 -48.5 245.5t-131.5 200.5t-199 133t-246 49q-138 0 -267 -56.5t-224 -151t-152 -225t-57 -271.5zM563 494q0 86 59 158.5t150 97.5q-102 45 -102 149q0 114 88 193t213 79q109 0 176 -52
t67 -140q0 -78 -47.5 -139t-134.5 -90q53 -19 84 -63.5t31 -108.5q0 -124 -92.5 -209.5t-229.5 -85.5q-118 0 -190 58t-72 153zM672 504q0 -58 41.5 -94.5t111.5 -36.5q86 0 150.5 58.5t64.5 137.5q0 59 -41 93t-108 34q-88 0 -153.5 -56.5t-65.5 -135.5zM770 909
q-3 -53 35.5 -87t105.5 -34q84 0 143.5 53t59.5 126q0 52 -40 85t-103 33q-81 0 -140.5 -51t-60.5 -125z" />
    <glyph glyph-name="uni2468" unicode="&#x2468;" horiz-adv-x="1710" 
d="M862 -25q-194 0 -355 93.5t-253 254.5t-92 353q0 156 63.5 300.5t168.5 250t248.5 168.5t297.5 63q195 0 356.5 -93.5t253.5 -254t92 -352.5q0 -125 -40.5 -244t-113.5 -215.5t-169.5 -169.5t-214.5 -113.5t-242 -40.5zM240 680q0 -129 48.5 -245.5t131 -200.5
t198 -133.5t244.5 -49.5q140 0 269.5 57t224.5 151.5t152 225t57 271.5q0 129 -48.5 245.5t-131.5 200.5t-199 133t-246 49q-138 0 -267 -56.5t-224 -151t-152 -225t-57 -271.5zM618 844q0 133 101.5 232.5t238.5 99.5q115 0 188 -70.5t73 -175.5q0 -60 -28 -124t-57.5 -103
t-84.5 -103l-254 -299h-136l273 313q-33 -10 -68 -10q-108 0 -177 67.5t-69 172.5zM723 852q0 -71 45.5 -115.5t120.5 -44.5q88 0 155.5 68t67.5 158q0 67 -46.5 113t-117.5 46q-89 0 -157 -65.5t-68 -159.5z" />
    <glyph glyph-name="lozenge" unicode="&#x25ca;" horiz-adv-x="1093" 
d="M147 715l539 719h117l235 -719l-538 -715h-117zM287 698l176 -546l432 579l-174 549z" />
    <glyph glyph-name="circle" unicode="&#x25cb;" horiz-adv-x="1710" 
d="M862 -25q-194 0 -355 93.5t-253 254.5t-92 353q0 156 63.5 300.5t168.5 250t248.5 168.5t297.5 63q195 0 356.5 -93.5t253.5 -254t92 -352.5q0 -125 -40.5 -244t-113.5 -215.5t-169.5 -169.5t-214.5 -113.5t-242 -40.5zM240 680q0 -129 48.5 -245.5t131 -200.5
t198 -133.5t244.5 -49.5q140 0 269.5 57t224.5 151.5t152 225t57 271.5q0 129 -48.5 245.5t-131.5 200.5t-199 133t-246 49q-138 0 -267 -56.5t-224 -151t-152 -225t-57 -271.5z" />
    <glyph glyph-name="uni25CF" unicode="&#x25cf;" horiz-adv-x="1710" 
d="M862 -25q-194 0 -355 93.5t-253 254.5t-92 353q0 156 63.5 300.5t168.5 250t248.5 168.5t297.5 63q195 0 356.5 -93.5t253.5 -254t92 -352.5q0 -125 -40.5 -244t-113.5 -215.5t-169.5 -169.5t-214.5 -113.5t-242 -40.5z" />
    <glyph glyph-name="uniE132" unicode="&#xe132;" horiz-adv-x="892" 
d="M260 995h150l-211 -995h-152zM215 -385l29 133h78q52 0 88 32t49 91l239 1124h148l-242 -1142q-28 -131 -100.5 -184.5t-194.5 -53.5h-94zM274 1102l263 289h174l-289 -289h-148zM711 1102l262 289h174l-289 -289h-147z" />
    <glyph glyph-name="uniE133" unicode="&#xe133;" horiz-adv-x="1138" 
d="M371 1434h155l-303 -1434h-155zM385 1516l252 253h178l-283 -253h-147zM424 0l31 145h80q106 0 172.5 61.5t93.5 192.5l219 1035h156l-226 -1061q-77 -373 -409 -373h-117zM1036 1516l252 253h178l-282 -253h-148z" />
    <glyph glyph-name="S.ss02" horiz-adv-x="1060" 
d="M391 0q-169 0 -260 110.5t-53 274.5l12 57h156l-13 -59q-13 -56 -1 -111.5t58.5 -96t119.5 -40.5h116q72 0 126.5 33.5t83 85t42 103t13.5 98.5q0 70 -35 111.5t-103 66.5l-215 80q-202 77 -202 282q0 82 26.5 159.5t75 140.5t124.5 101t167 38h141q149 0 231.5 -89
t53.5 -227l-17 -80h-153l14 74q17 82 -31.5 133t-130.5 51h-112q-69 0 -124 -40.5t-82.5 -101.5t-27.5 -128q0 -133 137 -184l209 -76q103 -36 157 -101.5t54 -177.5q0 -69 -15 -136.5t-47.5 -131t-79.5 -112t-116.5 -78t-152.5 -29.5h-146z" />
    <glyph glyph-name="Sacute.ss02" horiz-adv-x="1060" 
d="M391 0q-169 0 -260 110.5t-53 274.5l12 57h156l-13 -59q-13 -56 -1 -111.5t58.5 -96t119.5 -40.5h116q72 0 126.5 33.5t83 85t42 103t13.5 98.5q0 70 -35 111.5t-103 66.5l-215 80q-202 77 -202 282q0 82 26.5 159.5t75 140.5t124.5 101t167 38h141q149 0 231.5 -89
t53.5 -227l-17 -80h-153l14 74q17 82 -31.5 133t-130.5 51h-112q-69 0 -124 -40.5t-82.5 -101.5t-27.5 -128q0 -133 137 -184l209 -76q103 -36 157 -101.5t54 -177.5q0 -69 -15 -136.5t-47.5 -131t-79.5 -112t-116.5 -78t-152.5 -29.5h-146zM657 1516l252 253h178l-282 -253
h-148z" />
    <glyph glyph-name="Scaron.ss02" horiz-adv-x="1060" 
d="M391 0q-169 0 -260 110.5t-53 274.5l12 57h156l-13 -59q-13 -56 -1 -111.5t58.5 -96t119.5 -40.5h116q72 0 126.5 33.5t83 85t42 103t13.5 98.5q0 70 -35 111.5t-103 66.5l-215 80q-202 77 -202 282q0 82 26.5 159.5t75 140.5t124.5 101t167 38h141q149 0 231.5 -89
t53.5 -227l-17 -80h-153l14 74q17 82 -31.5 133t-130.5 51h-112q-69 0 -124 -40.5t-82.5 -101.5t-27.5 -128q0 -133 137 -184l209 -76q103 -36 157 -101.5t54 -177.5q0 -69 -15 -136.5t-47.5 -131t-79.5 -112t-116.5 -78t-152.5 -29.5h-146zM451 1784h151l150 -180l227 180
h158l-322 -268h-156z" />
    <glyph glyph-name="Scedilla.ss02" horiz-adv-x="1060" 
d="M391 0q-169 0 -260 110.5t-53 274.5l12 57h156l-13 -59q-13 -56 -1 -111.5t58.5 -96t119.5 -40.5h116q72 0 126.5 33.5t83 85t42 103t13.5 98.5q0 70 -35 111.5t-103 66.5l-215 80q-202 77 -202 282q0 82 26.5 159.5t75 140.5t124.5 101t167 38h141q149 0 231.5 -89
t53.5 -227l-17 -80h-153l14 74q17 82 -31.5 133t-130.5 51h-112q-69 0 -124 -40.5t-82.5 -101.5t-27.5 -128q0 -133 137 -184l209 -76q103 -36 157 -101.5t54 -177.5q0 -69 -15 -136.5t-47.5 -131t-79.5 -112t-116.5 -78t-152.5 -29.5h-27l-88 -145h31q61 0 99 -39.5
t38 -104.5q0 -89 -60.5 -148t-154.5 -59h-133l18 84h117q50 0 85.5 33t35.5 80q0 34 -22.5 54t-59.5 20h-109l15 69l92 156h-23z" />
    <glyph glyph-name="Scircumflex.ss02" horiz-adv-x="1060" 
d="M391 0q-169 0 -260 110.5t-53 274.5l12 57h156l-13 -59q-13 -56 -1 -111.5t58.5 -96t119.5 -40.5h116q72 0 126.5 33.5t83 85t42 103t13.5 98.5q0 70 -35 111.5t-103 66.5l-215 80q-202 77 -202 282q0 82 26.5 159.5t75 140.5t124.5 101t167 38h141q149 0 231.5 -89
t53.5 -227l-17 -80h-153l14 74q17 82 -31.5 133t-130.5 51h-112q-69 0 -124 -40.5t-82.5 -101.5t-27.5 -128q0 -133 137 -184l209 -76q103 -36 157 -101.5t54 -177.5q0 -69 -15 -136.5t-47.5 -131t-79.5 -112t-116.5 -78t-152.5 -29.5h-146zM391 1516l322 258h153l215 -258
h-153l-148 170l-225 -170h-164z" />
    <glyph glyph-name="uni0218.ss02" horiz-adv-x="1060" 
d="M391 0q-169 0 -260 110.5t-53 274.5l12 57h156l-13 -59q-13 -56 -1 -111.5t58.5 -96t119.5 -40.5h116q72 0 126.5 33.5t83 85t42 103t13.5 98.5q0 70 -35 111.5t-103 66.5l-215 80q-202 77 -202 282q0 82 26.5 159.5t75 140.5t124.5 101t167 38h141q149 0 231.5 -89
t53.5 -227l-17 -80h-153l14 74q17 82 -31.5 133t-130.5 51h-112q-69 0 -124 -40.5t-82.5 -101.5t-27.5 -128q0 -133 137 -184l209 -76q103 -36 157 -101.5t54 -177.5q0 -69 -15 -136.5t-47.5 -131t-79.5 -112t-116.5 -78t-152.5 -29.5h-146zM137 -350l223 274h160l-244 -274
h-139z" />
    <glyph glyph-name="C.titl" horiz-adv-x="1153" 
d="M287 524q-38 -184 40 -292.5t224 -108.5q276 0 356 338h154q-55 -234 -182 -360t-342 -126q-103 0 -188.5 38.5t-142.5 111.5t-77 179t8 241l86 405q48 233 184.5 370.5t354.5 137.5q130 0 232.5 -63t151.5 -175.5t23 -246.5h-153q19 97 -12 175t-97.5 120.5t-152.5 42.5
q-151 0 -248 -103t-135 -282z" />
    <glyph glyph-name="Cacute.titl" horiz-adv-x="1153" 
d="M287 524q-38 -184 40 -292.5t224 -108.5q276 0 356 338h154q-55 -234 -182 -360t-342 -126q-103 0 -188.5 38.5t-142.5 111.5t-77 179t8 241l86 405q48 233 184.5 370.5t354.5 137.5q130 0 232.5 -63t151.5 -175.5t23 -246.5h-153q19 97 -12 175t-97.5 120.5t-152.5 42.5
q-151 0 -248 -103t-135 -282zM717 1516l252 253h178l-283 -253h-147z" />
    <glyph glyph-name="Ccaron.titl" horiz-adv-x="1153" 
d="M287 524q-38 -184 40 -292.5t224 -108.5q276 0 356 338h154q-55 -234 -182 -360t-342 -126q-103 0 -188.5 38.5t-142.5 111.5t-77 179t8 241l86 405q48 233 184.5 370.5t354.5 137.5q130 0 232.5 -63t151.5 -175.5t23 -246.5h-153q19 97 -12 175t-97.5 120.5t-152.5 42.5
q-151 0 -248 -103t-135 -282zM510 1784h152l149 -180l227 180h158l-322 -268h-155z" />
    <glyph glyph-name="Ccedilla.titl" horiz-adv-x="1153" 
d="M287 524q-38 -184 40 -292.5t224 -108.5q276 0 356 338h154q-111 -470 -494 -486l-73 -120h30q62 0 100 -40t38 -104q0 -89 -61 -148t-155 -59h-133l19 84h117q50 0 85 33t35 80q0 34 -22.5 54t-59.5 20h-108l14 69l80 136q-189 23 -287.5 174.5t-48.5 390.5l86 405
q48 233 184.5 370.5t354.5 137.5q130 0 232.5 -63t151.5 -175.5t23 -246.5h-153q19 97 -12 175t-97.5 120.5t-152.5 42.5q-151 0 -248 -103t-135 -282z" />
    <glyph glyph-name="Ccircumflex.titl" horiz-adv-x="1153" 
d="M287 524q-38 -184 40 -292.5t224 -108.5q276 0 356 338h154q-55 -234 -182 -360t-342 -126q-103 0 -188.5 38.5t-142.5 111.5t-77 179t8 241l86 405q48 233 184.5 370.5t354.5 137.5q130 0 232.5 -63t151.5 -175.5t23 -246.5h-153q19 97 -12 175t-97.5 120.5t-152.5 42.5
q-151 0 -248 -103t-135 -282zM453 1516l321 258h154l215 -258h-154l-147 170l-226 -170h-163z" />
    <glyph glyph-name="Cdotaccent.titl" horiz-adv-x="1153" 
d="M287 524q-38 -184 40 -292.5t224 -108.5q276 0 356 338h154q-55 -234 -182 -360t-342 -126q-103 0 -188.5 38.5t-142.5 111.5t-77 179t8 241l86 405q48 233 184.5 370.5t354.5 137.5q130 0 232.5 -63t151.5 -175.5t23 -246.5h-153q19 97 -12 175t-97.5 120.5t-152.5 42.5
q-151 0 -248 -103t-135 -282zM707 1524l32 157h185l-33 -157h-184z" />
    <glyph glyph-name="D.titl" horiz-adv-x="1161" 
d="M469 0h-401l303 1434h338q237 0 350 -143t59 -402l-78 -373q-50 -242 -197.5 -379t-373.5 -137zM254 147h217q168 0 274 102t144 288l76 358q38 185 -40 288t-229 103h-200z" />
    <glyph glyph-name="Eth.titl" horiz-adv-x="1200" 
d="M111 686l30 148h142l127 600h338q237 0 350 -143t59 -402l-78 -373q-50 -242 -197.5 -379t-373.5 -137h-402l146 686h-141zM293 147h217q168 0 274 102t144 288l76 358q38 185 -40 288t-229 103h-200l-97 -452h303l-32 -148h-301z" />
    <glyph glyph-name="Dcaron.titl" horiz-adv-x="1161" 
d="M469 0h-401l303 1434h338q237 0 350 -143t59 -402l-78 -373q-50 -242 -197.5 -379t-373.5 -137zM254 147h217q168 0 274 102t144 288l76 358q38 185 -40 288t-229 103h-200zM457 1784h151l150 -180l227 180h158l-322 -268h-155z" />
    <glyph glyph-name="Dcroat.titl" horiz-adv-x="1200" 
d="M111 686l30 148h142l127 600h338q237 0 350 -143t59 -402l-78 -373q-50 -242 -197.5 -379t-373.5 -137h-402l146 686h-141zM293 147h217q168 0 274 102t144 288l76 358q38 185 -40 288t-229 103h-200l-97 -452h303l-32 -148h-301z" />
    <glyph glyph-name="uni018F.titl" horiz-adv-x="1179" 
d="M477 -25q-210 0 -312.5 138t-53.5 368l57 271h786l35 161q39 181 -25.5 289.5t-215.5 108.5q-128 0 -230.5 -91.5t-142.5 -238.5h-160q56 214 210 345.5t353 131.5q222 0 320 -150.5t45 -402.5l-80 -379q-53 -253 -209 -402t-377 -149zM258 467q-32 -152 33.5 -248
t202.5 -96q151 0 261.5 107.5t149.5 287.5l21 94h-637z" />
    <glyph glyph-name="G.titl" horiz-adv-x="1177" 
d="M532 -25q-103 0 -187.5 38.5t-140.5 111.5t-75 179t8 241l84 405q47 233 182 370.5t353 137.5q132 0 234 -61t150 -171t23 -245h-157q26 147 -49.5 238.5t-211.5 91.5q-151 0 -244 -102.5t-130 -282.5l-82 -402q-37 -184 37 -292.5t213 -108.5q155 0 247.5 99t128.5 272
l25 118h-305l29 140h456l-55 -267q-50 -237 -183.5 -373.5t-349.5 -136.5z" />
    <glyph glyph-name="Gbreve.titl" horiz-adv-x="1177" 
d="M532 -25q-103 0 -187.5 38.5t-140.5 111.5t-75 179t8 241l84 405q47 233 182 370.5t353 137.5q132 0 234 -61t150 -171t23 -245h-157q26 147 -49.5 238.5t-211.5 91.5q-151 0 -244 -102.5t-130 -282.5l-82 -402q-37 -184 37 -292.5t213 -108.5q155 0 247.5 99t128.5 272
l25 118h-305l29 140h456l-55 -267q-50 -237 -183.5 -373.5t-349.5 -136.5zM555 1774h123q-12 -78 26.5 -125t112.5 -47q77 0 133.5 46.5t69.5 125.5h123q-23 -126 -111 -198.5t-217 -72.5q-132 0 -205.5 74t-54.5 197z" />
    <glyph glyph-name="Gcaron.titl" horiz-adv-x="1177" 
d="M532 -25q-103 0 -187.5 38.5t-140.5 111.5t-75 179t8 241l84 405q47 233 182 370.5t353 137.5q132 0 234 -61t150 -171t23 -245h-157q26 147 -49.5 238.5t-211.5 91.5q-151 0 -244 -102.5t-130 -282.5l-82 -402q-37 -184 37 -292.5t213 -108.5q155 0 247.5 99t128.5 272
l25 118h-305l29 140h456l-55 -267q-50 -237 -183.5 -373.5t-349.5 -136.5zM508 1784h151l150 -180l227 180h158l-322 -268h-155z" />
    <glyph glyph-name="Gcircumflex.titl" horiz-adv-x="1177" 
d="M532 -25q-103 0 -187.5 38.5t-140.5 111.5t-75 179t8 241l84 405q47 233 182 370.5t353 137.5q132 0 234 -61t150 -171t23 -245h-157q26 147 -49.5 238.5t-211.5 91.5q-151 0 -244 -102.5t-130 -282.5l-82 -402q-37 -184 37 -292.5t213 -108.5q155 0 247.5 99t128.5 272
l25 118h-305l29 140h456l-55 -267q-50 -237 -183.5 -373.5t-349.5 -136.5zM451 1516l321 258h154l215 -258h-154l-147 170l-226 -170h-163z" />
    <glyph glyph-name="uni0122.titl" horiz-adv-x="1177" 
d="M532 -25q-103 0 -187.5 38.5t-140.5 111.5t-75 179t8 241l84 405q47 233 182 370.5t353 137.5q132 0 234 -61t150 -171t23 -245h-157q26 147 -49.5 238.5t-211.5 91.5q-151 0 -244 -102.5t-130 -282.5l-82 -402q-37 -184 37 -292.5t213 -108.5q155 0 247.5 99t128.5 272
l25 118h-305l29 140h456l-55 -267q-50 -237 -183.5 -373.5t-349.5 -136.5zM184 -350l224 274h159l-243 -274h-140z" />
    <glyph glyph-name="Gdotaccent.titl" horiz-adv-x="1177" 
d="M532 -25q-103 0 -187.5 38.5t-140.5 111.5t-75 179t8 241l84 405q47 233 182 370.5t353 137.5q132 0 234 -61t150 -171t23 -245h-157q26 147 -49.5 238.5t-211.5 91.5q-151 0 -244 -102.5t-130 -282.5l-82 -402q-37 -184 37 -292.5t213 -108.5q155 0 247.5 99t128.5 272
l25 118h-305l29 140h456l-55 -267q-50 -237 -183.5 -373.5t-349.5 -136.5zM705 1524l32 157h185l-33 -157h-184z" />
    <glyph glyph-name="M.titl" horiz-adv-x="1560" 
d="M68 0l303 1434h209l139 -1219l657 1219h211l-305 -1434h-147l194 920q16 76 34 152t28 114l10 37q-57 -125 -137 -279l-519 -944h-143l-115 913q-6 77 -10 154.5t-5 116.5l-1 39q-22 -133 -59 -305l-195 -918h-149z" />
    <glyph glyph-name="O.titl" horiz-adv-x="1226" 
d="M537 -25q-103 0 -188.5 38.5t-142.5 111.5t-77 179t8 241l86 405q48 234 188 371t369 137q103 0 189.5 -39t144.5 -113t78.5 -181t-8.5 -244l-82 -396q-49 -236 -191.5 -373t-373.5 -137zM287 524q-38 -184 39 -292.5t223 -108.5q161 0 262 102.5t141 286.5l82 387
q20 98 7.5 175t-51 129.5t-95.5 80t-127 27.5q-160 0 -259 -103t-136 -282z" />
    <glyph glyph-name="Oacute.titl" horiz-adv-x="1226" 
d="M537 -25q-103 0 -188.5 38.5t-142.5 111.5t-77 179t8 241l86 405q48 234 188 371t369 137q103 0 189.5 -39t144.5 -113t78.5 -181t-8.5 -244l-82 -396q-49 -236 -191.5 -373t-373.5 -137zM287 524q-38 -184 39 -292.5t223 -108.5q161 0 262 102.5t141 286.5l82 387
q20 98 7.5 175t-51 129.5t-95.5 80t-127 27.5q-160 0 -259 -103t-136 -282zM733 1516l252 253h178l-282 -253h-148z" />
    <glyph glyph-name="Obreve.titl" horiz-adv-x="1226" 
d="M537 -25q-103 0 -188.5 38.5t-142.5 111.5t-77 179t8 241l86 405q48 234 188 371t369 137q103 0 189.5 -39t144.5 -113t78.5 -181t-8.5 -244l-82 -396q-49 -236 -191.5 -373t-373.5 -137zM287 524q-38 -184 39 -292.5t223 -108.5q161 0 262 102.5t141 286.5l82 387
q20 98 7.5 175t-51 129.5t-95.5 80t-127 27.5q-160 0 -259 -103t-136 -282zM571 1774h123q-12 -78 27 -125t113 -47q77 0 133 46.5t69 125.5h123q-23 -126 -111 -198.5t-217 -72.5q-132 0 -205.5 74t-54.5 197z" />
    <glyph glyph-name="Ocircumflex.titl" horiz-adv-x="1226" 
d="M537 -25q-103 0 -188.5 38.5t-142.5 111.5t-77 179t8 241l86 405q48 234 188 371t369 137q103 0 189.5 -39t144.5 -113t78.5 -181t-8.5 -244l-82 -396q-49 -236 -191.5 -373t-373.5 -137zM287 524q-38 -184 39 -292.5t223 -108.5q161 0 262 102.5t141 286.5l82 387
q20 98 7.5 175t-51 129.5t-95.5 80t-127 27.5q-160 0 -259 -103t-136 -282zM467 1516l321 258h154l215 -258h-153l-148 170l-225 -170h-164z" />
    <glyph glyph-name="Odieresis.titl" horiz-adv-x="1226" 
d="M537 -25q-103 0 -188.5 38.5t-142.5 111.5t-77 179t8 241l86 405q48 234 188 371t369 137q103 0 189.5 -39t144.5 -113t78.5 -181t-8.5 -244l-82 -396q-49 -236 -191.5 -373t-373.5 -137zM287 524q-38 -184 39 -292.5t223 -108.5q161 0 262 102.5t141 286.5l82 387
q20 98 7.5 175t-51 129.5t-95.5 80t-127 27.5q-160 0 -259 -103t-136 -282zM520 1524l35 157h166l-33 -157h-168zM940 1524l33 157h168l-35 -157h-166z" />
    <glyph glyph-name="Ograve.titl" horiz-adv-x="1226" 
d="M537 -25q-103 0 -188.5 38.5t-142.5 111.5t-77 179t8 241l86 405q48 234 188 371t369 137q103 0 189.5 -39t144.5 -113t78.5 -181t-8.5 -244l-82 -396q-49 -236 -191.5 -373t-373.5 -137zM287 524q-38 -184 39 -292.5t223 -108.5q161 0 262 102.5t141 286.5l82 387
q20 98 7.5 175t-51 129.5t-95.5 80t-127 27.5q-160 0 -259 -103t-136 -282zM567 1769h170l152 -253h-139z" />
    <glyph glyph-name="Ohungarumlaut.titl" horiz-adv-x="1226" 
d="M537 -25q-103 0 -188.5 38.5t-142.5 111.5t-77 179t8 241l86 405q48 234 188 371t369 137q103 0 189.5 -39t144.5 -113t78.5 -181t-8.5 -244l-82 -396q-49 -236 -191.5 -373t-373.5 -137zM287 524q-38 -184 39 -292.5t223 -108.5q161 0 262 102.5t141 286.5l82 387
q20 98 7.5 175t-51 129.5t-95.5 80t-127 27.5q-160 0 -259 -103t-136 -282zM561 1516l242 260h160l-248 -260h-154zM946 1516l238 260h172l-266 -260h-144z" />
    <glyph glyph-name="Omacron.titl" horiz-adv-x="1226" 
d="M537 -25q-103 0 -188.5 38.5t-142.5 111.5t-77 179t8 241l86 405q48 234 188 371t369 137q103 0 189.5 -39t144.5 -113t78.5 -181t-8.5 -244l-82 -396q-49 -236 -191.5 -373t-373.5 -137zM287 524q-38 -184 39 -292.5t223 -108.5q161 0 262 102.5t141 286.5l82 387
q20 98 7.5 175t-51 129.5t-95.5 80t-127 27.5q-160 0 -259 -103t-136 -282zM496 1556l24 115h651l-24 -115h-651z" />
    <glyph glyph-name="uni01EA.titl" horiz-adv-x="1226" 
d="M549 123q161 0 262 102.5t141 286.5l82 387q20 98 7.5 175t-51 129.5t-95.5 80t-127 27.5q-160 0 -259 -103t-136 -282l-86 -402q-38 -184 39 -292.5t223 -108.5zM137 545l86 405q48 234 188 371t369 137q103 0 189.5 -39t144.5 -113t78.5 -181t-8.5 -244l-82 -396
q-41 -197 -148.5 -326.5t-277.5 -168.5q-80 -59 -119.5 -106t-38.5 -101q0 -72 94 -72h50l-48 -114h-49q-83 0 -126.5 39t-43.5 108q0 127 129 231q-101 2 -184 41.5t-138 113t-73.5 178t8.5 237.5z" />
    <glyph glyph-name="Oslash.titl" horiz-adv-x="1230" 
d="M541 -25q-166 0 -281 95l-135 -176l-121 77l164 217q-74 150 -29 359l86 403q50 234 189 371t368 137q167 0 281 -94l121 158l123 -76l-152 -195q82 -152 35 -370l-84 -396q-50 -235 -192.5 -372.5t-372.5 -137.5zM283 336l684 903q-79 76 -195 76q-162 0 -262 -103
t-137 -284l-86 -406q-20 -101 -4 -186zM354 197q75 -78 197 -78q163 0 265.5 102.5t141.5 288.5l82 391q24 114 2 203z" />
    <glyph glyph-name="Oslashacute.titl" horiz-adv-x="1232" 
d="M541 -25q-166 0 -281 95l-135 -176l-121 77l164 217q-74 150 -29 359l86 403q50 234 189 371t368 137q167 0 281 -94l121 158l123 -76l-152 -195q82 -152 35 -370l-84 -396q-50 -235 -192.5 -372.5t-372.5 -137.5zM283 336l684 903q-79 76 -195 76q-162 0 -262 -103
t-137 -284l-86 -406q-20 -101 -4 -186zM354 197q75 -78 197 -78q163 0 265.5 102.5t141.5 288.5l82 391q24 114 2 203zM752 1516l252 253h178l-283 -253h-147z" />
    <glyph glyph-name="Otilde.titl" horiz-adv-x="1226" 
d="M537 -25q-103 0 -188.5 38.5t-142.5 111.5t-77 179t8 241l86 405q48 234 188 371t369 137q103 0 189.5 -39t144.5 -113t78.5 -181t-8.5 -244l-82 -396q-49 -236 -191.5 -373t-373.5 -137zM287 524q-38 -184 39 -292.5t223 -108.5q161 0 262 102.5t141 286.5l82 387
q20 98 7.5 175t-51 129.5t-95.5 80t-127 27.5q-160 0 -259 -103t-136 -282zM461 1518q28 123 91 183t144 60q42 0 87.5 -21.5t77 -47t66.5 -47t60 -21.5q82 0 117 129h113q-27 -121 -90.5 -181.5t-145.5 -60.5q-43 0 -87 21.5t-74.5 47.5t-65.5 47.5t-62 21.5q-38 0 -69 -33
t-48 -98h-114z" />
    <glyph glyph-name="OE.titl" horiz-adv-x="1583" 
d="M762 1286q-160 0 -258.5 -102t-136.5 -283l-74 -354q-27 -123 2 -215.5t97 -138.5t161 -46h180l242 1139h-213zM141 567l76 359q23 112 68.5 203t113.5 160t163.5 107t211.5 38h918l-29 -146h-530l-99 -452h463l-31 -142h-460l-117 -549h530l-30 -145h-848
q-103 0 -189 38.5t-143 111.5t-77 178.5t9 238.5z" />
    <glyph glyph-name="Q.titl" horiz-adv-x="1226" 
d="M528 0q-98 0 -180.5 38t-138 111t-75 178.5t8.5 239.5l80 383q48 234 188 371t369 137q103 0 189 -39t144 -113t78.5 -181t-7.5 -244l-74 -359q-50 -241 -199 -375h252l-30 -147h-605zM293 547q-38 -186 37.5 -293t216.5 -107q167 0 269 102.5t142 287.5l76 362
q20 98 7.5 175t-51 129.5t-95.5 80t-127 27.5q-160 0 -260 -103t-135 -282z" />
    <glyph glyph-name="r.calt" horiz-adv-x="645" 
d="M408 995l-27 -127q112 127 274 127h50l-29 -129h-45q-117 0 -198.5 -71t-110.5 -201l-125 -594h-150l213 995h148z" />
    <glyph glyph-name="racute.calt" horiz-adv-x="645" 
d="M408 995l-27 -127q112 127 274 127h50l-29 -129h-45q-117 0 -198.5 -71t-110.5 -201l-125 -594h-150l213 995h148zM414 1102l262 289h174l-289 -289h-147z" />
    <glyph glyph-name="rcaron.calt" horiz-adv-x="645" 
d="M408 995l-27 -127q112 127 274 127h50l-29 -129h-45q-117 0 -198.5 -71t-110.5 -201l-125 -594h-150l213 995h148zM252 1391h131l125 -193l207 193h149l-289 -289h-159z" />
    <glyph glyph-name="uni0157.calt" horiz-adv-x="645" 
d="M408 995l-27 -127q112 127 274 127h50l-29 -129h-45q-117 0 -198.5 -71t-110.5 -201l-125 -594h-150l213 995h148zM-197 -350l224 274h159l-243 -274h-140z" />
    <glyph glyph-name="germandbls.calt" horiz-adv-x="1232" 
d="M752 1434h557l-27 -121l-459 -500q147 -9 234.5 -99t87.5 -227q0 -94 -39 -183t-105.5 -156t-162.5 -107.5t-203 -40.5h-281l31 147h262q136 0 239 101.5t103 232.5q0 93 -61.5 152t-165.5 59h-148l25 109l444 489h-354q-253 0 -313 -289l-213 -1001h-156l215 1014
q45 213 162.5 316.5t327.5 103.5z" />
    <glyph glyph-name="iacute_j.loclNLD" horiz-adv-x="892" 
d="M260 995h150l-211 -995h-152zM215 -385l29 133h78q52 0 88 32t49 91l239 1124h148l-242 -1142q-28 -131 -100.5 -184.5t-194.5 -53.5h-94zM274 1102l263 289h174l-289 -289h-148zM711 1102l262 289h174l-289 -289h-147z" />
    <glyph glyph-name="a.ss01" horiz-adv-x="1286" 
d="M532 -25q-197 0 -324.5 127.5t-127.5 329.5q0 161 77 296.5t208 213.5t284 78q138 0 245 -65t153 -173l45 213h149l-213 -995h-147l30 152q-62 -80 -166 -128.5t-213 -48.5zM229 449q0 -143 95 -236.5t241 -93.5q179 0 301.5 124.5t122.5 305.5q0 147 -94 238.5
t-244 91.5q-114 0 -211.5 -59t-154 -158t-56.5 -213z" />
    <glyph glyph-name="aacute.ss01" horiz-adv-x="1286" 
d="M532 -25q-197 0 -324.5 127.5t-127.5 329.5q0 161 77 296.5t208 213.5t284 78q138 0 245 -65t153 -173l45 213h149l-213 -995h-147l30 152q-62 -80 -166 -128.5t-213 -48.5zM229 449q0 -143 95 -236.5t241 -93.5q179 0 301.5 124.5t122.5 305.5q0 147 -94 238.5
t-244 91.5q-114 0 -211.5 -59t-154 -158t-56.5 -213zM684 1102l262 289h174l-289 -289h-147z" />
    <glyph glyph-name="abreve.ss01" horiz-adv-x="1286" 
d="M532 -25q-197 0 -324.5 127.5t-127.5 329.5q0 161 77 296.5t208 213.5t284 78q138 0 245 -65t153 -173l45 213h149l-213 -995h-147l30 152q-62 -80 -166 -128.5t-213 -48.5zM229 449q0 -143 95 -236.5t241 -93.5q179 0 301.5 124.5t122.5 305.5q0 147 -94 238.5
t-244 91.5q-114 0 -211.5 -59t-154 -158t-56.5 -213zM543 1382h116q-17 -89 18.5 -139.5t110.5 -50.5t134 53t79 137h117q-29 -136 -119 -214t-213 -78q-130 0 -200.5 83t-42.5 209z" />
    <glyph glyph-name="acircumflex.ss01" horiz-adv-x="1286" 
d="M532 -25q-197 0 -324.5 127.5t-127.5 329.5q0 161 77 296.5t208 213.5t284 78q138 0 245 -65t153 -173l45 213h149l-213 -995h-147l30 152q-62 -80 -166 -128.5t-213 -48.5zM229 449q0 -143 95 -236.5t241 -93.5q179 0 301.5 124.5t122.5 305.5q0 147 -94 238.5
t-244 91.5q-114 0 -211.5 -59t-154 -158t-56.5 -213zM461 1102l289 289h159l164 -289h-129l-125 194l-209 -194h-149z" />
    <glyph glyph-name="adieresis.ss01" horiz-adv-x="1286" 
d="M532 -25q-197 0 -324.5 127.5t-127.5 329.5q0 161 77 296.5t208 213.5t284 78q138 0 245 -65t153 -173l45 213h149l-213 -995h-147l30 152q-62 -80 -166 -128.5t-213 -48.5zM229 449q0 -143 95 -236.5t241 -93.5q179 0 301.5 124.5t122.5 305.5q0 147 -94 238.5
t-244 91.5q-114 0 -211.5 -59t-154 -158t-56.5 -213zM512 1149l35 160h172l-37 -160h-170zM874 1149l35 160h170l-35 -160h-170z" />
    <glyph glyph-name="uni1EA1.ss01" horiz-adv-x="1286" 
d="M532 -25q-197 0 -324.5 127.5t-127.5 329.5q0 161 77 296.5t208 213.5t284 78q138 0 245 -65t153 -173l45 213h149l-213 -995h-147l30 152q-62 -80 -166 -128.5t-213 -48.5zM229 449q0 -143 95 -236.5t241 -93.5q179 0 301.5 124.5t122.5 305.5q0 147 -94 238.5
t-244 91.5q-114 0 -211.5 -59t-154 -158t-56.5 -213zM362 -422l46 217h167l-45 -217h-168z" />
    <glyph glyph-name="agrave.ss01" horiz-adv-x="1286" 
d="M532 -25q-197 0 -324.5 127.5t-127.5 329.5q0 161 77 296.5t208 213.5t284 78q138 0 245 -65t153 -173l45 213h149l-213 -995h-147l30 152q-62 -80 -166 -128.5t-213 -48.5zM229 449q0 -143 95 -236.5t241 -93.5q179 0 301.5 124.5t122.5 305.5q0 147 -94 238.5
t-244 91.5q-114 0 -211.5 -59t-154 -158t-56.5 -213zM535 1391h161l131 -289h-131z" />
    <glyph glyph-name="amacron.ss01" horiz-adv-x="1286" 
d="M532 -25q-197 0 -324.5 127.5t-127.5 329.5q0 161 77 296.5t208 213.5t284 78q138 0 245 -65t153 -173l45 213h149l-213 -995h-147l30 152q-62 -80 -166 -128.5t-213 -48.5zM229 449q0 -143 95 -236.5t241 -93.5q179 0 301.5 124.5t122.5 305.5q0 147 -94 238.5
t-244 91.5q-114 0 -211.5 -59t-154 -158t-56.5 -213zM461 1139l26 121h629l-26 -121h-629z" />
    <glyph glyph-name="aogonek.ss01" horiz-adv-x="1286" 
d="M532 -25q-197 0 -324.5 127.5t-127.5 329.5q0 161 77 296.5t208 213.5t284 78q138 0 245 -65t153 -173l45 213h149l-213 -995q-88 -63 -130.5 -112t-41.5 -105q0 -72 94 -72h49l-47 -114h-49q-83 0 -126.5 39t-43.5 108q0 76 41 136t119 120h-12l30 152
q-62 -80 -166 -128.5t-213 -48.5zM229 449q0 -143 95 -236.5t241 -93.5q179 0 301.5 124.5t122.5 305.5q0 147 -94 238.5t-244 91.5q-114 0 -211.5 -59t-154 -158t-56.5 -213z" />
    <glyph glyph-name="aring.ss01" horiz-adv-x="1286" 
d="M532 -25q-197 0 -324.5 127.5t-127.5 329.5q0 161 77 296.5t208 213.5t284 78q138 0 245 -65t153 -173l45 213h149l-213 -995h-147l30 152q-62 -80 -166 -128.5t-213 -48.5zM229 449q0 -143 95 -236.5t241 -93.5q179 0 301.5 124.5t122.5 305.5q0 147 -94 238.5
t-244 91.5q-114 0 -211.5 -59t-154 -158t-56.5 -213zM516 1296q0 104 80 175t195 71q104 0 171.5 -58t67.5 -147q0 -104 -79.5 -174.5t-192.5 -70.5q-105 0 -173.5 57.5t-68.5 146.5zM623 1303q0 -54 38 -88.5t99 -34.5q68 0 117 43.5t49 107.5q0 53 -39.5 87t-100.5 34
q-69 0 -116 -42.5t-47 -106.5z" />
    <glyph glyph-name="aringacute.ss01" horiz-adv-x="1286" 
d="M532 -25q-197 0 -324.5 127.5t-127.5 329.5q0 161 77 296.5t208 213.5t284 78q138 0 245 -65t153 -173l45 213h149l-213 -995h-147l30 152q-62 -80 -166 -128.5t-213 -48.5zM229 449q0 -143 95 -236.5t241 -93.5q179 0 301.5 124.5t122.5 305.5q0 147 -94 238.5
t-244 91.5q-114 0 -211.5 -59t-154 -158t-56.5 -213zM553 1296q0 104 79.5 175t192.5 71l191 209h174l-236 -235q53 -26 83 -73.5t30 -105.5q0 -104 -79.5 -174.5t-192.5 -70.5q-105 0 -173.5 57.5t-68.5 146.5zM659 1303q0 -54 38.5 -88.5t99.5 -34.5q68 0 117 43.5
t49 107.5q0 53 -39.5 87t-100.5 34q-69 0 -116.5 -42.5t-47.5 -106.5z" />
    <glyph glyph-name="atilde.ss01" horiz-adv-x="1286" 
d="M532 -25q-197 0 -324.5 127.5t-127.5 329.5q0 161 77 296.5t208 213.5t284 78q138 0 245 -65t153 -173l45 213h149l-213 -995h-147l30 152q-62 -80 -166 -128.5t-213 -48.5zM229 449q0 -143 95 -236.5t241 -93.5q179 0 301.5 124.5t122.5 305.5q0 147 -94 238.5
t-244 91.5q-114 0 -211.5 -59t-154 -158t-56.5 -213zM438 1122q25 142 87 209.5t145 67.5q38 0 70 -17.5t54 -42.5t42.5 -50t46 -42.5t53.5 -17.5q82 0 119 164h106q-25 -139 -87.5 -209t-139.5 -70q-42 0 -76 17.5t-56 42t-41 49t-41.5 42t-47.5 17.5q-94 0 -127 -160h-107
z" />
    <glyph glyph-name="s.ss02" horiz-adv-x="919" 
d="M328 0q-148 0 -230 79.5t-59 199.5l6 28h143l-4 -24q-17 -77 32 -122.5t140 -45.5h80q78 0 137.5 38.5t75.5 112.5q15 70 -14 115.5t-94 60.5l-213 50q-104 24 -149 95t-21 183q24 114 113.5 169.5t222.5 55.5h96q138 0 212.5 -67.5t55.5 -173.5l-4 -25h-141l4 23
q10 62 -33.5 98.5t-114.5 36.5h-71q-177 0 -203 -127q-26 -125 104 -154l219 -49q107 -23 153 -104t20 -203q-26 -116 -121 -183t-230 -67h-112z" />
    <glyph glyph-name="sacute.ss02" horiz-adv-x="919" 
d="M328 0q-148 0 -230 79.5t-59 199.5l6 28h143l-4 -24q-17 -77 32 -122.5t140 -45.5h80q78 0 137.5 38.5t75.5 112.5q15 70 -14 115.5t-94 60.5l-213 50q-104 24 -149 95t-21 183q24 114 113.5 169.5t222.5 55.5h96q138 0 212.5 -67.5t55.5 -173.5l-4 -25h-141l4 23
q10 62 -33.5 98.5t-114.5 36.5h-71q-177 0 -203 -127q-26 -125 104 -154l219 -49q107 -23 153 -104t20 -203q-26 -116 -121 -183t-230 -67h-112zM506 1102l262 289h174l-289 -289h-147z" />
    <glyph glyph-name="scaron.ss02" horiz-adv-x="919" 
d="M328 0q-148 0 -230 79.5t-59 199.5l6 28h143l-4 -24q-17 -77 32 -122.5t140 -45.5h80q78 0 137.5 38.5t75.5 112.5q15 70 -14 115.5t-94 60.5l-213 50q-104 24 -149 95t-21 183q24 114 113.5 169.5t222.5 55.5h96q138 0 212.5 -67.5t55.5 -173.5l-4 -25h-141l4 23
q10 62 -33.5 98.5t-114.5 36.5h-71q-177 0 -203 -127q-26 -125 104 -154l219 -49q107 -23 153 -104t20 -203q-26 -116 -121 -183t-230 -67h-112zM344 1391h131l125 -193l207 193h149l-288 -289h-160z" />
    <glyph glyph-name="scedilla.ss02" horiz-adv-x="919" 
d="M328 0q-148 0 -230 79.5t-59 199.5l6 28h143l-4 -24q-17 -77 32 -122.5t140 -45.5h80q78 0 137.5 38.5t75.5 112.5q15 70 -14 115.5t-94 60.5l-213 50q-104 24 -149 95t-21 183q24 114 113.5 169.5t222.5 55.5h96q138 0 212.5 -67.5t55.5 -173.5l-4 -25h-141l4 23
q10 62 -33.5 98.5t-114.5 36.5h-71q-177 0 -203 -127q-26 -125 104 -154l219 -49q107 -23 153 -104t20 -203q-26 -115 -118.5 -181.5t-223.5 -68.5l-89 -145h31q61 0 99 -39.5t38 -104.5q0 -89 -60.5 -148t-154.5 -59h-133l19 84h116q50 0 85.5 33t35.5 80q0 34 -22.5 54
t-59.5 20h-108l14 69l92 156h-24z" />
    <glyph glyph-name="scircumflex.ss02" horiz-adv-x="919" 
d="M328 0q-148 0 -230 79.5t-59 199.5l6 28h143l-4 -24q-17 -77 32 -122.5t140 -45.5h80q78 0 137.5 38.5t75.5 112.5q15 70 -14 115.5t-94 60.5l-213 50q-104 24 -149 95t-21 183q24 114 113.5 169.5t222.5 55.5h96q138 0 212.5 -67.5t55.5 -173.5l-4 -25h-141l4 23
q10 62 -33.5 98.5t-114.5 36.5h-71q-177 0 -203 -127q-26 -125 104 -154l219 -49q107 -23 153 -104t20 -203q-26 -116 -121 -183t-230 -67h-112zM283 1102l288 289h160l164 -289h-129l-125 194l-209 -194h-149z" />
    <glyph glyph-name="uni0219.ss02" horiz-adv-x="919" 
d="M328 0q-148 0 -230 79.5t-59 199.5l6 28h143l-4 -24q-17 -77 32 -122.5t140 -45.5h80q78 0 137.5 38.5t75.5 112.5q15 70 -14 115.5t-94 60.5l-213 50q-104 24 -149 95t-21 183q24 114 113.5 169.5t222.5 55.5h96q138 0 212.5 -67.5t55.5 -173.5l-4 -25h-141l4 23
q10 62 -33.5 98.5t-114.5 36.5h-71q-177 0 -203 -127q-26 -125 104 -154l219 -49q107 -23 153 -104t20 -203q-26 -116 -121 -183t-230 -67h-112zM76 -350l223 274h160l-244 -274h-139z" />
    <glyph glyph-name="t.ss03" horiz-adv-x="696" 
d="M90 866l27 129h94q58 0 91 27t46 86l33 160h139l-57 -273h293l-27 -129h-293l-119 -553q-20 -95 13 -138.5t125 -43.5h116l-26 -131h-129q-151 0 -215.5 78t-32.5 227l121 561h-199z" />
    <glyph glyph-name="tbar.ss03" horiz-adv-x="724" 
d="M119 879l24 116h95q58 0 90.5 27t44.5 86l35 160h139l-58 -273h293l-24 -116h-293l-70 -326h293l-20 -100h-293l-33 -152q-20 -96 14.5 -140t124.5 -44h115l-25 -117h-131q-150 0 -213.5 77.5t-31.5 227.5l30 148h-196l20 100h199l69 326h-198z" />
    <glyph glyph-name="tcaron.ss03" horiz-adv-x="696" 
d="M90 866l27 129h94q58 0 91 27t46 86l33 160h139l-57 -273h293l-27 -129h-293l-119 -553q-20 -95 13 -138.5t125 -43.5h116l-26 -131h-129q-151 0 -215.5 78t-32.5 227l121 561h-199zM670 1096l127 401h151l-155 -401h-123z" />
    <glyph glyph-name="uni0163.ss03" horiz-adv-x="696" 
d="M90 866l27 129h94q58 0 91 27t46 86l33 160h139l-57 -273h293l-27 -129h-293l-119 -553q-20 -95 13 -138.5t125 -43.5h116l-26 -131h-121l-88 -145h31q61 0 99 -39.5t38 -104.5q0 -89 -60.5 -148t-154.5 -59h-133l18 84h117q50 0 85.5 33t35.5 80q0 34 -22.5 54t-59.5 20
h-109l15 69l98 162q-108 22 -151 98t-15 201l121 561h-199z" />
    <glyph glyph-name="uni021B.ss03" horiz-adv-x="696" 
d="M90 866l27 129h94q58 0 91 27t46 86l33 160h139l-57 -273h293l-27 -129h-293l-119 -553q-20 -95 13 -138.5t125 -43.5h116l-26 -131h-129q-151 0 -215.5 78t-32.5 227l121 561h-199zM51 -350l223 274h160l-244 -274h-139z" />
    <glyph glyph-name="ae.ss04" horiz-adv-x="2088" 
d="M516 -16q-193 0 -314.5 123.5t-121.5 316.5q0 113 41.5 220.5t114 191t180 134t231.5 50.5q144 0 249.5 -73t139.5 -195l51 243h148l-55 -231q42 82 116 141t157 87t167 28q181 0 295.5 -107.5t114.5 -271.5q0 -77 -21 -152h-838q-7 -60 -5 -116.5t23 -106t55.5 -86.5
t92 -58.5t131.5 -21.5q111 0 206.5 56t137.5 153h150q-61 -160 -197 -247t-305 -87q-145 0 -245.5 66.5t-135.5 175.5l-43 -217h-145l45 209q-74 -110 -183.5 -167.5t-236.5 -57.5zM225 444q0 -143 92 -236t240 -93q120 0 220 59.5t156 160.5t56 220q0 146 -92.5 237
t-243.5 91q-177 0 -302.5 -131.5t-125.5 -307.5zM1196 592h686q19 131 -60.5 219t-219.5 88q-132 0 -246 -83.5t-160 -223.5z" />
    <glyph glyph-name="aeacute.ss04" horiz-adv-x="2088" 
d="M516 -16q-193 0 -314.5 123.5t-121.5 316.5q0 113 41.5 220.5t114 191t180 134t231.5 50.5q144 0 249.5 -73t139.5 -195l51 243h148l-55 -231q42 82 116 141t157 87t167 28q181 0 295.5 -107.5t114.5 -271.5q0 -77 -21 -152h-838q-7 -60 -5 -116.5t23 -106t55.5 -86.5
t92 -58.5t131.5 -21.5q111 0 206.5 56t137.5 153h150q-61 -160 -197 -247t-305 -87q-145 0 -245.5 66.5t-135.5 175.5l-43 -217h-145l45 209q-74 -110 -183.5 -167.5t-236.5 -57.5zM225 444q0 -143 92 -236t240 -93q120 0 220 59.5t156 160.5t56 220q0 146 -92.5 237
t-243.5 91q-177 0 -302.5 -131.5t-125.5 -307.5zM1092 1102l262 289h174l-289 -289h-147zM1196 592h686q19 131 -60.5 219t-219.5 88q-132 0 -246 -83.5t-160 -223.5z" />
    <glyph glyph-name="f_f.dlig" horiz-adv-x="1206" 
d="M121 0l184 866h-205l27 129h205l30 140q31 152 121.5 225.5t245.5 73.5h90l-26 -123h-68q-90 0 -142.5 -44t-72.5 -137l-29 -135h414l29 140q31 152 121.5 225.5t246.5 73.5h97l-27 -123h-74q-90 0 -142.5 -44t-72.5 -137l-31 -135h252l-26 -129h-252l-185 -866h-149
l186 866h-413l-185 -866h-149z" />
    <glyph glyph-name="f_f_i.dlig" horiz-adv-x="1650" 
d="M121 0l184 866h-205l27 129h205l30 140q31 152 121.5 225.5t245.5 73.5h90l-26 -123h-68q-90 0 -142.5 -44t-72.5 -137l-29 -135h414l29 140q31 152 121.5 225.5t246.5 73.5h291l-27 -123h-268q-90 0 -142.5 -44t-72.5 -137l-31 -135h564l-211 -995h-150l185 866h-414
l-185 -866h-149l186 866h-413l-185 -866h-149z" />
    <glyph glyph-name="f_f_l.dlig" horiz-adv-x="1650" 
d="M121 0l184 866h-205l27 129h205l30 140q31 152 121.5 225.5t245.5 73.5h90l-26 -123h-68q-90 0 -142.5 -44t-72.5 -137l-29 -135h414l29 140q31 152 121.5 225.5t246.5 73.5h82l-24 -123h-62q-90 0 -142.5 -44t-72.5 -137l-31 -135h414l92 439h150l-303 -1434h-150
l182 866h-411l-185 -866h-149l186 866h-413l-185 -866h-149z" />
    <glyph glyph-name="f_f_t.dlig" horiz-adv-x="1845" 
d="M121 0l184 866h-205l27 129h205l33 154q30 143 119 214t247 71h94l-26 -123h-74q-89 0 -142 -44.5t-73 -136.5l-29 -135h420l33 154q30 143 119 214t247 71h82l-26 -123h-62q-178 0 -215 -181l-28 -135h411l60 273h147l-57 -273h293l-27 -129h-293l-121 -565
q-19 -82 17.5 -126t124.5 -44h114l-26 -131h-127q-316 0 -250 305l119 561h-412l-186 -866h-148l184 866h-419l-185 -866h-149z" />
    <glyph glyph-name="f_i.dlig" horiz-adv-x="1089" 
d="M121 0l184 866h-205l27 129h205l30 140q31 152 121.5 225.5t245.5 73.5h291l-25 -123h-270q-90 0 -142.5 -44t-72.5 -137l-29 -135h561l-211 -995h-149l184 866h-411l-185 -866h-149z" />
    <glyph glyph-name="f_l.dlig" horiz-adv-x="1089" 
d="M121 0l184 866h-205l27 129h205l30 140q31 152 121.5 225.5t245.5 73.5h84l-27 -123h-61q-90 0 -142.5 -44t-72.5 -137l-29 -135h412l94 439h150l-306 -1434h-149l184 866h-411l-185 -866h-149z" />
    <glyph glyph-name="f_t.dlig" horiz-adv-x="1275" 
d="M121 0l184 866h-205l27 129h205l33 154q30 143 119 214t247 71h82l-25 -123h-63q-89 0 -142 -44.5t-73 -136.5l-29 -135h414l57 273h148l-58 -273h293l-26 -129h-293l-121 -565q-17 -83 19 -126.5t124 -43.5h113l-27 -131h-127q-315 0 -249 305l120 561h-413l-185 -866
h-149z" />
    <glyph glyph-name="zero.zero" horiz-adv-x="1245" 
d="M555 -20q-112 0 -201.5 40.5t-145 115t-74.5 179.5t9 234l78 364q113 541 565 541q232 0 347.5 -160.5t58.5 -431.5l-76 -364q-53 -254 -193.5 -386t-367.5 -132zM283 418l751 721q-31 80 -97.5 124t-158.5 44q-165 0 -263 -105t-142 -313l-78 -367q-12 -56 -12 -104z
M303 293q31 -78 99 -122t161 -44q165 0 263.5 103.5t140.5 306.5l75 358q13 67 13 117z" />
    <glyph glyph-name="two.ss02" horiz-adv-x="1112" 
d="M-6 0l26 129l654 559q144 122 206 195t81 166q24 108 -31 175.5t-158 67.5h-88q-110 0 -193.5 -68t-107.5 -186l-23 -112h-151l31 149q34 160 153.5 259.5t276.5 99.5h141q174 0 259.5 -107t47.5 -287q-14 -67 -42 -124t-77 -113.5t-96 -100.5t-129 -112l-512 -440h688
l-32 -150h-924z" />
    <glyph glyph-name="zero.tf" horiz-adv-x="1310" 
d="M588 -20q-112 0 -201.5 40.5t-145 115t-74.5 179.5t9 234l78 364q113 541 565 541q232 0 347.5 -160.5t58.5 -431.5l-76 -364q-53 -254 -193.5 -386t-367.5 -132zM328 522q-38 -177 38.5 -286t229.5 -109q165 0 263 103.5t140 306.5l76 358q39 187 -36.5 299.5
t-227.5 112.5q-165 0 -263 -105t-142 -313z" />
    <glyph glyph-name="one.tf" horiz-adv-x="1310" 
d="M135 0l29 141h391l195 918h-351l31 141h234q70 0 103.5 28t47.5 95l23 111h149l-274 -1293h358l-29 -141h-907z" />
    <glyph glyph-name="two.tf" horiz-adv-x="1310" 
d="M92 0l27 129l651 551q63 53 96 82t77.5 75t66 81.5t37.5 82.5t16 97q0 99 -68.5 156t-185.5 57q-124 0 -218.5 -92.5t-119.5 -239.5h-154q36 226 176 352.5t338 126.5q179 0 285.5 -93.5t106.5 -248.5q0 -67 -20.5 -130.5t-51 -113t-82.5 -105t-97 -94t-112 -91.5
l-508 -432h695l-31 -150h-924z" />
    <glyph glyph-name="three.tf" horiz-adv-x="1310" 
d="M567 -25q-139 0 -243 57.5t-150.5 160.5t-19.5 229h155q-28 -132 48.5 -217.5t217.5 -85.5q84 0 154.5 29.5t116 78t71 108.5t25.5 122q0 98 -76 152.5t-213 54.5h-51l29 135h51q157 0 270 87.5t113 223.5q0 97 -68 151t-188 54q-119 0 -217.5 -76t-126.5 -205h-152
q41 202 183 313t331 111q184 0 290 -87.5t106 -235.5q0 -141 -90.5 -249t-241.5 -153q100 -28 153.5 -95.5t53.5 -168.5q0 -211 -150.5 -352.5t-380.5 -141.5z" />
    <glyph glyph-name="four.tf" horiz-adv-x="1310" 
d="M127 336l31 137l661 961h174l-661 -961h477l78 375h153l-79 -375h219l-31 -137h-219l-70 -336h-158l72 336h-647z" />
    <glyph glyph-name="five.tf" horiz-adv-x="1310" 
d="M580 -25q-138 0 -242.5 57.5t-152.5 160t-23 227.5h157q-23 -135 53 -215t218 -80q155 0 269 123t114 284q0 121 -73 186.5t-200 65.5q-169 0 -288 -122h-142l234 772h739l-29 -148h-602l-151 -479q121 100 278 100q182 0 286.5 -92t104.5 -268q0 -155 -71 -286
t-198 -208.5t-281 -77.5z" />
    <glyph glyph-name="six.tf" horiz-adv-x="1310" 
d="M614 -25q-192 0 -319 122.5t-127 303.5q0 111 55 230.5t150 230.5l483 572h201l-471 -547q74 35 157 35q180 0 298 -116t118 -296q0 -143 -75 -267t-201 -196t-269 -72zM326 408q0 -121 81.5 -205t208.5 -84q156 0 270.5 113t114.5 272q0 129 -81 210t-213 81
q-102 0 -190.5 -54.5t-139.5 -144t-51 -188.5z" />
    <glyph glyph-name="seven.tf" horiz-adv-x="1310" 
d="M223 0l875 1286h-750l31 148h926l-29 -134l-879 -1300h-174z" />
    <glyph glyph-name="eight.tf" horiz-adv-x="1310" 
d="M580 -25q-191 0 -308.5 96.5t-117.5 254.5q0 150 102 272t250 156q-83 32 -130.5 97t-47.5 159q0 123 68 226.5t180.5 162.5t242.5 59q181 0 291.5 -85.5t110.5 -231.5q0 -78 -29.5 -151.5t-102 -139.5t-178.5 -96q94 -30 149.5 -105t55.5 -182q0 -134 -71 -247
t-194.5 -179t-270.5 -66zM311 340q0 -101 74 -165t197 -64q156 0 267.5 103t111.5 245q0 102 -71 160.5t-192 58.5q-158 0 -272.5 -100.5t-114.5 -237.5zM473 1016q0 -92 66.5 -147.5t179.5 -55.5q153 0 252.5 89t99.5 220q0 94 -70 150.5t-184 56.5q-141 0 -242.5 -94
t-101.5 -219z" />
    <glyph glyph-name="nine.tf" horiz-adv-x="1310" 
d="M791 1458q192 0 319 -122.5t127 -303.5q0 -111 -55 -230.5t-150 -230.5l-483 -571h-201l471 547q-74 -35 -157 -35q-180 0 -298 116t-118 296q0 108 44.5 207t118.5 170.5t174.5 114t207.5 42.5zM403 930q0 -128 81.5 -209.5t213.5 -81.5q102 0 190.5 54.5t139.5 144
t51 188.5q0 121 -82 205t-209 84q-156 0 -270.5 -113t-114.5 -272z" />
    <glyph glyph-name="zero.tf.zero" horiz-adv-x="1310" 
d="M588 -20q-112 0 -201.5 40.5t-145 115t-74.5 179.5t9 234l78 364q113 541 565 541q232 0 347.5 -160.5t58.5 -431.5l-76 -364q-53 -254 -193.5 -386t-367.5 -132zM315 418l752 721q-31 80 -97.5 124t-158.5 44q-165 0 -263 -105t-142 -313l-78 -367q-13 -60 -13 -104z
M336 293q31 -78 99 -122t161 -44q165 0 263 103.5t140 306.5l76 358q12 61 12 117z" />
    <glyph glyph-name="zero.dnom" horiz-adv-x="765" 
d="M299 -14q-140 0 -212 93.5t-38 248.5l49 223q68 323 344 323q140 0 209.5 -96t36.5 -260l-47 -223q-67 -309 -342 -309zM154 315q-23 -107 20.5 -168t132.5 -61q96 0 151 59.5t81 178.5l45 213q23 108 -20.5 173.5t-131.5 65.5q-94 0 -150 -62t-83 -186z" />
    <glyph glyph-name="one.dnom" horiz-adv-x="397" 
d="M362 858l-182 -858h-106l133 623h-135l20 96h60q36 0 63 22t35 58l12 59h100z" />
    <glyph glyph-name="two.dnom" horiz-adv-x="681" 
d="M-43 0l18 88l381 322q48 39 71.5 60.5t52.5 53.5t40.5 63t11.5 66q0 57 -39.5 89t-105.5 32q-72 0 -123.5 -51t-68.5 -139h-105q27 143 108 216.5t203 73.5q108 0 174 -56.5t66 -149.5q0 -42 -13.5 -81.5t-29.5 -67.5t-51 -64t-56.5 -55t-66.5 -56l-283 -244h398
l-23 -100h-559z" />
    <glyph glyph-name="three.dnom" horiz-adv-x="704" 
d="M262 -14q-130 0 -205.5 78t-50.5 192h107q-15 -74 29 -123t122 -49q92 0 150.5 56t58.5 132q0 57 -42 89t-118 32h-37l19 92h37q89 0 150 50t61 127q0 55 -37 84.5t-105 29.5t-123.5 -41.5t-72.5 -116.5h-105q25 121 114.5 188.5t203.5 67.5q110 0 171.5 -51t61.5 -141
q0 -84 -53.5 -150.5t-138.5 -91.5q121 -35 121 -159q0 -120 -87 -207.5t-231 -87.5z" />
    <glyph glyph-name="four.dnom" horiz-adv-x="696" 
d="M-14 199l20 94l387 567h121l-385 -567h264l47 217h103l-45 -217h129l-23 -94h-127l-43 -199h-106l43 199h-385z" />
    <glyph glyph-name="five.dnom" horiz-adv-x="694" 
d="M256 -14q-124 0 -198 75t-50 193h105q-13 -77 29 -121.5t122 -44.5q86 0 154.5 70t68.5 168q0 66 -39 101.5t-108 35.5q-46 0 -92 -19t-80 -51l-96 6l137 461h455l-21 -100h-358l-86 -273q31 27 78 43.5t88 16.5q108 0 169.5 -55t61.5 -154q0 -146 -98 -249t-242 -103z
" />
    <glyph glyph-name="six.dnom" horiz-adv-x="700" 
d="M272 -14q-115 0 -187.5 70t-72.5 175q0 60 28 124t57.5 103t84.5 103l254 299h135l-272 -313q33 10 68 10q108 0 176.5 -67.5t68.5 -172.5q0 -133 -101.5 -232t-238.5 -99zM119 244q0 -67 46.5 -113.5t117.5 -46.5q89 0 157 65.5t68 159.5q0 71 -45.5 115.5t-120.5 44.5
q-88 0 -155.5 -67.5t-67.5 -157.5z" />
    <glyph glyph-name="seven.dnom" horiz-adv-x="616" 
d="M2 0l510 760h-434l20 100h559l-18 -90l-514 -770h-123z" />
    <glyph glyph-name="eight.dnom" horiz-adv-x="716" 
d="M272 -14q-118 0 -190 58t-72 153q0 86 59 158.5t150 97.5q-102 45 -102 149q0 114 88 193t213 79q109 0 176.5 -52t67.5 -140q0 -77 -48 -138.5t-135 -90.5q53 -19 84 -63.5t31 -108.5q0 -124 -92.5 -209.5t-229.5 -85.5zM119 207q0 -58 41.5 -94.5t111.5 -36.5
q86 0 150.5 58.5t64.5 137.5q0 59 -41 93t-108 34q-88 0 -153.5 -56.5t-65.5 -135.5zM217 612q-3 -53 35.5 -86.5t105.5 -33.5q84 0 143.5 52.5t59.5 125.5q0 52 -40 85t-103 33q-81 0 -140.5 -51t-60.5 -125z" />
    <glyph glyph-name="nine.dnom" horiz-adv-x="698" 
d="M399 874q115 0 187.5 -70t72.5 -175q0 -60 -28 -124t-57.5 -103t-84.5 -103l-253 -299h-136l273 313q-33 -10 -68 -10q-108 0 -177 67.5t-69 172.5q0 133 101.5 232t238.5 99zM164 551q0 -71 45.5 -115.5t120.5 -44.5q88 0 155.5 67.5t67.5 157.5q0 67 -46.5 113.5
t-117.5 46.5q-89 0 -157 -65.5t-68 -159.5z" />
    <glyph glyph-name="zero.numr" horiz-adv-x="765" 
d="M422 561q-140 0 -212 93.5t-38 248.5l49 223q68 324 344 324q140 0 209.5 -96t36.5 -260l-47 -224q-67 -309 -342 -309zM276 891q-23 -107 21 -168t133 -61q96 0 151.5 59t80.5 178l45 213q23 108 -20.5 174t-131.5 66q-94 0 -150 -62t-83 -186z" />
    <glyph glyph-name="one.numr" horiz-adv-x="395" 
d="M483 1434l-182 -859h-106l133 623h-135l20 96h59q37 0 64 22.5t35 57.5l12 60h100z" />
    <glyph glyph-name="two.numr" horiz-adv-x="677" 
d="M78 575l18 89l381 321q47 39 71 60.5t52.5 54t40.5 63.5t12 66q0 57 -39.5 89t-105.5 32q-72 0 -124 -51.5t-69 -139.5h-104q27 143 108 217t203 74q108 0 174 -57t66 -150q0 -42 -13.5 -81.5t-29.5 -67t-51 -64t-56 -54.5t-67 -56l-283 -244h397l-22 -101h-559z" />
    <glyph glyph-name="three.numr" horiz-adv-x="702" 
d="M383 561q-130 0 -205.5 78t-50.5 192h106q-15 -74 29.5 -123t122.5 -49q92 0 150.5 56t58.5 133q0 57 -42 89t-118 32h-37l19 92h37q89 0 150 49.5t61 126.5q0 55 -37 85t-105 30t-123.5 -41.5t-72.5 -116.5h-105q25 121 114.5 188.5t203.5 67.5q110 0 171.5 -51.5
t61.5 -141.5q0 -84 -53 -150t-139 -91q120 -34 120 -160q0 -120 -86.5 -207.5t-230.5 -87.5z" />
    <glyph glyph-name="four.numr" horiz-adv-x="696" 
d="M109 774l20 94l387 568h121l-385 -568h264l47 217h103l-45 -217h129l-23 -94h-127l-43 -199h-106l43 199h-385z" />
    <glyph glyph-name="five.numr" horiz-adv-x="696" 
d="M379 561q-124 0 -198 75t-50 193h105q-13 -77 29 -121t122 -44q86 0 154.5 69.5t68.5 167.5q0 66 -39 101.5t-108 35.5q-46 0 -92 -18.5t-80 -50.5l-96 6l137 461h454l-20 -101h-358l-86 -272q31 27 77.5 43t87.5 16q108 0 170 -55t62 -154q0 -146 -98 -249t-242 -103z
" />
    <glyph glyph-name="six.numr" horiz-adv-x="698" 
d="M393 561q-115 0 -187.5 70.5t-72.5 175.5q0 60 28 124t57.5 103t84.5 103l254 299h135l-272 -314q37 11 67 11q108 0 177 -67.5t69 -172.5q0 -133 -101.5 -232.5t-238.5 -99.5zM240 819q0 -67 46 -113.5t117 -46.5q89 0 157.5 66t68.5 160q0 71 -45.5 115t-120.5 44
q-88 0 -155.5 -67.5t-67.5 -157.5z" />
    <glyph glyph-name="seven.numr" horiz-adv-x="616" 
d="M125 575l510 760h-434l20 101h559l-18 -90l-514 -771h-123z" />
    <glyph glyph-name="eight.numr" horiz-adv-x="716" 
d="M395 561q-118 0 -190 58t-72 153q0 86 59 158.5t150 97.5q-102 45 -102 150q0 114 88 193t213 79q108 0 175.5 -52.5t67.5 -140.5q0 -78 -47.5 -139t-134.5 -90q53 -19 84 -63.5t31 -108.5q0 -124 -92.5 -209.5t-229.5 -85.5zM242 782q0 -58 41.5 -94.5t111.5 -36.5
q86 0 150.5 59t64.5 138q0 59 -41 93t-108 34q-88 0 -153.5 -57t-65.5 -136zM340 1188q-3 -53 35.5 -87t105.5 -34q84 0 143.5 52.5t59.5 125.5q0 52 -40 85.5t-103 33.5q-81 0 -140.5 -51t-60.5 -125z" />
    <glyph glyph-name="nine.numr" horiz-adv-x="698" 
d="M522 1450q115 0 187.5 -70.5t72.5 -175.5q0 -60 -28 -124t-57.5 -103t-84.5 -103l-254 -299h-135l273 314q-33 -10 -68 -10q-108 0 -177 67t-69 172q0 133 101.5 232.5t238.5 99.5zM287 1126q0 -71 45.5 -115t120.5 -44q88 0 155.5 67.5t67.5 157.5q0 67 -46.5 113.5
t-117.5 46.5q-89 0 -157 -66t-68 -160z" />
    <glyph glyph-name="zero.dnom.zero" horiz-adv-x="765" 
d="M299 -14q-140 0 -212 93.5t-38 248.5l49 223q68 323 344 323q140 0 209.5 -96t36.5 -260l-47 -223q-67 -309 -342 -309zM147 268l431 416q-39 92 -146 92q-94 0 -150 -62t-83 -186l-45 -213q-7 -28 -7 -47zM158 178q39 -92 149 -92q96 0 151 59.5t81 178.5l45 213
q6 30 6 55z" />
    <glyph glyph-name="zero.numr.zero" horiz-adv-x="765" 
d="M422 561q-140 0 -212 93.5t-38 248.5l49 223q68 324 344 324q140 0 209.5 -96t36.5 -260l-47 -224q-67 -309 -342 -309zM270 844l430 416q-39 92 -145 92q-94 0 -150 -62t-83 -186l-46 -213q-6 -24 -6 -47zM281 754q39 -92 149 -92q96 0 151.5 59t80.5 178l45 213
q6 30 6 55z" />
    <glyph glyph-name="zero.sinf" horiz-adv-x="765" 
d="M246 -260q-140 0 -212 93.5t-38 248.5l49 223q68 324 344 324q140 0 209.5 -96.5t36.5 -260.5l-47 -223q-67 -309 -342 -309zM100 70q-23 -107 21 -168.5t133 -61.5q96 0 150.5 59.5t80.5 178.5l45 213q23 108 -20 173.5t-131 65.5q-94 0 -150.5 -62t-83.5 -185z" />
    <glyph glyph-name="one.sinf" horiz-adv-x="397" 
d="M309 612l-182 -858h-107l134 623h-136l21 96h59q37 0 64 22.5t35 57.5l12 59h100z" />
    <glyph glyph-name="two.sinf" horiz-adv-x="681" 
d="M-96 -246l18 88l381 322q47 39 71 60.5t52.5 54t40.5 63.5t12 66q0 57 -39.5 88.5t-105.5 31.5q-72 0 -124 -51t-69 -139h-104q27 143 108 217t203 74q108 0 174 -57t66 -150q0 -42 -13.5 -81.5t-29.5 -67.5t-51 -64t-56.5 -55t-66.5 -56l-283 -243h397l-22 -101h-559z
" />
    <glyph glyph-name="three.sinf" horiz-adv-x="704" 
d="M211 -260q-130 0 -205.5 78t-50.5 192h106q-15 -74 29.5 -123t122.5 -49q92 0 150.5 56t58.5 133q0 57 -42 88.5t-118 31.5h-37l19 93h37q89 0 150 49.5t61 126.5q0 55 -37 84.5t-105 29.5t-124 -41t-72 -116h-105q25 121 114.5 188.5t203.5 67.5q110 0 171.5 -51.5
t61.5 -141.5q0 -84 -53 -150t-139 -91q120 -34 120 -160q0 -120 -86.5 -207.5t-230.5 -87.5z" />
    <glyph glyph-name="four.sinf" horiz-adv-x="698" 
d="M-66 -47l21 94l387 567h121l-385 -567h264l47 217h103l-46 -217h129l-22 -94h-127l-43 -199h-107l43 199h-385z" />
    <glyph glyph-name="five.sinf" horiz-adv-x="694" 
d="M203 -260q-124 0 -198 75t-50 193h104q-13 -77 29.5 -121.5t122.5 -44.5q86 0 154.5 70t68.5 168q0 66 -39 101.5t-108 35.5q-46 0 -92 -19t-80 -51l-97 7l138 460h454l-20 -100h-359l-86 -272q31 27 78 43t88 16q108 0 170 -55t62 -154q0 -146 -98 -249t-242 -103z" />
    <glyph glyph-name="six.sinf" horiz-adv-x="698" 
d="M219 -260q-115 0 -187.5 70.5t-72.5 175.5q0 46 13 90t42 88.5t51.5 73.5t63.5 77l254 299h135l-272 -313q33 10 67 10q108 0 177 -67t69 -172q0 -133 -101.5 -232.5t-238.5 -99.5zM66 -2q0 -67 46 -113.5t117 -46.5q90 0 158 66t68 159q0 71 -45.5 115.5t-120.5 44.5
q-88 0 -155.5 -67.5t-67.5 -157.5z" />
    <glyph glyph-name="seven.sinf" horiz-adv-x="616" 
d="M-49 -246l510 760h-434l20 100h559l-18 -90l-514 -770h-123z" />
    <glyph glyph-name="eight.sinf" horiz-adv-x="716" 
d="M221 -260q-118 0 -190 58t-72 153q0 86 59 158.5t150 97.5q-102 45 -102 149q0 114 88 193.5t213 79.5q108 0 175.5 -52.5t67.5 -140.5q0 -78 -47.5 -139t-134.5 -90q53 -19 84 -63.5t31 -108.5q0 -124 -92.5 -209.5t-229.5 -85.5zM68 -39q0 -58 41.5 -94.5t111.5 -36.5
q86 0 150.5 59t64.5 138q0 59 -41 93t-108 34q-88 0 -153.5 -57t-65.5 -136zM166 367q-3 -53 35.5 -87t105.5 -34q84 0 143.5 52.5t59.5 125.5q0 52 -40 85.5t-103 33.5q-81 0 -140.5 -51t-60.5 -125z" />
    <glyph glyph-name="nine.sinf" horiz-adv-x="698" 
d="M348 629q115 0 187.5 -70.5t72.5 -175.5q0 -60 -28 -124t-57.5 -103t-84.5 -103l-254 -299h-135l273 314q-37 -11 -68 -11q-108 0 -177 67.5t-69 172.5q0 133 101.5 232.5t238.5 99.5zM113 305q0 -71 45.5 -115.5t120.5 -44.5q88 0 155.5 68t67.5 158q0 67 -46.5 113
t-117.5 46q-89 0 -157 -65.5t-68 -159.5z" />
    <glyph glyph-name="zero.sups" horiz-adv-x="765" 
d="M438 643q-140 0 -212 93.5t-38 248.5l50 223q68 324 344 324q139 0 208.5 -96t36.5 -260l-47 -224q-67 -309 -342 -309zM293 973q-23 -107 20.5 -168.5t132.5 -61.5q96 0 151 59.5t81 178.5l45 213q23 108 -20.5 174t-131.5 66q-94 0 -150 -62t-83 -186z" />
    <glyph glyph-name="one.sups" horiz-adv-x="397" 
d="M502 1516l-183 -859h-106l133 623h-135l20 96h60q36 0 63 22t35 58l12 60h101z" />
    <glyph glyph-name="two.sups" horiz-adv-x="679" 
d="M96 657l19 88l381 322q47 39 71 60.5t52.5 54t40.5 63.5t12 66q0 57 -40 89t-106 32q-72 0 -123.5 -51.5t-68.5 -139.5h-105q27 143 108.5 217t203.5 74q107 0 173 -56.5t66 -150.5q0 -42 -13.5 -81.5t-29.5 -67.5t-51 -64t-56.5 -55t-66.5 -56l-282 -243h397l-23 -101
h-559z" />
    <glyph glyph-name="three.sups" horiz-adv-x="704" 
d="M401 643q-130 0 -205.5 78t-50.5 192h107q-15 -74 29 -123t122 -49q92 0 150.5 56t58.5 133q0 57 -41.5 89t-117.5 32h-37l18 92h37q89 0 150 49.5t61 126.5q0 55 -36.5 85t-104.5 30t-124.5 -41.5t-72.5 -116.5h-104q25 121 114 188.5t203 67.5q110 0 172 -51.5
t62 -141.5q0 -84 -53.5 -150t-139.5 -91q121 -35 121 -160q0 -120 -87 -207.5t-231 -87.5z" />
    <glyph glyph-name="four.sups" horiz-adv-x="698" 
d="M125 858l20 94l387 568h121l-385 -568h264l48 217h102l-45 -217h129l-23 -94h-127l-43 -199h-106l43 199h-385z" />
    <glyph glyph-name="five.sups" horiz-adv-x="694" 
d="M395 645q-124 0 -198 75t-50 193h105q-13 -77 29 -121t122 -44q86 0 155 69.5t69 167.5q0 65 -39 101t-109 36q-46 0 -92 -18.5t-80 -50.5l-96 6l137 461h455l-21 -101h-358l-86 -272q31 27 78 43t88 16q108 0 169.5 -55t61.5 -154q0 -146 -98 -249t-242 -103z" />
    <glyph glyph-name="six.sups" horiz-adv-x="700" 
d="M412 645q-115 0 -187.5 70.5t-72.5 175.5q0 60 28 124t57.5 103t84.5 103l253 299h136l-273 -314q37 11 68 11q108 0 177 -67.5t69 -172.5q0 -133 -101.5 -232.5t-238.5 -99.5zM258 903q0 -67 46.5 -113.5t117.5 -46.5q89 0 157 66t68 160q0 71 -45.5 115t-120.5 44
q-88 0 -155.5 -67.5t-67.5 -157.5z" />
    <glyph glyph-name="seven.sups" horiz-adv-x="616" 
d="M143 659l510 760h-434l21 101h559l-19 -90l-514 -771h-123z" />
    <glyph glyph-name="eight.sups" horiz-adv-x="716" 
d="M414 645q-118 0 -190 58t-72 153q0 86 58.5 158.5t149.5 97.5q-102 45 -102 150q0 114 88 193t213 79q109 0 176.5 -52.5t67.5 -140.5q0 -78 -47.5 -139t-134.5 -90q53 -19 83.5 -63.5t30.5 -108.5q0 -124 -92 -209.5t-229 -85.5zM260 866q0 -58 42 -94.5t112 -36.5
q86 0 150.5 59t64.5 138q0 59 -41.5 93t-108.5 34q-88 0 -153.5 -57t-65.5 -136zM358 1272q-3 -53 36 -87t106 -34q84 0 143 52.5t59 125.5q0 52 -40 85.5t-103 33.5q-81 0 -140.5 -51t-60.5 -125z" />
    <glyph glyph-name="nine.sups" horiz-adv-x="700" 
d="M541 1532q115 0 187.5 -70.5t72.5 -175.5q0 -60 -28 -124t-57.5 -103t-84.5 -103l-254 -299h-135l272 314q-33 -10 -68 -10q-108 0 -176.5 67t-68.5 172q0 133 101.5 232.5t238.5 99.5zM305 1208q0 -71 45.5 -115t120.5 -44q88 0 155.5 67.5t67.5 157.5q0 67 -46.5 113.5
t-117.5 46.5q-89 0 -157 -66t-68 -160z" />
    <glyph glyph-name="zero.sinf.zero" horiz-adv-x="765" 
d="M246 -260q-140 0 -212 93.5t-38 248.5l49 223q68 324 344 324q140 0 209.5 -96.5t36.5 -260.5l-47 -223q-67 -309 -342 -309zM94 23l430 415q-39 92 -145 92q-94 0 -150.5 -62t-83.5 -185l-45 -213q-6 -24 -6 -47zM104 -68q39 -92 150 -92q96 0 150.5 59.5t80.5 178.5
l45 213q7 35 7 55z" />
    <glyph glyph-name="zero.sups.zero" horiz-adv-x="765" 
d="M438 643q-140 0 -212 93.5t-38 248.5l50 223q68 324 344 324q139 0 208.5 -96t36.5 -260l-47 -224q-67 -309 -342 -309zM287 926l430 415q-39 93 -146 93q-94 0 -150 -62t-83 -186l-45 -213q-6 -24 -6 -47zM297 836q39 -93 149 -93q96 0 151 59.5t81 178.5l45 213
q6 30 6 55z" />
    <glyph glyph-name="colon.case" horiz-adv-x="493" 
d="M291 1159h194l-41 -192h-194zM102 270l41 193h195l-41 -193h-195z" />
    <glyph glyph-name="bullet.case" horiz-adv-x="813" 
d="M436 489q-98 0 -159.5 66.5t-55.5 165.5q4 98 73 163.5t167 65.5t160.5 -65.5t56.5 -163.5q-5 -98 -74.5 -165t-167.5 -67z" />
    <glyph glyph-name="question.ss02" horiz-adv-x="952" 
d="M324 379q23 107 55.5 166t101.5 119l176 153q107 98 147 164.5t40 155.5q0 80 -42.5 119.5t-107.5 39.5h-114q-86 0 -154.5 -58.5t-85.5 -147.5l-16 -76h-156l18 88q31 145 136.5 238.5t240.5 93.5h168q118 0 193 -70t75 -197q0 -121 -52.5 -218.5t-196.5 -225.5
l-162 -145q-48 -45 -71.5 -85t-41.5 -114h-151zM238 0l41 193h194l-41 -193h-194z" />
    <glyph glyph-name="questiondown.ss02" horiz-adv-x="925" 
d="M614 616q-23 -106 -55.5 -165t-101.5 -119l-176 -154q-107 -98 -147 -164t-40 -155q0 -80 42.5 -120t107.5 -40h114q86 0 154.5 59t85.5 148l16 76h156l-18 -88q-31 -145 -136.5 -238.5t-240.5 -93.5h-168q-118 0 -193 70t-75 196q0 121 52.5 218.5t196.5 225.5l162 146
q48 45 71.5 84.5t41.5 113.5h151zM465 803l41 192h194l-41 -192h-194z" />
    <glyph glyph-name="hyphen.case" horiz-adv-x="804" 
d="M168 692l29 139h542l-28 -139h-543z" />
    <glyph glyph-name="endash.case" horiz-adv-x="1206" 
d="M168 692l29 139h946l-31 -139h-944z" />
    <glyph glyph-name="emdash.case" horiz-adv-x="2306" 
d="M168 692l29 139h2044l-29 -139h-2044z" />
    <glyph glyph-name="parenleft.case" horiz-adv-x="636" 
d="M365 -201q-172 0 -246.5 110t-28.5 331l219 1030q39 165 145 256.5t273 91.5h98l-28 -131h-62q-107 0 -182.5 -64.5t-103.5 -193.5l-222 -1039q-27 -130 22 -195t159 -65h57l-27 -131h-73z" />
    <glyph glyph-name="parenright.case" horiz-adv-x="634" 
d="M360 1618q172 0 246.5 -109.5t28.5 -330.5l-219 -1031q-39 -165 -145 -256.5t-273 -91.5h-98l28 131h62q107 0 182.5 64.5t103.5 193.5l222 1039q27 130 -22 195t-159 65h-57l27 131h73z" />
    <glyph glyph-name="braceleft.case" horiz-adv-x="729" 
d="M426 -201q-141 0 -213 91.5t-39 252.5l66 306q14 67 -26.5 124t-117.5 76l25 119q87 19 151.5 80t83.5 145l72 338q27 128 120 207.5t228 79.5h142l-29 -133h-103q-78 0 -138.5 -52t-80.5 -145l-69 -332q-19 -87 -77 -151t-136 -98q62 -33 91 -108.5t11 -164.5l-63 -299
q-21 -93 18.5 -148t120.5 -55h96l-29 -133h-104z" />
    <glyph glyph-name="braceright.case" horiz-adv-x="729" 
d="M395 1618q141 0 213 -91.5t39 -252.5l-65 -305q-14 -67 26 -125t117 -76l-25 -119q-87 -19 -151.5 -80t-83.5 -145l-72 -338q-27 -128 -120 -207.5t-228 -79.5h-141l28 133h103q78 0 138.5 52t80.5 145l70 332q19 87 77 151.5t136 98.5q-63 33 -92 108t-11 164l64 299
q21 93 -19 148t-121 55h-96l29 133h104z" />
    <glyph glyph-name="bracketleft.case" horiz-adv-x="657" 
d="M535 1485l-328 -1548h278l-28 -136h-432l387 1819h432l-31 -135h-278z" />
    <glyph glyph-name="bracketright.case" horiz-adv-x="659" 
d="M215 -66l328 1549h-279l29 135h432l-387 -1819h-432l31 135h278z" />
    <glyph glyph-name="guillemotleft.case" horiz-adv-x="1316" 
d="M1108 227l-469 426l25 111l647 426l-31 -168l-481 -322l340 -323zM156 676l24 110l647 426l-34 -170l-478 -319l342 -324l-32 -149z" />
    <glyph glyph-name="guillemotright.case" horiz-adv-x="1320" 
d="M305 1204l469 -426l-24 -110l-648 -426l31 168l481 321l-340 324zM586 219l35 170l477 320l-342 323l32 150l469 -426l-24 -111z" />
    <glyph glyph-name="guilsinglleft.case" horiz-adv-x="833" 
d="M623 227l-467 426l24 111l647 426l-34 -168l-476 -324l338 -321z" />
    <glyph glyph-name="guilsinglright.case" horiz-adv-x="833" 
d="M303 1190l467 -426l-25 -111l-647 -426l35 168l475 324l-338 321z" />
    </font>
</defs>
</svg>
