<?xml version="1.0" standalone="no"?>
<!DOCTYPE svg PUBLIC "-//W3C//DTD SVG 1.1//EN" "http://www.w3.org/Graphics/SVG/1.1/DTD/svg11.dtd" >
<svg xmlns="http://www.w3.org/2000/svg" xmlns:xlink="http://www.w3.org/1999/xlink" version="1.1">
<metadata>
Created by FontForge 20201107 at Tue May 20 08:22:18 2025
 By 
Copyright (c) 2020 by Martin Va'cha. All rights reserved.
</metadata>
<defs>
<font id="AvanttTRIAL-Medium" horiz-adv-x="0" >
  <font-face 
    font-family="Avantt TRIAL Medium"
    font-weight="500"
    font-stretch="normal"
    units-per-em="2048"
    panose-1="0 0 0 0 0 0 0 0 0 0"
    ascent="1638"
    descent="-410"
    x-height="999"
    cap-height="1434"
    bbox="-293 -506 2290 2163"
    underline-thickness="112"
    underline-position="-237"
    unicode-range="U+0020-E133"
  />
<missing-glyph horiz-adv-x="2222" 
d="M88 631q0 202 78 387.5t209.5 322.5t314 222t383.5 92v-2042q-161 5 -312 59.5t-272 149t-211.5 218.5t-140 276.5t-49.5 314.5zM1147 -383v2032q83 -29 153 -172.5t111 -368t41 -477.5q0 -252 -41 -475.5t-111 -366.5t-153 -172zM1303 -350q103 135 163 398t60 583
q0 321 -60 585.5t-163 401.5q222 -96 363.5 -370t141.5 -617q0 -227 -64 -430t-179 -346.5t-262 -204.5zM1509 -307q172 150 273.5 400t101.5 538q0 289 -101.5 540t-273.5 400q281 -117 452 -374t171 -566t-171 -564.5t-452 -373.5z" />
    <glyph glyph-name=".notdef" horiz-adv-x="2222" 
d="M88 631q0 202 78 387.5t209.5 322.5t314 222t383.5 92v-2042q-161 5 -312 59.5t-272 149t-211.5 218.5t-140 276.5t-49.5 314.5zM1147 -383v2032q83 -29 153 -172.5t111 -368t41 -477.5q0 -252 -41 -475.5t-111 -366.5t-153 -172zM1303 -350q103 135 163 398t60 583
q0 321 -60 585.5t-163 401.5q222 -96 363.5 -370t141.5 -617q0 -227 -64 -430t-179 -346.5t-262 -204.5zM1509 -307q172 150 273.5 400t101.5 538q0 289 -101.5 540t-273.5 400q281 -117 452 -374t171 -566t-171 -564.5t-452 -373.5z" />
    <glyph glyph-name=".null" 
 />
    <glyph glyph-name="nonmarkingreturn" horiz-adv-x="682" 
 />
    <glyph glyph-name="space" unicode=" " horiz-adv-x="473" 
 />
    <glyph glyph-name="exclam" unicode="!" horiz-adv-x="522" 
d="M162 1434h198l-6 -1037h-184zM145 0v223h230v-223h-230z" />
    <glyph glyph-name="quotedbl" unicode="&#x22;" horiz-adv-x="708" 
d="M461 983l-39 260v191h176v-191l-37 -260h-100zM111 1243v191h176v-191l-37 -260h-100z" />
    <glyph glyph-name="numbersign" unicode="#" horiz-adv-x="1411" 
d="M1204 1434l-98 -394h225v-166h-266l-78 -317h262v-162h-303l-98 -395h-197l99 395h-273l-98 -395h-195l99 395h-211v162h250l79 317h-247v166h288l97 394h196l-98 -394h272l99 394h196zM518 557h273l77 317h-272z" />
    <glyph glyph-name="dollar" unicode="$" horiz-adv-x="1050" 
d="M604 1675v-225q154 -28 244 -144.5t90 -283.5h-197q-3 111 -67 181.5t-164 70.5q-93 0 -155 -59.5t-62 -147.5q0 -58 23 -100.5t62.5 -67t90 -42.5t106.5 -33.5t112.5 -33.5t107.5 -48.5t90.5 -73.5t63 -113t24.5 -162q1 -165 -102 -278t-267 -135v-226h-180v234
q-154 36 -248 161t-94 302h197q0 -129 71.5 -210t184.5 -81q105 0 173 65.5t68 167.5q0 61 -23 105.5t-62.5 71.5t-90.5 47t-107 36.5t-112 35t-107 48t-90.5 69.5t-62.5 105t-23 150q0 151 89.5 257t236.5 132v225h180z" />
    <glyph glyph-name="percent" unicode="%" horiz-adv-x="1599" 
d="M1126 1434h158l-829 -1434h-158zM57 1108q0 151 93.5 251.5t234.5 100.5q142 0 235 -100.5t93 -251.5q0 -152 -93 -252t-235 -100q-141 0 -234.5 100t-93.5 252zM205 1108q0 -97 49 -158t131 -61t132 61.5t50 157.5q0 95 -50 156t-132 61t-131 -61t-49 -156zM889 328
q0 151 93.5 251.5t234.5 100.5q142 0 234.5 -100.5t92.5 -251.5q0 -153 -92.5 -253t-234.5 -100q-141 0 -234.5 100.5t-93.5 252.5zM1036 328q0 -97 49.5 -158t131.5 -61t132 61.5t50 157.5q0 95 -50 156t-132 61t-131.5 -61t-49.5 -156z" />
    <glyph glyph-name="ampersand" unicode="&#x26;" horiz-adv-x="1347" 
d="M537 -25q-202 0 -325.5 105t-123.5 270q0 60 16.5 112.5t42.5 92t66.5 76.5t80 63.5t91.5 55.5q-80 88 -127 169.5t-47 176.5q0 156 111.5 259t277.5 103q164 0 267.5 -96t103.5 -252q0 -58 -18.5 -109.5t-46 -89t-72.5 -74.5t-85.5 -61.5t-97.5 -54.5l310 -328
q52 88 92 230l26 106h197l-31 -115q-59 -211 -164 -352l246 -262h-242l-124 133q-184 -158 -424 -158zM281 373q0 -100 74 -167t198 -67q171 0 295 115l-356 383q-103 -59 -157 -119t-54 -145zM397 1098q0 -62 38 -122.5t112 -141.5q59 30 98 54.5t77 57.5t56.5 71.5
t18.5 84.5q0 82 -55.5 138t-137.5 56q-89 0 -148 -56.5t-59 -141.5z" />
    <glyph glyph-name="quotesingle" unicode="'" horiz-adv-x="399" 
d="M150 983l-39 260v191h176v-191l-37 -260h-100z" />
    <glyph glyph-name="parenleft" unicode="(" horiz-adv-x="665" 
d="M516 -315q-173 0 -272 108.5t-99 306.5v985q0 200 99 309t272 109h102v-168h-57q-106 0 -165.5 -63t-59.5 -187v-985q0 -124 59.5 -187t165.5 -63h57v-165h-102z" />
    <glyph glyph-name="parenright" unicode=")" horiz-adv-x="665" 
d="M150 1501q172 0 271 -108.5t99 -307.5v-985q0 -200 -98.5 -308.5t-271.5 -108.5h-103v167h57q106 0 166 63t60 187v985q0 124 -60 187t-166 63h-57v166h103z" />
    <glyph glyph-name="asterisk" unicode="*" horiz-adv-x="1001" 
d="M293 647l-115 98l205 267l-303 94l49 143l297 -90v303h152v-303l294 90l50 -143l-301 -92l202 -269l-114 -98l-207 273z" />
    <glyph glyph-name="plus" unicode="+" horiz-adv-x="1269" 
d="M174 584v174h367v370h186v-370h369v-174h-369v-373h-186v373h-367z" />
    <glyph glyph-name="comma" unicode="," horiz-adv-x="430" 
d="M197 -55q0 25 -15.5 40t-40.5 15h-45v223h230v-487h-129v209z" />
    <glyph glyph-name="hyphen" unicode="-" horiz-adv-x="761" 
d="M92 487v175h578v-175h-578z" />
    <glyph glyph-name="period" unicode="." horiz-adv-x="466" 
d="M119 223h229v-223h-229v223z" />
    <glyph glyph-name="slash" unicode="/" horiz-adv-x="897" 
d="M33 0l629 1434h202l-631 -1434h-200z" />
    <glyph glyph-name="slash" unicode="&#x2215;" horiz-adv-x="897" 
d="M33 0l629 1434h202l-631 -1434h-200z" />
    <glyph glyph-name="zero" unicode="0" horiz-adv-x="1251" 
d="M627 -25q-235 0 -371.5 152t-136.5 414v350q0 262 136.5 414.5t371.5 152.5t371.5 -152.5t136.5 -414.5v-350q0 -262 -136.5 -414t-371.5 -152zM319 541q0 -172 83.5 -275.5t224.5 -103.5q140 0 222.5 103t82.5 276v350q0 174 -82 276.5t-223 102.5t-224.5 -103
t-83.5 -276v-350z" />
    <glyph glyph-name="one" unicode="1" horiz-adv-x="645" 
d="M481 1434v-1434h-198v1018h-228v180h92q79 0 113.5 32.5t34.5 106.5v97h186z" />
    <glyph glyph-name="two" unicode="2" horiz-adv-x="1114" 
d="M80 0v164l510 516q118 116 166.5 190t48.5 164q0 104 -68.5 170t-177.5 66q-120 0 -195.5 -87.5t-72.5 -217.5h-197q-3 214 131.5 353.5t343.5 139.5q192 0 315.5 -118.5t123.5 -295.5q0 -59 -15 -114t-37 -98.5t-62.5 -95.5t-75.5 -89t-93 -94l-344 -363h641v-190h-942z
" />
    <glyph glyph-name="three" unicode="3" horiz-adv-x="1148" 
d="M569 -25q-215 0 -351.5 126t-133.5 329h197q0 -117 79.5 -194.5t202.5 -77.5q122 0 202.5 71.5t80.5 180.5q0 102 -85.5 168.5t-221.5 66.5h-54v172h54q129 0 209.5 64.5t80.5 165.5t-73.5 165t-186.5 64q-118 0 -193 -71.5t-75 -180.5h-192q0 189 129.5 311.5
t330.5 122.5q202 0 329.5 -108.5t127.5 -282.5q0 -111 -63.5 -200t-176.5 -134q121 -34 191 -124.5t70 -213.5q0 -181 -136 -300.5t-342 -119.5z" />
    <glyph glyph-name="four" unicode="4" horiz-adv-x="1150" 
d="M70 326v176l436 932h213l-436 -932h426v348h192v-348h209v-176h-209v-326h-199v326h-632z" />
    <glyph glyph-name="five" unicode="5" horiz-adv-x="1140" 
d="M561 -25q-206 0 -341 123.5t-138 331.5h197q8 -119 86 -191.5t200 -72.5q125 0 209 86t84 209q0 136 -81 218.5t-212 82.5q-72 0 -137.5 -30.5t-110.5 -82.5h-182l70 785h766v-189h-588l-45 -422q49 43 119.5 67.5t142.5 24.5q205 0 332 -122.5t127 -337.5
q0 -206 -143 -343t-355 -137z" />
    <glyph glyph-name="six" unicode="6" horiz-adv-x="1159" 
d="M588 -25q-215 0 -358.5 139t-143.5 345q0 79 30 175.5t87 186.5l383 613h229l-326 -519q61 25 129 25q201 0 336.5 -135.5t135.5 -341.5q0 -134 -66 -246t-181.5 -177t-254.5 -65zM283 459q0 -129 88 -216t217 -87t216 87t87 216q0 135 -86 223t-219 88q-129 0 -216 -90
t-87 -221z" />
    <glyph glyph-name="seven" unicode="7" horiz-adv-x="1011" 
d="M168 0l580 1245h-715v189h938v-170l-582 -1264h-221z" />
    <glyph glyph-name="eight" unicode="8" horiz-adv-x="1173" 
d="M588 -25q-212 0 -351 120t-139 300q0 120 72 217t188 142q-107 45 -166 125.5t-59 191.5q0 171 126.5 279t328.5 108t327 -109t125 -278q0 -108 -58.5 -189t-164.5 -128q111 -41 184.5 -140.5t73.5 -220.5q0 -176 -137.5 -297t-349.5 -121zM299 401q0 -109 83 -183.5
t206 -74.5q122 0 204 74.5t82 183.5q0 108 -82 182t-204 74q-123 0 -206 -74t-83 -182zM319 1061q0 -104 74.5 -169t194.5 -65q118 0 192 64.5t74 167.5q0 105 -74 172t-192 67q-119 0 -194 -67t-75 -170z" />
    <glyph glyph-name="nine" unicode="9" horiz-adv-x="1159" 
d="M571 1456q215 0 358.5 -138.5t143.5 -344.5q0 -79 -30 -176t-87 -187l-383 -612h-229l326 518q-58 -24 -129 -24q-201 0 -336 135.5t-135 341.5q0 100 39 190.5t105.5 155.5t159.5 103t197 38zM268 973q0 -135 86 -223t219 -88q129 0 216.5 90t87.5 221q0 129 -88.5 216
t-217.5 87t-216 -87t-87 -216z" />
    <glyph glyph-name="colon" unicode=":" horiz-adv-x="473" 
d="M123 911h229v-223h-229v223zM123 0v223h229v-223h-229z" />
    <glyph glyph-name="semicolon" unicode=";" horiz-adv-x="477" 
d="M123 911h229v-223h-229v223zM123 0v223h229v-487h-129v209q0 25 -15 40t-40 15h-45z" />
    <glyph glyph-name="less" unicode="&#x3c;" horiz-adv-x="1269" 
d="M1063 1049v-193l-617 -268l617 -271v-190l-868 387v148z" />
    <glyph glyph-name="equal" unicode="=" horiz-adv-x="1269" 
d="M1096 979v-174h-922v174h922zM174 371v174h922v-174h-922z" />
    <glyph glyph-name="greater" unicode="&#x3e;" horiz-adv-x="1269" 
d="M207 123v192l616 269l-616 270v190l868 -387v-147z" />
    <glyph glyph-name="question" unicode="?" horiz-adv-x="1003" 
d="M498 1458q194 0 312 -111.5t118 -279.5q0 -76 -21 -140t-54.5 -110t-74.5 -86t-81.5 -76.5t-74.5 -73t-55.5 -83.5t-21.5 -101h-193q1 76 22.5 139t54.5 106t72.5 81t79 71.5t71.5 68t52.5 80t20.5 99.5q0 98 -61.5 162t-167.5 64q-119 0 -185.5 -79.5t-64.5 -209.5h-195
q-3 213 117.5 346t329.5 133zM332 0v223h229v-223h-229z" />
    <glyph glyph-name="at" unicode="@" horiz-adv-x="1859" 
d="M918 229q108 0 174.5 75t66.5 198q0 120 -67 194t-174 74q-105 0 -176.5 -77t-71.5 -191q0 -115 72 -194t176 -79zM82 494q0 177 63.5 332t175 266t270 175t341.5 64q190 0 348.5 -58t265 -159t165 -238t58.5 -294q0 -232 -101.5 -368t-242.5 -136q-164 0 -219 168
q-44 -73 -130 -120.5t-195 -47.5q-164 0 -279 122.5t-115 301.5q0 174 115.5 296t278.5 122q95 0 167 -43.5t111 -122.5v149h180v-502q0 -81 21.5 -122t71.5 -41q74 0 117.5 86.5t43.5 250.5q0 127 -45.5 235.5t-128.5 187t-208.5 123t-278.5 44.5q-145 0 -271.5 -51
t-214.5 -139.5t-138 -211t-50 -261.5q0 -304 188 -482t535 -178h451v-170h-467q-200 0 -366.5 62t-279.5 171.5t-175 260.5t-62 328z" />
    <glyph glyph-name="A" unicode="A" horiz-adv-x="1206" 
d="M23 0l487 1434h188l486 -1434h-215l-103 322h-532l-105 -322h-206zM375 508h442l-219 666z" />
    <glyph glyph-name="B" unicode="B" horiz-adv-x="1081" 
d="M160 0v1434h379q180 0 297.5 -103t117.5 -256q0 -113 -71.5 -205.5t-159.5 -115.5q109 -17 184.5 -119t75.5 -238q0 -168 -119 -282.5t-297 -114.5h-407zM358 166h195q102 0 166.5 69.5t64.5 172.5t-65 173t-164 70h-197v-485zM358 815h152q103 0 175.5 67.5t72.5 164.5
q0 94 -67.5 157.5t-168.5 63.5h-164v-453z" />
    <glyph glyph-name="C" unicode="C" horiz-adv-x="1538" 
d="M807 -25q-202 0 -367.5 98t-259.5 269t-94 379q0 154 55.5 291t151 234.5t229.5 154.5t285 57q251 0 436 -143.5t223 -368.5h-213q-40 145 -164 235.5t-282 90.5q-220 0 -369 -157.5t-149 -393.5q0 -239 149 -399t369 -160q160 0 285.5 96t160.5 246h217
q-43 -235 -228 -382t-435 -147z" />
    <glyph glyph-name="D" unicode="D" horiz-adv-x="1413" 
d="M616 1434q151 0 282.5 -54t225 -148t147.5 -226t54 -283q0 -204 -91.5 -369.5t-254 -259.5t-363.5 -94h-456v1434h456zM358 186h271q212 0 353.5 154t141.5 383q0 225 -140.5 374.5t-354.5 149.5h-271v-1061z" />
    <glyph glyph-name="E" unicode="E" horiz-adv-x="960" 
d="M160 1434h710v-187h-512v-399h445v-180h-445v-482h512v-186h-710v1434z" />
    <glyph glyph-name="F" unicode="F" horiz-adv-x="925" 
d="M160 1434h710v-187h-512v-403h445v-187h-445v-657h-198v1434z" />
    <glyph glyph-name="G" unicode="G" horiz-adv-x="1572" 
d="M807 -25q-151 0 -284.5 56.5t-229 155t-150.5 236t-55 294.5q0 206 96 376t263 267.5t368 97.5q240 0 411.5 -128.5t233.5 -321.5h-217q-54 118 -175.5 193t-256.5 75q-142 0 -261.5 -72t-190 -200t-70.5 -283q0 -243 150 -403t376 -160q201 0 331.5 125.5t139.5 308.5
h-465v182h666q2 -29 2 -94q0 -193 -85.5 -353.5t-242.5 -256t-354 -95.5z" />
    <glyph glyph-name="H" unicode="H" horiz-adv-x="1253" 
d="M160 0v1434h198v-600h539v600h197v-1434h-197v647h-539v-647h-198z" />
    <glyph glyph-name="I" unicode="I" horiz-adv-x="516" 
d="M160 1434h198v-1434h-198v1434z" />
    <glyph glyph-name="J" unicode="J" horiz-adv-x="667" 
d="M119 186q100 0 150 56t50 178v1014h199v-1072q0 -174 -91 -268t-255 -94h-129v186h76z" />
    <glyph glyph-name="K" unicode="K" horiz-adv-x="1079" 
d="M848 0l-490 696v-696h-198v1434h198v-629l457 629h229l-507 -682l546 -752h-235z" />
    <glyph glyph-name="L" unicode="L" horiz-adv-x="911" 
d="M160 1434h198v-1248h512v-186h-710v1434z" />
    <glyph glyph-name="M" unicode="M" horiz-adv-x="1796" 
d="M160 0v1434h264l479 -1174l473 1174h262v-1434h-194v811q0 83 2.5 168t5.5 129l2 43q-45 -148 -106 -324l-351 -827h-188l-356 834l-109 321q8 -154 8 -340v-815h-192z" />
    <glyph glyph-name="N" unicode="N" horiz-adv-x="1243" 
d="M758 676q38 -74 74 -150.5t52 -116.5l17 -40q-12 152 -12 338v727h194v-1434h-178l-422 791q-37 74 -72.5 150.5t-52.5 116.5l-16 40q10 -154 10 -340v-758h-192v1434h194z" />
    <glyph glyph-name="O" unicode="O" horiz-adv-x="1636" 
d="M819 -25q-152 0 -288 58t-233.5 157t-154.5 237t-57 292q0 153 57 290t154.5 235.5t233.5 156t288 57.5t288 -57.5t233.5 -156t154.5 -235.5t57 -290q0 -154 -57 -292t-154.5 -237t-233.5 -157t-288 -58zM289 719q0 -154 70 -282t192 -201.5t268 -73.5t267.5 73.5
t191.5 201.5t70 282q0 152 -70 279t-191.5 200.5t-267.5 73.5t-268 -73.5t-192 -200.5t-70 -279z" />
    <glyph glyph-name="P" unicode="P" horiz-adv-x="1044" 
d="M160 0v1434h391q197 0 320.5 -110.5t123.5 -291.5q0 -188 -123 -309t-317 -121h-197v-602h-198zM358 784h183q117 0 186.5 66.5t69.5 173.5q0 101 -69.5 163t-186.5 62h-183v-465z" />
    <glyph glyph-name="Q" unicode="Q" horiz-adv-x="1628" 
d="M834 0q-168 0 -309 56t-237 154t-149 232.5t-53 288.5q0 152 56 287t152.5 231.5t231 152.5t285.5 56t285.5 -56t230 -151t151.5 -226t56 -277q0 -175 -78.5 -321.5t-210.5 -242.5h342v-184h-753zM289 731q0 -114 41 -214.5t110.5 -172t166 -113t204.5 -41.5
q146 0 265 70.5t187 194.5t68 276q0 230 -149.5 385.5t-370.5 155.5t-371.5 -155.5t-150.5 -385.5z" />
    <glyph glyph-name="R" unicode="R" horiz-adv-x="1130" 
d="M160 0v1434h397q198 0 322.5 -109.5t124.5 -273.5q0 -113 -52.5 -200.5t-146.5 -137.5q96 -45 146 -131.5t50 -204.5v-377h-198v354q0 254 -271 254h-176v-608h-196zM356 784h189q117 0 187.5 65.5t70.5 172.5q0 103 -70.5 165t-187.5 62h-189v-465z" />
    <glyph glyph-name="S" unicode="S" horiz-adv-x="1069" 
d="M543 -25q-197 0 -325 133.5t-128 342.5h197q0 -129 71.5 -210t184.5 -81q105 0 173 65.5t68 167.5q0 61 -23 105.5t-62.5 71.5t-90.5 47t-107 36.5t-112 35t-107 48t-90.5 69.5t-62.5 105t-23 150q0 174 117 285.5t299 111.5q191 0 307.5 -122.5t116.5 -313.5h-196
q-3 111 -67 181.5t-165 70.5q-93 0 -155 -59.5t-62 -147.5q0 -58 23 -100.5t62.5 -67t90 -42.5t106.5 -33.5t112.5 -33.5t107.5 -48.5t90.5 -73.5t63 -113t24.5 -162q1 -184 -123.5 -301t-314.5 -117z" />
    <glyph glyph-name="T" unicode="T" horiz-adv-x="974" 
d="M39 1247v187h897v-187h-350v-1247h-197v1247h-350z" />
    <glyph glyph-name="U" unicode="U" horiz-adv-x="1245" 
d="M623 -25q-215 0 -345.5 139t-130.5 369v951h199v-955q0 -145 75.5 -231t201.5 -86q127 0 201.5 86t74.5 231v955h199v-951q0 -230 -130 -369t-345 -139z" />
    <glyph glyph-name="V" unicode="V" horiz-adv-x="1206" 
d="M705 0h-203l-479 1434h208l381 -1149l371 1149h201z" />
    <glyph glyph-name="W" unicode="W" horiz-adv-x="1832" 
d="M410 0l-369 1434h209l217 -818q20 -80 37 -159t24 -117l7 -39q30 133 83 313l228 820h164l223 -805q23 -80 43.5 -158.5t29.5 -116.5l9 -39q20 136 65 316l211 803h201l-371 -1434h-194l-305 1075l-306 -1075h-206z" />
    <glyph glyph-name="X" unicode="X" horiz-adv-x="1087" 
d="M819 0l-278 600l-291 -600h-211l385 743l-350 691h219l260 -541l252 541h205l-336 -691l364 -743h-219z" />
    <glyph glyph-name="Y" unicode="Y" horiz-adv-x="1099" 
d="M29 1434h217l305 -621l301 621h215l-418 -840v-594h-198v594z" />
    <glyph glyph-name="Z" unicode="Z" horiz-adv-x="999" 
d="M94 1434h828v-154l-619 -1094h627v-186h-871v154l619 1093h-584v187z" />
    <glyph glyph-name="bracketleft" unicode="[" horiz-adv-x="679" 
d="M354 1333v-1476h275v-172h-463v1818h463v-170h-275z" />
    <glyph glyph-name="backslash" unicode="\" horiz-adv-x="897" 
d="M864 0h-202l-629 1434h200z" />
    <glyph glyph-name="bracketright" unicode="]" horiz-adv-x="679" 
d="M326 -143v1476h-275v172h463v-1818h-463v170h275z" />
    <glyph glyph-name="asciicircum" unicode="^" horiz-adv-x="1269" 
d="M1090 612h-201l-256 586l-258 -586h-195l363 822h184z" />
    <glyph glyph-name="underscore" unicode="_" horiz-adv-x="1204" 
d="M90 -197v177h1024v-177h-1024z" />
    <glyph glyph-name="grave" unicode="`" horiz-adv-x="817" 
d="M205 1403h215l192 -299h-174z" />
    <glyph glyph-name="a" unicode="a" horiz-adv-x="1077" 
d="M451 -25q-164 0 -263.5 82t-99.5 217q0 151 123 240.5t348 89.5h203v33q0 107 -63 169t-173 62q-95 0 -164 -55.5t-75 -140.5h-187q6 154 127 253t301 99q196 0 309 -109t113 -294v-621h-184v135q-52 -72 -137 -116t-178 -44zM272 279q0 -70 51 -113t142 -43
q128 0 214.5 89.5t86.5 219.5v31h-203q-140 0 -215.5 -47t-75.5 -137z" />
    <glyph glyph-name="b" unicode="b" horiz-adv-x="1277" 
d="M692 -25q-111 0 -205 44t-157 122v-141h-189v1434h189v-576q63 78 157 122t205 44q216 0 363 -150t147 -376q0 -149 -67.5 -269t-184 -187t-258.5 -67zM330 500q0 -152 98 -248t246 -96q144 0 243 98.5t99 245.5q0 146 -99.5 246t-242.5 100q-147 0 -245.5 -98.5
t-98.5 -247.5z" />
    <glyph glyph-name="c" unicode="c" horiz-adv-x="1130" 
d="M596 -25q-143 0 -262 68t-188.5 188t-69.5 267t69.5 268t188.5 189.5t262 68.5q175 0 309.5 -105.5t159.5 -263.5h-191q-22 83 -101.5 139t-178.5 56q-141 0 -237.5 -101t-96.5 -251q0 -148 96.5 -248t237.5 -100q101 0 180.5 56t99.5 144h191q-21 -165 -155.5 -270
t-313.5 -105z" />
    <glyph glyph-name="d" unicode="d" horiz-adv-x="1277" 
d="M584 -25q-142 0 -258.5 67t-184 187t-67.5 269q0 226 147 376t363 150q111 0 205 -44t157 -122v576h189v-1434h-189v141q-63 -78 -157 -122t-205 -44zM260 500q0 -147 99 -245.5t243 -98.5q148 0 246 96t98 248q0 149 -98.5 247.5t-245.5 98.5q-143 0 -242.5 -100
t-99.5 -246z" />
    <glyph glyph-name="e" unicode="e" horiz-adv-x="1146" 
d="M588 -25q-147 0 -265 69.5t-182.5 187.5t-64.5 260q0 149 71.5 272t189.5 191.5t255 68.5q206 0 344.5 -139t138.5 -342q0 -49 -6 -84h-811q12 -145 107.5 -234.5t232.5 -89.5q102 0 180.5 49.5t100.5 128.5h186q-36 -150 -166 -244t-311 -94zM272 614h611
q-6 105 -88.5 176.5t-202.5 71.5q-111 0 -199.5 -67.5t-120.5 -180.5z" />
    <glyph glyph-name="f" unicode="f" horiz-adv-x="681" 
d="M29 836v163h200v105q0 167 80 248.5t248 81.5h109v-156h-86q-82 0 -122 -39.5t-40 -122.5v-117h248v-163h-248v-836h-189v836h-200z" />
    <glyph glyph-name="g" unicode="g" horiz-adv-x="1257" 
d="M485 -385q-188 0 -282 89t-94 245v33h188v-31q0 -81 56 -127.5t167 -46.5h185q114 0 168.5 56.5t54.5 176.5v174q-63 -75 -152 -116t-196 -41q-215 0 -358.5 140t-143.5 357q0 215 144 358.5t358 143.5q110 0 201.5 -45t156.5 -125v143h178v-983q0 -191 -100.5 -296
t-290.5 -105h-240zM268 524q0 -143 95 -239.5t237 -96.5q147 0 242.5 94.5t95.5 241.5q0 146 -96 241t-242 95q-141 0 -236.5 -97.5t-95.5 -238.5z" />
    <glyph glyph-name="h" unicode="h" horiz-adv-x="1159" 
d="M141 0v1434h185v-553q57 68 136.5 105.5t172.5 37.5q179 0 288 -121t109 -328v-575h-190v571q0 123 -66.5 201t-183.5 78q-116 0 -190 -79t-74 -210v-561h-187z" />
    <glyph glyph-name="i" unicode="i" horiz-adv-x="471" 
d="M141 999h189v-999h-189v999zM133 1198v236h205v-236h-205z" />
    <glyph glyph-name="j" unicode="j" horiz-adv-x="471" 
d="M37 -217q47 0 75.5 30.5t28.5 86.5v1099h189v-1108q0 -149 -70 -212.5t-203 -63.5h-96v168h76zM133 1198v236h205v-236h-205z" />
    <glyph glyph-name="k" unicode="k" horiz-adv-x="989" 
d="M141 0v1434h189v-854l399 419h234l-455 -475l485 -524h-245l-418 461v-461h-189z" />
    <glyph glyph-name="l" unicode="l" horiz-adv-x="471" 
d="M330 1434v-1434h-189v1434h189z" />
    <glyph glyph-name="m" unicode="m" horiz-adv-x="1804" 
d="M141 0v999h201v-110q58 68 136.5 101.5t156.5 33.5q101 0 181 -46.5t126 -129.5q58 84 153.5 130t204.5 46q172 0 274.5 -111t102.5 -299v-614h-188v573q0 128 -62 202.5t-172 74.5q-101 0 -176 -71.5t-75 -207.5v-571h-189v573q0 129 -64 203t-176 74q-101 0 -173 -73
t-72 -218v-559h-189z" />
    <glyph glyph-name="n" unicode="n" horiz-adv-x="1157" 
d="M141 0v999h185v-118q57 68 136.5 105.5t172.5 37.5q179 0 288 -121t109 -328v-575h-190v571q0 123 -66.5 201t-183.5 78q-116 0 -190 -79t-74 -210v-561h-187z" />
    <glyph glyph-name="o" unicode="o" horiz-adv-x="1198" 
d="M598 -25q-107 0 -204 40.5t-166.5 110t-110.5 167.5t-41 207q0 144 69.5 264.5t189.5 190t263 69.5t263.5 -69.5t190.5 -190t70 -264.5q0 -146 -70 -267t-190 -189.5t-264 -68.5zM260 500q0 -149 96.5 -249.5t241.5 -100.5q143 0 241.5 100.5t98.5 249.5q0 148 -98.5 249
t-241.5 101q-144 0 -241 -101t-97 -249z" />
    <glyph glyph-name="p" unicode="p" horiz-adv-x="1277" 
d="M141 -385v1384h187v-141q64 78 158.5 122t205.5 44q142 0 258.5 -66.5t184 -186.5t67.5 -269q0 -226 -147 -376.5t-363 -150.5q-111 0 -205.5 44t-158.5 122v-526h-187zM328 498q0 -148 99.5 -246t246.5 -98q143 0 242.5 100t99.5 244q0 148 -99 247t-243 99
q-148 0 -247 -97t-99 -249z" />
    <glyph glyph-name="q" unicode="q" horiz-adv-x="1267" 
d="M938 141q-63 -78 -155.5 -122t-200.5 -44q-142 0 -257.5 68t-182 189t-66.5 270q0 226 145 374t361 148q108 0 200.5 -44t155.5 -122v141h190v-1384h-190v526zM262 498q0 -145 97 -244.5t239 -99.5q148 0 244 97.5t96 246.5q0 153 -95.5 249.5t-244.5 96.5
q-143 0 -239.5 -98.5t-96.5 -247.5z" />
    <glyph glyph-name="r" unicode="r" horiz-adv-x="712" 
d="M330 999v-133q90 133 250 133h104v-163h-113q-114 0 -177.5 -69t-63.5 -189v-578h-189v999h189z" />
    <glyph glyph-name="s" unicode="s" horiz-adv-x="937" 
d="M475 -25q-173 0 -282 86.5t-121 239.5h180q7 -82 67.5 -129t155.5 -47q94 0 149.5 43t55.5 111q0 49 -32.5 81t-84.5 48.5t-114.5 30t-125 31.5t-114.5 45.5t-84.5 80t-32.5 127.5q0 138 102.5 219.5t260.5 81.5q161 0 266.5 -78.5t120.5 -220.5h-185q-11 68 -66 111
t-138 43q-77 0 -131 -35t-54 -103q0 -45 33 -74t85 -43.5t115.5 -26.5t127 -31t115.5 -48t85 -85t33 -136q0 -141 -108.5 -231.5t-278.5 -90.5z" />
    <glyph glyph-name="t" unicode="t" horiz-adv-x="733" 
d="M20 836v163h195v269h186v-269h283v-163h-283v-502q0 -170 164 -170h119v-164h-141q-328 0 -328 322v514h-195z" />
    <glyph glyph-name="u" unicode="u" horiz-adv-x="1159" 
d="M1018 999v-999h-184v119q-57 -68 -137 -106t-173 -38q-179 0 -288 121t-109 328v575h190v-571q0 -123 66.5 -200.5t183.5 -77.5q116 0 190 78.5t74 209.5v561h187z" />
    <glyph glyph-name="v" unicode="v" horiz-adv-x="1052" 
d="M428 0l-403 999h211l294 -759l295 759h205l-407 -999h-195z" />
    <glyph glyph-name="w" unicode="w" horiz-adv-x="1562" 
d="M362 0l-331 999h198l236 -723l242 723h159l242 -716l229 716h195l-332 -999h-168l-250 715l-252 -715h-168z" />
    <glyph glyph-name="x" unicode="x" horiz-adv-x="972" 
d="M731 0l-248 387l-252 -387h-208l342 514l-326 485h215l238 -362l227 362h209l-314 -491l334 -508h-217z" />
    <glyph glyph-name="y" unicode="y" horiz-adv-x="1046" 
d="M25 999h200l301 -739l295 739h203l-580 -1384h-198l182 426z" />
    <glyph glyph-name="z" unicode="z" horiz-adv-x="983" 
d="M57 0v152l613 684h-590v163h833v-153l-612 -682h617v-164h-861z" />
    <glyph glyph-name="braceleft" unicode="{" horiz-adv-x="743" 
d="M569 -315q-147 0 -238 91t-91 242v295q0 73 -50.5 129.5t-130.5 73.5v154q80 17 130.5 73t50.5 129v295q0 150 91 242t238 94h125v-170h-82q-82 0 -133 -51.5t-51 -146.5v-285q0 -88 -43 -155.5t-113 -102.5q71 -37 113.5 -104t42.5 -154v-275q0 -96 51.5 -151t134.5 -55
h80v-168h-125z" />
    <glyph glyph-name="bar" unicode="|" horiz-adv-x="516" 
d="M160 1634h196v-1962h-196v1962z" />
    <glyph glyph-name="braceright" unicode="}" horiz-adv-x="743" 
d="M174 1501q147 0 238.5 -91.5t91.5 -242.5v-295q0 -73 50 -129t130 -73v-154q-80 -17 -130 -73.5t-50 -129.5v-295q0 -150 -91.5 -241.5t-238.5 -93.5h-125v170h82q82 0 133 51.5t51 146.5v285q0 88 43 155.5t113 102.5q-71 37 -113.5 104t-42.5 154v274q0 97 -51.5 152
t-134.5 55h-80v168h125z" />
    <glyph glyph-name="asciitilde" unicode="~" horiz-adv-x="1269" 
d="M172 457q0 173 76.5 269.5t181.5 96.5q58 0 119 -28t102.5 -61t89 -61t82.5 -28q47 0 79 45.5t32 130.5l170 2q0 -172 -76.5 -269t-181.5 -97q-56 0 -115.5 28t-102 62t-91.5 62t-86 28q-47 0 -78 -47t-31 -131z" />
    <glyph glyph-name="uni00A0" unicode="&#xa0;" horiz-adv-x="473" 
 />
    <glyph glyph-name="exclamdown" unicode="&#xa1;" horiz-adv-x="487" 
d="M143 -434l11 1036h182l8 -1036h-201zM129 776v223h229v-223h-229z" />
    <glyph glyph-name="cent" unicode="&#xa2;" horiz-adv-x="1187" 
d="M713 1243v-225q149 -25 256 -125.5t129 -237.5h-191q-22 83 -101.5 139t-178.5 56q-141 0 -237.5 -101t-96.5 -251q0 -148 96.5 -248t237.5 -100q101 0 180.5 56t99.5 144h191q-18 -145 -125.5 -244.5t-259.5 -123.5v-228h-189v232q-181 36 -298 177t-117 335t117 337
t298 179v229h189z" />
    <glyph glyph-name="sterling" unicode="&#xa3;" horiz-adv-x="1187" 
d="M94 633v166h162v209q0 199 120 326.5t306 127.5q182 0 297.5 -113t118.5 -284h-197q-4 96 -65 154.5t-154 58.5q-102 0 -164.5 -72t-62.5 -190v-217h434v-166h-434v-135q0 -189 -140 -310h797v-188h-1028v180q172 108 172 309v144h-162z" />
    <glyph glyph-name="currency" unicode="&#xa4;" horiz-adv-x="1429" 
d="M1239 715q0 -166 -98 -295l194 -193l-129 -129l-194 193q-129 -98 -293 -98q-171 0 -301 100l-197 -195l-125 127l197 195q-103 128 -103 295q0 169 101 297l-197 194l127 131l199 -196q127 100 299 100q168 0 295 -100l194 194l125 -127l-192 -192q98 -132 98 -301z
M367 715q0 -146 103 -249.5t249 -103.5q143 0 243.5 103t100.5 250q0 150 -100.5 255t-243.5 105q-146 0 -249 -105.5t-103 -254.5z" />
    <glyph glyph-name="yen" unicode="&#xa5;" horiz-adv-x="1173" 
d="M86 1434h217l287 -621l282 621h215l-264 -557h238v-168h-318l-55 -115v-68h373v-168h-373v-358h-199v358h-376v168h376v68l-55 115h-321v168h241z" />
    <glyph glyph-name="brokenbar" unicode="&#xa6;" horiz-adv-x="516" 
d="M160 918v716h196v-716h-196zM160 -328v719h196v-719h-196z" />
    <glyph glyph-name="section" unicode="&#xa7;" horiz-adv-x="1103" 
d="M569 -397q-105 0 -186.5 32.5t-131 90t-73 131.5t-20.5 161h174q-2 -115 61 -185.5t176 -70.5q98 0 158.5 53.5t60.5 147.5q0 157 -186 207l-256 68q-118 32 -184 111.5t-66 209.5q0 80 41 157.5t107 131.5q-94 87 -94 242q0 169 110 268.5t277 99.5q207 0 312 -117
t99 -299h-176q3 116 -59.5 187t-177.5 71q-97 0 -157.5 -53.5t-60.5 -148.5q0 -158 185 -205l256 -70q118 -31 185 -110.5t67 -208.5q0 -80 -41 -158t-109 -133q94 -87 94 -240q0 -169 -109.5 -269.5t-275.5 -100.5zM264 567q0 -141 164 -188l211 -55q40 -10 90 -31
q110 89 113 203q0 71 -43 118t-121 68l-211 55q-45 12 -92 31q-50 -39 -80.5 -92t-30.5 -109z" />
    <glyph glyph-name="dieresis" unicode="&#xa8;" horiz-adv-x="993" 
d="M586 1331h202v-188h-202v188zM205 1143v188h203v-188h-203z" />
    <glyph glyph-name="copyright" unicode="&#xa9;" horiz-adv-x="1703" 
d="M850 -25q-150 0 -286.5 59t-235.5 158.5t-158 237t-59 287.5q0 201 99.5 371.5t269.5 270t370 99.5q151 0 288.5 -59t237 -158t158.5 -236.5t59 -287.5t-59 -287.5t-158.5 -237t-237 -158.5t-288.5 -59zM201 717q0 -177 87.5 -328t237.5 -239.5t326 -88.5t325.5 88.5
t236.5 239.5t87 328q0 133 -51.5 255t-138.5 210t-207 140t-252 52t-252.5 -52t-207.5 -140t-139 -210t-52 -255zM461 721q0 174 114 290.5t283 116.5q141 0 242.5 -81t120.5 -207h-140q-20 73 -82.5 119.5t-140.5 46.5q-113 0 -187.5 -80.5t-74.5 -204.5q0 -123 75 -205
t187 -82q78 0 141 49t82 127h144q-23 -132 -126 -215.5t-241 -83.5q-169 0 -283 118.5t-114 291.5z" />
    <glyph glyph-name="ordfeminine" unicode="&#xaa;" horiz-adv-x="958" 
d="M373 573q-127 0 -201 65t-74 175q0 129 101.5 204t271.5 75h188v30q0 95 -49 145t-139 50q-77 0 -130.5 -45.5t-57.5 -116.5h-174q8 131 111.5 217t254.5 86q165 0 260.5 -92t95.5 -248v-520h-172v123q-49 -69 -122.5 -108.5t-163.5 -39.5zM274 834q0 -57 40 -92t112 -35
q103 0 170.5 74t67.5 180v22l-164 -4q-109 0 -167.5 -37.5t-58.5 -107.5z" />
    <glyph glyph-name="guillemotleft" unicode="&#xab;" horiz-adv-x="1280" 
d="M1176 35l-566 418v141l566 422v-199l-390 -293l390 -291v-198zM96 453v141l566 422v-199l-390 -293l390 -291v-198z" />
    <glyph glyph-name="logicalnot" unicode="&#xac;" horiz-adv-x="1269" 
d="M1096 733v-602h-189v424h-747v178h936z" />
    <glyph glyph-name="uni00AD" unicode="&#xad;" horiz-adv-x="761" 
d="M92 487v175h578v-175h-578z" />
    <glyph glyph-name="registered" unicode="&#xae;" horiz-adv-x="935" 
d="M469 719q-154 0 -262.5 107.5t-108.5 260.5q0 154 107.5 262.5t261.5 108.5q155 0 264 -108t109 -263q0 -153 -108.5 -260.5t-262.5 -107.5zM156 1087q0 -129 92 -222t221 -93q127 0 219 93t92 222q0 130 -91.5 224t-219.5 94q-129 0 -221 -93.5t-92 -224.5zM354 893v393
h115q54 0 88.5 -31t34.5 -77q0 -65 -55 -93q55 -24 55 -92v-100h-64v94q0 31 -17.5 48.5t-49.5 17.5h-45v-160h-62zM416 1106h47q29 0 47 17.5t18 45.5q0 26 -18 43t-47 17h-47v-123z" />
    <glyph glyph-name="macron" unicode="&#xaf;" horiz-adv-x="1056" 
d="M205 1135v149h647v-149h-647z" />
    <glyph glyph-name="degree" unicode="&#xb0;" horiz-adv-x="950" 
d="M477 719q-160 0 -268.5 107.5t-108.5 265.5q0 157 108.5 263.5t268.5 106.5q157 0 266 -107t109 -263q0 -158 -109 -265.5t-266 -107.5zM262 1092q0 -91 62 -153t153 -62q89 0 150 62t61 153t-61 152t-150 61q-91 0 -153 -61t-62 -152z" />
    <glyph glyph-name="plusminus" unicode="&#xb1;" horiz-adv-x="1269" 
d="M186 752v172h355v346h188v-346h354v-172h-354v-344h-188v344h-355zM186 127v168h897v-168h-897z" />
    <glyph glyph-name="acute" unicode="&#xb4;" horiz-adv-x="819" 
d="M614 1401l-237 -297h-172l203 297h206z" />
    <glyph glyph-name="uni00B5" unicode="&#xb5;" horiz-adv-x="1183" 
d="M147 -385v1384h189v-571q0 -124 66.5 -202.5t183.5 -78.5t190.5 79t73.5 210v563h188v-999h-184v166q-48 -89 -133.5 -140t-192.5 -51q-111 0 -192 62v-422h-189z" />
    <glyph glyph-name="paragraph" unicode="&#xb6;" horiz-adv-x="1298" 
d="M475 -385v963q-203 10 -320.5 129.5t-117.5 300.5q0 186 128.5 306t354.5 120h711v-187h-170v-1632h-180v1632h-228v-1632h-178z" />
    <glyph glyph-name="periodcentered" unicode="&#xb7;" horiz-adv-x="471" 
d="M121 840h229v-215h-229v215z" />
    <glyph glyph-name="cedilla" unicode="&#xb8;" horiz-adv-x="743" 
d="M389 33v-25l-57 -147h24q80 0 131.5 -50t51.5 -128q0 -82 -52.5 -135.5t-132.5 -53.5h-149v98h125q42 0 69 25t27 64q0 37 -27 61.5t-69 24.5h-111v81l68 185h102z" />
    <glyph glyph-name="ordmasculine" unicode="&#xba;" horiz-adv-x="1054" 
d="M526 1460q189 0 316 -128.5t127 -317.5q0 -191 -127 -320t-316 -129q-188 0 -315 127.5t-127 317.5q0 189 127.5 319.5t314.5 130.5zM260 1010q0 -117 76 -197t190 -80t191.5 80t77.5 197q0 120 -77.5 200t-191.5 80t-190 -80t-76 -200z" />
    <glyph glyph-name="guillemotright" unicode="&#xbb;" horiz-adv-x="1280" 
d="M104 1014l566 -418v-141l-566 -422v198l390 293l-390 291v199zM618 33v198l390 293l-390 291v199l566 -418v-141z" />
    <glyph glyph-name="onequarter" unicode="&#xbc;" horiz-adv-x="1470" 
d="M334 1434v-859h-131v601h-137v116h51q48 0 70 21.5t22 68.5v52h125zM176 0l830 1434h157l-829 -1434h-158zM801 193v116l254 551h141l-254 -551h238v201h127v-201h123v-116h-123v-193h-129v193h-377z" />
    <glyph glyph-name="onehalf" unicode="&#xbd;" horiz-adv-x="1548" 
d="M334 1434v-859h-131v601h-137v116h51q48 0 70 21.5t22 68.5v52h125zM176 0l830 1434h157l-829 -1434h-158zM899 0v106l299 302q70 69 99.5 112.5t29.5 97.5q0 57 -38.5 95.5t-98.5 38.5q-67 0 -112 -51.5t-42 -125.5h-131q-1 131 82 215t209 84q116 0 190 -71t74 -178
q0 -84 -42 -148.5t-132 -150.5l-190 -201h372v-125h-569z" />
    <glyph glyph-name="threequarters" unicode="&#xbe;" horiz-adv-x="1675" 
d="M365 561q-130 0 -212 76.5t-81 198.5h129q0 -66 45 -111t114 -45t115.5 41t46.5 102q0 59 -50 97t-126 38h-33v113h33q73 0 119.5 36.5t46.5 92.5q0 58 -41.5 94.5t-105.5 36.5q-67 0 -110.5 -40.5t-43.5 -102.5h-127q0 114 79.5 188t201.5 74q123 0 199.5 -65t76.5 -171
q0 -65 -36.5 -117.5t-102.5 -80.5q70 -22 111.5 -75.5t41.5 -127.5q0 -109 -82.5 -180.5t-207.5 -71.5zM381 0l829 1434h158l-829 -1434h-158zM1006 193v116l254 551h141l-254 -551h237v201h127v-201h123v-116h-123v-193h-129v193h-376z" />
    <glyph glyph-name="questiondown" unicode="&#xbf;" horiz-adv-x="974" 
d="M487 -459q-194 0 -312 111.5t-118 279.5q0 76 21 140t54.5 110t74.5 86t81.5 76.5t74.5 73t55.5 83.5t21.5 101h193q-1 -76 -22.5 -139t-54.5 -106t-72.5 -81t-79 -71.5t-71.5 -68t-52.5 -80t-20.5 -99.5q0 -98 61.5 -161.5t167.5 -63.5q119 0 185.5 79t64.5 209h195
q3 -213 -117.5 -346t-329.5 -133zM424 776v223h229v-223h-229z" />
    <glyph glyph-name="Agrave" unicode="&#xc0;" horiz-adv-x="1206" 
d="M23 0l487 1434h188l486 -1434h-215l-103 322h-532l-105 -322h-206zM279 1776h219l200 -260h-178zM375 508h442l-219 666z" />
    <glyph glyph-name="Aacute" unicode="&#xc1;" horiz-adv-x="1206" 
d="M23 0l487 1434h188l486 -1434h-215l-103 322h-532l-105 -322h-206zM375 508h442l-219 666zM502 1516l200 260h216l-240 -260h-176z" />
    <glyph glyph-name="Acircumflex" unicode="&#xc2;" horiz-adv-x="1206" 
d="M23 0l487 1434h188l486 -1434h-215l-103 322h-532l-105 -322h-206zM242 1516l262 266h201l260 -266h-197l-166 159l-168 -159h-192zM375 508h442l-219 666z" />
    <glyph glyph-name="Atilde" unicode="&#xc3;" horiz-adv-x="1206" 
d="M23 0l487 1434h188l486 -1434h-215l-103 322h-532l-105 -322h-206zM233 1516q1 123 57.5 191.5t143.5 68.5q55 0 119 -32t117 -63.5t82 -31.5q35 0 58 28.5t26 89.5h137q-1 -121 -60 -190.5t-147 -69.5q-44 0 -92.5 19.5t-83 43t-72.5 43t-63 19.5q-35 0 -59 -29t-27 -87
h-136zM375 508h442l-219 666z" />
    <glyph glyph-name="Adieresis" unicode="&#xc4;" horiz-adv-x="1206" 
d="M23 0l487 1434h188l486 -1434h-215l-103 322h-532l-105 -322h-206zM291 1522v186h194v-186h-194zM375 508h442l-219 666zM721 1522v186h194v-186h-194z" />
    <glyph glyph-name="Aring" unicode="&#xc5;" horiz-adv-x="1206" 
d="M23 0l487 1434h188l486 -1434h-215l-103 322h-532l-105 -322h-206zM334 1731q0 100 77 167.5t191 67.5q115 0 192.5 -67.5t77.5 -167.5t-77.5 -168t-192.5 -68q-114 0 -191 68t-77 168zM375 508h442l-219 666zM461 1731q0 -55 40.5 -92t100.5 -37q62 0 102.5 37t40.5 92
q0 54 -41 90.5t-102 36.5q-60 0 -100.5 -36.5t-40.5 -90.5z" />
    <glyph glyph-name="AE" unicode="&#xc6;" horiz-adv-x="1587" 
d="M-31 0l703 1434h827v-187h-508v-399h441v-180h-441v-482h508v-186h-704v344h-433l-169 -344h-224zM440 526h355v748z" />
    <glyph glyph-name="Ccedilla" unicode="&#xc7;" horiz-adv-x="1538" 
d="M86 721q0 154 55.5 291t151 234.5t229.5 154.5t285 57q251 0 436 -143.5t223 -368.5h-213q-40 145 -164 235.5t-282 90.5q-220 0 -369 -157.5t-149 -393.5q0 -239 149 -399t369 -160q160 0 285.5 96t160.5 246h217q-41 -224 -212 -368.5t-406 -158.5l-45 -116h24
q80 0 131.5 -50t51.5 -128q0 -82 -52.5 -135.5t-132.5 -53.5h-149v98h125q42 0 69 25t27 64q0 37 -27 61.5t-69 24.5h-111v81l47 129q-139 12 -261 74.5t-208.5 160t-136 230t-49.5 279.5z" />
    <glyph glyph-name="Egrave" unicode="&#xc8;" horiz-adv-x="960" 
d="M160 1434h710v-187h-512v-399h445v-180h-445v-482h512v-186h-710v1434zM199 1776h219l200 -260h-178z" />
    <glyph glyph-name="Eacute" unicode="&#xc9;" horiz-adv-x="960" 
d="M160 1434h710v-187h-512v-399h445v-180h-445v-482h512v-186h-710v1434zM422 1516l201 260h215l-240 -260h-176z" />
    <glyph glyph-name="Ecircumflex" unicode="&#xca;" horiz-adv-x="960" 
d="M160 1434h710v-187h-512v-399h445v-180h-445v-482h512v-186h-710v1434zM160 1516l262 266h201l260 -266h-197l-166 159l-168 -159h-192z" />
    <glyph glyph-name="Edieresis" unicode="&#xcb;" horiz-adv-x="960" 
d="M160 1434h710v-187h-512v-399h445v-180h-445v-482h512v-186h-710v1434zM209 1522v186h194v-186h-194zM639 1522v186h195v-186h-195z" />
    <glyph glyph-name="Igrave" unicode="&#xcc;" horiz-adv-x="516" 
d="M160 1434h198v-1434h-198v1434zM-66 1776h220l200 -260h-178z" />
    <glyph glyph-name="Iacute" unicode="&#xcd;" horiz-adv-x="516" 
d="M160 1434h198v-1434h-198v1434zM158 1516l200 260h215l-239 -260h-176z" />
    <glyph glyph-name="Icircumflex" unicode="&#xce;" horiz-adv-x="516" 
d="M160 1434h198v-1434h-198v1434zM-102 1516l262 266h200l261 -266h-197l-166 159l-168 -159h-192z" />
    <glyph glyph-name="Idieresis" unicode="&#xcf;" horiz-adv-x="516" 
d="M160 1434h198v-1434h-198v1434zM-53 1522v186h194v-186h-194zM377 1522v186h194v-186h-194z" />
    <glyph glyph-name="Eth" unicode="&#xd0;" horiz-adv-x="1466" 
d="M66 625v184h147v625h457q201 0 363 -92t253.5 -255t91.5 -364q0 -204 -91.5 -369.5t-253.5 -259.5t-363 -94h-457v625h-147zM412 186h270q212 0 354 154t142 383q0 148 -63.5 267.5t-177.5 188t-255 68.5h-270v-442h329v-176h-329v-443z" />
    <glyph glyph-name="Ntilde" unicode="&#xd1;" horiz-adv-x="1243" 
d="M758 676q38 -74 74 -150.5t52 -116.5l17 -40q-12 152 -12 338v727h194v-1434h-178l-422 791q-37 74 -72.5 150.5t-52.5 116.5l-16 40q10 -154 10 -340v-758h-192v1434h194zM252 1516q1 123 57.5 191.5t143.5 68.5q55 0 118.5 -32t116.5 -63.5t82 -31.5q35 0 58 28.5
t26 89.5h137q-1 -121 -60 -190.5t-147 -69.5q-44 0 -92.5 19.5t-83 43t-72.5 43t-63 19.5q-35 0 -59 -29t-27 -87h-135z" />
    <glyph glyph-name="Ograve" unicode="&#xd2;" horiz-adv-x="1636" 
d="M819 -25q-152 0 -288 58t-233.5 157t-154.5 237t-57 292q0 153 57 290t154.5 235.5t233.5 156t288 57.5t288 -57.5t233.5 -156t154.5 -235.5t57 -290q0 -154 -57 -292t-154.5 -237t-233.5 -157t-288 -58zM289 719q0 -154 70 -282t192 -201.5t268 -73.5t267.5 73.5
t191.5 201.5t70 282q0 152 -70 279t-191.5 200.5t-267.5 73.5t-268 -73.5t-192 -200.5t-70 -279zM496 1776h219l200 -260h-178z" />
    <glyph glyph-name="Oacute" unicode="&#xd3;" horiz-adv-x="1636" 
d="M819 -25q-152 0 -288 58t-233.5 157t-154.5 237t-57 292q0 153 57 290t154.5 235.5t233.5 156t288 57.5t288 -57.5t233.5 -156t154.5 -235.5t57 -290q0 -154 -57 -292t-154.5 -237t-233.5 -157t-288 -58zM289 719q0 -154 70 -282t192 -201.5t268 -73.5t267.5 73.5
t191.5 201.5t70 282q0 152 -70 279t-191.5 200.5t-267.5 73.5t-268 -73.5t-192 -200.5t-70 -279zM719 1516l201 260h215l-240 -260h-176z" />
    <glyph glyph-name="Ocircumflex" unicode="&#xd4;" horiz-adv-x="1636" 
d="M819 -25q-152 0 -288 58t-233.5 157t-154.5 237t-57 292q0 153 57 290t154.5 235.5t233.5 156t288 57.5t288 -57.5t233.5 -156t154.5 -235.5t57 -290q0 -154 -57 -292t-154.5 -237t-233.5 -157t-288 -58zM289 719q0 -154 70 -282t192 -201.5t268 -73.5t267.5 73.5
t191.5 201.5t70 282q0 152 -70 279t-191.5 200.5t-267.5 73.5t-268 -73.5t-192 -200.5t-70 -279zM457 1516l262 266h201l260 -266h-197l-166 159l-168 -159h-192z" />
    <glyph glyph-name="Otilde" unicode="&#xd5;" horiz-adv-x="1636" 
d="M819 -25q-152 0 -288 58t-233.5 157t-154.5 237t-57 292q0 153 57 290t154.5 235.5t233.5 156t288 57.5t288 -57.5t233.5 -156t154.5 -235.5t57 -290q0 -154 -57 -292t-154.5 -237t-233.5 -157t-288 -58zM289 719q0 -154 70 -282t192 -201.5t268 -73.5t267.5 73.5
t191.5 201.5t70 282q0 152 -70 279t-191.5 200.5t-267.5 73.5t-268 -73.5t-192 -200.5t-70 -279zM449 1516q1 123 57 191.5t143 68.5q55 0 119 -32t117 -63.5t82 -31.5q35 0 58 28.5t26 89.5h137q-1 -121 -60 -190.5t-147 -69.5q-44 0 -92.5 19.5t-83 43t-72.5 43t-63 19.5
q-35 0 -59 -29t-27 -87h-135z" />
    <glyph glyph-name="Odieresis" unicode="&#xd6;" horiz-adv-x="1636" 
d="M819 -25q-152 0 -288 58t-233.5 157t-154.5 237t-57 292q0 153 57 290t154.5 235.5t233.5 156t288 57.5t288 -57.5t233.5 -156t154.5 -235.5t57 -290q0 -154 -57 -292t-154.5 -237t-233.5 -157t-288 -58zM289 719q0 -154 70 -282t192 -201.5t268 -73.5t267.5 73.5
t191.5 201.5t70 282q0 152 -70 279t-191.5 200.5t-267.5 73.5t-268 -73.5t-192 -200.5t-70 -279zM508 1522v186h194v-186h-194zM938 1522v186h195v-186h-195z" />
    <glyph glyph-name="multiply" unicode="&#xd7;" horiz-adv-x="1269" 
d="M346 258l-127 125l291 291l-291 289l125 127l291 -291l291 293l125 -127l-289 -291l291 -291l-127 -127l-291 291z" />
    <glyph glyph-name="Oslash" unicode="&#xd8;" horiz-adv-x="1638" 
d="M248 -92l-137 117l163 192q-188 210 -188 502q0 153 57 290.5t155 235.5t234 155.5t289 57.5q220 0 402 -117l137 162l139 -117l-139 -163q92 -100 142 -229t50 -275q0 -153 -57 -291t-154.5 -237.5t-233 -157.5t-286.5 -58q-227 0 -411 123zM291 719q0 -200 112 -346
l693 821q-127 78 -275 78q-147 0 -269 -73.5t-191.5 -200.5t-69.5 -279zM535 248q128 -86 286 -86q145 0 267 74t192 202t70 281q0 198 -119 352z" />
    <glyph glyph-name="Ugrave" unicode="&#xd9;" horiz-adv-x="1245" 
d="M623 -25q-215 0 -345.5 139t-130.5 369v951h199v-955q0 -145 75.5 -231t201.5 -86q127 0 201.5 86t74.5 231v955h199v-951q0 -230 -130 -369t-345 -139zM299 1776h219l201 -260h-178z" />
    <glyph glyph-name="Uacute" unicode="&#xda;" horiz-adv-x="1245" 
d="M623 -25q-215 0 -345.5 139t-130.5 369v951h199v-955q0 -145 75.5 -231t201.5 -86q127 0 201.5 86t74.5 231v955h199v-951q0 -230 -130 -369t-345 -139zM522 1516l201 260h215l-240 -260h-176z" />
    <glyph glyph-name="Ucircumflex" unicode="&#xdb;" horiz-adv-x="1245" 
d="M623 -25q-215 0 -345.5 139t-130.5 369v951h199v-955q0 -145 75.5 -231t201.5 -86q127 0 201.5 86t74.5 231v955h199v-951q0 -230 -130 -369t-345 -139zM262 1516l262 266h201l260 -266h-197l-165 159l-168 -159h-193z" />
    <glyph glyph-name="Udieresis" unicode="&#xdc;" horiz-adv-x="1245" 
d="M623 -25q-215 0 -345.5 139t-130.5 369v951h199v-955q0 -145 75.5 -231t201.5 -86q127 0 201.5 86t74.5 231v955h199v-951q0 -230 -130 -369t-345 -139zM311 1522v186h195v-186h-195zM741 1522v186h195v-186h-195z" />
    <glyph glyph-name="Yacute" unicode="&#xdd;" horiz-adv-x="1099" 
d="M29 1434h217l305 -621l301 621h215l-418 -840v-594h-198v594zM449 1516l200 260h215l-239 -260h-176z" />
    <glyph glyph-name="Thorn" unicode="&#xde;" horiz-adv-x="1069" 
d="M160 1434h198v-287h191q199 0 321.5 -109t122.5 -290q0 -188 -123 -309.5t-317 -121.5h-195v-317h-198v1434zM358 502h183q116 0 185 65t69 172q0 101 -69 162.5t-185 61.5h-183v-461z" />
    <glyph glyph-name="germandbls" unicode="&#xdf;" horiz-adv-x="1204" 
d="M139 997q0 208 132 334.5t343 126.5q195 0 321 -114.5t126 -284.5q0 -109 -61.5 -195.5t-155.5 -109.5q130 -29 207 -122.5t77 -217.5q0 -178 -120.5 -296t-298.5 -118h-236v180h221q105 0 174.5 70t69.5 172q0 108 -76.5 177t-206.5 69h-182v161h168q97 0 163 64t66 158
q0 95 -74.5 164t-181.5 69q-126 0 -206 -78.5t-80 -204.5v-1001h-189v997z" />
    <glyph glyph-name="agrave" unicode="&#xe0;" horiz-adv-x="1077" 
d="M451 -25q-164 0 -263.5 82t-99.5 217q0 151 123 240.5t348 89.5h203v33q0 107 -63 169t-173 62q-95 0 -164 -55.5t-75 -140.5h-187q6 154 127 253t301 99q196 0 309 -109t113 -294v-621h-184v135q-52 -72 -137 -116t-178 -44zM223 1403h215l193 -299h-174zM272 279
q0 -70 51 -113t142 -43q128 0 214.5 89.5t86.5 219.5v31h-203q-140 0 -215.5 -47t-75.5 -137z" />
    <glyph glyph-name="aacute" unicode="&#xe1;" horiz-adv-x="1077" 
d="M451 -25q-164 0 -263.5 82t-99.5 217q0 151 123 240.5t348 89.5h203v33q0 107 -63 169t-173 62q-95 0 -164 -55.5t-75 -140.5h-187q6 154 127 253t301 99q196 0 309 -109t113 -294v-621h-184v135q-52 -72 -137 -116t-178 -44zM272 279q0 -70 51 -113t142 -43
q128 0 214.5 89.5t86.5 219.5v31h-203q-140 0 -215.5 -47t-75.5 -137zM455 1104l202 297h207l-237 -297h-172z" />
    <glyph glyph-name="acircumflex" unicode="&#xe2;" horiz-adv-x="1077" 
d="M451 -25q-164 0 -263.5 82t-99.5 217q0 151 123 240.5t348 89.5h203v33q0 107 -63 169t-173 62q-95 0 -164 -55.5t-75 -140.5h-187q6 154 127 253t301 99q196 0 309 -109t113 -294v-621h-184v135q-52 -72 -137 -116t-178 -44zM209 1104l223 297h203l223 -297h-174
l-152 180l-151 -180h-172zM272 279q0 -70 51 -113t142 -43q128 0 214.5 89.5t86.5 219.5v31h-203q-140 0 -215.5 -47t-75.5 -137z" />
    <glyph glyph-name="atilde" unicode="&#xe3;" horiz-adv-x="1077" 
d="M451 -25q-164 0 -263.5 82t-99.5 217q0 151 123 240.5t348 89.5h203v33q0 107 -63 169t-173 62q-95 0 -164 -55.5t-75 -140.5h-187q6 154 127 253t301 99q196 0 309 -109t113 -294v-621h-184v135q-52 -72 -137 -116t-178 -44zM182 1120q0 142 54.5 215.5t144.5 73.5
q37 0 71.5 -16t61.5 -39t52 -46t51 -39t51 -16q83 0 86 148h129q0 -141 -56.5 -215t-148.5 -74q-45 0 -86.5 24t-68.5 53t-60.5 53t-63.5 24q-85 0 -88 -146h-129zM272 279q0 -70 51 -113t142 -43q128 0 214.5 89.5t86.5 219.5v31h-203q-140 0 -215.5 -47t-75.5 -137z" />
    <glyph glyph-name="adieresis" unicode="&#xe4;" horiz-adv-x="1077" 
d="M451 -25q-164 0 -263.5 82t-99.5 217q0 151 123 240.5t348 89.5h203v33q0 107 -63 169t-173 62q-95 0 -164 -55.5t-75 -140.5h-187q6 154 127 253t301 99q196 0 309 -109t113 -294v-621h-184v135q-52 -72 -137 -116t-178 -44zM242 1143v188h202v-188h-202zM272 279
q0 -70 51 -113t142 -43q128 0 214.5 89.5t86.5 219.5v31h-203q-140 0 -215.5 -47t-75.5 -137zM623 1143v188h202v-188h-202z" />
    <glyph glyph-name="aring" unicode="&#xe5;" horiz-adv-x="1077" 
d="M451 -25q-164 0 -263.5 82t-99.5 217q0 151 123 240.5t348 89.5h203v33q0 107 -63 169t-173 62q-95 0 -164 -55.5t-75 -140.5h-187q6 154 127 253t301 99q196 0 309 -109t113 -294v-621h-184v135q-52 -72 -137 -116t-178 -44zM264 1327q0 101 77 168.5t191 67.5
q116 0 193.5 -67.5t77.5 -168.5q0 -100 -78 -167.5t-193 -67.5q-114 0 -191 67.5t-77 167.5zM272 279q0 -70 51 -113t142 -43q128 0 214.5 89.5t86.5 219.5v31h-203q-140 0 -215.5 -47t-75.5 -137zM391 1327q0 -54 40.5 -91.5t100.5 -37.5q61 0 102.5 37.5t41.5 91.5
q0 55 -41 91t-103 36q-60 0 -100.5 -36t-40.5 -91z" />
    <glyph glyph-name="ae" unicode="&#xe6;" horiz-adv-x="1832" 
d="M1272 -25q-136 0 -244.5 59.5t-173.5 162.5q-62 -106 -171 -164t-241 -58q-157 0 -254.5 83t-97.5 212q0 155 124 244.5t349 89.5h199v27q0 112 -62 174.5t-172 62.5q-94 0 -163.5 -55.5t-75.5 -140.5h-189q7 154 128.5 253t301.5 99q131 0 223 -49t140 -141
q67 90 166 140t217 50q205 0 345 -139t140 -342q0 -45 -8 -84h-811q13 -147 109 -235.5t231 -88.5q105 0 183 49.5t98 128.5h186q-36 -149 -165 -243.5t-312 -94.5zM274 276q0 -68 51 -110.5t144 -42.5q127 0 213 90.5t86 222.5v27h-205q-140 0 -214.5 -48t-74.5 -139z
M956 614h613q-9 108 -93 178t-200 70q-108 0 -197.5 -67.5t-122.5 -180.5z" />
    <glyph glyph-name="ccedilla" unicode="&#xe7;" horiz-adv-x="1130" 
d="M76 498q0 147 69.5 268t188.5 189.5t262 68.5q175 0 309.5 -105.5t159.5 -263.5h-191q-22 83 -101.5 139t-178.5 56q-141 0 -237.5 -101t-96.5 -251q0 -148 96.5 -248t237.5 -100q101 0 180.5 56t99.5 144h191q-20 -151 -136.5 -253t-277.5 -120l-45 -116h25
q80 0 131 -50t51 -128q0 -82 -52 -135.5t-132 -53.5h-150v98h125q42 0 69 25t27 64q0 37 -27 61.5t-69 24.5h-110v81l47 129q-199 21 -332 167t-133 354z" />
    <glyph glyph-name="egrave" unicode="&#xe8;" horiz-adv-x="1148" 
d="M588 -25q-147 0 -265 69.5t-182.5 187.5t-64.5 260q0 149 71.5 272t189.5 191.5t255 68.5q206 0 344.5 -139t138.5 -342q0 -49 -6 -84h-811q12 -145 107.5 -234.5t232.5 -89.5q102 0 180.5 49.5t100.5 128.5h186q-36 -150 -166 -244t-311 -94zM266 1403h215l193 -299
h-174zM272 614h611q-6 105 -88.5 176.5t-202.5 71.5q-111 0 -199.5 -67.5t-120.5 -180.5z" />
    <glyph glyph-name="eacute" unicode="&#xe9;" horiz-adv-x="1148" 
d="M588 -25q-147 0 -265 69.5t-182.5 187.5t-64.5 260q0 149 71.5 272t189.5 191.5t255 68.5q206 0 344.5 -139t138.5 -342q0 -49 -6 -84h-811q12 -145 107.5 -234.5t232.5 -89.5q102 0 180.5 49.5t100.5 128.5h186q-36 -150 -166 -244t-311 -94zM272 614h611
q-6 105 -88.5 176.5t-202.5 71.5q-111 0 -199.5 -67.5t-120.5 -180.5zM498 1104l202 297h207l-237 -297h-172z" />
    <glyph glyph-name="ecircumflex" unicode="&#xea;" horiz-adv-x="1148" 
d="M588 -25q-147 0 -265 69.5t-182.5 187.5t-64.5 260q0 149 71.5 272t189.5 191.5t255 68.5q206 0 344.5 -139t138.5 -342q0 -49 -6 -84h-811q12 -145 107.5 -234.5t232.5 -89.5q102 0 180.5 49.5t100.5 128.5h186q-36 -150 -166 -244t-311 -94zM252 1104l223 297h203
l223 -297h-174l-152 180l-151 -180h-172zM272 614h611q-6 105 -88.5 176.5t-202.5 71.5q-111 0 -199.5 -67.5t-120.5 -180.5z" />
    <glyph glyph-name="edieresis" unicode="&#xeb;" horiz-adv-x="1148" 
d="M588 -25q-147 0 -265 69.5t-182.5 187.5t-64.5 260q0 149 71.5 272t189.5 191.5t255 68.5q206 0 344.5 -139t138.5 -342q0 -49 -6 -84h-811q12 -145 107.5 -234.5t232.5 -89.5q102 0 180.5 49.5t100.5 128.5h186q-36 -150 -166 -244t-311 -94zM272 614h611
q-6 105 -88.5 176.5t-202.5 71.5q-111 0 -199.5 -67.5t-120.5 -180.5zM285 1143v188h202v-188h-202zM666 1143v188h202v-188h-202z" />
    <glyph glyph-name="igrave" unicode="&#xec;" horiz-adv-x="471" 
d="M141 999h189v-999h-189v999zM-74 1403h215l193 -299h-174z" />
    <glyph glyph-name="iacute" unicode="&#xed;" horiz-adv-x="471" 
d="M141 999h189v-999h-189v999zM156 1104l202 297h207l-237 -297h-172z" />
    <glyph glyph-name="icircumflex" unicode="&#xee;" horiz-adv-x="471" 
d="M141 999h189v-999h-189v999zM-90 1104l223 297h203l223 -297h-174l-152 180l-151 -180h-172z" />
    <glyph glyph-name="idieresis" unicode="&#xef;" horiz-adv-x="471" 
d="M141 999h189v-999h-189v999zM-55 1143v188h202v-188h-202zM326 1143v188h202v-188h-202z" />
    <glyph glyph-name="eth" unicode="&#xf0;" horiz-adv-x="1206" 
d="M598 -25q-227 0 -374.5 144.5t-147.5 365.5q0 215 147 360.5t365 145.5q76 0 170 -33l-135 220l-304 -43l-16 120l248 35l-88 144h215l70 -115l210 29l17 -121l-158 -23l174 -289q137 -222 137 -421q0 -141 -71 -260.5t-193 -189t-266 -69.5zM260 492q0 -145 96 -241.5
t242 -96.5t242 96.5t96 241.5q0 149 -95.5 248.5t-240.5 99.5q-146 0 -243 -99.5t-97 -248.5z" />
    <glyph glyph-name="ntilde" unicode="&#xf1;" horiz-adv-x="1159" 
d="M141 0v999h185v-118q57 68 136.5 105.5t172.5 37.5q179 0 288 -121t109 -328v-575h-190v571q0 123 -66.5 201t-183.5 78q-116 0 -190 -79t-74 -210v-561h-187zM229 1120q0 142 54.5 215.5t144.5 73.5q37 0 71.5 -16t61.5 -39t52 -46t51 -39t51 -16q83 0 86 148h129
q0 -141 -56.5 -215t-148.5 -74q-45 0 -86.5 24t-68.5 53t-60.5 53t-63.5 24q-85 0 -88 -146h-129z" />
    <glyph glyph-name="ograve" unicode="&#xf2;" horiz-adv-x="1198" 
d="M598 -25q-107 0 -204 40.5t-166.5 110t-110.5 167.5t-41 207q0 144 69.5 264.5t189.5 190t263 69.5t263.5 -69.5t190.5 -190t70 -264.5q0 -146 -70 -267t-190 -189.5t-264 -68.5zM260 500q0 -149 96.5 -249.5t241.5 -100.5q143 0 241.5 100.5t98.5 249.5q0 148 -98.5 249
t-241.5 101q-144 0 -241 -101t-97 -249zM291 1403h215l192 -299h-174z" />
    <glyph glyph-name="oacute" unicode="&#xf3;" horiz-adv-x="1198" 
d="M598 -25q-107 0 -204 40.5t-166.5 110t-110.5 167.5t-41 207q0 144 69.5 264.5t189.5 190t263 69.5t263.5 -69.5t190.5 -190t70 -264.5q0 -146 -70 -267t-190 -189.5t-264 -68.5zM260 500q0 -149 96.5 -249.5t241.5 -100.5q143 0 241.5 100.5t98.5 249.5q0 148 -98.5 249
t-241.5 101q-144 0 -241 -101t-97 -249zM520 1104l203 297h207l-238 -297h-172z" />
    <glyph glyph-name="ocircumflex" unicode="&#xf4;" horiz-adv-x="1198" 
d="M598 -25q-107 0 -204 40.5t-166.5 110t-110.5 167.5t-41 207q0 144 69.5 264.5t189.5 190t263 69.5t263.5 -69.5t190.5 -190t70 -264.5q0 -146 -70 -267t-190 -189.5t-264 -68.5zM260 500q0 -149 96.5 -249.5t241.5 -100.5q143 0 241.5 100.5t98.5 249.5q0 148 -98.5 249
t-241.5 101q-144 0 -241 -101t-97 -249zM274 1104l224 297h202l224 -297h-174l-152 180l-152 -180h-172z" />
    <glyph glyph-name="otilde" unicode="&#xf5;" horiz-adv-x="1198" 
d="M598 -25q-107 0 -204 40.5t-166.5 110t-110.5 167.5t-41 207q0 144 69.5 264.5t189.5 190t263 69.5t263.5 -69.5t190.5 -190t70 -264.5q0 -146 -70 -267t-190 -189.5t-264 -68.5zM248 1120q0 143 54 216t144 73q37 0 71.5 -16t61.5 -39t52 -46t51 -39t51 -16q83 0 86 148
h129q0 -141 -56.5 -215t-148.5 -74q-45 0 -86.5 24t-68 53t-60 53t-63.5 24q-85 0 -88 -146h-129zM260 500q0 -149 96.5 -249.5t241.5 -100.5q143 0 241.5 100.5t98.5 249.5q0 148 -98.5 249t-241.5 101q-144 0 -241 -101t-97 -249z" />
    <glyph glyph-name="odieresis" unicode="&#xf6;" horiz-adv-x="1198" 
d="M598 -25q-107 0 -204 40.5t-166.5 110t-110.5 167.5t-41 207q0 144 69.5 264.5t189.5 190t263 69.5t263.5 -69.5t190.5 -190t70 -264.5q0 -146 -70 -267t-190 -189.5t-264 -68.5zM260 500q0 -149 96.5 -249.5t241.5 -100.5q143 0 241.5 100.5t98.5 249.5q0 148 -98.5 249
t-241.5 101q-144 0 -241 -101t-97 -249zM307 1143v188h203v-188h-203zM688 1143v188h203v-188h-203z" />
    <glyph glyph-name="divide" unicode="&#xf7;" horiz-adv-x="1269" 
d="M522 1145h228v-203h-228v203zM174 584v174h922v-174h-922zM522 195v202h228v-202h-228z" />
    <glyph glyph-name="oslash" unicode="&#xf8;" horiz-adv-x="1198" 
d="M227 -78l-118 103l98 120q-129 148 -129 353q0 146 68 266.5t188 190.5t266 71q148 0 274 -74l101 121l121 -102l-101 -121q125 -147 125 -348q0 -225 -149 -376t-371 -151q-149 0 -270 70zM256 498q0 -118 66 -213l442 534q-74 41 -164 41q-147 0 -245.5 -104
t-98.5 -258zM442 180q76 -37 158 -37q145 0 243.5 103t98.5 252q0 122 -63 213z" />
    <glyph glyph-name="ugrave" unicode="&#xf9;" horiz-adv-x="1159" 
d="M1018 999v-999h-184v119q-57 -68 -137 -106t-173 -38q-179 0 -288 121t-109 328v575h190v-571q0 -123 66.5 -200.5t183.5 -77.5q116 0 190 78.5t74 209.5v561h187zM270 1403h215l193 -299h-174z" />
    <glyph glyph-name="uacute" unicode="&#xfa;" horiz-adv-x="1159" 
d="M1018 999v-999h-184v119q-57 -68 -137 -106t-173 -38q-179 0 -288 121t-109 328v575h190v-571q0 -123 66.5 -200.5t183.5 -77.5q116 0 190 78.5t74 209.5v561h187zM500 1104l202 297h207l-237 -297h-172z" />
    <glyph glyph-name="ucircumflex" unicode="&#xfb;" horiz-adv-x="1159" 
d="M1018 999v-999h-184v119q-57 -68 -137 -106t-173 -38q-179 0 -288 121t-109 328v575h190v-571q0 -123 66.5 -200.5t183.5 -77.5q116 0 190 78.5t74 209.5v561h187zM254 1104l223 297h203l223 -297h-174l-151 180l-152 -180h-172z" />
    <glyph glyph-name="udieresis" unicode="&#xfc;" horiz-adv-x="1159" 
d="M1018 999v-999h-184v119q-57 -68 -137 -106t-173 -38q-179 0 -288 121t-109 328v575h190v-571q0 -123 66.5 -200.5t183.5 -77.5q116 0 190 78.5t74 209.5v561h187zM289 1143v188h203v-188h-203zM670 1143v188h202v-188h-202z" />
    <glyph glyph-name="yacute" unicode="&#xfd;" horiz-adv-x="1046" 
d="M25 999h200l301 -739l295 739h203l-580 -1384h-198l182 426zM446 1104l203 297h207l-238 -297h-172z" />
    <glyph glyph-name="thorn" unicode="&#xfe;" horiz-adv-x="1275" 
d="M141 -385v1819h185v-578q64 79 158.5 123.5t203.5 44.5q217 0 364.5 -149t147.5 -373q0 -147 -67.5 -268t-185 -190t-259.5 -69q-109 0 -203.5 44t-158.5 122v-526h-185zM326 498q0 -148 99 -247t245 -99q142 0 243 101.5t101 244.5q0 147 -100.5 247.5t-243.5 100.5
q-148 0 -246 -98t-98 -250z" />
    <glyph glyph-name="ydieresis" unicode="&#xff;" horiz-adv-x="1046" 
d="M25 999h200l301 -739l295 739h203l-580 -1384h-198l182 426zM233 1143v188h203v-188h-203zM614 1143v188h203v-188h-203z" />
    <glyph glyph-name="Amacron" unicode="&#x100;" horiz-adv-x="1206" 
d="M23 0l487 1434h188l486 -1434h-215l-103 322h-532l-105 -322h-206zM268 1548v144h668v-144h-668zM375 508h442l-219 666z" />
    <glyph glyph-name="amacron" unicode="&#x101;" horiz-adv-x="1077" 
d="M451 -25q-164 0 -263.5 82t-99.5 217q0 151 123 240.5t348 89.5h203v33q0 107 -63 169t-173 62q-95 0 -164 -55.5t-75 -140.5h-187q6 154 127 253t301 99q196 0 309 -109t113 -294v-621h-184v135q-52 -72 -137 -116t-178 -44zM209 1135v149h647v-149h-647zM272 279
q0 -70 51 -113t142 -43q128 0 214.5 89.5t86.5 219.5v31h-203q-140 0 -215.5 -47t-75.5 -137z" />
    <glyph glyph-name="Abreve" unicode="&#x102;" horiz-adv-x="1206" 
d="M23 0l487 1434h188l486 -1434h-215l-103 322h-532l-105 -322h-206zM299 1780h154q0 -71 41 -113.5t108 -42.5q68 0 110 42.5t42 113.5h151q-6 -133 -88 -206t-215 -73t-214.5 73t-88.5 206zM375 508h442l-219 666z" />
    <glyph glyph-name="abreve" unicode="&#x103;" horiz-adv-x="1077" 
d="M451 -25q-164 0 -263.5 82t-99.5 217q0 151 123 240.5t348 89.5h203v33q0 107 -63 169t-173 62q-95 0 -164 -55.5t-75 -140.5h-187q6 154 127 253t301 99q196 0 309 -109t113 -294v-621h-184v135q-52 -72 -137 -116t-178 -44zM231 1395h146q2 -77 45 -127.5t110 -50.5
q68 0 112 50.5t46 127.5h146q0 -136 -85.5 -220.5t-218.5 -84.5q-130 0 -215.5 85t-85.5 220zM272 279q0 -70 51 -113t142 -43q128 0 214.5 89.5t86.5 219.5v31h-203q-140 0 -215.5 -47t-75.5 -137z" />
    <glyph glyph-name="Aogonek" unicode="&#x104;" horiz-adv-x="1206" 
d="M23 0l487 1434h188l486 -1434q-69 -53 -100 -94t-31 -88q0 -43 29 -64.5t77 -21.5h45l-37 -144h-55q-99 0 -153 52.5t-54 136.5q0 67 27.5 119.5t85.5 103.5h-49l-103 322h-532l-105 -322h-206zM375 508h442l-219 666z" />
    <glyph glyph-name="aogonek" unicode="&#x105;" horiz-adv-x="1077" 
d="M451 -25q-164 0 -263.5 82t-99.5 217q0 151 123 240.5t348 89.5h203v33q0 107 -63 169t-173 62q-95 0 -164 -55.5t-75 -140.5h-187q6 154 127 253t301 99q196 0 309 -109t113 -294v-621q-69 -53 -100 -94t-31 -88q0 -43 29.5 -64.5t77.5 -21.5h45l-37 -144h-55
q-99 0 -153 52.5t-54 136.5q0 68 27 120t85 103h-18v135q-52 -72 -137 -116t-178 -44zM272 279q0 -70 51 -113t142 -43q128 0 214.5 89.5t86.5 219.5v31h-203q-140 0 -215.5 -47t-75.5 -137z" />
    <glyph glyph-name="Cacute" unicode="&#x106;" horiz-adv-x="1538" 
d="M807 -25q-202 0 -367.5 98t-259.5 269t-94 379q0 154 55.5 291t151 234.5t229.5 154.5t285 57q251 0 436 -143.5t223 -368.5h-213q-40 145 -164 235.5t-282 90.5q-220 0 -369 -157.5t-149 -393.5q0 -239 149 -399t369 -160q160 0 285.5 96t160.5 246h217
q-43 -235 -228 -382t-435 -147zM705 1516l200 260h215l-239 -260h-176z" />
    <glyph glyph-name="cacute" unicode="&#x107;" horiz-adv-x="1130" 
d="M596 -25q-143 0 -262 68t-188.5 188t-69.5 267t69.5 268t188.5 189.5t262 68.5q175 0 309.5 -105.5t159.5 -263.5h-191q-22 83 -101.5 139t-178.5 56q-141 0 -237.5 -101t-96.5 -251q0 -148 96.5 -248t237.5 -100q101 0 180.5 56t99.5 144h191q-21 -165 -155.5 -270
t-313.5 -105zM518 1104l203 297h207l-238 -297h-172z" />
    <glyph glyph-name="Ccircumflex" unicode="&#x108;" horiz-adv-x="1538" 
d="M807 -25q-202 0 -367.5 98t-259.5 269t-94 379q0 154 55.5 291t151 234.5t229.5 154.5t285 57q251 0 436 -143.5t223 -368.5h-213q-40 145 -164 235.5t-282 90.5q-220 0 -369 -157.5t-149 -393.5q0 -239 149 -399t369 -160q160 0 285.5 96t160.5 246h217
q-43 -235 -228 -382t-435 -147zM442 1516l263 266h200l260 -266h-196l-166 159l-168 -159h-193z" />
    <glyph glyph-name="ccircumflex" unicode="&#x109;" horiz-adv-x="1130" 
d="M596 -25q-143 0 -262 68t-188.5 188t-69.5 267t69.5 268t188.5 189.5t262 68.5q175 0 309.5 -105.5t159.5 -263.5h-191q-22 83 -101.5 139t-178.5 56q-141 0 -237.5 -101t-96.5 -251q0 -148 96.5 -248t237.5 -100q101 0 180.5 56t99.5 144h191q-21 -165 -155.5 -270
t-313.5 -105zM272 1104l224 297h202l224 -297h-174l-152 180l-152 -180h-172z" />
    <glyph glyph-name="Cdotaccent" unicode="&#x10a;" horiz-adv-x="1538" 
d="M807 -25q-202 0 -367.5 98t-259.5 269t-94 379q0 154 55.5 291t151 234.5t229.5 154.5t285 57q251 0 436 -143.5t223 -368.5h-213q-40 145 -164 235.5t-282 90.5q-220 0 -369 -157.5t-149 -393.5q0 -239 149 -399t369 -160q160 0 285.5 96t160.5 246h217
q-43 -235 -228 -382t-435 -147zM696 1522v186h217v-186h-217z" />
    <glyph glyph-name="cdotaccent" unicode="&#x10b;" horiz-adv-x="1130" 
d="M596 -25q-143 0 -262 68t-188.5 188t-69.5 267t69.5 268t188.5 189.5t262 68.5q175 0 309.5 -105.5t159.5 -263.5h-191q-22 83 -101.5 139t-178.5 56q-141 0 -237.5 -101t-96.5 -251q0 -148 96.5 -248t237.5 -100q101 0 180.5 56t99.5 144h191q-21 -165 -155.5 -270
t-313.5 -105zM494 1198v236h204v-236h-204z" />
    <glyph glyph-name="Ccaron" unicode="&#x10c;" horiz-adv-x="1538" 
d="M807 -25q-202 0 -367.5 98t-259.5 269t-94 379q0 154 55.5 291t151 234.5t229.5 154.5t285 57q251 0 436 -143.5t223 -368.5h-213q-40 145 -164 235.5t-282 90.5q-220 0 -369 -157.5t-149 -393.5q0 -239 149 -399t369 -160q160 0 285.5 96t160.5 246h217
q-43 -235 -228 -382t-435 -147zM444 1790h193l168 -168l168 168h192l-260 -274h-200z" />
    <glyph glyph-name="ccaron" unicode="&#x10d;" horiz-adv-x="1130" 
d="M596 -25q-143 0 -262 68t-188.5 188t-69.5 267t69.5 268t188.5 189.5t262 68.5q175 0 309.5 -105.5t159.5 -263.5h-191q-22 83 -101.5 139t-178.5 56q-141 0 -237.5 -101t-96.5 -251q0 -148 96.5 -248t237.5 -100q101 0 180.5 56t99.5 144h191q-21 -165 -155.5 -270
t-313.5 -105zM272 1401h174l152 -180l150 180h174l-224 -297h-202z" />
    <glyph glyph-name="Dcaron" unicode="&#x10e;" horiz-adv-x="1413" 
d="M616 1434q151 0 282.5 -54t225 -148t147.5 -226t54 -283q0 -204 -91.5 -369.5t-254 -259.5t-363.5 -94h-456v1434h456zM256 1790h193l167 -168l168 168h193l-260 -274h-201zM358 186h271q212 0 353.5 154t141.5 383q0 225 -140.5 374.5t-354.5 149.5h-271v-1061z" />
    <glyph glyph-name="dcaron" unicode="&#x10f;" horiz-adv-x="1337" 
d="M584 -25q-142 0 -258.5 67t-184 187t-67.5 269q0 226 147 376t363 150q111 0 205 -44t157 -122v576h189v-1434h-189v141q-63 -78 -157 -122t-205 -44zM260 500q0 -147 99 -245.5t243 -98.5q148 0 246 96t98 248q0 149 -98.5 247.5t-245.5 98.5q-143 0 -242.5 -100
t-99.5 -246zM1268 1096l41 409h176l-74 -409h-143z" />
    <glyph glyph-name="Dcroat" unicode="&#x110;" horiz-adv-x="1466" 
d="M66 625v184h147v625h457q201 0 363 -92t253.5 -255t91.5 -364q0 -204 -91.5 -369.5t-253.5 -259.5t-363 -94h-457v625h-147zM412 186h270q212 0 354 154t142 383q0 148 -63.5 267.5t-177.5 188t-255 68.5h-270v-442h329v-176h-329v-443z" />
    <glyph glyph-name="dcroat" unicode="&#x111;" horiz-adv-x="1277" 
d="M639 1180v120h307v134h189v-134h147v-120h-147v-1180h-189v141q-63 -78 -157 -122t-205 -44q-142 0 -258.5 67t-184 187t-67.5 269q0 226 147 376t363 150q111 0 205 -44t157 -122v322h-307zM260 500q0 -147 99 -245.5t243 -98.5q148 0 246 96t98 248q0 149 -98.5 247.5
t-245.5 98.5q-143 0 -242.5 -100t-99.5 -246z" />
    <glyph glyph-name="Emacron" unicode="&#x112;" horiz-adv-x="960" 
d="M160 1434h710v-187h-512v-399h445v-180h-445v-482h512v-186h-710v1434zM188 1548v144h668v-144h-668z" />
    <glyph glyph-name="emacron" unicode="&#x113;" horiz-adv-x="1148" 
d="M588 -25q-147 0 -265 69.5t-182.5 187.5t-64.5 260q0 149 71.5 272t189.5 191.5t255 68.5q206 0 344.5 -139t138.5 -342q0 -49 -6 -84h-811q12 -145 107.5 -234.5t232.5 -89.5q102 0 180.5 49.5t100.5 128.5h186q-36 -150 -166 -244t-311 -94zM252 1135v149h647v-149
h-647zM272 614h611q-6 105 -88.5 176.5t-202.5 71.5q-111 0 -199.5 -67.5t-120.5 -180.5z" />
    <glyph glyph-name="Ebreve" unicode="&#x114;" horiz-adv-x="960" 
d="M160 1434h710v-187h-512v-399h445v-180h-445v-482h512v-186h-710v1434zM219 1780h154q0 -71 41 -113.5t108 -42.5q68 0 110 42.5t42 113.5h151q-6 -133 -88 -206t-215 -73t-214.5 73t-88.5 206z" />
    <glyph glyph-name="ebreve" unicode="&#x115;" horiz-adv-x="1148" 
d="M588 -25q-147 0 -265 69.5t-182.5 187.5t-64.5 260q0 149 71.5 272t189.5 191.5t255 68.5q206 0 344.5 -139t138.5 -342q0 -49 -6 -84h-811q12 -145 107.5 -234.5t232.5 -89.5q102 0 180.5 49.5t100.5 128.5h186q-36 -150 -166 -244t-311 -94zM272 614h611
q-6 105 -88.5 176.5t-202.5 71.5q-111 0 -199.5 -67.5t-120.5 -180.5zM274 1395h146q2 -77 45 -127.5t110 -50.5q68 0 112 50.5t46 127.5h146q0 -136 -85.5 -220.5t-218.5 -84.5q-130 0 -215.5 85t-85.5 220z" />
    <glyph glyph-name="Edotaccent" unicode="&#x116;" horiz-adv-x="960" 
d="M160 1434h710v-187h-512v-399h445v-180h-445v-482h512v-186h-710v1434zM414 1522v186h217v-186h-217z" />
    <glyph glyph-name="edotaccent" unicode="&#x117;" horiz-adv-x="1148" 
d="M588 -25q-147 0 -265 69.5t-182.5 187.5t-64.5 260q0 149 71.5 272t189.5 191.5t255 68.5q206 0 344.5 -139t138.5 -342q0 -49 -6 -84h-811q12 -145 107.5 -234.5t232.5 -89.5q102 0 180.5 49.5t100.5 128.5h186q-36 -150 -166 -244t-311 -94zM272 614h611
q-6 105 -88.5 176.5t-202.5 71.5q-111 0 -199.5 -67.5t-120.5 -180.5zM473 1198v236h205v-236h-205z" />
    <glyph glyph-name="Eogonek" unicode="&#x118;" horiz-adv-x="960" 
d="M160 1434h710v-187h-512v-399h445v-180h-445v-482h512v-186q-69 -53 -100 -94t-31 -88q0 -43 29.5 -64.5t77.5 -21.5h45l-37 -144h-55q-99 0 -153 52.5t-54 136.5q0 67 27.5 119.5t85.5 103.5h-545v1434z" />
    <glyph glyph-name="eogonek" unicode="&#x119;" horiz-adv-x="1148" 
d="M684 -412q-99 0 -153 52.5t-54 136.5q0 113 88 198q-214 9 -351.5 158t-137.5 359q0 149 71.5 272t189.5 191.5t255 68.5q206 0 344.5 -139t138.5 -342q0 -49 -6 -84h-811q12 -145 107.5 -234.5t232.5 -89.5q102 0 180.5 49.5t100.5 128.5h186q-26 -112 -108 -195
t-201 -118q-69 -53 -100 -94t-31 -88q0 -43 29 -64.5t77 -21.5h45l-37 -144h-55zM272 614h611q-6 105 -88.5 176.5t-202.5 71.5q-111 0 -199.5 -67.5t-120.5 -180.5z" />
    <glyph glyph-name="Ecaron" unicode="&#x11a;" horiz-adv-x="960" 
d="M160 1434h710v-187h-512v-399h445v-180h-445v-482h512v-186h-710v1434zM162 1790h192l168 -168l168 168h193l-260 -274h-201z" />
    <glyph glyph-name="ecaron" unicode="&#x11b;" horiz-adv-x="1148" 
d="M588 -25q-147 0 -265 69.5t-182.5 187.5t-64.5 260q0 149 71.5 272t189.5 191.5t255 68.5q206 0 344.5 -139t138.5 -342q0 -49 -6 -84h-811q12 -145 107.5 -234.5t232.5 -89.5q102 0 180.5 49.5t100.5 128.5h186q-36 -150 -166 -244t-311 -94zM252 1401h174l152 -180
l149 180h174l-223 -297h-203zM272 614h611q-6 105 -88.5 176.5t-202.5 71.5q-111 0 -199.5 -67.5t-120.5 -180.5z" />
    <glyph glyph-name="Gcircumflex" unicode="&#x11c;" horiz-adv-x="1572" 
d="M807 -25q-151 0 -284.5 56.5t-229 155t-150.5 236t-55 294.5q0 206 96 376t263 267.5t368 97.5q240 0 411.5 -128.5t233.5 -321.5h-217q-54 118 -175.5 193t-256.5 75q-142 0 -261.5 -72t-190 -200t-70.5 -283q0 -243 150 -403t376 -160q201 0 331.5 125.5t139.5 308.5
h-465v182h666q2 -29 2 -94q0 -193 -85.5 -353.5t-242.5 -256t-354 -95.5zM455 1516l262 266h201l260 -266h-197l-166 159l-168 -159h-192z" />
    <glyph glyph-name="gcircumflex" unicode="&#x11d;" horiz-adv-x="1255" 
d="M485 -385q-188 0 -282 89t-94 245v33h188v-31q0 -81 56 -127.5t167 -46.5h185q114 0 168.5 56.5t54.5 176.5v174q-63 -75 -152 -116t-196 -41q-215 0 -358.5 140t-143.5 357q0 215 144 358.5t358 143.5q110 0 201.5 -45t156.5 -125v143h178v-983q0 -191 -100.5 -296
t-290.5 -105h-240zM268 524q0 -143 95 -239.5t237 -96.5q147 0 242.5 94.5t95.5 241.5q0 146 -96 241t-242 95q-141 0 -236.5 -97.5t-95.5 -238.5zM309 1104l223 297h203l223 -297h-174l-151 180l-152 -180h-172z" />
    <glyph glyph-name="Gbreve" unicode="&#x11e;" horiz-adv-x="1572" 
d="M807 -25q-151 0 -284.5 56.5t-229 155t-150.5 236t-55 294.5q0 206 96 376t263 267.5t368 97.5q240 0 411.5 -128.5t233.5 -321.5h-217q-54 118 -175.5 193t-256.5 75q-142 0 -261.5 -72t-190 -200t-70.5 -283q0 -243 150 -403t376 -160q201 0 331.5 125.5t139.5 308.5
h-465v182h666q2 -29 2 -94q0 -193 -85.5 -353.5t-242.5 -256t-354 -95.5zM512 1780h154q0 -71 41 -113.5t108 -42.5q68 0 110 42.5t42 113.5h151q-6 -133 -88 -206t-215 -73t-214.5 73t-88.5 206z" />
    <glyph glyph-name="gbreve" unicode="&#x11f;" horiz-adv-x="1255" 
d="M485 -385q-188 0 -282 89t-94 245v33h188v-31q0 -81 56 -127.5t167 -46.5h185q114 0 168.5 56.5t54.5 176.5v174q-63 -75 -152 -116t-196 -41q-215 0 -358.5 140t-143.5 357q0 215 144 358.5t358 143.5q110 0 201.5 -45t156.5 -125v143h178v-983q0 -191 -100.5 -296
t-290.5 -105h-240zM268 524q0 -143 95 -239.5t237 -96.5q147 0 242.5 94.5t95.5 241.5q0 146 -96 241t-242 95q-141 0 -236.5 -97.5t-95.5 -238.5zM332 1395h145q2 -77 45.5 -127.5t110.5 -50.5q68 0 112 50.5t46 127.5h145q0 -136 -85 -220.5t-218 -84.5q-130 0 -215.5 85
t-85.5 220z" />
    <glyph glyph-name="Gdotaccent" unicode="&#x120;" horiz-adv-x="1572" 
d="M807 -25q-151 0 -284.5 56.5t-229 155t-150.5 236t-55 294.5q0 206 96 376t263 267.5t368 97.5q240 0 411.5 -128.5t233.5 -321.5h-217q-54 118 -175.5 193t-256.5 75q-142 0 -261.5 -72t-190 -200t-70.5 -283q0 -243 150 -403t376 -160q201 0 331.5 125.5t139.5 308.5
h-465v182h666q2 -29 2 -94q0 -193 -85.5 -353.5t-242.5 -256t-354 -95.5zM707 1522v186h217v-186h-217z" />
    <glyph glyph-name="gdotaccent" unicode="&#x121;" horiz-adv-x="1255" 
d="M485 -385q-188 0 -282 89t-94 245v33h188v-31q0 -81 56 -127.5t167 -46.5h185q114 0 168.5 56.5t54.5 176.5v174q-63 -75 -152 -116t-196 -41q-215 0 -358.5 140t-143.5 357q0 215 144 358.5t358 143.5q110 0 201.5 -45t156.5 -125v143h178v-983q0 -191 -100.5 -296
t-290.5 -105h-240zM268 524q0 -143 95 -239.5t237 -96.5q147 0 242.5 94.5t95.5 241.5q0 146 -96 241t-242 95q-141 0 -236.5 -97.5t-95.5 -238.5zM530 1198v236h205v-236h-205z" />
    <glyph glyph-name="uni0122" unicode="&#x122;" horiz-adv-x="1572" 
d="M807 -25q-151 0 -284.5 56.5t-229 155t-150.5 236t-55 294.5q0 206 96 376t263 267.5t368 97.5q240 0 411.5 -128.5t233.5 -321.5h-217q-54 118 -175.5 193t-256.5 75q-142 0 -261.5 -72t-190 -200t-70.5 -283q0 -243 150 -403t376 -160q201 0 331.5 125.5t139.5 308.5
h-465v182h666q2 -29 2 -94q0 -193 -85.5 -353.5t-242.5 -256t-354 -95.5zM532 -356l168 278h201l-194 -278h-175z" />
    <glyph glyph-name="uni0123" unicode="&#x123;" horiz-adv-x="1255" 
d="M485 -385q-188 0 -282 89t-94 245v33h188v-31q0 -81 56 -127.5t167 -46.5h185q114 0 168.5 56.5t54.5 176.5v174q-63 -75 -152 -116t-196 -41q-215 0 -358.5 140t-143.5 357q0 215 144 358.5t358 143.5q110 0 201.5 -45t156.5 -125v143h178v-983q0 -191 -100.5 -296
t-290.5 -105h-240zM268 524q0 -143 95 -239.5t237 -96.5q147 0 242.5 94.5t95.5 241.5q0 146 -96 241t-242 95q-141 0 -236.5 -97.5t-95.5 -238.5zM500 1104l202 287h168l-165 -287h-205z" />
    <glyph glyph-name="Hcircumflex" unicode="&#x124;" horiz-adv-x="1253" 
d="M160 0v1434h198v-600h539v600h197v-1434h-197v647h-539v-647h-198zM266 1516l262 266h201l260 -266h-196l-166 159l-168 -159h-193z" />
    <glyph glyph-name="hcircumflex" unicode="&#x125;" horiz-adv-x="1159" 
d="M141 0v1434h185v-553q57 68 136.5 105.5t172.5 37.5q179 0 288 -121t109 -328v-575h-190v571q0 123 -66.5 201t-183.5 78q-116 0 -190 -79t-74 -210v-561h-187zM-127 1516l262 266h201l260 -266h-197l-166 159l-167 -159h-193z" />
    <glyph glyph-name="Hbar" unicode="&#x126;" horiz-adv-x="1347" 
d="M207 0v1057h-160v160h160v217h196v-217h539v217h199v-217h159v-160h-159v-1057h-199v629h-539v-629h-196zM403 815h539v242h-539v-242z" />
    <glyph glyph-name="hbar" unicode="&#x127;" horiz-adv-x="1159" 
d="M-14 1180v123h155v131h185v-131h301v-123h-301v-299q57 68 136.5 105.5t172.5 37.5q179 0 288 -121t109 -328v-575h-190v571q0 123 -66.5 201t-183.5 78q-116 0 -190 -79t-74 -210v-561h-187v1180h-155z" />
    <glyph glyph-name="Itilde" unicode="&#x128;" horiz-adv-x="516" 
d="M160 1434h198v-1434h-198v1434zM-113 1516q1 123 57.5 191.5t143.5 68.5q55 0 119 -32t117 -63.5t82 -31.5q35 0 57.5 28.5t25.5 89.5h138q-1 -121 -60 -190.5t-147 -69.5q-44 0 -92.5 19.5t-83 43t-72.5 43t-63 19.5q-35 0 -59 -29t-27 -87h-136z" />
    <glyph glyph-name="itilde" unicode="&#x129;" horiz-adv-x="471" 
d="M141 999h189v-999h-189v999zM-115 1120q0 142 54.5 215.5t144.5 73.5q37 0 71.5 -16t61.5 -39t52 -46t51 -39t51 -16q83 0 86 148h129q0 -141 -56.5 -215t-148.5 -74q-45 0 -86.5 24t-68.5 53t-60.5 53t-63.5 24q-85 0 -88 -146h-129z" />
    <glyph glyph-name="Imacron" unicode="&#x12a;" horiz-adv-x="516" 
d="M160 1434h198v-1434h-198v1434zM-76 1548v144h668v-144h-668z" />
    <glyph glyph-name="imacron" unicode="&#x12b;" horiz-adv-x="471" 
d="M141 999h189v-999h-189v999zM-90 1135v149h647v-149h-647z" />
    <glyph glyph-name="Ibreve" unicode="&#x12c;" horiz-adv-x="516" 
d="M160 1434h198v-1434h-198v1434zM-45 1780h154q0 -71 41 -113.5t108 -42.5q68 0 110 42.5t42 113.5h151q-6 -133 -88 -206t-215 -73t-214.5 73t-88.5 206z" />
    <glyph glyph-name="ibreve" unicode="&#x12d;" horiz-adv-x="471" 
d="M141 999h189v-999h-189v999zM-68 1395h146q2 -77 45 -127.5t110 -50.5q68 0 112 50.5t46 127.5h146q0 -136 -85.5 -220.5t-218.5 -84.5q-130 0 -215.5 85t-85.5 220z" />
    <glyph glyph-name="Iogonek" unicode="&#x12e;" horiz-adv-x="516" 
d="M160 1434h198v-1434q-69 -53 -100 -94t-31 -88q0 -43 29.5 -64.5t77.5 -21.5h45l-37 -144h-55q-99 0 -153 52.5t-54 136.5q0 67 27.5 119.5t85.5 103.5h-33v1434z" />
    <glyph glyph-name="iogonek" unicode="&#x12f;" horiz-adv-x="471" 
d="M141 999h189v-999q-69 -53 -100 -94t-31 -88q0 -43 29 -64.5t77 -21.5h45l-37 -144h-55q-99 0 -153 52.5t-54 136.5q0 67 27.5 119.5t85.5 103.5h-23v999zM133 1198v236h205v-236h-205z" />
    <glyph glyph-name="Idotaccent" unicode="&#x130;" horiz-adv-x="516" 
d="M160 1434h198v-1434h-198v1434zM150 1522v186h217v-186h-217z" />
    <glyph glyph-name="dotlessi" unicode="&#x131;" horiz-adv-x="471" 
d="M141 999h189v-999h-189v999z" />
    <glyph glyph-name="IJ" unicode="&#x132;" horiz-adv-x="1167" 
d="M160 1434h198v-1434h-198v1434zM545 0v186h76q100 0 150 56t50 178v1014h199v-1072q0 -174 -91 -268t-255 -94h-129z" />
    <glyph glyph-name="ij" unicode="&#x133;" horiz-adv-x="923" 
d="M141 999h189v-999h-189v999zM133 1198v236h205v-236h-205zM414 -385v168h75q47 0 76 30.5t29 86.5v1099h188v-1108q0 -149 -69.5 -212.5t-202.5 -63.5h-96zM586 1198v236h205v-236h-205z" />
    <glyph glyph-name="Jcircumflex" unicode="&#x134;" horiz-adv-x="667" 
d="M119 186q100 0 150 56t50 178v1014h199v-1072q0 -174 -91 -268t-255 -94h-129v186h76zM57 1516l262 266h201l260 -266h-196l-166 159l-168 -159h-193z" />
    <glyph glyph-name="jcircumflex" unicode="&#x135;" horiz-adv-x="471" 
d="M37 -217q47 0 75.5 30.5t28.5 86.5v1099h189v-1108q0 -149 -70 -212.5t-203 -63.5h-96v168h76zM-90 1104l223 297h203l223 -297h-174l-152 180l-151 -180h-172z" />
    <glyph glyph-name="uni0136" unicode="&#x136;" horiz-adv-x="1079" 
d="M848 0l-490 696v-696h-198v1434h198v-629l457 629h229l-507 -682l546 -752h-235zM326 -356l168 278h200l-194 -278h-174z" />
    <glyph glyph-name="uni0137" unicode="&#x137;" horiz-adv-x="989" 
d="M141 0v1434h189v-854l399 419h234l-455 -475l485 -524h-245l-418 461v-461h-189zM268 -356l168 278h201l-195 -278h-174z" />
    <glyph glyph-name="kgreenlandic" unicode="&#x138;" horiz-adv-x="989" 
d="M141 0v999h189v-419l399 419h234l-457 -475l487 -524h-241l-422 461v-461h-189z" />
    <glyph glyph-name="Lacute" unicode="&#x139;" horiz-adv-x="911" 
d="M160 1434h198v-1248h512v-186h-710v1434zM168 1516l201 260h215l-240 -260h-176z" />
    <glyph glyph-name="lacute" unicode="&#x13a;" horiz-adv-x="471" 
d="M330 1434v-1434h-189v1434h189zM135 1516l201 260h215l-240 -260h-176z" />
    <glyph glyph-name="uni013B" unicode="&#x13b;" horiz-adv-x="911" 
d="M160 1434h198v-1248h512v-186h-710v1434zM238 -356l168 278h200l-194 -278h-174z" />
    <glyph glyph-name="uni013C" unicode="&#x13c;" horiz-adv-x="471" 
d="M330 1434v-1434h-189v1434h189zM-31 -356l168 278h201l-195 -278h-174z" />
    <glyph glyph-name="Lcaron" unicode="&#x13d;" horiz-adv-x="923" 
d="M160 1434h198v-1248h512v-186h-710v1434zM627 1096l41 409h176l-74 -409h-143z" />
    <glyph glyph-name="lcaron" unicode="&#x13e;" horiz-adv-x="532" 
d="M330 1434v-1434h-189v1434h189zM461 1096l41 409h176l-74 -409h-143z" />
    <glyph glyph-name="Ldot" unicode="&#x13f;" horiz-adv-x="954" 
d="M160 1434h198v-1248h512v-186h-710v1434zM631 625v215h229v-215h-229z" />
    <glyph glyph-name="ldot" unicode="&#x140;" horiz-adv-x="686" 
d="M330 1434v-1434h-189v1434h189zM465 625v215h229v-215h-229z" />
    <glyph glyph-name="Lslash" unicode="&#x141;" horiz-adv-x="972" 
d="M784 836l-370 -148v-502h512v-186h-711v610l-147 -59v172l147 59v652h199v-574l370 148v-172z" />
    <glyph glyph-name="lslash" unicode="&#x142;" horiz-adv-x="612" 
d="M555 838l-154 -68v-770h-188v688l-156 -67v174l156 67v572h188v-490l154 68v-174z" />
    <glyph glyph-name="Nacute" unicode="&#x143;" horiz-adv-x="1243" 
d="M758 676q38 -74 74 -150.5t52 -116.5l17 -40q-12 152 -12 338v727h194v-1434h-178l-422 791q-37 74 -72.5 150.5t-52.5 116.5l-16 40q10 -154 10 -340v-758h-192v1434h194zM522 1516l201 260h215l-240 -260h-176z" />
    <glyph glyph-name="nacute" unicode="&#x144;" horiz-adv-x="1159" 
d="M141 0v999h185v-118q57 68 136.5 105.5t172.5 37.5q179 0 288 -121t109 -328v-575h-190v571q0 123 -66.5 201t-183.5 78q-116 0 -190 -79t-74 -210v-561h-187zM500 1104l202 297h207l-237 -297h-172z" />
    <glyph glyph-name="uni0145" unicode="&#x145;" horiz-adv-x="1243" 
d="M758 676q38 -74 74 -150.5t52 -116.5l17 -40q-12 152 -12 338v727h194v-1434h-178l-422 791q-37 74 -72.5 150.5t-52.5 116.5l-16 40q10 -154 10 -340v-758h-192v1434h194zM356 -356l168 278h201l-195 -278h-174z" />
    <glyph glyph-name="uni0146" unicode="&#x146;" horiz-adv-x="1159" 
d="M141 0v999h185v-118q57 68 136.5 105.5t172.5 37.5q179 0 288 -121t109 -328v-575h-190v571q0 123 -66.5 201t-183.5 78q-116 0 -190 -79t-74 -210v-561h-187zM313 -356l168 278h201l-195 -278h-174z" />
    <glyph glyph-name="Ncaron" unicode="&#x147;" horiz-adv-x="1243" 
d="M758 676q38 -74 74 -150.5t52 -116.5l17 -40q-12 152 -12 338v727h194v-1434h-178l-422 791q-37 74 -72.5 150.5t-52.5 116.5l-16 40q10 -154 10 -340v-758h-192v1434h194zM262 1790h193l168 -168l168 168h192l-260 -274h-201z" />
    <glyph glyph-name="ncaron" unicode="&#x148;" horiz-adv-x="1159" 
d="M141 0v999h185v-118q57 68 136.5 105.5t172.5 37.5q179 0 288 -121t109 -328v-575h-190v571q0 123 -66.5 201t-183.5 78q-116 0 -190 -79t-74 -210v-561h-187zM256 1401h174l152 -180l149 180h174l-223 -297h-203z" />
    <glyph glyph-name="napostrophe" unicode="&#x149;" horiz-adv-x="1159" 
d="M-72 1339v197h242v-254q0 -100 -61 -148.5t-164 -46.5v103q52 0 73 20t21 64v65h-111zM141 0v999h185v-118q57 68 136.5 105.5t172.5 37.5q179 0 288 -121t109 -328v-575h-190v571q0 123 -66.5 201t-183.5 78q-116 0 -190 -79t-74 -210v-561h-187z" />
    <glyph glyph-name="Eng" unicode="&#x14a;" horiz-adv-x="1243" 
d="M696 -217q101 0 152 54.5t51 172.5l-414 781q-38 74 -74 150.5t-53 116.5l-16 40q10 -154 10 -340v-758h-192v1434h194l404 -758q38 -74 74 -150.5t52 -116.5l17 -40q-12 152 -12 338v727h194v-1457q0 -174 -90.5 -268t-255.5 -94h-129v168h88z" />
    <glyph glyph-name="eng" unicode="&#x14b;" horiz-adv-x="1157" 
d="M686 -385v160h51q49 0 77 30.5t28 83.5v682q0 123 -66.5 201t-183.5 78q-116 0 -190 -79t-74 -210v-561h-187v999h185v-118q57 68 136.5 105.5t172.5 37.5q179 0 288 -121t109 -328v-694q0 -266 -272 -266h-74z" />
    <glyph glyph-name="Omacron" unicode="&#x14c;" horiz-adv-x="1636" 
d="M819 -25q-152 0 -288 58t-233.5 157t-154.5 237t-57 292q0 153 57 290t154.5 235.5t233.5 156t288 57.5t288 -57.5t233.5 -156t154.5 -235.5t57 -290q0 -154 -57 -292t-154.5 -237t-233.5 -157t-288 -58zM289 719q0 -154 70 -282t192 -201.5t268 -73.5t267.5 73.5
t191.5 201.5t70 282q0 152 -70 279t-191.5 200.5t-267.5 73.5t-268 -73.5t-192 -200.5t-70 -279zM485 1548v144h668v-144h-668z" />
    <glyph glyph-name="omacron" unicode="&#x14d;" horiz-adv-x="1198" 
d="M598 -25q-107 0 -204 40.5t-166.5 110t-110.5 167.5t-41 207q0 144 69.5 264.5t189.5 190t263 69.5t263.5 -69.5t190.5 -190t70 -264.5q0 -146 -70 -267t-190 -189.5t-264 -68.5zM260 500q0 -149 96.5 -249.5t241.5 -100.5q143 0 241.5 100.5t98.5 249.5q0 148 -98.5 249
t-241.5 101q-144 0 -241 -101t-97 -249zM274 1135v149h648v-149h-648z" />
    <glyph glyph-name="Obreve" unicode="&#x14e;" horiz-adv-x="1636" 
d="M819 -25q-152 0 -288 58t-233.5 157t-154.5 237t-57 292q0 153 57 290t154.5 235.5t233.5 156t288 57.5t288 -57.5t233.5 -156t154.5 -235.5t57 -290q0 -154 -57 -292t-154.5 -237t-233.5 -157t-288 -58zM289 719q0 -154 70 -282t192 -201.5t268 -73.5t267.5 73.5
t191.5 201.5t70 282q0 152 -70 279t-191.5 200.5t-267.5 73.5t-268 -73.5t-192 -200.5t-70 -279zM516 1780h154q0 -71 41 -113.5t108 -42.5q68 0 110 42.5t42 113.5h151q-6 -133 -88 -206t-215 -73t-214.5 73t-88.5 206z" />
    <glyph glyph-name="obreve" unicode="&#x14f;" horiz-adv-x="1198" 
d="M598 -25q-107 0 -204 40.5t-166.5 110t-110.5 167.5t-41 207q0 144 69.5 264.5t189.5 190t263 69.5t263.5 -69.5t190.5 -190t70 -264.5q0 -146 -70 -267t-190 -189.5t-264 -68.5zM260 500q0 -149 96.5 -249.5t241.5 -100.5q143 0 241.5 100.5t98.5 249.5q0 148 -98.5 249
t-241.5 101q-144 0 -241 -101t-97 -249zM297 1395h145q2 -77 45.5 -127.5t110.5 -50.5q68 0 112 50.5t46 127.5h145q0 -136 -85 -220.5t-218 -84.5q-130 0 -215.5 85t-85.5 220z" />
    <glyph glyph-name="Ohungarumlaut" unicode="&#x150;" horiz-adv-x="1636" 
d="M819 -25q-152 0 -288 58t-233.5 157t-154.5 237t-57 292q0 153 57 290t154.5 235.5t233.5 156t288 57.5t288 -57.5t233.5 -156t154.5 -235.5t57 -290q0 -154 -57 -292t-154.5 -237t-233.5 -157t-288 -58zM289 719q0 -154 70 -282t192 -201.5t268 -73.5t267.5 73.5
t191.5 201.5t70 282q0 152 -70 279t-191.5 200.5t-267.5 73.5t-268 -73.5t-192 -200.5t-70 -279zM526 1516l185 264h190l-194 -264h-181zM926 1516l184 264h205l-219 -264h-170z" />
    <glyph glyph-name="ohungarumlaut" unicode="&#x151;" horiz-adv-x="1198" 
d="M598 -25q-107 0 -204 40.5t-166.5 110t-110.5 167.5t-41 207q0 144 69.5 264.5t189.5 190t263 69.5t263.5 -69.5t190.5 -190t70 -264.5q0 -146 -70 -267t-190 -189.5t-264 -68.5zM260 500q0 -149 96.5 -249.5t241.5 -100.5q143 0 241.5 100.5t98.5 249.5q0 148 -98.5 249
t-241.5 101q-144 0 -241 -101t-97 -249zM338 1104h156l149 297h-168zM694 1104h154l170 297h-180z" />
    <glyph glyph-name="OE" unicode="&#x152;" horiz-adv-x="1669" 
d="M797 0q-201 0 -363.5 94t-254 259.5t-91.5 369.5q0 151 54 283t147.5 226t225 148t282.5 54h782v-187h-512v-399h444v-180h-444v-482h512v-186h-782zM291 723q0 -232 140.5 -386.5t352.5 -154.5h84v1069h-84q-213 0 -353 -151t-140 -377z" />
    <glyph glyph-name="oe" unicode="&#x153;" horiz-adv-x="2004" 
d="M594 -25q-143 0 -261.5 67.5t-187.5 187t-69 266.5q0 146 69.5 267.5t188.5 191t260 69.5q139 0 253 -65t181 -179q67 113 179.5 178.5t246.5 65.5q203 0 339 -139t136 -342q0 -31 -6 -84h-809q9 -144 105 -236t233 -92q101 0 180 50.5t99 127.5h188
q-36 -147 -165 -240.5t-308 -93.5q-141 0 -251 63.5t-173 172.5q-67 -109 -180 -172.5t-248 -63.5zM260 498q0 -149 97.5 -248.5t242.5 -99.5q142 0 240 100t98 248q0 149 -98 249.5t-240 100.5q-145 0 -242.5 -100.5t-97.5 -249.5zM1126 606h613q-8 111 -91.5 186.5
t-201.5 75.5q-115 0 -202.5 -70t-117.5 -192z" />
    <glyph glyph-name="Racute" unicode="&#x154;" horiz-adv-x="1130" 
d="M160 0v1434h397q198 0 322.5 -109.5t124.5 -273.5q0 -113 -52.5 -200.5t-146.5 -137.5q96 -45 146 -131.5t50 -204.5v-377h-198v354q0 254 -271 254h-176v-608h-196zM356 784h189q117 0 187.5 65.5t70.5 172.5q0 103 -70.5 165t-187.5 62h-189v-465zM428 1516l201 260
h215l-240 -260h-176z" />
    <glyph glyph-name="racute" unicode="&#x155;" horiz-adv-x="712" 
d="M330 999v-133q90 133 250 133h104v-163h-113q-114 0 -177.5 -69t-63.5 -189v-578h-189v999h189zM338 1104l203 297h207l-238 -297h-172z" />
    <glyph glyph-name="uni0156" unicode="&#x156;" horiz-adv-x="1130" 
d="M160 0v1434h397q198 0 322.5 -109.5t124.5 -273.5q0 -113 -52.5 -200.5t-146.5 -137.5q96 -45 146 -131.5t50 -204.5v-377h-198v354q0 254 -271 254h-176v-608h-196zM309 -356l168 278h201l-195 -278h-174zM356 784h189q117 0 187.5 65.5t70.5 172.5q0 103 -70.5 165
t-187.5 62h-189v-465z" />
    <glyph glyph-name="uni0157" unicode="&#x157;" horiz-adv-x="712" 
d="M330 999v-133q90 133 250 133h104v-163h-113q-114 0 -177.5 -69t-63.5 -189v-578h-189v999h189zM-27 -356l168 278h201l-195 -278h-174z" />
    <glyph glyph-name="Rcaron" unicode="&#x158;" horiz-adv-x="1130" 
d="M160 0v1434h397q198 0 322.5 -109.5t124.5 -273.5q0 -113 -52.5 -200.5t-146.5 -137.5q96 -45 146 -131.5t50 -204.5v-377h-198v354q0 254 -271 254h-176v-608h-196zM168 1790h192l168 -168l168 168h193l-260 -274h-201zM356 784h189q117 0 187.5 65.5t70.5 172.5
q0 103 -70.5 165t-187.5 62h-189v-465z" />
    <glyph glyph-name="rcaron" unicode="&#x159;" horiz-adv-x="712" 
d="M330 999v-133q90 133 250 133h104v-163h-113q-114 0 -177.5 -69t-63.5 -189v-578h-189v999h189zM92 1401h174l152 -180l149 180h174l-223 -297h-203z" />
    <glyph glyph-name="Sacute" unicode="&#x15a;" horiz-adv-x="1069" 
d="M543 -25q-197 0 -325 133.5t-128 342.5h197q0 -129 71.5 -210t184.5 -81q105 0 173 65.5t68 167.5q0 61 -23 105.5t-62.5 71.5t-90.5 47t-107 36.5t-112 35t-107 48t-90.5 69.5t-62.5 105t-23 150q0 174 117 285.5t299 111.5q191 0 307.5 -122.5t116.5 -313.5h-196
q-3 111 -67 181.5t-165 70.5q-93 0 -155 -59.5t-62 -147.5q0 -58 23 -100.5t62.5 -67t90 -42.5t106.5 -33.5t112.5 -33.5t107.5 -48.5t90.5 -73.5t63 -113t24.5 -162q1 -184 -123.5 -301t-314.5 -117zM432 1516l201 260h215l-240 -260h-176z" />
    <glyph glyph-name="sacute" unicode="&#x15b;" horiz-adv-x="937" 
d="M475 -25q-173 0 -282 86.5t-121 239.5h180q7 -82 67.5 -129t155.5 -47q94 0 149.5 43t55.5 111q0 49 -32.5 81t-84.5 48.5t-114.5 30t-125 31.5t-114.5 45.5t-84.5 80t-32.5 127.5q0 138 102.5 219.5t260.5 81.5q161 0 266.5 -78.5t120.5 -220.5h-185q-11 68 -66 111
t-138 43q-77 0 -131 -35t-54 -103q0 -45 33 -74t85 -43.5t115.5 -26.5t127 -31t115.5 -48t85 -85t33 -136q0 -141 -108.5 -231.5t-278.5 -90.5zM389 1104l203 297h207l-238 -297h-172z" />
    <glyph glyph-name="Scircumflex" unicode="&#x15c;" horiz-adv-x="1069" 
d="M543 -25q-197 0 -325 133.5t-128 342.5h197q0 -129 71.5 -210t184.5 -81q105 0 173 65.5t68 167.5q0 61 -23 105.5t-62.5 71.5t-90.5 47t-107 36.5t-112 35t-107 48t-90.5 69.5t-62.5 105t-23 150q0 174 117 285.5t299 111.5q191 0 307.5 -122.5t116.5 -313.5h-196
q-3 111 -67 181.5t-165 70.5q-93 0 -155 -59.5t-62 -147.5q0 -58 23 -100.5t62.5 -67t90 -42.5t106.5 -33.5t112.5 -33.5t107.5 -48.5t90.5 -73.5t63 -113t24.5 -162q1 -184 -123.5 -301t-314.5 -117zM170 1516l262 266h201l260 -266h-197l-166 159l-168 -159h-192z" />
    <glyph glyph-name="scircumflex" unicode="&#x15d;" horiz-adv-x="937" 
d="M475 -25q-173 0 -282 86.5t-121 239.5h180q7 -82 67.5 -129t155.5 -47q94 0 149.5 43t55.5 111q0 49 -32.5 81t-84.5 48.5t-114.5 30t-125 31.5t-114.5 45.5t-84.5 80t-32.5 127.5q0 138 102.5 219.5t260.5 81.5q161 0 266.5 -78.5t120.5 -220.5h-185q-11 68 -66 111
t-138 43q-77 0 -131 -35t-54 -103q0 -45 33 -74t85 -43.5t115.5 -26.5t127 -31t115.5 -48t85 -85t33 -136q0 -141 -108.5 -231.5t-278.5 -90.5zM143 1104l224 297h202l224 -297h-175l-151 180l-152 -180h-172z" />
    <glyph glyph-name="Scedilla" unicode="&#x15e;" horiz-adv-x="1069" 
d="M90 451h197q0 -129 71.5 -210t184.5 -81q105 0 173 65.5t68 167.5q0 61 -23 105.5t-62.5 71.5t-90.5 47t-107 36.5t-112 35t-107 48t-90.5 69.5t-62.5 105t-23 150q0 174 117 285.5t299 111.5q191 0 307.5 -122.5t116.5 -313.5h-196q-3 111 -67 181.5t-165 70.5
q-93 0 -155 -59.5t-62 -147.5q0 -58 23 -100.5t62.5 -67t90 -42.5t106.5 -33.5t112.5 -33.5t107.5 -48.5t90.5 -73.5t63 -113t24.5 -162q1 -165 -102 -278t-265 -135l-47 -119h25q80 0 131 -50t51 -128q0 -82 -52 -135.5t-132 -53.5h-150v98h125q43 0 70 25.5t27 63.5
q0 37 -27.5 61.5t-69.5 24.5h-110v81l47 129q-182 14 -297 145.5t-115 328.5z" />
    <glyph glyph-name="scedilla" unicode="&#x15f;" horiz-adv-x="937" 
d="M72 301h180q7 -82 67.5 -129t155.5 -47q94 0 149.5 43t55.5 111q0 49 -32.5 81t-84.5 48.5t-114.5 30t-125 31.5t-114.5 45.5t-84.5 80t-32.5 127.5q0 138 102.5 219.5t260.5 81.5q161 0 266.5 -78.5t120.5 -220.5h-185q-11 68 -66 111t-138 43q-77 0 -131 -35t-54 -103
q0 -45 33 -74t85 -43.5t115.5 -26.5t127 -31t115.5 -48t85 -85t33 -136q0 -125 -87.5 -211.5t-229.5 -105.5l-47 -119h24q80 0 131.5 -50t51.5 -128q0 -82 -52.5 -135.5t-132.5 -53.5h-149v98h125q42 0 69 25t27 64q0 37 -27 61.5t-69 24.5h-111v81l47 129
q-156 11 -253 95.5t-107 228.5z" />
    <glyph glyph-name="Scaron" unicode="&#x160;" horiz-adv-x="1069" 
d="M543 -25q-197 0 -325 133.5t-128 342.5h197q0 -129 71.5 -210t184.5 -81q105 0 173 65.5t68 167.5q0 61 -23 105.5t-62.5 71.5t-90.5 47t-107 36.5t-112 35t-107 48t-90.5 69.5t-62.5 105t-23 150q0 174 117 285.5t299 111.5q191 0 307.5 -122.5t116.5 -313.5h-196
q-3 111 -67 181.5t-165 70.5q-93 0 -155 -59.5t-62 -147.5q0 -58 23 -100.5t62.5 -67t90 -42.5t106.5 -33.5t112.5 -33.5t107.5 -48.5t90.5 -73.5t63 -113t24.5 -162q1 -184 -123.5 -301t-314.5 -117zM172 1790h193l167 -168l168 168h193l-260 -274h-201z" />
    <glyph glyph-name="scaron" unicode="&#x161;" horiz-adv-x="937" 
d="M475 -25q-173 0 -282 86.5t-121 239.5h180q7 -82 67.5 -129t155.5 -47q94 0 149.5 43t55.5 111q0 49 -32.5 81t-84.5 48.5t-114.5 30t-125 31.5t-114.5 45.5t-84.5 80t-32.5 127.5q0 138 102.5 219.5t260.5 81.5q161 0 266.5 -78.5t120.5 -220.5h-185q-11 68 -66 111
t-138 43q-77 0 -131 -35t-54 -103q0 -45 33 -74t85 -43.5t115.5 -26.5t127 -31t115.5 -48t85 -85t33 -136q0 -141 -108.5 -231.5t-278.5 -90.5zM143 1401h174l152 -180l149 180h175l-224 -297h-202z" />
    <glyph glyph-name="uni0162" unicode="&#x162;" horiz-adv-x="974" 
d="M39 1247v187h897v-187h-350v-1247h-35l-53 -139h24q80 0 131.5 -50t51.5 -128q0 -82 -52.5 -135.5t-132.5 -53.5h-149v98h125q42 0 69 25t27 64q0 37 -27 61.5t-69 24.5h-111v81l55 152h-51v1247h-350z" />
    <glyph glyph-name="uni0163" unicode="&#x163;" horiz-adv-x="733" 
d="M20 836v163h195v269h186v-269h283v-163h-283v-502q0 -170 164 -170h119v-164h-133l-53 -139h24q80 0 131.5 -50t51.5 -128q0 -82 -52.5 -135.5t-132.5 -53.5h-149v98h125q42 0 69 25t27 64q0 37 -27 61.5t-69 24.5h-111v81l59 160q-229 44 -229 314v514h-195z" />
    <glyph glyph-name="Tcaron" unicode="&#x164;" horiz-adv-x="974" 
d="M39 1247v187h897v-187h-350v-1247h-197v1247h-350zM127 1790h192l168 -168l168 168h193l-260 -274h-201z" />
    <glyph glyph-name="tcaron" unicode="&#x165;" horiz-adv-x="733" 
d="M20 836v163h195v269h186v-269h283v-163h-283v-502q0 -170 164 -170h119v-164h-141q-328 0 -328 322v514h-195zM565 1096l41 409h176l-73 -409h-144z" />
    <glyph glyph-name="Tbar" unicode="&#x166;" horiz-adv-x="997" 
d="M154 612v162h241v473h-350v187h897v-187h-350v-473h227v-162h-227v-612h-197v612h-241z" />
    <glyph glyph-name="tbar" unicode="&#x167;" horiz-adv-x="761" 
d="M45 852v147h195v269h188v-269h281v-147h-281v-285h281v-123h-281v-129q0 -170 164 -170h117v-145h-140q-166 0 -247.5 76.5t-81.5 240.5v127h-195v123h195v285h-195z" />
    <glyph glyph-name="Utilde" unicode="&#x168;" horiz-adv-x="1245" 
d="M623 -25q-215 0 -345.5 139t-130.5 369v951h199v-955q0 -145 75.5 -231t201.5 -86q127 0 201.5 86t74.5 231v955h199v-951q0 -230 -130 -369t-345 -139zM254 1516q1 123 57.5 191.5t143.5 68.5q55 0 118.5 -32t116.5 -63.5t82 -31.5q35 0 58 28.5t26 89.5h137
q-1 -121 -60 -190.5t-147 -69.5q-44 0 -92.5 19.5t-83 43t-72.5 43t-63 19.5q-35 0 -59 -29t-27 -87h-135z" />
    <glyph glyph-name="utilde" unicode="&#x169;" horiz-adv-x="1159" 
d="M1018 999v-999h-184v119q-57 -68 -137 -106t-173 -38q-179 0 -288 121t-109 328v575h190v-571q0 -123 66.5 -200.5t183.5 -77.5q116 0 190 78.5t74 209.5v561h187zM229 1120q0 142 54.5 215.5t144.5 73.5q37 0 71.5 -16t61.5 -39t52 -46t51 -39t51 -16q83 0 86 148h129
q0 -141 -56.5 -215t-148.5 -74q-45 0 -86.5 24t-68.5 53t-60.5 53t-63.5 24q-85 0 -88 -146h-129z" />
    <glyph glyph-name="Umacron" unicode="&#x16a;" horiz-adv-x="1245" 
d="M623 -25q-215 0 -345.5 139t-130.5 369v951h199v-955q0 -145 75.5 -231t201.5 -86q127 0 201.5 86t74.5 231v955h199v-951q0 -230 -130 -369t-345 -139zM289 1548v144h667v-144h-667z" />
    <glyph glyph-name="umacron" unicode="&#x16b;" horiz-adv-x="1159" 
d="M1018 999v-999h-184v119q-57 -68 -137 -106t-173 -38q-179 0 -288 121t-109 328v575h190v-571q0 -123 66.5 -200.5t183.5 -77.5q116 0 190 78.5t74 209.5v561h187zM254 1135v149h647v-149h-647z" />
    <glyph glyph-name="Ubreve" unicode="&#x16c;" horiz-adv-x="1245" 
d="M623 -25q-215 0 -345.5 139t-130.5 369v951h199v-955q0 -145 75.5 -231t201.5 -86q127 0 201.5 86t74.5 231v955h199v-951q0 -230 -130 -369t-345 -139zM319 1780h154q0 -71 41.5 -113.5t108.5 -42.5q68 0 109.5 42.5t41.5 113.5h152q-6 -133 -88 -206t-215 -73t-215 73
t-89 206z" />
    <glyph glyph-name="ubreve" unicode="&#x16d;" horiz-adv-x="1159" 
d="M1018 999v-999h-184v119q-57 -68 -137 -106t-173 -38q-179 0 -288 121t-109 328v575h190v-571q0 -123 66.5 -200.5t183.5 -77.5q116 0 190 78.5t74 209.5v561h187zM276 1395h146q2 -77 45.5 -127.5t110.5 -50.5q68 0 111.5 50.5t45.5 127.5h146q0 -136 -85 -220.5
t-218 -84.5q-130 0 -216 85t-86 220z" />
    <glyph glyph-name="Uring" unicode="&#x16e;" horiz-adv-x="1245" 
d="M623 -25q-215 0 -345.5 139t-130.5 369v951h199v-955q0 -145 75.5 -231t201.5 -86q127 0 201.5 86t74.5 231v955h199v-951q0 -230 -130 -369t-345 -139zM354 1731q0 100 77.5 167.5t191.5 67.5q115 0 192.5 -67.5t77.5 -167.5t-77.5 -168t-192.5 -68q-114 0 -191.5 68
t-77.5 168zM481 1731q0 -55 41 -92t101 -37q62 0 102.5 37t40.5 92q0 54 -41 90.5t-102 36.5q-60 0 -101 -36.5t-41 -90.5z" />
    <glyph glyph-name="uring" unicode="&#x16f;" horiz-adv-x="1159" 
d="M1018 999v-999h-184v119q-57 -68 -137 -106t-173 -38q-179 0 -288 121t-109 328v575h190v-571q0 -123 66.5 -200.5t183.5 -77.5q116 0 190 78.5t74 209.5v561h187zM311 1327q0 101 77.5 168.5t191.5 67.5q116 0 193 -67.5t77 -168.5q0 -100 -77.5 -167.5t-192.5 -67.5
q-114 0 -191.5 67.5t-77.5 167.5zM438 1327q0 -54 41 -91.5t101 -37.5q61 0 102 37.5t41 91.5q0 55 -40.5 91t-102.5 36q-60 0 -101 -36t-41 -91z" />
    <glyph glyph-name="Uhungarumlaut" unicode="&#x170;" horiz-adv-x="1245" 
d="M623 -25q-215 0 -345.5 139t-130.5 369v951h199v-955q0 -145 75.5 -231t201.5 -86q127 0 201.5 86t74.5 231v955h199v-951q0 -230 -130 -369t-345 -139zM330 1516l184 264h191l-195 -264h-180zM729 1516l184 264h205l-219 -264h-170z" />
    <glyph glyph-name="uhungarumlaut" unicode="&#x171;" horiz-adv-x="1159" 
d="M1018 999v-999h-184v119q-57 -68 -137 -106t-173 -38q-179 0 -288 121t-109 328v575h190v-571q0 -123 66.5 -200.5t183.5 -77.5q116 0 190 78.5t74 209.5v561h187zM317 1104h156l150 297h-168zM674 1104h153l170 297h-180z" />
    <glyph glyph-name="Uogonek" unicode="&#x172;" horiz-adv-x="1245" 
d="M702 -412q-98 0 -152 52t-54 137q0 112 88 200q-199 12 -318 149.5t-119 356.5v951h199v-955q0 -145 75.5 -231t201.5 -86q127 0 201.5 86t74.5 231v955h199v-951q0 -188 -88.5 -317t-243.5 -172q-64 -50 -93.5 -90.5t-29.5 -85.5q0 -43 29.5 -64.5t77.5 -21.5h45
l-37 -144h-56z" />
    <glyph glyph-name="uogonek" unicode="&#x173;" horiz-adv-x="1159" 
d="M1018 999v-999q-69 -53 -100 -94t-31 -88q0 -43 29 -64.5t77 -21.5h45l-37 -144h-55q-99 0 -153 52.5t-54 136.5q0 67 27.5 119.5t85.5 103.5h-18v119q-57 -68 -137 -106t-173 -38q-179 0 -288 121t-109 328v575h190v-571q0 -123 66.5 -200.5t183.5 -77.5q116 0 190 78.5
t74 209.5v561h187z" />
    <glyph glyph-name="Wcircumflex" unicode="&#x174;" horiz-adv-x="1832" 
d="M410 0l-369 1434h209l217 -818q20 -80 37 -159t24 -117l7 -39q30 133 83 313l228 820h164l223 -805q23 -80 43.5 -158.5t29.5 -116.5l9 -39q20 136 65 316l211 803h201l-371 -1434h-194l-305 1075l-306 -1075h-206zM555 1516l262 266h201l260 -266h-197l-166 159
l-167 -159h-193z" />
    <glyph glyph-name="wcircumflex" unicode="&#x175;" horiz-adv-x="1562" 
d="M362 0l-331 999h198l236 -723l242 723h159l242 -716l229 716h195l-332 -999h-168l-250 715l-252 -715h-168zM457 1104l223 297h203l223 -297h-174l-152 180l-151 -180h-172z" />
    <glyph glyph-name="Ycircumflex" unicode="&#x176;" horiz-adv-x="1099" 
d="M29 1434h217l305 -621l301 621h215l-418 -840v-594h-198v594zM186 1516l263 266h200l260 -266h-196l-166 159l-168 -159h-193z" />
    <glyph glyph-name="ycircumflex" unicode="&#x177;" horiz-adv-x="1046" 
d="M25 999h200l301 -739l295 739h203l-580 -1384h-198l182 426zM201 1104l223 297h203l223 -297h-174l-152 180l-151 -180h-172z" />
    <glyph glyph-name="Ydieresis" unicode="&#x178;" horiz-adv-x="1099" 
d="M29 1434h217l305 -621l301 621h215l-418 -840v-594h-198v594zM236 1522v186h194v-186h-194zM666 1522v186h194v-186h-194z" />
    <glyph glyph-name="Zacute" unicode="&#x179;" horiz-adv-x="999" 
d="M94 1434h828v-154l-619 -1094h627v-186h-871v154l619 1093h-584v187zM395 1516l201 260h215l-240 -260h-176z" />
    <glyph glyph-name="zacute" unicode="&#x17a;" horiz-adv-x="983" 
d="M57 0v152l613 684h-590v163h833v-153l-612 -682h617v-164h-861zM410 1104l202 297h207l-237 -297h-172z" />
    <glyph glyph-name="Zdotaccent" unicode="&#x17b;" horiz-adv-x="999" 
d="M94 1434h828v-154l-619 -1094h627v-186h-871v154l619 1093h-584v187zM387 1522v186h217v-186h-217z" />
    <glyph glyph-name="zdotaccent" unicode="&#x17c;" horiz-adv-x="983" 
d="M57 0v152l613 684h-590v163h833v-153l-612 -682h617v-164h-861zM385 1198v236h205v-236h-205z" />
    <glyph glyph-name="Zcaron" unicode="&#x17d;" horiz-adv-x="999" 
d="M94 1434h828v-154l-619 -1094h627v-186h-871v154l619 1093h-584v187zM135 1790h193l168 -168l168 168h192l-260 -274h-201z" />
    <glyph glyph-name="zcaron" unicode="&#x17e;" horiz-adv-x="983" 
d="M57 0v152l613 684h-590v163h833v-153l-612 -682h617v-164h-861zM164 1401h174l151 -180l150 180h174l-223 -297h-203z" />
    <glyph glyph-name="longs" unicode="&#x17f;" horiz-adv-x="555" 
d="M31 825v174h194v105q0 160 84.5 245t245.5 85h68v-174h-48q-161 0 -161 -170v-1090h-189v825h-194z" />
    <glyph glyph-name="uni018F" unicode="&#x18f;" horiz-adv-x="1583" 
d="M776 1458q156 0 290.5 -55t229 -151.5t148 -233.5t53.5 -297q0 -210 -95 -381t-261.5 -268t-370.5 -97q-196 0 -352.5 88.5t-244 244.5t-87.5 349q0 66 4 95h1202q-11 232 -152 376t-366 144q-164 0 -291 -82t-159 -209h-224q44 210 233.5 343.5t442.5 133.5zM305 602
q13 -199 142.5 -319.5t322.5 -120.5q200 0 339 121t173 319h-977z" />
    <glyph glyph-name="florin" unicode="&#x192;" horiz-adv-x="806" 
d="M84 -385v170h49q83 0 122.5 39t39.5 123v889h-201v163h201v105q0 167 80.5 248.5t249.5 81.5h118v-156h-96q-164 0 -164 -162v-117h260v-163h-260v-891q0 -168 -79 -249t-248 -81h-72z" />
    <glyph glyph-name="uni019D" unicode="&#x19d;" horiz-adv-x="1245" 
d="M760 676q38 -74 74 -150.5t52 -116.5l17 -40q-12 152 -12 338v727h194v-1434h-178l-422 791q-37 74 -72.5 150.5t-52.5 116.5l-16 40q10 -154 10 -340v-781q0 -176 -88 -269t-252 -93h-129v186h74q102 0 152.5 55t50.5 177v1401h194z" />
    <glyph glyph-name="Gcaron" unicode="&#x1e6;" horiz-adv-x="1572" 
d="M807 -25q-151 0 -284.5 56.5t-229 155t-150.5 236t-55 294.5q0 206 96 376t263 267.5t368 97.5q240 0 411.5 -128.5t233.5 -321.5h-217q-54 118 -175.5 193t-256.5 75q-142 0 -261.5 -72t-190 -200t-70.5 -283q0 -243 150 -403t376 -160q201 0 331.5 125.5t139.5 308.5
h-465v182h666q2 -29 2 -94q0 -193 -85.5 -353.5t-242.5 -256t-354 -95.5zM455 1790h192l168 -168l168 168h193l-261 -274h-200z" />
    <glyph glyph-name="gcaron" unicode="&#x1e7;" horiz-adv-x="1255" 
d="M485 -385q-188 0 -282 89t-94 245v33h188v-31q0 -81 56 -127.5t167 -46.5h185q114 0 168.5 56.5t54.5 176.5v174q-63 -75 -152 -116t-196 -41q-215 0 -358.5 140t-143.5 357q0 215 144 358.5t358 143.5q110 0 201.5 -45t156.5 -125v143h178v-983q0 -191 -100.5 -296
t-290.5 -105h-240zM268 524q0 -143 95 -239.5t237 -96.5q147 0 242.5 94.5t95.5 241.5q0 146 -96 241t-242 95q-141 0 -236.5 -97.5t-95.5 -238.5zM309 1401h174l152 -180l149 180h174l-223 -297h-203z" />
    <glyph glyph-name="uni01EA" unicode="&#x1ea;" horiz-adv-x="1636" 
d="M819 162q146 0 267.5 73.5t191.5 201.5t70 282q0 152 -70 279t-191.5 200.5t-267.5 73.5t-268 -73.5t-192 -200.5t-70 -279q0 -154 70 -282t192 -201.5t268 -73.5zM86 719q0 153 57 290t154.5 235.5t233.5 156t288 57.5t288 -57.5t233.5 -156t154.5 -235.5t57 -290
q0 -266 -158.5 -466.5t-406.5 -258.5q-63 -48 -93 -89.5t-30 -86.5q0 -43 29.5 -64.5t77.5 -21.5h45l-37 -144h-55q-99 0 -153 52.5t-54 136.5q0 112 86 198q-149 3 -282 62t-228 158t-151 235.5t-56 288.5z" />
    <glyph glyph-name="uni01EB" unicode="&#x1eb;" horiz-adv-x="1198" 
d="M598 150q143 0 241.5 100.5t98.5 249.5q0 148 -98.5 249t-241.5 101q-144 0 -241 -101t-97 -249q0 -149 96.5 -249.5t241.5 -100.5zM76 500q0 144 69.5 264.5t189.5 190t263 69.5t263.5 -69.5t190.5 -190t70 -264.5q0 -178 -102 -315t-264 -185q-68 -53 -98.5 -94
t-30.5 -88q0 -43 29 -64.5t77 -21.5h45l-37 -144h-55q-99 0 -153 52.5t-54 136.5q0 113 88 198q-208 12 -349.5 161.5t-141.5 363.5z" />
    <glyph glyph-name="Aringacute" unicode="&#x1fa;" horiz-adv-x="1206" 
d="M23 0l487 1434h188l486 -1434h-215l-103 322h-532l-105 -322h-206zM334 1731q0 87 59.5 150.5t153.5 80.5l155 201h216l-201 -217q71 -28 113 -85.5t42 -129.5q0 -100 -77.5 -168t-192.5 -68q-114 0 -191 68t-77 168zM375 508h442l-219 666zM461 1731q0 -55 40.5 -92
t100.5 -37q62 0 102.5 37t40.5 92q0 54 -41 90.5t-102 36.5q-60 0 -100.5 -36.5t-40.5 -90.5z" />
    <glyph glyph-name="aringacute" unicode="&#x1fb;" horiz-adv-x="1077" 
d="M451 -25q-164 0 -263.5 82t-99.5 217q0 151 123 240.5t348 89.5h203v33q0 107 -63 169t-173 62q-95 0 -164 -55.5t-75 -140.5h-187q6 154 127 253t301 99q196 0 309 -109t113 -294v-621h-184v135q-52 -72 -137 -116t-178 -44zM264 1327q0 92 66 157.5t166 76.5l166 243
h206l-213 -266q67 -28 107.5 -84t40.5 -127q0 -100 -78 -167.5t-193 -67.5q-114 0 -191 67.5t-77 167.5zM272 279q0 -70 51 -113t142 -43q128 0 214.5 89.5t86.5 219.5v31h-203q-140 0 -215.5 -47t-75.5 -137zM391 1327q0 -54 40.5 -91.5t100.5 -37.5q61 0 102.5 37.5
t41.5 91.5q0 55 -41 91t-103 36q-60 0 -100.5 -36t-40.5 -91z" />
    <glyph glyph-name="AEacute" unicode="&#x1fc;" horiz-adv-x="1587" 
d="M-31 0l703 1434h827v-187h-508v-399h441v-180h-441v-482h508v-186h-704v344h-433l-169 -344h-224zM440 526h355v748zM973 1516l201 260h215l-240 -260h-176z" />
    <glyph glyph-name="aeacute" unicode="&#x1fd;" horiz-adv-x="1832" 
d="M1272 -25q-136 0 -244.5 59.5t-173.5 162.5q-62 -106 -171 -164t-241 -58q-157 0 -254.5 83t-97.5 212q0 155 124 244.5t349 89.5h199v27q0 112 -62 174.5t-172 62.5q-94 0 -163.5 -55.5t-75.5 -140.5h-189q7 154 128.5 253t301.5 99q131 0 223 -49t140 -141
q67 90 166 140t217 50q205 0 345 -139t140 -342q0 -45 -8 -84h-811q13 -147 109 -235.5t231 -88.5q105 0 183 49.5t98 128.5h186q-36 -149 -165 -243.5t-312 -94.5zM274 276q0 -68 51 -110.5t144 -42.5q127 0 213 90.5t86 222.5v27h-205q-140 0 -214.5 -48t-74.5 -139z
M825 1104l203 297h207l-238 -297h-172zM956 614h613q-9 108 -93 178t-200 70q-108 0 -197.5 -67.5t-122.5 -180.5z" />
    <glyph glyph-name="Oslashacute" unicode="&#x1fe;" horiz-adv-x="1638" 
d="M248 -92l-137 117l163 192q-188 210 -188 502q0 153 57 290.5t155 235.5t234 155.5t289 57.5q220 0 402 -117l137 162l139 -117l-139 -163q92 -100 142 -229t50 -275q0 -153 -57 -291t-154.5 -237.5t-233 -157.5t-286.5 -58q-227 0 -411 123zM291 719q0 -200 112 -346
l693 821q-127 78 -275 78q-147 0 -269 -73.5t-191.5 -200.5t-69.5 -279zM535 248q128 -86 286 -86q145 0 267 74t192 202t70 281q0 198 -119 352zM711 1516l200 260h215l-239 -260h-176z" />
    <glyph glyph-name="oslashacute" unicode="&#x1ff;" horiz-adv-x="1200" 
d="M227 -78l-118 103l98 120q-129 148 -129 353q0 146 68 266.5t188 190.5t266 71q148 0 274 -74l101 121l121 -102l-101 -121q125 -147 125 -348q0 -225 -149 -376t-371 -151q-149 0 -270 70zM256 498q0 -118 66 -213l442 534q-74 41 -164 41q-147 0 -245.5 -104
t-98.5 -258zM442 180q76 -37 158 -37q145 0 243.5 103t98.5 252q0 122 -63 213zM522 1104l203 297h207l-238 -297h-172z" />
    <glyph glyph-name="uni0218" unicode="&#x218;" horiz-adv-x="1069" 
d="M543 -25q-197 0 -325 133.5t-128 342.5h197q0 -129 71.5 -210t184.5 -81q105 0 173 65.5t68 167.5q0 61 -23 105.5t-62.5 71.5t-90.5 47t-107 36.5t-112 35t-107 48t-90.5 69.5t-62.5 105t-23 150q0 174 117 285.5t299 111.5q191 0 307.5 -122.5t116.5 -313.5h-196
q-3 111 -67 181.5t-165 70.5q-93 0 -155 -59.5t-62 -147.5q0 -58 23 -100.5t62.5 -67t90 -42.5t106.5 -33.5t112.5 -33.5t107.5 -48.5t90.5 -73.5t63 -113t24.5 -162q1 -184 -123.5 -301t-314.5 -117zM270 -356l168 278h201l-195 -278h-174z" />
    <glyph glyph-name="uni0219" unicode="&#x219;" horiz-adv-x="937" 
d="M475 -25q-173 0 -282 86.5t-121 239.5h180q7 -82 67.5 -129t155.5 -47q94 0 149.5 43t55.5 111q0 49 -32.5 81t-84.5 48.5t-114.5 30t-125 31.5t-114.5 45.5t-84.5 80t-32.5 127.5q0 138 102.5 219.5t260.5 81.5q161 0 266.5 -78.5t120.5 -220.5h-185q-11 68 -66 111
t-138 43q-77 0 -131 -35t-54 -103q0 -45 33 -74t85 -43.5t115.5 -26.5t127 -31t115.5 -48t85 -85t33 -136q0 -141 -108.5 -231.5t-278.5 -90.5zM201 -356l168 278h200l-194 -278h-174z" />
    <glyph glyph-name="uni021A" unicode="&#x21a;" horiz-adv-x="974" 
d="M39 1247v187h897v-187h-350v-1247h-197v1247h-350zM221 -356l168 278h201l-195 -278h-174z" />
    <glyph glyph-name="uni021B" unicode="&#x21b;" horiz-adv-x="733" 
d="M20 836v163h195v269h186v-269h283v-163h-283v-502q0 -170 164 -170h119v-164h-141q-328 0 -328 322v514h-195zM203 -356l168 278h200l-194 -278h-174z" />
    <glyph glyph-name="uni0232" unicode="&#x232;" horiz-adv-x="1099" 
d="M29 1434h217l305 -621l301 621h215l-418 -840v-594h-198v594zM215 1548v144h668v-144h-668z" />
    <glyph glyph-name="uni0233" unicode="&#x233;" horiz-adv-x="1046" 
d="M25 999h200l301 -739l295 739h203l-580 -1384h-198l182 426zM201 1135v149h647v-149h-647z" />
    <glyph glyph-name="uni0237" unicode="&#x237;" horiz-adv-x="471" 
d="M37 -217q47 0 75.5 30.5t28.5 86.5v1099h189v-1108q0 -149 -70 -212.5t-203 -63.5h-96v168h76z" />
    <glyph glyph-name="uni0259" unicode="&#x259;" horiz-adv-x="1148" 
d="M561 1024q147 0 265 -69.5t182.5 -187t64.5 -259.5q0 -149 -71.5 -272t-189.5 -192t-255 -69q-206 0 -344.5 139.5t-138.5 342.5q0 49 6 84h811q-12 145 -107.5 234t-232.5 89q-102 0 -180.5 -49.5t-100.5 -128.5h-186q36 150 166 244t311 94zM266 385
q6 -105 88.5 -176.5t202.5 -71.5q111 0 199.5 67.5t120.5 180.5h-611z" />
    <glyph glyph-name="uni0272" unicode="&#x272;" horiz-adv-x="1157" 
d="M-39 -385v168h76q48 0 76 30.5t28 84.5v1101h185v-127q123 152 313 152q174 0 283.5 -120.5t109.5 -328.5v-575h-190v571q0 124 -66 201.5t-184 77.5q-116 0 -190 -79t-74 -210v-674q0 -146 -69.5 -209t-199.5 -63h-98z" />
    <glyph glyph-name="uni02B9" unicode="&#x2b9;" horiz-adv-x="323" 
d="M127 983l-39 260v191h176v-191l-37 -260h-100z" />
    <glyph glyph-name="uni02BA" unicode="&#x2ba;" horiz-adv-x="634" 
d="M438 983l-39 260v191h176v-191l-36 -260h-101zM88 1243v191h176v-191l-37 -260h-100z" />
    <glyph glyph-name="circumflex" unicode="&#x2c6;" horiz-adv-x="1058" 
d="M205 1104l223 297h203l223 -297h-174l-152 180l-151 -180h-172z" />
    <glyph glyph-name="caron" unicode="&#x2c7;" horiz-adv-x="1058" 
d="M428 1104l-223 297h174l151 -180l150 180h174l-223 -297h-203z" />
    <glyph glyph-name="breve" unicode="&#x2d8;" horiz-adv-x="1013" 
d="M809 1395q0 -136 -85 -220.5t-218 -84.5q-130 0 -215.5 85t-85.5 220h145q2 -77 45.5 -127.5t110.5 -50.5q68 0 112 50.5t46 127.5h145z" />
    <glyph glyph-name="dotaccent" unicode="&#x2d9;" horiz-adv-x="614" 
d="M205 1434h205v-236h-205v236z" />
    <glyph glyph-name="ring" unicode="&#x2da;" horiz-adv-x="948" 
d="M473 1092q-114 0 -191 67.5t-77 167.5q0 101 77 168.5t191 67.5q116 0 193 -67.5t77 -168.5q0 -100 -77.5 -167.5t-192.5 -67.5zM332 1327q0 -54 40.5 -91.5t100.5 -37.5q61 0 102 37.5t41 91.5q0 55 -40.5 91t-102.5 36q-60 0 -100.5 -36t-40.5 -91z" />
    <glyph glyph-name="ogonek" unicode="&#x2db;" horiz-adv-x="794" 
d="M412 -412q-99 0 -153 52.5t-54 136.5q0 91 51.5 158t167.5 143l59 -78q-69 -53 -100 -94t-31 -88q0 -43 29.5 -64.5t77.5 -21.5h45l-37 -144h-55z" />
    <glyph glyph-name="tilde" unicode="&#x2dc;" horiz-adv-x="1110" 
d="M700 1112q-45 0 -86.5 24t-68 53t-60 53t-63.5 24q-85 0 -88 -146h-129q0 143 54 216t144 73q37 0 71.5 -16t61.5 -39t52 -46t51 -39t51 -16q83 0 86 148h129q0 -141 -56.5 -215t-148.5 -74z" />
    <glyph glyph-name="hungarumlaut" unicode="&#x2dd;" horiz-adv-x="1089" 
d="M360 1104l150 297h-168l-137 -297h155zM561 1104h154l170 297h-180z" />
    <glyph glyph-name="gravecomb" unicode="&#x300;" 
d="M205 1403h215l192 -299h-174z" />
    <glyph glyph-name="acutecomb" unicode="&#x301;" 
d="M614 1401l-237 -297h-172l203 297h206z" />
    <glyph glyph-name="uni0302" unicode="&#x302;" 
d="M205 1104l223 297h203l223 -297h-174l-152 180l-151 -180h-172z" />
    <glyph glyph-name="tildecomb" unicode="&#x303;" 
d="M700 1112q-45 0 -86.5 24t-68 53t-60 53t-63.5 24q-85 0 -88 -146h-129q0 143 54 216t144 73q37 0 71.5 -16t61.5 -39t52 -46t51 -39t51 -16q83 0 86 148h129q0 -141 -56.5 -215t-148.5 -74z" />
    <glyph glyph-name="uni0304" unicode="&#x304;" 
d="M205 1135v149h647v-149h-647z" />
    <glyph glyph-name="uni0306" unicode="&#x306;" 
d="M809 1395q0 -136 -85 -220.5t-218 -84.5q-130 0 -215.5 85t-85.5 220h145q2 -77 45.5 -127.5t110.5 -50.5q68 0 112 50.5t46 127.5h145z" />
    <glyph glyph-name="uni0307" unicode="&#x307;" 
d="M205 1434h205v-236h-205v236z" />
    <glyph glyph-name="uni0308" unicode="&#x308;" 
d="M586 1331h202v-188h-202v188zM205 1143v188h203v-188h-203z" />
    <glyph glyph-name="uni030A" unicode="&#x30a;" 
d="M473 1092q-114 0 -191 67.5t-77 167.5q0 101 77 168.5t191 67.5q116 0 193 -67.5t77 -168.5q0 -100 -77.5 -167.5t-192.5 -67.5zM332 1327q0 -54 40.5 -91.5t100.5 -37.5q61 0 102 37.5t41 91.5q0 55 -40.5 91t-102.5 36q-60 0 -100.5 -36t-40.5 -91z" />
    <glyph glyph-name="uni030B" unicode="&#x30b;" 
d="M360 1104l150 297h-168l-137 -297h155zM561 1104h154l170 297h-180z" />
    <glyph glyph-name="uni030C" unicode="&#x30c;" 
d="M428 1104l-223 297h174l151 -180l150 180h174l-223 -297h-203z" />
    <glyph glyph-name="uni0312" unicode="&#x312;" 
d="M205 1104l203 287h167l-165 -287h-205z" />
    <glyph glyph-name="uni0326" unicode="&#x326;" 
d="M573 -78l-194 -278h-174l168 278h200z" />
    <glyph glyph-name="uni0327" unicode="&#x327;" 
d="M389 33v-25l-57 -147h24q80 0 131.5 -50t51.5 -128q0 -82 -52.5 -135.5t-132.5 -53.5h-149v98h125q42 0 69 25t27 64q0 37 -27 61.5t-69 24.5h-111v81l68 185h102z" />
    <glyph glyph-name="uni0328" unicode="&#x328;" 
d="M412 -412q-99 0 -153 52.5t-54 136.5q0 91 51.5 158t167.5 143l59 -78q-69 -53 -100 -94t-31 -88q0 -43 29.5 -64.5t77.5 -21.5h45l-37 -144h-55z" />
    <glyph glyph-name="uni0394" unicode="&#x394;" horiz-adv-x="1222" 
d="M47 0v164l465 1270h199l467 -1270v-164h-1131zM250 188h723l-361 979z" />
    <glyph glyph-name="uni03A9" unicode="&#x3a9;" horiz-adv-x="1603" 
d="M100 0v188h338q-149 101 -239 252t-90 326q0 199 88.5 357t246.5 246.5t357 88.5t357.5 -88.5t247.5 -246.5t89 -357q0 -175 -91 -326t-239 -252h338v-188h-575v178q170 115 267 259t97 311q0 230 -136.5 375t-354.5 145q-217 0 -353.5 -145t-136.5 -375
q0 -167 97.5 -311t269.5 -259v-178h-578z" />
    <glyph glyph-name="uni03BC" unicode="&#x3bc;" horiz-adv-x="1173" 
d="M141 -385v1384h189v-571q0 -124 66.5 -202.5t183.5 -78.5t190.5 79t73.5 210v563h188v-999h-184v166q-48 -89 -133.5 -140t-192.5 -51q-111 0 -192 62v-422h-189z" />
    <glyph glyph-name="pi" unicode="&#x3c0;" horiz-adv-x="1253" 
d="M27 836v163h1142v-163h-178v-506q0 -168 162 -168h41v-166h-72q-319 0 -319 319v521h-383v-836h-189v836h-204z" />
    <glyph glyph-name="uni0E3F" unicode="&#xe3f;" horiz-adv-x="1079" 
d="M594 1675v-243q161 -15 262.5 -115t101.5 -242q0 -113 -71.5 -205.5t-159.5 -115.5q109 -17 184.5 -119t75.5 -238q0 -163 -112 -276.5t-281 -120.5v-246h-180v246h-250v1434h250v241h180zM362 166h195q102 0 166.5 69.5t64.5 172.5t-65 173t-164 70h-197v-485zM362 815
h152q103 0 175.5 67.5t72.5 164.5q0 94 -67.5 157.5t-168.5 63.5h-164v-453z" />
    <glyph glyph-name="uni1E20" unicode="&#x1e20;" horiz-adv-x="1572" 
d="M807 -25q-151 0 -284.5 56.5t-229 155t-150.5 236t-55 294.5q0 206 96 376t263 267.5t368 97.5q240 0 411.5 -128.5t233.5 -321.5h-217q-54 118 -175.5 193t-256.5 75q-142 0 -261.5 -72t-190 -200t-70.5 -283q0 -243 150 -403t376 -160q201 0 331.5 125.5t139.5 308.5
h-465v182h666q2 -29 2 -94q0 -193 -85.5 -353.5t-242.5 -256t-354 -95.5zM481 1548v144h668v-144h-668z" />
    <glyph glyph-name="uni1E21" unicode="&#x1e21;" horiz-adv-x="1255" 
d="M485 -385q-188 0 -282 89t-94 245v33h188v-31q0 -81 56 -127.5t167 -46.5h185q114 0 168.5 56.5t54.5 176.5v174q-63 -75 -152 -116t-196 -41q-215 0 -358.5 140t-143.5 357q0 215 144 358.5t358 143.5q110 0 201.5 -45t156.5 -125v143h178v-983q0 -191 -100.5 -296
t-290.5 -105h-240zM268 524q0 -143 95 -239.5t237 -96.5q147 0 242.5 94.5t95.5 241.5q0 146 -96 241t-242 95q-141 0 -236.5 -97.5t-95.5 -238.5zM309 1135v149h647v-149h-647z" />
    <glyph glyph-name="Wgrave" unicode="&#x1e80;" horiz-adv-x="1832" 
d="M410 0l-369 1434h209l217 -818q20 -80 37 -159t24 -117l7 -39q30 133 83 313l228 820h164l223 -805q23 -80 43.5 -158.5t29.5 -116.5l9 -39q20 136 65 316l211 803h201l-371 -1434h-194l-305 1075l-306 -1075h-206zM592 1776h219l201 -260h-178z" />
    <glyph glyph-name="wgrave" unicode="&#x1e81;" horiz-adv-x="1562" 
d="M362 0l-331 999h198l236 -723l242 723h159l242 -716l229 716h195l-332 -999h-168l-250 715l-252 -715h-168zM471 1403h215l193 -299h-174z" />
    <glyph glyph-name="Wacute" unicode="&#x1e82;" horiz-adv-x="1832" 
d="M410 0l-369 1434h209l217 -818q20 -80 37 -159t24 -117l7 -39q30 133 83 313l228 820h164l223 -805q23 -80 43.5 -158.5t29.5 -116.5l9 -39q20 136 65 316l211 803h201l-371 -1434h-194l-305 1075l-306 -1075h-206zM815 1516l201 260h215l-240 -260h-176z" />
    <glyph glyph-name="wacute" unicode="&#x1e83;" horiz-adv-x="1562" 
d="M362 0l-331 999h198l236 -723l242 723h159l242 -716l229 716h195l-332 -999h-168l-250 715l-252 -715h-168zM702 1104l203 297h207l-238 -297h-172z" />
    <glyph glyph-name="Wdieresis" unicode="&#x1e84;" horiz-adv-x="1832" 
d="M410 0l-369 1434h209l217 -818q20 -80 37 -159t24 -117l7 -39q30 133 83 313l228 820h164l223 -805q23 -80 43.5 -158.5t29.5 -116.5l9 -39q20 136 65 316l211 803h201l-371 -1434h-194l-305 1075l-306 -1075h-206zM604 1522v186h195v-186h-195zM1034 1522v186h195v-186
h-195z" />
    <glyph glyph-name="wdieresis" unicode="&#x1e85;" horiz-adv-x="1562" 
d="M362 0l-331 999h198l236 -723l242 723h159l242 -716l229 716h195l-332 -999h-168l-250 715l-252 -715h-168zM489 1143v188h203v-188h-203zM870 1143v188h203v-188h-203z" />
    <glyph glyph-name="uni1E9E" unicode="&#x1e9e;" horiz-adv-x="1275" 
d="M588 1434h553v-156l-342 -455q162 -3 275.5 -112.5t113.5 -278.5q0 -184 -126.5 -308t-318.5 -124h-251v188h249q106 0 176 70t70 172q0 101 -68 170.5t-174 69.5h-159v131l325 452l-329 -2q-236 -3 -236 -268v-983h-196v983q0 220 110 335.5t328 115.5z" />
    <glyph glyph-name="uni1EA0" unicode="&#x1ea0;" horiz-adv-x="1206" 
d="M23 0l487 1434h188l486 -1434h-215l-103 322h-532l-105 -322h-206zM375 508h442l-219 666zM500 -424v236h205v-236h-205z" />
    <glyph glyph-name="uni1EA1" unicode="&#x1ea1;" horiz-adv-x="1077" 
d="M451 -25q-164 0 -263.5 82t-99.5 217q0 151 123 240.5t348 89.5h203v33q0 107 -63 169t-173 62q-95 0 -164 -55.5t-75 -140.5h-187q6 154 127 253t301 99q196 0 309 -109t113 -294v-621h-184v135q-52 -72 -137 -116t-178 -44zM272 279q0 -70 51 -113t142 -43
q128 0 214.5 89.5t86.5 219.5v31h-203q-140 0 -215.5 -47t-75.5 -137zM430 -424v236h205v-236h-205z" />
    <glyph glyph-name="uni1EB8" unicode="&#x1eb8;" horiz-adv-x="960" 
d="M160 1434h710v-187h-512v-399h445v-180h-445v-482h512v-186h-710v1434zM379 -424v236h205v-236h-205z" />
    <glyph glyph-name="uni1EB9" unicode="&#x1eb9;" horiz-adv-x="1148" 
d="M588 -25q-147 0 -265 69.5t-182.5 187.5t-64.5 260q0 149 71.5 272t189.5 191.5t255 68.5q206 0 344.5 -139t138.5 -342q0 -49 -6 -84h-811q12 -145 107.5 -234.5t232.5 -89.5q102 0 180.5 49.5t100.5 128.5h186q-36 -150 -166 -244t-311 -94zM272 614h611
q-6 105 -88.5 176.5t-202.5 71.5q-111 0 -199.5 -67.5t-120.5 -180.5zM473 -424v236h205v-236h-205z" />
    <glyph glyph-name="uni1EBC" unicode="&#x1ebc;" horiz-adv-x="960" 
d="M160 1434h710v-187h-512v-399h445v-180h-445v-482h512v-186h-710v1434zM152 1516q1 123 57 191.5t143 68.5q55 0 119 -32t117 -63.5t82 -31.5q35 0 58 28.5t26 89.5h137q-1 -121 -60 -190.5t-147 -69.5q-44 0 -92.5 19.5t-83 43t-72.5 43t-63 19.5q-35 0 -59 -29t-27 -87
h-135z" />
    <glyph glyph-name="uni1EBD" unicode="&#x1ebd;" horiz-adv-x="1148" 
d="M588 -25q-147 0 -265 69.5t-182.5 187.5t-64.5 260q0 149 71.5 272t189.5 191.5t255 68.5q206 0 344.5 -139t138.5 -342q0 -49 -6 -84h-811q12 -145 107.5 -234.5t232.5 -89.5q102 0 180.5 49.5t100.5 128.5h186q-36 -150 -166 -244t-311 -94zM225 1120q0 142 54.5 215.5
t144.5 73.5q37 0 71.5 -16t61.5 -39t52 -46t51 -39t51 -16q83 0 86 148h129q0 -141 -56.5 -215t-148.5 -74q-45 0 -86.5 24t-68.5 53t-60.5 53t-63.5 24q-85 0 -88 -146h-129zM272 614h611q-6 105 -88.5 176.5t-202.5 71.5q-111 0 -199.5 -67.5t-120.5 -180.5z" />
    <glyph glyph-name="uni1ECA" unicode="&#x1eca;" horiz-adv-x="516" 
d="M160 1434h198v-1434h-198v1434zM156 -424v236h204v-236h-204z" />
    <glyph glyph-name="uni1ECB" unicode="&#x1ecb;" horiz-adv-x="471" 
d="M141 999h189v-999h-189v999zM133 -424v236h205v-236h-205zM133 1198v236h205v-236h-205z" />
    <glyph glyph-name="uni1ECC" unicode="&#x1ecc;" horiz-adv-x="1636" 
d="M819 -25q-152 0 -288 58t-233.5 157t-154.5 237t-57 292q0 153 57 290t154.5 235.5t233.5 156t288 57.5t288 -57.5t233.5 -156t154.5 -235.5t57 -290q0 -154 -57 -292t-154.5 -237t-233.5 -157t-288 -58zM289 719q0 -154 70 -282t192 -201.5t268 -73.5t267.5 73.5
t191.5 201.5t70 282q0 152 -70 279t-191.5 200.5t-267.5 73.5t-268 -73.5t-192 -200.5t-70 -279zM717 -424v236h205v-236h-205z" />
    <glyph glyph-name="uni1ECD" unicode="&#x1ecd;" horiz-adv-x="1198" 
d="M598 -25q-107 0 -204 40.5t-166.5 110t-110.5 167.5t-41 207q0 144 69.5 264.5t189.5 190t263 69.5t263.5 -69.5t190.5 -190t70 -264.5q0 -146 -70 -267t-190 -189.5t-264 -68.5zM260 500q0 -149 96.5 -249.5t241.5 -100.5q143 0 241.5 100.5t98.5 249.5q0 148 -98.5 249
t-241.5 101q-144 0 -241 -101t-97 -249zM498 -424v236h204v-236h-204z" />
    <glyph glyph-name="uni1EE4" unicode="&#x1ee4;" horiz-adv-x="1245" 
d="M623 -25q-215 0 -345.5 139t-130.5 369v951h199v-955q0 -145 75.5 -231t201.5 -86q127 0 201.5 86t74.5 231v955h199v-951q0 -230 -130 -369t-345 -139zM520 -424v236h205v-236h-205z" />
    <glyph glyph-name="uni1EE5" unicode="&#x1ee5;" horiz-adv-x="1159" 
d="M1018 999v-999h-184v119q-57 -68 -137 -106t-173 -38q-179 0 -288 121t-109 328v575h190v-571q0 -123 66.5 -200.5t183.5 -77.5q116 0 190 78.5t74 209.5v561h187zM477 -424v236h205v-236h-205z" />
    <glyph glyph-name="Ygrave" unicode="&#x1ef2;" horiz-adv-x="1099" 
d="M29 1434h217l305 -621l301 621h215l-418 -840v-594h-198v594zM223 1776h219l201 -260h-178z" />
    <glyph glyph-name="ygrave" unicode="&#x1ef3;" horiz-adv-x="1046" 
d="M25 999h200l301 -739l295 739h203l-580 -1384h-198l182 426zM215 1403h215l193 -299h-174z" />
    <glyph glyph-name="uni1EF8" unicode="&#x1ef8;" horiz-adv-x="1099" 
d="M29 1434h217l305 -621l301 621h215l-418 -840v-594h-198v594zM178 1516q1 123 57.5 191.5t143.5 68.5q55 0 118.5 -32t116.5 -63.5t82 -31.5q35 0 58 28.5t26 89.5h138q-1 -121 -60 -190.5t-147 -69.5q-56 0 -117.5 31.5t-112.5 62.5t-82 31q-35 0 -59 -29t-27 -87h-135z
" />
    <glyph glyph-name="uni1EF9" unicode="&#x1ef9;" horiz-adv-x="1046" 
d="M25 999h200l301 -739l295 739h203l-580 -1384h-198l182 426zM174 1120q0 142 54.5 215.5t144.5 73.5q45 0 88 -24.5t71 -53.5t62.5 -53.5t64.5 -24.5q83 0 86 148h129q0 -141 -56 -215t-148 -74q-45 0 -86.5 24t-68.5 53t-60.5 53t-63.5 24q-85 0 -88 -146h-129z" />
    <glyph glyph-name="endash" unicode="&#x2013;" horiz-adv-x="1159" 
d="M92 485v179h975v-179h-975z" />
    <glyph glyph-name="emdash" unicode="&#x2014;" horiz-adv-x="2230" 
d="M92 485v179h2044v-179h-2044z" />
    <glyph glyph-name="quoteleft" unicode="&#x2018;" horiz-adv-x="464" 
d="M256 1225q0 -25 15 -40.5t40 -15.5h45v-223h-229v488h129v-209z" />
    <glyph glyph-name="quoteright" unicode="&#x2019;" horiz-adv-x="450" 
d="M195 1155q0 25 -15.5 40t-40.5 15h-45v224h230v-488h-129v209z" />
    <glyph glyph-name="quotesinglbase" unicode="&#x201a;" horiz-adv-x="430" 
d="M197 -55q0 25 -15.5 40t-40.5 15h-45v223h230v-487h-129v209z" />
    <glyph glyph-name="quotedblleft" unicode="&#x201c;" horiz-adv-x="806" 
d="M256 1225q0 -25 15 -40.5t40 -15.5h45v-223h-229v488h129v-209zM471 946v488h129v-209q0 -25 15 -40.5t40 -15.5h45v-223h-229z" />
    <glyph glyph-name="quotedblright" unicode="&#x201d;" horiz-adv-x="794" 
d="M539 1155q0 25 -15.5 40t-40.5 15h-45v224h230v-488h-129v209zM94 1210v224h230v-488h-129v209q0 25 -15.5 40t-40.5 15h-45z" />
    <glyph glyph-name="quotedblbase" unicode="&#x201e;" horiz-adv-x="772" 
d="M541 -55q0 25 -15.5 40t-40.5 15h-45v223h230v-487h-129v209zM96 0v223h230v-487h-129v209q0 25 -15.5 40t-40.5 15h-45z" />
    <glyph glyph-name="dagger" unicode="&#x2020;" horiz-adv-x="909" 
d="M90 938v162h281v334h172v-334h276v-162h-276v-555h-172v555h-281z" />
    <glyph glyph-name="daggerdbl" unicode="&#x2021;" horiz-adv-x="931" 
d="M102 313v162h279v483h-279v162h279v314h172v-314h276v-162h-276v-483h276v-162h-276v-313h-172v313h-279z" />
    <glyph glyph-name="bullet" unicode="&#x2022;" horiz-adv-x="827" 
d="M412 254q-104 0 -174 71t-70 177q0 104 70 175t174 71q106 0 176.5 -71t70.5 -175q0 -106 -70.5 -177t-176.5 -71z" />
    <glyph glyph-name="ellipsis" unicode="&#x2026;" horiz-adv-x="1327" 
d="M549 223h229v-223h-229v223zM119 0v223h229v-223h-229zM979 0v223h229v-223h-229z" />
    <glyph glyph-name="perthousand" unicode="&#x2030;" horiz-adv-x="2314" 
d="M1939 -25q-141 0 -234 100.5t-93 252.5q0 151 93 251.5t234 100.5q142 0 236 -100.5t94 -251.5q0 -152 -94 -252.5t-236 -100.5zM57 1108q0 151 93.5 251.5t234.5 100.5q142 0 235 -100.5t93 -251.5q0 -152 -93 -252t-235 -100q-141 0 -234.5 100t-93.5 252zM205 1108
q0 -97 49 -158t131 -61t132 61.5t50 157.5q0 95 -50 156t-132 61t-131 -61t-49 -156zM297 0l829 1434h158l-829 -1434h-158zM889 328q0 151 93.5 251.5t234.5 100.5q142 0 234.5 -100.5t92.5 -251.5q0 -153 -92.5 -253t-234.5 -100q-141 0 -234.5 100.5t-93.5 252.5z
M1036 328q0 -97 49.5 -158t131.5 -61t132 61.5t50 157.5q0 95 -50 156t-132 61t-131.5 -61t-49.5 -156zM1759 328q0 -97 49 -158t131 -61t132.5 61.5t50.5 157.5q0 95 -50.5 156t-132.5 61t-131 -61t-49 -156z" />
    <glyph glyph-name="minute" unicode="&#x2032;" horiz-adv-x="399" 
d="M150 983l-39 260v191h176v-191l-37 -260h-100z" />
    <glyph glyph-name="second" unicode="&#x2033;" horiz-adv-x="708" 
d="M461 983l-39 260v191h176v-191l-37 -260h-100zM111 1243v191h176v-191l-37 -260h-100z" />
    <glyph glyph-name="guilsinglleft" unicode="&#x2039;" horiz-adv-x="788" 
d="M682 35l-586 418v141l586 422v-199l-410 -293l410 -291v-198z" />
    <glyph glyph-name="guilsinglright" unicode="&#x203a;" horiz-adv-x="788" 
d="M106 1014l586 -418v-141l-586 -422v198l410 293l-410 291v199z" />
    <glyph glyph-name="fraction" unicode="&#x2044;" horiz-adv-x="401" 
d="M537 1434h157l-829 -1434h-158z" />
    <glyph glyph-name="franc" unicode="&#x20a3;" horiz-adv-x="978" 
d="M684 268h-270v-268h-199v268h-143v160h143v1006h711v-187h-512v-403h444v-187h-444v-229h270v-160z" />
    <glyph glyph-name="uni20A6" unicode="&#x20a6;" horiz-adv-x="1542" 
d="M502 809v-51v-131h219l-88 164l-10 18h-121zM111 809v152h198v473h195l252 -473h282v473h195v-473h199v-152h-199v-182h201v-152h-201v-475h-178l-254 475h-299v-475h-193v475h-196v152h196v182h-198zM492 1098q4 -53 6 -137h53zM836 809l71 -133l25 -49h14v-29
q2 -2 2 -4v33h90v80v102h-202zM1004 475l47 -106q-5 40 -7 106h-40z" />
    <glyph glyph-name="uni20A9" unicode="&#x20a9;" horiz-adv-x="1949" 
d="M72 731v160h168l-140 543h209l144 -543h301l151 543h164l150 -543h288l144 543h200l-141 -543h168v-160h-209l-188 -731h-195l-207 731h-196l-207 -731h-207l-188 731h-209zM496 731l30 -115q20 -80 37 -158.5t24 -117.5l7 -39q31 133 84 313l33 117h-215zM928 891h106
l-53 184zM1264 731l28 -102q23 -80 43.5 -158.5t29.5 -116.5l9 -39q21 136 66 316l26 100h-202z" />
    <glyph glyph-name="uni20AA" unicode="&#x20aa;" horiz-adv-x="1691" 
d="M557 0v1042h193v-866h387q211 0 211 219v1039h192v-1072q0 -175 -100 -268.5t-273 -93.5h-610zM164 0v1434h590q183 0 286 -91t103 -256v-696h-193v647q0 112 -51.5 165.5t-159.5 53.5h-385v-1257h-190z" />
    <glyph glyph-name="dong" unicode="&#x20ab;" horiz-adv-x="1366" 
d="M1124 -178v-121h-954v121h954zM84 498q0 226 147 376t363 150q111 0 205 -44t157 -122v322h-307v120h307v134h189v-134h147v-120h-147v-1180h-189v141q-63 -78 -157 -122t-205 -44q-142 0 -258.5 67t-184 187t-67.5 269zM270 500q0 -147 99 -245.5t243 -98.5
q148 0 246 96t98 248q0 149 -98.5 247.5t-245.5 98.5q-143 0 -242.5 -100t-99.5 -246z" />
    <glyph glyph-name="Euro" unicode="&#x20ac;" horiz-adv-x="1339" 
d="M848 969l-39 -160h-346v-182h385l-39 -160h-344q15 -141 93 -223t200 -82q124 0 201 84.5t85 224.5h195q-8 -226 -138.5 -361t-342.5 -135q-208 0 -340 132.5t-152 359.5h-155v160h153v182h-153v160h155q20 224 153 356.5t339 132.5q211 0 342.5 -135t138.5 -360h-195
q-6 139 -84 223t-202 84q-121 0 -199 -81.5t-92 -219.5h381z" />
    <glyph glyph-name="uni20B1" unicode="&#x20b1;" horiz-adv-x="1353" 
d="M272 0v817h-192v148h192v69h-192v146h192v254h375q152 0 265 -68t163 -186h213v-146h-180v-28q0 -27 -2 -41h182v-148h-213q-50 -126 -161.5 -198t-262.5 -72h-182v-547h-197zM469 731h168q138 0 211 86h-379v-86zM469 965h438q2 10 2 32q0 25 -2 37h-438v-69zM469 1180
h367q-72 69 -199 69h-168v-69z" />
    <glyph glyph-name="uni20B4" unicode="&#x20b4;" horiz-adv-x="1335" 
d="M88 518v152h277q17 15 57 39l96 57h-430v149h680l25 15q104 65 104 168q0 80 -55 128t-148 48q-102 0 -171 -71t-72 -181h-197q0 191 124.5 313.5t326.5 122.5q176 0 282.5 -96t106.5 -258q0 -102 -54 -189h207v-149h-379l-159 -96h538v-152h-772q-55 -58 -55 -149
q0 -97 60.5 -153t162.5 -56q114 0 190.5 75.5t79.5 196.5h199q0 -200 -134.5 -328.5t-332.5 -128.5q-194 0 -309 103t-115 282q0 82 29 158h-162z" />
    <glyph glyph-name="uni20BA" unicode="&#x20ba;" horiz-adv-x="1261" 
d="M334 0v508l-228 -109v162l228 109v196l-228 -108v162l228 108v406h196v-314l379 180v-161l-379 -181v-196l379 180v-162l-379 -180v-414h222q119 0 181 63t62 183v62h199v-70q0 -200 -117 -312t-325 -112h-418z" />
    <glyph glyph-name="uni20BD" unicode="&#x20bd;" horiz-adv-x="1177" 
d="M102 317v158h166v184h-166v158h166v617h408q198 0 321 -105.5t123 -277.5q0 -177 -122 -284.5t-318 -107.5h-215v-184h383v-158h-383v-317h-197v317h-166zM465 817h201q117 0 186.5 62.5t69.5 164.5q0 95 -69.5 154t-186.5 59h-201v-440z" />
    <glyph glyph-name="uni20BF" unicode="&#x20bf;" horiz-adv-x="1075" 
d="M438 1675v-241h101q21 0 67 -4v245h135v-282q99 -46 156 -130.5t57 -187.5q0 -113 -71.5 -205.5t-159.5 -115.5q109 -17 184.5 -119t75.5 -238q0 -122 -66 -219t-176 -143v-281h-135v248q-12 -2 -39 -2h-129v-246h-135v246h-143v1434h143v241h135zM358 166h195
q102 0 166.5 69.5t64.5 172.5t-65 173t-164 70h-197v-485zM358 815h152q103 0 175.5 67.5t72.5 164.5q0 94 -67.5 157.5t-168.5 63.5h-164v-453z" />
    <glyph glyph-name="uni2116" unicode="&#x2116;" horiz-adv-x="2373" 
d="M1782 1458q215 0 361.5 -146.5t146.5 -363.5q0 -215 -147 -361.5t-361 -146.5q-105 0 -199 38.5t-162 105.5t-107.5 161.5t-39.5 200.5q0 141 67.5 259t184.5 185.5t256 67.5zM160 0v1434h194l404 -758q38 -74 74 -150.5t52 -116.5l17 -40q-12 152 -12 338v727h194v-1434
h-178l-422 791q-37 74 -72.5 150.5t-52.5 116.5l-16 40q10 -154 10 -340v-758h-192zM1311 0v176h944v-176h-944zM1450 948q0 -142 96 -240t236 -98t236 98t96 240q0 143 -96.5 241.5t-235.5 98.5t-235.5 -98.5t-96.5 -241.5z" />
    <glyph glyph-name="uni2117" unicode="&#x2117;" horiz-adv-x="1703" 
d="M850 -25q-150 0 -286.5 59t-235.5 158.5t-158 237t-59 287.5q0 201 99.5 371.5t269.5 270t370 99.5q151 0 288.5 -59t237 -158t158.5 -236.5t59 -287.5t-59 -287.5t-158.5 -237t-237 -158.5t-288.5 -59zM201 717q0 -177 87.5 -328t237.5 -239.5t326 -88.5t325.5 88.5
t236.5 239.5t87 328q0 133 -51.5 255t-138.5 210t-207 140t-252 52t-252.5 -52t-207.5 -140t-139 -210t-52 -255zM657 326v788h226q110 0 181 -63.5t71 -165.5q0 -106 -70 -176t-180 -70h-99v-313h-129zM786 756h91q58 0 92.5 34.5t34.5 90.5q0 52 -34.5 84t-92.5 32h-91
v-241z" />
    <glyph glyph-name="trademark" unicode="&#x2122;" horiz-adv-x="1576" 
d="M641 717v717h201l200 -496l201 496h195v-717h-140v520l-206 -520h-103l-211 528v-528h-137zM61 1303v131h484v-131h-168v-586h-148v586h-168z" />
    <glyph glyph-name="uni2126" unicode="&#x2126;" horiz-adv-x="1624" 
d="M111 0v188h338q-149 101 -239.5 252t-90.5 326q0 199 88.5 357t246.5 246.5t357 88.5t357.5 -88.5t247.5 -246.5t89 -357q0 -175 -91 -326t-238 -252h337v-188h-575v178q171 115 268 259t97 311q0 230 -137 375t-355 145q-217 0 -353 -145t-136 -375q0 -168 97 -311.5
t269 -258.5v-178h-577z" />
    <glyph glyph-name="oneeighth" unicode="&#x215b;" horiz-adv-x="1558" 
d="M332 1434v-859h-131v601h-138v116h52q48 0 70 21.5t22 68.5v52h125zM174 0l830 1434h157l-829 -1434h-158zM897 238q0 70 41 127.5t109 87.5q-129 61 -129 188q0 103 76.5 168t199.5 65q121 0 197.5 -66t76.5 -169q0 -62 -34.5 -110t-96.5 -76q65 -26 108.5 -85
t43.5 -132q0 -104 -84 -177t-211 -73q-128 0 -212.5 72t-84.5 180zM1028 242q0 -62 48 -104t118 -42q68 0 115 42.5t47 103.5t-47 103t-115 42q-70 0 -118 -41.5t-48 -103.5zM1038 633q0 -59 43.5 -96t112.5 -37q66 0 109 37.5t43 95.5q0 60 -43 98.5t-109 38.5
q-69 0 -112.5 -38.5t-43.5 -98.5z" />
    <glyph glyph-name="threeeighths" unicode="&#x215c;" horiz-adv-x="1767" 
d="M365 561q-130 0 -212 76.5t-81 198.5h129q0 -66 45 -111t114 -45t115.5 41t46.5 102q0 59 -50 97t-126 38h-33v113h33q73 0 119.5 36.5t46.5 92.5q0 58 -41.5 94.5t-105.5 36.5q-67 0 -110.5 -40.5t-43.5 -102.5h-127q0 114 79.5 188t201.5 74q123 0 199.5 -65t76.5 -171
q0 -65 -36.5 -117.5t-102.5 -80.5q70 -22 111.5 -75.5t41.5 -127.5q0 -109 -82.5 -180.5t-207.5 -71.5zM381 0l829 1434h158l-829 -1434h-158zM1104 238q0 70 40.5 128t108.5 87q-129 61 -129 188q0 103 77 168t200 65q121 0 197.5 -66t76.5 -169q0 -62 -34.5 -110
t-96.5 -76q65 -26 108.5 -85t43.5 -132q0 -104 -84 -177t-211 -73q-128 0 -212.5 72t-84.5 180zM1235 242q0 -62 48 -104t118 -42q68 0 115 42.5t47 103.5t-47 103t-115 42q-70 0 -118 -41.5t-48 -103.5zM1245 633q0 -59 43.5 -96t112.5 -37q66 0 108.5 37.5t42.5 95.5
q0 60 -42.5 98.5t-108.5 38.5q-69 0 -112.5 -38.5t-43.5 -98.5z" />
    <glyph glyph-name="fiveeighths" unicode="&#x215d;" horiz-adv-x="1759" 
d="M356 561q-129 0 -211.5 76t-83.5 199h134q2 -65 47 -107.5t114 -42.5q71 0 118.5 49t47.5 119q0 78 -46 125t-120 47q-86 0 -141 -65h-121l43 475h467v-123h-352l-25 -238q60 51 154 51q123 0 198.5 -72.5t75.5 -201.5q0 -125 -86 -208t-213 -83zM373 0l829 1434h158
l-830 -1434h-157zM1098 238q0 70 40.5 128t108.5 87q-129 61 -129 188q0 103 77 168t200 65q121 0 197.5 -66t76.5 -169q0 -62 -34.5 -110t-96.5 -76q65 -26 108.5 -85t43.5 -132q0 -104 -84 -177t-211 -73q-128 0 -212.5 72t-84.5 180zM1229 242q0 -62 48 -104t118 -42
q68 0 114.5 42.5t46.5 103.5t-46.5 103t-114.5 42q-70 0 -118 -41.5t-48 -103.5zM1239 633q0 -59 43.5 -96t112.5 -37q66 0 108.5 37.5t42.5 95.5q0 60 -42.5 98.5t-108.5 38.5q-69 0 -112.5 -38.5t-43.5 -98.5z" />
    <glyph glyph-name="seveneighths" unicode="&#x215e;" horiz-adv-x="1589" 
d="M133 575l340 738h-418v123h568v-111l-347 -750h-143zM203 0l829 1434h158l-830 -1434h-157zM928 238q0 70 40.5 128t108.5 87q-129 61 -129 188q0 103 77 168t200 65q121 0 197.5 -66t76.5 -169q0 -62 -34.5 -110t-96.5 -76q65 -26 108.5 -85t43.5 -132q0 -104 -84 -177
t-211 -73q-128 0 -212.5 72t-84.5 180zM1059 242q0 -62 48 -104t118 -42q68 0 114.5 42.5t46.5 103.5t-46.5 103t-114.5 42q-70 0 -118 -41.5t-48 -103.5zM1069 633q0 -59 43.5 -96t112.5 -37q66 0 108.5 37.5t42.5 95.5q0 60 -42.5 98.5t-108.5 38.5q-69 0 -112.5 -38.5
t-43.5 -98.5z" />
    <glyph glyph-name="arrowleft" unicode="&#x2190;" horiz-adv-x="1462" 
d="M721 -2l-625 618l625 623l129 -131l-410 -401h914v-179h-918l412 -401z" />
    <glyph glyph-name="arrowup" unicode="&#x2191;" horiz-adv-x="1394" 
d="M1309 649l-133 -131l-383 395v-911h-189v916l-387 -400l-129 131l610 613z" />
    <glyph glyph-name="arrowright" unicode="&#x2192;" horiz-adv-x="1462" 
d="M741 -2l-127 129l412 401h-920v179h916l-412 401l131 131l625 -623z" />
    <glyph glyph-name="arrowdown" unicode="&#x2193;" horiz-adv-x="1398" 
d="M88 582l133 131l383 -396v912h189v-916l387 400l129 -131l-611 -613z" />
    <glyph glyph-name="uni2196" unicode="&#x2196;" horiz-adv-x="1255" 
d="M141 358l-2 867h871v-178h-561l718 -723l-131 -131l-719 725l7 -560h-183z" />
    <glyph glyph-name="uni2197" unicode="&#x2197;" horiz-adv-x="1261" 
d="M1122 319h-186v566l-719 -719l-127 127l727 725l-575 -2l2 180h878v-877z" />
    <glyph glyph-name="uni2198" unicode="&#x2198;" horiz-adv-x="1226" 
d="M1098 866l2 -866h-871v178h562l-719 723l131 131l719 -725l-7 559h183z" />
    <glyph glyph-name="uni2199" unicode="&#x2199;" horiz-adv-x="1230" 
d="M127 877h186v-566l719 719l127 -127l-727 -725l576 2l-2 -180h-879v877z" />
    <glyph glyph-name="partialdiff" unicode="&#x2202;" horiz-adv-x="1150" 
d="M567 -25q-139 0 -254.5 65t-181 177t-65.5 246q0 206 135 341.5t336 135.5q68 0 129 -25l-326 519h229l385 -613q57 -91 87 -187.5t30 -174.5q0 -206 -144.5 -345t-359.5 -139zM264 459q0 -129 87.5 -216t215.5 -87q129 0 217 87t88 216q0 131 -87 221t-216 90
q-132 0 -218.5 -88t-86.5 -223z" />
    <glyph glyph-name="emptyset" unicode="&#x2205;" horiz-adv-x="1691" 
d="M274 -92l-137 117l164 192q-188 210 -188 502q0 153 57 290.5t155 235.5t234 155.5t289 57.5q219 0 401 -117l137 162l140 -117l-140 -163q92 -100 142.5 -229t50.5 -275q0 -153 -57 -291t-154.5 -237.5t-233 -157.5t-286.5 -58q-228 0 -412 123zM317 719
q0 -198 113 -346l692 821q-127 78 -274 78t-269 -73.5t-192 -200.5t-70 -279zM561 248q128 -86 287 -86q145 0 266.5 74t191.5 202t70 281q0 198 -119 352z" />
    <glyph glyph-name="uni2206" unicode="&#x2206;" horiz-adv-x="1228" 
d="M49 0v164l465 1270h199l467 -1270v-164h-1131zM252 188h723l-361 979z" />
    <glyph glyph-name="product" unicode="&#x220f;" horiz-adv-x="1327" 
d="M160 0v1434h1007v-1434h-198v1245h-611v-1245h-198z" />
    <glyph glyph-name="summation" unicode="&#x2211;" horiz-adv-x="1148" 
d="M727 780v-127l-371 -465h715v-188h-991v172l440 543l-440 547v172h991v-189h-711z" />
    <glyph glyph-name="minus" unicode="&#x2212;" horiz-adv-x="1269" 
d="M1096 758v-174h-922v174h922z" />
    <glyph glyph-name="radical" unicode="&#x221a;" horiz-adv-x="1304" 
d="M88 811v188h361l227 -710l381 1145h200l-489 -1434h-195l-260 811h-225z" />
    <glyph glyph-name="infinity" unicode="&#x221e;" horiz-adv-x="1970" 
d="M1389 1161q206 0 336 -142t130 -349q0 -136 -57 -248t-164.5 -179t-244.5 -67q-136 0 -249.5 77.5t-154.5 188.5q-41 -112 -153 -189t-248 -77q-138 0 -246 67.5t-165.5 179.5t-57.5 247q0 134 57.5 245.5t165.5 178.5t246 67q136 0 248 -76.5t153 -187.5
q41 110 154.5 187t249.5 77zM305 670q0 -139 80 -227.5t207 -88.5q118 0 206 86t109 230q-21 142 -109 227.5t-206 85.5q-127 0 -207 -88t-80 -225zM1073 670q21 -143 107.5 -229.5t199.5 -86.5q126 0 205.5 89t79.5 227q0 137 -79.5 225t-205.5 88q-113 0 -199.5 -85.5
t-107.5 -227.5z" />
    <glyph glyph-name="integral" unicode="&#x222b;" horiz-adv-x="700" 
d="M63 -319v161h39q144 0 144 152v1116q0 159 79 241.5t234 82.5h84v-160h-61q-67 0 -107.5 -41t-40.5 -115v-1118q0 -161 -74 -240t-233 -79h-64z" />
    <glyph glyph-name="approxequal" unicode="&#x2248;" horiz-adv-x="1269" 
d="M172 684q0 173 76.5 270t181.5 97q58 0 119 -28t102.5 -61.5t89 -61.5t82.5 -28q47 0 79 46t32 131l170 2q0 -172 -77 -269.5t-181 -97.5q-56 0 -115.5 28t-102 62t-91.5 62t-86 28q-47 0 -78 -47t-31 -131zM172 236q0 173 76.5 269.5t181.5 96.5q58 0 119 -28t102.5 -61
t89 -61t82.5 -28q47 0 79 45.5t32 130.5l170 2q0 -172 -76.5 -269t-181.5 -97q-56 0 -115.5 28t-102 62t-91.5 62t-86 28q-47 0 -78 -47t-31 -131z" />
    <glyph glyph-name="notequal" unicode="&#x2260;" horiz-adv-x="1269" 
d="M899 1212l-74 -235h269v-174h-324l-82 -258h406v-174h-461l-74 -234h-190l73 234h-270v174h326l82 258h-408v174h463l74 235h190z" />
    <glyph glyph-name="lessequal" unicode="&#x2264;" horiz-adv-x="1269" 
d="M180 127v168h897v-168h-897zM180 729v197l897 293v-181l-661 -209l661 -223v-182z" />
    <glyph glyph-name="greaterequal" unicode="&#x2265;" horiz-adv-x="1269" 
d="M193 127v168h899v-168h-899zM193 424v180l663 211l-663 223v181l899 -304v-198z" />
    <glyph glyph-name="uni2460" unicode="&#x2460;" horiz-adv-x="1703" 
d="M850 -25q-150 0 -286.5 59t-235.5 158.5t-158 237t-59 287.5q0 201 99.5 371.5t269.5 270t370 99.5q151 0 288.5 -59t237 -158t158.5 -236.5t59 -287.5t-59 -287.5t-158.5 -237t-237 -158.5t-288.5 -59zM201 717q0 -177 87.5 -328t237.5 -239.5t326 -88.5t325.5 88.5
t236.5 239.5t87 328q0 133 -51.5 255t-138.5 210t-207 140t-252 52t-252.5 -52t-207.5 -140t-139 -210t-52 -255zM659 901v117h52q48 0 70 21.5t22 68.5v51h125v-858h-131v600h-138z" />
    <glyph glyph-name="uni2461" unicode="&#x2461;" horiz-adv-x="1703" 
d="M850 -25q-150 0 -286.5 59t-235.5 158.5t-158 237t-59 287.5q0 201 99.5 371.5t269.5 270t370 99.5q151 0 288.5 -59t237 -158t158.5 -236.5t59 -287.5t-59 -287.5t-158.5 -237t-237 -158.5t-288.5 -59zM201 717q0 -177 87.5 -328t237.5 -239.5t326 -88.5t325.5 88.5
t236.5 239.5t87 328q0 133 -51.5 255t-138.5 210t-207 140t-252 52t-252.5 -52t-207.5 -140t-139 -210t-52 -255zM555 301v107l299 301q70 68 99.5 112.5t29.5 98.5q0 57 -38.5 95t-98.5 38q-67 0 -112 -51t-42 -125h-131q-1 131 82 215t209 84q116 0 190 -71.5t74 -178.5
q0 -84 -42 -148.5t-132 -150.5l-190 -201h372v-125h-569z" />
    <glyph glyph-name="uni2462" unicode="&#x2462;" horiz-adv-x="1703" 
d="M850 -25q-150 0 -286.5 59t-235.5 158.5t-158 237t-59 287.5q0 201 99.5 371.5t269.5 270t370 99.5q151 0 288.5 -59t237 -158t158.5 -236.5t59 -287.5t-59 -287.5t-158.5 -237t-237 -158.5t-288.5 -59zM201 717q0 -177 87.5 -328t237.5 -239.5t326 -88.5t325.5 88.5
t236.5 239.5t87 328q0 133 -51.5 255t-138.5 210t-207 140t-252 52t-252.5 -52t-207.5 -140t-139 -210t-52 -255zM551 557h129q0 -66 45.5 -111t114.5 -45t115 41t46 103q0 59 -50 97t-126 38h-32v113h32q73 0 119.5 36.5t46.5 92.5q0 58 -41.5 94.5t-105.5 36.5
q-67 0 -110.5 -41t-43.5 -103h-127q0 114 79.5 188t201.5 74q123 0 199.5 -64.5t76.5 -170.5q0 -65 -37 -118t-102 -81q71 -22 112.5 -75t41.5 -127q0 -109 -83 -180.5t-208 -71.5q-130 0 -212 76t-81 198z" />
    <glyph glyph-name="uni2463" unicode="&#x2463;" horiz-adv-x="1703" 
d="M850 -25q-150 0 -286.5 59t-235.5 158.5t-158 237t-59 287.5q0 201 99.5 371.5t269.5 270t370 99.5q151 0 288.5 -59t237 -158t158.5 -236.5t59 -287.5t-59 -287.5t-158.5 -237t-237 -158.5t-288.5 -59zM201 717q0 -177 87.5 -328t237.5 -239.5t326 -88.5t325.5 88.5
t236.5 239.5t87 328q0 133 -51.5 255t-138.5 210t-207 140t-252 52t-252.5 -52t-207.5 -140t-139 -210t-52 -255zM498 492v116l254 551h141l-254 -551h238v201h127v-201h122v-116h-122v-193h-130v193h-376z" />
    <glyph glyph-name="uni2464" unicode="&#x2464;" horiz-adv-x="1703" 
d="M850 -25q-150 0 -286.5 59t-235.5 158.5t-158 237t-59 287.5q0 201 99.5 371.5t269.5 270t370 99.5q151 0 288.5 -59t237 -158t158.5 -236.5t59 -287.5t-59 -287.5t-158.5 -237t-237 -158.5t-288.5 -59zM201 717q0 -177 87.5 -328t237.5 -239.5t326 -88.5t325.5 88.5
t236.5 239.5t87 328q0 133 -51.5 255t-138.5 210t-207 140t-252 52t-252.5 -52t-207.5 -140t-139 -210t-52 -255zM539 559h133q2 -65 47.5 -107t114.5 -42q71 0 118 49t47 119q0 78 -45.5 125t-119.5 47q-86 0 -142 -66h-121l43 475h467v-123h-352l-24 -237q60 51 153 51
q123 0 199 -73t76 -202q0 -125 -86 -207.5t-213 -82.5q-129 0 -211.5 75.5t-83.5 198.5z" />
    <glyph glyph-name="uni2465" unicode="&#x2465;" horiz-adv-x="1703" 
d="M850 -25q-150 0 -286.5 59t-235.5 158.5t-158 237t-59 287.5q0 201 99.5 371.5t269.5 270t370 99.5q151 0 288.5 -59t237 -158t158.5 -236.5t59 -287.5t-59 -287.5t-158.5 -237t-237 -158.5t-288.5 -59zM201 717q0 -177 87.5 -328t237.5 -239.5t326 -88.5t325.5 88.5
t236.5 239.5t87 328q0 133 -51.5 255t-138.5 210t-207 140t-252 52t-252.5 -52t-207.5 -140t-139 -210t-52 -255zM528 578q0 102 70 215l229 366h152l-193 -305q30 12 68 12q120 0 201.5 -81.5t81.5 -204.5q0 -124 -87.5 -209.5t-215.5 -85.5q-131 0 -218.5 83.5
t-87.5 209.5zM659 578q0 -75 50.5 -125t124.5 -50q72 0 122 50t50 125q0 77 -49.5 127.5t-125.5 50.5q-73 0 -122.5 -52t-49.5 -126z" />
    <glyph glyph-name="uni2466" unicode="&#x2466;" horiz-adv-x="1703" 
d="M850 -25q-150 0 -286.5 59t-235.5 158.5t-158 237t-59 287.5q0 201 99.5 371.5t269.5 270t370 99.5q151 0 288.5 -59t237 -158t158.5 -236.5t59 -287.5t-59 -287.5t-158.5 -237t-237 -158.5t-288.5 -59zM201 717q0 -177 87.5 -328t237.5 -239.5t326 -88.5t325.5 88.5
t236.5 239.5t87 328q0 133 -51.5 255t-138.5 210t-207 140t-252 52t-252.5 -52t-207.5 -140t-139 -210t-52 -255zM557 1036v123h567v-110l-346 -750h-143l340 737h-418z" />
    <glyph glyph-name="uni2467" unicode="&#x2467;" horiz-adv-x="1703" 
d="M850 -25q-150 0 -286.5 59t-235.5 158.5t-158 237t-59 287.5q0 201 99.5 371.5t269.5 270t370 99.5q151 0 288.5 -59t237 -158t158.5 -236.5t59 -287.5t-59 -287.5t-158.5 -237t-237 -158.5t-288.5 -59zM201 717q0 -177 87.5 -328t237.5 -239.5t326 -88.5t325.5 88.5
t236.5 239.5t87 328q0 133 -51.5 255t-138.5 210t-207 140t-252 52t-252.5 -52t-207.5 -140t-139 -210t-52 -255zM553 537q0 70 40.5 128t108.5 87q-129 61 -129 188q0 103 77 168.5t200 65.5q121 0 197.5 -66.5t76.5 -169.5q0 -62 -34.5 -110t-96.5 -76q65 -26 108.5 -85
t43.5 -132q0 -104 -84 -177t-211 -73q-128 0 -212.5 72t-84.5 180zM684 541q0 -62 48 -104t118 -42q68 0 115 42.5t47 103.5t-47 103t-115 42q-70 0 -118 -41.5t-48 -103.5zM694 932q0 -59 43.5 -96t112.5 -37q66 0 108.5 37.5t42.5 95.5q0 60 -42.5 98.5t-108.5 38.5
q-69 0 -112.5 -38.5t-43.5 -98.5z" />
    <glyph glyph-name="uni2468" unicode="&#x2468;" horiz-adv-x="1703" 
d="M850 -25q-150 0 -286.5 59t-235.5 158.5t-158 237t-59 287.5q0 201 99.5 371.5t269.5 270t370 99.5q151 0 288.5 -59t237 -158t158.5 -236.5t59 -287.5t-59 -287.5t-158.5 -237t-237 -158.5t-288.5 -59zM201 717q0 -177 87.5 -328t237.5 -239.5t326 -88.5t325.5 88.5
t236.5 239.5t87 328q0 133 -51.5 255t-138.5 210t-207 140t-252 52t-252.5 -52t-207.5 -140t-139 -210t-52 -255zM543 881q0 124 87.5 209.5t215.5 85.5q131 0 218 -83.5t87 -209.5q0 -102 -70 -215l-229 -367h-152l193 305q-30 -12 -68 -12q-119 0 -200.5 81.5t-81.5 205.5
zM674 883q0 -77 49 -127.5t125 -50.5q73 0 122.5 52t49.5 126q0 75 -50 124.5t-124 49.5q-72 0 -122 -49.5t-50 -124.5z" />
    <glyph glyph-name="lozenge" unicode="&#x25ca;" horiz-adv-x="1114" 
d="M94 715l391 719h144l391 -719l-391 -715h-144zM272 715l283 -525l285 525l-285 526z" />
    <glyph glyph-name="circle" unicode="&#x25cb;" horiz-adv-x="1703" 
d="M850 -25q-150 0 -286.5 59t-235.5 158.5t-158 237t-59 287.5q0 201 99.5 371.5t269.5 270t370 99.5q151 0 288.5 -59t237 -158t158.5 -236.5t59 -287.5t-59 -287.5t-158.5 -237t-237 -158.5t-288.5 -59zM201 717q0 -177 87.5 -328t237.5 -239.5t326 -88.5t325.5 88.5
t236.5 239.5t87 328q0 133 -51.5 255t-138.5 210t-207 140t-252 52t-252.5 -52t-207.5 -140t-139 -210t-52 -255z" />
    <glyph glyph-name="uni25CF" unicode="&#x25cf;" horiz-adv-x="1691" 
d="M848 -20q-200 0 -369.5 99t-268.5 268.5t-99 367.5q0 200 99 369.5t268.5 268.5t369.5 99q198 0 367.5 -99t268.5 -268.5t99 -369.5q0 -148 -58.5 -284t-157.5 -235t-235 -157.5t-284 -58.5z" />
    <glyph glyph-name="uniE132" unicode="&#xe132;" horiz-adv-x="923" 
d="M141 999h189v-999h-189v999zM156 1104l202 297h207l-237 -297h-172zM414 -385v168h75q47 0 76 30.5t29 86.5v1099h188v-1108q0 -149 -69.5 -212.5t-202.5 -63.5h-96zM608 1104l203 297h207l-238 -297h-172z" />
    <glyph glyph-name="uniE133" unicode="&#xe133;" horiz-adv-x="1167" 
d="M160 1434h198v-1434h-198v1434zM158 1516l200 260h215l-239 -260h-176zM545 0v186h76q100 0 150 56t50 178v1014h199v-1072q0 -174 -91 -268t-255 -94h-129zM819 1516l201 260h215l-240 -260h-176z" />
    <glyph glyph-name="S.ss02" horiz-adv-x="1079" 
d="M471 0q-159 0 -267 110t-108 281v60h197v-56q0 -99 59.5 -161t145.5 -62h98q96 0 145.5 57t49.5 158q0 93 -43 144t-121 79l-240 82q-274 89 -274 385q0 160 95.5 258.5t250.5 98.5h141q146 0 247 -92.5t101 -239.5v-80h-198v72q0 74 -52 120t-125 46h-100
q-72 0 -120 -52.5t-48 -130.5q0 -158 166 -219l240 -78q63 -20 110 -48.5t86 -72.5t59 -110.5t21 -153.5q2 -184 -97.5 -289.5t-281.5 -105.5h-137z" />
    <glyph glyph-name="Sacute.ss02" horiz-adv-x="1079" 
d="M471 0q-159 0 -267 110t-108 281v60h197v-56q0 -99 59.5 -161t145.5 -62h98q96 0 145.5 57t49.5 158q0 93 -43 144t-121 79l-240 82q-274 89 -274 385q0 160 95.5 258.5t250.5 98.5h141q146 0 247 -92.5t101 -239.5v-80h-198v72q0 74 -52 120t-125 46h-100
q-72 0 -120 -52.5t-48 -130.5q0 -158 166 -219l240 -78q63 -20 110 -48.5t86 -72.5t59 -110.5t21 -153.5q2 -184 -97.5 -289.5t-281.5 -105.5h-137zM432 1516l201 260h215l-240 -260h-176z" />
    <glyph glyph-name="Scaron.ss02" horiz-adv-x="1079" 
d="M471 0q-159 0 -267 110t-108 281v60h197v-56q0 -99 59.5 -161t145.5 -62h98q96 0 145.5 57t49.5 158q0 93 -43 144t-121 79l-240 82q-274 89 -274 385q0 160 95.5 258.5t250.5 98.5h141q146 0 247 -92.5t101 -239.5v-80h-198v72q0 74 -52 120t-125 46h-100
q-72 0 -120 -52.5t-48 -130.5q0 -158 166 -219l240 -78q63 -20 110 -48.5t86 -72.5t59 -110.5t21 -153.5q2 -184 -97.5 -289.5t-281.5 -105.5h-137zM172 1790h193l167 -168l168 168h193l-260 -274h-201z" />
    <glyph glyph-name="Scedilla.ss02" horiz-adv-x="1079" 
d="M471 0q-159 0 -267 110t-108 281v60h197v-56q0 -99 59.5 -161t145.5 -62h98q96 0 145.5 57t49.5 158q0 93 -43 144t-121 79l-240 82q-274 89 -274 385q0 160 95.5 258.5t250.5 98.5h141q146 0 247 -92.5t101 -239.5v-80h-198v72q0 74 -52 120t-125 46h-100
q-72 0 -120 -52.5t-48 -130.5q0 -158 166 -219l240 -78q63 -20 110 -48.5t86 -72.5t59 -110.5t21 -153.5q2 -181 -94.5 -286.5t-274.5 -108.5l-53 -139h25q80 0 131 -50t51 -128q0 -82 -52 -135.5t-132 -53.5h-150v98h125q42 0 69 25t27 64q0 37 -27 61.5t-69 24.5h-110v81
l55 152h-37z" />
    <glyph glyph-name="Scircumflex.ss02" horiz-adv-x="1079" 
d="M471 0q-159 0 -267 110t-108 281v60h197v-56q0 -99 59.5 -161t145.5 -62h98q96 0 145.5 57t49.5 158q0 93 -43 144t-121 79l-240 82q-274 89 -274 385q0 160 95.5 258.5t250.5 98.5h141q146 0 247 -92.5t101 -239.5v-80h-198v72q0 74 -52 120t-125 46h-100
q-72 0 -120 -52.5t-48 -130.5q0 -158 166 -219l240 -78q63 -20 110 -48.5t86 -72.5t59 -110.5t21 -153.5q2 -184 -97.5 -289.5t-281.5 -105.5h-137zM170 1516l262 266h201l260 -266h-197l-166 159l-168 -159h-192z" />
    <glyph glyph-name="uni0218.ss02" horiz-adv-x="1079" 
d="M471 0q-159 0 -267 110t-108 281v60h197v-56q0 -99 59.5 -161t145.5 -62h98q96 0 145.5 57t49.5 158q0 93 -43 144t-121 79l-240 82q-274 89 -274 385q0 160 95.5 258.5t250.5 98.5h141q146 0 247 -92.5t101 -239.5v-80h-198v72q0 74 -52 120t-125 46h-100
q-72 0 -120 -52.5t-48 -130.5q0 -158 166 -219l240 -78q63 -20 110 -48.5t86 -72.5t59 -110.5t21 -153.5q2 -184 -97.5 -289.5t-281.5 -105.5h-137zM268 -356l168 278h201l-195 -278h-174z" />
    <glyph glyph-name="C.titl" horiz-adv-x="1169" 
d="M313 526q0 -165 80 -264.5t215 -99.5q124 0 201.5 84.5t85.5 224.5h195q-8 -226 -139 -361t-343 -135q-224 0 -358.5 153.5t-134.5 408.5v360q0 254 134.5 407.5t358.5 153.5q211 0 343 -135t139 -360h-195q-6 138 -84.5 222.5t-202.5 84.5q-135 0 -215 -99.5t-80 -265.5
v-379z" />
    <glyph glyph-name="Cacute.titl" horiz-adv-x="1169" 
d="M313 526q0 -165 80 -264.5t215 -99.5q124 0 201.5 84.5t85.5 224.5h195q-8 -226 -139 -361t-343 -135q-224 0 -358.5 153.5t-134.5 408.5v360q0 254 134.5 407.5t358.5 153.5q211 0 343 -135t139 -360h-195q-6 138 -84.5 222.5t-202.5 84.5q-135 0 -215 -99.5t-80 -265.5
v-379zM510 1516l201 260h215l-240 -260h-176z" />
    <glyph glyph-name="Ccaron.titl" horiz-adv-x="1169" 
d="M313 526q0 -165 80 -264.5t215 -99.5q124 0 201.5 84.5t85.5 224.5h195q-8 -226 -139 -361t-343 -135q-224 0 -358.5 153.5t-134.5 408.5v360q0 254 134.5 407.5t358.5 153.5q211 0 343 -135t139 -360h-195q-6 138 -84.5 222.5t-202.5 84.5q-135 0 -215 -99.5t-80 -265.5
v-379zM250 1790h192l168 -168l168 168h193l-260 -274h-201z" />
    <glyph glyph-name="Ccedilla.titl" horiz-adv-x="1169" 
d="M313 526q0 -165 80 -264.5t215 -99.5q124 0 201.5 84.5t85.5 224.5h195q-7 -209 -119 -340t-299 -151l-45 -119h24q80 0 131.5 -50t51.5 -128q0 -82 -52.5 -135.5t-132.5 -53.5h-149v98h125q42 0 69 25t27 64q0 37 -27 61.5t-69 24.5h-111v81l47 129q-205 17 -325.5 168
t-120.5 392v360q0 254 134.5 407.5t358.5 153.5q211 0 343 -135t139 -360h-195q-6 138 -84.5 222.5t-202.5 84.5q-135 0 -215 -99.5t-80 -265.5v-379z" />
    <glyph glyph-name="Ccircumflex.titl" horiz-adv-x="1169" 
d="M313 526q0 -165 80 -264.5t215 -99.5q124 0 201.5 84.5t85.5 224.5h195q-8 -226 -139 -361t-343 -135q-224 0 -358.5 153.5t-134.5 408.5v360q0 254 134.5 407.5t358.5 153.5q211 0 343 -135t139 -360h-195q-6 138 -84.5 222.5t-202.5 84.5q-135 0 -215 -99.5t-80 -265.5
v-379zM250 1516l262 266h201l260 -266h-197l-166 159l-168 -159h-192z" />
    <glyph glyph-name="Cdotaccent.titl" horiz-adv-x="1169" 
d="M313 526q0 -165 80 -264.5t215 -99.5q124 0 201.5 84.5t85.5 224.5h195q-8 -226 -139 -361t-343 -135q-224 0 -358.5 153.5t-134.5 408.5v360q0 254 134.5 407.5t358.5 153.5q211 0 343 -135t139 -360h-195q-6 138 -84.5 222.5t-202.5 84.5q-135 0 -215 -99.5t-80 -265.5
v-379zM504 1522v186h217v-186h-217z" />
    <glyph glyph-name="D.titl" horiz-adv-x="1177" 
d="M559 0h-399v1434h399q234 0 369 -146t135 -397v-350q0 -251 -135 -396t-369 -145zM356 188h193q146 0 230.5 95t84.5 258v350q0 163 -84.5 258.5t-230.5 95.5h-193v-1057z" />
    <glyph glyph-name="Eth.titl" horiz-adv-x="1222" 
d="M68 659v189h137v586h399q234 0 369 -146t135 -397v-350q0 -251 -135 -396t-369 -145h-399v659h-137zM401 188h193q146 0 230.5 95t84.5 258v350q0 163 -84.5 258.5t-230.5 95.5h-193v-397h281v-189h-281v-471z" />
    <glyph glyph-name="Dcaron.titl" horiz-adv-x="1177" 
d="M559 0h-399v1434h399q234 0 369 -146t135 -397v-350q0 -251 -135 -396t-369 -145zM180 1790h193l168 -168l168 168h192l-260 -274h-201zM356 188h193q146 0 230.5 95t84.5 258v350q0 163 -84.5 258.5t-230.5 95.5h-193v-1057z" />
    <glyph glyph-name="Dcroat.titl" horiz-adv-x="1222" 
d="M68 659v189h137v586h399q234 0 369 -146t135 -397v-350q0 -251 -135 -396t-369 -145h-399v659h-137zM401 188h193q146 0 230.5 95t84.5 258v350q0 163 -84.5 258.5t-230.5 95.5h-193v-397h281v-189h-281v-471z" />
    <glyph glyph-name="uni018F.titl" horiz-adv-x="1200" 
d="M586 -25q-216 0 -346.5 135.5t-130.5 360.5v299h778v135q0 167 -81 266t-220 99q-116 0 -191.5 -82.5t-83.5 -212.5h-202q9 217 139.5 350t337.5 133q230 0 363.5 -153t133.5 -408v-360q0 -257 -133.5 -409.5t-363.5 -152.5zM301 473q0 -134 79.5 -222.5t203.5 -88.5
q139 0 221 99.5t82 264.5v68h-586v-121z" />
    <glyph glyph-name="G.titl" horiz-adv-x="1200" 
d="M612 -25q-229 0 -363 153t-134 409v360q0 255 134 408t363 153q207 0 339 -133t139 -350h-201q-9 131 -84.5 213t-192.5 82q-139 0 -219 -99t-80 -266v-379q0 -165 81 -264.5t220 -99.5q125 0 205 88.5t80 222.5v121h-281v176h472v-299q0 -225 -131 -360.5t-347 -135.5z
" />
    <glyph glyph-name="Gbreve.titl" horiz-adv-x="1200" 
d="M612 -25q-229 0 -363 153t-134 409v360q0 255 134 408t363 153q207 0 339 -133t139 -350h-201q-9 131 -84.5 213t-192.5 82q-139 0 -219 -99t-80 -266v-379q0 -165 81 -264.5t220 -99.5q125 0 205 88.5t80 222.5v121h-281v176h472v-299q0 -225 -131 -360.5t-347 -135.5z
M307 1780h154q0 -71 41 -113.5t108 -42.5q68 0 110 42.5t42 113.5h151q-6 -133 -88 -206t-215 -73t-214.5 73t-88.5 206z" />
    <glyph glyph-name="Gcaron.titl" horiz-adv-x="1200" 
d="M612 -25q-229 0 -363 153t-134 409v360q0 255 134 408t363 153q207 0 339 -133t139 -350h-201q-9 131 -84.5 213t-192.5 82q-139 0 -219 -99t-80 -266v-379q0 -165 81 -264.5t220 -99.5q125 0 205 88.5t80 222.5v121h-281v176h472v-299q0 -225 -131 -360.5t-347 -135.5z
M250 1790h192l168 -168l168 168h193l-260 -274h-201z" />
    <glyph glyph-name="Gcircumflex.titl" horiz-adv-x="1200" 
d="M612 -25q-229 0 -363 153t-134 409v360q0 255 134 408t363 153q207 0 339 -133t139 -350h-201q-9 131 -84.5 213t-192.5 82q-139 0 -219 -99t-80 -266v-379q0 -165 81 -264.5t220 -99.5q125 0 205 88.5t80 222.5v121h-281v176h472v-299q0 -225 -131 -360.5t-347 -135.5z
M250 1516l262 266h201l260 -266h-197l-166 159l-168 -159h-192z" />
    <glyph glyph-name="uni0122.titl" horiz-adv-x="1200" 
d="M612 -25q-229 0 -363 153t-134 409v360q0 255 134 408t363 153q207 0 339 -133t139 -350h-201q-9 131 -84.5 213t-192.5 82q-139 0 -219 -99t-80 -266v-379q0 -165 81 -264.5t220 -99.5q125 0 205 88.5t80 222.5v121h-281v176h472v-299q0 -225 -131 -360.5t-347 -135.5z
M336 -356l168 278h201l-195 -278h-174z" />
    <glyph glyph-name="Gdotaccent.titl" horiz-adv-x="1200" 
d="M612 -25q-229 0 -363 153t-134 409v360q0 255 134 408t363 153q207 0 339 -133t139 -350h-201q-9 131 -84.5 213t-192.5 82q-139 0 -219 -99t-80 -266v-379q0 -165 81 -264.5t220 -99.5q125 0 205 88.5t80 222.5v121h-281v176h472v-299q0 -225 -131 -360.5t-347 -135.5z
M504 1522v186h217v-186h-217z" />
    <glyph glyph-name="M.titl" horiz-adv-x="1583" 
d="M160 0v1434h276l363 -1166l368 1166h256v-1434h-190v831q0 83 2 168t4 129l2 43q-33 -149 -86 -327l-276 -844h-183l-270 842q-23 79 -44 161t-30 124l-10 42q6 -154 6 -340v-829h-188z" />
    <glyph glyph-name="O.titl" horiz-adv-x="1239" 
d="M621 -25q-232 0 -369 152t-137 414v350q0 261 137.5 414t368.5 153q230 0 365.5 -152.5t135.5 -414.5v-350q0 -263 -135.5 -414.5t-365.5 -151.5zM313 530q0 -171 83 -269.5t225 -98.5q140 0 222.5 98.5t82.5 269.5v369q0 172 -82.5 271.5t-222.5 99.5q-142 0 -225 -99.5
t-83 -271.5v-369z" />
    <glyph glyph-name="Oacute.titl" horiz-adv-x="1239" 
d="M621 -25q-232 0 -369 152t-137 414v350q0 261 137.5 414t368.5 153q230 0 365.5 -152.5t135.5 -414.5v-350q0 -263 -135.5 -414.5t-365.5 -151.5zM313 530q0 -171 83 -269.5t225 -98.5q140 0 222.5 98.5t82.5 269.5v369q0 172 -82.5 271.5t-222.5 99.5q-142 0 -225 -99.5
t-83 -271.5v-369zM520 1516l201 260h215l-240 -260h-176z" />
    <glyph glyph-name="Obreve.titl" horiz-adv-x="1239" 
d="M621 -25q-232 0 -369 152t-137 414v350q0 261 137.5 414t368.5 153q230 0 365.5 -152.5t135.5 -414.5v-350q0 -263 -135.5 -414.5t-365.5 -151.5zM313 530q0 -171 83 -269.5t225 -98.5q140 0 222.5 98.5t82.5 269.5v369q0 172 -82.5 271.5t-222.5 99.5q-142 0 -225 -99.5
t-83 -271.5v-369zM315 1780h154q0 -71 41 -113.5t108 -42.5q68 0 110 42.5t42 113.5h152q-6 -133 -88.5 -206t-215.5 -73t-214.5 73t-88.5 206z" />
    <glyph glyph-name="Ocircumflex.titl" horiz-adv-x="1239" 
d="M621 -25q-232 0 -369 152t-137 414v350q0 261 137.5 414t368.5 153q230 0 365.5 -152.5t135.5 -414.5v-350q0 -263 -135.5 -414.5t-365.5 -151.5zM258 1516l262 266h201l260 -266h-197l-166 159l-167 -159h-193zM313 530q0 -171 83 -269.5t225 -98.5q140 0 222.5 98.5
t82.5 269.5v369q0 172 -82.5 271.5t-222.5 99.5q-142 0 -225 -99.5t-83 -271.5v-369z" />
    <glyph glyph-name="Odieresis.titl" horiz-adv-x="1239" 
d="M621 -25q-232 0 -369 152t-137 414v350q0 261 137.5 414t368.5 153q230 0 365.5 -152.5t135.5 -414.5v-350q0 -263 -135.5 -414.5t-365.5 -151.5zM307 1522v186h195v-186h-195zM313 530q0 -171 83 -269.5t225 -98.5q140 0 222.5 98.5t82.5 269.5v369q0 172 -82.5 271.5
t-222.5 99.5q-142 0 -225 -99.5t-83 -271.5v-369zM737 1522v186h195v-186h-195z" />
    <glyph glyph-name="Ograve.titl" horiz-adv-x="1239" 
d="M621 -25q-232 0 -369 152t-137 414v350q0 261 137.5 414t368.5 153q230 0 365.5 -152.5t135.5 -414.5v-350q0 -263 -135.5 -414.5t-365.5 -151.5zM295 1776h219l201 -260h-178zM313 530q0 -171 83 -269.5t225 -98.5q140 0 222.5 98.5t82.5 269.5v369q0 172 -82.5 271.5
t-222.5 99.5q-142 0 -225 -99.5t-83 -271.5v-369z" />
    <glyph glyph-name="Ohungarumlaut.titl" horiz-adv-x="1239" 
d="M621 -25q-232 0 -369 152t-137 414v350q0 261 137.5 414t368.5 153q230 0 365.5 -152.5t135.5 -414.5v-350q0 -263 -135.5 -414.5t-365.5 -151.5zM313 530q0 -171 83 -269.5t225 -98.5q140 0 222.5 98.5t82.5 269.5v369q0 172 -82.5 271.5t-222.5 99.5q-142 0 -225 -99.5
t-83 -271.5v-369zM328 1516l184 264h190l-194 -264h-180zM727 1516l184 264h205l-219 -264h-170z" />
    <glyph glyph-name="Omacron.titl" horiz-adv-x="1239" 
d="M621 -25q-232 0 -369 152t-137 414v350q0 261 137.5 414t368.5 153q230 0 365.5 -152.5t135.5 -414.5v-350q0 -263 -135.5 -414.5t-365.5 -151.5zM287 1548v144h667v-144h-667zM313 530q0 -171 83 -269.5t225 -98.5q140 0 222.5 98.5t82.5 269.5v369q0 172 -82.5 271.5
t-222.5 99.5q-142 0 -225 -99.5t-83 -271.5v-369z" />
    <glyph glyph-name="uni01EA.titl" horiz-adv-x="1239" 
d="M621 162q140 0 222.5 98.5t82.5 269.5v369q0 172 -82.5 271.5t-222.5 99.5q-142 0 -225 -99.5t-83 -271.5v-369q0 -171 83 -269.5t225 -98.5zM115 541v350q0 261 137.5 414t368.5 153q230 0 365.5 -152.5t135.5 -414.5v-350q0 -215 -92 -357t-256 -188
q-64 -49 -94.5 -90.5t-30.5 -87.5q0 -43 29.5 -64.5t77.5 -21.5h45l-37 -144h-55q-99 0 -153 52.5t-54 136.5q0 113 88 198q-219 11 -347 161.5t-128 404.5z" />
    <glyph glyph-name="Oslash.titl" horiz-adv-x="1243" 
d="M623 -25q-158 0 -279 76l-90 -157l-158 92l115 198q-94 142 -94 359v348q0 261 138 414t368 153q153 0 266 -69l82 141l157 -92l-102 -176q100 -152 100 -371v-348q0 -263 -136 -415.5t-367 -152.5zM309 530q0 -71 17 -141l471 840q-73 49 -174 49q-144 0 -229 -100
t-85 -275v-373zM436 215q77 -59 187 -59q144 0 227.5 98.5t83.5 275.5v373q0 84 -23 158z" />
    <glyph glyph-name="Oslashacute.titl" horiz-adv-x="1243" 
d="M623 -25q-158 0 -279 76l-90 -157l-158 92l115 198q-94 142 -94 359v348q0 261 138 414t368 153q153 0 266 -69l82 141l157 -92l-102 -176q100 -152 100 -371v-348q0 -263 -136 -415.5t-367 -152.5zM309 530q0 -71 17 -141l471 840q-73 49 -174 49q-144 0 -229 -100
t-85 -275v-373zM436 215q77 -59 187 -59q144 0 227.5 98.5t83.5 275.5v373q0 84 -23 158zM520 1516l201 260h215l-240 -260h-176z" />
    <glyph glyph-name="Otilde.titl" horiz-adv-x="1239" 
d="M621 -25q-232 0 -369 152t-137 414v350q0 261 137.5 414t368.5 153q230 0 365.5 -152.5t135.5 -414.5v-350q0 -263 -135.5 -414.5t-365.5 -151.5zM250 1516q1 123 57.5 191.5t143.5 68.5q55 0 118.5 -32t116.5 -63.5t82 -31.5q35 0 58 28.5t26 89.5h137
q-1 -121 -60 -190.5t-147 -69.5q-44 0 -92.5 19.5t-83 43t-72.5 43t-63 19.5q-35 0 -59 -29t-27 -87h-135zM313 530q0 -171 83 -269.5t225 -98.5q140 0 222.5 98.5t82.5 269.5v369q0 172 -82.5 271.5t-222.5 99.5q-142 0 -225 -99.5t-83 -271.5v-369z" />
    <glyph glyph-name="OE.titl" horiz-adv-x="1595" 
d="M627 1245q-146 0 -231 -95t-85 -257v-352q0 -163 85 -258t231 -95h168v1057h-168zM115 541v352q0 250 134.5 395.5t368.5 145.5h887v-187h-512v-399h445v-180h-445v-482h512v-186h-887q-234 0 -368.5 145t-134.5 396z" />
    <glyph glyph-name="Q.titl" horiz-adv-x="1239" 
d="M629 0q-237 0 -375.5 151t-138.5 414v328q0 261 137.5 413t368.5 152q230 0 365.5 -152t135.5 -413v-328q0 -222 -129 -377h258v-188h-622zM313 555q0 -172 83 -269.5t225 -97.5q141 0 223 97.5t82 269.5v346q0 172 -82.5 270.5t-222.5 98.5q-142 0 -225 -98.5
t-83 -270.5v-346z" />
    <glyph glyph-name="r.calt" horiz-adv-x="657" 
d="M330 999v-129q87 129 237 129h47v-163h-43q-114 0 -177.5 -69t-63.5 -189v-578h-189v999h189z" />
    <glyph glyph-name="racute.calt" horiz-adv-x="657" 
d="M330 999v-129q87 129 237 129h47v-163h-43q-114 0 -177.5 -69t-63.5 -189v-578h-189v999h189zM311 1104l203 297h207l-238 -297h-172z" />
    <glyph glyph-name="rcaron.calt" horiz-adv-x="657" 
d="M330 999v-129q87 129 237 129h47v-163h-43q-114 0 -177.5 -69t-63.5 -189v-578h-189v999h189zM66 1401h174l151 -180l150 180h174l-223 -297h-203z" />
    <glyph glyph-name="uni0157.calt" horiz-adv-x="657" 
d="M330 999v-129q87 129 237 129h47v-163h-43q-114 0 -177.5 -69t-63.5 -189v-578h-189v999h189zM-27 -356l168 278h201l-195 -278h-174z" />
    <glyph glyph-name="germandbls.calt" horiz-adv-x="1253" 
d="M580 1434h553v-156l-342 -455q162 -3 275.5 -112.5t113.5 -278.5q0 -184 -126.5 -308t-318.5 -124h-252v188h250q106 0 176 70t70 172q0 101 -68 170.5t-174 69.5h-159v131l325 452l-330 -2q-122 -1 -178.5 -69.5t-56.5 -198.5v-983h-197v983q0 220 110.5 335.5
t328.5 115.5z" />
    <glyph glyph-name="iacute_j.loclNLD" horiz-adv-x="923" 
d="M141 999h189v-999h-189v999zM156 1104l202 297h207l-237 -297h-172zM414 -385v168h75q47 0 76 30.5t29 86.5v1099h188v-1108q0 -149 -69.5 -212.5t-202.5 -63.5h-96zM608 1104l203 297h207l-238 -297h-172z" />
    <glyph glyph-name="a.ss01" horiz-adv-x="1277" 
d="M584 -25q-142 0 -258 67t-183 187t-67 269q0 226 146 376t362 150q111 0 204 -44t156 -122v141h191v-999h-191v141q-63 -78 -156 -122t-204 -44zM262 500q0 -147 98.5 -245.5t241.5 -98.5q148 0 245 96t97 248q0 149 -97.5 247.5t-244.5 98.5q-143 0 -241.5 -100
t-98.5 -246z" />
    <glyph glyph-name="aacute.ss01" horiz-adv-x="1275" 
d="M584 -25q-142 0 -258 67t-183 187t-67 269q0 226 146 376t362 150q111 0 204 -44t156 -122v141h191v-999h-191v141q-63 -78 -156 -122t-204 -44zM262 500q0 -147 98.5 -245.5t241.5 -98.5q148 0 245 96t97 248q0 149 -97.5 247.5t-244.5 98.5q-143 0 -241.5 -100
t-98.5 -246zM557 1104l203 297h207l-238 -297h-172z" />
    <glyph glyph-name="abreve.ss01" horiz-adv-x="1275" 
d="M584 -25q-142 0 -258 67t-183 187t-67 269q0 226 146 376t362 150q111 0 204 -44t156 -122v141h191v-999h-191v141q-63 -78 -156 -122t-204 -44zM262 500q0 -147 98.5 -245.5t241.5 -98.5q148 0 245 96t97 248q0 149 -97.5 247.5t-244.5 98.5q-143 0 -241.5 -100
t-98.5 -246zM334 1395h145q2 -77 45.5 -127.5t110.5 -50.5q68 0 112 50.5t46 127.5h145q0 -136 -85 -220.5t-218 -84.5q-130 0 -215.5 85t-85.5 220z" />
    <glyph glyph-name="acircumflex.ss01" horiz-adv-x="1275" 
d="M584 -25q-142 0 -258 67t-183 187t-67 269q0 226 146 376t362 150q111 0 204 -44t156 -122v141h191v-999h-191v141q-63 -78 -156 -122t-204 -44zM262 500q0 -147 98.5 -245.5t241.5 -98.5q148 0 245 96t97 248q0 149 -97.5 247.5t-244.5 98.5q-143 0 -241.5 -100
t-98.5 -246zM311 1104l224 297h202l224 -297h-175l-151 180l-152 -180h-172z" />
    <glyph glyph-name="adieresis.ss01" horiz-adv-x="1275" 
d="M584 -25q-142 0 -258 67t-183 187t-67 269q0 226 146 376t362 150q111 0 204 -44t156 -122v141h191v-999h-191v141q-63 -78 -156 -122t-204 -44zM262 500q0 -147 98.5 -245.5t241.5 -98.5q148 0 245 96t97 248q0 149 -97.5 247.5t-244.5 98.5q-143 0 -241.5 -100
t-98.5 -246zM344 1143v188h203v-188h-203zM725 1143v188h203v-188h-203z" />
    <glyph glyph-name="uni1EA1.ss01" horiz-adv-x="1275" 
d="M584 -25q-142 0 -258 67t-183 187t-67 269q0 226 146 376t362 150q111 0 204 -44t156 -122v141h191v-999h-191v141q-63 -78 -156 -122t-204 -44zM262 500q0 -147 98.5 -245.5t241.5 -98.5q148 0 245 96t97 248q0 149 -97.5 247.5t-244.5 98.5q-143 0 -241.5 -100
t-98.5 -246zM532 -424v236h205v-236h-205z" />
    <glyph glyph-name="agrave.ss01" horiz-adv-x="1275" 
d="M584 -25q-142 0 -258 67t-183 187t-67 269q0 226 146 376t362 150q111 0 204 -44t156 -122v141h191v-999h-191v141q-63 -78 -156 -122t-204 -44zM262 500q0 -147 98.5 -245.5t241.5 -98.5q148 0 245 96t97 248q0 149 -97.5 247.5t-244.5 98.5q-143 0 -241.5 -100
t-98.5 -246zM326 1403h215l192 -299h-174z" />
    <glyph glyph-name="amacron.ss01" horiz-adv-x="1275" 
d="M584 -25q-142 0 -258 67t-183 187t-67 269q0 226 146 376t362 150q111 0 204 -44t156 -122v141h191v-999h-191v141q-63 -78 -156 -122t-204 -44zM262 500q0 -147 98.5 -245.5t241.5 -98.5q148 0 245 96t97 248q0 149 -97.5 247.5t-244.5 98.5q-143 0 -241.5 -100
t-98.5 -246zM311 1135v149h647v-149h-647z" />
    <glyph glyph-name="aogonek.ss01" horiz-adv-x="1275" 
d="M584 -25q-142 0 -258 67t-183 187t-67 269q0 226 146 376t362 150q111 0 204 -44t156 -122v141h191v-997l2 -2q-69 -53 -100 -94t-31 -88q0 -43 29 -64.5t77 -21.5h45l-37 -144h-55q-99 0 -153 52.5t-54 136.5q0 67 27.5 119.5t85.5 103.5h-27v141q-63 -78 -156 -122
t-204 -44zM262 500q0 -147 98.5 -245.5t241.5 -98.5q148 0 245 96t97 248q0 149 -97.5 247.5t-244.5 98.5q-143 0 -241.5 -100t-98.5 -246z" />
    <glyph glyph-name="aring.ss01" horiz-adv-x="1275" 
d="M584 -25q-142 0 -258 67t-183 187t-67 269q0 226 146 376t362 150q111 0 204 -44t156 -122v141h191v-999h-191v141q-63 -78 -156 -122t-204 -44zM262 500q0 -147 98.5 -245.5t241.5 -98.5q148 0 245 96t97 248q0 149 -97.5 247.5t-244.5 98.5q-143 0 -241.5 -100
t-98.5 -246zM367 1327q0 101 77 168.5t191 67.5q116 0 193 -67.5t77 -168.5q0 -100 -77.5 -167.5t-192.5 -67.5q-114 0 -191 67.5t-77 167.5zM494 1327q0 -54 40.5 -91.5t100.5 -37.5q61 0 102 37.5t41 91.5q0 55 -40.5 91t-102.5 36q-60 0 -100.5 -36t-40.5 -91z" />
    <glyph glyph-name="aringacute.ss01" horiz-adv-x="1288" 
d="M584 -25q-142 0 -258 67t-183 187t-67 269q0 226 146 376t362 150q111 0 204 -44t156 -122v141h191v-999h-191v141q-63 -78 -156 -122t-204 -44zM262 500q0 -147 98.5 -245.5t241.5 -98.5q148 0 245 96t97 248q0 149 -97.5 247.5t-244.5 98.5q-143 0 -241.5 -100
t-98.5 -246zM408 1327q0 92 64 157t163 77l137 200h207l-178 -223q67 -28 106 -84.5t39 -126.5q0 -100 -77.5 -167.5t-192.5 -67.5q-114 0 -191 67.5t-77 167.5zM535 1327q0 -54 40.5 -91.5t100.5 -37.5q61 0 102 37.5t41 91.5q0 55 -40.5 91t-102.5 36q-60 0 -100.5 -36
t-40.5 -91z" />
    <glyph glyph-name="atilde.ss01" horiz-adv-x="1275" 
d="M584 -25q-142 0 -258 67t-183 187t-67 269q0 226 146 376t362 150q111 0 204 -44t156 -122v141h191v-999h-191v141q-63 -78 -156 -122t-204 -44zM262 500q0 -147 98.5 -245.5t241.5 -98.5q148 0 245 96t97 248q0 149 -97.5 247.5t-244.5 98.5q-143 0 -241.5 -100
t-98.5 -246zM285 1120q0 143 54 216t144 73q37 0 71.5 -16t61.5 -39t52 -46t51 -39t51 -16q83 0 86 148h129q0 -141 -56.5 -215t-148.5 -74q-45 0 -86.5 24t-68 53t-60 53t-63.5 24q-85 0 -88 -146h-129z" />
    <glyph glyph-name="s.ss02" horiz-adv-x="940" 
d="M416 0q-141 0 -237.5 76.5t-96.5 204.5v30h180v-22q0 -68 47 -107t119 -39h82q85 0 128.5 37t43.5 107q0 111 -129 139l-246 53q-97 20 -155 81t-58 167q0 125 91 198.5t225 73.5h86q145 0 238 -61t93 -190v-23h-176v18q0 55 -47 88t-110 33h-72q-66 0 -109 -31t-43 -92
q0 -96 129 -123l230 -47q235 -50 235 -274q0 -135 -97.5 -216t-238.5 -81h-112z" />
    <glyph glyph-name="sacute.ss02" horiz-adv-x="940" 
d="M416 0q-141 0 -237.5 76.5t-96.5 204.5v30h180v-22q0 -68 47 -107t119 -39h82q85 0 128.5 37t43.5 107q0 111 -129 139l-246 53q-97 20 -155 81t-58 167q0 125 91 198.5t225 73.5h86q145 0 238 -61t93 -190v-23h-176v18q0 55 -47 88t-110 33h-72q-66 0 -109 -31t-43 -92
q0 -96 129 -123l230 -47q235 -50 235 -274q0 -135 -97.5 -216t-238.5 -81h-112zM391 1104l203 297h207l-238 -297h-172z" />
    <glyph glyph-name="scaron.ss02" horiz-adv-x="940" 
d="M416 0q-141 0 -237.5 76.5t-96.5 204.5v30h180v-22q0 -68 47 -107t119 -39h82q85 0 128.5 37t43.5 107q0 111 -129 139l-246 53q-97 20 -155 81t-58 167q0 125 91 198.5t225 73.5h86q145 0 238 -61t93 -190v-23h-176v18q0 55 -47 88t-110 33h-72q-66 0 -109 -31t-43 -92
q0 -96 129 -123l230 -47q235 -50 235 -274q0 -135 -97.5 -216t-238.5 -81h-112zM145 1401h174l152 -180l150 180h174l-224 -297h-202z" />
    <glyph glyph-name="scedilla.ss02" horiz-adv-x="940" 
d="M416 0q-141 0 -237.5 76.5t-96.5 204.5v30h180v-22q0 -68 47 -107t119 -39h82q85 0 128.5 37t43.5 107q0 111 -129 139l-246 53q-97 20 -155 81t-58 167q0 125 91 198.5t225 73.5h86q145 0 238 -61t93 -190v-23h-176v18q0 55 -47 88t-110 33h-72q-66 0 -109 -31t-43 -92
q0 -96 129 -123l230 -47q235 -50 235 -274q0 -129 -89 -209t-220 -88l-55 -139h24q80 0 131.5 -50t51.5 -128q0 -82 -52.5 -135.5t-132.5 -53.5h-149v98h125q42 0 69 25t27 64q0 37 -27 61.5t-69 24.5h-111v81l55 152h-26z" />
    <glyph glyph-name="scircumflex.ss02" horiz-adv-x="940" 
d="M416 0q-141 0 -237.5 76.5t-96.5 204.5v30h180v-22q0 -68 47 -107t119 -39h82q85 0 128.5 37t43.5 107q0 111 -129 139l-246 53q-97 20 -155 81t-58 167q0 125 91 198.5t225 73.5h86q145 0 238 -61t93 -190v-23h-176v18q0 55 -47 88t-110 33h-72q-66 0 -109 -31t-43 -92
q0 -96 129 -123l230 -47q235 -50 235 -274q0 -135 -97.5 -216t-238.5 -81h-112zM145 1104l224 297h202l224 -297h-174l-152 180l-152 -180h-172z" />
    <glyph glyph-name="uni0219.ss02" horiz-adv-x="940" 
d="M416 0q-141 0 -237.5 76.5t-96.5 204.5v30h180v-22q0 -68 47 -107t119 -39h82q85 0 128.5 37t43.5 107q0 111 -129 139l-246 53q-97 20 -155 81t-58 167q0 125 91 198.5t225 73.5h86q145 0 238 -61t93 -190v-23h-176v18q0 55 -47 88t-110 33h-72q-66 0 -109 -31t-43 -92
q0 -96 129 -123l230 -47q235 -50 235 -274q0 -135 -97.5 -216t-238.5 -81h-112zM203 -356l168 278h200l-194 -278h-174z" />
    <glyph glyph-name="t.ss03" horiz-adv-x="733" 
d="M20 836v163h84q121 0 121 121v148h176v-269h283v-163h-283v-502q0 -170 164 -170h119v-164h-141q-328 0 -328 322v514h-195z" />
    <glyph glyph-name="tbar.ss03" horiz-adv-x="761" 
d="M45 852v147h82q61 0 91 29t30 92v148h178v-269h281v-147h-281v-285h283v-123h-283v-129q0 -170 164 -170h117v-145h-140q-165 0 -247 79.5t-82 242.5v122h-193v123h193v285h-193z" />
    <glyph glyph-name="tcaron.ss03" horiz-adv-x="733" 
d="M20 836v163h84q121 0 121 121v148h176v-269h283v-163h-283v-502q0 -170 164 -170h119v-164h-141q-328 0 -328 322v514h-195zM565 1096l41 409h176l-73 -409h-144z" />
    <glyph glyph-name="uni0163.ss03" horiz-adv-x="733" 
d="M20 836v163h84q121 0 121 121v148h176v-269h283v-163h-283v-502q0 -170 164 -170h119v-164h-133l-53 -139h24q80 0 131.5 -50t51.5 -128q0 -82 -52.5 -135.5t-132.5 -53.5h-149v98h125q42 0 69 25t27 64q0 37 -27 61.5t-69 24.5h-111v81l59 160q-229 44 -229 314v514
h-195z" />
    <glyph glyph-name="uni021B.ss03" horiz-adv-x="733" 
d="M20 836v163h84q121 0 121 121v148h176v-269h283v-163h-283v-502q0 -170 164 -170h119v-164h-141q-328 0 -328 322v514h-195zM203 -356l168 278h200l-194 -278h-174z" />
    <glyph glyph-name="ae.ss04" horiz-adv-x="2066" 
d="M573 -25q-212 0 -354.5 150t-142.5 373q0 148 64.5 268.5t178 189t252.5 68.5q122 0 220.5 -55t154.5 -154v184h189v-182q59 96 160 151.5t223 55.5q131 0 239.5 -63.5t171 -174.5t62.5 -245q0 -46 -2 -66h-809q9 -155 102 -249.5t231 -94.5q100 0 180.5 51.5
t100.5 130.5h186q-31 -146 -159 -242t-299 -96q-132 0 -230.5 56.5t-156.5 154.5v-186h-189v182q-56 -98 -153.5 -152.5t-219.5 -54.5zM260 500q0 -148 98.5 -249t243.5 -101q149 0 246.5 99t97.5 251q0 151 -97.5 250.5t-246.5 99.5q-144 0 -243 -101.5t-99 -248.5z
M1188 602h612q-8 115 -90.5 192.5t-202.5 77.5q-116 0 -205.5 -73.5t-113.5 -196.5z" />
    <glyph glyph-name="aeacute.ss04" horiz-adv-x="2066" 
d="M573 -25q-212 0 -354.5 150t-142.5 373q0 148 64.5 268.5t178 189t252.5 68.5q122 0 220.5 -55t154.5 -154v184h189v-182q59 96 160 151.5t223 55.5q131 0 239.5 -63.5t171 -174.5t62.5 -245q0 -46 -2 -66h-809q9 -155 102 -249.5t231 -94.5q100 0 180.5 51.5
t100.5 130.5h186q-31 -146 -159 -242t-299 -96q-132 0 -230.5 56.5t-156.5 154.5v-186h-189v182q-56 -98 -153.5 -152.5t-219.5 -54.5zM260 500q0 -148 98.5 -249t243.5 -101q149 0 246.5 99t97.5 251q0 151 -97.5 250.5t-246.5 99.5q-144 0 -243 -101.5t-99 -248.5z
M942 1104l203 297h207l-238 -297h-172zM1188 602h612q-8 115 -90.5 192.5t-202.5 77.5q-116 0 -205.5 -73.5t-113.5 -196.5z" />
    <glyph glyph-name="f_f.dlig" horiz-adv-x="1261" 
d="M229 0v836h-200v163h200v105q0 167 80 248.5t248 81.5h100v-156h-77q-82 0 -122 -39.5t-40 -122.5v-117h391v105q0 167 80 248.5t248 81.5h108v-156h-86q-82 0 -122 -39.5t-40 -122.5v-117h248v-163h-248v-836h-188v836h-391v-836h-189z" />
    <glyph glyph-name="f_f_i.dlig" horiz-adv-x="1718" 
d="M229 0v836h-200v163h200v105q0 167 80 248.5t248 81.5h100v-156h-77q-82 0 -122 -39.5t-40 -122.5v-117h391v105q0 167 80 248.5t248 81.5h313v-156h-291q-82 0 -122 -39.5t-40 -122.5v-117h580v-999h-188v836h-392v-836h-188v836h-391v-836h-189z" />
    <glyph glyph-name="f_f_l.dlig" horiz-adv-x="1718" 
d="M229 0v836h-200v163h200v105q0 167 80 248.5t248 81.5h100v-156h-77q-82 0 -122 -39.5t-40 -122.5v-117h391v105q0 167 80 248.5t248 81.5h90v-156h-68q-82 0 -122 -39.5t-40 -122.5v-117h392v435h188v-1434h-188v836h-392v-836h-188v836h-391v-836h-189z" />
    <glyph glyph-name="f_f_t.dlig" horiz-adv-x="1916" 
d="M229 0v836h-200v163h200v105q0 167 80 248.5t248 81.5h109v-156h-86q-82 0 -122 -39.5t-40 -122.5v-117h399v105q0 167 80.5 248.5t249.5 81.5h86v-156h-66q-161 0 -161 -162v-117h391v269h188v-269h281v-163h-281v-502q0 -170 162 -170h119v-164h-140q-165 0 -247 79.5
t-82 242.5v514h-391v-836h-189v836h-399v-836h-189z" />
    <glyph glyph-name="f_i.dlig" horiz-adv-x="1138" 
d="M229 0v836h-200v163h200v105q0 167 80 248.5t248 81.5h313v-156h-290q-82 0 -122 -39.5t-40 -122.5v-117h579v-999h-188v836h-391v-836h-189z" />
    <glyph glyph-name="f_l.dlig" horiz-adv-x="1138" 
d="M229 0v836h-200v163h200v105q0 167 80 248.5t248 81.5h90v-156h-67q-82 0 -122 -39.5t-40 -122.5v-117h391v435h188v-1434h-188v836h-391v-836h-189z" />
    <glyph glyph-name="f_t.dlig" horiz-adv-x="1327" 
d="M229 0v836h-200v163h200v105q0 167 80 248.5t248 81.5h88v-156h-65q-82 0 -122 -39.5t-40 -122.5v-117h391v269h186v-269h283v-163h-283v-502q0 -170 164 -170h119v-164h-141q-328 0 -328 322v514h-391v-836h-189z" />
    <glyph glyph-name="zero.zero" horiz-adv-x="1251" 
d="M627 -25q-235 0 -371.5 152t-136.5 414v350q0 262 136.5 414.5t371.5 152.5t371.5 -152.5t136.5 -414.5v-350q0 -262 -136.5 -414t-371.5 -152zM319 541q0 -13 5 -80l550 669q-81 140 -247 140q-141 0 -224.5 -103t-83.5 -276v-350zM377 301q84 -139 250 -139
q140 0 222.5 103t82.5 276v350q0 28 -4 74z" />
    <glyph glyph-name="two.ss02" horiz-adv-x="1126" 
d="M90 0v164l510 516q119 117 166 189.5t47 166.5q0 98 -60.5 157.5t-152.5 59.5h-80q-97 0 -158 -62t-61 -165v-108h-195v122q0 171 103 282.5t260 111.5h170q177 0 277 -106t100 -284q0 -59 -14.5 -114t-36.5 -98.5t-62 -95t-75.5 -89.5t-92.5 -94l-344 -363h641v-190
h-942z" />
    <glyph glyph-name="zero.tf" horiz-adv-x="1310" 
d="M655 -25q-235 0 -371.5 152t-136.5 414v350q0 262 136.5 414.5t371.5 152.5t371.5 -152.5t136.5 -414.5v-350q0 -262 -136.5 -414t-371.5 -152zM348 541q0 -172 83 -275.5t224 -103.5q140 0 223 103.5t83 275.5v350q0 174 -82.5 276.5t-223.5 102.5t-224 -103t-83 -276
v-350z" />
    <glyph glyph-name="one.tf" horiz-adv-x="1310" 
d="M217 0v178h387v840h-346v180h209q79 0 113 32.5t34 106.5v97h189v-1256h346v-178h-932z" />
    <glyph glyph-name="two.tf" horiz-adv-x="1310" 
d="M178 0v164l510 516q118 116 166.5 190t48.5 164q0 104 -68.5 170t-177.5 66q-120 0 -195.5 -87.5t-72.5 -217.5h-196q-3 214 131.5 353.5t343.5 139.5q192 0 315 -118.5t123 -295.5q0 -59 -15 -114t-37 -98.5t-62.5 -95.5t-75.5 -89t-93 -94l-344 -363h641v-190h-942z
" />
    <glyph glyph-name="three.tf" horiz-adv-x="1310" 
d="M649 -25q-215 0 -351.5 126t-133.5 329h196q0 -117 80 -194.5t203 -77.5q122 0 202.5 71.5t80.5 180.5q0 102 -86 168.5t-222 66.5h-53v172h53q129 0 210 64.5t81 165.5t-73.5 165t-186.5 64q-118 0 -193 -71.5t-75 -180.5h-193q0 189 130 311.5t331 122.5
q202 0 329.5 -108.5t127.5 -282.5q0 -111 -63.5 -200t-176.5 -134q121 -34 190.5 -124.5t69.5 -213.5q0 -181 -135.5 -300.5t-341.5 -119.5z" />
    <glyph glyph-name="four.tf" horiz-adv-x="1310" 
d="M150 326v176l436 932h213l-437 -932h426v348h193v-348h209v-176h-209v-326h-199v326h-632z" />
    <glyph glyph-name="five.tf" horiz-adv-x="1310" 
d="M647 -25q-206 0 -341 123.5t-138 331.5h197q8 -119 86 -191.5t200 -72.5q125 0 209 86t84 209q0 136 -81 218.5t-212 82.5q-72 0 -137.5 -30.5t-110.5 -82.5h-182l70 785h766v-189h-588l-45 -422q49 43 119.5 67.5t142.5 24.5q205 0 332 -122.5t127 -337.5
q0 -206 -143 -343t-355 -137z" />
    <glyph glyph-name="six.tf" horiz-adv-x="1310" 
d="M664 -25q-215 0 -358.5 139t-143.5 345q0 79 30 175.5t87 186.5l383 613h229l-326 -519q61 25 129 25q201 0 336 -135.5t135 -341.5q0 -134 -65.5 -246t-181 -177t-254.5 -65zM358 459q0 -129 88.5 -216t217.5 -87t216 87t87 216q0 135 -86 223t-219 88
q-129 0 -216.5 -90t-87.5 -221z" />
    <glyph glyph-name="seven.tf" horiz-adv-x="1310" 
d="M317 0l580 1245h-715v189h938v-170l-581 -1264h-222z" />
    <glyph glyph-name="eight.tf" horiz-adv-x="1310" 
d="M655 -25q-212 0 -350.5 119.5t-138.5 300.5q0 120 72 217t188 142q-107 45 -166 125.5t-59 191.5q0 171 126 279t328 108t327.5 -109t125.5 -278q0 -108 -58.5 -189t-164.5 -128q111 -41 184.5 -140.5t73.5 -220.5q0 -176 -138 -297t-350 -121zM367 401
q0 -109 82.5 -183.5t205.5 -74.5t205 74.5t82 183.5q0 108 -82.5 182t-204.5 74t-205 -74t-83 -182zM387 1061q0 -104 74 -169t194 -65q118 0 192.5 64.5t74.5 167.5q0 105 -74.5 172t-192.5 67q-119 0 -193.5 -66.5t-74.5 -170.5z" />
    <glyph glyph-name="nine.tf" horiz-adv-x="1310" 
d="M647 1456q215 0 358.5 -138.5t143.5 -344.5q0 -79 -30 -176t-87 -187l-383 -612h-229l325 518q-59 -24 -129 -24q-201 0 -336 135.5t-135 341.5q0 204 145 345.5t357 141.5zM344 973q0 -135 86 -223t219 -88q129 0 216 90t87 221q0 129 -88 216t-217 87t-216 -87
t-87 -216z" />
    <glyph glyph-name="zero.tf.zero" horiz-adv-x="1310" 
d="M655 -25q-235 0 -371.5 152t-136.5 414v350q0 262 136.5 414.5t371.5 152.5t371.5 -152.5t136.5 -414.5v-350q0 -262 -136.5 -414t-371.5 -152zM348 541q0 -26 4 -80l551 669q-81 140 -248 140q-141 0 -224 -103t-83 -276v-350zM406 301q84 -139 249 -139
q140 0 223 103.5t83 275.5v350q0 16 -5 74z" />
    <glyph glyph-name="zero.dnom" horiz-adv-x="774" 
d="M387 -14q-143 0 -226 91.5t-83 250.5v204q0 158 83 250t226 92q144 0 226.5 -91.5t82.5 -250.5v-204q0 -160 -82 -251t-227 -91zM211 328q0 -100 47.5 -159.5t128.5 -59.5q82 0 130 59t48 160v204q0 100 -48 160t-130 60q-81 0 -128.5 -60t-47.5 -160v-204z" />
    <glyph glyph-name="one.dnom" horiz-adv-x="415" 
d="M311 858v-858h-131v600h-137v117h51q48 0 70 21.5t22 68.5v51h125z" />
    <glyph glyph-name="two.dnom" horiz-adv-x="692" 
d="M57 0v106l299 302q70 69 99.5 112.5t29.5 97.5q0 57 -38.5 95.5t-98.5 38.5q-67 0 -111.5 -51.5t-41.5 -125.5h-132q-1 131 82 215t209 84q116 0 190 -71t74 -178q0 -84 -42 -148.5t-132 -150.5l-190 -201h373v-125h-570z" />
    <glyph glyph-name="three.dnom" horiz-adv-x="708" 
d="M350 -14q-130 0 -212 76t-81 198h129q0 -66 45.5 -111t114.5 -45t115.5 41.5t46.5 102.5q0 59 -50 97t-126 38h-33v113h33q73 0 119.5 36.5t46.5 92.5q0 58 -42 94.5t-106 36.5q-67 0 -110 -41t-43 -103h-127q0 114 79 188t201 74q123 0 200 -65t77 -170q0 -65 -37 -118
t-103 -81q71 -22 112.5 -75t41.5 -127q0 -109 -83 -180.5t-208 -71.5z" />
    <glyph glyph-name="four.dnom" horiz-adv-x="712" 
d="M51 193v116l254 551h141l-253 -551h237v201h127v-201h123v-116h-123v-193h-129v193h-377z" />
    <glyph glyph-name="five.dnom" horiz-adv-x="706" 
d="M350 -14q-129 0 -211.5 75.5t-83.5 198.5h133q2 -65 47.5 -107t114.5 -42q71 0 118.5 49t47.5 119q0 78 -46 125t-120 47q-85 0 -141 -66h-121l43 475h467v-123h-352l-25 -237q60 51 154 51q123 0 198.5 -73t75.5 -202q0 -125 -86 -207.5t-213 -82.5z" />
    <glyph glyph-name="six.dnom" horiz-adv-x="714" 
d="M362 -14q-131 0 -218 83.5t-87 209.5q0 102 70 215l229 366h152l-193 -305q30 12 68 12q120 0 201.5 -81.5t81.5 -204.5q0 -124 -88 -209.5t-216 -85.5zM188 279q0 -75 50 -125t124 -50q72 0 122.5 50t50.5 125q0 77 -49.5 127.5t-125.5 50.5q-73 0 -122.5 -52
t-49.5 -126z" />
    <glyph glyph-name="seven.dnom" horiz-adv-x="628" 
d="M106 0l340 737h-417v123h567v-110l-346 -750h-144z" />
    <glyph glyph-name="eight.dnom" horiz-adv-x="724" 
d="M365 -14q-128 0 -212.5 72t-84.5 180q0 70 40.5 128t108.5 87q-129 61 -129 188q0 103 77 168t200 65q121 0 197.5 -66t76.5 -169q0 -62 -34.5 -110t-96.5 -76q65 -26 108 -85t43 -132q0 -104 -83.5 -177t-210.5 -73zM199 242q0 -62 48 -104t118 -42q68 0 114.5 42.5
t46.5 103.5t-46.5 103t-114.5 42q-70 0 -118 -41.5t-48 -103.5zM209 633q0 -59 43.5 -96t112.5 -37q66 0 108.5 37.5t42.5 95.5q0 60 -42.5 98.5t-108.5 38.5q-69 0 -112.5 -38.5t-43.5 -98.5z" />
    <glyph glyph-name="nine.dnom" horiz-adv-x="714" 
d="M352 874q131 0 218 -83t87 -209q0 -103 -69 -215l-230 -367h-151l192 305q-30 -12 -67 -12q-120 0 -201.5 81.5t-81.5 205.5t87.5 209t215.5 85zM180 582q0 -77 49 -128t125 -51q73 0 122.5 52.5t49.5 126.5q0 75 -50 124.5t-124 49.5q-72 0 -122 -50t-50 -124z" />
    <glyph glyph-name="zero.numr" horiz-adv-x="774" 
d="M387 561q-143 0 -226 91.5t-83 250.5v205q0 158 83 250t226 92q144 0 226.5 -91.5t82.5 -250.5v-205q0 -160 -82 -251t-227 -91zM211 903q0 -100 47.5 -159.5t128.5 -59.5q82 0 130 59t48 160v205q0 100 -48 159.5t-130 59.5q-81 0 -128.5 -59.5t-47.5 -159.5v-205z" />
    <glyph glyph-name="one.numr" horiz-adv-x="413" 
d="M311 1434v-859h-131v601h-137v116h51q48 0 70 21.5t22 68.5v52h125z" />
    <glyph glyph-name="two.numr" horiz-adv-x="690" 
d="M57 575v107l299 301q70 68 99.5 112.5t29.5 98.5q0 57 -38.5 95t-98.5 38q-67 0 -111.5 -51t-41.5 -125h-132q-1 131 82 215t209 84q116 0 190 -71.5t74 -178.5q0 -84 -42 -148.5t-132 -150.5l-190 -201h373v-125h-570z" />
    <glyph glyph-name="three.numr" horiz-adv-x="708" 
d="M350 561q-130 0 -212 76.5t-81 198.5h129q0 -66 45.5 -111t114.5 -45t115.5 41t46.5 102q0 59 -50 97t-126 38h-33v113h33q73 0 119.5 36.5t46.5 92.5q0 58 -42 94.5t-106 36.5q-67 0 -110 -40.5t-43 -102.5h-127q0 114 79 188t201 74q123 0 200 -65t77 -171
q0 -65 -37 -117.5t-103 -80.5q70 -22 112 -75.5t42 -127.5q0 -109 -83 -180.5t-208 -71.5z" />
    <glyph glyph-name="four.numr" horiz-adv-x="710" 
d="M49 768v117l254 551h141l-254 -551h238v200h127v-200h123v-117h-123v-193h-129v193h-377z" />
    <glyph glyph-name="five.numr" horiz-adv-x="704" 
d="M350 561q-129 0 -211.5 76t-83.5 199h133q2 -65 47.5 -107.5t114.5 -42.5q71 0 118.5 49t47.5 119q0 78 -46 125t-120 47q-86 0 -141 -65h-121l43 475h467v-123h-352l-25 -238q60 51 154 51q123 0 198.5 -72.5t75.5 -201.5q0 -125 -86 -208t-213 -83z" />
    <glyph glyph-name="six.numr" horiz-adv-x="714" 
d="M362 561q-131 0 -218 83.5t-87 209.5q0 102 70 215l229 367h152l-193 -306q33 13 68 13q119 0 201 -81.5t82 -205.5t-88 -209.5t-216 -85.5zM188 854q0 -75 50 -124.5t124 -49.5q73 0 123 50t50 124q0 77 -49.5 127.5t-125.5 50.5q-73 0 -122.5 -52t-49.5 -126z" />
    <glyph glyph-name="seven.numr" horiz-adv-x="628" 
d="M106 575l340 738h-417v123h567v-111l-346 -750h-144z" />
    <glyph glyph-name="eight.numr" horiz-adv-x="720" 
d="M362 561q-128 0 -212 72t-84 180q0 70 40.5 128t108.5 87q-129 61 -129 189q0 103 76.5 168t199.5 65q121 0 198 -66.5t77 -169.5q0 -62 -34.5 -110t-96.5 -76q65 -26 108 -85t43 -132q0 -104 -84 -177t-211 -73zM197 817q0 -62 47.5 -103.5t117.5 -41.5q68 0 115 42
t47 103t-47 103.5t-115 42.5q-70 0 -117.5 -42t-47.5 -104zM207 1208q0 -59 43 -96t112 -37q66 0 109 37.5t43 95.5q0 60 -43 99t-109 39q-69 0 -112 -39t-43 -99z" />
    <glyph glyph-name="nine.numr" horiz-adv-x="714" 
d="M352 1450q131 0 218 -83.5t87 -209.5q0 -103 -69 -215l-230 -367h-151l192 306q-32 -13 -67 -13q-120 0 -201.5 82t-81.5 205q0 124 87.5 209.5t215.5 85.5zM180 1157q0 -77 49 -127.5t125 -50.5q73 0 122.5 52t49.5 126q0 75 -50 124.5t-124 49.5q-72 0 -122 -49.5
t-50 -124.5z" />
    <glyph glyph-name="zero.dnom.zero" horiz-adv-x="774" 
d="M387 -14q-143 0 -226 91.5t-83 250.5v204q0 158 83 250t226 92q144 0 226.5 -91.5t82.5 -250.5v-204q0 -160 -82 -251t-227 -91zM211 328q0 -25 2 -35l313 383q-50 76 -139 76q-81 0 -128.5 -60t-47.5 -160v-204zM248 184q44 -75 139 -75q81 0 128.5 59.5t47.5 159.5v204
q0 23 -2 33z" />
    <glyph glyph-name="zero.numr.zero" horiz-adv-x="774" 
d="M387 561q-143 0 -226 91.5t-83 250.5v205q0 158 83 250t226 92q144 0 226.5 -91.5t82.5 -250.5v-205q0 -160 -82 -251t-227 -91zM211 903q0 -25 2 -35l313 383q-50 76 -139 76q-81 0 -128.5 -59.5t-47.5 -159.5v-205zM248 760q45 -76 139 -76q81 0 128.5 59.5t47.5 159.5
v205q0 23 -2 33z" />
    <glyph glyph-name="zero.sinf" horiz-adv-x="774" 
d="M387 -260q-143 0 -226 91.5t-83 250.5v205q0 158 83 250t226 92q144 0 226.5 -91.5t82.5 -250.5v-205q0 -160 -82 -251t-227 -91zM211 82q0 -100 47.5 -159.5t128.5 -59.5q82 0 130 59t48 160v205q0 100 -48 159.5t-130 59.5q-81 0 -128.5 -59.5t-47.5 -159.5v-205z" />
    <glyph glyph-name="one.sinf" horiz-adv-x="415" 
d="M311 612v-858h-131v600h-137v117h51q48 0 70 21.5t22 68.5v51h125z" />
    <glyph glyph-name="two.sinf" horiz-adv-x="692" 
d="M57 -246v107l299 301q70 68 99.5 112.5t29.5 98.5q0 57 -38.5 95t-98.5 38q-67 0 -111.5 -51t-41.5 -125h-132q-1 131 82 215t209 84q116 0 190 -71.5t74 -178.5q0 -84 -42 -148.5t-132 -150.5l-190 -201h373v-125h-570z" />
    <glyph glyph-name="three.sinf" horiz-adv-x="708" 
d="M350 -260q-130 0 -212 76t-81 198h129q0 -66 45.5 -110.5t114.5 -44.5t115.5 41t46.5 102q0 59 -50 97t-126 38h-33v113h33q73 0 119.5 36.5t46.5 92.5q0 58 -42 94.5t-106 36.5q-67 0 -110 -40.5t-43 -102.5h-127q0 114 79 188t201 74q123 0 200 -65t77 -171
q0 -65 -37 -117.5t-103 -80.5q70 -22 112 -75.5t42 -127.5q0 -109 -83 -180.5t-208 -71.5z" />
    <glyph glyph-name="four.sinf" horiz-adv-x="712" 
d="M51 -53v116l254 551h141l-253 -551h237v201h127v-201h123v-116h-123v-193h-129v193h-377z" />
    <glyph glyph-name="five.sinf" horiz-adv-x="706" 
d="M350 -260q-129 0 -211.5 75.5t-83.5 198.5h133q2 -65 47.5 -107t114.5 -42q71 0 118.5 49t47.5 119q0 78 -46 125t-120 47q-85 0 -141 -66h-121l43 475h467v-122h-352l-25 -238q60 51 154 51q123 0 198.5 -72.5t75.5 -201.5q0 -125 -86 -208t-213 -83z" />
    <glyph glyph-name="six.sinf" horiz-adv-x="714" 
d="M362 -260q-131 0 -218 83.5t-87 209.5q0 102 70 215l229 366h152l-193 -305q33 13 68 13q119 0 201 -82t82 -205q0 -124 -88 -209.5t-216 -85.5zM188 33q0 -75 50 -124.5t124 -49.5q73 0 123 50t50 124q0 77 -49.5 127.5t-125.5 50.5q-73 0 -122.5 -52t-49.5 -126z" />
    <glyph glyph-name="seven.sinf" horiz-adv-x="628" 
d="M106 -246l340 738h-417v122h567v-110l-346 -750h-144z" />
    <glyph glyph-name="eight.sinf" horiz-adv-x="724" 
d="M365 -260q-128 0 -212.5 72t-84.5 180q0 70 40.5 128t108.5 87q-129 61 -129 188q0 103 77 168.5t200 65.5q121 0 197.5 -66.5t76.5 -169.5q0 -62 -34.5 -110t-96.5 -76q65 -26 108 -85t43 -132q0 -104 -83.5 -177t-210.5 -73zM199 -4q0 -62 48 -104t118 -42
q68 0 114.5 42.5t46.5 103.5t-46.5 103t-114.5 42q-70 0 -118 -41.5t-48 -103.5zM209 387q0 -59 43.5 -96t112.5 -37q66 0 108.5 37.5t42.5 95.5q0 60 -42.5 98.5t-108.5 38.5q-69 0 -112.5 -38.5t-43.5 -98.5z" />
    <glyph glyph-name="nine.sinf" horiz-adv-x="714" 
d="M352 629q131 0 218 -83.5t87 -209.5q0 -103 -69 -215l-230 -367h-151l192 305q-30 -12 -67 -12q-120 0 -201.5 81.5t-81.5 205.5t87.5 209.5t215.5 85.5zM180 336q0 -77 49 -127.5t125 -50.5q73 0 122.5 52t49.5 126q0 75 -50 124.5t-124 49.5q-72 0 -122 -50t-50 -124z
" />
    <glyph glyph-name="zero.sups" horiz-adv-x="774" 
d="M387 643q-143 0 -226 91.5t-83 250.5v205q0 158 83 250t226 92q144 0 226.5 -91.5t82.5 -250.5v-205q0 -160 -82 -251t-227 -91zM211 985q0 -100 47.5 -159.5t128.5 -59.5q82 0 130 59t48 160v205q0 100 -48 159.5t-130 59.5q-81 0 -128.5 -59.5t-47.5 -159.5v-205z" />
    <glyph glyph-name="one.sups" horiz-adv-x="413" 
d="M311 1516v-859h-131v600h-137v117h51q48 0 70 21.5t22 68.5v52h125z" />
    <glyph glyph-name="two.sups" horiz-adv-x="690" 
d="M57 657v107l299 301q70 68 99.5 112.5t29.5 98.5q0 57 -38.5 95t-98.5 38q-67 0 -111.5 -51t-41.5 -125h-132q-1 131 82 215t209 84q116 0 190 -71.5t74 -178.5q0 -84 -42 -148.5t-132 -150.5l-190 -201h373v-125h-570z" />
    <glyph glyph-name="three.sups" horiz-adv-x="708" 
d="M350 643q-130 0 -212 76.5t-81 198.5h129q0 -66 45.5 -111t114.5 -45t115.5 41t46.5 102q0 59 -50 97t-126 38h-33v113h33q73 0 119.5 36.5t46.5 92.5q0 58 -42 94.5t-106 36.5q-67 0 -110 -40.5t-43 -102.5h-127q0 114 79 188t201 74q123 0 200 -65t77 -171
q0 -65 -37 -117.5t-103 -80.5q70 -22 112 -75.5t42 -127.5q0 -109 -83 -180.5t-208 -71.5z" />
    <glyph glyph-name="four.sups" horiz-adv-x="714" 
d="M49 854v117l254 551h141l-254 -551h238v200h127v-200h123v-117h-123v-192h-129v192h-377z" />
    <glyph glyph-name="five.sups" horiz-adv-x="704" 
d="M350 647q-129 0 -211.5 76t-83.5 199h133q2 -65 47.5 -107.5t114.5 -42.5q71 0 118.5 49t47.5 119q0 78 -46 125t-120 47q-86 0 -141 -65h-121l43 475h467v-123h-352l-25 -238q60 51 154 51q123 0 198.5 -72.5t75.5 -201.5q0 -125 -86 -208t-213 -83z" />
    <glyph glyph-name="six.sups" horiz-adv-x="714" 
d="M362 647q-131 0 -218 83.5t-87 209.5q0 102 70 215l229 367h152l-193 -305q30 12 68 12q119 0 201 -81.5t82 -205.5t-88 -209.5t-216 -85.5zM188 940q0 -75 50 -124.5t124 -49.5q73 0 123 50t50 124q0 77 -49.5 127.5t-125.5 50.5q-73 0 -122.5 -52t-49.5 -126z" />
    <glyph glyph-name="seven.sups" horiz-adv-x="628" 
d="M106 662l340 737h-417v123h567v-111l-346 -749h-144z" />
    <glyph glyph-name="eight.sups" horiz-adv-x="722" 
d="M362 647q-128 0 -212 72t-84 180q0 70 40.5 128t108.5 87q-129 61 -129 189q0 103 76.5 168t199.5 65q121 0 198 -66.5t77 -169.5q0 -62 -34.5 -110t-96.5 -76q65 -26 108 -85t43 -132q0 -104 -84 -177t-211 -73zM197 903q0 -62 47.5 -103.5t117.5 -41.5q68 0 115 42
t47 103t-47 103.5t-115 42.5q-70 0 -117.5 -42t-47.5 -104zM207 1294q0 -59 43 -96t112 -37q66 0 109 37.5t43 95.5q0 60 -43 99t-109 39q-69 0 -112 -39t-43 -99z" />
    <glyph glyph-name="nine.sups" horiz-adv-x="714" 
d="M352 1532q131 0 218 -83.5t87 -209.5q0 -103 -69 -215l-230 -367h-151l192 306q-32 -13 -67 -13q-120 0 -201.5 82t-81.5 205q0 124 87.5 209.5t215.5 85.5zM180 1239q0 -77 49 -127.5t125 -50.5q73 0 122.5 52t49.5 126q0 75 -50 124.5t-124 49.5q-72 0 -122 -49.5
t-50 -124.5z" />
    <glyph glyph-name="zero.sinf.zero" horiz-adv-x="774" 
d="M387 -260q-143 0 -226 91.5t-83 250.5v205q0 158 83 250t226 92q144 0 226.5 -91.5t82.5 -250.5v-205q0 -160 -82 -251t-227 -91zM211 82q0 -25 2 -35l313 383q-50 76 -139 76q-81 0 -128.5 -59.5t-47.5 -159.5v-205zM248 -61q45 -76 139 -76q81 0 128.5 59.5t47.5 159.5
v205q0 22 -2 32z" />
    <glyph glyph-name="zero.sups.zero" horiz-adv-x="774" 
d="M387 643q-143 0 -226 91.5t-83 250.5v205q0 158 83 250t226 92q144 0 226.5 -91.5t82.5 -250.5v-205q0 -160 -82 -251t-227 -91zM211 985q0 -25 2 -35l313 383q-50 76 -139 76q-81 0 -128.5 -59.5t-47.5 -159.5v-205zM248 842q45 -76 139 -76q81 0 128.5 59.5t47.5 159.5
v205q0 23 -2 33z" />
    <glyph glyph-name="colon.case" horiz-adv-x="495" 
d="M133 1151h229v-223h-229v223zM133 242v223h229v-223h-229z" />
    <glyph glyph-name="bullet.case" horiz-adv-x="819" 
d="M408 467q-104 0 -174 71t-70 177q0 104 70 175t174 71q106 0 176.5 -70.5t70.5 -175.5q0 -106 -70.5 -177t-176.5 -71z" />
    <glyph glyph-name="question.ss02" horiz-adv-x="972" 
d="M342 397q0 98 22.5 159.5t75.5 117.5l148 157q44 50 62.5 75t34 70t15.5 103q0 77 -46 129t-117 52h-113q-69 0 -120.5 -53.5t-51.5 -135.5v-70h-199v74q0 159 100 259t236 100h182q141 0 232.5 -98t91.5 -249q0 -65 -10 -114.5t-36.5 -95t-43 -66.5t-59.5 -69
q-9 -10 -13 -15l-129 -145q-39 -45 -54 -82t-15 -103h-193zM338 0v223h229v-223h-229z" />
    <glyph glyph-name="questiondown.ss02" horiz-adv-x="944" 
d="M612 602q0 -98 -22.5 -159t-75.5 -117l-147 -158q-45 -51 -63 -75.5t-34 -69.5t-16 -103q0 -77 46.5 -128.5t117.5 -51.5h112q69 0 120.5 53t51.5 135v70h199v-74q0 -159 -100 -258.5t-236 -99.5h-182q-141 0 -232.5 97.5t-91.5 248.5q0 65 10 114.5t36.5 95t43 66.5
t59.5 69q9 10 13 15l129 146q39 46 54.5 82t15.5 102h192zM387 776v223h229v-223h-229z" />
    <glyph glyph-name="hyphen.case" horiz-adv-x="813" 
d="M117 672v174h577v-174h-577z" />
    <glyph glyph-name="endash.case" horiz-adv-x="1210" 
d="M117 670v178h975v-178h-975z" />
    <glyph glyph-name="emdash.case" horiz-adv-x="2279" 
d="M117 670v178h2044v-178h-2044z" />
    <glyph glyph-name="parenleft.case" horiz-adv-x="661" 
d="M506 -193q-172 0 -271.5 108.5t-99.5 307.5v985q0 200 99 309t272 109h102v-168h-57q-106 0 -165.5 -63t-59.5 -187v-985q0 -124 59.5 -187t165.5 -63h57v-166h-102z" />
    <glyph glyph-name="parenright.case" horiz-adv-x="659" 
d="M154 1624q172 0 271 -108.5t99 -307.5v-985q0 -200 -99 -309t-271 -109h-103v168h58q106 0 165.5 63t59.5 187v985q0 124 -59.5 187t-165.5 63h-58v166h103z" />
    <glyph glyph-name="braceleft.case" horiz-adv-x="753" 
d="M573 -193q-147 0 -238 91.5t-91 242.5v295q0 73 -50.5 129.5t-130.5 73.5v154q80 17 130.5 73t50.5 129v295q0 150 91 242t238 94h125v-170h-82q-82 0 -133 -52t-51 -147v-284q0 -88 -43 -155.5t-113 -102.5q71 -37 113.5 -104t42.5 -154v-275q0 -97 51.5 -152t134.5 -55
h80v-168h-125z" />
    <glyph glyph-name="braceright.case" horiz-adv-x="753" 
d="M180 1624q147 0 238.5 -91.5t91.5 -242.5v-295q0 -73 50 -129t130 -73v-154q-80 -17 -130 -73.5t-50 -129.5v-295q0 -150 -91.5 -242t-238.5 -94h-125v170h82q82 0 133.5 52t51.5 147v285q0 88 42.5 155.5t112.5 102.5q-71 37 -113 103.5t-42 154.5v274q0 96 -52 151.5
t-135 55.5h-80v168h125z" />
    <glyph glyph-name="bracketleft.case" horiz-adv-x="679" 
d="M348 1454v-1477h275v-172h-463v1819h463v-170h-275z" />
    <glyph glyph-name="bracketright.case" horiz-adv-x="679" 
d="M332 -23v1477h-275v172h463v-1819h-463v170h275z" />
    <glyph glyph-name="guillemotleft.case" horiz-adv-x="1339" 
d="M1192 219l-565 418v141l565 422v-199l-389 -292l389 -291v-199zM113 637v141l565 422v-199l-389 -292l389 -291v-199z" />
    <glyph glyph-name="guillemotright.case" horiz-adv-x="1339" 
d="M145 1198l566 -418v-141l-566 -422v199l390 293l-390 290v199zM659 217v199l390 293l-390 290v199l566 -418v-141z" />
    <glyph glyph-name="guilsinglleft.case" horiz-adv-x="845" 
d="M698 219l-585 418v141l585 422v-199l-409 -292l409 -291v-199z" />
    <glyph glyph-name="guilsinglright.case" horiz-adv-x="845" 
d="M147 1198l586 -418v-141l-586 -422v199l410 293l-410 290v199z" />
    <glyph glyph-name="registered.alt" horiz-adv-x="1703" 
d="M850 -25q-150 0 -286.5 59t-235.5 158.5t-158 237t-59 287.5q0 201 99.5 371.5t269.5 270t370 99.5q151 0 288.5 -59t237 -158t158.5 -236.5t59 -287.5t-59 -287.5t-158.5 -237t-237 -158.5t-288.5 -59zM201 717q0 -177 87.5 -328t237.5 -239.5t326 -88.5t325.5 88.5
t236.5 239.5t87 328q0 133 -51.5 255t-138.5 210t-207 140t-252 52t-252.5 -52t-207.5 -140t-139 -210t-52 -255zM627 326v788h229q111 0 181.5 -62t70.5 -153q0 -60 -28 -109t-76 -77q102 -56 102 -187v-200h-129v186q0 133 -141 133h-82v-319h-127zM754 754h94
q58 0 93.5 34.5t35.5 90.5q0 54 -35 86t-94 32h-94v-243z" />
    <glyph glyph-name="at.case" horiz-adv-x="1847" 
d="M922 438q108 0 174.5 75t66.5 198q0 120 -67 194t-174 74q-105 0 -176.5 -77t-71.5 -191q0 -115 72 -194t176 -79zM86 702q0 177 63.5 332t175 266.5t270 175.5t341.5 64q190 0 348.5 -58t265 -159t165.5 -238t59 -294q0 -232 -101.5 -368t-242.5 -136q-165 0 -220 168
q-44 -73 -130 -120.5t-195 -47.5q-164 0 -278.5 122.5t-114.5 301.5q0 174 115 295.5t278 121.5q95 0 167.5 -43.5t110.5 -121.5v149h180v-502q0 -81 21.5 -122.5t71.5 -41.5q74 0 117.5 86.5t43.5 251.5q0 127 -45.5 235.5t-128.5 187t-208.5 123t-278.5 44.5
q-145 0 -271.5 -51t-214.5 -139.5t-138 -211t-50 -261.5q0 -304 188 -482t535 -178h451v-170h-467q-200 0 -366.5 62t-279.5 171t-175 260.5t-62 327.5z" />
    <glyph glyph-name="uni030C.alt" 
d="M205 1096l41 409h176l-74 -409h-143z" />
    <glyph glyph-name="uni0308.case" 
d="M635 1708h194v-186h-194v186zM205 1522v186h194v-186h-194z" />
    <glyph glyph-name="uni0307.case" 
d="M205 1708h217v-186h-217v186z" />
    <glyph glyph-name="gravecomb.case" 
d="M205 1776h219l201 -260h-179z" />
    <glyph glyph-name="acutecomb.case" 
d="M621 1776l-240 -260h-176l201 260h215z" />
    <glyph glyph-name="uni030B.case" 
d="M580 1780l-195 -264h-180l184 264h191zM604 1516l184 264h205l-219 -264h-170z" />
    <glyph glyph-name="uni0302.case" 
d="M205 1516l262 266h201l260 -266h-197l-166 159l-168 -159h-192z" />
    <glyph glyph-name="uni030C.case" 
d="M205 1790h192l168 -168l168 168h193l-260 -274h-201z" />
    <glyph glyph-name="uni0306.case" 
d="M856 1780q-6 -133 -88 -206t-215 -73t-214.5 73t-88.5 206h153q0 -71 41.5 -113.5t108.5 -42.5q68 0 110 42.5t42 113.5h151z" />
    <glyph glyph-name="uni030A.case" 
d="M473 1495q-114 0 -191 68t-77 168t77 167.5t191 67.5q115 0 192.5 -67.5t77.5 -167.5t-77.5 -168t-192.5 -68zM332 1731q0 -55 40.5 -92t100.5 -37q62 0 102.5 37t40.5 92q0 54 -41 90.5t-102 36.5q-60 0 -100.5 -36.5t-40.5 -90.5z" />
    <glyph glyph-name="tildecomb.case" 
d="M205 1516q1 123 57.5 191.5t143.5 68.5q55 0 118.5 -32t116.5 -63.5t82 -31.5q35 0 58 28.5t26 89.5h137q-1 -121 -60 -190.5t-147 -69.5q-44 0 -92.5 19.5t-83 43t-72.5 43t-63 19.5q-35 0 -59 -29t-27 -87h-135z" />
    <glyph glyph-name="uni0304.case" 
d="M205 1548v144h667v-144h-667z" />
    </font>
</defs>
</svg>
