<?xml version="1.0" standalone="no"?>
<!DOCTYPE svg PUBLIC "-//W3C//DTD SVG 1.1//EN" "http://www.w3.org/Graphics/SVG/1.1/DTD/svg11.dtd" >
<svg xmlns="http://www.w3.org/2000/svg" xmlns:xlink="http://www.w3.org/1999/xlink" version="1.1">
<metadata>
Created by FontForge 20201107 at Tue May 20 08:22:21 2025
 By 
Copyright (c) 2020 by Martin Va'cha. All rights reserved.
</metadata>
<defs>
<font id="AvanttTRIAL-ThinItalic" horiz-adv-x="0" >
  <font-face 
    font-family="Avantt TRIAL Thin Italic"
    font-weight="100"
    font-style="italic"
    font-stretch="normal"
    units-per-em="2048"
    panose-1="0 0 0 0 0 0 0 0 0 0"
    ascent="1638"
    descent="-410"
    x-height="989"
    cap-height="1434"
    bbox="-428 -469 2376.26 2089"
    underline-thickness="40"
    underline-position="-183"
    slope="-12"
    unicode-range="U+0020-E133"
  />
<missing-glyph horiz-adv-x="2334" 
d="M174 631q1 202 79 387.5t209.5 322.5t313.5 222t383 92v-2042q-161 5 -312 59.5t-272 149t-211.5 218.5t-140 276.5t-49.5 314.5zM1235 -383v2032q83 -29 153 -172.5t110.5 -368t39.5 -477.5q1 -251 -40 -475t-111 -367t-152 -172zM1389 -350q104 136 164 399t59 582
q1 321 -58.5 585.5t-162.5 401.5q221 -96 362.5 -370.5t140.5 -616.5q0 -227 -64 -430t-179 -346.5t-262 -204.5zM1597 -307q172 150 273 400.5t100 537.5q1 288 -100.5 539t-272.5 401q185 -77 326 -219.5t218 -329t77 -391.5q0 -309 -170 -565t-451 -373z" />
    <glyph glyph-name=".notdef" horiz-adv-x="2334" 
d="M174 631q1 202 79 387.5t209.5 322.5t313.5 222t383 92v-2042q-161 5 -312 59.5t-272 149t-211.5 218.5t-140 276.5t-49.5 314.5zM1235 -383v2032q83 -29 153 -172.5t110.5 -368t39.5 -477.5q1 -251 -40 -475t-111 -367t-152 -172zM1389 -350q104 136 164 399t59 582
q1 321 -58.5 585.5t-162.5 401.5q221 -96 362.5 -370.5t140.5 -616.5q0 -227 -64 -430t-179 -346.5t-262 -204.5zM1597 -307q172 150 273 400.5t100 537.5q1 288 -100.5 539t-272.5 401q185 -77 326 -219.5t218 -329t77 -391.5q0 -309 -170 -565t-451 -373z" />
    <glyph glyph-name=".null" 
 />
    <glyph glyph-name="nonmarkingreturn" horiz-adv-x="682" 
 />
    <glyph glyph-name="space" unicode=" " horiz-adv-x="548" 
 />
    <glyph glyph-name="exclam" unicode="!" horiz-adv-x="479" 
d="M410 1434h53l-240 -1100h-39zM86 0l23 113h112l-22 -113h-113z" />
    <glyph glyph-name="quotedbl" unicode="&#x22;" horiz-adv-x="573" 
d="M504 1098l20 205l27 131h74l-27 -131l-66 -205h-28zM291 1098l20 205l27 131h74l-27 -131l-66 -205h-28z" />
    <glyph glyph-name="numbersign" unicode="#" horiz-adv-x="1357" 
d="M1282 1434l-238 -484h302l-11 -47h-313l-184 -373h338l-11 -43h-348l-239 -487h-56l240 487h-324l-239 -487h-54l240 487h-272l10 43h283l182 373h-305l10 47h317l238 484h55l-237 -484h323l238 484h55zM459 530h323l185 373h-324z" />
    <glyph glyph-name="dollar" unicode="$" horiz-adv-x="964" 
d="M754 1675l-49 -225q145 -21 220.5 -122.5t43.5 -246.5h-49q25 147 -50 237.5t-231 90.5q-87 0 -156.5 -33t-110.5 -86.5t-62 -115.5t-21 -125t24 -110.5t63.5 -75t90 -52.5t103 -43t103 -46t90 -62t63.5 -91.5t24 -132.5q0 -89 -27 -169t-79 -145t-137.5 -103.5
t-192.5 -38.5h-21l-49 -226h-49l49 232q-150 25 -226.5 148.5t-41.5 289.5h49q-10 -57 -9.5 -113t22 -108t55.5 -91.5t91.5 -63t129.5 -23.5q95 0 171 36t121.5 95t69 130.5t23.5 147.5q0 77 -31 132.5t-80.5 87t-109.5 56.5t-119.5 50.5t-109 58.5t-80.5 90.5t-31 137.5
q0 77 25 148.5t73 130t126.5 93.5t176.5 35h16l50 221h49z" />
    <glyph glyph-name="percent" unicode="%" horiz-adv-x="1400" 
d="M1341 1434h54l-1245 -1434h-54zM203 1032q0 54 14.5 112t44 113.5t70.5 99t99 70.5t124 27q104 0 164.5 -68t60.5 -184q0 -70 -23 -143t-65.5 -137t-111.5 -105t-152 -41q-103 0 -164 69t-61 187zM250 1032q0 -96 47 -154.5t131 -58.5q89 0 161 60.5t108 147t36 175.5
q0 94 -47 150.5t-133 56.5q-88 0 -159 -57.5t-107.5 -143t-36.5 -176.5zM719 236q0 69 23.5 141.5t66 135.5t111.5 103.5t151 40.5q104 0 164.5 -67.5t60.5 -183.5q0 -70 -23 -143t-65.5 -137t-111.5 -105t-152 -41q-103 0 -164 69t-61 187zM766 236q0 -96 47 -154.5
t131 -58.5q89 0 161 60.5t108 147t36 175.5q0 94 -47 150t-133 56q-88 0 -159 -57.5t-107.5 -142.5t-36.5 -176z" />
    <glyph glyph-name="ampersand" unicode="&#x26;" horiz-adv-x="1257" 
d="M436 -20q-166 0 -262 83t-96 222q0 60 13 112t33.5 92t55 76.5t68 62.5t82 53t87 45t93.5 40q-73 96 -97 146q-42 84 -42 169q0 160 109.5 266.5t267.5 106.5q130 0 210 -72.5t80 -185.5q0 -43 -8.5 -82t-21.5 -70t-37 -61t-45.5 -51.5t-57.5 -45t-62 -38.5t-70 -35.5
t-71.5 -31.5t-75.5 -31q-3 -1 -5 -2l338 -447q85 112 159 262l58 115h53l-72 -137q-83 -161 -172 -277l201 -264h-59l-170 225q-107 -129 -224 -187t-260 -58zM127 289q0 -121 83.5 -192.5t227.5 -71.5q254 0 453 237l-352 467q-53 -21 -90.5 -38t-83.5 -42t-78 -49
t-64.5 -57.5t-52 -69.5t-31.5 -83t-12 -101zM422 1077q0 -58 21.5 -114t43.5 -87.5t68 -91.5q182 73 254 117q153 94 176 237q4 27 4 56q0 95 -66.5 155t-174.5 60q-135 0 -230.5 -91t-95.5 -241z" />
    <glyph glyph-name="quotesingle" unicode="'" horiz-adv-x="360" 
d="M291 1098l20 205l27 131h74l-27 -131l-66 -205h-28z" />
    <glyph glyph-name="parenleft" unicode="(" horiz-adv-x="598" 
d="M336 -342q-319 0 -238 379l242 1139q76 301 383 301h45l-10 -43h-45q-268 0 -332 -297l-244 -1139q-33 -152 22.5 -225.5t184.5 -73.5h45l-8 -41h-45z" />
    <glyph glyph-name="parenright" unicode=")" horiz-adv-x="595" 
d="M293 1475q318 0 237 -379l-241 -1139q-76 -301 -383 -301h-45l10 43h45q268 0 332 297l244 1139q33 152 -22.5 225.5t-184.5 73.5h-45l8 41h45z" />
    <glyph glyph-name="asterisk" unicode="*" horiz-adv-x="993" 
d="M315 692l-34 31l290 332l-329 86l16 37l334 -84l78 360h47l-78 -360l369 84l2 -41l-367 -86l152 -332l-39 -23l-150 330z" />
    <glyph glyph-name="plus" unicode="+" horiz-adv-x="1269" 
d="M262 625l10 45h377l80 377h45l-80 -377h379l-10 -45h-379l-80 -379h-45l80 379h-377z" />
    <glyph glyph-name="comma" unicode="," horiz-adv-x="344" 
d="M63 -41q5 19 -3 30t-27 11h-23l23 113h112l-69 -328h-49z" />
    <glyph glyph-name="hyphen" unicode="-" horiz-adv-x="665" 
d="M117 563l10 47h457l-11 -47h-456z" />
    <glyph glyph-name="period" unicode="." horiz-adv-x="421" 
d="M80 113h113l-23 -113h-113z" />
    <glyph glyph-name="slash" unicode="/" horiz-adv-x="804" 
d="M-45 0l934 1434h55l-932 -1434h-57z" />
    <glyph glyph-name="slash" unicode="&#x2215;" horiz-adv-x="804" 
d="M-45 0l934 1434h55l-932 -1434h-57z" />
    <glyph glyph-name="zero" unicode="0" horiz-adv-x="1210" 
d="M528 -20q-98 0 -178 36.5t-130.5 105.5t-68 167.5t8.5 222.5l86 408q56 266 188 400t346 134q100 0 179.5 -38t129.5 -109.5t66 -174.5t-12 -233l-86 -407q-109 -512 -529 -512zM205 492q-45 -206 49.5 -336.5t271.5 -130.5q201 0 318 122t168 365l86 408
q46 220 -47 354.5t-271 134.5q-199 0 -316.5 -126.5t-172.5 -383.5z" />
    <glyph glyph-name="one" unicode="1" horiz-adv-x="538" 
d="M530 1434l-303 -1434h-49l246 1161h-213l10 45h137q48 0 69 16.5t30 63.5l30 148h43z" />
    <glyph glyph-name="two" unicode="2" horiz-adv-x="1062" 
d="M-6 0l8 43l735 641q49 44 63.5 57t57 54t58 61t44.5 60t40.5 70.5t21.5 71.5t10 83q0 125 -89 196.5t-241 71.5q-153 0 -271 -109.5t-152 -283.5h-50q40 200 171.5 319t312.5 119q167 0 266.5 -85t99.5 -230q0 -74 -23 -140t-70.5 -127.5t-93.5 -107t-118 -107.5
l-706 -612h815l-9 -45h-880z" />
    <glyph glyph-name="three" unicode="3" horiz-adv-x="1136" 
d="M475 -20q-201 0 -314 120t-75 301h49q-35 -166 63.5 -271t276.5 -105q107 0 196.5 38t146 100t87.5 138t31 154q0 124 -93 190t-261 66h-50l11 45h49q124 0 232 47t176.5 138t68.5 208q0 123 -87.5 191.5t-242.5 68.5q-94 0 -181.5 -39.5t-155 -121.5t-91.5 -191h-49
q40 188 176 292.5t312 104.5q170 0 269 -83t99 -222q0 -154 -107.5 -269t-267.5 -147q117 -23 179.5 -94t62.5 -180q0 -202 -143.5 -340.5t-366.5 -138.5z" />
    <glyph glyph-name="four" unicode="4" horiz-adv-x="1085" 
d="M45 360l10 43l746 1031h59l-745 -1031h622l92 439h52l-93 -439h242l-10 -43h-242l-76 -360h-51l76 360h-682z" />
    <glyph glyph-name="five" unicode="5" horiz-adv-x="1095" 
d="M467 -20q-200 0 -311.5 118t-73.5 295h49q-35 -166 61.5 -267t274.5 -101q127 0 237.5 71.5t175 188.5t64.5 247q0 151 -91.5 230.5t-250.5 79.5q-209 0 -354 -148h-43l225 740h678l-8 -45h-635l-197 -633q149 131 334 131q181 0 285 -91.5t104 -263.5
q0 -144 -66.5 -270.5t-188 -204t-269.5 -77.5z" />
    <glyph glyph-name="six" unicode="6" horiz-adv-x="1105" 
d="M498 -20q-169 0 -286.5 117.5t-117.5 281.5q0 90 46 206.5t132 219.5l521 629h59l-545 -650q153 115 311 115q182 0 297 -112t115 -285q0 -139 -72.5 -259.5t-195.5 -191.5t-264 -71zM143 381q0 -146 102.5 -251t258.5 -105q126 0 236 64t175.5 174t65.5 237
q0 158 -100 256t-263 98q-96 0 -185 -41.5t-152 -107.5t-100.5 -152t-37.5 -172z" />
    <glyph glyph-name="seven" unicode="7" horiz-adv-x="954" 
d="M92 0l955 1389h-842l8 45h893l-8 -45l-951 -1389h-55z" />
    <glyph glyph-name="eight" unicode="8" horiz-adv-x="1146" 
d="M487 -20q-175 0 -282 91t-107 240q0 164 117.5 289t278.5 156q-98 22 -156.5 93t-58.5 175q0 88 39.5 168t104.5 137t151 91t176 34q163 0 263.5 -80.5t100.5 -216.5q0 -62 -20.5 -123.5t-61 -117.5t-110 -99t-158.5 -61q111 -21 177.5 -99.5t66.5 -197.5
q0 -128 -69.5 -238.5t-189.5 -175.5t-262 -65zM147 311q0 -126 92.5 -206t247.5 -80q196 0 333.5 129.5t137.5 308.5q0 128 -87.5 198t-239.5 70q-197 0 -340.5 -125.5t-143.5 -294.5zM328 1024q0 -112 81 -180t220 -68q193 0 314.5 110t121.5 271q0 116 -87 184t-228 68
q-88 0 -167 -32t-134.5 -85t-88 -123t-32.5 -145z" />
    <glyph glyph-name="nine" unicode="9" horiz-adv-x="1105" 
d="M705 1454q169 0 286 -117.5t117 -281.5q0 -90 -46 -206.5t-132 -219.5l-520 -629h-60l545 649q-152 -114 -311 -114q-182 0 -297 112t-115 285q0 139 73 259.5t196 191.5t264 71zM221 934q0 -158 100 -256t263 -98q96 0 185 41.5t152 107.5t100.5 152t37.5 172
q0 146 -102.5 251t-258.5 105q-126 0 -236 -64t-175.5 -174t-65.5 -237z" />
    <glyph glyph-name="colon" unicode=":" horiz-adv-x="411" 
d="M221 834h113l-23 -113h-112zM45 0l23 113h112l-22 -113h-113z" />
    <glyph glyph-name="semicolon" unicode=";" horiz-adv-x="409" 
d="M219 834h113l-23 -113h-112zM45 0l23 113h112l-69 -328h-50l37 174q5 19 -3 30t-27 11h-23z" />
    <glyph glyph-name="less" unicode="&#x3c;" horiz-adv-x="1269" 
d="M1147 981l-12 -55l-844 -342l700 -344l-10 -47l-758 372l10 43z" />
    <glyph glyph-name="equal" unicode="=" horiz-adv-x="1269" 
d="M1110 854l-10 -45h-801l10 45h801zM217 426l10 45h801l-10 -45h-801z" />
    <glyph glyph-name="greater" unicode="&#x3e;" horiz-adv-x="1269" 
d="M162 193l12 55l844 342l-701 344l11 47l757 -373l-10 -43z" />
    <glyph glyph-name="question" unicode="?" horiz-adv-x="937" 
d="M631 1454q149 0 242.5 -84.5t93.5 -228.5q0 -84 -27 -154.5t-72 -122t-100 -97t-113.5 -90.5t-110 -92t-93 -111.5t-58.5 -139.5h-45q17 82 58.5 151t92.5 117.5t109 93t112.5 88.5t99 92.5t71.5 115t27 147.5q0 125 -80 197.5t-209 72.5q-147 0 -259.5 -108t-142.5 -265
h-47q36 183 159.5 300.5t291.5 117.5zM256 0l23 113h112l-22 -113h-113z" />
    <glyph glyph-name="at" unicode="@" horiz-adv-x="1878" 
d="M829 109q126 0 230 71t159.5 181t55.5 231q0 129 -75.5 203.5t-207.5 74.5q-192 0 -320 -129t-128 -313q0 -138 79 -228.5t207 -90.5zM100 371q0 188 66 355.5t187 295.5t306 203t408 75q321 0 521 -172t200 -444q0 -65 -14.5 -143.5t-47.5 -162.5t-78 -152.5t-113 -113
t-146 -44.5q-206 0 -164 243q-65 -115 -168 -179t-228 -64q-147 0 -239 100t-92 256q0 137 64.5 249t177.5 175t251 63q122 0 208.5 -64t103.5 -173l47 221h47l-125 -584q-41 -200 117 -200q66 0 124.5 42t98.5 106.5t69.5 142.5t43.5 150.5t14 129.5q0 254 -187 413.5
t-487 159.5q-173 0 -323 -49t-257.5 -133.5t-184.5 -197.5t-115 -243t-38 -267q0 -194 92 -340t248 -221.5t351 -75.5h413l-10 -45h-403q-160 0 -296.5 49t-234 137t-152.5 217.5t-55 284.5z" />
    <glyph glyph-name="A" unicode="A" horiz-adv-x="1120" 
d="M-61 0l798 1434h56l186 -1434h-51l-56 428h-641l-237 -428h-55zM258 475h610l-114 895z" />
    <glyph glyph-name="B" unicode="B" horiz-adv-x="1028" 
d="M98 0l303 1434h244q163 0 256.5 -77.5t93.5 -213.5q0 -153 -109.5 -265t-252.5 -126q98 -8 165.5 -87.5t67.5 -207.5q0 -198 -125.5 -327.5t-334.5 -129.5h-308zM156 45h252q101 0 181 35t128.5 94t74 131t25.5 152q0 121 -68.5 193.5t-189.5 72.5h-258zM309 768h217
q102 0 198 46t160 133.5t64 193.5q0 114 -81 181t-222 67h-203z" />
    <glyph glyph-name="C" unicode="C" horiz-adv-x="1519" 
d="M743 -20q-261 0 -426 169t-165 441q0 175 67 335t179 275.5t265.5 184.5t319.5 69q226 0 382.5 -128.5t168.5 -330.5h-49q-15 182 -160.5 298t-343.5 116q-162 0 -308.5 -69t-249 -182t-162.5 -262t-60 -306q0 -251 151.5 -408t390.5 -157q203 0 369.5 103.5t251.5 291.5
h53q-97 -215 -273.5 -327.5t-400.5 -112.5z" />
    <glyph glyph-name="D" unicode="D" horiz-adv-x="1417" 
d="M803 1434q262 0 411.5 -147.5t149.5 -395.5q0 -78 -12 -158.5t-40.5 -169t-72 -168.5t-111.5 -153t-153 -126t-203 -84.5t-256 -31.5h-418l303 1434h402zM158 45h360q129 0 240 29.5t191 79.5t144 118.5t105 144t68 160t38 161.5t11 153q0 227 -135.5 362.5t-374.5 135.5
h-363z" />
    <glyph glyph-name="E" unicode="E" horiz-adv-x="923" 
d="M401 1434h627l-8 -45h-578l-125 -582h502l-8 -45h-502l-153 -717h577l-8 -45h-627z" />
    <glyph glyph-name="F" unicode="F" horiz-adv-x="894" 
d="M401 1434h627l-8 -45h-578l-125 -582h502l-8 -45h-502l-162 -762h-49z" />
    <glyph glyph-name="G" unicode="G" horiz-adv-x="1583" 
d="M762 -20q-275 0 -443.5 166t-168.5 436q0 173 68.5 333.5t183 278.5t273.5 189t331 71q213 0 367.5 -115.5t182.5 -287.5h-51q-29 157 -171.5 257.5t-327.5 100.5q-166 0 -317.5 -69.5t-258.5 -183.5t-170 -265.5t-63 -310.5q0 -247 157 -402t408 -155q257 0 451 176
t260 465l-549 -2l10 45h590q-4 -34 -8 -50q-41 -194 -147.5 -347.5t-265 -241.5t-341.5 -88z" />
    <glyph glyph-name="H" unicode="H" horiz-adv-x="1191" 
d="M98 0l303 1434h50l-140 -664h688l140 664h51l-303 -1434h-51l153 725h-688l-154 -725h-49z" />
    <glyph glyph-name="I" unicode="I" horiz-adv-x="452" 
d="M401 1434h50l-304 -1434h-49z" />
    <glyph glyph-name="J" unicode="J" horiz-adv-x="618" 
d="M41 45q123 0 199 74.5t108 228.5l230 1086h49l-230 -1086q-38 -182 -126 -265t-238 -83h-88l8 45h88z" />
    <glyph glyph-name="K" unicode="K" horiz-adv-x="940" 
d="M772 0l-469 733l-156 -733h-49l303 1434h50l-144 -676l713 676h65l-729 -693l475 -741h-59z" />
    <glyph glyph-name="L" unicode="L" horiz-adv-x="860" 
d="M401 1434h50l-295 -1389h579l-8 -45h-629z" />
    <glyph glyph-name="M" unicode="M" horiz-adv-x="1761" 
d="M98 0l303 1434h50l335 -1366l920 1366h53l-303 -1434h-51l240 1122q13 63 26.5 120.5t20.5 83.5l8 26q-47 -80 -127 -199l-774 -1153h-43l-279 1126q-16 62 -28 119.5t-17 84.5l-4 26q-12 -91 -41 -232l-240 -1124h-49z" />
    <glyph glyph-name="N" unicode="N" horiz-adv-x="1224" 
d="M827 291q20 -60 36.5 -116.5t22.5 -82.5l7 -26q10 90 39 231l239 1137h52l-303 -1434h-48l-378 1139q-20 60 -36.5 116.5t-23.5 82.5l-6 26q-10 -90 -39 -231l-242 -1133h-49l303 1434h45z" />
    <glyph glyph-name="O" unicode="O" horiz-adv-x="1654" 
d="M772 -20q-133 0 -248 48.5t-196 133t-127.5 202t-46.5 250.5q0 161 64.5 314t173.5 269t263.5 186.5t325.5 70.5q176 0 318 -82t221 -224.5t79 -316.5q0 -161 -63.5 -315.5t-172 -273t-264 -190.5t-327.5 -72zM203 614q0 -168 72.5 -302.5t204 -210.5t298.5 -76
q206 0 385 112.5t283 298t104 393.5q0 252 -161 416t-414 164q-155 0 -298 -65.5t-246.5 -173.5t-165.5 -254t-62 -302z" />
    <glyph glyph-name="P" unicode="P" horiz-adv-x="978" 
d="M98 0l303 1434h293q163 0 256.5 -78.5t93.5 -214.5q0 -85 -31 -160.5t-87.5 -133t-143 -91t-190.5 -33.5h-291l-154 -723h-49zM309 768h283q102 0 182.5 34t127.5 89.5t71 119t24 130.5q0 114 -81 181t-222 67h-252z" />
    <glyph glyph-name="Q" unicode="Q" horiz-adv-x="1654" 
d="M774 0q-133 0 -248 48.5t-196 132t-127.5 199.5t-46.5 247q0 157 64 307.5t172.5 265t263.5 184.5t327 70q176 0 318 -81t221.5 -221.5t79.5 -311.5q0 -94 -22 -188t-68 -185.5t-112.5 -170t-160.5 -144.5t-207 -107h461l-8 -45h-711zM205 627q0 -252 161 -417t414 -165
q206 0 385 111t283 294t104 388q0 164 -72.5 294t-204 203.5t-298.5 73.5q-154 0 -296.5 -64t-246.5 -170t-166.5 -250t-62.5 -298z" />
    <glyph glyph-name="R" unicode="R" horiz-adv-x="1095" 
d="M98 0l303 1434h304q163 0 256.5 -77.5t93.5 -213.5q0 -154 -84.5 -256.5t-235.5 -138.5q64 -16 106 -50.5t58.5 -77.5t19.5 -95t-10 -103l-88 -422h-49l88 422q11 52 11.5 94.5t-13.5 82t-44.5 66t-84.5 42.5t-129 16h-299l-154 -723h-49zM309 768h273q198 0 312 104.5
t114 268.5q0 114 -81 181t-222 67h-265z" />
    <glyph glyph-name="S" unicode="S" horiz-adv-x="1003" 
d="M434 -20q-181 0 -279.5 129t-58.5 315h49q-10 -57 -9.5 -113t22 -108t55.5 -91.5t91.5 -63t129.5 -23.5q95 0 171 36t121.5 95t69 130.5t23.5 147.5q0 77 -31 132.5t-80.5 87t-109.5 56.5t-119.5 50.5t-109 58.5t-80.5 90.5t-31 137.5q0 77 25 148.5t73 130t126.5 93.5
t176.5 35q173 0 269 -105.5t61 -267.5h-49q25 147 -50 237.5t-231 90.5q-87 0 -156.5 -33t-110.5 -86.5t-62 -115.5t-21 -125t24 -110.5t63.5 -75t90 -52.5t103 -43t103 -46t90 -62t63.5 -91.5t24 -132.5q0 -89 -27 -169t-79 -145t-137.5 -103.5t-192.5 -38.5z" />
    <glyph glyph-name="T" unicode="T" horiz-adv-x="921" 
d="M223 1389l8 45h852l-8 -45h-401l-295 -1389h-49l295 1389h-402z" />
    <glyph glyph-name="U" unicode="U" horiz-adv-x="1198" 
d="M510 -20q-184 0 -279 125t-53 325l213 1004h51l-219 -1024q-36 -169 45.5 -277t241.5 -108q170 0 282.5 109t151.5 296l213 1004h51l-213 -1004q-44 -210 -169.5 -330t-315.5 -120z" />
    <glyph glyph-name="V" unicode="V" horiz-adv-x="1112" 
d="M481 0h-55l-188 1434h49l178 -1364l756 1364h55z" />
    <glyph glyph-name="W" unicode="W" horiz-adv-x="1785" 
d="M352 0l-94 1434h49l78 -1172l10 -207q27 58 90 187l580 1192h51l74 -1170l10 -207q27 58 90 187l584 1190h51l-700 -1434h-68l-84 1341l-653 -1341h-68z" />
    <glyph glyph-name="X" unicode="X" horiz-adv-x="985" 
d="M760 0l-219 705l-516 -705h-60l551 750l-215 684h51l201 -643l467 643h59l-501 -689l233 -745h-51z" />
    <glyph glyph-name="Y" unicode="Y" horiz-adv-x="983" 
d="M252 1434h51l234 -715l528 715h61l-571 -766l-141 -668h-52l142 668z" />
    <glyph glyph-name="Z" unicode="Z" horiz-adv-x="927" 
d="M291 1434h770l-8 -45l-1043 -1344h764l-8 -45h-821l8 45l1042 1344h-712z" />
    <glyph glyph-name="bracketleft" unicode="[" horiz-adv-x="610" 
d="M465 1434l-367 -1729h299l-10 -45h-348l387 1819h348l-10 -45h-299z" />
    <glyph glyph-name="backslash" unicode="\" horiz-adv-x="763" 
d="M618 0h-51l-325 1434h49z" />
    <glyph glyph-name="bracketright" unicode="]" horiz-adv-x="608" 
d="M176 -295l367 1729h-299l10 45h348l-387 -1819h-348l10 45h299z" />
    <glyph glyph-name="asciicircum" unicode="^" horiz-adv-x="1269" 
d="M1057 596h-47l-183 778l-508 -778h-53l549 838h45z" />
    <glyph glyph-name="underscore" unicode="_" horiz-adv-x="1040" 
d="M0 -66l10 46h832l-11 -46h-831z" />
    <glyph glyph-name="grave" unicode="`" horiz-adv-x="661" 
d="M393 1364h53l142 -268h-49z" />
    <glyph glyph-name="a" unicode="a" horiz-adv-x="1079" 
d="M385 -20q-145 0 -232 68t-87 181q0 87 41 153t113.5 106.5t166.5 60.5t207 20h287l10 47q11 56 12.5 107t-16.5 95.5t-50.5 77t-89.5 51t-133 18.5q-140 0 -249.5 -80t-135.5 -203h-53q29 141 153.5 234.5t284.5 93.5q85 0 150 -21.5t103.5 -58.5t61 -87t22.5 -107.5
t-11 -119.5l-131 -616h-49l49 236q-75 -115 -189 -185.5t-235 -70.5zM117 231q0 -93 73.5 -149.5t194.5 -56.5q161 0 296 121.5t171 289.5l18 88h-276q-94 0 -175.5 -15.5t-151.5 -48t-110 -91t-40 -138.5z" />
    <glyph glyph-name="b" unicode="b" horiz-adv-x="1306" 
d="M639 -20q-170 0 -292 91.5t-154 243.5l-66 -315h-49l303 1434h49l-141 -672q79 117 203 182.5t270 65.5q197 0 323.5 -127.5t126.5 -319.5q0 -110 -42.5 -215.5t-116.5 -187t-182.5 -131t-231.5 -49.5zM227 426q0 -180 113 -290.5t299 -110.5q108 0 206 44.5t167 117.5
t110 171t41 201q0 174 -113 290t-292 116q-149 0 -271.5 -74.5t-191 -197.5t-68.5 -267z" />
    <glyph glyph-name="c" unicode="c" horiz-adv-x="1128" 
d="M535 -20q-194 0 -317.5 120.5t-123.5 319.5q0 160 75.5 295.5t210 215t298.5 79.5q161 0 277 -89.5t122 -220.5h-49q-7 114 -108.5 189.5t-239.5 75.5q-144 0 -267 -69.5t-196.5 -194t-73.5 -275.5q0 -180 108 -290.5t281 -110.5q141 0 254 67.5t168 202.5h54
q-59 -156 -188 -235.5t-285 -79.5z" />
    <glyph glyph-name="d" unicode="d" horiz-adv-x="1304" 
d="M545 -20q-197 0 -324 127t-127 319q0 110 43 215.5t117 187t182.5 131.5t231.5 50q170 0 292 -92t154 -244l160 760h49l-303 -1434h-49l47 227q-79 -116 -202.5 -181.5t-270.5 -65.5zM143 430q0 -174 113.5 -289.5t292.5 -115.5q149 0 271.5 74t190.5 197t68 267
q0 180 -112.5 291t-298.5 111q-144 0 -265.5 -75.5t-190.5 -198.5t-69 -261z" />
    <glyph glyph-name="e" unicode="e" horiz-adv-x="1148" 
d="M520 -20q-203 0 -314.5 118t-111.5 305q0 126 47.5 239.5t126.5 193.5t185.5 127t220.5 47q210 0 322 -135t71 -336l-4 -15h-909q-13 -63 -13 -121q0 -169 103.5 -273.5t275.5 -104.5q91 0 176 31t154 93.5t104 147.5h54q-63 -155 -195.5 -236t-292.5 -81zM166 569h858
q26 169 -74.5 282.5t-275.5 113.5q-167 0 -310.5 -111.5t-197.5 -284.5z" />
    <glyph glyph-name="f" unicode="f" horiz-adv-x="555" 
d="M104 944l9 45h221l39 176q55 269 321 269h45l-8 -45h-45q-109 0 -173.5 -54.5t-90.5 -169.5l-39 -176h262l-8 -45h-262l-201 -944h-49l201 944h-222z" />
    <glyph glyph-name="g" unicode="g" horiz-adv-x="1292" 
d="M344 -385q-87 0 -152.5 17.5t-111 54t-62 96.5t-0.5 141l9 41h49l-10 -51q-27 -129 48.5 -191.5t229.5 -62.5h213q176 0 271 79t133 261l53 250q-74 -115 -193 -177.5t-266 -62.5q-198 0 -326.5 122t-128.5 306q0 143 70 273.5t200.5 214.5t288.5 84q183 0 300.5 -90.5
t142.5 -249.5l67 319h50l-209 -989q-44 -208 -151 -296.5t-302 -88.5h-213zM150 438q0 -166 113 -274.5t290 -108.5q121 0 222 45.5t164.5 120.5t98.5 168t35 191q0 171 -113.5 278t-297.5 107q-116 0 -215 -47.5t-162.5 -123.5t-99 -169t-35.5 -187z" />
    <glyph glyph-name="h" unicode="h" horiz-adv-x="1153" 
d="M78 0l303 1434h49l-137 -650q69 108 176.5 167t235.5 59q179 0 262 -116t41 -314l-123 -580h-49l122 580q38 183 -31.5 284t-236.5 101q-159 0 -280.5 -105.5t-159.5 -281.5l-123 -578h-49z" />
    <glyph glyph-name="i" unicode="i" horiz-adv-x="413" 
d="M287 989h51l-209 -989h-51zM334 1262l35 172h75l-34 -172h-76z" />
    <glyph glyph-name="j" unicode="j" horiz-adv-x="411" 
d="M-121 -342q55 0 98 37.5t58 103.5l252 1190h49l-252 -1190q-18 -86 -76.5 -135t-136.5 -49h-88l8 43h88zM332 1262l35 172h75l-34 -172h-76z" />
    <glyph glyph-name="k" unicode="k" horiz-adv-x="849" 
d="M78 0l303 1434h51l-188 -891l592 446h84l-635 -473l438 -516h-64l-423 502l-107 -502h-51z" />
    <glyph glyph-name="l" unicode="l" horiz-adv-x="411" 
d="M430 1434l-303 -1434h-49l303 1434h49z" />
    <glyph glyph-name="m" unicode="m" horiz-adv-x="1853" 
d="M78 0l209 989h49l-43 -207q66 112 164.5 170t199.5 58q155 0 238 -75.5t88 -213.5q41 93 111 160t145.5 98t151.5 31q193 0 276.5 -114.5t40.5 -317.5l-123 -578h-49l123 578q37 180 -32.5 283.5t-235.5 103.5q-57 0 -117 -21.5t-119.5 -64.5t-107 -121t-68.5 -180
l-123 -578h-49l123 578q37 181 -35.5 284t-237.5 103q-57 0 -115.5 -20t-117 -62.5t-105.5 -121.5t-69 -183l-123 -578h-49z" />
    <glyph glyph-name="n" unicode="n" horiz-adv-x="1153" 
d="M78 0l209 989h49l-45 -215q70 110 179 173t235 63q178 0 261 -116t42 -314l-123 -580h-49l122 580q38 183 -31.5 284t-236.5 101q-159 0 -280.5 -105.5t-159.5 -281.5l-123 -578h-49z" />
    <glyph glyph-name="o" unicode="o" horiz-adv-x="1212" 
d="M532 -20q-188 0 -313 128t-125 318q0 149 78 283.5t214 217.5t294 83q189 0 314.5 -129.5t125.5 -319.5q0 -111 -47 -217.5t-125.5 -186.5t-188 -128.5t-227.5 -48.5zM143 424q0 -173 111 -286t285 -113q140 0 263 74.5t196 199t73 264.5q0 171 -112.5 286.5
t-284.5 115.5q-142 0 -265.5 -76.5t-194.5 -201t-71 -263.5z" />
    <glyph glyph-name="p" unicode="p" horiz-adv-x="1306" 
d="M-4 -385l291 1374h47l-47 -227q80 117 204.5 182.5t270.5 65.5q197 0 323.5 -127.5t126.5 -319.5q0 -110 -42.5 -215.5t-116.5 -187t-182.5 -131t-231.5 -49.5q-170 0 -292 91.5t-154 243.5l-148 -700h-49zM227 426q0 -180 113 -290.5t299 -110.5q108 0 206 44.5
t167 117.5t110 171t41 201q0 174 -113 290t-292 116q-149 0 -271.5 -74.5t-191 -197.5t-68.5 -267z" />
    <glyph glyph-name="q" unicode="q" horiz-adv-x="1302" 
d="M1018 227q-79 -116 -202.5 -181.5t-270.5 -65.5q-197 0 -324 127t-127 319q0 110 43 215.5t117 187t182.5 131.5t231.5 50q170 0 292 -92t154 -244l66 315h49l-291 -1374h-49zM143 430q0 -174 113.5 -289.5t292.5 -115.5q149 0 271.5 74t190.5 197t68 267
q0 180 -112.5 291t-298.5 111q-144 0 -265.5 -75.5t-190.5 -198.5t-69 -261z" />
    <glyph glyph-name="r" unicode="r" horiz-adv-x="643" 
d="M336 989l-35 -164q102 164 297 164h121l-8 -45h-113q-127 0 -215 -79t-119 -220l-137 -645h-49l209 989h49z" />
    <glyph glyph-name="s" unicode="s" horiz-adv-x="884" 
d="M379 -20q-161 0 -255 85.5t-79 219.5h49q-15 -119 65.5 -189.5t219.5 -70.5q129 0 221 73.5t92 196.5q0 59 -29 100t-75 63t-101.5 37.5l-111 31t-101.5 37t-75 62t-29 99.5q0 135 101 210t245 75q143 0 229 -73.5t74 -195.5h-49q6 99 -61.5 161.5t-192.5 62.5
q-43 0 -84 -8t-79.5 -26t-67.5 -44t-46.5 -66.5t-17.5 -89.5q0 -51 29 -85.5t75 -53t101.5 -32t111 -31t101.5 -42.5t75 -73t29 -117q0 -99 -52.5 -172.5t-134 -109t-177.5 -35.5z" />
    <glyph glyph-name="t" unicode="t" horiz-adv-x="626" 
d="M102 944l9 45h211l59 281h49l-59 -281h321l-8 -45h-322l-145 -678q-25 -113 14.5 -167t147.5 -54h113l-9 -45h-104q-269 0 -211 266l145 678h-211z" />
    <glyph glyph-name="u" unicode="u" horiz-adv-x="1153" 
d="M1077 989l-209 -989h-49l45 215q-70 -110 -178.5 -172.5t-234.5 -62.5q-178 0 -261.5 116t-42.5 314l123 579h49l-122 -579q-38 -183 31.5 -284t236.5 -101q159 0 280.5 105.5t159.5 281.5l123 577h49z" />
    <glyph glyph-name="v" unicode="v" horiz-adv-x="985" 
d="M365 0l-220 989h50l202 -928l598 928h58l-641 -989h-47z" />
    <glyph glyph-name="w" unicode="w" horiz-adv-x="1523" 
d="M291 0l-135 989h49l125 -923l512 923h55l113 -921l512 921h55l-553 -989h-53l-113 926l-514 -926h-53z" />
    <glyph glyph-name="x" unicode="x" horiz-adv-x="872" 
d="M680 0l-240 471l-438 -471h-65l479 512l-250 477h53l232 -442l401 442h63l-442 -485l260 -504h-53z" />
    <glyph glyph-name="y" unicode="y" horiz-adv-x="987" 
d="M143 989h50l200 -952l604 952h54l-867 -1374h-51l227 365z" />
    <glyph glyph-name="z" unicode="z" horiz-adv-x="927" 
d="M-53 0l8 45l946 899h-727l8 45h789l-8 -45l-945 -899h752l-8 -45h-815z" />
    <glyph glyph-name="braceleft" unicode="{" horiz-adv-x="663" 
d="M338 -342q-112 0 -167 74.5t-28 204.5l82 389q15 71 -27.5 136.5t-119.5 88.5l6 33q89 22 160.5 92t89.5 158l84 391q23 116 102 184t191 68h123l-11 -43h-114q-91 0 -157 -59t-89 -165l-82 -393q-18 -82 -81.5 -152t-141.5 -98q65 -29 97 -104.5t17 -153.5l-82 -387
q-23 -104 19 -162.5t133 -58.5h115l-11 -43h-108z" />
    <glyph glyph-name="bar" unicode="|" horiz-adv-x="454" 
d="M446 1634h48l-420 -1978h-47z" />
    <glyph glyph-name="braceright" unicode="}" horiz-adv-x="661" 
d="M356 1477q112 0 167 -74.5t28 -204.5l-82 -389q-15 -71 27.5 -136.5t119.5 -88.5l-6 -33q-89 -22 -160.5 -92t-89.5 -158l-84 -391q-23 -116 -101.5 -184t-190.5 -68h-123l10 43h115q91 0 156.5 58.5t88.5 164.5l82 393q18 82 82 152t142 98q-65 29 -97.5 104.5
t-17.5 153.5l82 387q23 104 -19 163t-133 59h-114l10 43h108z" />
    <glyph glyph-name="asciitilde" unicode="~" horiz-adv-x="1269" 
d="M254 516q27 124 92.5 199.5t140.5 75.5q49 0 91.5 -23.5t73.5 -57.5t59.5 -68t62.5 -57.5t70 -23.5q57 0 113.5 63.5t80.5 168.5h49q-26 -121 -96.5 -198t-146.5 -77q-46 0 -86.5 23.5t-71 57.5t-60 68t-65 57.5t-74.5 23.5q-56 0 -108 -62.5t-76 -169.5h-49z" />
    <glyph glyph-name="uni00A0" unicode="&#xa0;" horiz-adv-x="548" 
 />
    <glyph glyph-name="exclamdown" unicode="&#xa1;" horiz-adv-x="425" 
d="M-12 -444l239 1099h39l-225 -1099h-53zM240 877l22 112h113l-23 -112h-112z" />
    <glyph glyph-name="cent" unicode="&#xa2;" horiz-adv-x="1165" 
d="M838 1235l-52 -231q134 -22 225 -106t95 -198h-49q-7 114 -108.5 189.5t-239.5 75.5q-144 0 -267 -69.5t-196.5 -194t-73.5 -275.5q0 -180 108 -290.5t281 -110.5q141 0 254 67.5t168 202.5h53q-39 -105 -113.5 -177t-163 -104.5t-188.5 -33.5l-49 -226h-51l49 228
q-177 14 -287 132t-110 306q0 160 75.5 295.5t210 215t298.5 79.5h30l49 225h52z" />
    <glyph glyph-name="sterling" unicode="&#xa3;" horiz-adv-x="1112" 
d="M154 711l10 43h170l67 319q36 166 160.5 273.5t286.5 107.5q158 0 241 -94.5t56 -237.5h-49q23 134 -45.5 209.5t-204.5 75.5q-142 0 -255 -99.5t-145 -254.5l-63 -299h512l-10 -43h-510l-66 -305q-30 -138 -88 -219t-162 -142h887l-8 -45h-954l10 47q120 73 180 158
t90 221l60 285h-170z" />
    <glyph glyph-name="currency" unicode="&#xa4;" horiz-adv-x="1478" 
d="M1278 709q-9 -195 -145 -328l208 -219l-34 -33l-207 219q-142 -129 -336 -129q-191 0 -326 129l-233 -219l-29 31l232 221q-120 139 -111 328q9 192 145 331l-211 220l35 34l211 -221q145 129 338 129q192 0 324 -129l231 219l29 -32l-232 -218q120 -139 111 -333z
M338 709q-6 -121 49.5 -224t156 -163t222.5 -60q186 0 323 130.5t148 316.5q9 189 -114.5 320.5t-309.5 131.5t-326 -132.5t-149 -319.5z" />
    <glyph glyph-name="yen" unicode="&#xa5;" horiz-adv-x="1060" 
d="M289 1434h55l234 -715l530 715h55l-477 -637h311l-10 -45h-334l-63 -84l-35 -164h381l-10 -45h-381l-96 -459h-50l97 459h-383l10 45h383l35 164l-27 84h-340l10 45h314z" />
    <glyph glyph-name="brokenbar" unicode="&#xa6;" horiz-adv-x="454" 
d="M307 981l139 653h48l-140 -653h-47zM27 -344l139 655h47l-139 -655h-47z" />
    <glyph glyph-name="section" unicode="&#xa7;" horiz-adv-x="1064" 
d="M403 -406q-178 0 -271 109.5t-58 276.5h49q-27 -145 46.5 -242.5t231.5 -97.5q152 0 249.5 91t97.5 244q0 91 -42 153t-124 83l-209 53q-123 31 -186.5 100.5t-63.5 172.5q0 108 65 199.5t158 135.5q-65 71 -65 189q0 167 115.5 280t283.5 113q186 0 275.5 -103.5
t48.5 -281.5h-50q58 340 -276 340q-65 0 -126.5 -23.5t-111 -66t-80 -109.5t-30.5 -147q0 -185 176 -229l209 -54q237 -59 237 -268q0 -112 -63 -202t-156 -134q62 -71 62 -190q0 -94 -31 -169.5t-85 -123.5t-124.5 -73.5t-151.5 -25.5zM172 539q0 -174 215 -230l207 -53
q64 -16 106 -49q82 36 143.5 123t61.5 184q0 168 -203 221l-208 53q-66 18 -115 54q-83 -37 -145 -121t-62 -182z" />
    <glyph glyph-name="dieresis" unicode="&#xa8;" horiz-adv-x="815" 
d="M684 1253h88l-20 -90h-88zM346 1163l21 90h88l-21 -90h-88z" />
    <glyph glyph-name="copyright" unicode="&#xa9;" horiz-adv-x="1732" 
d="M877 -20q-193 0 -354.5 93.5t-254 254t-92.5 352.5q0 154 63 297.5t167.5 247.5t247.5 166.5t296 62.5q194 0 355.5 -93.5t253.5 -254t92 -352.5q0 -154 -62.5 -297.5t-167 -247.5t-247.5 -166.5t-297 -62.5zM225 682q0 -180 86 -331t236 -238.5t330 -87.5
q144 0 278 58.5t232 156.5t156.5 233t58.5 281q0 180 -86 330.5t-236 237.5t-330 87q-143 0 -277 -58t-232 -155.5t-157 -232t-59 -281.5zM510 651q0 129 62 238.5t167.5 173t227.5 63.5q128 0 213.5 -71t97.5 -189h-49q-9 100 -84.5 158.5t-181.5 58.5q-164 0 -285 -129.5
t-121 -304.5q0 -130 78 -211.5t203 -81.5q221 0 331 226h50q-124 -269 -383 -269q-145 0 -235.5 93.5t-90.5 244.5z" />
    <glyph glyph-name="ordfeminine" unicode="&#xaa;" horiz-adv-x="899" 
d="M420 645q-100 0 -162.5 52.5t-62.5 133.5q0 89 57.5 153t149 94t204.5 30h221l9 43q12 49 6 96t-25.5 84t-67.5 59.5t-120 22.5q-110 0 -195 -62t-104 -157h-49q20 109 120.5 184.5t227.5 75.5q143 0 212.5 -84.5t41.5 -216.5l-103 -489h-47l39 180q-60 -91 -152.5 -145
t-199.5 -54zM240 836q0 -65 51.5 -107.5t130.5 -42.5q141 0 247.5 94.5t135.5 227.5l12 61h-211q-100 0 -181 -24t-133 -78t-52 -131z" />
    <glyph glyph-name="guillemotleft" unicode="&#xab;" horiz-adv-x="1179" 
d="M973 66l-447 440l9 35l632 440l-10 -61l-577 -402l403 -405zM121 526l8 35l633 440l-14 -63l-574 -399l406 -408l-13 -45z" />
    <glyph glyph-name="logicalnot" unicode="&#xac;" horiz-adv-x="1269" 
d="M1083 657l-98 -458h-49l88 413h-788l10 45h837z" />
    <glyph glyph-name="uni00AD" unicode="&#xad;" horiz-adv-x="665" 
d="M117 563l10 47h457l-11 -47h-456z" />
    <glyph glyph-name="registered" unicode="&#xae;" horiz-adv-x="976" 
d="M608 719q-152 0 -260 107t-108 259q0 153 107.5 261t260.5 108t261 -108t108 -261q0 -152 -108 -259t-261 -107zM274 1085q0 -137 99 -236t235 -99t235 99t99 236t-99 237.5t-235 100.5t-235 -100t-99 -238zM502 891v393h100q51 0 83 -28.5t32 -71.5q0 -33 -17 -57
t-45 -35q62 -22 62 -93v-108h-35v106q0 36 -22 56t-58 20h-67v-182h-33zM535 1102h63q38 0 61 22t23 56q0 32 -23 51.5t-61 19.5h-63v-149z" />
    <glyph glyph-name="macron" unicode="&#xaf;" horiz-adv-x="989" 
d="M344 1149l10 45h580l-10 -45h-580z" />
    <glyph glyph-name="degree" unicode="&#xb0;" horiz-adv-x="854" 
d="M545 840q-126 0 -209.5 82t-83.5 206q0 136 95.5 231t230.5 95q123 0 205.5 -83.5t82.5 -207.5q0 -136 -94 -229.5t-227 -93.5zM297 1130q0 -106 71.5 -176.5t178.5 -70.5q114 0 193 81t79 199q0 106 -70 177t-174 71q-116 0 -197 -81.5t-81 -199.5z" />
    <glyph glyph-name="plusminus" unicode="&#xb1;" horiz-adv-x="1269" 
d="M276 776l11 45h393l84 400h49l-84 -400h395l-10 -45h-395l-84 -399h-49l84 399h-394zM152 182l8 45h837l-8 -45h-837z" />
    <glyph glyph-name="acute" unicode="&#xb4;" horiz-adv-x="690" 
d="M676 1362l-283 -266h-61l276 266h68z" />
    <glyph glyph-name="uni00B5" unicode="&#xb5;" horiz-adv-x="1179" 
d="M0 -385l291 1374h49l-127 -596q-32 -175 39 -271.5t233 -96.5q159 0 281 105.5t160 281.5l123 577h49l-209 -989h-49l45 215q-70 -110 -179 -172.5t-235 -62.5q-118 0 -195.5 52.5t-105.5 149.5l-121 -567h-49z" />
    <glyph glyph-name="paragraph" unicode="&#xb6;" horiz-adv-x="1075" 
d="M270 -385l226 1061q-169 4 -253.5 89t-84.5 216q0 204 143 328.5t369 124.5h532l-8 -45h-164l-377 -1774h-49l377 1774h-285l-377 -1774h-49z" />
    <glyph glyph-name="periodcentered" unicode="&#xb7;" horiz-adv-x="415" 
d="M207 774h112l-20 -100h-113z" />
    <glyph glyph-name="cedilla" unicode="&#xb8;" horiz-adv-x="663" 
d="M215 18l-4 -18l-92 -162h41q58 0 92.5 -35t34.5 -94q0 -80 -55 -129t-138 -49h-94l10 45h94q56 0 97 38t41 93q0 39 -25 62.5t-67 23.5h-91l9 39l104 186h43z" />
    <glyph glyph-name="ordmasculine" unicode="&#xba;" horiz-adv-x="1001" 
d="M678 1454q152 0 247 -94t95 -238q0 -120 -62 -230t-171 -178.5t-234 -68.5q-152 0 -247 93.5t-95 238.5q0 118 63 228t172 179.5t232 69.5zM258 979q0 -127 81 -208t212 -81q111 0 209 60.5t155.5 160t57.5 209.5q0 125 -82.5 207t-210.5 82q-111 0 -209.5 -61.5
t-155.5 -161t-57 -207.5z" />
    <glyph glyph-name="guillemotright" unicode="&#xbb;" horiz-adv-x="1181" 
d="M225 1001l447 -440l-8 -35l-633 -440l10 61l577 402l-403 405zM436 66l15 63l573 399l-406 408l13 45l446 -440l-8 -35z" />
    <glyph glyph-name="onequarter" unicode="&#xbc;" horiz-adv-x="1331" 
d="M467 1434l-182 -859h-47l145 680h-129l8 43h78q24 0 43 14t25 42l16 80h43zM25 0l1245 1434h53l-1245 -1434h-53zM633 213l10 41l434 606h56l-435 -606h349l53 252h47l-53 -252h141l-10 -41h-142l-45 -213h-47l45 213h-403z" />
    <glyph glyph-name="onehalf" unicode="&#xbd;" horiz-adv-x="1456" 
d="M471 1434l-182 -859h-47l145 680h-129l8 43h78q24 0 43 14t25 42l16 80h43zM29 0l1245 1434h53l-1245 -1434h-53zM717 0l8 39l428 371q39 34 54.5 47.5t45 45t42 53.5t23.5 55t11 67q0 71 -50 111t-136 40q-88 0 -154 -61.5t-86 -163.5h-47q25 127 102 197.5t191 70.5
q101 0 164 -52t63 -140q0 -47 -13.5 -88t-43 -78.5t-56 -63.5t-71.5 -65l-393 -342h463l-11 -43h-534z" />
    <glyph glyph-name="threequarters" unicode="&#xbe;" horiz-adv-x="1562" 
d="M393 563q-122 0 -193.5 75t-49.5 181h47q-18 -92 38.5 -152.5t153.5 -60.5q117 0 190.5 72t73.5 170q0 71 -51.5 109t-144.5 38h-37l8 41h37q108 0 185 62.5t77 161.5q0 69 -47 107t-133 38q-82 0 -153 -52.5t-93 -146.5h-47q24 114 110 178t193 64q102 0 159.5 -49.5
t57.5 -134.5q0 -96 -63.5 -165t-153.5 -83q69 -13 105 -56.5t36 -109.5q0 -52 -19.5 -102t-56 -92t-96.5 -67.5t-133 -25.5zM256 0l1245 1434h53l-1245 -1434h-53zM864 213l10 41l435 606h55l-434 -606h348l53 252h47l-53 -252h141l-10 -41h-141l-45 -213h-47l45 213h-404z
" />
    <glyph glyph-name="questiondown" unicode="&#xbf;" horiz-adv-x="901" 
d="M285 -465q-149 0 -242.5 84.5t-93.5 228.5q0 84 27 154.5t71.5 122t99.5 97t113.5 90.5t110 92t93 111.5t58.5 139.5h45q-17 -82 -58 -151t-92.5 -117.5t-109.5 -93t-112.5 -88.5t-98.5 -92.5t-71 -115t-27 -147.5q0 -125 80 -197.5t209 -72.5q147 0 259 108t142 265h47
q-36 -183 -159 -300.5t-291 -117.5zM524 877l23 112h112l-22 -112h-113z" />
    <glyph glyph-name="Agrave" unicode="&#xc0;" horiz-adv-x="1120" 
d="M-61 0l798 1434h56l186 -1434h-51l-56 428h-641l-237 -428h-55zM258 475h610l-114 895zM596 1755h55l166 -239h-53z" />
    <glyph glyph-name="Aacute" unicode="&#xc1;" horiz-adv-x="1120" 
d="M-61 0l798 1434h56l186 -1434h-51l-56 428h-641l-237 -428h-55zM258 475h610l-114 895zM739 1516l267 239h69l-268 -239h-68z" />
    <glyph glyph-name="Acircumflex" unicode="&#xc2;" horiz-adv-x="1120" 
d="M-61 0l798 1434h56l186 -1434h-51l-56 428h-641l-237 -428h-55zM258 475h610l-114 895zM475 1516l334 233h41l233 -233h-59l-197 194l-282 -194h-70z" />
    <glyph glyph-name="Atilde" unicode="&#xc3;" horiz-adv-x="1120" 
d="M-61 0l798 1434h56l186 -1434h-51l-56 428h-641l-237 -428h-55zM258 475h610l-114 895zM471 1518q26 104 78 154t110 50q38 0 80.5 -25.5t74 -56t68 -56t64.5 -25.5q45 0 81.5 39t57.5 120h48q-24 -101 -77 -151.5t-110 -50.5q-39 0 -81 25.5t-72 56t-67 56t-67 25.5
q-45 0 -83 -40t-60 -121h-45z" />
    <glyph glyph-name="Adieresis" unicode="&#xc4;" horiz-adv-x="1120" 
d="M-61 0l798 1434h56l186 -1434h-51l-56 428h-641l-237 -428h-55zM258 475h610l-114 895zM543 1526l18 90h88l-18 -90h-88zM934 1526l18 90h88l-18 -90h-88z" />
    <glyph glyph-name="Aring" unicode="&#xc5;" horiz-adv-x="1120" 
d="M-61 0l798 1434h56l186 -1434h-51l-56 428h-641l-237 -428h-55zM258 475h610l-114 895zM594 1694q9 87 78 143.5t164 56.5q97 0 155 -56.5t49 -143.5t-76.5 -145t-160.5 -58q-99 0 -158.5 57.5t-50.5 145.5zM643 1694q-7 -69 38 -114.5t122 -45.5q74 0 127.5 45.5
t60.5 114.5q7 67 -37 111t-118 44q-77 0 -131.5 -44t-61.5 -111z" />
    <glyph glyph-name="AE" unicode="&#xc6;" horiz-adv-x="1476" 
d="M-115 0l1035 1434h661l-8 -45h-578l-125 -582h502l-8 -45h-502l-153 -717h577l-8 -45h-627l90 430h-489l-309 -430h-58zM285 475h467l192 914z" />
    <glyph glyph-name="Ccedilla" unicode="&#xc7;" horiz-adv-x="1519" 
d="M152 590q0 175 67 335t179 275.5t265.5 184.5t319.5 69q226 0 382.5 -128.5t168.5 -330.5h-49q-15 182 -160.5 298t-343.5 116q-162 0 -308.5 -69t-249 -182t-162.5 -262t-60 -306q0 -251 151.5 -408t390.5 -157q203 0 369.5 103.5t251.5 291.5h53q-95 -211 -267 -323
t-392 -117l-80 -142h41q58 0 92.5 -35t34.5 -94q0 -80 -55 -129t-138 -49h-94l10 45h95q56 0 96.5 38t40.5 93q0 39 -25 62.5t-67 23.5h-91l9 39l84 148q-249 12 -404 179.5t-155 430.5z" />
    <glyph glyph-name="Egrave" unicode="&#xc8;" horiz-adv-x="923" 
d="M401 1434h627l-8 -45h-578l-125 -582h502l-8 -45h-502l-153 -717h577l-8 -45h-627zM551 1755h55l166 -239h-53z" />
    <glyph glyph-name="Eacute" unicode="&#xc9;" horiz-adv-x="923" 
d="M401 1434h627l-8 -45h-578l-125 -582h502l-8 -45h-502l-153 -717h577l-8 -45h-627zM694 1516l267 239h69l-268 -239h-68z" />
    <glyph glyph-name="Ecircumflex" unicode="&#xca;" horiz-adv-x="923" 
d="M401 1434h627l-8 -45h-578l-125 -582h502l-8 -45h-502l-153 -717h577l-8 -45h-627zM430 1516l334 233h41l233 -233h-59l-197 194l-282 -194h-70z" />
    <glyph glyph-name="Edieresis" unicode="&#xcb;" horiz-adv-x="923" 
d="M401 1434h627l-8 -45h-578l-125 -582h502l-8 -45h-502l-153 -717h577l-8 -45h-627zM498 1526l18 90h88l-18 -90h-88zM889 1526l18 90h88l-18 -90h-88z" />
    <glyph glyph-name="Igrave" unicode="&#xcc;" horiz-adv-x="452" 
d="M401 1434h50l-304 -1434h-49zM260 1755h55l166 -239h-53z" />
    <glyph glyph-name="Iacute" unicode="&#xcd;" horiz-adv-x="452" 
d="M401 1434h50l-304 -1434h-49zM403 1516l267 239h69l-268 -239h-68z" />
    <glyph glyph-name="Icircumflex" unicode="&#xce;" horiz-adv-x="452" 
d="M401 1434h50l-304 -1434h-49zM139 1516l334 233h41l234 -233h-60l-196 194l-283 -194h-70z" />
    <glyph glyph-name="Idieresis" unicode="&#xcf;" horiz-adv-x="452" 
d="M401 1434h50l-304 -1434h-49zM207 1526l18 90h88l-18 -90h-88zM598 1526l18 90h89l-19 -90h-88z" />
    <glyph glyph-name="Eth" unicode="&#xd0;" horiz-adv-x="1449" 
d="M113 684l8 43h164l149 707h402q262 0 411.5 -147.5t149.5 -395.5q0 -78 -12 -158.5t-40.5 -169t-72 -168.5t-111.5 -153t-153 -126t-203 -84.5t-256 -31.5h-418l145 684h-163zM190 45h361q129 0 240 29.5t191 79.5t144 118.5t105 144t68 160t38 161.5t11 153
q0 227 -135.5 362.5t-374.5 135.5h-363l-139 -662h348l-8 -43h-350z" />
    <glyph glyph-name="Ntilde" unicode="&#xd1;" horiz-adv-x="1224" 
d="M827 291q20 -60 36.5 -116.5t22.5 -82.5l7 -26q10 90 39 231l239 1137h52l-303 -1434h-48l-378 1139q-20 60 -36.5 116.5t-23.5 82.5l-6 26q-10 -90 -39 -231l-242 -1133h-49l303 1434h45zM522 1518q26 104 78.5 154t110.5 50q38 0 80.5 -25.5t73.5 -56t67.5 -56
t64.5 -25.5q45 0 82 39t58 120h47q-24 -101 -77 -151.5t-110 -50.5q-39 0 -81 25.5t-71.5 56t-66.5 56t-67 25.5q-45 0 -83.5 -40t-60.5 -121h-45z" />
    <glyph glyph-name="Ograve" unicode="&#xd2;" horiz-adv-x="1654" 
d="M772 -20q-133 0 -248 48.5t-196 133t-127.5 202t-46.5 250.5q0 161 64.5 314t173.5 269t263.5 186.5t325.5 70.5q176 0 318 -82t221 -224.5t79 -316.5q0 -161 -63.5 -315.5t-172 -273t-264 -190.5t-327.5 -72zM203 614q0 -168 72.5 -302.5t204 -210.5t298.5 -76
q206 0 385 112.5t283 298t104 393.5q0 252 -161 416t-414 164q-155 0 -298 -65.5t-246.5 -173.5t-165.5 -254t-62 -302zM811 1755h55l166 -239h-53z" />
    <glyph glyph-name="Oacute" unicode="&#xd3;" horiz-adv-x="1654" 
d="M772 -20q-133 0 -248 48.5t-196 133t-127.5 202t-46.5 250.5q0 161 64.5 314t173.5 269t263.5 186.5t325.5 70.5q176 0 318 -82t221 -224.5t79 -316.5q0 -161 -63.5 -315.5t-172 -273t-264 -190.5t-327.5 -72zM203 614q0 -168 72.5 -302.5t204 -210.5t298.5 -76
q206 0 385 112.5t283 298t104 393.5q0 252 -161 416t-414 164q-155 0 -298 -65.5t-246.5 -173.5t-165.5 -254t-62 -302zM954 1516l267 239h69l-268 -239h-68z" />
    <glyph glyph-name="Ocircumflex" unicode="&#xd4;" horiz-adv-x="1654" 
d="M772 -20q-133 0 -248 48.5t-196 133t-127.5 202t-46.5 250.5q0 161 64.5 314t173.5 269t263.5 186.5t325.5 70.5q176 0 318 -82t221 -224.5t79 -316.5q0 -161 -63.5 -315.5t-172 -273t-264 -190.5t-327.5 -72zM203 614q0 -168 72.5 -302.5t204 -210.5t298.5 -76
q206 0 385 112.5t283 298t104 393.5q0 252 -161 416t-414 164q-155 0 -298 -65.5t-246.5 -173.5t-165.5 -254t-62 -302zM690 1516l334 233h41l233 -233h-59l-197 194l-282 -194h-70z" />
    <glyph glyph-name="Otilde" unicode="&#xd5;" horiz-adv-x="1654" 
d="M772 -20q-133 0 -248 48.5t-196 133t-127.5 202t-46.5 250.5q0 161 64.5 314t173.5 269t263.5 186.5t325.5 70.5q176 0 318 -82t221 -224.5t79 -316.5q0 -161 -63.5 -315.5t-172 -273t-264 -190.5t-327.5 -72zM203 614q0 -168 72.5 -302.5t204 -210.5t298.5 -76
q206 0 385 112.5t283 298t104 393.5q0 252 -161 416t-414 164q-155 0 -298 -65.5t-246.5 -173.5t-165.5 -254t-62 -302zM686 1518q26 104 78 154t110 50q38 0 80.5 -25.5t74 -56t68 -56t64.5 -25.5q45 0 81.5 39t57.5 120h48q-24 -101 -77 -151.5t-110 -50.5q-39 0 -81 25.5
t-72 56t-67 56t-67 25.5q-45 0 -83 -40t-60 -121h-45z" />
    <glyph glyph-name="Odieresis" unicode="&#xd6;" horiz-adv-x="1654" 
d="M772 -20q-133 0 -248 48.5t-196 133t-127.5 202t-46.5 250.5q0 161 64.5 314t173.5 269t263.5 186.5t325.5 70.5q176 0 318 -82t221 -224.5t79 -316.5q0 -161 -63.5 -315.5t-172 -273t-264 -190.5t-327.5 -72zM203 614q0 -168 72.5 -302.5t204 -210.5t298.5 -76
q206 0 385 112.5t283 298t104 393.5q0 252 -161 416t-414 164q-155 0 -298 -65.5t-246.5 -173.5t-165.5 -254t-62 -302zM758 1526l18 90h88l-18 -90h-88zM1149 1526l18 90h88l-18 -90h-88z" />
    <glyph glyph-name="multiply" unicode="&#xd7;" horiz-adv-x="1269" 
d="M305 324l-29 34l361 297l-229 295l34 27l230 -295l360 297l29 -35l-363 -297l232 -297l-35 -26l-229 294z" />
    <glyph glyph-name="Oslash" unicode="&#xd8;" horiz-adv-x="1654" 
d="M74 -86l-33 35l256 248q-143 176 -143 417q0 161 64.5 314t173.5 269t263.5 186.5t325.5 70.5q133 0 247 -47t197 -133l234 225l35 -33l-238 -225q143 -173 143 -410q0 -161 -63.5 -315.5t-172 -273t-264 -190.5t-327.5 -72q-268 0 -444 182zM203 614q0 -227 129 -387
l1061 1014q-165 168 -418 168q-155 0 -298 -65.5t-246.5 -173.5t-165.5 -254t-62 -302zM362 193q76 -80 183.5 -124t232.5 -44q206 0 385 112.5t283 298t104 393.5q0 225 -129 379z" />
    <glyph glyph-name="Ugrave" unicode="&#xd9;" horiz-adv-x="1198" 
d="M510 -20q-184 0 -279 125t-53 325l213 1004h51l-219 -1024q-36 -169 45.5 -277t241.5 -108q170 0 282.5 109t151.5 296l213 1004h51l-213 -1004q-44 -210 -169.5 -330t-315.5 -120zM629 1755h55l166 -239h-53z" />
    <glyph glyph-name="Uacute" unicode="&#xda;" horiz-adv-x="1198" 
d="M510 -20q-184 0 -279 125t-53 325l213 1004h51l-219 -1024q-36 -169 45.5 -277t241.5 -108q170 0 282.5 109t151.5 296l213 1004h51l-213 -1004q-44 -210 -169.5 -330t-315.5 -120zM772 1516l266 239h70l-268 -239h-68z" />
    <glyph glyph-name="Ucircumflex" unicode="&#xdb;" horiz-adv-x="1198" 
d="M510 -20q-184 0 -279 125t-53 325l213 1004h51l-219 -1024q-36 -169 45.5 -277t241.5 -108q170 0 282.5 109t151.5 296l213 1004h51l-213 -1004q-44 -210 -169.5 -330t-315.5 -120zM508 1516l334 233h41l233 -233h-59l-197 194l-282 -194h-70z" />
    <glyph glyph-name="Udieresis" unicode="&#xdc;" horiz-adv-x="1198" 
d="M510 -20q-184 0 -279 125t-53 325l213 1004h51l-219 -1024q-36 -169 45.5 -277t241.5 -108q170 0 282.5 109t151.5 296l213 1004h51l-213 -1004q-44 -210 -169.5 -330t-315.5 -120zM575 1526l19 90h88l-18 -90h-89zM967 1526l18 90h88l-18 -90h-88z" />
    <glyph glyph-name="Yacute" unicode="&#xdd;" horiz-adv-x="983" 
d="M252 1434h51l234 -715l528 715h61l-571 -766l-141 -668h-52l142 668zM668 1516l266 239h70l-269 -239h-67z" />
    <glyph glyph-name="Thorn" unicode="&#xde;" horiz-adv-x="1009" 
d="M401 1434h50l-74 -353h254q158 0 249 -77t91 -213q0 -124 -65 -220.5t-172 -147t-236 -50.5h-273l-78 -373h-49zM236 418h262q116 0 212 45t154 131.5t58 198.5q0 114 -77 178.5t-216 64.5h-262z" />
    <glyph glyph-name="germandbls" unicode="&#xdf;" horiz-adv-x="1196" 
d="M297 1038q42 199 180 307.5t332 108.5q175 0 272 -117t62 -286q-27 -121 -131 -210t-234 -96q165 -5 246 -114t43 -291q-14 -67 -52.5 -127t-97 -108t-143 -76.5t-182.5 -28.5h-305l8 45h299q174 0 287 91.5t141 223.5q34 165 -51.5 264t-272.5 99h-258l9 43h258
q136 0 249.5 88t141.5 211q31 141 -53 242.5t-238 101.5q-171 0 -299 -100t-164 -271l-221 -1038h-47z" />
    <glyph glyph-name="agrave" unicode="&#xe0;" horiz-adv-x="1079" 
d="M385 -20q-145 0 -232 68t-87 181q0 87 41 153t113.5 106.5t166.5 60.5t207 20h287l10 47q11 56 12.5 107t-16.5 95.5t-50.5 77t-89.5 51t-133 18.5q-140 0 -249.5 -80t-135.5 -203h-53q29 141 153.5 234.5t284.5 93.5q85 0 150 -21.5t103.5 -58.5t61 -87t22.5 -107.5
t-11 -119.5l-131 -616h-49l49 236q-75 -115 -189 -185.5t-235 -70.5zM117 231q0 -93 73.5 -149.5t194.5 -56.5q161 0 296 121.5t171 289.5l18 88h-276q-94 0 -175.5 -15.5t-151.5 -48t-110 -91t-40 -138.5zM487 1364h54l141 -268h-49z" />
    <glyph glyph-name="aacute" unicode="&#xe1;" horiz-adv-x="1079" 
d="M385 -20q-145 0 -232 68t-87 181q0 87 41 153t113.5 106.5t166.5 60.5t207 20h287l10 47q11 56 12.5 107t-16.5 95.5t-50.5 77t-89.5 51t-133 18.5q-140 0 -249.5 -80t-135.5 -203h-53q29 141 153.5 234.5t284.5 93.5q85 0 150 -21.5t103.5 -58.5t61 -87t22.5 -107.5
t-11 -119.5l-131 -616h-49l49 236q-75 -115 -189 -185.5t-235 -70.5zM117 231q0 -93 73.5 -149.5t194.5 -56.5q161 0 296 121.5t171 289.5l18 88h-276q-94 0 -175.5 -15.5t-151.5 -48t-110 -91t-40 -138.5zM621 1096l276 266h68l-283 -266h-61z" />
    <glyph glyph-name="acircumflex" unicode="&#xe2;" horiz-adv-x="1079" 
d="M385 -20q-145 0 -232 68t-87 181q0 87 41 153t113.5 106.5t166.5 60.5t207 20h287l10 47q11 56 12.5 107t-16.5 95.5t-50.5 77t-89.5 51t-133 18.5q-140 0 -249.5 -80t-135.5 -203h-53q29 141 153.5 234.5t284.5 93.5q85 0 150 -21.5t103.5 -58.5t61 -87t22.5 -107.5
t-11 -119.5l-131 -616h-49l49 236q-75 -115 -189 -185.5t-235 -70.5zM117 231q0 -93 73.5 -149.5t194.5 -56.5q161 0 296 121.5t171 289.5l18 88h-276q-94 0 -175.5 -15.5t-151.5 -48t-110 -91t-40 -138.5zM403 1096l293 266h52l176 -266h-47l-158 227l-254 -227h-62z" />
    <glyph glyph-name="atilde" unicode="&#xe3;" horiz-adv-x="1079" 
d="M385 -20q-145 0 -232 68t-87 181q0 87 41 153t113.5 106.5t166.5 60.5t207 20h287l10 47q11 56 12.5 107t-16.5 95.5t-50.5 77t-89.5 51t-133 18.5q-140 0 -249.5 -80t-135.5 -203h-53q29 141 153.5 234.5t284.5 93.5q85 0 150 -21.5t103.5 -58.5t61 -87t22.5 -107.5
t-11 -119.5l-131 -616h-49l49 236q-75 -115 -189 -185.5t-235 -70.5zM117 231q0 -93 73.5 -149.5t194.5 -56.5q161 0 296 121.5t171 289.5l18 88h-276q-94 0 -175.5 -15.5t-151.5 -48t-110 -91t-40 -138.5zM379 1126q49 246 199 246q39 0 68 -21t46.5 -50.5t33.5 -59.5
t40 -51t57 -21q45 0 83 51t59 150h47q-28 -126 -78.5 -187t-110.5 -61q-44 0 -76.5 21t-50.5 51t-33.5 60.5t-36.5 51.5t-48 21q-109 0 -152 -201h-47z" />
    <glyph glyph-name="adieresis" unicode="&#xe4;" horiz-adv-x="1079" 
d="M385 -20q-145 0 -232 68t-87 181q0 87 41 153t113.5 106.5t166.5 60.5t207 20h287l10 47q11 56 12.5 107t-16.5 95.5t-50.5 77t-89.5 51t-133 18.5q-140 0 -249.5 -80t-135.5 -203h-53q29 141 153.5 234.5t284.5 93.5q85 0 150 -21.5t103.5 -58.5t61 -87t22.5 -107.5
t-11 -119.5l-131 -616h-49l49 236q-75 -115 -189 -185.5t-235 -70.5zM117 231q0 -93 73.5 -149.5t194.5 -56.5q161 0 296 121.5t171 289.5l18 88h-276q-94 0 -175.5 -15.5t-151.5 -48t-110 -91t-40 -138.5zM475 1163l21 90h88l-21 -90h-88zM793 1163l20 90h88l-20 -90h-88z
" />
    <glyph glyph-name="aring" unicode="&#xe5;" horiz-adv-x="1079" 
d="M385 -20q-145 0 -232 68t-87 181q0 87 41 153t113.5 106.5t166.5 60.5t207 20h287l10 47q11 56 12.5 107t-16.5 95.5t-50.5 77t-89.5 51t-133 18.5q-140 0 -249.5 -80t-135.5 -203h-53q29 141 153.5 234.5t284.5 93.5q85 0 150 -21.5t103.5 -58.5t61 -87t22.5 -107.5
t-11 -119.5l-131 -616h-49l49 236q-75 -115 -189 -185.5t-235 -70.5zM117 231q0 -93 73.5 -149.5t194.5 -56.5q161 0 296 121.5t171 289.5l18 88h-276q-94 0 -175.5 -15.5t-151.5 -48t-110 -91t-40 -138.5zM434 1270q0 94 71.5 157.5t172.5 63.5q91 0 149 -50.5t58 -129.5
q0 -94 -70.5 -159t-169.5 -65q-92 0 -151.5 51.5t-59.5 131.5zM485 1272q0 -62 44.5 -102t115.5 -40q79 0 135 51.5t56 127.5q0 60 -44.5 98.5t-113.5 38.5q-82 0 -137.5 -49.5t-55.5 -124.5z" />
    <glyph glyph-name="ae" unicode="&#xe6;" horiz-adv-x="1914" 
d="M1286 -20q-191 0 -297 101t-125 259q-62 -154 -197 -257t-282 -103q-145 0 -232 68t-87 181q0 87 41 153t113.5 106.5t166.5 60.5t207 20h287l10 47q11 57 12 108.5t-17 95.5t-50.5 76.5t-89 50.5t-132.5 18q-140 0 -249.5 -80t-135.5 -203h-53q29 141 153.5 234.5
t284.5 93.5q170 0 252.5 -77.5t85.5 -203.5q79 131 210.5 206t277.5 75q180 0 291.5 -102t111.5 -261q0 -73 -12 -123h-911q-13 -63 -13 -121q0 -169 103.5 -273.5t275.5 -104.5q91 0 176 31t154 93.5t104 147.5h54q-63 -155 -195.5 -236t-292.5 -81zM117 231
q0 -93 73.5 -149.5t194.5 -56.5q161 0 297 121.5t170 289.5l18 88h-276q-94 0 -175.5 -15.5t-151.5 -48t-110 -91t-40 -138.5zM932 569h858q25 165 -74 280.5t-276 115.5q-167 0 -310.5 -111.5t-197.5 -284.5z" />
    <glyph glyph-name="ccedilla" unicode="&#xe7;" horiz-adv-x="1128" 
d="M94 420q0 160 75.5 295.5t210 215t298.5 79.5q161 0 277 -89.5t122 -220.5h-49q-7 114 -108.5 189.5t-239.5 75.5q-144 0 -267 -69.5t-196.5 -194t-73.5 -275.5q0 -180 108 -290.5t281 -110.5q141 0 254 67.5t168 202.5h54q-57 -151 -181 -230.5t-274 -84.5l-80 -142h41
q58 0 92.5 -35t34.5 -94q0 -80 -54.5 -129t-137.5 -49h-95l11 45h94q56 0 96.5 38t40.5 93q0 39 -25 62.5t-67 23.5h-90l8 39l84 148q-184 11 -298 130t-114 310z" />
    <glyph glyph-name="egrave" unicode="&#xe8;" horiz-adv-x="1148" 
d="M520 -20q-203 0 -314.5 118t-111.5 305q0 126 47.5 239.5t126.5 193.5t185.5 127t220.5 47q210 0 322 -135t71 -336l-4 -15h-909q-13 -63 -13 -121q0 -169 103.5 -273.5t275.5 -104.5q91 0 176 31t154 93.5t104 147.5h54q-63 -155 -195.5 -236t-292.5 -81zM166 569h858
q26 169 -74.5 282.5t-275.5 113.5q-167 0 -310.5 -111.5t-197.5 -284.5zM520 1364h53l142 -268h-49z" />
    <glyph glyph-name="eacute" unicode="&#xe9;" horiz-adv-x="1148" 
d="M520 -20q-203 0 -314.5 118t-111.5 305q0 126 47.5 239.5t126.5 193.5t185.5 127t220.5 47q210 0 322 -135t71 -336l-4 -15h-909q-13 -63 -13 -121q0 -169 103.5 -273.5t275.5 -104.5q91 0 176 31t154 93.5t104 147.5h54q-63 -155 -195.5 -236t-292.5 -81zM166 569h858
q26 169 -74.5 282.5t-275.5 113.5q-167 0 -310.5 -111.5t-197.5 -284.5zM653 1096l277 266h67l-282 -266h-62z" />
    <glyph glyph-name="ecircumflex" unicode="&#xea;" horiz-adv-x="1148" 
d="M520 -20q-203 0 -314.5 118t-111.5 305q0 126 47.5 239.5t126.5 193.5t185.5 127t220.5 47q210 0 322 -135t71 -336l-4 -15h-909q-13 -63 -13 -121q0 -169 103.5 -273.5t275.5 -104.5q91 0 176 31t154 93.5t104 147.5h54q-63 -155 -195.5 -236t-292.5 -81zM166 569h858
q26 169 -74.5 282.5t-275.5 113.5q-167 0 -310.5 -111.5t-197.5 -284.5zM436 1096l293 266h51l176 -266h-47l-157 227l-254 -227h-62z" />
    <glyph glyph-name="edieresis" unicode="&#xeb;" horiz-adv-x="1148" 
d="M520 -20q-203 0 -314.5 118t-111.5 305q0 126 47.5 239.5t126.5 193.5t185.5 127t220.5 47q210 0 322 -135t71 -336l-4 -15h-909q-13 -63 -13 -121q0 -169 103.5 -273.5t275.5 -104.5q91 0 176 31t154 93.5t104 147.5h54q-63 -155 -195.5 -236t-292.5 -81zM166 569h858
q26 169 -74.5 282.5t-275.5 113.5q-167 0 -310.5 -111.5t-197.5 -284.5zM508 1163l20 90h88l-20 -90h-88zM825 1163l21 90h88l-21 -90h-88z" />
    <glyph glyph-name="igrave" unicode="&#xec;" horiz-adv-x="413" 
d="M287 989h51l-209 -989h-51zM160 1364h53l141 -268h-49z" />
    <glyph glyph-name="iacute" unicode="&#xed;" horiz-adv-x="413" 
d="M287 989h51l-209 -989h-51zM293 1096l276 266h68l-283 -266h-61z" />
    <glyph glyph-name="icircumflex" unicode="&#xee;" horiz-adv-x="413" 
d="M287 989h51l-209 -989h-51zM76 1096l293 266h51l176 -266h-47l-158 227l-254 -227h-61z" />
    <glyph glyph-name="idieresis" unicode="&#xef;" horiz-adv-x="413" 
d="M287 989h51l-209 -989h-51zM147 1163l21 90h88l-20 -90h-89zM465 1163l20 90h88l-20 -90h-88z" />
    <glyph glyph-name="eth" unicode="&#xf0;" horiz-adv-x="1210" 
d="M549 -20q-206 0 -331.5 118.5t-125.5 311.5q0 119 46.5 229t124 190t183 127.5t218.5 47.5q233 0 362 -160l-147 377l-342 -50l2 48l323 45l-67 170h53l63 -162l222 31l-3 -48l-200 -28l100 -258q27 -71 43 -120t30.5 -122.5t14.5 -140.5q0 -119 -45 -230.5t-121 -194
t-182 -132t-221 -49.5zM141 412q0 -175 109.5 -281t296.5 -106q143 0 264.5 80t189.5 206t68 264q0 167 -111 275t-294 108q-96 0 -190.5 -41.5t-168 -112.5t-119 -174.5t-45.5 -217.5z" />
    <glyph glyph-name="ntilde" unicode="&#xf1;" horiz-adv-x="1153" 
d="M78 0l209 989h49l-45 -215q70 110 179 173t235 63q178 0 261 -116t42 -314l-123 -580h-49l122 580q38 183 -31.5 284t-236.5 101q-159 0 -280.5 -105.5t-159.5 -281.5l-123 -578h-49zM418 1126q49 246 198 246q39 0 68 -21t46.5 -50.5t34 -59.5t40.5 -51t57 -21
q45 0 83 51t59 150h47q-28 -126 -78.5 -187t-110.5 -61q-44 0 -76.5 21t-51 51t-34 60.5t-36.5 51.5t-48 21q-108 0 -151 -201h-47z" />
    <glyph glyph-name="ograve" unicode="&#xf2;" horiz-adv-x="1212" 
d="M532 -20q-188 0 -313 128t-125 318q0 149 78 283.5t214 217.5t294 83q189 0 314.5 -129.5t125.5 -319.5q0 -111 -47 -217.5t-125.5 -186.5t-188 -128.5t-227.5 -48.5zM143 424q0 -173 111 -286t285 -113q140 0 263 74.5t196 199t73 264.5q0 171 -112.5 286.5
t-284.5 115.5q-142 0 -265.5 -76.5t-194.5 -201t-71 -263.5zM559 1364h53l142 -268h-49z" />
    <glyph glyph-name="oacute" unicode="&#xf3;" horiz-adv-x="1212" 
d="M532 -20q-188 0 -313 128t-125 318q0 149 78 283.5t214 217.5t294 83q189 0 314.5 -129.5t125.5 -319.5q0 -111 -47 -217.5t-125.5 -186.5t-188 -128.5t-227.5 -48.5zM143 424q0 -173 111 -286t285 -113q140 0 263 74.5t196 199t73 264.5q0 171 -112.5 286.5
t-284.5 115.5q-142 0 -265.5 -76.5t-194.5 -201t-71 -263.5zM692 1096l277 266h67l-282 -266h-62z" />
    <glyph glyph-name="ocircumflex" unicode="&#xf4;" horiz-adv-x="1212" 
d="M532 -20q-188 0 -313 128t-125 318q0 149 78 283.5t214 217.5t294 83q189 0 314.5 -129.5t125.5 -319.5q0 -111 -47 -217.5t-125.5 -186.5t-188 -128.5t-227.5 -48.5zM143 424q0 -173 111 -286t285 -113q140 0 263 74.5t196 199t73 264.5q0 171 -112.5 286.5
t-284.5 115.5q-142 0 -265.5 -76.5t-194.5 -201t-71 -263.5zM475 1096l293 266h51l176 -266h-47l-157 227l-254 -227h-62z" />
    <glyph glyph-name="otilde" unicode="&#xf5;" horiz-adv-x="1212" 
d="M532 -20q-188 0 -313 128t-125 318q0 149 78 283.5t214 217.5t294 83q189 0 314.5 -129.5t125.5 -319.5q0 -111 -47 -217.5t-125.5 -186.5t-188 -128.5t-227.5 -48.5zM143 424q0 -173 111 -286t285 -113q140 0 263 74.5t196 199t73 264.5q0 171 -112.5 286.5
t-284.5 115.5q-142 0 -265.5 -76.5t-194.5 -201t-71 -263.5zM451 1126q49 246 198 246q39 0 68 -21t46.5 -50.5t34 -59.5t40.5 -51t57 -21q45 0 82.5 51t58.5 150h47q-28 -126 -78 -187t-110 -61q-44 0 -76.5 21t-51 51t-34 60.5t-36.5 51.5t-48 21q-108 0 -151 -201h-47z
" />
    <glyph glyph-name="odieresis" unicode="&#xf6;" horiz-adv-x="1212" 
d="M532 -20q-188 0 -313 128t-125 318q0 149 78 283.5t214 217.5t294 83q189 0 314.5 -129.5t125.5 -319.5q0 -111 -47 -217.5t-125.5 -186.5t-188 -128.5t-227.5 -48.5zM143 424q0 -173 111 -286t285 -113q140 0 263 74.5t196 199t73 264.5q0 171 -112.5 286.5
t-284.5 115.5q-142 0 -265.5 -76.5t-194.5 -201t-71 -263.5zM547 1163l20 90h88l-20 -90h-88zM864 1163l21 90h88l-21 -90h-88z" />
    <glyph glyph-name="divide" unicode="&#xf7;" horiz-adv-x="1269" 
d="M696 1020h113l-23 -100h-112zM262 625l10 45h801l-10 -45h-801zM537 272l20 101h113l-21 -101h-112z" />
    <glyph glyph-name="oslash" unicode="&#xf8;" horiz-adv-x="1212" 
d="M78 -47l-35 31l154 149q-103 122 -103 293q0 149 78 283.5t214 217.5t294 83q181 0 301 -117l147 143l35 -32l-149 -144q106 -125 106 -299q0 -111 -47 -217.5t-125.5 -186.5t-188 -128.5t-227.5 -48.5q-181 0 -305 118zM143 424q0 -152 86 -258l719 694
q-111 105 -274 105q-142 0 -265.5 -76.5t-194.5 -201t-71 -263.5zM260 131q109 -106 279 -106q140 0 263 74.5t196 199t73 264.5q0 155 -92 264z" />
    <glyph glyph-name="ugrave" unicode="&#xf9;" horiz-adv-x="1153" 
d="M1077 989l-209 -989h-49l45 215q-70 -110 -178.5 -172.5t-234.5 -62.5q-178 0 -261.5 116t-42.5 314l123 579h49l-122 -579q-38 -183 31.5 -284t236.5 -101q159 0 280.5 105.5t159.5 281.5l123 577h49zM516 1364h53l142 -268h-49z" />
    <glyph glyph-name="uacute" unicode="&#xfa;" horiz-adv-x="1153" 
d="M1077 989l-209 -989h-49l45 215q-70 -110 -178.5 -172.5t-234.5 -62.5q-178 0 -261.5 116t-42.5 314l123 579h49l-122 -579q-38 -183 31.5 -284t236.5 -101q159 0 280.5 105.5t159.5 281.5l123 577h49zM649 1096l277 266h67l-282 -266h-62z" />
    <glyph glyph-name="ucircumflex" unicode="&#xfb;" horiz-adv-x="1153" 
d="M1077 989l-209 -989h-49l45 215q-70 -110 -178.5 -172.5t-234.5 -62.5q-178 0 -261.5 116t-42.5 314l123 579h49l-122 -579q-38 -183 31.5 -284t236.5 -101q159 0 280.5 105.5t159.5 281.5l123 577h49zM432 1096l293 266h51l176 -266h-47l-157 227l-254 -227h-62z" />
    <glyph glyph-name="udieresis" unicode="&#xfc;" horiz-adv-x="1153" 
d="M1077 989l-209 -989h-49l45 215q-70 -110 -178.5 -172.5t-234.5 -62.5q-178 0 -261.5 116t-42.5 314l123 579h49l-122 -579q-38 -183 31.5 -284t236.5 -101q159 0 280.5 105.5t159.5 281.5l123 577h49zM504 1163l20 90h88l-20 -90h-88zM821 1163l21 90h88l-21 -90h-88z
" />
    <glyph glyph-name="yacute" unicode="&#xfd;" horiz-adv-x="987" 
d="M143 989h50l200 -952l604 952h54l-867 -1374h-51l227 365zM578 1096l276 266h68l-283 -266h-61z" />
    <glyph glyph-name="thorn" unicode="&#xfe;" horiz-adv-x="1306" 
d="M-4 -385l385 1819h47l-141 -672q80 117 204.5 182.5t270.5 65.5q197 0 323.5 -127.5t126.5 -319.5q0 -110 -42.5 -215.5t-116.5 -187t-182.5 -131t-231.5 -49.5q-170 0 -292 91.5t-154 243.5l-148 -700h-49zM227 426q0 -180 113 -290.5t299 -110.5q108 0 206 44.5
t167 117.5t110 171t41 201q0 174 -113 290t-292 116q-149 0 -271.5 -74.5t-191 -197.5t-68.5 -267z" />
    <glyph glyph-name="ydieresis" unicode="&#xff;" horiz-adv-x="987" 
d="M143 989h50l200 -952l604 952h54l-867 -1374h-51l227 365zM432 1163l21 90h88l-21 -90h-88zM750 1163l20 90h88l-20 -90h-88z" />
    <glyph glyph-name="Amacron" unicode="&#x100;" horiz-adv-x="1120" 
d="M-61 0l798 1434h56l186 -1434h-51l-56 428h-641l-237 -428h-55zM258 475h610l-114 895zM483 1573l11 45h614l-10 -45h-615z" />
    <glyph glyph-name="amacron" unicode="&#x101;" horiz-adv-x="1079" 
d="M385 -20q-145 0 -232 68t-87 181q0 87 41 153t113.5 106.5t166.5 60.5t207 20h287l10 47q11 56 12.5 107t-16.5 95.5t-50.5 77t-89.5 51t-133 18.5q-140 0 -249.5 -80t-135.5 -203h-53q29 141 153.5 234.5t284.5 93.5q85 0 150 -21.5t103.5 -58.5t61 -87t22.5 -107.5
t-11 -119.5l-131 -616h-49l49 236q-75 -115 -189 -185.5t-235 -70.5zM117 231q0 -93 73.5 -149.5t194.5 -56.5q161 0 296 121.5t171 289.5l18 88h-276q-94 0 -175.5 -15.5t-151.5 -48t-110 -91t-40 -138.5zM385 1149l10 45h580l-10 -45h-580z" />
    <glyph glyph-name="Abreve" unicode="&#x102;" horiz-adv-x="1120" 
d="M-61 0l798 1434h56l186 -1434h-51l-56 428h-641l-237 -428h-55zM258 475h610l-114 895zM571 1755h43q-12 -92 35.5 -148.5t138.5 -56.5q96 0 166.5 56t85.5 149h43q-19 -115 -98.5 -181.5t-196.5 -66.5q-113 0 -174.5 70t-42.5 178z" />
    <glyph glyph-name="abreve" unicode="&#x103;" horiz-adv-x="1079" 
d="M385 -20q-145 0 -232 68t-87 181q0 87 41 153t113.5 106.5t166.5 60.5t207 20h287l10 47q11 56 12.5 107t-16.5 95.5t-50.5 77t-89.5 51t-133 18.5q-140 0 -249.5 -80t-135.5 -203h-53q29 141 153.5 234.5t284.5 93.5q85 0 150 -21.5t103.5 -58.5t61 -87t22.5 -107.5
t-11 -119.5l-131 -616h-49l49 236q-75 -115 -189 -185.5t-235 -70.5zM117 231q0 -93 73.5 -149.5t194.5 -56.5q161 0 296 121.5t171 289.5l18 88h-276q-94 0 -175.5 -15.5t-151.5 -48t-110 -91t-40 -138.5zM467 1356h45q-19 -105 25.5 -165.5t134.5 -60.5q91 0 162.5 64
t93.5 162h45q-26 -122 -109.5 -194t-191.5 -72q-113 0 -170 77.5t-35 188.5z" />
    <glyph glyph-name="Aogonek" unicode="&#x104;" horiz-adv-x="1120" 
d="M-61 0l798 1434h56l186 -1434q-105 -78 -153 -134.5t-48 -121.5q0 -41 25.5 -63.5t75.5 -22.5h57l-21 -43h-43q-69 0 -104 31t-35 88q0 79 48 140t147 134l-56 420h-641l-237 -428h-55zM258 475h610l-114 895z" />
    <glyph glyph-name="aogonek" unicode="&#x105;" horiz-adv-x="1079" 
d="M385 -20q-145 0 -232 68t-87 181q0 87 41 153t113.5 106.5t166.5 60.5t207 20h287l10 47q11 56 12.5 107t-16.5 95.5t-50.5 77t-89.5 51t-133 18.5q-140 0 -249.5 -80t-135.5 -203h-53q29 141 153.5 234.5t284.5 93.5q85 0 150 -21.5t103.5 -58.5t61 -87t22.5 -107.5
t-11 -119.5l-131 -616q-105 -78 -153 -134.5t-48 -121.5q0 -41 25.5 -63.5t75.5 -22.5h57l-21 -43h-43q-69 0 -104 31t-35 88q0 78 49 140t150 138l47 224q-75 -115 -189 -185.5t-235 -70.5zM117 231q0 -93 73.5 -149.5t194.5 -56.5q161 0 296 121.5t171 289.5l18 88h-276
q-94 0 -175.5 -15.5t-151.5 -48t-110 -91t-40 -138.5z" />
    <glyph glyph-name="Cacute" unicode="&#x106;" horiz-adv-x="1519" 
d="M743 -20q-261 0 -426 169t-165 441q0 175 67 335t179 275.5t265.5 184.5t319.5 69q226 0 382.5 -128.5t168.5 -330.5h-49q-15 182 -160.5 298t-343.5 116q-162 0 -308.5 -69t-249 -182t-162.5 -262t-60 -306q0 -251 151.5 -408t390.5 -157q203 0 369.5 103.5t251.5 291.5
h53q-97 -215 -273.5 -327.5t-400.5 -112.5zM952 1516l267 239h69l-268 -239h-68z" />
    <glyph glyph-name="cacute" unicode="&#x107;" horiz-adv-x="1128" 
d="M535 -20q-194 0 -317.5 120.5t-123.5 319.5q0 160 75.5 295.5t210 215t298.5 79.5q161 0 277 -89.5t122 -220.5h-49q-7 114 -108.5 189.5t-239.5 75.5q-144 0 -267 -69.5t-196.5 -194t-73.5 -275.5q0 -180 108 -290.5t281 -110.5q141 0 254 67.5t168 202.5h54
q-59 -156 -188 -235.5t-285 -79.5zM655 1096l277 266h67l-282 -266h-62z" />
    <glyph glyph-name="Ccircumflex" unicode="&#x108;" horiz-adv-x="1519" 
d="M743 -20q-261 0 -426 169t-165 441q0 175 67 335t179 275.5t265.5 184.5t319.5 69q226 0 382.5 -128.5t168.5 -330.5h-49q-15 182 -160.5 298t-343.5 116q-162 0 -308.5 -69t-249 -182t-162.5 -262t-60 -306q0 -251 151.5 -408t390.5 -157q203 0 369.5 103.5t251.5 291.5
h53q-97 -215 -273.5 -327.5t-400.5 -112.5zM688 1516l334 233h41l233 -233h-59l-197 194l-282 -194h-70z" />
    <glyph glyph-name="ccircumflex" unicode="&#x109;" horiz-adv-x="1128" 
d="M535 -20q-194 0 -317.5 120.5t-123.5 319.5q0 160 75.5 295.5t210 215t298.5 79.5q161 0 277 -89.5t122 -220.5h-49q-7 114 -108.5 189.5t-239.5 75.5q-144 0 -267 -69.5t-196.5 -194t-73.5 -275.5q0 -180 108 -290.5t281 -110.5q141 0 254 67.5t168 202.5h54
q-59 -156 -188 -235.5t-285 -79.5zM438 1096l293 266h51l176 -266h-47l-157 227l-254 -227h-62z" />
    <glyph glyph-name="Cdotaccent" unicode="&#x10a;" horiz-adv-x="1519" 
d="M743 -20q-261 0 -426 169t-165 441q0 175 67 335t179 275.5t265.5 184.5t319.5 69q226 0 382.5 -128.5t168.5 -330.5h-49q-15 182 -160.5 298t-343.5 116q-162 0 -308.5 -69t-249 -182t-162.5 -262t-60 -306q0 -251 151.5 -408t390.5 -157q203 0 369.5 103.5t251.5 291.5
h53q-97 -215 -273.5 -327.5t-400.5 -112.5zM950 1526l19 90h88l-19 -90h-88z" />
    <glyph glyph-name="cdotaccent" unicode="&#x10b;" horiz-adv-x="1128" 
d="M535 -20q-194 0 -317.5 120.5t-123.5 319.5q0 160 75.5 295.5t210 215t298.5 79.5q161 0 277 -89.5t122 -220.5h-49q-7 114 -108.5 189.5t-239.5 75.5q-144 0 -267 -69.5t-196.5 -194t-73.5 -275.5q0 -180 108 -290.5t281 -110.5q141 0 254 67.5t168 202.5h54
q-59 -156 -188 -235.5t-285 -79.5zM696 1262l35 172h76l-35 -172h-76z" />
    <glyph glyph-name="Ccaron" unicode="&#x10c;" horiz-adv-x="1519" 
d="M743 -20q-261 0 -426 169t-165 441q0 175 67 335t179 275.5t265.5 184.5t319.5 69q226 0 382.5 -128.5t168.5 -330.5h-49q-15 182 -160.5 298t-343.5 116q-162 0 -308.5 -69t-249 -182t-162.5 -262t-60 -306q0 -251 151.5 -408t390.5 -157q203 0 369.5 103.5t251.5 291.5
h53q-97 -215 -273.5 -327.5t-400.5 -112.5zM739 1767h58l196 -213l285 213h68l-336 -251h-41z" />
    <glyph glyph-name="ccaron" unicode="&#x10d;" horiz-adv-x="1128" 
d="M535 -20q-194 0 -317.5 120.5t-123.5 319.5q0 160 75.5 295.5t210 215t298.5 79.5q161 0 277 -89.5t122 -220.5h-49q-7 114 -108.5 189.5t-239.5 75.5q-144 0 -267 -69.5t-196.5 -194t-73.5 -275.5q0 -180 108 -290.5t281 -110.5q141 0 254 67.5t168 202.5h54
q-59 -156 -188 -235.5t-285 -79.5zM496 1362h49l157 -225l252 225h62l-293 -266h-49z" />
    <glyph glyph-name="Dcaron" unicode="&#x10e;" horiz-adv-x="1417" 
d="M803 1434q262 0 411.5 -147.5t149.5 -395.5q0 -78 -12 -158.5t-40.5 -169t-72 -168.5t-111.5 -153t-153 -126t-203 -84.5t-256 -31.5h-418l303 1434h402zM158 45h360q129 0 240 29.5t191 79.5t144 118.5t105 144t68 160t38 161.5t11 153q0 227 -135.5 362.5t-374.5 135.5
h-363zM567 1767h58l196 -213l285 213h68l-336 -251h-41z" />
    <glyph glyph-name="dcaron" unicode="&#x10f;" horiz-adv-x="1366" 
d="M545 -20q-197 0 -324 127t-127 319q0 110 43 215.5t117 187t182.5 131.5t231.5 50q170 0 292 -92t154 -244l160 760h49l-303 -1434h-49l47 227q-79 -116 -202.5 -181.5t-270.5 -65.5zM143 430q0 -174 113.5 -289.5t292.5 -115.5q149 0 271.5 74t190.5 197t68 267
q0 180 -112.5 291t-298.5 111q-144 0 -265.5 -75.5t-190.5 -198.5t-69 -261zM1430 1096l126 385h58l-139 -385h-45z" />
    <glyph glyph-name="Dcroat" unicode="&#x110;" horiz-adv-x="1449" 
d="M113 684l8 43h164l149 707h402q262 0 411.5 -147.5t149.5 -395.5q0 -78 -12 -158.5t-40.5 -169t-72 -168.5t-111.5 -153t-153 -126t-203 -84.5t-256 -31.5h-418l145 684h-163zM190 45h361q129 0 240 29.5t191 79.5t144 118.5t105 144t68 160t38 161.5t11 153
q0 227 -135.5 362.5t-374.5 135.5h-363l-139 -662h348l-8 -43h-350z" />
    <glyph glyph-name="dcroat" unicode="&#x111;" horiz-adv-x="1304" 
d="M907 1219l8 41h322l37 174h49l-37 -174h195l-8 -41h-195l-258 -1219h-49l47 227q-79 -116 -202.5 -181.5t-270.5 -65.5q-197 0 -324 127t-127 319q0 110 43 215.5t117 187t182.5 131.5t231.5 50q170 0 292 -92t154 -244l115 545h-322zM143 430q0 -174 113.5 -289.5
t292.5 -115.5q149 0 271.5 74t190.5 197t68 267q0 180 -112.5 291t-298.5 111q-144 0 -265.5 -75.5t-190.5 -198.5t-69 -261z" />
    <glyph glyph-name="Emacron" unicode="&#x112;" horiz-adv-x="923" 
d="M401 1434h627l-8 -45h-578l-125 -582h502l-8 -45h-502l-153 -717h577l-8 -45h-627zM438 1573l11 45h614l-10 -45h-615z" />
    <glyph glyph-name="emacron" unicode="&#x113;" horiz-adv-x="1148" 
d="M520 -20q-203 0 -314.5 118t-111.5 305q0 126 47.5 239.5t126.5 193.5t185.5 127t220.5 47q210 0 322 -135t71 -336l-4 -15h-909q-13 -63 -13 -121q0 -169 103.5 -273.5t275.5 -104.5q91 0 176 31t154 93.5t104 147.5h54q-63 -155 -195.5 -236t-292.5 -81zM166 569h858
q26 169 -74.5 282.5t-275.5 113.5q-167 0 -310.5 -111.5t-197.5 -284.5zM418 1149l10 45h580l-11 -45h-579z" />
    <glyph glyph-name="Ebreve" unicode="&#x114;" horiz-adv-x="923" 
d="M401 1434h627l-8 -45h-578l-125 -582h502l-8 -45h-502l-153 -717h577l-8 -45h-627zM526 1755h43q-12 -92 35.5 -148.5t138.5 -56.5q96 0 166.5 56t85.5 149h43q-19 -115 -98.5 -181.5t-196.5 -66.5q-113 0 -174.5 70t-42.5 178z" />
    <glyph glyph-name="ebreve" unicode="&#x115;" horiz-adv-x="1148" 
d="M520 -20q-203 0 -314.5 118t-111.5 305q0 126 47.5 239.5t126.5 193.5t185.5 127t220.5 47q210 0 322 -135t71 -336l-4 -15h-909q-13 -63 -13 -121q0 -169 103.5 -273.5t275.5 -104.5q91 0 176 31t154 93.5t104 147.5h54q-63 -155 -195.5 -236t-292.5 -81zM166 569h858
q26 169 -74.5 282.5t-275.5 113.5q-167 0 -310.5 -111.5t-197.5 -284.5zM500 1356h45q-19 -105 25.5 -165.5t134.5 -60.5q91 0 162.5 64t93.5 162h45q-26 -122 -109.5 -194t-191.5 -72q-113 0 -170 77.5t-35 188.5z" />
    <glyph glyph-name="Edotaccent" unicode="&#x116;" horiz-adv-x="923" 
d="M401 1434h627l-8 -45h-578l-125 -582h502l-8 -45h-502l-153 -717h577l-8 -45h-627zM692 1526l19 90h88l-19 -90h-88z" />
    <glyph glyph-name="edotaccent" unicode="&#x117;" horiz-adv-x="1148" 
d="M520 -20q-203 0 -314.5 118t-111.5 305q0 126 47.5 239.5t126.5 193.5t185.5 127t220.5 47q210 0 322 -135t71 -336l-4 -15h-909q-13 -63 -13 -121q0 -169 103.5 -273.5t275.5 -104.5q91 0 176 31t154 93.5t104 147.5h54q-63 -155 -195.5 -236t-292.5 -81zM166 569h858
q26 169 -74.5 282.5t-275.5 113.5q-167 0 -310.5 -111.5t-197.5 -284.5zM694 1262l35 172h76l-35 -172h-76z" />
    <glyph glyph-name="Eogonek" unicode="&#x118;" horiz-adv-x="923" 
d="M401 1434h627l-8 -45h-578l-125 -582h502l-8 -45h-502l-153 -717h577l-8 -45q-105 -78 -153 -134.5t-48 -121.5q0 -41 25.5 -63.5t75.5 -22.5h57l-20 -43h-44q-69 0 -104 31t-35 88q0 76 45 135t138 131h-564z" />
    <glyph glyph-name="eogonek" unicode="&#x119;" horiz-adv-x="1148" 
d="M520 -20q-203 0 -314.5 118t-111.5 305q0 126 47.5 239.5t126.5 193.5t185.5 127t220.5 47q210 0 322 -135t71 -336l-4 -15h-909q-13 -63 -13 -121q0 -169 103.5 -273.5t275.5 -104.5q91 0 176 31t154 93.5t104 147.5h54q-48 -117 -137 -192.5t-203 -106.5
q-103 -77 -151 -133t-48 -121q0 -86 100 -86h58l-21 -43h-43q-69 0 -104 31t-35 88q0 70 40.5 127.5t121.5 122.5q-46 -4 -66 -4zM166 569h858q26 169 -74.5 282.5t-275.5 113.5q-167 0 -310.5 -111.5t-197.5 -284.5z" />
    <glyph glyph-name="Ecaron" unicode="&#x11a;" horiz-adv-x="923" 
d="M401 1434h627l-8 -45h-578l-125 -582h502l-8 -45h-502l-153 -717h577l-8 -45h-627zM481 1767h58l196 -213l285 213h67l-335 -251h-41z" />
    <glyph glyph-name="ecaron" unicode="&#x11b;" horiz-adv-x="1148" 
d="M520 -20q-203 0 -314.5 118t-111.5 305q0 126 47.5 239.5t126.5 193.5t185.5 127t220.5 47q210 0 322 -135t71 -336l-4 -15h-909q-13 -63 -13 -121q0 -169 103.5 -273.5t275.5 -104.5q91 0 176 31t154 93.5t104 147.5h54q-63 -155 -195.5 -236t-292.5 -81zM166 569h858
q26 169 -74.5 282.5t-275.5 113.5q-167 0 -310.5 -111.5t-197.5 -284.5zM494 1362h49l157 -225l252 225h62l-293 -266h-49z" />
    <glyph glyph-name="Gcircumflex" unicode="&#x11c;" horiz-adv-x="1583" 
d="M762 -20q-275 0 -443.5 166t-168.5 436q0 173 68.5 333.5t183 278.5t273.5 189t331 71q213 0 367.5 -115.5t182.5 -287.5h-51q-29 157 -171.5 257.5t-327.5 100.5q-166 0 -317.5 -69.5t-258.5 -183.5t-170 -265.5t-63 -310.5q0 -247 157 -402t408 -155q257 0 451 176
t260 465l-549 -2l10 45h590q-4 -34 -8 -50q-41 -194 -147.5 -347.5t-265 -241.5t-341.5 -88zM717 1516l334 233h41l233 -233h-59l-197 194l-283 -194h-69z" />
    <glyph glyph-name="gcircumflex" unicode="&#x11d;" horiz-adv-x="1292" 
d="M344 -385q-87 0 -152.5 17.5t-111 54t-62 96.5t-0.5 141l9 41h49l-10 -51q-27 -129 48.5 -191.5t229.5 -62.5h213q176 0 271 79t133 261l53 250q-74 -115 -193 -177.5t-266 -62.5q-198 0 -326.5 122t-128.5 306q0 143 70 273.5t200.5 214.5t288.5 84q183 0 300.5 -90.5
t142.5 -249.5l67 319h50l-209 -989q-44 -208 -151 -296.5t-302 -88.5h-213zM150 438q0 -166 113 -274.5t290 -108.5q121 0 222 45.5t164.5 120.5t98.5 168t35 191q0 171 -113.5 278t-297.5 107q-116 0 -215 -47.5t-162.5 -123.5t-99 -169t-35.5 -187zM451 1096l292 266h52
l176 -266h-47l-158 227l-254 -227h-61z" />
    <glyph glyph-name="Gbreve" unicode="&#x11e;" horiz-adv-x="1583" 
d="M762 -20q-275 0 -443.5 166t-168.5 436q0 173 68.5 333.5t183 278.5t273.5 189t331 71q213 0 367.5 -115.5t182.5 -287.5h-51q-29 157 -171.5 257.5t-327.5 100.5q-166 0 -317.5 -69.5t-258.5 -183.5t-170 -265.5t-63 -310.5q0 -247 157 -402t408 -155q257 0 451 176
t260 465l-549 -2l10 45h590q-4 -34 -8 -50q-41 -194 -147.5 -347.5t-265 -241.5t-341.5 -88zM813 1755h43q-12 -92 35.5 -148.5t138.5 -56.5q96 0 166.5 56t85.5 149h43q-19 -115 -98.5 -181.5t-196.5 -66.5q-113 0 -174.5 70t-42.5 178z" />
    <glyph glyph-name="gbreve" unicode="&#x11f;" horiz-adv-x="1292" 
d="M344 -385q-87 0 -152.5 17.5t-111 54t-62 96.5t-0.5 141l9 41h49l-10 -51q-27 -129 48.5 -191.5t229.5 -62.5h213q176 0 271 79t133 261l53 250q-74 -115 -193 -177.5t-266 -62.5q-198 0 -326.5 122t-128.5 306q0 143 70 273.5t200.5 214.5t288.5 84q183 0 300.5 -90.5
t142.5 -249.5l67 319h50l-209 -989q-44 -208 -151 -296.5t-302 -88.5h-213zM150 438q0 -166 113 -274.5t290 -108.5q121 0 222 45.5t164.5 120.5t98.5 168t35 191q0 171 -113.5 278t-297.5 107q-116 0 -215 -47.5t-162.5 -123.5t-99 -169t-35.5 -187zM514 1356h45
q-19 -105 25.5 -165.5t134.5 -60.5q91 0 162.5 64t93.5 162h45q-26 -122 -109.5 -194t-191.5 -72q-113 0 -170 77.5t-35 188.5z" />
    <glyph glyph-name="Gdotaccent" unicode="&#x120;" horiz-adv-x="1583" 
d="M762 -20q-275 0 -443.5 166t-168.5 436q0 173 68.5 333.5t183 278.5t273.5 189t331 71q213 0 367.5 -115.5t182.5 -287.5h-51q-29 157 -171.5 257.5t-327.5 100.5q-166 0 -317.5 -69.5t-258.5 -183.5t-170 -265.5t-63 -310.5q0 -247 157 -402t408 -155q257 0 451 176
t260 465l-549 -2l10 45h590q-4 -34 -8 -50q-41 -194 -147.5 -347.5t-265 -241.5t-341.5 -88zM979 1526l18 90h88l-18 -90h-88z" />
    <glyph glyph-name="gdotaccent" unicode="&#x121;" horiz-adv-x="1292" 
d="M344 -385q-87 0 -152.5 17.5t-111 54t-62 96.5t-0.5 141l9 41h49l-10 -51q-27 -129 48.5 -191.5t229.5 -62.5h213q176 0 271 79t133 261l53 250q-74 -115 -193 -177.5t-266 -62.5q-198 0 -326.5 122t-128.5 306q0 143 70 273.5t200.5 214.5t288.5 84q183 0 300.5 -90.5
t142.5 -249.5l67 319h50l-209 -989q-44 -208 -151 -296.5t-302 -88.5h-213zM150 438q0 -166 113 -274.5t290 -108.5q121 0 222 45.5t164.5 120.5t98.5 168t35 191q0 171 -113.5 278t-297.5 107q-116 0 -215 -47.5t-162.5 -123.5t-99 -169t-35.5 -187zM709 1262l34 172h76
l-35 -172h-75z" />
    <glyph glyph-name="uni0122" unicode="&#x122;" horiz-adv-x="1583" 
d="M762 -20q-275 0 -443.5 166t-168.5 436q0 173 68.5 333.5t183 278.5t273.5 189t331 71q213 0 367.5 -115.5t182.5 -287.5h-51q-29 157 -171.5 257.5t-327.5 100.5q-166 0 -317.5 -69.5t-258.5 -183.5t-170 -265.5t-63 -310.5q0 -247 157 -402t408 -155q257 0 451 176
t260 465l-549 -2l10 45h590q-4 -34 -8 -50q-41 -194 -147.5 -347.5t-265 -241.5t-341.5 -88zM496 -334l215 266h55l-221 -266h-49z" />
    <glyph glyph-name="uni0123" unicode="&#x123;" horiz-adv-x="1292" 
d="M344 -385q-87 0 -152.5 17.5t-111 54t-62 96.5t-0.5 141l9 41h49l-10 -51q-27 -129 48.5 -191.5t229.5 -62.5h213q176 0 271 79t133 261l53 250q-74 -115 -193 -177.5t-266 -62.5q-198 0 -326.5 122t-128.5 306q0 143 70 273.5t200.5 214.5t288.5 84q183 0 300.5 -90.5
t142.5 -249.5l67 319h50l-209 -989q-44 -208 -151 -296.5t-302 -88.5h-213zM150 438q0 -166 113 -274.5t290 -108.5q121 0 222 45.5t164.5 120.5t98.5 168t35 191q0 171 -113.5 278t-297.5 107q-116 0 -215 -47.5t-162.5 -123.5t-99 -169t-35.5 -187zM629 1096l217 245h53
l-211 -245h-59z" />
    <glyph glyph-name="Hcircumflex" unicode="&#x124;" horiz-adv-x="1191" 
d="M98 0l303 1434h50l-140 -664h688l140 664h51l-303 -1434h-51l153 725h-688l-154 -725h-49zM510 1516l334 233h41l233 -233h-59l-197 194l-282 -194h-70z" />
    <glyph glyph-name="hcircumflex" unicode="&#x125;" horiz-adv-x="1153" 
d="M78 0l303 1434h49l-137 -650q69 108 176.5 167t235.5 59q179 0 262 -116t41 -314l-123 -580h-49l122 580q38 183 -31.5 284t-236.5 101q-159 0 -280.5 -105.5t-159.5 -281.5l-123 -578h-49zM117 1516l334 233h41l233 -233h-59l-197 194l-283 -194h-69z" />
    <glyph glyph-name="Hbar" unicode="&#x126;" horiz-adv-x="1273" 
d="M139 0l234 1100h-201l10 41h199l61 293h50l-62 -293h690l62 293h49l-62 -293h199l-10 -41h-197l-233 -1100h-49l153 723h-690l-154 -723h-49zM350 768h690l70 332h-690z" />
    <glyph glyph-name="hbar" unicode="&#x127;" horiz-adv-x="1153" 
d="M139 1219l8 41h197l37 174h49l-37 -174h318l-9 -41h-317l-92 -435q69 108 176.5 167t235.5 59q179 0 262 -116t41 -314l-123 -580h-49l122 580q38 183 -31.5 284t-236.5 101q-159 0 -280.5 -105.5t-159.5 -281.5l-123 -578h-49l258 1219h-197z" />
    <glyph glyph-name="Itilde" unicode="&#x128;" horiz-adv-x="452" 
d="M401 1434h50l-304 -1434h-49zM135 1518q26 104 78.5 154t110.5 50q38 0 80.5 -25.5t73.5 -56t67.5 -56t64.5 -25.5q45 0 82 39t58 120h47q-24 -101 -77 -151.5t-110 -50.5q-39 0 -81 25.5t-71.5 56t-66.5 56t-67 25.5q-45 0 -83.5 -40t-60.5 -121h-45z" />
    <glyph glyph-name="itilde" unicode="&#x129;" horiz-adv-x="413" 
d="M287 989h51l-209 -989h-51zM51 1126q49 246 199 246q39 0 68 -21t46.5 -50.5t34 -59.5t40.5 -51t57 -21q45 0 82.5 51t58.5 150h47q-28 -126 -78 -187t-110 -61q-44 0 -76.5 21t-51 51t-34 60.5t-36.5 51.5t-48 21q-109 0 -152 -201h-47z" />
    <glyph glyph-name="Imacron" unicode="&#x12a;" horiz-adv-x="452" 
d="M401 1434h50l-304 -1434h-49zM147 1573l11 45h614l-10 -45h-615z" />
    <glyph glyph-name="imacron" unicode="&#x12b;" horiz-adv-x="413" 
d="M287 989h51l-209 -989h-51zM57 1149l11 45h579l-10 -45h-580z" />
    <glyph glyph-name="Ibreve" unicode="&#x12c;" horiz-adv-x="452" 
d="M401 1434h50l-304 -1434h-49zM236 1755h43q-12 -92 35.5 -148.5t138.5 -56.5q96 0 166.5 56t85.5 149h43q-19 -115 -98.5 -181.5t-196.5 -66.5q-113 0 -174.5 70t-42.5 178z" />
    <glyph glyph-name="ibreve" unicode="&#x12d;" horiz-adv-x="413" 
d="M287 989h51l-209 -989h-51zM139 1356h45q-19 -105 25.5 -165.5t134.5 -60.5q91 0 162.5 64t93.5 162h45q-26 -122 -109.5 -194t-191.5 -72q-113 0 -170 77.5t-35 188.5z" />
    <glyph glyph-name="Iogonek" unicode="&#x12e;" horiz-adv-x="452" 
d="M401 1434h50l-304 -1434q-104 -78 -152 -134.5t-48 -121.5q0 -86 100 -86h57l-20 -43h-43q-69 0 -104 31t-35 88q0 78 49 140.5t149 137.5z" />
    <glyph glyph-name="iogonek" unicode="&#x12f;" horiz-adv-x="413" 
d="M287 989h51l-209 -989q-105 -78 -153 -134.5t-48 -121.5q0 -41 25.5 -63.5t75.5 -22.5h57l-20 -43h-43q-69 0 -104.5 31t-35.5 88q0 78 48 139t149 137zM334 1262l35 172h75l-34 -172h-76z" />
    <glyph glyph-name="Idotaccent" unicode="&#x130;" horiz-adv-x="452" 
d="M401 1434h50l-304 -1434h-49zM401 1526l19 90h88l-19 -90h-88z" />
    <glyph glyph-name="dotlessi" unicode="&#x131;" horiz-adv-x="413" 
d="M287 989h51l-209 -989h-51z" />
    <glyph glyph-name="IJ" unicode="&#x132;" horiz-adv-x="1060" 
d="M401 1434h50l-304 -1434h-49zM387 0l8 45h88q123 0 199.5 75t108.5 228l229 1086h49l-229 -1086q-38 -182 -126.5 -265t-238.5 -83h-88z" />
    <glyph glyph-name="ij" unicode="&#x133;" horiz-adv-x="811" 
d="M287 989h51l-209 -989h-51zM182 -385l8 43h89q55 0 97.5 37.5t57.5 103.5l252 1190h49l-252 -1190q-18 -86 -76.5 -135t-136.5 -49h-88zM334 1262l35 172h75l-34 -172h-76zM731 1262l35 172h76l-35 -172h-76z" />
    <glyph glyph-name="Jcircumflex" unicode="&#x134;" horiz-adv-x="618" 
d="M41 45q123 0 199 74.5t108 228.5l230 1086h49l-230 -1086q-38 -182 -126 -265t-238 -83h-88l8 45h88zM315 1516l334 233h41l234 -233h-60l-196 194l-283 -194h-70z" />
    <glyph glyph-name="jcircumflex" unicode="&#x135;" horiz-adv-x="411" 
d="M-121 -342q55 0 98 37.5t58 103.5l252 1190h49l-252 -1190q-18 -86 -76.5 -135t-136.5 -49h-88l8 43h88zM74 1096l293 266h51l176 -266h-47l-158 227l-254 -227h-61z" />
    <glyph glyph-name="uni0136" unicode="&#x136;" horiz-adv-x="940" 
d="M772 0l-469 733l-156 -733h-49l303 1434h50l-144 -676l713 676h65l-729 -693l475 -741h-59zM164 -334l215 266h55l-221 -266h-49z" />
    <glyph glyph-name="uni0137" unicode="&#x137;" horiz-adv-x="849" 
d="M78 0l303 1434h51l-188 -891l592 446h84l-635 -473l438 -516h-64l-423 502l-107 -502h-51zM135 -334l215 266h56l-222 -266h-49z" />
    <glyph glyph-name="kgreenlandic" unicode="&#x138;" horiz-adv-x="849" 
d="M78 0l209 989h49l-92 -446l592 446h84l-635 -473l438 -516h-64l-423 502l-107 -502h-51z" />
    <glyph glyph-name="Lacute" unicode="&#x139;" horiz-adv-x="860" 
d="M401 1434h50l-295 -1389h579l-8 -45h-629zM408 1516l266 239h69l-268 -239h-67z" />
    <glyph glyph-name="lacute" unicode="&#x13a;" horiz-adv-x="411" 
d="M430 1434l-303 -1434h-49l303 1434h49zM383 1516l266 239h70l-268 -239h-68z" />
    <glyph glyph-name="uni013B" unicode="&#x13b;" horiz-adv-x="860" 
d="M401 1434h50l-295 -1389h579l-8 -45h-629zM170 -334l215 266h55l-221 -266h-49z" />
    <glyph glyph-name="uni013C" unicode="&#x13c;" horiz-adv-x="411" 
d="M430 1434l-303 -1434h-49l303 1434h49zM-156 -334l215 266h56l-221 -266h-50z" />
    <glyph glyph-name="Lcaron" unicode="&#x13d;" horiz-adv-x="876" 
d="M401 1434h50l-295 -1389h579l-8 -45h-629zM778 1096l127 385h58l-140 -385h-45z" />
    <glyph glyph-name="lcaron" unicode="&#x13e;" horiz-adv-x="473" 
d="M430 1434l-303 -1434h-49l303 1434h49zM537 1096l127 385h57l-139 -385h-45z" />
    <glyph glyph-name="Ldot" unicode="&#x13f;" horiz-adv-x="874" 
d="M401 1434h50l-295 -1389h579l-8 -45h-629zM676 674l20 100h113l-21 -100h-112z" />
    <glyph glyph-name="ldot" unicode="&#x140;" horiz-adv-x="468" 
d="M430 1434l-303 -1434h-49l303 1434h49zM424 674l20 100h113l-20 -100h-113z" />
    <glyph glyph-name="Lslash" unicode="&#x141;" horiz-adv-x="909" 
d="M829 911l-493 -211l-139 -655h579l-8 -45h-629l144 676l-189 -80l10 49l189 80l149 709h50l-146 -686l494 210z" />
    <glyph glyph-name="lslash" unicode="&#x142;" horiz-adv-x="501" 
d="M532 930l-178 -74l-180 -856h-49l176 834l-186 -78l10 45l186 78l117 555h49l-112 -533l178 76z" />
    <glyph glyph-name="Nacute" unicode="&#x143;" horiz-adv-x="1224" 
d="M827 291q20 -60 36.5 -116.5t22.5 -82.5l7 -26q10 90 39 231l239 1137h52l-303 -1434h-48l-378 1139q-20 60 -36.5 116.5t-23.5 82.5l-6 26q-10 -90 -39 -231l-242 -1133h-49l303 1434h45zM791 1516l266 239h69l-268 -239h-67z" />
    <glyph glyph-name="nacute" unicode="&#x144;" horiz-adv-x="1153" 
d="M78 0l209 989h49l-45 -215q70 110 179 173t235 63q178 0 261 -116t42 -314l-123 -580h-49l122 580q38 183 -31.5 284t-236.5 101q-159 0 -280.5 -105.5t-159.5 -281.5l-123 -578h-49zM659 1096l277 266h68l-283 -266h-62z" />
    <glyph glyph-name="uni0145" unicode="&#x145;" horiz-adv-x="1224" 
d="M827 291q20 -60 36.5 -116.5t22.5 -82.5l7 -26q10 90 39 231l239 1137h52l-303 -1434h-48l-378 1139q-20 60 -36.5 116.5t-23.5 82.5l-6 26q-10 -90 -39 -231l-242 -1133h-49l303 1434h45zM252 -334l215 266h55l-221 -266h-49z" />
    <glyph glyph-name="uni0146" unicode="&#x146;" horiz-adv-x="1153" 
d="M78 0l209 989h49l-45 -215q70 110 179 173t235 63q178 0 261 -116t42 -314l-123 -580h-49l122 580q38 183 -31.5 284t-236.5 101q-159 0 -280.5 -105.5t-159.5 -281.5l-123 -578h-49zM213 -334l215 266h55l-221 -266h-49z" />
    <glyph glyph-name="Ncaron" unicode="&#x147;" horiz-adv-x="1224" 
d="M827 291q20 -60 36.5 -116.5t22.5 -82.5l7 -26q10 90 39 231l239 1137h52l-303 -1434h-48l-378 1139q-20 60 -36.5 116.5t-23.5 82.5l-6 26q-10 -90 -39 -231l-242 -1133h-49l303 1434h45zM578 1767h57l196 -213l285 213h68l-336 -251h-41z" />
    <glyph glyph-name="ncaron" unicode="&#x148;" horiz-adv-x="1153" 
d="M78 0l209 989h49l-45 -215q70 110 179 173t235 63q178 0 261 -116t42 -314l-123 -580h-49l122 580q38 183 -31.5 284t-236.5 101q-159 0 -280.5 -105.5t-159.5 -281.5l-123 -578h-49zM500 1362h49l158 -225l251 225h62l-293 -266h-49z" />
    <glyph glyph-name="napostrophe" unicode="&#x149;" horiz-adv-x="1153" 
d="M172 1313l25 121h135l-45 -217q-15 -71 -44.5 -95t-95.5 -24l9 45q38 0 54 13.5t26 62.5l20 94h-84zM78 0l209 989h49l-45 -215q70 110 179 173t235 63q178 0 261 -116t42 -314l-123 -580h-49l122 580q38 183 -31.5 284t-236.5 101q-159 0 -280.5 -105.5t-159.5 -281.5
l-123 -578h-49z" />
    <glyph glyph-name="Eng" unicode="&#x14a;" horiz-adv-x="1224" 
d="M555 -340q123 0 199 74.5t108 228.5l8 41l-376 1135q-20 60 -36.5 116.5t-23.5 82.5l-6 26q-10 -90 -39 -231l-242 -1133h-49l303 1434h45l381 -1143q20 -60 36.5 -116.5t22.5 -82.5l7 -26q10 90 39 231l239 1137h52l-316 -1487q-35 -169 -121.5 -250.5t-230.5 -81.5h-96
l8 45h88z" />
    <glyph glyph-name="eng" unicode="&#x14b;" horiz-adv-x="1153" 
d="M582 -385l8 43h47q55 0 99 39.5t57 101.5l165 781q38 183 -31.5 284t-236.5 101q-159 0 -281.5 -105.5t-158.5 -281.5l-123 -578h-49l209 989h49l-45 -215q70 110 179 173t235 63q178 0 261 -116t42 -314l-168 -791q-17 -82 -72 -128t-129 -46h-57z" />
    <glyph glyph-name="Omacron" unicode="&#x14c;" horiz-adv-x="1654" 
d="M772 -20q-133 0 -248 48.5t-196 133t-127.5 202t-46.5 250.5q0 161 64.5 314t173.5 269t263.5 186.5t325.5 70.5q176 0 318 -82t221 -224.5t79 -316.5q0 -161 -63.5 -315.5t-172 -273t-264 -190.5t-327.5 -72zM203 614q0 -168 72.5 -302.5t204 -210.5t298.5 -76
q206 0 385 112.5t283 298t104 393.5q0 252 -161 416t-414 164q-155 0 -298 -65.5t-246.5 -173.5t-165.5 -254t-62 -302zM698 1573l11 45h614l-10 -45h-615z" />
    <glyph glyph-name="omacron" unicode="&#x14d;" horiz-adv-x="1212" 
d="M532 -20q-188 0 -313 128t-125 318q0 149 78 283.5t214 217.5t294 83q189 0 314.5 -129.5t125.5 -319.5q0 -111 -47 -217.5t-125.5 -186.5t-188 -128.5t-227.5 -48.5zM143 424q0 -173 111 -286t285 -113q140 0 263 74.5t196 199t73 264.5q0 171 -112.5 286.5
t-284.5 115.5q-142 0 -265.5 -76.5t-194.5 -201t-71 -263.5zM457 1149l10 45h580l-11 -45h-579z" />
    <glyph glyph-name="Obreve" unicode="&#x14e;" horiz-adv-x="1654" 
d="M772 -20q-133 0 -248 48.5t-196 133t-127.5 202t-46.5 250.5q0 161 64.5 314t173.5 269t263.5 186.5t325.5 70.5q176 0 318 -82t221 -224.5t79 -316.5q0 -161 -63.5 -315.5t-172 -273t-264 -190.5t-327.5 -72zM203 614q0 -168 72.5 -302.5t204 -210.5t298.5 -76
q206 0 385 112.5t283 298t104 393.5q0 252 -161 416t-414 164q-155 0 -298 -65.5t-246.5 -173.5t-165.5 -254t-62 -302zM786 1755h43q-12 -92 36 -148.5t139 -56.5q96 0 166 56t85 149h43q-19 -115 -98 -181.5t-196 -66.5q-113 0 -175 70t-43 178z" />
    <glyph glyph-name="obreve" unicode="&#x14f;" horiz-adv-x="1212" 
d="M532 -20q-188 0 -313 128t-125 318q0 149 78 283.5t214 217.5t294 83q189 0 314.5 -129.5t125.5 -319.5q0 -111 -47 -217.5t-125.5 -186.5t-188 -128.5t-227.5 -48.5zM143 424q0 -173 111 -286t285 -113q140 0 263 74.5t196 199t73 264.5q0 171 -112.5 286.5
t-284.5 115.5q-142 0 -265.5 -76.5t-194.5 -201t-71 -263.5zM539 1356h45q-19 -105 25 -165.5t134 -60.5q91 0 162.5 64t93.5 162h45q-26 -122 -109.5 -194t-191.5 -72q-113 0 -169.5 77.5t-34.5 188.5z" />
    <glyph glyph-name="Ohungarumlaut" unicode="&#x150;" horiz-adv-x="1654" 
d="M772 -20q-133 0 -248 48.5t-196 133t-127.5 202t-46.5 250.5q0 161 64.5 314t173.5 269t263.5 186.5t325.5 70.5q176 0 318 -82t221 -224.5t79 -316.5q0 -161 -63.5 -315.5t-172 -273t-264 -190.5t-327.5 -72zM203 614q0 -168 72.5 -302.5t204 -210.5t298.5 -76
q206 0 385 112.5t283 298t104 393.5q0 252 -161 416t-414 164q-155 0 -298 -65.5t-246.5 -173.5t-165.5 -254t-62 -302zM809 1516l242 247h65l-246 -247h-61zM1149 1516l240 247h67l-246 -247h-61z" />
    <glyph glyph-name="ohungarumlaut" unicode="&#x151;" horiz-adv-x="1212" 
d="M532 -20q-188 0 -313 128t-125 318q0 149 78 283.5t214 217.5t294 83q189 0 314.5 -129.5t125.5 -319.5q0 -111 -47 -217.5t-125.5 -186.5t-188 -128.5t-227.5 -48.5zM143 424q0 -173 111 -286t285 -113q140 0 263 74.5t196 199t73 264.5q0 171 -112.5 286.5
t-284.5 115.5q-142 0 -265.5 -76.5t-194.5 -201t-71 -263.5zM541 1096h55l211 266h-57zM852 1096h57l207 266h-57z" />
    <glyph glyph-name="OE" unicode="&#x152;" horiz-adv-x="1628" 
d="M694 0q-243 0 -396 159t-153 408q0 169 68 328.5t181.5 277.5t272 189.5t330.5 71.5h736l-9 -45h-577l-125 -582h502l-8 -45h-502l-154 -717h578l-8 -45h-736zM195 559q0 -229 139 -371.5t368 -142.5h111l283 1344h-107q-161 0 -309.5 -70.5t-254 -185.5t-168 -266
t-62.5 -308z" />
    <glyph glyph-name="oe" unicode="&#x153;" horiz-adv-x="2117" 
d="M532 -20q-188 0 -313 128t-125 318q0 149 78 283.5t214 217.5t294 83q166 0 285 -101.5t147 -259.5q69 162 214 261.5t316 99.5q182 0 293 -104t111 -267q0 -61 -14 -115h-910q-12 -59 -12 -121q0 -169 103.5 -273.5t275.5 -104.5q91 0 176 31t154 93.5t104 147.5h53
q-64 -155 -195.5 -236t-291.5 -81q-181 0 -290 96t-132 254q-71 -153 -216.5 -251.5t-318.5 -98.5zM143 424q0 -173 111 -286t285 -113q140 0 263 74.5t196 199t73 264.5q0 171 -112.5 286.5t-284.5 115.5q-142 0 -265.5 -76.5t-194.5 -201t-71 -263.5zM1135 569h858
q26 169 -75 282.5t-276 113.5q-167 0 -310 -111.5t-197 -284.5z" />
    <glyph glyph-name="Racute" unicode="&#x154;" horiz-adv-x="1095" 
d="M98 0l303 1434h304q163 0 256.5 -77.5t93.5 -213.5q0 -154 -84.5 -256.5t-235.5 -138.5q64 -16 106 -50.5t58.5 -77.5t19.5 -95t-10 -103l-88 -422h-49l88 422q11 52 11.5 94.5t-13.5 82t-44.5 66t-84.5 42.5t-129 16h-299l-154 -723h-49zM309 768h273q198 0 312 104.5
t114 268.5q0 114 -81 181t-222 67h-265zM715 1516l266 239h70l-269 -239h-67z" />
    <glyph glyph-name="racute" unicode="&#x155;" horiz-adv-x="643" 
d="M336 989l-35 -164q102 164 297 164h121l-8 -45h-113q-127 0 -215 -79t-119 -220l-137 -645h-49l209 989h49zM467 1096l276 266h68l-283 -266h-61z" />
    <glyph glyph-name="uni0156" unicode="&#x156;" horiz-adv-x="1095" 
d="M98 0l303 1434h304q163 0 256.5 -77.5t93.5 -213.5q0 -154 -84.5 -256.5t-235.5 -138.5q64 -16 106 -50.5t58.5 -77.5t19.5 -95t-10 -103l-88 -422h-49l88 422q11 52 11.5 94.5t-13.5 82t-44.5 66t-84.5 42.5t-129 16h-299l-154 -723h-49zM238 -334l215 266h55l-221 -266
h-49zM309 768h273q198 0 312 104.5t114 268.5q0 114 -81 181t-222 67h-265z" />
    <glyph glyph-name="uni0157" unicode="&#x157;" horiz-adv-x="643" 
d="M336 989l-35 -164q102 164 297 164h121l-8 -45h-113q-127 0 -215 -79t-119 -220l-137 -645h-49l209 989h49zM-154 -334l215 266h56l-221 -266h-50z" />
    <glyph glyph-name="Rcaron" unicode="&#x158;" horiz-adv-x="1095" 
d="M98 0l303 1434h304q163 0 256.5 -77.5t93.5 -213.5q0 -154 -84.5 -256.5t-235.5 -138.5q64 -16 106 -50.5t58.5 -77.5t19.5 -95t-10 -103l-88 -422h-49l88 422q11 52 11.5 94.5t-13.5 82t-44.5 66t-84.5 42.5t-129 16h-299l-154 -723h-49zM309 768h273q198 0 312 104.5
t114 268.5q0 114 -81 181t-222 67h-265zM502 1767h57l197 -213l284 213h68l-336 -251h-41z" />
    <glyph glyph-name="rcaron" unicode="&#x159;" horiz-adv-x="643" 
d="M336 989l-35 -164q102 164 297 164h121l-8 -45h-113q-127 0 -215 -79t-119 -220l-137 -645h-49l209 989h49zM307 1362h49l158 -225l252 225h61l-292 -266h-50z" />
    <glyph glyph-name="Sacute" unicode="&#x15a;" horiz-adv-x="1003" 
d="M434 -20q-181 0 -279.5 129t-58.5 315h49q-10 -57 -9.5 -113t22 -108t55.5 -91.5t91.5 -63t129.5 -23.5q95 0 171 36t121.5 95t69 130.5t23.5 147.5q0 77 -31 132.5t-80.5 87t-109.5 56.5t-119.5 50.5t-109 58.5t-80.5 90.5t-31 137.5q0 77 25 148.5t73 130t126.5 93.5
t176.5 35q173 0 269 -105.5t61 -267.5h-49q25 147 -50 237.5t-231 90.5q-87 0 -156.5 -33t-110.5 -86.5t-62 -115.5t-21 -125t24 -110.5t63.5 -75t90 -52.5t103 -43t103 -46t90 -62t63.5 -91.5t24 -132.5q0 -89 -27 -169t-79 -145t-137.5 -103.5t-192.5 -38.5zM674 1516
l266 239h70l-269 -239h-67z" />
    <glyph glyph-name="sacute" unicode="&#x15b;" horiz-adv-x="884" 
d="M379 -20q-161 0 -255 85.5t-79 219.5h49q-15 -119 65.5 -189.5t219.5 -70.5q129 0 221 73.5t92 196.5q0 59 -29 100t-75 63t-101.5 37.5l-111 31t-101.5 37t-75 62t-29 99.5q0 135 101 210t245 75q143 0 229 -73.5t74 -195.5h-49q6 99 -61.5 161.5t-192.5 62.5
q-43 0 -84 -8t-79.5 -26t-67.5 -44t-46.5 -66.5t-17.5 -89.5q0 -51 29 -85.5t75 -53t101.5 -32t111 -31t101.5 -42.5t75 -73t29 -117q0 -99 -52.5 -172.5t-134 -109t-177.5 -35.5zM498 1096l276 266h68l-283 -266h-61z" />
    <glyph glyph-name="Scircumflex" unicode="&#x15c;" horiz-adv-x="1003" 
d="M434 -20q-181 0 -279.5 129t-58.5 315h49q-10 -57 -9.5 -113t22 -108t55.5 -91.5t91.5 -63t129.5 -23.5q95 0 171 36t121.5 95t69 130.5t23.5 147.5q0 77 -31 132.5t-80.5 87t-109.5 56.5t-119.5 50.5t-109 58.5t-80.5 90.5t-31 137.5q0 77 25 148.5t73 130t126.5 93.5
t176.5 35q173 0 269 -105.5t61 -267.5h-49q25 147 -50 237.5t-231 90.5q-87 0 -156.5 -33t-110.5 -86.5t-62 -115.5t-21 -125t24 -110.5t63.5 -75t90 -52.5t103 -43t103 -46t90 -62t63.5 -91.5t24 -132.5q0 -89 -27 -169t-79 -145t-137.5 -103.5t-192.5 -38.5zM410 1516
l333 233h41l234 -233h-60l-196 194l-283 -194h-69z" />
    <glyph glyph-name="scircumflex" unicode="&#x15d;" horiz-adv-x="884" 
d="M379 -20q-161 0 -255 85.5t-79 219.5h49q-15 -119 65.5 -189.5t219.5 -70.5q129 0 221 73.5t92 196.5q0 59 -29 100t-75 63t-101.5 37.5l-111 31t-101.5 37t-75 62t-29 99.5q0 135 101 210t245 75q143 0 229 -73.5t74 -195.5h-49q6 99 -61.5 161.5t-192.5 62.5
q-43 0 -84 -8t-79.5 -26t-67.5 -44t-46.5 -66.5t-17.5 -89.5q0 -51 29 -85.5t75 -53t101.5 -32t111 -31t101.5 -42.5t75 -73t29 -117q0 -99 -52.5 -172.5t-134 -109t-177.5 -35.5zM281 1096l292 266h52l176 -266h-47l-158 227l-254 -227h-61z" />
    <glyph glyph-name="Scedilla" unicode="&#x15e;" horiz-adv-x="1003" 
d="M96 424h49q-10 -57 -9.5 -113t22 -108t55.5 -91.5t91.5 -63t129.5 -23.5q95 0 171 36t121.5 95t69 130.5t23.5 147.5q0 77 -31 132.5t-80.5 87t-109.5 56.5t-119.5 50.5t-109 58.5t-80.5 90.5t-31 137.5q0 77 25 148.5t73 130t126.5 93.5t176.5 35q173 0 269 -105.5
t61 -267.5h-49q25 147 -50 237.5t-231 90.5q-87 0 -156.5 -33t-110.5 -86.5t-62 -115.5t-21 -125t24 -110.5t63.5 -75t90 -52.5t103 -43t103 -46t90 -62t63.5 -91.5t24 -132.5q0 -86 -25.5 -164.5t-74 -143t-129 -104.5t-182.5 -44l-80 -142h41q58 0 92.5 -35t34.5 -94
q0 -80 -55 -129t-138 -49h-94l10 45h95q56 0 96.5 38t40.5 93q0 39 -25 62.5t-67 23.5h-91l9 39l84 148q-172 9 -263 136.5t-53 307.5z" />
    <glyph glyph-name="scedilla" unicode="&#x15f;" horiz-adv-x="884" 
d="M45 285h49q-15 -119 65.5 -189.5t219.5 -70.5q129 0 221 73.5t92 196.5q0 59 -29 100t-75 63t-101.5 37.5l-111 31t-101.5 37t-75 62t-29 99.5q0 135 101 210t245 75q143 0 229 -73.5t74 -195.5h-49q6 99 -61.5 161.5t-192.5 62.5q-43 0 -84 -8t-79.5 -26t-67.5 -44
t-46.5 -66.5t-17.5 -89.5q0 -51 29 -85.5t75 -53t101.5 -32t111 -31t101.5 -42.5t75 -73t29 -117q0 -96 -49.5 -168.5t-127.5 -109t-171 -39.5l-80 -142h41q58 0 92.5 -35t34.5 -94q0 -80 -54.5 -129t-137.5 -49h-94l10 45h94q56 0 96.5 38t40.5 93q0 39 -25 62.5t-67 23.5
h-90l8 39l84 148q-150 9 -234 93.5t-69 211.5z" />
    <glyph glyph-name="Scaron" unicode="&#x160;" horiz-adv-x="1003" 
d="M434 -20q-181 0 -279.5 129t-58.5 315h49q-10 -57 -9.5 -113t22 -108t55.5 -91.5t91.5 -63t129.5 -23.5q95 0 171 36t121.5 95t69 130.5t23.5 147.5q0 77 -31 132.5t-80.5 87t-109.5 56.5t-119.5 50.5t-109 58.5t-80.5 90.5t-31 137.5q0 77 25 148.5t73 130t126.5 93.5
t176.5 35q173 0 269 -105.5t61 -267.5h-49q25 147 -50 237.5t-231 90.5q-87 0 -156.5 -33t-110.5 -86.5t-62 -115.5t-21 -125t24 -110.5t63.5 -75t90 -52.5t103 -43t103 -46t90 -62t63.5 -91.5t24 -132.5q0 -89 -27 -169t-79 -145t-137.5 -103.5t-192.5 -38.5zM461 1767h57
l197 -213l284 213h68l-336 -251h-41z" />
    <glyph glyph-name="scaron" unicode="&#x161;" horiz-adv-x="884" 
d="M379 -20q-161 0 -255 85.5t-79 219.5h49q-15 -119 65.5 -189.5t219.5 -70.5q129 0 221 73.5t92 196.5q0 59 -29 100t-75 63t-101.5 37.5l-111 31t-101.5 37t-75 62t-29 99.5q0 135 101 210t245 75q143 0 229 -73.5t74 -195.5h-49q6 99 -61.5 161.5t-192.5 62.5
q-43 0 -84 -8t-79.5 -26t-67.5 -44t-46.5 -66.5t-17.5 -89.5q0 -51 29 -85.5t75 -53t101.5 -32t111 -31t101.5 -42.5t75 -73t29 -117q0 -99 -52.5 -172.5t-134 -109t-177.5 -35.5zM338 1362h49l158 -225l252 225h61l-293 -266h-49z" />
    <glyph glyph-name="uni0162" unicode="&#x162;" horiz-adv-x="921" 
d="M223 1389l8 45h852l-8 -45h-401l-291 -1371l-4 -18l-92 -162h41q58 0 92.5 -35t34.5 -94q0 -80 -55 -129t-138 -49h-94l10 45h94q56 0 97 38t41 93q0 39 -25.5 62.5t-67.5 23.5h-90l9 39l94 168l295 1389h-402z" />
    <glyph glyph-name="uni0163" unicode="&#x163;" horiz-adv-x="626" 
d="M102 944l9 45h211l59 281h49l-59 -281h321l-8 -45h-322l-145 -678q-25 -113 14.5 -167t147.5 -54h113l-9 -45h-104h-14l-93 -162h41q58 0 92.5 -35t34.5 -94q0 -80 -54.5 -129t-137.5 -49h-94l10 45h94q56 0 96.5 38t40.5 93q0 39 -25 62.5t-67 23.5h-90l8 39l96 172
q-202 27 -149 262l145 678h-211z" />
    <glyph glyph-name="Tcaron" unicode="&#x164;" horiz-adv-x="921" 
d="M223 1389l8 45h852l-8 -45h-401l-295 -1389h-49l295 1389h-402zM422 1767h57l197 -213l285 213h67l-336 -251h-41z" />
    <glyph glyph-name="tcaron" unicode="&#x165;" horiz-adv-x="626" 
d="M102 944l9 45h211l59 281h49l-59 -281h321l-8 -45h-322l-145 -678q-25 -113 14.5 -167t147.5 -54h113l-9 -45h-104q-269 0 -211 266l145 678h-211zM637 1096l127 385h57l-139 -385h-45z" />
    <glyph glyph-name="Tbar" unicode="&#x166;" horiz-adv-x="940" 
d="M238 733l8 41h270l131 615h-401l8 45h852l-8 -45h-402l-131 -615h244l-8 -41h-244l-156 -733h-49l156 733h-270z" />
    <glyph glyph-name="tbar" unicode="&#x167;" horiz-adv-x="665" 
d="M135 944l8 45h213l60 281h49l-59 -281h319l-8 -45h-320l-92 -428h320l-9 -41h-319l-45 -209q-25 -117 10 -169t150 -52h112l-8 -45h-102q-269 0 -211 266l45 209h-213l8 41h213l92 428h-213z" />
    <glyph glyph-name="Utilde" unicode="&#x168;" horiz-adv-x="1198" 
d="M510 -20q-184 0 -279 125t-53 325l213 1004h51l-219 -1024q-36 -169 45.5 -277t241.5 -108q170 0 282.5 109t151.5 296l213 1004h51l-213 -1004q-44 -210 -169.5 -330t-315.5 -120zM504 1518q26 104 78 154t110 50q38 0 80.5 -25.5t74 -56t68 -56t64.5 -25.5
q45 0 81.5 39t57.5 120h47q-24 -101 -76.5 -151.5t-109.5 -50.5q-39 0 -81 25.5t-72 56t-67 56t-67 25.5q-45 0 -83 -40t-60 -121h-45z" />
    <glyph glyph-name="utilde" unicode="&#x169;" horiz-adv-x="1153" 
d="M1077 989l-209 -989h-49l45 215q-70 -110 -178.5 -172.5t-234.5 -62.5q-178 0 -261.5 116t-42.5 314l123 579h49l-122 -579q-38 -183 31.5 -284t236.5 -101q159 0 280.5 105.5t159.5 281.5l123 577h49zM408 1126q49 246 198 246q39 0 68 -21t46.5 -50.5t34 -59.5
t40.5 -51t57 -21q45 0 82.5 51t58.5 150h47q-28 -126 -78 -187t-110 -61q-44 0 -76.5 21t-51 51t-34 60.5t-36.5 51.5t-48 21q-108 0 -151 -201h-47z" />
    <glyph glyph-name="Umacron" unicode="&#x16a;" horiz-adv-x="1198" 
d="M510 -20q-184 0 -279 125t-53 325l213 1004h51l-219 -1024q-36 -169 45.5 -277t241.5 -108q170 0 282.5 109t151.5 296l213 1004h51l-213 -1004q-44 -210 -169.5 -330t-315.5 -120zM516 1573l10 45h615l-11 -45h-614z" />
    <glyph glyph-name="umacron" unicode="&#x16b;" horiz-adv-x="1153" 
d="M1077 989l-209 -989h-49l45 215q-70 -110 -178.5 -172.5t-234.5 -62.5q-178 0 -261.5 116t-42.5 314l123 579h49l-122 -579q-38 -183 31.5 -284t236.5 -101q159 0 280.5 105.5t159.5 281.5l123 577h49zM414 1149l10 45h580l-11 -45h-579z" />
    <glyph glyph-name="Ubreve" unicode="&#x16c;" horiz-adv-x="1198" 
d="M510 -20q-184 0 -279 125t-53 325l213 1004h51l-219 -1024q-36 -169 45.5 -277t241.5 -108q170 0 282.5 109t151.5 296l213 1004h51l-213 -1004q-44 -210 -169.5 -330t-315.5 -120zM604 1755h43q-12 -92 35.5 -148.5t138.5 -56.5q96 0 166.5 56t85.5 149h43
q-19 -115 -98.5 -181.5t-196.5 -66.5q-113 0 -174.5 70t-42.5 178z" />
    <glyph glyph-name="ubreve" unicode="&#x16d;" horiz-adv-x="1153" 
d="M1077 989l-209 -989h-49l45 215q-70 -110 -178.5 -172.5t-234.5 -62.5q-178 0 -261.5 116t-42.5 314l123 579h49l-122 -579q-38 -183 31.5 -284t236.5 -101q159 0 280.5 105.5t159.5 281.5l123 577h49zM496 1356h45q-19 -105 25 -165.5t134 -60.5q91 0 162.5 64t93.5 162
h45q-26 -122 -109.5 -194t-191.5 -72q-113 0 -169.5 77.5t-34.5 188.5z" />
    <glyph glyph-name="Uring" unicode="&#x16e;" horiz-adv-x="1198" 
d="M510 -20q-184 0 -279 125t-53 325l213 1004h51l-219 -1024q-36 -169 45.5 -277t241.5 -108q170 0 282.5 109t151.5 296l213 1004h51l-213 -1004q-44 -210 -169.5 -330t-315.5 -120zM627 1694q9 87 78 143.5t163 56.5q97 0 155.5 -56.5t49.5 -143.5t-76.5 -145t-160.5 -58
q-99 0 -158.5 57.5t-50.5 145.5zM676 1694q-8 -69 38 -114.5t122 -45.5q74 0 127.5 45.5t60.5 114.5q7 67 -37.5 111t-118.5 44q-76 0 -130 -43.5t-62 -111.5z" />
    <glyph glyph-name="uring" unicode="&#x16f;" horiz-adv-x="1153" 
d="M1077 989l-209 -989h-49l45 215q-70 -110 -178.5 -172.5t-234.5 -62.5q-178 0 -261.5 116t-42.5 314l123 579h49l-122 -579q-38 -183 31.5 -284t236.5 -101q159 0 280.5 105.5t159.5 281.5l123 577h49zM463 1270q0 94 71.5 157.5t172.5 63.5q91 0 148.5 -50.5
t57.5 -129.5q0 -95 -70 -159.5t-169 -64.5q-92 0 -151.5 51.5t-59.5 131.5zM514 1272q0 -62 44.5 -102t115.5 -40q79 0 134.5 51.5t55.5 127.5q0 60 -44 98.5t-113 38.5q-82 0 -137.5 -49.5t-55.5 -124.5z" />
    <glyph glyph-name="Uhungarumlaut" unicode="&#x170;" horiz-adv-x="1198" 
d="M510 -20q-184 0 -279 125t-53 325l213 1004h51l-219 -1024q-36 -169 45.5 -277t241.5 -108q170 0 282.5 109t151.5 296l213 1004h51l-213 -1004q-44 -210 -169.5 -330t-315.5 -120zM627 1516l241 247h66l-246 -247h-61zM967 1516l239 247h68l-246 -247h-61z" />
    <glyph glyph-name="uhungarumlaut" unicode="&#x171;" horiz-adv-x="1153" 
d="M1077 989l-209 -989h-49l45 215q-70 -110 -178.5 -172.5t-234.5 -62.5q-178 0 -261.5 116t-42.5 314l123 579h49l-122 -579q-38 -183 31.5 -284t236.5 -101q159 0 280.5 105.5t159.5 281.5l123 577h49zM498 1096h55l211 266h-57zM809 1096h57l207 266h-57z" />
    <glyph glyph-name="Uogonek" unicode="&#x172;" horiz-adv-x="1198" 
d="M510 -20q-184 0 -279 125t-53 325l213 1004h51l-219 -1024q-36 -169 45.5 -277t241.5 -108q170 0 282.5 109t151.5 296l213 1004h51l-213 -1004q-36 -172 -128 -285.5t-230 -148.5q-101 -76 -148 -132t-47 -120q0 -41 25.5 -63.5t75.5 -22.5h57l-20 -43h-43
q-69 0 -104.5 31t-35.5 88q0 70 40 127.5t120 120.5q-16 -2 -47 -2z" />
    <glyph glyph-name="uogonek" unicode="&#x173;" horiz-adv-x="1153" 
d="M1077 989l-209 -989q-104 -78 -152 -134.5t-48 -121.5q0 -86 100 -86h57l-20 -43h-43q-69 0 -104 31t-35 88q0 78 49 140.5t149 137.5l43 203q-70 -110 -178.5 -172.5t-234.5 -62.5q-178 0 -261.5 116t-42.5 314l123 579h49l-122 -579q-38 -183 31.5 -284t236.5 -101
q159 0 280.5 105.5t159.5 281.5l123 577h49z" />
    <glyph glyph-name="Wcircumflex" unicode="&#x174;" horiz-adv-x="1785" 
d="M352 0l-94 1434h49l78 -1172l10 -207q27 58 90 187l580 1192h51l74 -1170l10 -207q27 58 90 187l584 1190h51l-700 -1434h-68l-84 1341l-653 -1341h-68zM805 1516l334 233h41l233 -233h-59l-197 194l-283 -194h-69z" />
    <glyph glyph-name="wcircumflex" unicode="&#x175;" horiz-adv-x="1523" 
d="M291 0l-135 989h49l125 -923l512 923h55l113 -921l512 921h55l-553 -989h-53l-113 926l-514 -926h-53zM629 1096l293 266h51l176 -266h-47l-158 227l-254 -227h-61z" />
    <glyph glyph-name="Ycircumflex" unicode="&#x176;" horiz-adv-x="983" 
d="M252 1434h51l234 -715l528 715h61l-571 -766l-141 -668h-52l142 668zM403 1516l334 233h41l234 -233h-60l-196 194l-283 -194h-70z" />
    <glyph glyph-name="ycircumflex" unicode="&#x177;" horiz-adv-x="987" 
d="M143 989h50l200 -952l604 952h54l-867 -1374h-51l227 365zM360 1096l293 266h52l176 -266h-47l-158 227l-254 -227h-62z" />
    <glyph glyph-name="Ydieresis" unicode="&#x178;" horiz-adv-x="983" 
d="M252 1434h51l234 -715l528 715h61l-571 -766l-141 -668h-52l142 668zM471 1526l18 90h89l-19 -90h-88zM862 1526l19 90h88l-19 -90h-88z" />
    <glyph glyph-name="Zacute" unicode="&#x179;" horiz-adv-x="927" 
d="M291 1434h770l-8 -45l-1043 -1344h764l-8 -45h-821l8 45l1042 1344h-712zM639 1516l266 239h70l-268 -239h-68z" />
    <glyph glyph-name="zacute" unicode="&#x17a;" horiz-adv-x="927" 
d="M-53 0l8 45l946 899h-727l8 45h789l-8 -45l-945 -899h752l-8 -45h-815zM543 1096l276 266h68l-283 -266h-61z" />
    <glyph glyph-name="Zdotaccent" unicode="&#x17b;" horiz-adv-x="927" 
d="M291 1434h770l-8 -45l-1043 -1344h764l-8 -45h-821l8 45l1042 1344h-712zM637 1526l18 90h88l-18 -90h-88z" />
    <glyph glyph-name="zdotaccent" unicode="&#x17c;" horiz-adv-x="927" 
d="M-53 0l8 45l946 899h-727l8 45h789l-8 -45l-945 -899h752l-8 -45h-815zM584 1262l34 172h76l-35 -172h-75z" />
    <glyph glyph-name="Zcaron" unicode="&#x17d;" horiz-adv-x="927" 
d="M291 1434h770l-8 -45l-1043 -1344h764l-8 -45h-821l8 45l1042 1344h-712zM426 1767h57l197 -213l285 213h67l-336 -251h-41z" />
    <glyph glyph-name="zcaron" unicode="&#x17e;" horiz-adv-x="927" 
d="M-53 0l8 45l946 899h-727l8 45h789l-8 -45l-945 -899h752l-8 -45h-815zM383 1362h49l158 -225l252 225h61l-293 -266h-49z" />
    <glyph glyph-name="longs" unicode="&#x17f;" horiz-adv-x="450" 
d="M113 944l8 45h205l39 176q55 269 319 269h45l-8 -45h-45q-109 0 -173 -54.5t-89 -169.5l-248 -1165h-49l200 944h-204z" />
    <glyph glyph-name="uni018F" unicode="&#x18f;" horiz-adv-x="1595" 
d="M922 1454q131 0 245.5 -47.5t195 -128t127 -191.5t46.5 -235q0 -176 -57.5 -334t-161 -277.5t-258.5 -190t-338 -70.5q-263 0 -430.5 149.5t-167.5 372.5q0 94 18 172h1327q17 97 17 174q0 115 -43 218.5t-117.5 179t-181.5 119.5t-230 44q-220 0 -392 -113t-247 -297
h-55q85 206 268.5 330.5t434.5 124.5zM182 629q-30 -169 32 -308t198 -217.5t317 -78.5q142 0 266 47.5t215 131t154.5 192t93.5 233.5h-1276z" />
    <glyph glyph-name="florin" unicode="&#x192;" horiz-adv-x="759" 
d="M-82 -385l8 45h25q109 0 173 54t89 167l227 1063h-221l8 45h222l38 176q55 269 322 269h65l-8 -45h-65q-215 0 -264 -224l-39 -176h282l-8 -45h-283l-227 -1063q-28 -135 -106 -200.5t-213 -65.5h-25z" />
    <glyph glyph-name="uni019D" unicode="&#x19d;" horiz-adv-x="1224" 
d="M827 291q20 -60 36.5 -116.5t22.5 -82.5l7 -26q10 90 39 231l239 1137h52l-303 -1434h-48l-378 1139q-20 60 -36.5 116.5t-23.5 82.5l-6 26q-10 -90 -39 -231l-250 -1170q-38 -177 -127 -262.5t-237 -85.5h-88l8 45h88q123 0 199 74.5t108 228.5l311 1471h45z" />
    <glyph glyph-name="Gcaron" unicode="&#x1e6;" horiz-adv-x="1583" 
d="M762 -20q-275 0 -443.5 166t-168.5 436q0 173 68.5 333.5t183 278.5t273.5 189t331 71q213 0 367.5 -115.5t182.5 -287.5h-51q-29 157 -171.5 257.5t-327.5 100.5q-166 0 -317.5 -69.5t-258.5 -183.5t-170 -265.5t-63 -310.5q0 -247 157 -402t408 -155q257 0 451 176
t260 465l-549 -2l10 45h590q-4 -34 -8 -50q-41 -194 -147.5 -347.5t-265 -241.5t-341.5 -88zM768 1767h57l197 -213l285 213h67l-336 -251h-41z" />
    <glyph glyph-name="gcaron" unicode="&#x1e7;" horiz-adv-x="1292" 
d="M344 -385q-87 0 -152.5 17.5t-111 54t-62 96.5t-0.5 141l9 41h49l-10 -51q-27 -129 48.5 -191.5t229.5 -62.5h213q176 0 271 79t133 261l53 250q-74 -115 -193 -177.5t-266 -62.5q-198 0 -326.5 122t-128.5 306q0 143 70 273.5t200.5 214.5t288.5 84q183 0 300.5 -90.5
t142.5 -249.5l67 319h50l-209 -989q-44 -208 -151 -296.5t-302 -88.5h-213zM150 438q0 -166 113 -274.5t290 -108.5q121 0 222 45.5t164.5 120.5t98.5 168t35 191q0 171 -113.5 278t-297.5 107q-116 0 -215 -47.5t-162.5 -123.5t-99 -169t-35.5 -187zM508 1362h49l158 -225
l252 225h61l-293 -266h-49z" />
    <glyph glyph-name="uni01EA" unicode="&#x1ea;" horiz-adv-x="1654" 
d="M772 -20q-133 0 -248 48.5t-196 133t-127.5 202t-46.5 250.5q0 161 64.5 314t173.5 269t263.5 186.5t325.5 70.5q176 0 318 -82t221 -224.5t79 -316.5q0 -193 -87 -371.5t-244.5 -304.5t-352.5 -163q-99 -74 -144.5 -129t-45.5 -119q0 -86 100 -86h58l-21 -43h-43
q-69 0 -104 31t-35 88q0 70 40 127.5t120 120.5q-23 -2 -68 -2zM203 614q0 -168 72.5 -302.5t204 -210.5t298.5 -76q75 0 135 14h2q176 35 322 151.5t229.5 285t83.5 353.5q0 252 -161 416t-414 164q-155 0 -298 -65.5t-246.5 -173.5t-165.5 -254t-62 -302z" />
    <glyph glyph-name="uni01EB" unicode="&#x1eb;" horiz-adv-x="1212" 
d="M532 -20q-188 0 -313 128t-125 318q0 149 78 283.5t214 217.5t294 83q189 0 314.5 -129.5t125.5 -319.5q0 -132 -63.5 -254.5t-175 -207t-246.5 -109.5q-97 -74 -141.5 -128.5t-44.5 -117.5q0 -86 100 -86h57l-20 -43h-43q-69 0 -104.5 31t-35.5 88q0 70 39.5 126
t118.5 120h-29zM143 424q0 -173 111 -286t285 -113q32 0 94 8l6 6v-4q181 39 306.5 190.5t125.5 337.5q0 171 -112.5 286.5t-284.5 115.5q-142 0 -265.5 -76.5t-194.5 -201t-71 -263.5z" />
    <glyph glyph-name="Aringacute" unicode="&#x1fa;" horiz-adv-x="1120" 
d="M-61 0l798 1434h56l186 -1434h-51l-56 428h-641l-237 -428h-55zM258 475h610l-114 895zM594 1694q9 87 78 143.5t164 56.5q48 0 86 -14l231 209h70l-258 -229q87 -61 75 -166q-9 -87 -76.5 -145t-160.5 -58q-99 0 -158.5 57.5t-50.5 145.5zM643 1694q-7 -69 38 -114.5
t122 -45.5q74 0 127.5 45.5t60.5 114.5q7 67 -37 111t-118 44q-77 0 -131.5 -44t-61.5 -111z" />
    <glyph glyph-name="aringacute" unicode="&#x1fb;" horiz-adv-x="1079" 
d="M385 -20q-145 0 -232 68t-87 181q0 87 41 153t113.5 106.5t166.5 60.5t207 20h287l10 47q11 56 12.5 107t-16.5 95.5t-50.5 77t-89.5 51t-133 18.5q-140 0 -249.5 -80t-135.5 -203h-53q29 141 153.5 234.5t284.5 93.5q85 0 150 -21.5t103.5 -58.5t61 -87t22.5 -107.5
t-11 -119.5l-131 -616h-49l49 236q-75 -115 -189 -185.5t-235 -70.5zM117 231q0 -93 73.5 -149.5t194.5 -56.5q161 0 296 121.5t171 289.5l18 88h-276q-94 0 -175.5 -15.5t-151.5 -48t-110 -91t-40 -138.5zM434 1270q0 94 71.5 157.5t172.5 63.5h16l246 235h68l-260 -243
q64 -19 100.5 -64.5t36.5 -107.5q0 -94 -70.5 -159t-169.5 -65q-92 0 -151.5 51.5t-59.5 131.5zM485 1272q0 -62 44.5 -102t115.5 -40q79 0 135 51.5t56 127.5q0 60 -44.5 98.5t-113.5 38.5q-82 0 -137.5 -49.5t-55.5 -124.5z" />
    <glyph glyph-name="AEacute" unicode="&#x1fc;" horiz-adv-x="1476" 
d="M-115 0l1035 1434h661l-8 -45h-578l-125 -582h502l-8 -45h-502l-153 -717h577l-8 -45h-627l90 430h-489l-309 -430h-58zM285 475h467l192 914zM1231 1516l266 239h70l-269 -239h-67z" />
    <glyph glyph-name="aeacute" unicode="&#x1fd;" horiz-adv-x="1914" 
d="M1286 -20q-191 0 -297 101t-125 259q-62 -154 -197 -257t-282 -103q-145 0 -232 68t-87 181q0 87 41 153t113.5 106.5t166.5 60.5t207 20h287l10 47q11 57 12 108.5t-17 95.5t-50.5 76.5t-89 50.5t-132.5 18q-140 0 -249.5 -80t-135.5 -203h-53q29 141 153.5 234.5
t284.5 93.5q170 0 252.5 -77.5t85.5 -203.5q79 131 210.5 206t277.5 75q180 0 291.5 -102t111.5 -261q0 -73 -12 -123h-911q-13 -63 -13 -121q0 -169 103.5 -273.5t275.5 -104.5q91 0 176 31t154 93.5t104 147.5h54q-63 -155 -195.5 -236t-292.5 -81zM117 231
q0 -93 73.5 -149.5t194.5 -56.5q161 0 297 121.5t170 289.5l18 88h-276q-94 0 -175.5 -15.5t-151.5 -48t-110 -91t-40 -138.5zM932 569h858q25 165 -74 280.5t-276 115.5q-167 0 -310.5 -111.5t-197.5 -284.5zM1049 1096l276 266h68l-283 -266h-61z" />
    <glyph glyph-name="Oslashacute" unicode="&#x1fe;" horiz-adv-x="1654" 
d="M74 -86l-33 35l256 248q-143 176 -143 417q0 161 64.5 314t173.5 269t263.5 186.5t325.5 70.5q133 0 247 -47t197 -133l234 225l35 -33l-238 -225q143 -173 143 -410q0 -161 -63.5 -315.5t-172 -273t-264 -190.5t-327.5 -72q-268 0 -444 182zM203 614q0 -227 129 -387
l1061 1014q-165 168 -418 168q-155 0 -298 -65.5t-246.5 -173.5t-165.5 -254t-62 -302zM362 193q76 -80 183.5 -124t232.5 -44q206 0 385 112.5t283 298t104 393.5q0 225 -129 379zM1001 1516l267 239h69l-268 -239h-68z" />
    <glyph glyph-name="oslashacute" unicode="&#x1ff;" horiz-adv-x="1212" 
d="M78 -47l-35 31l154 149q-103 122 -103 293q0 149 78 283.5t214 217.5t294 83q181 0 301 -117l147 143l35 -32l-149 -144q106 -125 106 -299q0 -111 -47 -217.5t-125.5 -186.5t-188 -128.5t-227.5 -48.5q-181 0 -305 118zM143 424q0 -152 86 -258l719 694
q-111 105 -274 105q-142 0 -265.5 -76.5t-194.5 -201t-71 -263.5zM260 131q109 -106 279 -106q140 0 263 74.5t196 199t73 264.5q0 155 -92 264zM690 1096l277 266h67l-282 -266h-62z" />
    <glyph glyph-name="uni0218" unicode="&#x218;" horiz-adv-x="1003" 
d="M434 -20q-181 0 -279.5 129t-58.5 315h49q-10 -57 -9.5 -113t22 -108t55.5 -91.5t91.5 -63t129.5 -23.5q95 0 171 36t121.5 95t69 130.5t23.5 147.5q0 77 -31 132.5t-80.5 87t-109.5 56.5t-119.5 50.5t-109 58.5t-80.5 90.5t-31 137.5q0 77 25 148.5t73 130t126.5 93.5
t176.5 35q173 0 269 -105.5t61 -267.5h-49q25 147 -50 237.5t-231 90.5q-87 0 -156.5 -33t-110.5 -86.5t-62 -115.5t-21 -125t24 -110.5t63.5 -75t90 -52.5t103 -43t103 -46t90 -62t63.5 -91.5t24 -132.5q0 -89 -27 -169t-79 -145t-137.5 -103.5t-192.5 -38.5zM188 -334
l215 266h56l-221 -266h-50z" />
    <glyph glyph-name="uni0219" unicode="&#x219;" horiz-adv-x="884" 
d="M379 -20q-161 0 -255 85.5t-79 219.5h49q-15 -119 65.5 -189.5t219.5 -70.5q129 0 221 73.5t92 196.5q0 59 -29 100t-75 63t-101.5 37.5l-111 31t-101.5 37t-75 62t-29 99.5q0 135 101 210t245 75q143 0 229 -73.5t74 -195.5h-49q6 99 -61.5 161.5t-192.5 62.5
q-43 0 -84 -8t-79.5 -26t-67.5 -44t-46.5 -66.5t-17.5 -89.5q0 -51 29 -85.5t75 -53t101.5 -32t111 -31t101.5 -42.5t75 -73t29 -117q0 -99 -52.5 -172.5t-134 -109t-177.5 -35.5zM125 -334l215 266h55l-221 -266h-49z" />
    <glyph glyph-name="uni021A" unicode="&#x21a;" horiz-adv-x="921" 
d="M223 1389l8 45h852l-8 -45h-401l-295 -1389h-49l295 1389h-402zM96 -334l215 266h56l-222 -266h-49z" />
    <glyph glyph-name="uni021B" unicode="&#x21b;" horiz-adv-x="626" 
d="M102 944l9 45h211l59 281h49l-59 -281h321l-8 -45h-322l-145 -678q-25 -113 14.5 -167t147.5 -54h113l-9 -45h-104q-269 0 -211 266l145 678h-211zM82 -334l215 266h55l-221 -266h-49z" />
    <glyph glyph-name="uni0232" unicode="&#x232;" horiz-adv-x="983" 
d="M252 1434h51l234 -715l528 715h61l-571 -766l-141 -668h-52l142 668zM412 1573l10 45h614l-10 -45h-614z" />
    <glyph glyph-name="uni0233" unicode="&#x233;" horiz-adv-x="987" 
d="M143 989h50l200 -952l604 952h54l-867 -1374h-51l227 365zM342 1149l10 45h580l-10 -45h-580z" />
    <glyph glyph-name="uni0237" unicode="&#x237;" horiz-adv-x="411" 
d="M-121 -342q55 0 98 37.5t58 103.5l252 1190h49l-252 -1190q-18 -86 -76.5 -135t-136.5 -49h-88l8 43h88z" />
    <glyph glyph-name="uni0259" unicode="&#x259;" horiz-adv-x="1148" 
d="M631 1010q203 0 314.5 -118.5t111.5 -305.5q0 -168 -80.5 -308t-213.5 -219t-286 -79q-210 0 -322 135t-71 336l4 14h909q13 63 13 121q0 169 -103.5 274t-275.5 105q-91 0 -176 -31.5t-154 -94t-104 -147.5h-54q64 155 196 236.5t292 81.5zM127 420q-26 -169 74.5 -282
t275.5 -113q168 0 311 111t197 284h-858z" />
    <glyph glyph-name="uni0272" unicode="&#x272;" horiz-adv-x="1153" 
d="M-217 -385l8 43h88q56 0 99.5 37.5t56.5 103.5l252 1190h49l-45 -213q70 109 179 171.5t235 62.5q179 0 262 -116t41 -314l-123 -580h-49l122 580q37 174 -28.5 279.5t-239.5 105.5q-159 0 -280.5 -105.5t-159.5 -281.5l-166 -779q-18 -86 -76.5 -135t-136.5 -49h-88z
" />
    <glyph glyph-name="uni02B9" unicode="&#x2b9;" horiz-adv-x="258" 
d="M254 1098l20 205l27 131h74l-27 -131l-65 -205h-29z" />
    <glyph glyph-name="uni02BA" unicode="&#x2ba;" horiz-adv-x="471" 
d="M467 1098l20 205l27 131h74l-27 -131l-65 -205h-29zM254 1098l20 205l27 131h74l-27 -131l-65 -205h-29z" />
    <glyph glyph-name="circumflex" unicode="&#x2c6;" horiz-adv-x="929" 
d="M332 1096l293 266h51l176 -266h-47l-158 227l-254 -227h-61z" />
    <glyph glyph-name="caron" unicode="&#x2c7;" horiz-adv-x="929" 
d="M567 1096l-178 266h49l158 -225l252 225h61l-293 -266h-49z" />
    <glyph glyph-name="breve" unicode="&#x2d8;" horiz-adv-x="915" 
d="M893 1356q-26 -122 -109.5 -194t-191.5 -72q-113 0 -170 77.5t-35 188.5h45q-19 -105 25.5 -165.5t134.5 -60.5q91 0 162.5 64t93.5 162h45z" />
    <glyph glyph-name="dotaccent" unicode="&#x2d9;" horiz-adv-x="483" 
d="M401 1434h76l-35 -172h-75z" />
    <glyph glyph-name="ring" unicode="&#x2da;" horiz-adv-x="858" 
d="M584 1087q-92 0 -151.5 51.5t-59.5 131.5q0 94 71 157.5t172 63.5q91 0 149 -50.5t58 -129.5q0 -95 -70 -159.5t-169 -64.5zM424 1272q0 -62 44.5 -102t115.5 -40q79 0 134.5 51.5t55.5 127.5q0 60 -44.5 98.5t-113.5 38.5q-82 0 -137 -49.5t-55 -124.5z" />
    <glyph glyph-name="ogonek" unicode="&#x2db;" horiz-adv-x="727" 
d="M188 -385q-77 0 -114 44t-23 114q33 158 301 266l10 -39q-108 -36 -179.5 -96t-86.5 -131q-11 -52 15.5 -83.5t85.5 -31.5h147l-8 -43h-148z" />
    <glyph glyph-name="tilde" unicode="&#x2dc;" horiz-adv-x="991" 
d="M784 1122q-44 0 -76.5 21t-50.5 51t-33.5 60.5t-36.5 51.5t-48 21q-109 0 -152 -201h-47q49 246 199 246q39 0 68 -21t46.5 -50.5t33.5 -59.5t40 -51t57 -21q45 0 83 51t59 150h47q-28 -126 -78.5 -187t-110.5 -61z" />
    <glyph glyph-name="hungarumlaut" unicode="&#x2dd;" horiz-adv-x="927" 
d="M387 1096l211 266h-57l-209 -266h55zM643 1096h57l207 266h-57z" />
    <glyph glyph-name="gravecomb" unicode="&#x300;" 
d="M393 1364h53l142 -268h-49z" />
    <glyph glyph-name="acutecomb" unicode="&#x301;" 
d="M676 1362l-283 -266h-61l276 266h68z" />
    <glyph glyph-name="uni0302" unicode="&#x302;" 
d="M332 1096l293 266h51l176 -266h-47l-158 227l-254 -227h-61z" />
    <glyph glyph-name="tildecomb" unicode="&#x303;" 
d="M784 1122q-44 0 -76.5 21t-50.5 51t-33.5 60.5t-36.5 51.5t-48 21q-109 0 -152 -201h-47q49 246 199 246q39 0 68 -21t46.5 -50.5t33.5 -59.5t40 -51t57 -21q45 0 83 51t59 150h47q-28 -126 -78.5 -187t-110.5 -61z" />
    <glyph glyph-name="uni0304" unicode="&#x304;" 
d="M344 1149l10 45h580l-10 -45h-580z" />
    <glyph glyph-name="uni0306" unicode="&#x306;" 
d="M893 1356q-26 -122 -109.5 -194t-191.5 -72q-113 0 -170 77.5t-35 188.5h45q-19 -105 25.5 -165.5t134.5 -60.5q91 0 162.5 64t93.5 162h45z" />
    <glyph glyph-name="uni0307" unicode="&#x307;" 
d="M401 1434h76l-35 -172h-75z" />
    <glyph glyph-name="uni0308" unicode="&#x308;" 
d="M684 1253h88l-20 -90h-88zM346 1163l21 90h88l-21 -90h-88z" />
    <glyph glyph-name="uni030A" unicode="&#x30a;" 
d="M584 1087q-92 0 -151.5 51.5t-59.5 131.5q0 94 71 157.5t172 63.5q91 0 149 -50.5t58 -129.5q0 -95 -70 -159.5t-169 -64.5zM424 1272q0 -62 44.5 -102t115.5 -40q79 0 134.5 51.5t55.5 127.5q0 60 -44.5 98.5t-113.5 38.5q-82 0 -137 -49.5t-55 -124.5z" />
    <glyph glyph-name="uni030B" unicode="&#x30b;" 
d="M387 1096l211 266h-57l-209 -266h55zM643 1096h57l207 266h-57z" />
    <glyph glyph-name="uni030C" unicode="&#x30c;" 
d="M567 1096l-178 266h49l158 -225l252 225h61l-293 -266h-49z" />
    <glyph glyph-name="uni0312" unicode="&#x312;" 
d="M332 1096l217 245h53l-211 -245h-59z" />
    <glyph glyph-name="uni0326" unicode="&#x326;" 
d="M299 -68l-221 -266h-49l215 266h55z" />
    <glyph glyph-name="uni0327" unicode="&#x327;" 
d="M215 18l-4 -18l-92 -162h41q58 0 92.5 -35t34.5 -94q0 -80 -55 -129t-138 -49h-94l10 45h94q56 0 97 38t41 93q0 39 -25 62.5t-67 23.5h-91l9 39l104 186h43z" />
    <glyph glyph-name="uni0328" unicode="&#x328;" 
d="M188 -385q-69 0 -104 31t-35 88q0 45 16 85t52 78.5t71.5 67.5t96.5 74l10 -39q-105 -78 -153 -134.5t-48 -121.5q0 -41 25.5 -63.5t75.5 -22.5h57l-21 -43h-43z" />
    <glyph glyph-name="uni0394" unicode="&#x394;" horiz-adv-x="1247" 
d="M-61 0l8 45l846 1389h61l256 -1389l-8 -45h-1163zM2 45h1059l-246 1339z" />
    <glyph glyph-name="uni03A9" unicode="&#x3a9;" horiz-adv-x="1634" 
d="M23 0l8 45h442q-311 244 -311 565q0 104 29 208.5t81.5 198t129.5 174t168.5 138.5t202.5 91.5t228 33.5q263 0 421.5 -154.5t158.5 -410.5q0 -140 -47 -268.5t-131.5 -233t-189.5 -189t-232 -153.5h434l-8 -45h-510l8 45q138 72 249 157.5t198.5 190.5t135.5 232t48 266
q0 233 -145.5 375.5t-389.5 142.5q-131 0 -254 -44t-218.5 -121.5t-168 -178t-111 -218t-38.5 -235.5q0 -319 332 -567l-8 -45h-512z" />
    <glyph glyph-name="uni03BC" unicode="&#x3bc;" horiz-adv-x="1169" 
d="M-4 -385l291 1374h49l-127 -596q-32 -175 39 -271.5t233 -96.5q159 0 281 105.5t160 281.5l122 577h50l-209 -989h-49l45 215q-70 -110 -179 -172.5t-235 -62.5q-118 0 -195.5 52.5t-105.5 149.5l-121 -567h-49z" />
    <glyph glyph-name="pi" unicode="&#x3c0;" horiz-adv-x="1161" 
d="M102 944l9 45h1081l-8 -45h-223l-148 -686q-25 -115 14 -167t148 -52h41l-10 -45h-31q-137 0 -188 67.5t-19 214.5l143 668h-536l-201 -944h-49l201 944h-224z" />
    <glyph glyph-name="uni0E3F" unicode="&#xe3f;" horiz-adv-x="997" 
d="M741 1675l-53 -243q145 -9 226 -85.5t81 -203.5q0 -153 -109.5 -265t-252.5 -126q98 -8 165.5 -87.5t67.5 -207.5q0 -198 -125.5 -327.5t-334.5 -129.5h-21l-53 -246h-49l53 246h-238l303 1434h238l53 241h49zM156 45h252q101 0 181 35t128.5 94t74 131t25.5 152
q0 121 -68.5 193.5t-189.5 72.5h-258zM309 768h217q102 0 198 46t160 133.5t64 193.5q0 114 -81 181t-222 67h-203z" />
    <glyph glyph-name="uni1E20" unicode="&#x1e20;" horiz-adv-x="1583" 
d="M762 -20q-275 0 -443.5 166t-168.5 436q0 173 68.5 333.5t183 278.5t273.5 189t331 71q213 0 367.5 -115.5t182.5 -287.5h-51q-29 157 -171.5 257.5t-327.5 100.5q-166 0 -317.5 -69.5t-258.5 -183.5t-170 -265.5t-63 -310.5q0 -247 157 -402t408 -155q257 0 451 176
t260 465l-549 -2l10 45h590q-4 -34 -8 -50q-41 -194 -147.5 -347.5t-265 -241.5t-341.5 -88zM725 1573l10 45h615l-11 -45h-614z" />
    <glyph glyph-name="uni1E21" unicode="&#x1e21;" horiz-adv-x="1292" 
d="M344 -385q-87 0 -152.5 17.5t-111 54t-62 96.5t-0.5 141l9 41h49l-10 -51q-27 -129 48.5 -191.5t229.5 -62.5h213q176 0 271 79t133 261l53 250q-74 -115 -193 -177.5t-266 -62.5q-198 0 -326.5 122t-128.5 306q0 143 70 273.5t200.5 214.5t288.5 84q183 0 300.5 -90.5
t142.5 -249.5l67 319h50l-209 -989q-44 -208 -151 -296.5t-302 -88.5h-213zM150 438q0 -166 113 -274.5t290 -108.5q121 0 222 45.5t164.5 120.5t98.5 168t35 191q0 171 -113.5 278t-297.5 107q-116 0 -215 -47.5t-162.5 -123.5t-99 -169t-35.5 -187zM432 1149l10 45h580
l-10 -45h-580z" />
    <glyph glyph-name="Wgrave" unicode="&#x1e80;" horiz-adv-x="1785" 
d="M352 0l-94 1434h49l78 -1172l10 -207q27 58 90 187l580 1192h51l74 -1170l10 -207q27 58 90 187l584 1190h51l-700 -1434h-68l-84 1341l-653 -1341h-68zM926 1755h55l166 -239h-53z" />
    <glyph glyph-name="wgrave" unicode="&#x1e81;" horiz-adv-x="1523" 
d="M291 0l-135 989h49l125 -923l512 923h55l113 -921l512 921h55l-553 -989h-53l-113 926l-514 -926h-53zM713 1364h53l141 -268h-49z" />
    <glyph glyph-name="Wacute" unicode="&#x1e82;" horiz-adv-x="1785" 
d="M352 0l-94 1434h49l78 -1172l10 -207q27 58 90 187l580 1192h51l74 -1170l10 -207q27 58 90 187l584 1190h51l-700 -1434h-68l-84 1341l-653 -1341h-68zM1069 1516l266 239h70l-268 -239h-68z" />
    <glyph glyph-name="wacute" unicode="&#x1e83;" horiz-adv-x="1523" 
d="M291 0l-135 989h49l125 -923l512 923h55l113 -921l512 921h55l-553 -989h-53l-113 926l-514 -926h-53zM846 1096l276 266h68l-283 -266h-61z" />
    <glyph glyph-name="Wdieresis" unicode="&#x1e84;" horiz-adv-x="1785" 
d="M352 0l-94 1434h49l78 -1172l10 -207q27 58 90 187l580 1192h51l74 -1170l10 -207q27 58 90 187l584 1190h51l-700 -1434h-68l-84 1341l-653 -1341h-68zM872 1526l19 90h88l-18 -90h-89zM1264 1526l18 90h88l-18 -90h-88z" />
    <glyph glyph-name="wdieresis" unicode="&#x1e85;" horiz-adv-x="1523" 
d="M291 0l-135 989h49l125 -923l512 923h55l113 -921l512 921h55l-553 -989h-53l-113 926l-514 -926h-53zM700 1163l21 90h88l-21 -90h-88zM1018 1163l20 90h88l-20 -90h-88z" />
    <glyph glyph-name="uni1E9E" unicode="&#x1e9e;" horiz-adv-x="1212" 
d="M735 1434h527l-7 -37l-565 -600h76q150 0 238 -91t88 -227q0 -119 -63.5 -229t-177 -180t-245.5 -70h-305l8 45h297q114 0 215.5 61.5t162 162t60.5 210.5q0 119 -75.5 196t-202.5 77h-139l10 49l551 588h-461q-295 0 -369 -340l-221 -1049h-49l221 1049q79 385 426 385z
" />
    <glyph glyph-name="uni1EA0" unicode="&#x1ea0;" horiz-adv-x="1120" 
d="M-61 0l798 1434h56l186 -1434h-51l-56 428h-641l-237 -428h-55zM258 475h610l-114 895zM336 -422l35 172h75l-34 -172h-76z" />
    <glyph glyph-name="uni1EA1" unicode="&#x1ea1;" horiz-adv-x="1079" 
d="M385 -20q-145 0 -232 68t-87 181q0 87 41 153t113.5 106.5t166.5 60.5t207 20h287l10 47q11 56 12.5 107t-16.5 95.5t-50.5 77t-89.5 51t-133 18.5q-140 0 -249.5 -80t-135.5 -203h-53q29 141 153.5 234.5t284.5 93.5q85 0 150 -21.5t103.5 -58.5t61 -87t22.5 -107.5
t-11 -119.5l-131 -616h-49l49 236q-75 -115 -189 -185.5t-235 -70.5zM117 231q0 -93 73.5 -149.5t194.5 -56.5q161 0 296 121.5t171 289.5l18 88h-276q-94 0 -175.5 -15.5t-151.5 -48t-110 -91t-40 -138.5zM309 -422l35 172h76l-35 -172h-76z" />
    <glyph glyph-name="uni1EB8" unicode="&#x1eb8;" horiz-adv-x="923" 
d="M401 1434h627l-8 -45h-578l-125 -582h502l-8 -45h-502l-153 -717h577l-8 -45h-627zM236 -422l34 172h76l-35 -172h-75z" />
    <glyph glyph-name="uni1EB9" unicode="&#x1eb9;" horiz-adv-x="1148" 
d="M520 -20q-203 0 -314.5 118t-111.5 305q0 126 47.5 239.5t126.5 193.5t185.5 127t220.5 47q210 0 322 -135t71 -336l-4 -15h-909q-13 -63 -13 -121q0 -169 103.5 -273.5t275.5 -104.5q91 0 176 31t154 93.5t104 147.5h54q-63 -155 -195.5 -236t-292.5 -81zM166 569h858
q26 169 -74.5 282.5t-275.5 113.5q-167 0 -310.5 -111.5t-197.5 -284.5zM352 -422l35 172h76l-35 -172h-76z" />
    <glyph glyph-name="uni1EBC" unicode="&#x1ebc;" horiz-adv-x="923" 
d="M401 1434h627l-8 -45h-578l-125 -582h502l-8 -45h-502l-153 -717h577l-8 -45h-627zM426 1518q26 104 78 154t110 50q38 0 80.5 -25.5t74 -56t68 -56t64.5 -25.5q45 0 81.5 39t57.5 120h47q-24 -101 -76.5 -151.5t-109.5 -50.5q-39 0 -81 25.5t-72 56t-67 56t-67 25.5
q-45 0 -83 -40t-60 -121h-45z" />
    <glyph glyph-name="uni1EBD" unicode="&#x1ebd;" horiz-adv-x="1148" 
d="M520 -20q-203 0 -314.5 118t-111.5 305q0 126 47.5 239.5t126.5 193.5t185.5 127t220.5 47q210 0 322 -135t71 -336l-4 -15h-909q-13 -63 -13 -121q0 -169 103.5 -273.5t275.5 -104.5q91 0 176 31t154 93.5t104 147.5h54q-63 -155 -195.5 -236t-292.5 -81zM166 569h858
q26 169 -74.5 282.5t-275.5 113.5q-167 0 -310.5 -111.5t-197.5 -284.5zM412 1126q49 246 198 246q39 0 68 -21t46.5 -50.5t34 -59.5t40.5 -51t57 -21q45 0 82.5 51t58.5 150h47q-28 -126 -78 -187t-110 -61q-44 0 -76.5 21t-51 51t-34 60.5t-36.5 51.5t-48 21
q-108 0 -151 -201h-47z" />
    <glyph glyph-name="uni1ECA" unicode="&#x1eca;" horiz-adv-x="452" 
d="M401 1434h50l-304 -1434h-49zM0 -422l35 172h76l-35 -172h-76z" />
    <glyph glyph-name="uni1ECB" unicode="&#x1ecb;" horiz-adv-x="413" 
d="M287 989h51l-209 -989h-51zM-18 -422l34 172h76l-35 -172h-75zM334 1262l35 172h75l-34 -172h-76z" />
    <glyph glyph-name="uni1ECC" unicode="&#x1ecc;" horiz-adv-x="1654" 
d="M772 -20q-133 0 -248 48.5t-196 133t-127.5 202t-46.5 250.5q0 161 64.5 314t173.5 269t263.5 186.5t325.5 70.5q176 0 318 -82t221 -224.5t79 -316.5q0 -161 -63.5 -315.5t-172 -273t-264 -190.5t-327.5 -72zM203 614q0 -168 72.5 -302.5t204 -210.5t298.5 -76
q206 0 385 112.5t283 298t104 393.5q0 252 -161 416t-414 164q-155 0 -298 -65.5t-246.5 -173.5t-165.5 -254t-62 -302zM602 -422l35 172h76l-35 -172h-76z" />
    <glyph glyph-name="uni1ECD" unicode="&#x1ecd;" horiz-adv-x="1212" 
d="M532 -20q-188 0 -313 128t-125 318q0 149 78 283.5t214 217.5t294 83q189 0 314.5 -129.5t125.5 -319.5q0 -111 -47 -217.5t-125.5 -186.5t-188 -128.5t-227.5 -48.5zM143 424q0 -173 111 -286t285 -113q140 0 263 74.5t196 199t73 264.5q0 171 -112.5 286.5
t-284.5 115.5q-142 0 -265.5 -76.5t-194.5 -201t-71 -263.5zM381 -422l35 172h76l-35 -172h-76z" />
    <glyph glyph-name="uni1EE4" unicode="&#x1ee4;" horiz-adv-x="1198" 
d="M510 -20q-184 0 -279 125t-53 325l213 1004h51l-219 -1024q-36 -169 45.5 -277t241.5 -108q170 0 282.5 109t151.5 296l213 1004h51l-213 -1004q-44 -210 -169.5 -330t-315.5 -120zM375 -422l35 172h75l-34 -172h-76z" />
    <glyph glyph-name="uni1EE5" unicode="&#x1ee5;" horiz-adv-x="1153" 
d="M1077 989l-209 -989h-49l45 215q-70 -110 -178.5 -172.5t-234.5 -62.5q-178 0 -261.5 116t-42.5 314l123 579h49l-122 -579q-38 -183 31.5 -284t236.5 -101q159 0 280.5 105.5t159.5 281.5l123 577h49zM352 -422l35 172h76l-35 -172h-76z" />
    <glyph glyph-name="Ygrave" unicode="&#x1ef2;" horiz-adv-x="983" 
d="M252 1434h51l234 -715l528 715h61l-571 -766l-141 -668h-52l142 668zM524 1755h56l165 -239h-53z" />
    <glyph glyph-name="ygrave" unicode="&#x1ef3;" horiz-adv-x="987" 
d="M143 989h50l200 -952l604 952h54l-867 -1374h-51l227 365zM444 1364h54l141 -268h-49z" />
    <glyph glyph-name="uni1EF8" unicode="&#x1ef8;" horiz-adv-x="983" 
d="M252 1434h51l234 -715l528 715h61l-571 -766l-141 -668h-52l142 668zM399 1518q26 104 78.5 154t110.5 50q38 0 80.5 -25.5t73.5 -56t67.5 -56t64.5 -25.5q45 0 82 39t58 120h47q-24 -101 -77 -151.5t-110 -50.5q-39 0 -81 25.5t-71.5 56t-66.5 56t-67 25.5
q-45 0 -83.5 -40t-60.5 -121h-45z" />
    <glyph glyph-name="uni1EF9" unicode="&#x1ef9;" horiz-adv-x="987" 
d="M143 989h50l200 -952l604 952h54l-867 -1374h-51l227 365zM336 1126q49 246 199 246q39 0 68 -21t46.5 -50.5t33.5 -59.5t40 -51t57 -21q45 0 83 51t59 150h47q-28 -126 -78.5 -187t-110.5 -61q-44 0 -76.5 21t-50.5 51t-33.5 60.5t-36.5 51.5t-48 21q-109 0 -152 -201
h-47z" />
    <glyph glyph-name="endash" unicode="&#x2013;" horiz-adv-x="1081" 
d="M117 563l10 47h872l-10 -47h-872z" />
    <glyph glyph-name="emdash" unicode="&#x2014;" horiz-adv-x="2252" 
d="M117 563l10 47h2044l-10 -47h-2044z" />
    <glyph glyph-name="quoteleft" unicode="&#x2018;" horiz-adv-x="403" 
d="M362 1260q-5 -19 3.5 -30t27.5 -11h23l-23 -113h-112l69 328h49z" />
    <glyph glyph-name="quoteright" unicode="&#x2019;" horiz-adv-x="385" 
d="M344 1280q5 19 -3.5 30t-27.5 11h-22l22 113h113l-70 -328h-49z" />
    <glyph glyph-name="quotesinglbase" unicode="&#x201a;" horiz-adv-x="344" 
d="M63 -41q5 19 -3 30t-27 11h-23l23 113h112l-69 -328h-49z" />
    <glyph glyph-name="quotedblleft" unicode="&#x201c;" horiz-adv-x="618" 
d="M362 1260q-5 -19 3.5 -30t27.5 -11h23l-23 -113h-112l69 328h49zM496 1106l69 328h49l-36 -174q-5 -19 3 -30t27 -11h23l-23 -113h-112z" />
    <glyph glyph-name="quotedblright" unicode="&#x201d;" horiz-adv-x="593" 
d="M559 1288q5 19 -3.5 30t-27.5 11h-22l22 113h113l-70 -328h-49zM291 1329l22 113h113l-70 -328h-49l37 174q5 19 -3.5 30t-27.5 11h-22z" />
    <glyph glyph-name="quotedblbase" unicode="&#x201e;" horiz-adv-x="559" 
d="M279 -41q5 19 -3.5 30t-27.5 11h-23l23 113h112l-69 -328h-49zM10 0l23 113h112l-69 -328h-49l36 174q5 19 -3 30t-27 11h-23z" />
    <glyph glyph-name="dagger" unicode="&#x2020;" horiz-adv-x="919" 
d="M211 1024l10 45h324l76 365h49l-76 -365h324l-11 -45h-323l-125 -584h-49l125 584h-324z" />
    <glyph glyph-name="daggerdbl" unicode="&#x2021;" horiz-adv-x="921" 
d="M80 344l10 45h324l139 655h-324l11 46h323l72 344h49l-72 -344h324l-10 -46h-324l-139 -655h323l-10 -45h-323l-72 -344h-49l71 344h-323z" />
    <glyph glyph-name="bullet" unicode="&#x2022;" horiz-adv-x="792" 
d="M387 307q-81 0 -131 53.5t-45 135.5q5 80 60.5 134t136.5 54q80 0 131 -54.5t47 -133.5q-4 -81 -61.5 -135t-137.5 -54z" />
    <glyph glyph-name="ellipsis" unicode="&#x2026;" horiz-adv-x="1048" 
d="M393 113h113l-23 -113h-112zM57 0l23 113h113l-23 -113h-113zM684 0l23 113h112l-22 -113h-113z" />
    <glyph glyph-name="perthousand" unicode="&#x2030;" horiz-adv-x="2023" 
d="M1587 -20q-103 0 -165 68.5t-62 184.5q0 54 14.5 112t44.5 113.5t71 100t99.5 71.5t124.5 27q104 0 164.5 -68.5t60.5 -185.5q0 -54 -14 -112t-43.5 -113.5t-70.5 -99.5t-99 -71t-125 -27zM96 0l1245 1434h54l-1245 -1434h-54zM203 1032q0 54 14.5 112t44 113.5t70.5 99
t99 70.5t124 27q104 0 164.5 -68t60.5 -184q0 -70 -23 -143t-65.5 -137t-111.5 -105t-152 -41q-103 0 -164 69t-61 187zM250 1032q0 -96 47 -154.5t131 -58.5q89 0 161 60.5t108 147t36 175.5q0 94 -47 150.5t-133 56.5q-88 0 -159 -57.5t-107.5 -143t-36.5 -176.5zM719 236
q0 69 23.5 141.5t66 135.5t111.5 103.5t151 40.5q104 0 164.5 -67.5t60.5 -183.5q0 -70 -23 -143t-65.5 -137t-111.5 -105t-152 -41q-103 0 -164 69t-61 187zM766 236q0 -96 47 -154.5t131 -58.5q89 0 161 60.5t108 147t36 175.5q0 94 -47 150t-133 56q-88 0 -159 -57.5
t-107.5 -142.5t-36.5 -176zM1405 229q0 -95 48.5 -150.5t133.5 -55.5q89 0 160.5 59t108 146t36.5 178q0 94 -47 150t-133 56q-89 0 -161.5 -60.5t-109 -147.5t-36.5 -175z" />
    <glyph glyph-name="minute" unicode="&#x2032;" horiz-adv-x="360" 
d="M291 1098l20 205l27 131h74l-27 -131l-66 -205h-28z" />
    <glyph glyph-name="second" unicode="&#x2033;" horiz-adv-x="573" 
d="M504 1098l20 205l27 131h74l-27 -131l-66 -205h-28zM291 1098l20 205l27 131h74l-27 -131l-66 -205h-28z" />
    <glyph glyph-name="guilsinglleft" unicode="&#x2039;" horiz-adv-x="770" 
d="M563 66l-446 440l8 35l633 440l-15 -63l-573 -400l405 -407z" />
    <glyph glyph-name="guilsinglright" unicode="&#x203a;" horiz-adv-x="772" 
d="M221 981l447 -440l-9 -35l-632 -440l14 63l573 399l-405 408z" />
    <glyph glyph-name="fraction" unicode="&#x2044;" horiz-adv-x="348" 
d="M817 1434h53l-1245 -1434h-53z" />
    <glyph glyph-name="franc" unicode="&#x20a3;" horiz-adv-x="940" 
d="M575 383h-307l-82 -383h-49l82 383h-156l11 45h153l213 1006h627l-8 -45h-578l-125 -582h502l-8 -45h-502l-72 -334h310z" />
    <glyph glyph-name="uni20A6" unicode="&#x20a6;" horiz-adv-x="1497" 
d="M145 549l9 45h204l54 250h-207l10 45h207l115 545h45l182 -545h428l115 545h51l-115 -545h207l-10 -45h-207l-53 -250h209l-9 -45h-209l-116 -549h-47l-183 549h-426l-116 -549h-50l117 549h-205zM410 594h401l-84 250h-264zM473 889h240l-84 250q-20 60 -36.5 116.5
t-22.5 82.5l-7 26q-10 -90 -39 -231zM778 844l84 -250h268l52 250h-404zM877 549l86 -258q20 -60 36.5 -116.5t22.5 -82.5l6 -26q10 90 39 231l53 252h-243z" />
    <glyph glyph-name="uni20A9" unicode="&#x20a9;" horiz-adv-x="1904" 
d="M152 733l8 45h205l-43 656h49l43 -656h395l319 656h52l41 -656h395l321 656h52l-320 -656h203l-8 -45h-217l-359 -733h-67l-45 733h-336l-357 -733h-67l-49 733h-215zM418 733l31 -471l10 -207q27 58 90 187l239 491h-370zM862 778h309l-34 563zM1225 733l28 -469
l11 -207q27 58 90 187l239 489h-368z" />
    <glyph glyph-name="uni20AA" unicode="&#x20aa;" horiz-adv-x="1449" 
d="M432 0l234 1106h49l-226 -1061h385q123 0 194 61t99 191l242 1137h49l-241 -1137q-61 -297 -351 -297h-434zM98 0l303 1434h428q289 0 228 -297l-172 -809h-49l172 809q28 130 -18 191t-169 61h-379l-295 -1389h-49z" />
    <glyph glyph-name="dong" unicode="&#x20ab;" horiz-adv-x="1427" 
d="M981 -207l-8 -41h-934l8 41h934zM125 426q0 110 42.5 215.5t116.5 187t182.5 131.5t231.5 50q170 0 292.5 -92t154.5 -244l115 545h-322l8 41h322l37 174h49l-37 -174h194l-8 -41h-194l-258 -1219h-50l48 227q-79 -116 -203 -181.5t-271 -65.5q-197 0 -323.5 127
t-126.5 319zM174 430q0 -174 113.5 -289.5t292.5 -115.5q149 0 271.5 74t190.5 197t68 267q0 180 -113 291t-299 111q-144 0 -265.5 -75.5t-190 -198.5t-68.5 -261z" />
    <glyph glyph-name="Euro" unicode="&#x20ac;" horiz-adv-x="1284" 
d="M348 500q-45 -217 48.5 -346t265.5 -129q336 0 432 409h49q-107 -454 -481 -454q-95 0 -172.5 35.5t-128.5 103.5t-68.5 166.5t8.5 224.5l8 41h-166l9 43h167l52 250h-166l10 43h166l14 71q47 230 177 363t331 133q178 0 287 -132t72 -325h-50q34 179 -59.5 295.5
t-249.5 116.5q-183 0 -299.5 -123t-161.5 -336l-12 -63h502l-43 -43h-469l-51 -250h499l-41 -43h-469z" />
    <glyph glyph-name="uni20B1" unicode="&#x20b1;" horiz-adv-x="1228" 
d="M178 0l201 946h-195l11 45h192l37 174h-193l9 45h194l47 224h293q141 0 230.5 -59t111.5 -165h201l-8 -45h-187q5 -46 -8 -114q-6 -30 -16 -60h176l-10 -45h-187q-54 -107 -160 -165t-245 -58h-291l-154 -723h-49zM389 768h283q120 0 209.5 45.5t140.5 132.5h-594z
M436 991h608q18 44 25 80q9 50 6 94h-600zM483 1210h584q-22 84 -98.5 131.5t-194.5 47.5h-252z" />
    <glyph glyph-name="uni20B4" unicode="&#x20b4;" horiz-adv-x="1228" 
d="M104 547l11 43h231q53 38 82 55l342 199h-602l10 43h666l53 31q83 48 136.5 121.5t53.5 168.5q0 93 -66.5 147t-184.5 54q-161 0 -263 -89.5t-139 -238.5h-49q35 166 154.5 269.5t300.5 103.5q137 0 218 -68t81 -178q0 -191 -213 -321h297l-11 -43h-360l-408 -238
q-23 -14 -26 -16h741l-10 -43h-789q-124 -111 -124 -275q0 -109 78.5 -178t201.5 -69q165 0 280 109t154 290h49q-42 -199 -172 -321.5t-315 -122.5q-143 0 -234.5 81.5t-91.5 210.5q0 157 113 275h-195z" />
    <glyph glyph-name="uni20BA" unicode="&#x20ba;" horiz-adv-x="1196" 
d="M289 0l125 590l-297 -141l10 47l297 141l59 283l-297 -142l11 47l297 142l98 467h49l-94 -443l514 244l-10 -47l-512 -244l-62 -282l514 243l-10 -47l-514 -244l-119 -569h287q158 0 257.5 82t133.5 240l16 77h50l-17 -77q-38 -179 -153 -273t-295 -94h-338z" />
    <glyph glyph-name="uni20BD" unicode="&#x20bd;" horiz-adv-x="1069" 
d="M70 328l8 43h184l76 352h-184l8 43h184l141 668h306q183 0 274.5 -98t56.5 -265q-33 -153 -160.5 -250.5t-306.5 -97.5h-270l-76 -352h455l-8 -43h-455l-70 -328h-49l70 328h-184zM395 766h262q161 0 276 89t146 237q28 134 -50 215.5t-238 81.5h-263z" />
    <glyph glyph-name="uni20BF" unicode="&#x20bf;" horiz-adv-x="997" 
d="M664 1675l-54 -241h35q65 0 135 -17l56 258h49l-60 -274q82 -32 126 -98.5t44 -159.5q0 -153 -109.5 -265t-252.5 -126q98 -8 165.5 -87.5t67.5 -207.5q0 -165 -90 -286t-246 -157l-55 -260h-49l53 250q-46 -4 -73 -4h-99l-53 -246h-49l53 246h-160l303 1434h160l53 241
h50zM156 45h252q101 0 181 35t128.5 94t74 131t25.5 152q0 121 -68.5 193.5t-189.5 72.5h-258zM309 768h217q102 0 198 46t160 133.5t64 193.5q0 114 -81 181t-222 67h-203z" />
    <glyph glyph-name="uni2116" unicode="&#x2116;" horiz-adv-x="2385" 
d="M1978 1454q134 0 233.5 -71.5t141 -195t10.5 -269.5q-30 -143 -117.5 -256t-210.5 -174.5t-257 -61.5q-135 0 -239.5 72t-150.5 191t-18 251q50 235 220 374.5t388 139.5zM102 0l304 1434h45l380 -1143q20 -60 36.5 -116.5t22.5 -82.5l7 -26q10 90 39 231l240 1137h51
l-303 -1434h-47l-379 1139q-20 60 -36.5 116.5t-23.5 82.5l-6 26q-10 -90 -39 -231l-241 -1133h-50zM1221 0l8 43h899l-8 -43h-899zM1419 940q-19 -94 1.5 -181.5t71 -150t125 -100t159.5 -37.5q194 0 346.5 133t195.5 340q27 128 -12.5 235.5t-129.5 168.5t-208 61
q-128 0 -243.5 -59t-196.5 -166.5t-109 -243.5z" />
    <glyph glyph-name="uni2117" unicode="&#x2117;" horiz-adv-x="1732" 
d="M877 -20q-193 0 -354.5 93.5t-254 254t-92.5 352.5q0 154 63 297.5t167.5 247.5t247.5 166.5t296 62.5q194 0 355.5 -93.5t253.5 -254t92 -352.5q0 -154 -62.5 -297.5t-167 -247.5t-247.5 -166.5t-297 -62.5zM225 682q0 -180 86 -331t236 -238.5t330 -87.5
q144 0 278 58.5t232 156.5t156.5 233t58.5 281q0 180 -86 330.5t-236 237.5t-330 87q-143 0 -277 -58t-232 -155.5t-157 -232t-59 -281.5zM668 326l168 788h165q93 0 147 -43t54 -119q0 -32 -9 -64.5t-30 -65t-51 -57.5t-77.5 -40.5t-104.5 -15.5h-135l-80 -383h-47z
M805 750h129q62 0 108 20.5t70 53t35.5 65t11.5 63.5q0 55 -42.5 87t-119.5 32h-125z" />
    <glyph glyph-name="trademark" unicode="&#x2122;" horiz-adv-x="1576" 
d="M793 717v717h55l295 -656l295 656h51v-717h-45v637l-287 -637h-33l-288 645v-645h-43zM242 1393v41h436v-41h-197v-676h-45v676h-194z" />
    <glyph glyph-name="uni2126" unicode="&#x2126;" horiz-adv-x="1677" 
d="M39 0l8 45h442q-311 244 -311 565q0 125 41 249.5t117.5 230.5t178.5 188t232.5 129t270.5 47q263 0 421 -154.5t158 -410.5q0 -140 -47 -268.5t-131.5 -233t-189.5 -189t-232 -153.5h435l-9 -45h-510l9 45q138 72 249 157.5t198 190.5t135 232t48 266q0 233 -145 375.5
t-389 142.5q-163 0 -312 -68.5t-252.5 -180t-165 -256t-61.5 -292.5q0 -319 332 -567l-8 -45h-512z" />
    <glyph glyph-name="oneeighth" unicode="&#x215b;" horiz-adv-x="1492" 
d="M467 1434l-182 -859h-47l145 680h-129l8 43h78q24 0 43 14t25 42l16 80h43zM25 0l1245 1434h53l-1245 -1434h-53zM797 188q0 94 66.5 168.5t166.5 96.5q-57 15 -90 57t-33 102q0 106 85.5 183t205.5 77q100 0 161.5 -49t61.5 -133q0 -91 -57 -152.5t-150 -84.5
q62 -12 100 -59.5t38 -117.5q0 -119 -89 -203.5t-223 -84.5q-112 0 -177.5 54.5t-65.5 145.5zM844 190q0 -72 52 -116.5t140 -44.5q109 0 189 72t80 173q0 74 -51 115t-136 41q-111 0 -192.5 -70.5t-81.5 -169.5zM952 612q0 -63 46 -102t128 -39q105 0 177.5 63t72.5 154
q0 64 -50 105t-128 41q-100 0 -173 -64t-73 -158z" />
    <glyph glyph-name="threeeighths" unicode="&#x215c;" horiz-adv-x="1724" 
d="M393 563q-122 0 -193.5 75t-49.5 181h47q-18 -92 38.5 -152.5t153.5 -60.5q117 0 190.5 72t73.5 170q0 71 -51.5 109t-144.5 38h-37l8 41h37q108 0 185 62.5t77 161.5q0 69 -47 107t-133 38q-82 0 -153 -52.5t-93 -146.5h-47q24 114 110 178t193 64q102 0 159.5 -49.5
t57.5 -134.5q0 -96 -63.5 -165t-153.5 -83q69 -13 105 -56.5t36 -109.5q0 -52 -19.5 -102t-56 -92t-96.5 -67.5t-133 -25.5zM256 0l1245 1434h53l-1245 -1434h-53zM1028 188q0 94 67 168.5t167 96.5q-57 15 -90 57t-33 102q0 106 85.5 183t205.5 77q100 0 161.5 -49
t61.5 -133q0 -91 -57 -152.5t-150 -84.5q61 -12 99 -59.5t38 -117.5q0 -119 -88.5 -203.5t-222.5 -84.5q-112 0 -178 54.5t-66 145.5zM1075 190q0 -71 52.5 -116t140.5 -45q109 0 188.5 72t79.5 173q0 74 -50.5 115t-135.5 41q-111 0 -193 -70.5t-82 -169.5zM1184 612
q0 -63 46 -102t128 -39q105 0 177.5 63t72.5 154q0 64 -50 105t-128 41q-100 0 -173 -64t-73 -158z" />
    <glyph glyph-name="fiveeighths" unicode="&#x215d;" horiz-adv-x="1689" 
d="M379 563q-117 0 -185 69.5t-44 182.5h47q-21 -96 32.5 -152.5t153.5 -56.5q105 0 189.5 86.5t84.5 208.5q0 83 -48 126.5t-136 43.5q-54 0 -111 -23t-100 -61l-39 8l133 441h418l-8 -43h-377l-110 -359q36 33 92 54.5t104 21.5q109 0 169.5 -54t60.5 -151
q0 -140 -94.5 -241t-231.5 -101zM221 0l1245 1434h54l-1246 -1434h-53zM993 188q0 94 67 168.5t167 96.5q-57 15 -90 57t-33 102q0 106 85.5 183t205.5 77q100 0 161.5 -49t61.5 -133q0 -91 -57 -152.5t-150 -84.5q61 -12 99 -59.5t38 -117.5q0 -119 -88.5 -203.5
t-222.5 -84.5q-112 0 -178 54.5t-66 145.5zM1040 190q0 -71 52.5 -116t140.5 -45q109 0 188.5 72t79.5 173q0 74 -50.5 115t-135.5 41q-111 0 -193 -70.5t-82 -169.5zM1149 612q0 -63 46 -102t128 -39q105 0 177.5 63t72.5 154q0 64 -50 105t-128 41q-100 0 -173 -64
t-73 -158z" />
    <glyph glyph-name="seveneighths" unicode="&#x215e;" horiz-adv-x="1478" 
d="M184 575l557 818h-487l8 43h541l-8 -41l-555 -820h-56zM10 0l1245 1434h54l-1246 -1434h-53zM782 188q0 94 67 168.5t167 96.5q-57 15 -90 57t-33 102q0 106 85.5 183t205.5 77q100 0 161.5 -49t61.5 -133q0 -91 -57 -152.5t-150 -84.5q61 -12 99 -59.5t38 -117.5
q0 -119 -88.5 -203.5t-222.5 -84.5q-112 0 -178 54.5t-66 145.5zM829 190q0 -71 52.5 -116t140.5 -45q109 0 188.5 72t79.5 173q0 74 -50.5 115t-135.5 41q-111 0 -193 -70.5t-82 -169.5zM938 612q0 -63 46 -102t128 -39q105 0 177.5 63t72.5 154q0 64 -50 105t-128 41
q-100 0 -173 -64t-73 -158z" />
    <glyph glyph-name="arrowleft" unicode="&#x2190;" horiz-adv-x="1359" 
d="M559 66l-418 534l645 533l29 -41l-579 -476h1024l-11 -45h-1026l375 -475z" />
    <glyph glyph-name="arrowup" unicode="&#x2191;" horiz-adv-x="1200" 
d="M1130 674l-34 -35l-359 461l-233 -1100h-49l233 1098l-522 -430l-35 34l594 484z" />
    <glyph glyph-name="arrowright" unicode="&#x2192;" horiz-adv-x="1357" 
d="M616 66l-28 40l579 476h-1024l11 45h1026l-375 475l39 31l418 -535z" />
    <glyph glyph-name="arrowdown" unicode="&#x2193;" horiz-adv-x="1196" 
d="M106 492l35 34l359 -460l233 1099h49l-233 -1097l522 430l35 -35l-594 -483z" />
    <glyph glyph-name="uni2196" unicode="&#x2196;" horiz-adv-x="1189" 
d="M172 479l162 752h751l-8 -45h-674l639 -811l-36 -31l-639 815l-144 -680h-51z" />
    <glyph glyph-name="uni2197" unicode="&#x2197;" horiz-adv-x="1196" 
d="M1006 406h-52l146 675l-991 -817l-29 39l979 807l-658 -2l11 49h751z" />
    <glyph glyph-name="uni2198" unicode="&#x2198;" horiz-adv-x="1134" 
d="M1036 752l-162 -752h-751l8 45h674l-639 811l37 31l639 -815l143 680h51z" />
    <glyph glyph-name="uni2199" unicode="&#x2199;" horiz-adv-x="1146" 
d="M209 752h51l-145 -676l991 817l29 -39l-979 -807l657 2l-10 -49h-752z" />
    <glyph glyph-name="partialdiff" unicode="&#x2202;" horiz-adv-x="1120" 
d="M471 -20q-169 0 -284 115.5t-115 273.5q0 91 40 185t108 170.5t166.5 125.5t205.5 49q181 0 293 -94l-271 629h56l268 -629q74 -174 74 -297q0 -135 -74 -257t-199.5 -196.5t-267.5 -74.5zM121 369q0 -142 98 -243t250 -101q130 0 244.5 66.5t183 180.5t68.5 244
q0 149 -98 243.5t-273 94.5q-124 0 -234.5 -72.5t-174.5 -184.5t-64 -228z" />
    <glyph glyph-name="emptyset" unicode="&#x2205;" horiz-adv-x="1693" 
d="M92 -86l-33 35l256 248q-143 176 -143 417q0 161 64.5 314t173.5 269t263.5 186.5t325.5 70.5q133 0 247.5 -47t197.5 -133l233 225l35 -33l-237 -225q143 -173 143 -410q0 -161 -63.5 -315.5t-172 -273t-264 -190.5t-327.5 -72q-269 0 -445 182zM221 614
q0 -227 129 -387l1061 1014q-165 168 -418 168q-155 0 -298 -65.5t-246.5 -173.5t-165.5 -254t-62 -302zM381 193q76 -80 183.5 -124t232.5 -44q206 0 385 112.5t283 298t104 393.5q0 225 -129 379z" />
    <glyph glyph-name="uni2206" unicode="&#x2206;" horiz-adv-x="1255" 
d="M-57 0l8 45l846 1389h61l256 -1389l-8 -45h-1163zM6 45h1059l-246 1339z" />
    <glyph glyph-name="product" unicode="&#x220f;" horiz-adv-x="1329" 
d="M98 0l303 1434h924l-303 -1434h-49l295 1389h-826l-295 -1389h-49z" />
    <glyph glyph-name="summation" unicode="&#x2211;" horiz-adv-x="1124" 
d="M653 731l-8 -33l-606 -653h911l-8 -45h-965l13 57l616 666l-336 653l11 58h964l-8 -45h-922z" />
    <glyph glyph-name="minus" unicode="&#x2212;" horiz-adv-x="1269" 
d="M1073 670l-10 -45h-801l10 45h801z" />
    <glyph glyph-name="radical" unicode="&#x221a;" horiz-adv-x="1275" 
d="M186 944l9 45h292l97 -946l759 1391h54l-789 -1434h-63l-103 944h-256z" />
    <glyph glyph-name="infinity" unicode="&#x221e;" horiz-adv-x="1910" 
d="M1481 1106q153 0 244.5 -92.5t91.5 -245.5q0 -103 -38 -203t-103.5 -177.5t-160.5 -125t-202 -47.5q-145 0 -244.5 94.5t-99.5 233.5q-60 -143 -191 -235.5t-276 -92.5q-153 0 -244.5 94t-91.5 248q0 101 38 199.5t103 176t160.5 125.5t202.5 48q145 0 245 -94.5
t97 -231.5q56 138 190.5 232t278.5 94zM209 555q0 -134 78 -216.5t213 -82.5q154 0 288.5 116t180.5 290q27 170 -56.5 286.5t-240.5 116.5q-130 0 -238 -74.5t-166.5 -191t-58.5 -244.5zM1014 662q-17 -108 12 -199.5t103.5 -149t181.5 -57.5q97 0 185 44.5t148.5 116
t96 163.5t35.5 186q0 134 -79 216.5t-214 82.5q-159 0 -291 -114.5t-178 -288.5z" />
    <glyph glyph-name="integral" unicode="&#x222b;" horiz-adv-x="657" 
d="M-90 -268l10 47h43q186 0 230 203l258 1216q23 108 100.5 172t185.5 64h49l-8 -45h-43q-86 0 -152 -56t-87 -155l-258 -1217q-50 -229 -279 -229h-49z" />
    <glyph glyph-name="approxequal" unicode="&#x2248;" horiz-adv-x="1269" 
d="M283 649q27 124 92.5 199.5t140.5 75.5q49 0 91.5 -23.5t73 -57.5t59.5 -68t62.5 -57.5t69.5 -23.5q57 0 114 63.5t81 168.5h49q-25 -121 -96.5 -198t-147.5 -77q-46 0 -86.5 23.5t-71 57.5t-59.5 68t-64.5 57.5t-74.5 23.5q-56 0 -108 -62.5t-76 -169.5h-49zM205 281
q27 124 92.5 199t140.5 75q49 0 91.5 -23.5t73.5 -57.5t59.5 -67.5t62.5 -57t70 -23.5q57 0 113.5 63t80.5 168h49q-25 -121 -96 -197.5t-147 -76.5q-46 0 -86.5 23.5t-71 57.5t-60 67.5t-65 57t-74.5 23.5q-56 0 -108 -62t-76 -169h-49z" />
    <glyph glyph-name="notequal" unicode="&#x2260;" horiz-adv-x="1269" 
d="M975 1114l-156 -260h295l-10 -45h-311l-201 -338h440l-10 -45h-457l-155 -260h-52l156 260h-293l10 45h310l200 338h-438l10 45h455l156 260h51z" />
    <glyph glyph-name="lessequal" unicode="&#x2264;" horiz-adv-x="1269" 
d="M150 182l8 45h839l-8 -45h-839zM274 778l11 43l911 338l-12 -57l-840 -307l707 -322l-11 -49z" />
    <glyph glyph-name="greaterequal" unicode="&#x2265;" horiz-adv-x="1269" 
d="M164 182l8 45h838l-9 -45h-837zM215 424l10 55l840 307l-707 324l13 49l762 -354l-9 -45z" />
    <glyph glyph-name="uni2460" unicode="&#x2460;" horiz-adv-x="1732" 
d="M877 -20q-193 0 -354.5 93.5t-254 254t-92.5 352.5q0 154 63 297.5t167.5 247.5t247.5 166.5t296 62.5q194 0 355.5 -93.5t253.5 -254t92 -352.5q0 -154 -62.5 -297.5t-167 -247.5t-247.5 -166.5t-297 -62.5zM225 682q0 -180 86 -331t236 -238.5t330 -87.5
q144 0 278 58.5t232 156.5t156.5 233t58.5 281q0 180 -86 330.5t-236 237.5t-330 87q-143 0 -277 -58t-232 -155.5t-157 -232t-59 -281.5zM807 295l145 680h-129l8 43h78q24 0 43 14t25 41l16 80h43l-182 -858h-47z" />
    <glyph glyph-name="uni2461" unicode="&#x2461;" horiz-adv-x="1732" 
d="M877 -20q-193 0 -354.5 93.5t-254 254t-92.5 352.5q0 154 63 297.5t167.5 247.5t247.5 166.5t296 62.5q194 0 355.5 -93.5t253.5 -254t92 -352.5q0 -154 -62.5 -297.5t-167 -247.5t-247.5 -166.5t-297 -62.5zM225 682q0 -180 86 -331t236 -238.5t330 -87.5
q144 0 278 58.5t232 156.5t156.5 233t58.5 281q0 180 -86 330.5t-236 237.5t-330 87q-143 0 -277 -58t-232 -155.5t-157 -232t-59 -281.5zM575 295l9 39l428 371q39 34 54.5 47.5t45 45t42 53.5t23.5 55t11 67q0 71 -50.5 111t-136.5 40q-88 0 -153.5 -61.5t-85.5 -163.5
h-47q25 127 102 197.5t191 70.5q101 0 164 -52t63 -140q0 -47 -13.5 -88t-43 -78.5t-56 -63.5t-71.5 -65l-394 -342h463l-10 -43h-535z" />
    <glyph glyph-name="uni2462" unicode="&#x2462;" horiz-adv-x="1732" 
d="M877 -20q-193 0 -354.5 93.5t-254 254t-92.5 352.5q0 154 63 297.5t167.5 247.5t247.5 166.5t296 62.5q194 0 355.5 -93.5t253.5 -254t92 -352.5q0 -154 -62.5 -297.5t-167 -247.5t-247.5 -166.5t-297 -62.5zM225 682q0 -180 86 -331t236 -238.5t330 -87.5
q144 0 278 58.5t232 156.5t156.5 233t58.5 281q0 180 -86 330.5t-236 237.5t-330 87q-143 0 -277 -58t-232 -155.5t-157 -232t-59 -281.5zM604 532h47q-18 -92 39 -152.5t154 -60.5q117 0 190.5 72t73.5 170q0 71 -52 109.5t-145 38.5h-37l9 41h37q108 0 185 62.5t77 160.5
q0 69 -47.5 107t-133.5 38q-82 0 -152.5 -52t-92.5 -146h-47q24 114 110 177.5t193 63.5q102 0 159.5 -49.5t57.5 -134.5q0 -96 -63.5 -165t-153.5 -83q69 -13 105 -56.5t36 -109.5q0 -52 -19.5 -102t-56 -92t-96.5 -67.5t-133 -25.5q-122 0 -194 75t-50 181z" />
    <glyph glyph-name="uni2463" unicode="&#x2463;" horiz-adv-x="1732" 
d="M877 -20q-193 0 -354.5 93.5t-254 254t-92.5 352.5q0 154 63 297.5t167.5 247.5t247.5 166.5t296 62.5q194 0 355.5 -93.5t253.5 -254t92 -352.5q0 -154 -62.5 -297.5t-167 -247.5t-247.5 -166.5t-297 -62.5zM225 682q0 -180 86 -331t236 -238.5t330 -87.5
q144 0 278 58.5t232 156.5t156.5 233t58.5 281q0 180 -86 330.5t-236 237.5t-330 87q-143 0 -277 -58t-232 -155.5t-157 -232t-59 -281.5zM563 506l10 41l435 606h55l-434 -606h348l53 252h47l-53 -252h141l-10 -41h-141l-45 -213h-47l45 213h-404z" />
    <glyph glyph-name="uni2464" unicode="&#x2464;" horiz-adv-x="1732" 
d="M877 -20q-193 0 -354.5 93.5t-254 254t-92.5 352.5q0 154 63 297.5t167.5 247.5t247.5 166.5t296 62.5q194 0 355.5 -93.5t253.5 -254t92 -352.5q0 -154 -62.5 -297.5t-167 -247.5t-247.5 -166.5t-297 -62.5zM225 682q0 -180 86 -331t236 -238.5t330 -87.5
q144 0 278 58.5t232 156.5t156.5 233t58.5 281q0 180 -86 330.5t-236 237.5t-330 87q-143 0 -277 -58t-232 -155.5t-157 -232t-59 -281.5zM596 532h47q-21 -96 32.5 -152t153.5 -56q105 0 190 86t85 208q0 83 -48 126.5t-136 43.5q-54 0 -111 -22.5t-100 -60.5l-39 8
l133 440h418l-9 -43h-376l-111 -358q36 33 92.5 54t104.5 21q109 0 169 -53.5t60 -150.5q0 -140 -94.5 -241t-231.5 -101q-117 0 -185 69t-44 182z" />
    <glyph glyph-name="uni2465" unicode="&#x2465;" horiz-adv-x="1732" 
d="M877 -20q-193 0 -354.5 93.5t-254 254t-92.5 352.5q0 154 63 297.5t167.5 247.5t247.5 166.5t296 62.5q194 0 355.5 -93.5t253.5 -254t92 -352.5q0 -154 -62.5 -297.5t-167 -247.5t-247.5 -166.5t-297 -62.5zM225 682q0 -180 86 -331t236 -238.5t330 -87.5
q144 0 278 58.5t232 156.5t156.5 233t58.5 281q0 180 -86 330.5t-236 237.5t-330 87q-143 0 -277 -58t-232 -155.5t-157 -232t-59 -281.5zM575 518q0 80 39.5 148.5t116.5 158.5l283 328h61l-301 -348q64 33 131 33q110 0 177 -64.5t67 -167.5q0 -132 -100.5 -228.5
t-231.5 -96.5q-105 0 -173.5 69.5t-68.5 167.5zM625 520q0 -82 55.5 -139t142.5 -57q111 0 195 81.5t84 196.5q0 86 -55 140.5t-146 54.5q-109 0 -192.5 -83.5t-83.5 -193.5z" />
    <glyph glyph-name="uni2466" unicode="&#x2466;" horiz-adv-x="1732" 
d="M877 -20q-193 0 -354.5 93.5t-254 254t-92.5 352.5q0 154 63 297.5t167.5 247.5t247.5 166.5t296 62.5q194 0 355.5 -93.5t253.5 -254t92 -352.5q0 -154 -62.5 -297.5t-167 -247.5t-247.5 -166.5t-297 -62.5zM225 682q0 -180 86 -331t236 -238.5t330 -87.5
q144 0 278 58.5t232 156.5t156.5 233t58.5 281q0 180 -86 330.5t-236 237.5t-330 87q-143 0 -277 -58t-232 -155.5t-157 -232t-59 -281.5zM633 293l557 817h-488l9 43h540l-8 -41l-555 -819h-55z" />
    <glyph glyph-name="uni2467" unicode="&#x2467;" horiz-adv-x="1732" 
d="M877 -20q-193 0 -354.5 93.5t-254 254t-92.5 352.5q0 154 63 297.5t167.5 247.5t247.5 166.5t296 62.5q194 0 355.5 -93.5t253.5 -254t92 -352.5q0 -154 -62.5 -297.5t-167 -247.5t-247.5 -166.5t-297 -62.5zM225 682q0 -180 86 -331t236 -238.5t330 -87.5
q144 0 278 58.5t232 156.5t156.5 233t58.5 281q0 180 -86 330.5t-236 237.5t-330 87q-143 0 -277 -58t-232 -155.5t-157 -232t-59 -281.5zM586 481q0 94 66.5 168t166.5 96q-57 15 -90 57.5t-33 102.5q0 106 85.5 183t205.5 77q100 0 161.5 -49t61.5 -133q0 -91 -56.5 -153
t-149.5 -85q62 -12 99.5 -59t37.5 -117q0 -119 -89 -203.5t-223 -84.5q-112 0 -177.5 54.5t-65.5 145.5zM633 483q0 -72 52 -116.5t140 -44.5q109 0 189 72t80 173q0 74 -51 115t-136 41q-111 0 -192.5 -70.5t-81.5 -169.5zM741 905q0 -63 46 -102t128 -39q105 0 177.5 63
t72.5 154q0 64 -50 104.5t-128 40.5q-100 0 -173 -63.5t-73 -157.5z" />
    <glyph glyph-name="uni2468" unicode="&#x2468;" horiz-adv-x="1732" 
d="M877 -20q-193 0 -354.5 93.5t-254 254t-92.5 352.5q0 154 63 297.5t167.5 247.5t247.5 166.5t296 62.5q194 0 355.5 -93.5t253.5 -254t92 -352.5q0 -154 -62.5 -297.5t-167 -247.5t-247.5 -166.5t-297 -62.5zM225 682q0 -180 86 -331t236 -238.5t330 -87.5
q144 0 278 58.5t232 156.5t156.5 233t58.5 281q0 180 -86 330.5t-236 237.5t-330 87q-143 0 -277 -58t-232 -155.5t-157 -232t-59 -281.5zM635 844q0 132 100.5 228.5t231.5 96.5q105 0 173 -69.5t68 -167.5q0 -80 -39.5 -149t-115.5 -158l-283 -328h-61l301 348
q-64 -33 -131 -33q-110 0 -177 64.5t-67 167.5zM682 848q0 -86 55 -140.5t146 -54.5q109 0 192.5 83.5t83.5 193.5q0 82 -55.5 139t-142.5 57q-111 0 -195 -81.5t-84 -196.5z" />
    <glyph glyph-name="lozenge" unicode="&#x25ca;" horiz-adv-x="1036" 
d="M164 715l526 719h53l224 -719l-527 -715h-53zM215 707l205 -654l495 670l-204 659z" />
    <glyph glyph-name="circle" unicode="&#x25cb;" horiz-adv-x="1732" 
d="M877 -20q-193 0 -354.5 93.5t-254 254t-92.5 352.5q0 154 63 297.5t167.5 247.5t247.5 166.5t296 62.5q194 0 355.5 -93.5t253.5 -254t92 -352.5q0 -154 -62.5 -297.5t-167 -247.5t-247.5 -166.5t-297 -62.5zM225 682q0 -180 86 -331t236 -238.5t330 -87.5
q144 0 278 58.5t232 156.5t156.5 233t58.5 281q0 180 -86 330.5t-236 237.5t-330 87q-143 0 -277 -58t-232 -155.5t-157 -232t-59 -281.5z" />
    <glyph glyph-name="uni25CF" unicode="&#x25cf;" horiz-adv-x="1732" 
d="M877 -20q-193 0 -354.5 93.5t-254 254t-92.5 352.5q0 154 63 297.5t167.5 247.5t247.5 166.5t296 62.5q194 0 355.5 -93.5t253.5 -254t92 -352.5q0 -154 -62.5 -297.5t-167 -247.5t-247.5 -166.5t-297 -62.5z" />
    <glyph glyph-name="uniE132" unicode="&#xe132;" horiz-adv-x="811" 
d="M287 989h51l-209 -989h-51zM182 -385l8 43h89q55 0 97.5 37.5t57.5 103.5l252 1190h49l-252 -1190q-18 -86 -76.5 -135t-136.5 -49h-88zM293 1096l276 266h68l-283 -266h-61zM690 1096l277 266h67l-282 -266h-62z" />
    <glyph glyph-name="uniE133" unicode="&#xe133;" horiz-adv-x="1060" 
d="M401 1434h50l-304 -1434h-49zM387 0l8 45h88q123 0 199.5 75t108.5 228l229 1086h49l-229 -1086q-38 -182 -126.5 -265t-238.5 -83h-88zM403 1516l267 239h69l-268 -239h-68zM1022 1516l266 239h70l-268 -239h-68z" />
    <glyph glyph-name="S.ss02" horiz-adv-x="1017" 
d="M358 0q-147 0 -224.5 101t-45.5 249l16 74h50l-17 -74q-7 -40 -8 -81.5t14.5 -81.5t40 -71.5t69.5 -51t103 -19.5h142q74 0 134.5 29.5t98 74.5t62.5 102.5t35 109.5t10 98q0 89 -42.5 141t-123.5 84l-213 82q-89 35 -142 102.5t-53 167.5q0 98 41 188t122 150t183 60
h144q129 0 202.5 -75.5t49.5 -197.5l-17 -80h-49l16 80q21 101 -39 164.5t-163 63.5h-144q-88 0 -157.5 -53t-104.5 -132.5t-35 -165.5q0 -169 166 -231l215 -82q92 -35 142.5 -93.5t50.5 -162.5q0 -63 -14 -127.5t-45 -126t-75 -109.5t-109.5 -77t-143.5 -29h-142z" />
    <glyph glyph-name="Sacute.ss02" horiz-adv-x="1017" 
d="M358 0q-147 0 -224.5 101t-45.5 249l16 74h50l-17 -74q-7 -40 -8 -81.5t14.5 -81.5t40 -71.5t69.5 -51t103 -19.5h142q74 0 134.5 29.5t98 74.5t62.5 102.5t35 109.5t10 98q0 89 -42.5 141t-123.5 84l-213 82q-89 35 -142 102.5t-53 167.5q0 98 41 188t122 150t183 60
h144q129 0 202.5 -75.5t49.5 -197.5l-17 -80h-49l16 80q21 101 -39 164.5t-163 63.5h-144q-88 0 -157.5 -53t-104.5 -132.5t-35 -165.5q0 -169 166 -231l215 -82q92 -35 142.5 -93.5t50.5 -162.5q0 -63 -14 -127.5t-45 -126t-75 -109.5t-109.5 -77t-143.5 -29h-142z
M680 1516l266 239h70l-268 -239h-68z" />
    <glyph glyph-name="Scaron.ss02" horiz-adv-x="1017" 
d="M358 0q-147 0 -224.5 101t-45.5 249l16 74h50l-17 -74q-7 -40 -8 -81.5t14.5 -81.5t40 -71.5t69.5 -51t103 -19.5h142q74 0 134.5 29.5t98 74.5t62.5 102.5t35 109.5t10 98q0 89 -42.5 141t-123.5 84l-213 82q-89 35 -142 102.5t-53 167.5q0 98 41 188t122 150t183 60
h144q129 0 202.5 -75.5t49.5 -197.5l-17 -80h-49l16 80q21 101 -39 164.5t-163 63.5h-144q-88 0 -157.5 -53t-104.5 -132.5t-35 -165.5q0 -169 166 -231l215 -82q92 -35 142.5 -93.5t50.5 -162.5q0 -63 -14 -127.5t-45 -126t-75 -109.5t-109.5 -77t-143.5 -29h-142z
M467 1767h57l197 -213l285 213h67l-336 -251h-41z" />
    <glyph glyph-name="Scedilla.ss02" horiz-adv-x="1017" 
d="M358 0q-147 0 -224.5 101t-45.5 249l16 74h50l-17 -74q-7 -40 -8 -81.5t14.5 -81.5t40 -71.5t69.5 -51t103 -19.5h142q74 0 134.5 29.5t98 74.5t62.5 102.5t35 109.5t10 98q0 89 -42.5 141t-123.5 84l-213 82q-89 35 -142 102.5t-53 167.5q0 98 41 188t122 150t183 60
h144q129 0 202.5 -75.5t49.5 -197.5l-17 -80h-49l16 80q21 101 -39 164.5t-163 63.5h-144q-88 0 -157.5 -53t-104.5 -132.5t-35 -165.5q0 -169 166 -231l215 -82q92 -35 142.5 -93.5t50.5 -162.5q0 -63 -14 -127.5t-45 -126t-75 -109.5t-109.5 -77t-143.5 -29h-49l-93 -162
h41q58 0 92.5 -35t34.5 -94q0 -80 -54.5 -129t-137.5 -49h-94l10 45h94q56 0 96.5 38t40.5 93q0 39 -25 62.5t-67 23.5h-90l8 39l94 168h-43z" />
    <glyph glyph-name="Scircumflex.ss02" horiz-adv-x="1017" 
d="M358 0q-147 0 -224.5 101t-45.5 249l16 74h50l-17 -74q-7 -40 -8 -81.5t14.5 -81.5t40 -71.5t69.5 -51t103 -19.5h142q74 0 134.5 29.5t98 74.5t62.5 102.5t35 109.5t10 98q0 89 -42.5 141t-123.5 84l-213 82q-89 35 -142 102.5t-53 167.5q0 98 41 188t122 150t183 60
h144q129 0 202.5 -75.5t49.5 -197.5l-17 -80h-49l16 80q21 101 -39 164.5t-163 63.5h-144q-88 0 -157.5 -53t-104.5 -132.5t-35 -165.5q0 -169 166 -231l215 -82q92 -35 142.5 -93.5t50.5 -162.5q0 -63 -14 -127.5t-45 -126t-75 -109.5t-109.5 -77t-143.5 -29h-142z
M416 1516l334 233h41l233 -233h-59l-197 194l-283 -194h-69z" />
    <glyph glyph-name="uni0218.ss02" horiz-adv-x="1017" 
d="M358 0q-147 0 -224.5 101t-45.5 249l16 74h50l-17 -74q-7 -40 -8 -81.5t14.5 -81.5t40 -71.5t69.5 -51t103 -19.5h142q74 0 134.5 29.5t98 74.5t62.5 102.5t35 109.5t10 98q0 89 -42.5 141t-123.5 84l-213 82q-89 35 -142 102.5t-53 167.5q0 98 41 188t122 150t183 60
h144q129 0 202.5 -75.5t49.5 -197.5l-17 -80h-49l16 80q21 101 -39 164.5t-163 63.5h-144q-88 0 -157.5 -53t-104.5 -132.5t-35 -165.5q0 -169 166 -231l215 -82q92 -35 142.5 -93.5t50.5 -162.5q0 -63 -14 -127.5t-45 -126t-75 -109.5t-109.5 -77t-143.5 -29h-142z
M168 -334l215 266h55l-221 -266h-49z" />
    <glyph glyph-name="C.titl" horiz-adv-x="1110" 
d="M201 500q-23 -113 -8.5 -201.5t59 -149t112 -92.5t150.5 -32q336 0 432 409h49q-107 -454 -481 -454q-95 0 -172.5 35.5t-128.5 103.5t-68 166.5t9 224.5l94 448q47 230 177 363t331 133q178 0 286.5 -132t71.5 -325h-49q34 179 -59.5 295.5t-249.5 116.5
q-183 0 -299.5 -123t-161.5 -336z" />
    <glyph glyph-name="Cacute.titl" horiz-adv-x="1110" 
d="M201 500q-23 -113 -8.5 -201.5t59 -149t112 -92.5t150.5 -32q336 0 432 409h49q-107 -454 -481 -454q-95 0 -172.5 35.5t-128.5 103.5t-68 166.5t9 224.5l94 448q47 230 177 363t331 133q178 0 286.5 -132t71.5 -325h-49q34 179 -59.5 295.5t-249.5 116.5
q-183 0 -299.5 -123t-161.5 -336zM745 1516l267 239h69l-268 -239h-68z" />
    <glyph glyph-name="Ccaron.titl" horiz-adv-x="1110" 
d="M201 500q-23 -113 -8.5 -201.5t59 -149t112 -92.5t150.5 -32q336 0 432 409h49q-107 -454 -481 -454q-95 0 -172.5 35.5t-128.5 103.5t-68 166.5t9 224.5l94 448q47 230 177 363t331 133q178 0 286.5 -132t71.5 -325h-49q34 179 -59.5 295.5t-249.5 116.5
q-183 0 -299.5 -123t-161.5 -336zM532 1767h58l196 -213l285 213h68l-336 -251h-41z" />
    <glyph glyph-name="Ccedilla.titl" horiz-adv-x="1110" 
d="M201 500q-23 -113 -8.5 -201.5t59 -149t112 -92.5t150.5 -32q336 0 432 409h49q-107 -451 -475 -454l-80 -142h41q58 0 92.5 -35t34.5 -94q0 -80 -54.5 -129t-137.5 -49h-94l10 45h94q56 0 96.5 38t40.5 93q0 39 -25 62.5t-67 23.5h-90l8 39l84 150q-87 8 -156 46.5
t-114 106t-59 162t10 213.5l94 448q47 230 177 363t331 133q178 0 286.5 -132t71.5 -325h-49q34 179 -59.5 295.5t-249.5 116.5q-183 0 -299.5 -123t-161.5 -336z" />
    <glyph glyph-name="Ccircumflex.titl" horiz-adv-x="1110" 
d="M201 500q-23 -113 -8.5 -201.5t59 -149t112 -92.5t150.5 -32q336 0 432 409h49q-107 -454 -481 -454q-95 0 -172.5 35.5t-128.5 103.5t-68 166.5t9 224.5l94 448q47 230 177 363t331 133q178 0 286.5 -132t71.5 -325h-49q34 179 -59.5 295.5t-249.5 116.5
q-183 0 -299.5 -123t-161.5 -336zM481 1516l334 233h41l234 -233h-60l-196 194l-283 -194h-70z" />
    <glyph glyph-name="Cdotaccent.titl" horiz-adv-x="1110" 
d="M201 500q-23 -113 -8.5 -201.5t59 -149t112 -92.5t150.5 -32q336 0 432 409h49q-107 -454 -481 -454q-95 0 -172.5 35.5t-128.5 103.5t-68 166.5t9 224.5l94 448q47 230 177 363t331 133q178 0 286.5 -132t71.5 -325h-49q34 179 -59.5 295.5t-249.5 116.5
q-183 0 -299.5 -123t-161.5 -336zM743 1526l19 90h88l-19 -90h-88z" />
    <glyph glyph-name="D.titl" horiz-adv-x="1110" 
d="M422 0h-324l303 1434h283q97 0 175.5 -33.5t131 -100t69.5 -164.5t-9 -227l-86 -409q-49 -234 -187.5 -367t-355.5 -133zM156 45h268q198 0 323 123.5t171 343.5l86 408q24 116 9 203.5t-61.5 146.5t-115 89t-152.5 30h-242z" />
    <glyph glyph-name="Eth.titl" horiz-adv-x="1136" 
d="M129 756l10 45h156l133 633h283q97 0 175.5 -33.5t130.5 -100t69 -164.5t-9 -227l-86 -409q-49 -234 -187 -367t-355 -133h-324l160 756h-156zM182 45h269q197 0 322 123.5t171 343.5l86 408q24 116 9.5 203.5t-61 146.5t-115 89t-152.5 30h-242l-125 -588h358l-10 -45
h-358z" />
    <glyph glyph-name="Dcaron.titl" horiz-adv-x="1110" 
d="M422 0h-324l303 1434h283q97 0 175.5 -33.5t131 -100t69.5 -164.5t-9 -227l-86 -409q-49 -234 -187.5 -367t-355.5 -133zM156 45h268q198 0 323 123.5t171 343.5l86 408q24 116 9 203.5t-61.5 146.5t-115 89t-152.5 30h-242zM469 1767h57l197 -213l285 213h67l-336 -251
h-41z" />
    <glyph glyph-name="Dcroat.titl" horiz-adv-x="1136" 
d="M129 756l10 45h156l133 633h283q97 0 175.5 -33.5t130.5 -100t69 -164.5t-9 -227l-86 -409q-49 -234 -187 -367t-355 -133h-324l160 756h-156zM182 45h269q197 0 322 123.5t171 343.5l86 408q24 116 9.5 203.5t-61 146.5t-115 89t-152.5 30h-242l-125 -588h358l-10 -45
h-358z" />
    <glyph glyph-name="uni018F.titl" horiz-adv-x="1138" 
d="M446 -20q-188 0 -278 131t-45 346l53 248h811l47 225q46 220 -30.5 349.5t-258.5 129.5q-157 0 -282 -113t-176 -299h-49q55 207 197 332t321 125q202 0 289.5 -143t37.5 -381l-90 -428q-50 -238 -197 -380t-350 -142zM172 457q-41 -196 36 -314t243 -118
q182 0 314.5 129.5t178.5 347.5l33 157h-762z" />
    <glyph glyph-name="G.titl" horiz-adv-x="1134" 
d="M498 -20q-189 0 -290 143.5t-52 386.5l90 448q46 231 172 363.5t325 132.5q186 0 292.5 -127.5t70.5 -329.5h-49q33 185 -59 298.5t-255 113.5q-182 0 -294.5 -122.5t-155.5 -336.5l-90 -450q-22 -113 -8.5 -201.5t55.5 -149t105.5 -92.5t142.5 -32q187 0 300.5 122
t159.5 345l35 165h-366l8 48h416l-47 -226q-49 -237 -175.5 -368t-330.5 -131z" />
    <glyph glyph-name="Gbreve.titl" horiz-adv-x="1134" 
d="M498 -20q-189 0 -290 143.5t-52 386.5l90 448q46 231 172 363.5t325 132.5q186 0 292.5 -127.5t70.5 -329.5h-49q33 185 -59 298.5t-255 113.5q-182 0 -294.5 -122.5t-155.5 -336.5l-90 -450q-22 -113 -8.5 -201.5t55.5 -149t105.5 -92.5t142.5 -32q187 0 300.5 122
t159.5 345l35 165h-366l8 48h416l-47 -226q-49 -237 -175.5 -368t-330.5 -131zM575 1755h43q-12 -92 36 -148.5t139 -56.5q96 0 166 56t85 149h43q-19 -115 -98 -181.5t-196 -66.5q-113 0 -175 70t-43 178z" />
    <glyph glyph-name="Gcaron.titl" horiz-adv-x="1134" 
d="M498 -20q-189 0 -290 143.5t-52 386.5l90 448q46 231 172 363.5t325 132.5q186 0 292.5 -127.5t70.5 -329.5h-49q33 185 -59 298.5t-255 113.5q-182 0 -294.5 -122.5t-155.5 -336.5l-90 -450q-22 -113 -8.5 -201.5t55.5 -149t105.5 -92.5t142.5 -32q187 0 300.5 122
t159.5 345l35 165h-366l8 48h416l-47 -226q-49 -237 -175.5 -368t-330.5 -131zM530 1767h58l196 -213l285 213h68l-336 -251h-41z" />
    <glyph glyph-name="Gcircumflex.titl" horiz-adv-x="1134" 
d="M498 -20q-189 0 -290 143.5t-52 386.5l90 448q46 231 172 363.5t325 132.5q186 0 292.5 -127.5t70.5 -329.5h-49q33 185 -59 298.5t-255 113.5q-182 0 -294.5 -122.5t-155.5 -336.5l-90 -450q-22 -113 -8.5 -201.5t55.5 -149t105.5 -92.5t142.5 -32q187 0 300.5 122
t159.5 345l35 165h-366l8 48h416l-47 -226q-49 -237 -175.5 -368t-330.5 -131zM479 1516l334 233h41l233 -233h-59l-197 194l-282 -194h-70z" />
    <glyph glyph-name="uni0122.titl" horiz-adv-x="1134" 
d="M498 -20q-189 0 -290 143.5t-52 386.5l90 448q46 231 172 363.5t325 132.5q186 0 292.5 -127.5t70.5 -329.5h-49q33 185 -59 298.5t-255 113.5q-182 0 -294.5 -122.5t-155.5 -336.5l-90 -450q-22 -113 -8.5 -201.5t55.5 -149t105.5 -92.5t142.5 -32q187 0 300.5 122
t159.5 345l35 165h-366l8 48h416l-47 -226q-49 -237 -175.5 -368t-330.5 -131zM215 -334l215 266h55l-221 -266h-49z" />
    <glyph glyph-name="Gdotaccent.titl" horiz-adv-x="1134" 
d="M498 -20q-189 0 -290 143.5t-52 386.5l90 448q46 231 172 363.5t325 132.5q186 0 292.5 -127.5t70.5 -329.5h-49q33 185 -59 298.5t-255 113.5q-182 0 -294.5 -122.5t-155.5 -336.5l-90 -450q-22 -113 -8.5 -201.5t55.5 -149t105.5 -92.5t142.5 -32q187 0 300.5 122
t159.5 345l35 165h-366l8 48h416l-47 -226q-49 -237 -175.5 -368t-330.5 -131zM741 1526l19 90h88l-19 -90h-88z" />
    <glyph glyph-name="M.titl" horiz-adv-x="1499" 
d="M98 0l303 1434h60l201 -1358l774 1358h61l-303 -1434h-49l239 1124q13 63 26.5 120.5t20.5 83.5l7 26q-41 -82 -113 -207l-653 -1147h-49l-166 1122q-9 63 -15.5 121.5l-9.5 85.5l-2 27q-14 -91 -43 -232l-240 -1124h-49z" />
    <glyph glyph-name="O.titl" horiz-adv-x="1196" 
d="M510 -20q-95 0 -172 35.5t-127 103.5t-66.5 166.5t9.5 224.5l94 448q48 232 180 364t346 132q95 0 173 -36.5t130 -106t69 -171t-9 -231.5l-90 -430q-49 -235 -185 -367t-352 -132zM201 500q-23 -113 -9 -201.5t57.5 -149t110.5 -92.5t150 -32q197 0 320 123t169 344
l91 428q24 117 9 208.5t-61 153.5t-114 94.5t-150 32.5q-195 0 -314.5 -122.5t-164.5 -336.5z" />
    <glyph glyph-name="Oacute.titl" horiz-adv-x="1196" 
d="M510 -20q-95 0 -172 35.5t-127 103.5t-66.5 166.5t9.5 224.5l94 448q48 232 180 364t346 132q95 0 173 -36.5t130 -106t69 -171t-9 -231.5l-90 -430q-49 -235 -185 -367t-352 -132zM201 500q-23 -113 -9 -201.5t57.5 -149t110.5 -92.5t150 -32q197 0 320 123t169 344
l91 428q24 117 9 208.5t-61 153.5t-114 94.5t-150 32.5q-195 0 -314.5 -122.5t-164.5 -336.5zM776 1516l266 239h70l-268 -239h-68z" />
    <glyph glyph-name="Obreve.titl" horiz-adv-x="1196" 
d="M510 -20q-95 0 -172 35.5t-127 103.5t-66.5 166.5t9.5 224.5l94 448q48 232 180 364t346 132q95 0 173 -36.5t130 -106t69 -171t-9 -231.5l-90 -430q-49 -235 -185 -367t-352 -132zM201 500q-23 -113 -9 -201.5t57.5 -149t110.5 -92.5t150 -32q197 0 320 123t169 344
l91 428q24 117 9 208.5t-61 153.5t-114 94.5t-150 32.5q-195 0 -314.5 -122.5t-164.5 -336.5zM608 1755h43q-12 -92 35.5 -148.5t138.5 -56.5q96 0 166.5 56t85.5 149h43q-19 -115 -98.5 -181.5t-196.5 -66.5q-113 0 -174.5 70t-42.5 178z" />
    <glyph glyph-name="Ocircumflex.titl" horiz-adv-x="1196" 
d="M510 -20q-95 0 -172 35.5t-127 103.5t-66.5 166.5t9.5 224.5l94 448q48 232 180 364t346 132q95 0 173 -36.5t130 -106t69 -171t-9 -231.5l-90 -430q-49 -235 -185 -367t-352 -132zM201 500q-23 -113 -9 -201.5t57.5 -149t110.5 -92.5t150 -32q197 0 320 123t169 344
l91 428q24 117 9 208.5t-61 153.5t-114 94.5t-150 32.5q-195 0 -314.5 -122.5t-164.5 -336.5zM512 1516l334 233h41l233 -233h-59l-197 194l-282 -194h-70z" />
    <glyph glyph-name="Odieresis.titl" horiz-adv-x="1196" 
d="M510 -20q-95 0 -172 35.5t-127 103.5t-66.5 166.5t9.5 224.5l94 448q48 232 180 364t346 132q95 0 173 -36.5t130 -106t69 -171t-9 -231.5l-90 -430q-49 -235 -185 -367t-352 -132zM201 500q-23 -113 -9 -201.5t57.5 -149t110.5 -92.5t150 -32q197 0 320 123t169 344
l91 428q24 117 9 208.5t-61 153.5t-114 94.5t-150 32.5q-195 0 -314.5 -122.5t-164.5 -336.5zM580 1526l18 90h88l-18 -90h-88zM971 1526l18 90h88l-18 -90h-88z" />
    <glyph glyph-name="Ograve.titl" horiz-adv-x="1196" 
d="M510 -20q-95 0 -172 35.5t-127 103.5t-66.5 166.5t9.5 224.5l94 448q48 232 180 364t346 132q95 0 173 -36.5t130 -106t69 -171t-9 -231.5l-90 -430q-49 -235 -185 -367t-352 -132zM201 500q-23 -113 -9 -201.5t57.5 -149t110.5 -92.5t150 -32q197 0 320 123t169 344
l91 428q24 117 9 208.5t-61 153.5t-114 94.5t-150 32.5q-195 0 -314.5 -122.5t-164.5 -336.5zM633 1755h55l166 -239h-53z" />
    <glyph glyph-name="Ohungarumlaut.titl" horiz-adv-x="1196" 
d="M510 -20q-95 0 -172 35.5t-127 103.5t-66.5 166.5t9.5 224.5l94 448q48 232 180 364t346 132q95 0 173 -36.5t130 -106t69 -171t-9 -231.5l-90 -430q-49 -235 -185 -367t-352 -132zM201 500q-23 -113 -9 -201.5t57.5 -149t110.5 -92.5t150 -32q197 0 320 123t169 344
l91 428q24 117 9 208.5t-61 153.5t-114 94.5t-150 32.5q-195 0 -314.5 -122.5t-164.5 -336.5zM631 1516l241 247h66l-246 -247h-61zM971 1516l239 247h68l-246 -247h-61z" />
    <glyph glyph-name="Omacron.titl" horiz-adv-x="1196" 
d="M510 -20q-95 0 -172 35.5t-127 103.5t-66.5 166.5t9.5 224.5l94 448q48 232 180 364t346 132q95 0 173 -36.5t130 -106t69 -171t-9 -231.5l-90 -430q-49 -235 -185 -367t-352 -132zM201 500q-23 -113 -9 -201.5t57.5 -149t110.5 -92.5t150 -32q197 0 320 123t169 344
l91 428q24 117 9 208.5t-61 153.5t-114 94.5t-150 32.5q-195 0 -314.5 -122.5t-164.5 -336.5zM520 1573l10 45h615l-10 -45h-615z" />
    <glyph glyph-name="uni01EA.titl" horiz-adv-x="1196" 
d="M510 -20q-95 0 -172 35.5t-127 103.5t-66.5 166.5t9.5 224.5l94 448q48 232 180 364t346 132q95 0 173 -36.5t130 -106t69 -171t-9 -231.5l-90 -430q-42 -201 -147.5 -327.5t-270.5 -159.5q-98 -75 -143.5 -129.5t-45.5 -118.5q0 -41 25.5 -63.5t75.5 -22.5h57l-20 -43
h-43q-69 0 -104.5 31t-35.5 88q0 70 40 127.5t120 120.5q-14 -2 -45 -2zM201 500q-23 -113 -9 -201.5t57.5 -149t110.5 -92.5t150 -32q64 0 119 12l2 2q146 34 238 151t130 302l91 428q24 117 9 208.5t-61 153.5t-114 94.5t-150 32.5q-195 0 -314.5 -122.5t-164.5 -336.5z
" />
    <glyph glyph-name="Oslash.titl" horiz-adv-x="1202" 
d="M514 -20q-192 0 -293 131l-149 -199l-39 22l160 216q-84 148 -37 362l94 446q49 233 181 364.5t347 131.5q189 0 297 -133l4 6l135 178l39 -22l-149 -195l-2 -4q88 -153 41 -375l-90 -430q-49 -235 -185.5 -367t-353.5 -132zM203 500q-39 -179 22 -307l819 1087
q-94 129 -266 129q-196 0 -316 -122.5t-165 -336.5zM252 150q87 -125 262 -125q198 0 322 123t170 344l90 428q41 184 -27 319z" />
    <glyph glyph-name="Oslashacute.titl" horiz-adv-x="1202" 
d="M514 -20q-192 0 -293 131l-149 -199l-39 22l160 216q-84 148 -37 362l94 446q49 233 181 364.5t347 131.5q189 0 297 -133l4 6l135 178l39 -22l-149 -195l-2 -4q88 -153 41 -375l-90 -430q-49 -235 -185.5 -367t-353.5 -132zM203 500q-39 -179 22 -307l819 1087
q-94 129 -266 129q-196 0 -316 -122.5t-165 -336.5zM252 150q87 -125 262 -125q198 0 322 123t170 344l90 428q41 184 -27 319zM778 1516l266 239h70l-268 -239h-68z" />
    <glyph glyph-name="Otilde.titl" horiz-adv-x="1196" 
d="M510 -20q-95 0 -172 35.5t-127 103.5t-66.5 166.5t9.5 224.5l94 448q48 232 180 364t346 132q95 0 173 -36.5t130 -106t69 -171t-9 -231.5l-90 -430q-49 -235 -185 -367t-352 -132zM201 500q-23 -113 -9 -201.5t57.5 -149t110.5 -92.5t150 -32q197 0 320 123t169 344
l91 428q24 117 9 208.5t-61 153.5t-114 94.5t-150 32.5q-195 0 -314.5 -122.5t-164.5 -336.5zM508 1518q26 104 78 154t110 50q38 0 80.5 -25.5t74 -56t68 -56t64.5 -25.5q45 0 81.5 39t57.5 120h47q-24 -101 -76.5 -151.5t-109.5 -50.5q-39 0 -81 25.5t-72 56t-67 56
t-67 25.5q-45 0 -83 -40t-60 -121h-45z" />
    <glyph glyph-name="OE.titl" horiz-adv-x="1552" 
d="M770 1389q-195 0 -314.5 -123.5t-164.5 -337.5l-86 -408q-23 -113 -9 -201.5t57.5 -149t110.5 -92.5t150 -32h223l283 1344h-250zM158 530l86 406q49 233 181 365.5t345 132.5h887l-8 -45h-578l-125 -582h502l-8 -45h-502l-154 -717h578l-8 -45h-840q-95 0 -172 35.5
t-127.5 103.5t-67 166.5t10.5 224.5z" />
    <glyph glyph-name="Q.titl" horiz-adv-x="1196" 
d="M496 0q-87 0 -159.5 35.5t-121 103.5t-65 166.5t9.5 224.5l88 428q48 232 180 364t346 132q95 0 173 -36.5t130 -106t69 -171t-9 -231.5l-84 -409q-75 -358 -332 -455h383l-8 -45h-600zM207 520q-45 -222 44 -348.5t253 -126.5q206 0 331 122.5t171 344.5l84 408
q24 117 9 208.5t-61 153.5t-114 94.5t-150 32.5q-195 0 -315.5 -123t-163.5 -336z" />
    <glyph glyph-name="r.calt" horiz-adv-x="606" 
d="M336 989l-33 -155q98 155 303 155h51l-8 -45h-51q-127 0 -215 -79t-119 -220l-137 -645h-49l209 989h49z" />
    <glyph glyph-name="racute.calt" horiz-adv-x="606" 
d="M336 989l-33 -155q98 155 303 155h51l-8 -45h-51q-127 0 -215 -79t-119 -220l-137 -645h-49l209 989h49zM440 1096l277 266h67l-282 -266h-62z" />
    <glyph glyph-name="rcaron.calt" horiz-adv-x="606" 
d="M336 989l-33 -155q98 155 303 155h51l-8 -45h-51q-127 0 -215 -79t-119 -220l-137 -645h-49l209 989h49zM281 1362h49l157 -225l252 225h62l-293 -266h-49z" />
    <glyph glyph-name="uni0157.calt" horiz-adv-x="606" 
d="M336 989l-33 -155q98 155 303 155h51l-8 -45h-51q-127 0 -215 -79t-119 -220l-137 -645h-49l209 989h49zM-154 -334l215 266h56l-221 -266h-50z" />
    <glyph glyph-name="germandbls.calt" horiz-adv-x="1185" 
d="M725 1434h526l-6 -37l-565 -600h76q149 0 237 -91t88 -227q0 -88 -38 -175t-101.5 -154t-154.5 -108.5t-191 -41.5h-305l8 45h297q114 0 215.5 61.5t162 162t60.5 210.5q0 119 -75.5 196t-202.5 77h-140l11 49l551 588h-461q-295 0 -369 -340l-221 -1049h-49l221 1049
q79 385 426 385z" />
    <glyph glyph-name="iacute_j.loclNLD" horiz-adv-x="811" 
d="M287 989h51l-209 -989h-51zM182 -385l8 43h89q55 0 97.5 37.5t57.5 103.5l252 1190h49l-252 -1190q-18 -86 -76.5 -135t-136.5 -49h-88zM293 1096l276 266h68l-283 -266h-61zM690 1096l277 266h67l-282 -266h-62z" />
    <glyph glyph-name="a.ss01" horiz-adv-x="1304" 
d="M545 -20q-197 0 -324 127t-127 319q0 110 43 215.5t117 187t182.5 131.5t231.5 50q170 0 292 -92t154 -244l66 315h49l-209 -989h-47l47 227q-80 -117 -204 -182t-271 -65zM143 430q0 -174 113.5 -289.5t292.5 -115.5q149 0 271.5 74t190.5 197t68 267q0 180 -112.5 291
t-298.5 111q-144 0 -265.5 -75.5t-190.5 -198.5t-69 -261z" />
    <glyph glyph-name="aacute.ss01" horiz-adv-x="1304" 
d="M545 -20q-197 0 -324 127t-127 319q0 110 43 215.5t117 187t182.5 131.5t231.5 50q170 0 292 -92t154 -244l66 315h49l-209 -989h-47l47 227q-80 -117 -204 -182t-271 -65zM143 430q0 -174 113.5 -289.5t292.5 -115.5q149 0 271.5 74t190.5 197t68 267q0 180 -112.5 291
t-298.5 111q-144 0 -265.5 -75.5t-190.5 -198.5t-69 -261zM731 1096l277 266h67l-282 -266h-62z" />
    <glyph glyph-name="abreve.ss01" horiz-adv-x="1304" 
d="M545 -20q-197 0 -324 127t-127 319q0 110 43 215.5t117 187t182.5 131.5t231.5 50q170 0 292 -92t154 -244l66 315h49l-209 -989h-47l47 227q-80 -117 -204 -182t-271 -65zM143 430q0 -174 113.5 -289.5t292.5 -115.5q149 0 271.5 74t190.5 197t68 267q0 180 -112.5 291
t-298.5 111q-144 0 -265.5 -75.5t-190.5 -198.5t-69 -261zM578 1356h45q-19 -105 25 -165.5t134 -60.5q91 0 162.5 64t93.5 162h45q-26 -122 -109.5 -194t-191.5 -72q-113 0 -169.5 77.5t-34.5 188.5z" />
    <glyph glyph-name="acircumflex.ss01" horiz-adv-x="1304" 
d="M545 -20q-197 0 -324 127t-127 319q0 110 43 215.5t117 187t182.5 131.5t231.5 50q170 0 292 -92t154 -244l66 315h49l-209 -989h-47l47 227q-80 -117 -204 -182t-271 -65zM143 430q0 -174 113.5 -289.5t292.5 -115.5q149 0 271.5 74t190.5 197t68 267q0 180 -112.5 291
t-298.5 111q-144 0 -265.5 -75.5t-190.5 -198.5t-69 -261zM514 1096l293 266h51l176 -266h-47l-158 227l-254 -227h-61z" />
    <glyph glyph-name="adieresis.ss01" horiz-adv-x="1304" 
d="M545 -20q-197 0 -324 127t-127 319q0 110 43 215.5t117 187t182.5 131.5t231.5 50q170 0 292 -92t154 -244l66 315h49l-209 -989h-47l47 227q-80 -117 -204 -182t-271 -65zM143 430q0 -174 113.5 -289.5t292.5 -115.5q149 0 271.5 74t190.5 197t68 267q0 180 -112.5 291
t-298.5 111q-144 0 -265.5 -75.5t-190.5 -198.5t-69 -261zM586 1163l20 90h88l-20 -90h-88zM903 1163l21 90h88l-21 -90h-88z" />
    <glyph glyph-name="uni1EA1.ss01" horiz-adv-x="1304" 
d="M545 -20q-197 0 -324 127t-127 319q0 110 43 215.5t117 187t182.5 131.5t231.5 50q170 0 292 -92t154 -244l66 315h49l-209 -989h-47l47 227q-80 -117 -204 -182t-271 -65zM143 430q0 -174 113.5 -289.5t292.5 -115.5q149 0 271.5 74t190.5 197t68 267q0 180 -112.5 291
t-298.5 111q-144 0 -265.5 -75.5t-190.5 -198.5t-69 -261zM420 -422l35 172h75l-34 -172h-76z" />
    <glyph glyph-name="agrave.ss01" horiz-adv-x="1304" 
d="M545 -20q-197 0 -324 127t-127 319q0 110 43 215.5t117 187t182.5 131.5t231.5 50q170 0 292 -92t154 -244l66 315h49l-209 -989h-47l47 227q-80 -117 -204 -182t-271 -65zM143 430q0 -174 113.5 -289.5t292.5 -115.5q149 0 271.5 74t190.5 197t68 267q0 180 -112.5 291
t-298.5 111q-144 0 -265.5 -75.5t-190.5 -198.5t-69 -261zM598 1364h53l142 -268h-50z" />
    <glyph glyph-name="amacron.ss01" horiz-adv-x="1304" 
d="M545 -20q-197 0 -324 127t-127 319q0 110 43 215.5t117 187t182.5 131.5t231.5 50q170 0 292 -92t154 -244l66 315h49l-209 -989h-47l47 227q-80 -117 -204 -182t-271 -65zM143 430q0 -174 113.5 -289.5t292.5 -115.5q149 0 271.5 74t190.5 197t68 267q0 180 -112.5 291
t-298.5 111q-144 0 -265.5 -75.5t-190.5 -198.5t-69 -261zM496 1149l10 45h579l-10 -45h-579z" />
    <glyph glyph-name="aogonek.ss01" horiz-adv-x="1304" 
d="M545 -20q-197 0 -324 127t-127 319q0 110 43 215.5t117 187t182.5 131.5t231.5 50q170 0 292 -92t154 -244l66 315h49l-209 -989q-105 -78 -153 -134.5t-48 -121.5q0 -41 25.5 -63.5t75.5 -22.5h57l-21 -43h-43q-69 0 -104 31t-35 88q0 79 49 140.5t152 139.5l45 213
q-80 -117 -204 -182t-271 -65zM143 430q0 -174 113.5 -289.5t292.5 -115.5q149 0 271.5 74t190.5 197t68 267q0 180 -112.5 291t-298.5 111q-144 0 -265.5 -75.5t-190.5 -198.5t-69 -261z" />
    <glyph glyph-name="aring.ss01" horiz-adv-x="1304" 
d="M545 -20q-197 0 -324 127t-127 319q0 110 43 215.5t117 187t182.5 131.5t231.5 50q170 0 292 -92t154 -244l66 315h49l-209 -989h-47l47 227q-80 -117 -204 -182t-271 -65zM143 430q0 -174 113.5 -289.5t292.5 -115.5q149 0 271.5 74t190.5 197t68 267q0 180 -112.5 291
t-298.5 111q-144 0 -265.5 -75.5t-190.5 -198.5t-69 -261zM545 1270q0 94 71 157.5t172 63.5q91 0 149 -50.5t58 -129.5q0 -95 -70 -159.5t-169 -64.5q-92 0 -151.5 51.5t-59.5 131.5zM596 1272q0 -62 44.5 -102t115.5 -40q79 0 134.5 51.5t55.5 127.5q0 60 -44.5 98.5
t-113.5 38.5q-82 0 -137 -49.5t-55 -124.5z" />
    <glyph glyph-name="aringacute.ss01" horiz-adv-x="1304" 
d="M545 -20q-197 0 -324 127t-127 319q0 110 43 215.5t117 187t182.5 131.5t231.5 50q170 0 292 -92t154 -244l66 315h49l-209 -989h-47l47 227q-80 -117 -204 -182t-271 -65zM143 430q0 -174 113.5 -289.5t292.5 -115.5q149 0 271.5 74t190.5 197t68 267q0 180 -112.5 291
t-298.5 111q-144 0 -265.5 -75.5t-190.5 -198.5t-69 -261zM578 1270q0 94 71 157.5t172 63.5h23l241 231h68l-256 -241q61 -19 96 -64t35 -106q0 -94 -70.5 -159t-169.5 -65q-92 0 -151 51.5t-59 131.5zM629 1272q0 -62 44 -102t115 -40q79 0 135 51.5t56 127.5
q0 60 -44.5 98.5t-113.5 38.5q-82 0 -137 -49.5t-55 -124.5z" />
    <glyph glyph-name="atilde.ss01" horiz-adv-x="1304" 
d="M545 -20q-197 0 -324 127t-127 319q0 110 43 215.5t117 187t182.5 131.5t231.5 50q170 0 292 -92t154 -244l66 315h49l-209 -989h-47l47 227q-80 -117 -204 -182t-271 -65zM143 430q0 -174 113.5 -289.5t292.5 -115.5q149 0 271.5 74t190.5 197t68 267q0 180 -112.5 291
t-298.5 111q-144 0 -265.5 -75.5t-190.5 -198.5t-69 -261zM489 1126q49 246 199 246q39 0 68 -21t46.5 -50.5t34 -59.5t40.5 -51t57 -21q45 0 82.5 51t58.5 150h47q-28 -126 -78 -187t-110 -61q-44 0 -76.5 21t-51 51t-34 60.5t-36.5 51.5t-48 21q-108 0 -151 -201h-48z" />
    <glyph glyph-name="s.ss02" horiz-adv-x="882" 
d="M317 0q-133 0 -209.5 78t-54.5 192l6 31h50l-7 -31q-21 -103 42 -164t182 -61h92q98 0 175 50.5t99 150.5q20 94 -16 153t-121 80l-229 56q-87 21 -128 88t-20 163q42 203 316 203h75q116 0 183.5 -64.5t52.5 -158.5l-4 -25h-49l4 25q13 83 -41.5 130.5t-145.5 47.5h-77
q-232 0 -269 -170q-17 -80 16 -130.5t107 -68.5l232 -55q99 -23 141.5 -99t17.5 -192q-23 -106 -112.5 -167.5t-214.5 -61.5h-93z" />
    <glyph glyph-name="sacute.ss02" horiz-adv-x="882" 
d="M317 0q-133 0 -209.5 78t-54.5 192l6 31h50l-7 -31q-21 -103 42 -164t182 -61h92q98 0 175 50.5t99 150.5q20 94 -16 153t-121 80l-229 56q-87 21 -128 88t-20 163q42 203 316 203h75q116 0 183.5 -64.5t52.5 -158.5l-4 -25h-49l4 25q13 83 -41.5 130.5t-145.5 47.5h-77
q-232 0 -269 -170q-17 -80 16 -130.5t107 -68.5l232 -55q99 -23 141.5 -99t17.5 -192q-23 -106 -112.5 -167.5t-214.5 -61.5h-93zM526 1096l277 266h67l-282 -266h-62z" />
    <glyph glyph-name="scaron.ss02" horiz-adv-x="882" 
d="M317 0q-133 0 -209.5 78t-54.5 192l6 31h50l-7 -31q-21 -103 42 -164t182 -61h92q98 0 175 50.5t99 150.5q20 94 -16 153t-121 80l-229 56q-87 21 -128 88t-20 163q42 203 316 203h75q116 0 183.5 -64.5t52.5 -158.5l-4 -25h-49l4 25q13 83 -41.5 130.5t-145.5 47.5h-77
q-232 0 -269 -170q-17 -80 16 -130.5t107 -68.5l232 -55q99 -23 141.5 -99t17.5 -192q-23 -106 -112.5 -167.5t-214.5 -61.5h-93zM367 1362h49l157 -225l252 225h62l-293 -266h-49z" />
    <glyph glyph-name="scedilla.ss02" horiz-adv-x="882" 
d="M317 0q-133 0 -209.5 78t-54.5 192l6 31h50l-7 -31q-21 -103 42 -164t182 -61h92q98 0 175 50.5t99 150.5q20 94 -16 153t-121 80l-229 56q-87 21 -128 88t-20 163q42 203 316 203h75q116 0 183.5 -64.5t52.5 -158.5l-4 -25h-49l4 25q13 83 -41.5 130.5t-145.5 47.5h-77
q-232 0 -269 -170q-17 -80 16 -130.5t107 -68.5l232 -55q99 -23 141.5 -99t17.5 -192q-23 -106 -112.5 -167.5t-214.5 -61.5h-11l-92 -162h41q58 0 92.5 -35t34.5 -94q0 -80 -54.5 -129t-137.5 -49h-95l11 45h94q56 0 96.5 38t40.5 93q0 39 -25 62.5t-67 23.5h-90l8 39
l94 168h-33z" />
    <glyph glyph-name="scircumflex.ss02" horiz-adv-x="882" 
d="M317 0q-133 0 -209.5 78t-54.5 192l6 31h50l-7 -31q-21 -103 42 -164t182 -61h92q98 0 175 50.5t99 150.5q20 94 -16 153t-121 80l-229 56q-87 21 -128 88t-20 163q42 203 316 203h75q116 0 183.5 -64.5t52.5 -158.5l-4 -25h-49l4 25q13 83 -41.5 130.5t-145.5 47.5h-77
q-232 0 -269 -170q-17 -80 16 -130.5t107 -68.5l232 -55q99 -23 141.5 -99t17.5 -192q-23 -106 -112.5 -167.5t-214.5 -61.5h-93zM309 1096l293 266h51l176 -266h-47l-157 227l-254 -227h-62z" />
    <glyph glyph-name="uni0219.ss02" horiz-adv-x="882" 
d="M317 0q-133 0 -209.5 78t-54.5 192l6 31h50l-7 -31q-21 -103 42 -164t182 -61h92q98 0 175 50.5t99 150.5q20 94 -16 153t-121 80l-229 56q-87 21 -128 88t-20 163q42 203 316 203h75q116 0 183.5 -64.5t52.5 -158.5l-4 -25h-49l4 25q13 83 -41.5 130.5t-145.5 47.5h-77
q-232 0 -269 -170q-17 -80 16 -130.5t107 -68.5l232 -55q99 -23 141.5 -99t17.5 -192q-23 -106 -112.5 -167.5t-214.5 -61.5h-93zM117 -334l215 266h55l-221 -266h-49z" />
    <glyph glyph-name="t.ss03" horiz-adv-x="626" 
d="M102 944l9 45h120q51 0 77 20.5t36 71.5l39 189h47l-59 -281h321l-8 -45h-322l-145 -678q-25 -115 14.5 -168t151.5 -53h109l-9 -45h-104q-269 0 -211 266l145 678h-211z" />
    <glyph glyph-name="tbar.ss03" horiz-adv-x="663" 
d="M135 944l8 45h121q51 0 77 20.5t36 71.5l39 189h47l-60 -281h322l-8 -45h-322l-92 -428h322l-9 -41h-321l-45 -209q-48 -221 170 -221h104l-8 -45h-104q-269 0 -211 266l45 209h-211l8 41h211l92 428h-211z" />
    <glyph glyph-name="tcaron.ss03" horiz-adv-x="626" 
d="M102 944l9 45h120q51 0 77 20.5t36 71.5l39 189h47l-59 -281h321l-8 -45h-322l-145 -678q-25 -115 14.5 -168t151.5 -53h109l-9 -45h-104q-269 0 -211 266l145 678h-211zM637 1096l127 385h57l-139 -385h-45z" />
    <glyph glyph-name="uni0163.ss03" horiz-adv-x="626" 
d="M102 944l9 45h120q51 0 77 20.5t36 71.5l39 189h47l-59 -281h321l-8 -45h-322l-145 -678q-25 -115 14.5 -168t151.5 -53h109l-9 -45h-104h-14l-93 -162h41q58 0 92.5 -35t34.5 -94q0 -80 -54.5 -129t-137.5 -49h-94l10 45h94q56 0 96.5 38t40.5 93q0 39 -25 62.5
t-67 23.5h-90l8 39l96 172q-202 27 -149 262l145 678h-211z" />
    <glyph glyph-name="uni021B.ss03" horiz-adv-x="626" 
d="M102 944l9 45h120q51 0 77 20.5t36 71.5l39 189h47l-59 -281h321l-8 -45h-322l-145 -678q-25 -115 14.5 -168t151.5 -53h109l-9 -45h-104q-269 0 -211 266l145 678h-211zM82 -334l215 266h55l-221 -266h-49z" />
    <glyph glyph-name="ae.ss04" horiz-adv-x="2123" 
d="M545 -20q-197 0 -324 127t-127 319q0 110 43 215.5t117 187t182.5 131.5t231.5 50q170 0 289 -91.5t151 -244.5l66 315h49l-72 -301q47 105 132.5 180t178.5 108.5t187 33.5q178 0 290.5 -103t112.5 -260q0 -61 -12 -123h-910q-12 -63 -12 -122.5t12 -116t40.5 -103.5
t71.5 -82.5t107.5 -55t145.5 -19.5q91 0 176 31t154 93.5t104 147.5h53q-64 -155 -195.5 -236t-291.5 -81q-168 0 -275 79t-137 211l-53 -270h-47l55 258q-189 -278 -493 -278zM143 430q0 -174 113.5 -289.5t292.5 -115.5q149 0 271.5 74t190.5 197t68 267q0 180 -112.5 291
t-298.5 111q-144 0 -265.5 -75.5t-190.5 -198.5t-69 -261zM1143 569h856q26 169 -74.5 282.5t-275.5 113.5q-164 0 -308.5 -109.5t-197.5 -286.5z" />
    <glyph glyph-name="aeacute.ss04" horiz-adv-x="2123" 
d="M545 -20q-197 0 -324 127t-127 319q0 110 43 215.5t117 187t182.5 131.5t231.5 50q170 0 289 -91.5t151 -244.5l66 315h49l-72 -301q47 105 132.5 180t178.5 108.5t187 33.5q178 0 290.5 -103t112.5 -260q0 -61 -12 -123h-910q-12 -63 -12 -122.5t12 -116t40.5 -103.5
t71.5 -82.5t107.5 -55t145.5 -19.5q91 0 176 31t154 93.5t104 147.5h53q-64 -155 -195.5 -236t-291.5 -81q-168 0 -275 79t-137 211l-53 -270h-47l55 258q-189 -278 -493 -278zM143 430q0 -174 113.5 -289.5t292.5 -115.5q149 0 271.5 74t190.5 197t68 267q0 180 -112.5 291
t-298.5 111q-144 0 -265.5 -75.5t-190.5 -198.5t-69 -261zM1143 569h856q26 169 -74.5 282.5t-275.5 113.5q-164 0 -308.5 -109.5t-197.5 -286.5zM1149 1096l276 266h68l-283 -266h-61z" />
    <glyph glyph-name="f_f.dlig" horiz-adv-x="1075" 
d="M125 0l201 944h-222l9 45h221l39 176q55 269 321 269h45l-8 -45h-45q-109 0 -173.5 -54.5t-90.5 -169.5l-39 -176h471l39 176q55 269 321 269h46l-9 -45h-45q-109 0 -173.5 -54.5t-90.5 -169.5l-39 -176h262l-8 -45h-262l-201 -944h-49l201 944h-471l-201 -944h-49z" />
    <glyph glyph-name="f_f_i.dlig" horiz-adv-x="1499" 
d="M125 0l201 944h-222l9 45h221l39 176q55 269 321 269h45l-8 -45h-45q-109 0 -173.5 -54.5t-90.5 -169.5l-39 -176h471l39 176q55 269 321 269h218l-9 -45h-217q-109 0 -173.5 -54.5t-90.5 -169.5l-39 -176h520l-209 -989h-49l199 944h-469l-201 -944h-49l201 944h-471
l-201 -944h-49z" />
    <glyph glyph-name="f_f_l.dlig" horiz-adv-x="1499" 
d="M125 0l201 944h-222l9 45h221l39 176q55 269 321 269h45l-8 -45h-45q-109 0 -173.5 -54.5t-90.5 -169.5l-39 -176h471l39 176q55 269 321 269h46l-9 -45h-45q-109 0 -173.5 -54.5t-90.5 -169.5l-39 -176h471l94 445h50l-304 -1434h-49l199 944h-469l-201 -944h-49
l201 944h-471l-201 -944h-49z" />
    <glyph glyph-name="f_f_t.dlig" horiz-adv-x="1679" 
d="M125 0l201 944h-222l9 45h221l43 197q54 248 311 248h51l-8 -45h-45q-109 0 -174 -54.5t-90 -169.5l-39 -176h471l43 197q54 248 311 248h62l-8 -45h-56q-109 0 -174 -54.5t-90 -169.5l-39 -176h471l60 281h49l-60 -281h322l-8 -45h-322l-149 -698q-20 -96 24 -148.5
t150 -52.5h104l-8 -45h-98q-272 0 -217 266l145 678h-471l-201 -944h-49l201 944h-471l-201 -944h-49z" />
    <glyph glyph-name="f_i.dlig" horiz-adv-x="978" 
d="M125 0l201 944h-222l9 45h221l39 176q29 136 108 202.5t213 66.5h217l-8 -45h-217q-109 0 -173.5 -54.5t-90.5 -169.5l-39 -176h520l-209 -989h-49l199 944h-469l-201 -944h-49z" />
    <glyph glyph-name="f_l.dlig" horiz-adv-x="978" 
d="M125 0l201 944h-222l9 45h221l39 176q29 136 108 202.5t213 66.5h45l-8 -45h-45q-109 0 -173.5 -54.5t-90.5 -169.5l-39 -176h471l94 445h49l-303 -1434h-49l199 944h-469l-201 -944h-49z" />
    <glyph glyph-name="f_t.dlig" horiz-adv-x="1159" 
d="M125 0l201 944h-222l9 45h221l43 197q54 248 311 248h62l-9 -45h-55q-109 0 -173.5 -54.5t-90.5 -169.5l-39 -176h471l59 281h50l-60 -281h322l-8 -45h-322l-150 -698q-20 -96 24.5 -148.5t150.5 -52.5h104l-8 -45h-98q-276 0 -218 266l146 678h-471l-201 -944h-49z" />
    <glyph glyph-name="zero.zero" horiz-adv-x="1210" 
d="M528 -20q-98 0 -178 36.5t-130.5 105.5t-68 167.5t8.5 222.5l86 408q56 266 188 400t346 134q100 0 179.5 -38t129.5 -109.5t66 -174.5t-12 -233l-86 -407q-109 -512 -529 -512zM197 305l901 866q-31 113 -115 175.5t-203 62.5q-199 0 -316.5 -126.5t-172.5 -383.5
l-86 -407q-21 -100 -8 -187zM207 256q31 -108 116 -169.5t203 -61.5q201 0 318 122t168 365l86 408q23 106 10 200z" />
    <glyph glyph-name="two.ss02" horiz-adv-x="1079" 
d="M4 0l8 43l736 641q68 60 108.5 99.5t81 88.5t63.5 98t35 107q30 138 -41 225t-204 87h-111q-137 0 -244 -87.5t-137 -234.5l-25 -119h-49l31 142q32 152 149.5 248t274.5 96h111q158 0 242.5 -102.5t47.5 -274.5q-22 -104 -93 -197t-204 -207l-698 -608h807l-8 -45h-881z
" />
    <glyph glyph-name="zero.tf" horiz-adv-x="1310" 
d="M578 -20q-98 0 -178 36.5t-131 105.5t-68.5 167.5t8.5 222.5l86 408q56 266 188 400t346 134q100 0 179.5 -38t129.5 -109.5t66 -174.5t-12 -233l-86 -407q-109 -512 -528 -512zM254 492q-45 -206 49.5 -336.5t271.5 -130.5q201 0 318 122t168 365l86 408
q46 220 -47 354.5t-271 134.5q-199 0 -316.5 -126.5t-172.5 -383.5z" />
    <glyph glyph-name="one.tf" horiz-adv-x="1310" 
d="M174 0l8 45h406l237 1116h-364l10 45h289q49 0 68 16t28 64l31 148h47l-295 -1389h387l-8 -45h-844z" />
    <glyph glyph-name="two.tf" horiz-adv-x="1310" 
d="M117 0l8 43l735 641q49 44 63.5 57t57 54t58 61t44.5 60t40.5 70.5t21.5 71.5t10 83q0 125 -89 196.5t-241 71.5q-153 0 -271.5 -109.5t-152.5 -283.5h-49q40 200 171.5 319t312.5 119q167 0 266.5 -85t99.5 -230q0 -74 -23 -140t-70.5 -127.5t-93.5 -107t-118 -107.5
l-707 -612h816l-9 -45h-880z" />
    <glyph glyph-name="three.tf" horiz-adv-x="1310" 
d="M561 -20q-201 0 -314 120t-75 301h49q-35 -166 63.5 -271t276.5 -105q107 0 196.5 38t146 100t87.5 138t31 154q0 124 -93 190t-261 66h-50l11 45h49q124 0 232 47t176.5 138t68.5 208q0 123 -87.5 191.5t-242.5 68.5q-94 0 -181.5 -39.5t-155 -121.5t-91.5 -191h-49
q40 188 176 292.5t312 104.5q170 0 269 -83t99 -222q0 -154 -107.5 -269t-267.5 -147q117 -23 179.5 -94t62.5 -180q0 -202 -143.5 -340.5t-366.5 -138.5z" />
    <glyph glyph-name="four.tf" horiz-adv-x="1310" 
d="M158 360l10 43l745 1031h60l-746 -1031h623l92 439h51l-92 -439h242l-10 -43h-242l-76 -360h-51l76 360h-682z" />
    <glyph glyph-name="five.tf" horiz-adv-x="1310" 
d="M575 -20q-200 0 -311.5 118t-73.5 295h50q-35 -166 61 -267t274 -101q127 0 238 71.5t175.5 188.5t64.5 247q0 151 -91.5 230.5t-250.5 79.5q-210 0 -355 -148h-43l226 740h678l-9 -45h-635l-196 -633q149 131 334 131q181 0 285 -91.5t104 -263.5q0 -108 -39.5 -208.5
t-108 -176t-167.5 -121.5t-210 -46z" />
    <glyph glyph-name="six.tf" horiz-adv-x="1310" 
d="M600 -20q-169 0 -286 117.5t-117 281.5q0 90 46 206.5t132 219.5l520 629h59l-544 -650q153 115 311 115q182 0 297 -112t115 -285q0 -139 -73 -259.5t-196 -191.5t-264 -71zM246 381q0 -146 102 -251t258 -105q126 0 236 64t175.5 174t65.5 237q0 158 -99.5 256
t-262.5 98q-96 0 -185 -41.5t-152 -107.5t-100.5 -152t-37.5 -172z" />
    <glyph glyph-name="seven.tf" horiz-adv-x="1310" 
d="M270 0l955 1389h-842l8 45h893l-8 -45l-950 -1389h-56z" />
    <glyph glyph-name="eight.tf" horiz-adv-x="1310" 
d="M569 -20q-175 0 -282 91t-107 240q0 164 117 289t278 156q-98 22 -156.5 93t-58.5 175q0 88 39.5 168t104.5 137t151 91t176 34q163 0 264 -80.5t101 -216.5q0 -62 -20.5 -123.5t-61 -117.5t-110 -99t-158.5 -61q111 -21 177.5 -99.5t66.5 -197.5q0 -128 -69.5 -238.5
t-189.5 -175.5t-262 -65zM229 311q0 -126 92.5 -206t247.5 -80q196 0 333.5 129.5t137.5 308.5q0 128 -87.5 198t-239.5 70q-197 0 -340.5 -125.5t-143.5 -294.5zM410 1024q0 -112 81 -180t220 -68q193 0 314.5 110t121.5 271q0 116 -87.5 184t-228.5 68q-88 0 -167 -32
t-134 -85t-87.5 -123t-32.5 -145z" />
    <glyph glyph-name="nine.tf" horiz-adv-x="1310" 
d="M807 1454q169 0 286 -117.5t117 -281.5q0 -90 -46 -206.5t-132 -219.5l-520 -629h-59l544 649q-152 -114 -311 -114q-182 0 -297 112t-115 285q0 139 73 259.5t196 191.5t264 71zM324 934q0 -158 99.5 -256t262.5 -98q96 0 185 41.5t152 107.5t100.5 152t37.5 172
q0 146 -102 251t-258 105q-126 0 -236 -64t-175.5 -174t-65.5 -237z" />
    <glyph glyph-name="zero.tf.zero" horiz-adv-x="1310" 
d="M578 -20q-98 0 -178 36.5t-131 105.5t-68.5 167.5t8.5 222.5l86 408q56 266 188 400t346 134q100 0 179.5 -38t129.5 -109.5t66 -174.5t-12 -233l-86 -407q-109 -512 -528 -512zM246 305l901 866q-31 113 -115 175.5t-203 62.5q-199 0 -316.5 -126.5t-172.5 -383.5
l-86 -407q-21 -100 -8 -187zM256 256q31 -108 116 -169.5t203 -61.5q201 0 318 122t168 365l86 408q23 106 10 200z" />
    <glyph glyph-name="zero.dnom" horiz-adv-x="749" 
d="M285 -12q-125 0 -192 86t-34 233l54 244q68 321 327 321q126 0 190.5 -90.5t31.5 -242.5l-54 -244q-67 -307 -323 -307zM104 299q-27 -126 27 -198t158 -72q115 0 181.5 70.5t96.5 211.5l49 236q27 127 -26 205.5t-156 78.5q-115 0 -182 -73t-98 -223z" />
    <glyph glyph-name="one.dnom" horiz-adv-x="354" 
d="M303 858l-182 -858h-47l145 680h-129l8 43h78q24 0 43 14t25 41l16 80h43z" />
    <glyph glyph-name="two.dnom" horiz-adv-x="665" 
d="M-37 0l8 39l428 371q39 34 54.5 47.5t45 45t42 53.5t23.5 55t11 67q0 71 -50 111t-136 40q-88 0 -153.5 -61.5t-85.5 -163.5h-48q25 127 102 197.5t191 70.5q101 0 164.5 -52t63.5 -140q0 -47 -13.5 -88t-43.5 -79t-56.5 -63.5t-71.5 -64.5l-393 -342h463l-10 -43h-535z
" />
    <glyph glyph-name="three.dnom" horiz-adv-x="700" 
d="M258 -12q-122 0 -194 75t-50 181h47q-18 -92 39 -152.5t154 -60.5q117 0 190.5 71.5t73.5 169.5q0 71 -51.5 109.5t-144.5 38.5h-37l8 41h37q108 0 185 62.5t77 160.5q0 69 -47 107t-133 38q-83 0 -153.5 -52t-92.5 -146h-47q24 114 110 177.5t193 63.5
q102 0 159.5 -49.5t57.5 -134.5q0 -96 -63.5 -165t-153.5 -83q69 -13 105 -56.5t36 -109.5q0 -52 -19.5 -102t-56 -91.5t-96.5 -67t-133 -25.5z" />
    <glyph glyph-name="four.dnom" horiz-adv-x="669" 
d="M-8 213l10 41l434 606h56l-435 -606h349l53 252h47l-53 -252h141l-10 -41h-142l-45 -213h-47l45 213h-403z" />
    <glyph glyph-name="five.dnom" horiz-adv-x="677" 
d="M244 -12q-117 0 -185.5 69.5t-44.5 182.5h47q-21 -96 33 -152.5t154 -56.5q105 0 189.5 86.5t84.5 208.5q0 83 -48 126.5t-136 43.5q-54 0 -111 -23t-100 -61l-39 8l133 440h418l-8 -43h-377l-111 -358q36 33 92.5 54.5t104.5 21.5q109 0 169 -54t60 -151
q0 -140 -94.5 -241t-230.5 -101z" />
    <glyph glyph-name="six.dnom" horiz-adv-x="686" 
d="M262 -12q-105 0 -173.5 69.5t-68.5 167.5q0 80 39.5 148.5t116.5 158.5l283 328h61l-301 -348q64 33 131 33q110 0 177 -64.5t67 -167.5q0 -132 -100.5 -228.5t-231.5 -96.5zM70 227q0 -82 55.5 -139t142.5 -57q111 0 195 81.5t84 196.5q0 86 -55 140.5t-146 54.5
q-109 0 -192.5 -83.5t-83.5 -193.5z" />
    <glyph glyph-name="seven.dnom" horiz-adv-x="595" 
d="M18 0l557 817h-487l8 43h541l-8 -41l-555 -819h-56z" />
    <glyph glyph-name="eight.dnom" horiz-adv-x="708" 
d="M264 -12q-112 0 -178 54.5t-66 145.5q0 94 67 168.5t167 96.5q-57 15 -90 57t-33 102q0 106 85.5 183t205.5 77q100 0 161.5 -49t61.5 -133q0 -91 -57 -152.5t-150 -84.5q61 -12 99 -59.5t38 -117.5q0 -119 -88.5 -203.5t-222.5 -84.5zM68 190q0 -72 52 -116.5t140 -44.5
q109 0 188.5 72t79.5 173q0 74 -50.5 115t-135.5 41q-111 0 -192.5 -70.5t-81.5 -169.5zM176 612q0 -63 46 -102t128 -39q105 0 177.5 63t72.5 154q0 64 -50 105t-128 41q-100 0 -173 -64t-73 -158z" />
    <glyph glyph-name="nine.dnom" horiz-adv-x="684" 
d="M397 872q105 0 173.5 -69.5t68.5 -167.5q0 -80 -39.5 -148.5t-116.5 -158.5l-282 -328h-62l301 348q-64 -33 -131 -33q-110 0 -176.5 64.5t-66.5 167.5q0 132 100 228.5t231 96.5zM113 551q0 -86 54.5 -140.5t145.5 -54.5q109 0 193 83.5t84 193.5q0 81 -56 138.5
t-143 57.5q-111 0 -194.5 -81.5t-83.5 -196.5z" />
    <glyph glyph-name="zero.numr" horiz-adv-x="749" 
d="M408 563q-125 0 -192 86.5t-34 233.5l54 243q69 322 327 322q125 0 189.5 -90.5t31.5 -243.5l-53 -244q-67 -307 -323 -307zM227 874q-27 -126 27 -198t158 -72q115 0 181.5 71t96.5 212l49 235q27 127 -26.5 206t-155.5 79q-115 0 -182.5 -73.5t-98.5 -223.5z" />
    <glyph glyph-name="one.numr" horiz-adv-x="352" 
d="M424 1434l-182 -859h-47l145 680h-129l8 43h78q24 0 43 14t25 42l16 80h43z" />
    <glyph glyph-name="two.numr" horiz-adv-x="661" 
d="M84 575l8 39l428 371q39 34 54.5 47.5t45 45t42 53.5t23.5 55t11 67q0 71 -50 111.5t-136 40.5q-88 0 -154 -61.5t-86 -163.5h-47q25 127 102 197.5t191 70.5q101 0 164 -52.5t63 -140.5q0 -47 -13.5 -88t-43 -78.5t-56 -63t-71.5 -64.5l-393 -343h463l-11 -43h-534z" />
    <glyph glyph-name="three.numr" horiz-adv-x="698" 
d="M379 563q-122 0 -194 75t-50 181h47q-18 -92 39 -152.5t154 -60.5q117 0 190.5 72t73.5 170q0 71 -52 109t-145 38h-36l8 41h37q108 0 185 62.5t77 161.5q0 69 -47.5 107t-133.5 38q-82 0 -152.5 -52t-92.5 -147h-47q24 114 110 178t193 64q102 0 159.5 -49.5
t57.5 -134.5q0 -96 -63.5 -165t-153.5 -83q69 -13 105 -56.5t36 -109.5q0 -52 -19.5 -102t-56 -92t-96.5 -67.5t-133 -25.5z" />
    <glyph glyph-name="four.numr" horiz-adv-x="671" 
d="M113 788l10 41l434 607h55l-434 -607h348l54 252h47l-54 -252h142l-10 -41h-142l-45 -213h-47l45 213h-403z" />
    <glyph glyph-name="five.numr" horiz-adv-x="679" 
d="M367 563q-117 0 -185.5 69.5t-44.5 182.5h47q-21 -96 33 -152.5t154 -56.5q105 0 189.5 86.5t84.5 208.5q0 83 -48 126.5t-136 43.5q-54 0 -111 -23t-100 -61l-39 8l133 441h418l-8 -43h-377l-111 -359q36 33 92.5 54.5t104.5 21.5q109 0 169 -54t60 -151
q0 -140 -94.5 -241t-230.5 -101z" />
    <glyph glyph-name="six.numr" horiz-adv-x="684" 
d="M383 563q-105 0 -173.5 70t-68.5 168q0 80 39.5 148.5t116.5 158.5l283 328h61l-301 -349q64 33 131 33q110 0 177 -64t67 -167q0 -132 -100.5 -229t-231.5 -97zM190 803q0 -82 56 -139.5t143 -57.5q111 0 195 82t84 197q0 86 -55 140t-146 54q-109 0 -193 -83t-84 -193z
" />
    <glyph glyph-name="seven.numr" horiz-adv-x="598" 
d="M141 575l557 818h-487l8 43h541l-8 -41l-555 -820h-56z" />
    <glyph glyph-name="eight.numr" horiz-adv-x="708" 
d="M387 563q-112 0 -178 55t-66 146q0 94 67 168t167 96q-57 15 -90 57.5t-33 102.5q0 106 85.5 183t205.5 77q100 0 161.5 -49t61.5 -133q0 -91 -57 -153t-150 -85q62 -12 99.5 -59t37.5 -117q0 -119 -88.5 -204t-222.5 -85zM190 766q0 -72 52.5 -117t140.5 -45
q109 0 188.5 72.5t79.5 173.5q0 74 -50.5 115t-135.5 41q-111 0 -193 -70.5t-82 -169.5zM299 1188q0 -63 46 -102t128 -39q105 0 177.5 63t72.5 154q0 64 -50 104.5t-128 40.5q-100 0 -173 -63.5t-73 -157.5z" />
    <glyph glyph-name="nine.numr" horiz-adv-x="684" 
d="M520 1448q105 0 173.5 -70t68.5 -168q0 -80 -39.5 -148.5t-116.5 -158.5l-282 -328h-62l301 349q-64 -33 -131 -33q-110 0 -177 64t-67 167q0 132 100.5 229t231.5 97zM236 1126q0 -86 54.5 -140t145.5 -54q109 0 193 83t84 193q0 82 -56 139.5t-143 57.5
q-111 0 -194.5 -82t-83.5 -197z" />
    <glyph glyph-name="zero.dnom.zero" horiz-adv-x="749" 
d="M285 -12q-125 0 -192 86t-34 233l54 244q68 321 327 321q126 0 190.5 -90.5t31.5 -242.5l-54 -244q-67 -307 -323 -307zM96 207l518 493q-19 63 -66.5 97t-113.5 34q-115 0 -182 -73t-98 -223l-50 -236q-10 -57 -8 -92zM104 158q18 -62 67 -95.5t118 -33.5
q115 0 181.5 70.5t96.5 211.5l49 236q12 58 9 104z" />
    <glyph glyph-name="zero.numr.zero" horiz-adv-x="749" 
d="M408 563q-125 0 -192 86.5t-34 233.5l54 243q69 322 327 322q125 0 189.5 -90.5t31.5 -243.5l-53 -244q-67 -307 -323 -307zM219 782l518 494q-19 63 -66.5 97t-113.5 34q-115 0 -182.5 -73.5t-98.5 -223.5l-49 -236q-10 -57 -8 -92zM227 733q18 -62 67 -95.5t118 -33.5
q115 0 181.5 71t96.5 212l49 235q12 58 9 105z" />
    <glyph glyph-name="zero.sinf" horiz-adv-x="747" 
d="M231 -258q-125 0 -191.5 86t-33.5 233l53 244q69 322 328 322q125 0 189.5 -90.5t31.5 -243.5l-53 -244q-67 -307 -324 -307zM51 53q-27 -126 27 -198t158 -72q115 0 181.5 71t96.5 212l49 235q27 127 -26.5 206t-155.5 79q-115 0 -182.5 -73.5t-98.5 -223.5z" />
    <glyph glyph-name="one.sinf" horiz-adv-x="354" 
d="M250 612l-182 -858h-48l146 680h-129l8 43h78q24 0 42.5 14t24.5 41l17 80h43z" />
    <glyph glyph-name="two.sinf" horiz-adv-x="665" 
d="M-90 -246l8 39l428 371q39 34 54.5 47.5t45 45t42 53.5t23.5 55t11 67q0 71 -50 111.5t-136 40.5q-88 0 -154 -62t-86 -164h-47q25 127 102 198t191 71q101 0 164 -52.5t63 -140.5q0 -47 -13.5 -88t-43 -78.5t-56 -63.5t-71.5 -65l-393 -342h463l-11 -43h-534z" />
    <glyph glyph-name="three.sinf" horiz-adv-x="700" 
d="M207 -258q-122 0 -194 75t-50 181h47q-18 -92 39 -152.5t154 -60.5q117 0 190.5 72t73.5 170q0 71 -52 109t-145 38h-37l9 41h37q108 0 185 62.5t77 160.5q0 69 -47.5 107.5t-133.5 38.5q-82 0 -152.5 -52t-92.5 -147h-47q24 114 110 178t193 64q102 0 159.5 -50
t57.5 -135q0 -96 -63.5 -164.5t-153.5 -82.5q69 -13 105 -56.5t36 -109.5q0 -52 -19.5 -102t-56 -92t-96.5 -67.5t-133 -25.5z" />
    <glyph glyph-name="four.sinf" horiz-adv-x="671" 
d="M-59 -33l10 41l434 606h55l-434 -606h348l54 252h47l-54 -252h142l-11 -41h-141l-45 -213h-47l45 213h-403z" />
    <glyph glyph-name="five.sinf" horiz-adv-x="677" 
d="M190 -258q-117 0 -185 69.5t-44 182.5h47q-21 -96 33 -152.5t154 -56.5q105 0 189.5 86.5t84.5 208.5q0 83 -48 126.5t-136 43.5q-54 0 -111 -23t-100 -61l-39 8l133 440h418l-8 -43h-377l-111 -358q36 33 92.5 54.5t104.5 21.5q109 0 169 -54t60 -151q0 -140 -94.5 -241
t-231.5 -101z" />
    <glyph glyph-name="six.sinf" horiz-adv-x="684" 
d="M209 -258q-105 0 -173.5 70t-68.5 168q0 80 39.5 148.5t116.5 158.5l283 327h61l-301 -348q64 33 131 33q110 0 177 -64t67 -167q0 -132 -100.5 -229t-231.5 -97zM16 -18q0 -82 56 -139.5t143 -57.5q111 0 195 81.5t84 196.5q0 86 -55 140.5t-146 54.5q-109 0 -193 -83
t-84 -193z" />
    <glyph glyph-name="seven.sinf" horiz-adv-x="598" 
d="M-33 -246l557 817h-487l8 43h541l-8 -41l-555 -819h-56z" />
    <glyph glyph-name="eight.sinf" horiz-adv-x="710" 
d="M213 -258q-112 0 -178 55t-66 146q0 94 67 168t167 96q-57 15 -90 57.5t-33 102.5q0 106 85.5 183t205.5 77q99 0 161 -49.5t62 -133.5q0 -91 -57 -152.5t-150 -84.5q62 -12 99.5 -59t37.5 -117q0 -119 -88.5 -204t-222.5 -85zM16 -55q0 -72 52.5 -117t140.5 -45
q109 0 188.5 72.5t79.5 173.5q0 74 -50.5 114.5t-135.5 40.5q-111 0 -193 -70t-82 -169zM125 367q0 -63 46.5 -102.5t127.5 -39.5q105 0 177.5 63t72.5 154q0 64 -50 105t-128 41q-100 0 -173 -63.5t-73 -157.5z" />
    <glyph glyph-name="nine.sinf" horiz-adv-x="686" 
d="M346 627q105 0 173.5 -70t68.5 -168q0 -80 -39.5 -148.5t-116.5 -158.5l-282 -328h-62l301 348q-62 -32 -131 -32q-110 0 -177 64t-67 167q0 132 100.5 229t231.5 97zM61 305q0 -86 55 -140t146 -54q109 0 193 83t84 193q0 82 -56 139.5t-143 57.5q-111 0 -195 -82
t-84 -197z" />
    <glyph glyph-name="zero.sups" horiz-adv-x="747" 
d="M424 645q-125 0 -191.5 86.5t-33.5 233.5l53 243q69 322 328 322q125 0 189.5 -90.5t31.5 -243.5l-53 -244q-67 -307 -324 -307zM244 956q-27 -126 26.5 -198t157.5 -72q115 0 182 71t97 212l49 235q27 127 -26.5 206t-156.5 79q-115 0 -182 -73.5t-98 -223.5z" />
    <glyph glyph-name="one.sups" horiz-adv-x="354" 
d="M442 1516l-182 -859h-47l145 680h-129l9 43h77q24 0 43 14t25 42l16 80h43z" />
    <glyph glyph-name="two.sups" horiz-adv-x="663" 
d="M102 657l9 39l428 371q39 34 54.5 47.5t45 45t42 53.5t23.5 55t11 67q0 71 -50.5 111.5t-136.5 40.5q-88 0 -153.5 -61.5t-85.5 -163.5h-47q25 127 102 197.5t191 70.5q101 0 164 -52.5t63 -140.5q0 -47 -13.5 -88t-43 -78.5t-56 -63.5t-71.5 -65l-394 -342h463l-10 -43
h-535z" />
    <glyph glyph-name="three.sups" horiz-adv-x="698" 
d="M397 645q-122 0 -193.5 75t-49.5 181h47q-18 -92 38.5 -152.5t153.5 -60.5q117 0 190.5 72t73.5 170q0 71 -51.5 109t-144.5 38h-37l8 41h37q108 0 185 62.5t77 160.5q0 69 -47 107.5t-133 38.5q-82 0 -153 -52.5t-93 -146.5h-47q24 114 110 178t193 64
q102 0 159.5 -49.5t57.5 -134.5q0 -96 -63.5 -165t-153.5 -83q69 -13 105 -56.5t36 -109.5q0 -52 -19.5 -102t-56 -92t-96.5 -67.5t-133 -25.5z" />
    <glyph glyph-name="four.sups" horiz-adv-x="671" 
d="M129 870l10 41l434 607h56l-434 -607h348l53 252h47l-53 -252h141l-10 -41h-141l-45 -213h-48l45 213h-403z" />
    <glyph glyph-name="five.sups" horiz-adv-x="677" 
d="M383 645q-117 0 -185 69.5t-44 182.5h47q-21 -96 32.5 -152.5t153.5 -56.5q105 0 190 86.5t85 208.5q0 83 -48.5 126.5t-136.5 43.5q-54 0 -111 -23t-100 -61l-39 8l133 441h418l-8 -43h-377l-110 -359q36 33 92 54.5t104 21.5q109 0 169.5 -54t60.5 -151
q0 -140 -94.5 -241t-231.5 -101z" />
    <glyph glyph-name="six.sups" horiz-adv-x="686" 
d="M401 645q-105 0 -173 70t-68 168q0 80 39.5 149t115.5 158l283 328h61l-301 -349q64 33 131 33q110 0 177 -64t67 -167q0 -132 -100.5 -229t-231.5 -97zM209 885q0 -82 56 -139.5t143 -57.5q111 0 194.5 82t83.5 197q0 86 -55 140t-146 54q-109 0 -192.5 -83t-83.5 -193z
" />
    <glyph glyph-name="seven.sups" horiz-adv-x="595" 
d="M158 657l557 818h-488l9 43h540l-8 -41l-555 -820h-55z" />
    <glyph glyph-name="eight.sups" horiz-adv-x="710" 
d="M406 645q-112 0 -178 55t-66 146q0 94 66.5 168t166.5 96q-57 15 -90 57.5t-33 102.5q0 106 85.5 183t205.5 77q100 0 161.5 -49t61.5 -133q0 -91 -56.5 -153t-149.5 -85q62 -12 99.5 -59t37.5 -117q0 -119 -88.5 -204t-222.5 -85zM209 848q0 -72 52 -117t140 -45
q109 0 189 72.5t80 173.5q0 74 -51 114.5t-136 40.5q-111 0 -192.5 -70t-81.5 -169zM317 1270q0 -63 46.5 -102.5t128.5 -39.5q105 0 177 63.5t72 154.5q0 64 -50 104.5t-128 40.5q-100 0 -173 -63.5t-73 -157.5z" />
    <glyph glyph-name="nine.sups" horiz-adv-x="686" 
d="M539 1530q105 0 173 -70t68 -168q0 -80 -39.5 -149t-115.5 -158l-283 -328h-61l301 349q-64 -33 -131 -33q-110 0 -177 64t-67 167q0 132 100.5 229t231.5 97zM254 1208q0 -86 55 -140t146 -54q109 0 192.5 83t83.5 193q0 82 -56 139.5t-143 57.5q-111 0 -194.5 -82
t-83.5 -197z" />
    <glyph glyph-name="zero.sinf.zero" horiz-adv-x="747" 
d="M231 -258q-125 0 -191.5 86t-33.5 233l53 244q69 322 328 322q125 0 189.5 -90.5t31.5 -243.5l-53 -244q-67 -307 -324 -307zM43 -39l518 494q-19 63 -66.5 97t-113.5 34q-115 0 -182.5 -73.5t-98.5 -223.5l-49 -236q-10 -57 -8 -92zM51 -88q18 -62 67 -95.5t118 -33.5
q115 0 181.5 71t96.5 212l49 235q11 55 8 105z" />
    <glyph glyph-name="zero.sups.zero" horiz-adv-x="747" 
d="M424 645q-125 0 -191.5 86.5t-33.5 233.5l53 243q69 322 328 322q125 0 189.5 -90.5t31.5 -243.5l-53 -244q-67 -307 -324 -307zM236 864l518 494q-19 62 -66.5 96.5t-114.5 34.5q-115 0 -182 -73.5t-98 -223.5l-49 -236q-10 -57 -8 -92zM244 815q19 -62 67.5 -95.5
t116.5 -33.5q115 0 182 71t97 212l49 235q11 55 8 105z" />
    <glyph glyph-name="colon.case" horiz-adv-x="450" 
d="M309 1153h113l-23 -113h-112zM133 319l23 113h112l-22 -113h-113z" />
    <glyph glyph-name="bullet.case" horiz-adv-x="786" 
d="M428 545q-82 0 -131.5 53t-44.5 135q5 80 60.5 134.5t136.5 54.5q79 0 131 -54.5t47 -134.5q-4 -81 -61.5 -134.5t-137.5 -53.5z" />
    <glyph glyph-name="question.ss02" horiz-adv-x="905" 
d="M336 334q23 110 52 160.5t95 115.5l174 166q140 132 188 213.5t48 196.5q0 105 -53 154t-135 49h-146q-106 0 -193 -75t-110 -190l-16 -80h-50l17 80q28 136 123.5 223t220.5 87h162q103 0 166 -60.5t63 -177.5q0 -120 -53.5 -217t-208.5 -244l-176 -168
q-51 -48 -74.5 -93t-44.5 -140h-49zM246 0l22 113h113l-23 -113h-112z" />
    <glyph glyph-name="questiondown.ss02" horiz-adv-x="868" 
d="M549 655q-23 -109 -52 -160t-96 -116l-174 -166q-139 -132 -187 -213.5t-48 -196.5q0 -105 53 -153.5t135 -48.5h146q107 0 193.5 74.5t109.5 189.5l16 80h49l-16 -80q-28 -136 -123.5 -222.5t-220.5 -86.5h-162q-103 0 -166 60t-63 177q0 120 53.5 217t208.5 244
l176 168q51 48 74.5 93t44.5 140h49zM504 877l22 112h113l-23 -112h-112z" />
    <glyph glyph-name="hyphen.case" horiz-adv-x="755" 
d="M197 748l10 47h457l-11 -47h-456z" />
    <glyph glyph-name="endash.case" horiz-adv-x="1171" 
d="M197 748l10 47h872l-10 -47h-872z" />
    <glyph glyph-name="emdash.case" horiz-adv-x="2342" 
d="M197 748l10 47h2044l-10 -47h-2044z" />
    <glyph glyph-name="parenleft.case" horiz-adv-x="579" 
d="M338 -219q-319 0 -238 379l242 1138q76 301 383 301h45l-10 -43h-45q-268 0 -332 -296l-244 -1139q-33 -152 22.5 -225.5t184.5 -73.5h45l-8 -41h-45z" />
    <glyph glyph-name="parenright.case" horiz-adv-x="575" 
d="M322 1599q318 0 237 -378l-242 -1139q-76 -301 -383 -301h-45l11 43h45q267 0 331 297l244 1139q33 152 -22.5 225.5t-184.5 73.5h-45l8 40h46z" />
    <glyph glyph-name="braceleft.case" horiz-adv-x="673" 
d="M369 -219q-112 0 -167 74t-28 204l82 390q15 71 -27.5 136.5t-119.5 88.5l6 33q89 22 160.5 91.5t89.5 157.5l84 392q23 116 101.5 183.5t190.5 67.5h123l-10 -43h-115q-91 0 -156.5 -58.5t-88.5 -164.5l-82 -393q-18 -82 -82 -152t-142 -98q65 -29 97.5 -104.5
t17.5 -153.5l-82 -387q-23 -104 19 -162.5t133 -58.5h114l-10 -43h-108z" />
    </font>
</defs>
</svg>
