<?xml version="1.0" standalone="no"?>
<!DOCTYPE svg PUBLIC "-//W3C//DTD SVG 1.1//EN" "http://www.w3.org/Graphics/SVG/1.1/DTD/svg11.dtd" >
<svg xmlns="http://www.w3.org/2000/svg" xmlns:xlink="http://www.w3.org/1999/xlink" version="1.1">
<metadata>
Created by FontForge 20201107 at Tue May 20 08:22:19 2025
 By 
Copyright (c) 2020 by Martin Va'cha. All rights reserved.
</metadata>
<defs>
<font id="AvanttTRIAL-MediumItalic" horiz-adv-x="0" >
  <font-face 
    font-family="Avantt TRIAL Medium Italic"
    font-weight="500"
    font-style="italic"
    font-stretch="normal"
    units-per-em="2048"
    panose-1="0 0 0 0 0 0 0 0 0 0"
    ascent="1638"
    descent="-410"
    x-height="999"
    cap-height="1434"
    bbox="-397 -506 2397.21 2163"
    underline-thickness="112"
    underline-position="-237"
    slope="-12"
    unicode-range="U+0020-E133"
  />
<missing-glyph horiz-adv-x="2267" 
d="M139 631q1 202 79 387.5t209.5 322.5t313.5 222t383 92v-2042q-161 5 -312 59.5t-272 149t-211.5 218.5t-140 276.5t-49.5 314.5zM1200 -383v2032q82 -29 152 -172.5t111 -368.5t40 -477q1 -251 -40 -475t-111 -367t-152 -172zM1354 -350q104 136 164 399t59 582
q1 321 -58.5 585.5t-162.5 401.5q146 -63 260.5 -208t179.5 -349t64 -430q0 -344 -141 -616t-365 -365zM1563 -307q171 150 272 400t100 538q1 288 -100 539t-272 401q280 -117 450 -373.5t170 -566.5q0 -309 -169.5 -565t-450.5 -373z" />
    <glyph glyph-name=".notdef" horiz-adv-x="2267" 
d="M139 631q1 202 79 387.5t209.5 322.5t313.5 222t383 92v-2042q-161 5 -312 59.5t-272 149t-211.5 218.5t-140 276.5t-49.5 314.5zM1200 -383v2032q82 -29 152 -172.5t111 -368.5t40 -477q1 -251 -40 -475t-111 -367t-152 -172zM1354 -350q104 136 164 399t59 582
q1 321 -58.5 585.5t-162.5 401.5q146 -63 260.5 -208t179.5 -349t64 -430q0 -344 -141 -616t-365 -365zM1563 -307q171 150 272 400t100 538q1 288 -100 539t-272 401q280 -117 450 -373.5t170 -566.5q0 -309 -169.5 -565t-450.5 -373z" />
    <glyph glyph-name=".null" 
 />
    <glyph glyph-name="nonmarkingreturn" horiz-adv-x="682" 
 />
    <glyph glyph-name="space" unicode=" " horiz-adv-x="473" 
 />
    <glyph glyph-name="exclam" unicode="!" horiz-adv-x="526" 
d="M360 1434h199l-227 -1037h-182zM47 0l47 223h230l-48 -223h-229z" />
    <glyph glyph-name="quotedbl" unicode="&#x22;" horiz-adv-x="706" 
d="M559 983l19 260l38 191h177l-39 -191l-95 -260h-100zM248 983l18 260l39 191h176l-39 -191l-94 -260h-100z" />
    <glyph glyph-name="numbersign" unicode="#" horiz-adv-x="1439" 
d="M1423 1434l-180 -394h223l-34 -166h-267l-145 -317h262l-35 -162h-301l-182 -395h-211l182 395h-250l-182 -395h-209l182 395h-206l34 162h246l146 317h-242l35 166h284l181 394h211l-183 -394h250l180 394h211zM561 557h248l145 317h-247z" />
    <glyph glyph-name="dollar" unicode="$" horiz-adv-x="1048" 
d="M854 1675l-51 -235q141 -39 209 -151.5t35 -266.5h-197q20 108 -32 179t-167 71q-78 0 -135 -38t-82.5 -92t-25.5 -114q0 -54 30 -92.5t78 -62t106 -44.5t116 -48.5t106 -64t78 -101t30 -150.5q0 -135 -53.5 -243.5t-159 -175t-247.5 -71.5l-48 -221h-182l53 246
q-141 48 -210.5 171.5t-34.5 279.5h196q-14 -51 -5 -102.5t32 -93t71.5 -67.5t114.5 -26q88 0 151.5 41.5t91.5 102t28 130.5q0 45 -18.5 80.5t-49.5 59t-71.5 42.5t-85.5 36.5t-89.5 37t-85 47t-71.5 63t-49.5 89t-18.5 121.5q0 182 112.5 308t303.5 136l45 219h182z" />
    <glyph glyph-name="percent" unicode="%" horiz-adv-x="1597" 
d="M1309 1434h172l-1121 -1434h-170zM180 1038q0 57 16.5 115.5t50 113.5t79 98t110 69t137.5 26q122 0 197.5 -78t75.5 -202q0 -71 -26.5 -144.5t-74.5 -136.5t-125 -103t-169 -40q-120 0 -195.5 78.5t-75.5 203.5zM328 1051q0 -72 38 -117t103 -45q101 0 165 86.5
t64 189.5q0 72 -38.5 116t-104.5 44q-99 0 -163 -84t-64 -190zM848 258q0 57 16.5 115.5t50 113.5t79 98t110 69t137.5 26q122 0 197 -78.5t75 -202.5q0 -71 -26.5 -144.5t-74.5 -136.5t-125 -103t-169 -40q-120 0 -195 79t-75 204zM995 270q0 -72 38.5 -116.5t103.5 -44.5
q101 0 165 86.5t64 189.5q0 72 -38.5 116t-104.5 44q-67 0 -120 -41.5t-80.5 -103.5t-27.5 -130z" />
    <glyph glyph-name="ampersand" unicode="&#x26;" horiz-adv-x="1351" 
d="M465 -25q-188 0 -296 90t-108 242q0 78 21 144t54 112.5t85 87t101.5 67.5t115.5 54q-102 144 -102 272q0 170 125.5 292t306.5 122q150 0 244 -79t94 -212q0 -78 -23.5 -143t-58.5 -109t-93 -83.5t-107 -63.5t-122 -53l238 -320q75 92 141 228l52 106h190l-57 -123
q-94 -208 -224 -350l191 -256h-221l-99 135q-210 -160 -448 -160zM252 336q0 -91 64 -144t171 -53q171 0 328 127l-283 381q-65 -28 -110.5 -54t-87 -63t-62 -85.5t-20.5 -108.5zM522 1053q0 -56 22.5 -105.5t65.5 -109.5q61 24 100.5 42t85.5 46t72 56.5t44 69.5t18 89
q0 68 -47.5 111.5t-124.5 43.5q-99 0 -167.5 -67t-68.5 -176z" />
    <glyph glyph-name="quotesingle" unicode="'" horiz-adv-x="397" 
d="M248 983l18 260l39 191h176l-39 -191l-94 -260h-100z" />
    <glyph glyph-name="parenleft" unicode="(" horiz-adv-x="663" 
d="M362 -315q-179 0 -258 116t-30 346l209 988q39 173 149.5 270.5t280.5 97.5h121l-37 -168h-68q-98 0 -169 -61.5t-97 -179.5l-213 -998q-26 -121 20 -183.5t148 -62.5h63l-35 -165h-84z" />
    <glyph glyph-name="parenright" unicode=")" horiz-adv-x="663" 
d="M342 1501q179 0 258.5 -116.5t30.5 -346.5l-209 -987q-39 -173 -149.5 -270.5t-280.5 -97.5h-121l37 167h67q98 0 169.5 62t97.5 180l213 998q26 121 -20 183t-148 62h-64l35 166h84z" />
    <glyph glyph-name="asterisk" unicode="*" horiz-adv-x="997" 
d="M328 647l-99 105l263 270l-289 94l73 133l279 -90l66 303h151l-65 -303l315 90l18 -143l-323 -92l157 -281l-131 -84l-149 275z" />
    <glyph glyph-name="plus" unicode="+" horiz-adv-x="1269" 
d="M193 584l36 174h367l80 370h186l-80 -370h369l-37 -174h-369l-77 -373h-187l78 373h-366z" />
    <glyph glyph-name="comma" unicode="," horiz-adv-x="434" 
d="M84 -55q4 25 -8 40t-35 15h-45l47 223h229l-104 -487h-129z" />
    <glyph glyph-name="hyphen" unicode="-" horiz-adv-x="765" 
d="M90 487l37 175h578l-37 -175h-578z" />
    <glyph glyph-name="period" unicode="." horiz-adv-x="475" 
d="M70 223h229l-47 -223h-229z" />
    <glyph glyph-name="slash" unicode="/" horiz-adv-x="942" 
d="M-59 0l933 1434h220l-934 -1434h-219z" />
    <glyph glyph-name="slash" unicode="&#x2215;" horiz-adv-x="942" 
d="M-59 0l933 1434h220l-934 -1434h-219z" />
    <glyph glyph-name="zero" unicode="0" horiz-adv-x="1259" 
d="M565 -20q-239 0 -361.5 162t-66.5 421l74 348q113 543 580 543q118 0 210 -41.5t148.5 -120t74.5 -191t-12 -253.5l-71 -348q-54 -255 -199 -387.5t-377 -132.5zM332 535q-35 -165 35 -266t211 -101q152 0 241.5 95.5t128.5 283.5l72 338q36 174 -33 277.5t-211 103.5
q-151 0 -241 -96.5t-129 -284.5z" />
    <glyph glyph-name="one" unicode="1" horiz-adv-x="647" 
d="M680 1434l-303 -1434h-199l217 1018h-229l39 180h92q79 0 120 32.5t56 106.5l21 97h186z" />
    <glyph glyph-name="two" unicode="2" horiz-adv-x="1114" 
d="M-18 0l34 164l619 516q79 64 121.5 102t88 90t64.5 102t19 107q0 87 -61.5 138t-164.5 51q-111 0 -197 -85t-106 -220h-196q34 235 178.5 364t349.5 129q183 0 291 -96.5t108 -253.5q0 -71 -22 -137.5t-54.5 -118.5t-87.5 -109.5t-102.5 -97.5t-118.5 -94l-428 -361h648
l-41 -190h-942z" />
    <glyph glyph-name="three" unicode="3" horiz-adv-x="1148" 
d="M489 -25q-106 0 -194.5 34.5t-146 94t-80 144.5t-0.5 182h196q-25 -118 43 -195t195 -77q145 0 236 92t91 209q0 88 -69 137t-193 49h-53l37 172h53q142 0 244 78.5t102 198.5q0 86 -61.5 134t-167.5 48q-107 0 -195.5 -68t-113.5 -184h-193q43 208 187 321t337 113
q189 0 298.5 -88.5t109.5 -239.5q0 -136 -84 -241t-231 -156q93 -29 142.5 -95.5t49.5 -164.5q0 -213 -153.5 -355.5t-385.5 -142.5z" />
    <glyph glyph-name="four" unicode="4" horiz-adv-x="1146" 
d="M33 326l39 176l628 932h220l-627 -932h418l73 348h193l-74 -348h209l-39 -176h-209l-67 -326h-199l68 326h-633z" />
    <glyph glyph-name="five" unicode="5" horiz-adv-x="1142" 
d="M496 -25q-105 0 -193.5 34.5t-147 94t-83.5 144.5t-6 182h200q-19 -122 48.5 -193t195.5 -71q140 0 243 110t103 256q0 109 -66 169.5t-180 60.5q-152 0 -262 -113h-180l235 785h766l-39 -189h-589l-133 -418q114 88 258 88q182 0 286.5 -92.5t104.5 -269.5
q0 -160 -73 -292.5t-202 -209t-286 -76.5z" />
    <glyph glyph-name="six" unicode="6" horiz-adv-x="1153" 
d="M541 -25q-201 0 -332 124t-131 311q0 224 215 477l467 547h260l-453 -521q55 19 105 19q180 0 299 -118.5t119 -299.5q0 -109 -45 -209t-119.5 -172t-175.5 -115t-209 -43zM276 420q0 -111 75 -187.5t192 -76.5q140 0 244 102.5t104 247.5q0 118 -74.5 192t-193.5 74
q-140 0 -243.5 -106t-103.5 -246z" />
    <glyph glyph-name="seven" unicode="7" horiz-adv-x="1009" 
d="M55 0l842 1245h-713l39 189h940l-37 -170l-850 -1264h-221z" />
    <glyph glyph-name="eight" unicode="8" horiz-adv-x="1173" 
d="M516 -25q-198 0 -320 97.5t-122 259.5q0 145 96.5 265t241.5 157q-164 75 -164 250q0 126 68.5 231t183 164t248.5 59q187 0 301 -87t114 -236q0 -75 -27.5 -146.5t-96 -137t-169.5 -97.5q87 -35 138 -108t51 -177q0 -136 -72 -249.5t-197 -179t-274 -65.5zM276 352
q0 -92 66.5 -150.5t177.5 -58.5q139 0 239.5 93.5t100.5 220.5q0 93 -63.5 146.5t-171.5 53.5q-141 0 -245 -91t-104 -214zM432 1014q0 -84 60.5 -135.5t162.5 -51.5q137 0 228.5 81.5t91.5 199.5q0 86 -64 138t-166 52q-128 0 -220.5 -86t-92.5 -198z" />
    <glyph glyph-name="nine" unicode="9" horiz-adv-x="1150" 
d="M705 1458q201 0 331.5 -123.5t130.5 -310.5q0 -224 -215 -477l-467 -547h-260l453 520q-52 -18 -105 -18q-180 0 -298.5 118.5t-118.5 299.5q0 145 75.5 269.5t202 196.5t271.5 72zM354 928q0 -117 74.5 -191.5t194.5 -74.5q140 0 243 106t103 246q0 111 -75 187.5
t-192 76.5q-140 0 -244 -102.5t-104 -247.5z" />
    <glyph glyph-name="colon" unicode=":" horiz-adv-x="477" 
d="M211 911h229l-47 -223h-229zM18 0l48 223h229l-47 -223h-230z" />
    <glyph glyph-name="semicolon" unicode=";" horiz-adv-x="475" 
d="M211 911h229l-47 -223h-229zM18 0l48 223h229l-105 -487h-129l45 209q4 25 -8 40t-35 15h-45z" />
    <glyph glyph-name="less" unicode="&#x3c;" horiz-adv-x="1269" 
d="M1178 1044l-43 -204l-670 -267l557 -270l-39 -180l-786 387l32 147z" />
    <glyph glyph-name="equal" unicode="=" horiz-adv-x="1269" 
d="M1196 979l-37 -174h-921l36 174h922zM145 371l37 174h922l-37 -174h-922z" />
    <glyph glyph-name="greater" unicode="&#x3e;" horiz-adv-x="1269" 
d="M129 123l43 205l670 266l-557 270l39 180l786 -387l-33 -147z" />
    <glyph glyph-name="question" unicode="?" horiz-adv-x="1001" 
d="M662 1458q172 0 278.5 -96.5t106.5 -249.5q0 -77 -24 -142t-63.5 -112.5t-88.5 -89t-102 -81t-100.5 -80t-87.5 -94.5t-59 -116h-192q18 78 56 143.5t84 110.5t97.5 85t99.5 75.5t87 73.5t62.5 87.5t23.5 108.5q0 87 -53.5 137t-143.5 50q-110 0 -191.5 -82.5
t-103.5 -206.5h-196q46 228 180.5 353.5t329.5 125.5zM244 0l47 223h229l-47 -223h-229z" />
    <glyph glyph-name="at" unicode="@" horiz-adv-x="1859" 
d="M862 229q89 0 161.5 52.5t110 131t37.5 160.5q0 91 -51 144t-141 53q-125 0 -218 -97t-93 -231q0 -93 53.5 -153t140.5 -60zM80 389q0 188 70.5 359.5t194.5 300.5t305.5 205.5t391.5 76.5q354 0 556 -169t202 -449q0 -75 -18 -159.5t-56 -169.5t-90.5 -153
t-129.5 -110.5t-165 -42.5q-160 0 -186 168q-60 -73 -152 -120.5t-192 -47.5q-147 0 -238.5 103.5t-91.5 252.5q0 92 36.5 179.5t99.5 155.5t156 109.5t198 41.5q94 0 159 -44t87 -122l32 149h181l-109 -502q-5 -25 -7 -38.5t-4 -36t1 -35.5t10 -26.5t21.5 -20t35.5 -6.5
q49 0 91 32.5t70 83.5t48.5 114t29.5 124t9 113q0 208 -152.5 334t-433.5 126q-169 0 -316.5 -61.5t-250 -166t-161 -245t-58.5 -295.5q0 -174 86 -300.5t237.5 -190.5t350.5 -64h366l-37 -170h-333q-188 0 -345 51.5t-267 144t-171 226.5t-61 295z" />
    <glyph glyph-name="A" unicode="A" horiz-adv-x="1202" 
d="M-82 0l791 1434h188l180 -1434h-203l-36 322h-529l-172 -322h-219zM387 508h440l-79 666z" />
    <glyph glyph-name="B" unicode="B" horiz-adv-x="1089" 
d="M55 0l303 1434h330q181 0 287 -82t106 -224q0 -129 -86 -237t-215 -137q82 -16 136.5 -90t54.5 -189q0 -211 -140.5 -343t-361.5 -132h-414zM289 166h190q139 0 215 86.5t76 206.5q0 88 -50.5 140t-139.5 52h-189zM426 815h152q123 0 212 79t89 196q0 84 -57.5 131
t-162.5 47h-137z" />
    <glyph glyph-name="C" unicode="C" horiz-adv-x="1525" 
d="M762 -25q-285 0 -459 173t-174 454q0 173 64 331t172.5 273t260.5 183.5t320 68.5q138 0 253 -40t191.5 -109.5t118.5 -163t41 -199.5h-213q-10 142 -124 234t-269 92q-130 0 -245.5 -55t-195.5 -146t-126.5 -210.5t-46.5 -246.5q0 -201 119.5 -326.5t312.5 -125.5
q164 0 291.5 87.5t185.5 231.5h217q-72 -236 -258.5 -371t-435.5 -135z" />
    <glyph glyph-name="D" unicode="D" horiz-adv-x="1417" 
d="M793 1434q278 0 435.5 -155.5t157.5 -410.5q0 -100 -22 -201t-65 -198.5t-112.5 -182t-159 -148.5t-211.5 -101t-263 -37h-498l303 1434h435zM295 186h270q129 0 236 43t177 111.5t118 158t69 179t21 176.5q0 178 -105 285.5t-290 107.5h-273z" />
    <glyph glyph-name="E" unicode="E" horiz-adv-x="960" 
d="M358 1434h711l-39 -187h-512l-86 -399h447l-39 -180h-445l-102 -482h512l-39 -186h-711z" />
    <glyph glyph-name="F" unicode="F" horiz-adv-x="931" 
d="M358 1434h711l-39 -187h-512l-86 -401h445l-39 -189h-445l-139 -657h-199z" />
    <glyph glyph-name="G" unicode="G" horiz-adv-x="1574" 
d="M766 -25q-141 0 -260.5 46.5t-202.5 128.5t-129.5 197t-46.5 249q0 132 40 259.5t116 235.5t178.5 190.5t235.5 129.5t278 47q130 0 238.5 -36t182 -98t117 -143t52.5 -173h-222q-21 121 -129.5 194.5t-255.5 73.5q-137 0 -257.5 -59t-200.5 -154t-126 -215.5t-46 -243.5
q0 -200 123.5 -323t328.5 -123q195 0 341 122.5t194 321.5l-475 -8l39 180h659q-4 -69 -18 -139q-62 -298 -266 -479t-488 -181z" />
    <glyph glyph-name="H" unicode="H" horiz-adv-x="1255" 
d="M55 0l303 1434h199l-127 -600h539l127 600h198l-305 -1434h-198l137 647h-537l-137 -647h-199z" />
    <glyph glyph-name="I" unicode="I" horiz-adv-x="518" 
d="M358 1434h199l-303 -1434h-199z" />
    <glyph glyph-name="J" unicode="J" horiz-adv-x="675" 
d="M59 186q101 0 163.5 56t88.5 178l215 1014h197l-223 -1053q-78 -381 -426 -381h-129l39 186h75z" />
    <glyph glyph-name="K" unicode="K" horiz-adv-x="1075" 
d="M754 0l-351 709l-149 -709h-199l303 1434h199l-135 -641l592 641h231l-653 -691l385 -743h-223z" />
    <glyph glyph-name="L" unicode="L" horiz-adv-x="903" 
d="M358 1434h199l-264 -1248h514l-41 -186h-711z" />
    <glyph glyph-name="M" unicode="M" horiz-adv-x="1798" 
d="M55 0l303 1434h256l230 -1174l715 1174h278l-303 -1434h-195l174 821q17 81 37 164t32 125l11 43q-69 -139 -163 -299l-539 -854h-184l-177 819q-14 82 -25 166t-15 127l-5 43q-22 -150 -61 -334l-176 -821h-193z" />
    <glyph glyph-name="N" unicode="N" horiz-adv-x="1245" 
d="M793 686q23 -79 42.5 -162t28.5 -126l8 -44q21 154 60 336l155 744h195l-303 -1434h-178l-248 778q-23 79 -43.5 161.5t-29.5 125.5l-9 43q-18 -152 -57 -336l-166 -772h-193l303 1434h193z" />
    <glyph glyph-name="O" unicode="O" horiz-adv-x="1642" 
d="M770 -25q-183 0 -330.5 84t-229 230t-81.5 325q0 162 64 315.5t174 270t268 187.5t334 71q183 0 330 -83.5t229 -229t82 -324.5q0 -129 -40.5 -255t-116.5 -231.5t-178 -186.5t-233 -127t-272 -46zM332 631q0 -204 129 -336.5t330 -132.5q163 0 305 89t225.5 237.5
t83.5 316.5q0 202 -128 334.5t-329 132.5q-164 0 -306.5 -88t-226 -236t-83.5 -317z" />
    <glyph glyph-name="P" unicode="P" horiz-adv-x="1046" 
d="M55 0l303 1434h363q180 0 287.5 -94t107.5 -253q0 -204 -144 -344.5t-360 -140.5h-231l-127 -602h-199zM420 784h194q77 0 137 26t94.5 69t52 91t17.5 97q0 84 -58.5 133t-160.5 49h-178z" />
    <glyph glyph-name="Q" unicode="Q" horiz-adv-x="1646" 
d="M772 0q-184 0 -331 83t-228.5 227t-81.5 321q0 159 66 310t177 265t268.5 183t330.5 69q137 0 256.5 -48t203 -131t131.5 -198.5t48 -246.5q0 -193 -94 -368.5t-277 -281.5h287l-39 -184h-717zM336 645q0 -199 128 -330t329 -131q123 0 237 52.5t196.5 138.5t131.5 202.5
t49 239.5q0 199 -128 329t-329 130q-123 0 -236.5 -52t-196 -138t-132 -202t-49.5 -239z" />
    <glyph glyph-name="R" unicode="R" horiz-adv-x="1132" 
d="M55 0l303 1434h369q181 0 289 -90.5t108 -241.5q0 -141 -68.5 -243t-193.5 -154q81 -51 108.5 -136.5t4.5 -193.5l-78 -375h-197l78 373q13 47 7.5 89.5t-24 75t-64 51.5t-113.5 19h-203l-129 -608h-197zM418 784h192q145 0 228.5 81t83.5 200q0 85 -58.5 134.5
t-158.5 49.5h-189z" />
    <glyph glyph-name="S" unicode="S" horiz-adv-x="1069" 
d="M483 -25q-135 0 -237.5 63t-147.5 173t-16 240h197q-14 -51 -5 -102.5t32 -93t71.5 -67.5t114.5 -26q130 0 200 82t70 192q0 45 -18.5 80.5t-49.5 59t-71.5 42.5t-85.5 36.5t-89.5 37t-85 47t-71.5 63t-49.5 89t-18.5 121.5q0 191 122.5 318.5t328.5 127.5
q204 0 315 -123t70 -313h-197q20 109 -31.5 179.5t-166.5 70.5t-179.5 -74.5t-64.5 -169.5q0 -43 18.5 -76t50 -54.5t72.5 -39.5t86 -35t90.5 -36t86.5 -46.5t72.5 -63t50 -90t18.5 -122.5q0 -212 -130.5 -351t-351.5 -139z" />
    <glyph glyph-name="T" unicode="T" horiz-adv-x="966" 
d="M193 1247l38 187h899l-38 -187h-351l-266 -1247h-196l264 1247h-350z" />
    <glyph glyph-name="U" unicode="U" horiz-adv-x="1247" 
d="M543 -25q-146 0 -247.5 65.5t-140 186t-5.5 275.5l198 932h199l-207 -967q-28 -132 35 -218.5t186 -86.5q129 0 217 85.5t119 231.5l203 955h198l-206 -969q-48 -228 -192 -359t-357 -131z" />
    <glyph glyph-name="V" unicode="V" horiz-adv-x="1200" 
d="M598 0h-201l-180 1434h201l131 -1151l602 1151h225z" />
    <glyph glyph-name="W" unicode="W" horiz-adv-x="1837" 
d="M303 0l-65 1434h204l43 -801q3 -83 3.5 -164t-0.5 -121l-1 -39q54 127 136 293l405 832h168l57 -801l19 -324q47 129 121 301l391 824h207l-666 -1434h-199l-82 1077l-534 -1077h-207z" />
    <glyph glyph-name="X" unicode="X" horiz-adv-x="1091" 
d="M727 0l-154 594l-413 -594h-223l540 745l-203 689h207l148 -543l364 543h217l-483 -697l209 -737h-209z" />
    <glyph glyph-name="Y" unicode="Y" horiz-adv-x="1097" 
d="M227 1434h213l168 -621l436 621h220l-594 -840l-127 -594h-199l127 594z" />
    <glyph glyph-name="Z" unicode="Z" horiz-adv-x="993" 
d="M291 1434h829l-30 -154l-857 -1094h629l-39 -186h-870l33 154l854 1093h-588z" />
    <glyph glyph-name="bracketleft" unicode="[" horiz-adv-x="679" 
d="M537 1333l-314 -1476h273l-37 -172h-465l387 1818h465l-39 -170h-270z" />
    <glyph glyph-name="backslash" unicode="\" horiz-adv-x="892" 
d="M756 0h-201l-326 1434h201z" />
    <glyph glyph-name="bracketright" unicode="]" horiz-adv-x="677" 
d="M184 -143l314 1476h-273l37 172h465l-387 -1818h-465l39 170h270z" />
    <glyph glyph-name="asciicircum" unicode="^" horiz-adv-x="1269" 
d="M1118 612h-194l-133 586l-381 -586h-201l534 822h185z" />
    <glyph glyph-name="underscore" unicode="_" horiz-adv-x="1198" 
d="M-51 -197l37 177h1026l-39 -177h-1024z" />
    <glyph glyph-name="grave" unicode="`" horiz-adv-x="804" 
d="M399 1403h205l127 -299h-164z" />
    <glyph glyph-name="a" unicode="a" horiz-adv-x="1083" 
d="M375 -25q-146 0 -238 74t-92 191t71.5 201.5t183 123.5t247.5 39h241l7 31q19 108 -31.5 170.5t-167.5 62.5q-97 0 -175 -54.5t-93 -141.5h-189q30 155 162 253.5t303 98.5q210 0 312.5 -112t62.5 -294l-131 -618h-184l24 117q-62 -65 -144.5 -103.5t-168.5 -38.5z
M229 252q0 -61 45 -96t129 -35q120 0 223.5 91t129.5 220l4 23h-228q-137 0 -220 -50t-83 -153z" />
    <glyph glyph-name="b" unicode="b" horiz-adv-x="1280" 
d="M637 -25q-126 0 -224.5 52.5t-150.5 144.5l-37 -172h-188l305 1434h188l-114 -537q140 127 336 127q197 0 325.5 -127t128.5 -334q0 -122 -45 -231.5t-121 -187.5t-181.5 -123.5t-221.5 -45.5zM330 455q0 -133 85 -217t220 -84q157 0 269 114.5t112 272.5
q0 132 -84.5 217.5t-216.5 85.5q-161 0 -273 -112t-112 -277z" />
    <glyph glyph-name="c" unicode="c" horiz-adv-x="1132" 
d="M532 -25q-198 0 -328 126t-130 333q0 161 75 296.5t208.5 214.5t297.5 79q186 0 312 -106.5t123 -262.5h-187q-4 81 -78 138t-174 57q-166 0 -279.5 -116.5t-113.5 -284.5q0 -135 81 -217t206 -82q106 0 187.5 51.5t117.5 148.5h190q-45 -179 -183 -277t-325 -98z" />
    <glyph glyph-name="d" unicode="d" horiz-adv-x="1280" 
d="M528 -25q-197 0 -324.5 126t-127.5 335q0 124 46.5 234t124.5 187t181.5 122t214.5 45q126 0 225.5 -53t149.5 -144l131 607h188l-305 -1434h-188l24 121q-56 -65 -150.5 -105.5t-189.5 -40.5zM264 457q0 -131 85 -216t218 -85q160 0 272.5 111.5t112.5 277.5
q0 132 -86 216.5t-221 84.5q-155 0 -268 -115.5t-113 -273.5z" />
    <glyph glyph-name="e" unicode="e" horiz-adv-x="1144" 
d="M524 -25q-203 0 -328.5 127t-125.5 322q0 118 46 227.5t124 191.5t189 131.5t235 49.5q108 0 195.5 -39t141.5 -106t76 -159t4 -194q-10 -48 -18 -67h-813q-2 -12 -2 -35q0 -135 79 -210t214 -75q93 0 176.5 46.5t113.5 123.5h195q-55 -152 -188.5 -243t-313.5 -91z
M289 614h618q17 106 -62 176t-202 70t-215 -68.5t-139 -177.5z" />
    <glyph glyph-name="f" unicode="f" horiz-adv-x="679" 
d="M98 836l33 163h201l26 123q32 158 127 235t258 77h117l-33 -156h-86q-82 0 -129.5 -39.5t-66.5 -122.5l-25 -117h248l-35 -163h-248l-178 -836h-188l178 836h-199z" />
    <glyph glyph-name="g" unicode="g" horiz-adv-x="1257" 
d="M348 -385q-184 0 -281.5 88t-64.5 246l6 33h189l-7 -33q-21 -93 30 -132.5t161 -39.5h184q114 0 174.5 55t87.5 178l29 140q-139 -123 -328 -123q-198 0 -321 119.5t-123 316.5q0 119 45.5 224t121.5 178.5t178 116t212 42.5q124 0 219.5 -53.5t147.5 -147.5l36 176h181
l-207 -983q-43 -202 -143 -301.5t-285 -99.5h-242zM274 477q0 -127 81.5 -208t211.5 -81q162 0 271.5 112.5t109.5 272.5q0 126 -82.5 206.5t-214.5 80.5q-158 0 -267.5 -114.5t-109.5 -268.5z" />
    <glyph glyph-name="h" unicode="h" horiz-adv-x="1161" 
d="M39 0l303 1434h184l-116 -549q145 139 321 139q192 0 276 -125t35 -354l-114 -545h-189l121 571q27 125 -23.5 202t-168.5 77q-117 0 -206 -78.5t-118 -210.5l-119 -561h-186z" />
    <glyph glyph-name="i" unicode="i" horiz-adv-x="471" 
d="M248 999h190l-213 -999h-190zM285 1198l49 236h205l-50 -236h-204z" />
    <glyph glyph-name="j" unicode="j" horiz-adv-x="471" 
d="M-115 -217q50 0 83.5 30t45.5 87l234 1099h188l-237 -1126q-32 -148 -110 -203t-218 -55h-96l35 168h75zM283 1198l49 236h205l-50 -236h-204z" />
    <glyph glyph-name="k" unicode="k" horiz-adv-x="989" 
d="M37 0l303 1434h190l-178 -840l475 405h250l-561 -477l373 -522h-223l-334 489l-105 -489h-190z" />
    <glyph glyph-name="l" unicode="l" horiz-adv-x="471" 
d="M530 1434l-305 -1434h-188l303 1434h190z" />
    <glyph glyph-name="m" unicode="m" horiz-adv-x="1806" 
d="M39 0l211 999h201l-23 -108q67 67 147 100t150 33q105 0 181 -47.5t108 -132.5q72 86 173.5 133t203.5 47q178 0 263.5 -114t43.5 -312l-125 -598h-189l121 573q28 128 -19 202.5t-159 74.5q-101 0 -190 -74t-119 -219l-119 -557h-188l123 573q26 129 -23.5 203
t-163.5 74q-64 0 -123 -28.5t-109.5 -96.5t-70.5 -166l-119 -559h-186z" />
    <glyph glyph-name="n" unicode="n" horiz-adv-x="1159" 
d="M37 0l211 999h184l-24 -116q151 141 323 141q183 0 271 -126.5t40 -352.5l-114 -545h-189l121 571q27 125 -23.5 202t-168.5 77q-117 0 -207 -78.5t-119 -210.5l-119 -561h-186z" />
    <glyph glyph-name="o" unicode="o" horiz-adv-x="1200" 
d="M535 -25q-199 0 -330 131.5t-131 327.5q0 153 77.5 288t215.5 218.5t301 83.5q198 0 329 -132.5t131 -328.5q0 -152 -77.5 -287t-215 -218t-300.5 -83zM258 446q0 -129 82.5 -212.5t212.5 -83.5q158 0 274.5 119t116.5 282q0 129 -83 214t-212 85q-160 0 -275.5 -121
t-115.5 -283z" />
    <glyph glyph-name="p" unicode="p" horiz-adv-x="1280" 
d="M-45 -385l293 1384h190l-22 -102q140 127 336 127q197 0 326.5 -127t129.5 -334q0 -122 -45 -231.5t-122 -187.5t-182.5 -123.5t-221.5 -45.5q-126 0 -224.5 52.5t-150.5 144.5l-119 -557h-188zM330 455q0 -133 85 -217t220 -84q158 0 270.5 115t112.5 272
q0 132 -85.5 217.5t-217.5 85.5q-161 0 -273 -112t-112 -277z" />
    <glyph glyph-name="q" unicode="q" horiz-adv-x="1275" 
d="M868 121q-56 -65 -150.5 -105.5t-189.5 -40.5q-197 0 -325.5 126t-128.5 335q0 124 47 234t125 187t182 122t215 45q126 0 225.5 -53t149.5 -144l37 172h190l-295 -1384h-188zM262 457q0 -131 86 -216t219 -85q160 0 272.5 111.5t112.5 277.5q0 132 -86 216.5t-221 84.5
q-155 0 -269 -115.5t-114 -273.5z" />
    <glyph glyph-name="r" unicode="r" horiz-adv-x="714" 
d="M436 999l-28 -129q120 129 274 129h111l-35 -163h-115q-112 0 -191.5 -69t-105.5 -189l-123 -578h-188l213 999h188z" />
    <glyph glyph-name="s" unicode="s" horiz-adv-x="937" 
d="M414 -25q-182 0 -290 92.5t-91 233.5h178q-9 -79 49 -127.5t160 -48.5q92 0 153.5 45.5t61.5 124.5q0 42 -27.5 71t-71.5 46t-97 31.5t-106 33t-97 44t-71.5 71t-27.5 108.5q0 103 55.5 178.5t142 110.5t191.5 35q171 0 272 -79t91 -220h-184q2 69 -49 111.5t-140 42.5
q-83 0 -141 -37t-58 -113q0 -33 21.5 -57t57 -37t80.5 -26.5t92 -24.5t92 -32t80.5 -48t57 -74t21.5 -108q0 -111 -56.5 -191t-146.5 -118t-202 -38z" />
    <glyph glyph-name="t" unicode="t" horiz-adv-x="724" 
d="M84 836l35 163h194l56 269h188l-57 -269h282l-34 -163h-281l-109 -502q-19 -88 10.5 -129t112.5 -41h123l-35 -164h-139q-157 0 -226 83.5t-36 238.5l111 514h-195z" />
    <glyph glyph-name="u" unicode="u" horiz-adv-x="1159" 
d="M1124 999l-211 -999h-184l25 117q-152 -142 -324 -142q-183 0 -271 127t-40 353l114 544h189l-121 -571q-27 -125 24 -201.5t169 -76.5q117 0 206.5 78t118.5 210l119 561h186z" />
    <glyph glyph-name="v" unicode="v" horiz-adv-x="1048" 
d="M322 0l-193 999h195l131 -761l456 761h224l-619 -999h-194z" />
    <glyph glyph-name="w" unicode="w" horiz-adv-x="1556" 
d="M252 0l-119 999h189l84 -723l395 723h160l90 -714l379 714h204l-544 -999h-170l-99 713l-403 -713h-166z" />
    <glyph glyph-name="x" unicode="x" horiz-adv-x="968" 
d="M643 0l-172 385l-332 -385h-223l455 518l-226 481h199l166 -362l303 362h223l-426 -499l232 -500h-199z" />
    <glyph glyph-name="y" unicode="y" horiz-adv-x="1042" 
d="M127 999h190l144 -751l452 751h215l-864 -1384h-211l275 426z" />
    <glyph glyph-name="z" unicode="z" horiz-adv-x="978" 
d="M-51 0l33 152l755 684h-587l34 163h836l-33 -153l-760 -682h617l-33 -164h-862z" />
    <glyph glyph-name="braceleft" unicode="{" horiz-adv-x="741" 
d="M418 -315q-153 0 -232 97.5t-43 270.5l60 273q14 65 -25.5 119t-116.5 71l33 154q86 18 148.5 75.5t79.5 139.5l67 317q27 132 126.5 216.5t244.5 84.5h147l-37 -170h-94q-75 0 -133 -49t-76 -137l-65 -307q-36 -167 -209 -248q61 -36 88.5 -111.5t7.5 -167.5l-55 -264
q-20 -90 18 -143t115 -53h90l-37 -168h-102z" />
    <glyph glyph-name="bar" unicode="|" horiz-adv-x="520" 
d="M403 1634h197l-416 -1962h-196z" />
    <glyph glyph-name="braceright" unicode="}" horiz-adv-x="739" 
d="M362 1501q153 0 232 -97.5t43 -270.5l-59 -273q-14 -65 25 -119t116 -71l-33 -154q-86 -18 -148 -75.5t-79 -139.5l-68 -317q-27 -132 -126.5 -216.5t-244.5 -84.5h-147l37 170h94q75 0 133 49t76 137l66 307q36 167 208 248q-61 37 -88.5 111.5t-7.5 166.5l55 265
q20 90 -18 143t-115 53h-90l37 168h102z" />
    <glyph glyph-name="asciitilde" unicode="~" horiz-adv-x="1269" 
d="M162 457q38 179 126.5 272.5t192.5 93.5q59 0 114.5 -28t91.5 -61t79.5 -61t81.5 -28q47 0 89.5 46t61.5 130l172 2q-38 -177 -129.5 -271.5t-195.5 -94.5q-46 0 -90 18.5t-77.5 45t-65.5 53t-66.5 45t-67.5 18.5q-46 0 -86.5 -48t-58.5 -130z" />
    <glyph glyph-name="uni00A0" unicode="&#xa0;" horiz-adv-x="473" 
 />
    <glyph glyph-name="exclamdown" unicode="&#xa1;" horiz-adv-x="487" 
d="M-53 -434l227 1036h182l-211 -1036h-198zM188 776l48 223h229l-47 -223h-230z" />
    <glyph glyph-name="cent" unicode="&#xa2;" horiz-adv-x="1181" 
d="M887 1243l-51 -239q129 -39 207 -133.5t75 -215.5h-186q-4 81 -78 138t-174 57q-166 0 -279.5 -116.5t-113.5 -284.5q0 -135 80.5 -217t205.5 -82q106 0 188 51.5t118 148.5h190q-42 -165 -164 -262t-289 -111l-47 -223h-192l51 238q-146 39 -236 156.5t-90 285.5
q0 155 70 286.5t195 212t280 89.5l47 221h193z" />
    <glyph glyph-name="sterling" unicode="&#xa3;" horiz-adv-x="1181" 
d="M125 633l35 166h162l53 256q39 183 172 295t319 112q184 0 285.5 -114t67.5 -283h-195q15 99 -33.5 156t-144.5 57q-102 0 -179 -72t-102 -190l-47 -217h436l-34 -166h-437l-30 -146q-22 -104 -72 -174t-131 -125h797l-39 -188h-1031l39 180q103 56 160 130t80 179
l31 144h-162z" />
    <glyph glyph-name="currency" unicode="&#xa4;" horiz-adv-x="1499" 
d="M1321 715q-6 -165 -113 -295l183 -193l-136 -129l-184 193q-132 -98 -299 -98q-168 0 -295 100l-207 -195l-118 127l206 195q-95 132 -86 295q6 166 117 297l-186 194l133 131l186 -196q137 100 305 100q167 0 291 -100l205 194l119 -127l-203 -192q91 -131 82 -301z
M449 715q-8 -146 89 -249.5t242 -103.5q95 0 177 47t132.5 128t55.5 178q7 150 -88 255t-238 105q-146 0 -254 -105.5t-116 -254.5z" />
    <glyph glyph-name="yen" unicode="&#xa5;" horiz-adv-x="1167" 
d="M281 1434h215l157 -621l412 621h215l-381 -557h238l-35 -168h-320l-77 -115l-15 -68h373l-37 -168h-373l-75 -358h-199l76 358h-377l37 168h377l14 68l-31 115h-323l36 168h242z" />
    <glyph glyph-name="brokenbar" unicode="&#xa6;" horiz-adv-x="520" 
d="M252 918l151 716h197l-151 -716h-197zM-12 -328l153 719h195l-152 -719h-196z" />
    <glyph glyph-name="section" unicode="&#xa7;" horiz-adv-x="1091" 
d="M446 -397q-204 0 -308 116.5t-68 298.5h176q-14 -68 2 -125t68 -94t133 -37q112 0 178.5 64t66.5 170q0 136 -147 176l-189 51q-127 35 -192.5 111.5t-65.5 187.5q0 100 56.5 195.5t142.5 148.5q-55 74 -55 183q0 177 118.5 293t299.5 116q208 0 310 -113t62 -303h-174
q44 258 -203 258q-103 0 -175 -65t-72 -172q0 -133 153 -176l191 -51q252 -68 252 -295q0 -106 -56 -198.5t-145 -147.5q57 -72 57 -181q0 -187 -114.5 -299t-301.5 -112zM268 547q0 -133 172 -182l162 -46q58 -18 92 -34q64 45 103 104t39 125q0 64 -41 110.5t-123 69.5
l-164 45q-50 15 -94 35q-63 -40 -104.5 -100t-41.5 -127z" />
    <glyph glyph-name="dieresis" unicode="&#xa8;" horiz-adv-x="993" 
d="M762 1331h203l-41 -188h-203zM340 1143l41 188h205l-41 -188h-205z" />
    <glyph glyph-name="copyright" unicode="&#xa9;" horiz-adv-x="1701" 
d="M858 -25q-146 0 -276.5 55t-223.5 148.5t-147.5 222.5t-54.5 273q0 156 63.5 301.5t169 251t249.5 168.5t298 63q195 0 357 -93t254.5 -253t92.5 -352q0 -156 -64 -301.5t-170 -251t-250 -169t-298 -63.5zM246 680q0 -127 47.5 -241.5t128.5 -197.5t195 -131.5t241 -48.5
q182 0 341.5 94.5t254 255.5t94.5 347q0 170 -80 311t-221 223t-311 82q-136 0 -263 -55.5t-220.5 -148.5t-150 -222t-56.5 -268zM489 651q0 127 60 237t166 176t233 66q145 0 240 -80.5t92 -209.5h-141q-6 75 -64 120.5t-139 45.5q-131 0 -222 -103.5t-91 -240.5
q0 -102 60 -165t159 -63q168 0 250 176h141q-113 -299 -404 -299q-150 0 -245 94t-95 246z" />
    <glyph glyph-name="ordfeminine" unicode="&#xaa;" horiz-adv-x="954" 
d="M401 575q-106 0 -172.5 59t-66.5 150q0 95 61.5 166.5t157.5 106.5t209 35h190l6 30q17 84 -16 140.5t-133 56.5q-81 0 -142 -46.5t-75 -117.5h-174q25 129 144.5 216t268.5 87q167 0 250.5 -93t51.5 -247l-111 -520h-174l22 109q-122 -132 -297 -132zM340 811
q0 -46 36 -76t95 -30q102 0 182.5 74.5t104.5 181.5l4 16h-168q-109 0 -181.5 -43t-72.5 -123z" />
    <glyph glyph-name="guillemotleft" unicode="&#xab;" horiz-adv-x="1284" 
d="M1081 35l-477 418l31 141l653 422l-41 -211l-442 -291l315 -289zM90 477l31 141l653 420l-43 -211l-440 -288l317 -291l-41 -191z" />
    <glyph glyph-name="logicalnot" unicode="&#xac;" horiz-adv-x="1269" 
d="M1145 733l-129 -602h-187l91 424h-748l37 178h936z" />
    <glyph glyph-name="uni00AD" unicode="&#xad;" horiz-adv-x="765" 
d="M90 487l37 175h578l-37 -175h-578z" />
    <glyph glyph-name="registered" unicode="&#xae;" horiz-adv-x="940" 
d="M592 719q-154 0 -262.5 107.5t-108.5 260.5q0 154 108.5 262.5t262.5 108.5t262.5 -108t108.5 -263q0 -153 -108.5 -260.5t-262.5 -107.5zM281 1087q0 -129 91 -222t220 -93q127 0 219 93t92 222q0 130 -91.5 224t-219.5 94q-129 0 -220 -93.5t-91 -224.5zM475 893v393
h115q55 0 90 -31t35 -77q0 -62 -56 -93q54 -25 54 -92v-100h-64v94q0 66 -67 66h-45v-160h-62zM537 1106h47q29 0 47 17.5t18 45.5q0 26 -18 43t-47 17h-47v-123z" />
    <glyph glyph-name="macron" unicode="&#xaf;" horiz-adv-x="1056" 
d="M340 1135l33 149h647l-33 -149h-647z" />
    <glyph glyph-name="degree" unicode="&#xb0;" horiz-adv-x="952" 
d="M575 719q-152 0 -253 99t-101 247q0 166 118.5 281.5t283.5 115.5q152 0 252 -98.5t100 -247.5q0 -166 -117.5 -281.5t-282.5 -115.5zM385 1077q0 -86 57.5 -143t145.5 -57q93 0 158 66.5t65 162.5q0 86 -57 142.5t-142 56.5q-94 0 -160.5 -66t-66.5 -162z" />
    <glyph glyph-name="plusminus" unicode="&#xb1;" horiz-adv-x="1269" 
d="M242 752l37 172h352l74 346h188l-72 -346h355l-37 -172h-355l-73 -344h-189l72 344h-352zM109 127l34 168h897l-34 -168h-897z" />
    <glyph glyph-name="acute" unicode="&#xb4;" horiz-adv-x="819" 
d="M807 1401l-291 -297h-180l256 297h215z" />
    <glyph glyph-name="uni00B5" unicode="&#xb5;" horiz-adv-x="1187" 
d="M-39 -385l293 1384h188l-123 -583q-25 -126 28 -197.5t169 -71.5q117 0 205 77t117 212l120 563h189l-213 -999h-184l34 166q-67 -89 -161 -140t-199 -51q-114 0 -184 58l-90 -418h-189z" />
    <glyph glyph-name="paragraph" unicode="&#xb6;" horiz-adv-x="1300" 
d="M289 -385l203 963q-168 10 -260.5 109t-92.5 243q0 223 165 363.5t415 140.5h711l-39 -187h-170l-347 -1632h-180l346 1632h-227l-346 -1632h-178z" />
    <glyph glyph-name="periodcentered" unicode="&#xb7;" horiz-adv-x="475" 
d="M193 840h229l-45 -215h-230z" />
    <glyph glyph-name="cedilla" unicode="&#xb8;" horiz-adv-x="743" 
d="M289 25l-6 -25l-86 -139h24q65 0 104.5 -41.5t39.5 -108.5q0 -91 -63 -154t-161 -63h-149l20 98h127q46 0 80.5 30.5t34.5 74.5q0 32 -21.5 51t-58.5 19h-115l19 81l106 177h105z" />
    <glyph glyph-name="ordmasculine" unicode="&#xba;" horiz-adv-x="1054" 
d="M690 1460q173 0 282 -108t109 -275q0 -135 -66 -252.5t-182 -188.5t-253 -71q-173 0 -282.5 107.5t-109.5 273.5q0 133 67 251.5t183.5 190.5t251.5 72zM362 958q0 -98 63 -161.5t163 -63.5q129 0 223 100t94 232q0 99 -62 162t-161 63q-130 0 -225 -102.5t-95 -229.5z
" />
    <glyph glyph-name="guillemotright" unicode="&#xbb;" horiz-adv-x="1286" 
d="M217 1026l477 -418l-30 -141l-654 -422l41 211l443 291l-316 289zM524 23l43 210l441 289l-318 291l41 191l477 -420l-30 -142z" />
    <glyph glyph-name="onequarter" unicode="&#xbc;" horiz-adv-x="1468" 
d="M530 1434l-182 -859h-131l129 601h-139l26 116h52q43 0 72.5 25.5t37.5 64.5l13 52h122zM72 0l1118 1434h172l-1120 -1434h-170zM737 193l25 116l368 551h146l-365 -551h232l43 201h127l-43 -201h123l-27 -116h-123l-41 -193h-129l41 193h-377z" />
    <glyph glyph-name="onehalf" unicode="&#xbd;" horiz-adv-x="1546" 
d="M532 1434l-182 -859h-131l129 601h-139l27 116h51q43 0 72.5 25.5t37.5 64.5l13 52h122zM74 0l1118 1434h172l-1120 -1434h-170zM795 0l24 106l363 304q64 51 94.5 79.5t55 69.5t24.5 84q0 51 -35.5 80t-93.5 29q-64 0 -110.5 -47.5t-61.5 -129.5h-127q29 148 111 223.5
t206 75.5q110 0 178 -58t68 -152q0 -32 -8 -62.5t-16.5 -53t-31 -51.5t-35 -44t-45.5 -44.5t-44.5 -39t-50.5 -41.5l-238 -203h371l-27 -125h-571z" />
    <glyph glyph-name="threequarters" unicode="&#xbe;" horiz-adv-x="1667" 
d="M397 561q-134 0 -210.5 78.5t-51.5 196.5h131q-13 -66 26.5 -111t108.5 -45q82 0 134.5 50t52.5 118q0 51 -38 80.5t-106 29.5h-38l24 113h37q81 0 135.5 44.5t54.5 113.5q0 49 -33.5 75.5t-93.5 26.5q-62 0 -113 -38t-65 -105h-127q27 126 116.5 194t207.5 68
q114 0 178 -52.5t64 -144.5q0 -77 -50.5 -142.5t-134.5 -94.5q113 -35 113 -158t-88.5 -210t-233.5 -87zM270 0l1119 1434h172l-1121 -1434h-170zM936 193l25 116l368 551h146l-365 -551h231l43 201h127l-43 -201h123l-26 -116h-123l-41 -193h-129l41 193h-377z" />
    <glyph glyph-name="questiondown" unicode="&#xbf;" horiz-adv-x="978" 
d="M326 -459q-172 0 -278.5 96.5t-106.5 249.5q0 77 24 142t63.5 112.5t88.5 89t102 81t100 80t87 94.5t59 116h192q-18 -78 -56 -143.5t-84 -110.5t-97.5 -85t-99.5 -75.5t-87 -73.5t-62.5 -87.5t-23.5 -108.5q0 -87 53.5 -136.5t143.5 -49.5q110 0 191.5 82t103.5 206h197
q-46 -228 -180.5 -353.5t-329.5 -125.5zM469 776l47 223h229l-47 -223h-229z" />
    <glyph glyph-name="Agrave" unicode="&#xc0;" horiz-adv-x="1202" 
d="M-82 0l791 1434h188l180 -1434h-203l-36 322h-529l-172 -322h-219zM387 508h440l-79 666zM547 1776h215l147 -260h-174z" />
    <glyph glyph-name="Aacute" unicode="&#xc1;" horiz-adv-x="1202" 
d="M-82 0l791 1434h188l180 -1434h-203l-36 322h-529l-172 -322h-219zM387 508h440l-79 666zM721 1516l246 260h221l-287 -260h-180z" />
    <glyph glyph-name="Acircumflex" unicode="&#xc2;" horiz-adv-x="1202" 
d="M-82 0l791 1434h188l180 -1434h-203l-36 322h-529l-172 -322h-219zM387 508h440l-79 666zM457 1516l315 266h201l207 -266h-191l-131 161l-201 -161h-200z" />
    <glyph glyph-name="Atilde" unicode="&#xc3;" horiz-adv-x="1202" 
d="M-82 0l791 1434h188l180 -1434h-203l-36 322h-529l-172 -322h-219zM387 508h440l-79 666zM449 1518q28 130 94.5 195t156.5 65q44 0 91 -20t78.5 -44.5t66 -44.5t57.5 -20q77 0 109 118h139q-27 -129 -94.5 -193.5t-161.5 -64.5q-44 0 -89 20t-75.5 43.5t-65 43.5
t-59.5 20q-37 0 -65 -29.5t-41 -88.5h-141z" />
    <glyph glyph-name="Adieresis" unicode="&#xc4;" horiz-adv-x="1202" 
d="M-82 0l791 1434h188l180 -1434h-203l-36 322h-529l-172 -322h-219zM387 508h440l-79 666zM506 1522l39 186h198l-38 -186h-199zM936 1522l39 186h199l-41 -186h-197z" />
    <glyph glyph-name="Aring" unicode="&#xc5;" horiz-adv-x="1202" 
d="M-82 0l791 1434h188l180 -1434h-203l-36 322h-529l-172 -322h-219zM387 508h440l-79 666zM578 1731q9 100 90.5 167.5t193.5 67.5q117 0 189 -67.5t63 -167.5t-90.5 -168t-194.5 -68q-116 0 -188.5 68t-62.5 168zM705 1731q-6 -55 30.5 -92t98.5 -37q60 0 103.5 36.5
t49.5 92.5q6 54 -31.5 90.5t-97.5 36.5q-61 0 -104.5 -36.5t-48.5 -90.5z" />
    <glyph glyph-name="AE" unicode="&#xc6;" horiz-adv-x="1597" 
d="M-125 0l985 1434h846l-39 -187h-508l-86 -399h443l-37 -180h-443l-100 -482h508l-39 -186h-705l72 344h-420l-235 -344h-242zM467 526h344l156 744z" />
    <glyph glyph-name="Ccedilla" unicode="&#xc7;" horiz-adv-x="1525" 
d="M129 602q0 173 64 331t172.5 273t260.5 183.5t320 68.5q138 0 253 -40t191.5 -109.5t118.5 -163t41 -199.5h-213q-10 142 -124 234t-269 92q-130 0 -245.5 -55t-195.5 -146t-126.5 -210.5t-46.5 -246.5q0 -201 119.5 -326.5t312.5 -125.5q164 0 291.5 87.5t185.5 231.5
h217q-68 -227 -244 -361t-411 -145l-72 -114h25q64 0 103.5 -41t39.5 -109q0 -91 -62.5 -154t-160.5 -63h-150l21 98h127q46 0 80 30.5t34 74.5q0 32 -21 51t-58 19h-115l18 81l78 132q-255 22 -407 191.5t-152 430.5z" />
    <glyph glyph-name="Egrave" unicode="&#xc8;" horiz-adv-x="960" 
d="M358 1434h711l-39 -187h-512l-86 -399h447l-39 -180h-445l-102 -482h512l-39 -186h-711zM461 1776h215l147 -260h-174z" />
    <glyph glyph-name="Eacute" unicode="&#xc9;" horiz-adv-x="960" 
d="M358 1434h711l-39 -187h-512l-86 -399h447l-39 -180h-445l-102 -482h512l-39 -186h-711zM637 1516l246 260h221l-287 -260h-180z" />
    <glyph glyph-name="Ecircumflex" unicode="&#xca;" horiz-adv-x="960" 
d="M358 1434h711l-39 -187h-512l-86 -399h447l-39 -180h-445l-102 -482h512l-39 -186h-711zM371 1516l315 266h201l207 -266h-191l-131 161l-201 -161h-200z" />
    <glyph glyph-name="Edieresis" unicode="&#xcb;" horiz-adv-x="960" 
d="M358 1434h711l-39 -187h-512l-86 -399h447l-39 -180h-445l-102 -482h512l-39 -186h-711zM420 1522l39 186h198l-39 -186h-198zM850 1522l39 186h198l-40 -186h-197z" />
    <glyph glyph-name="Igrave" unicode="&#xcc;" horiz-adv-x="518" 
d="M358 1434h199l-303 -1434h-199zM205 1776h215l147 -260h-174z" />
    <glyph glyph-name="Iacute" unicode="&#xcd;" horiz-adv-x="518" 
d="M358 1434h199l-303 -1434h-199zM379 1516l246 260h221l-287 -260h-180z" />
    <glyph glyph-name="Icircumflex" unicode="&#xce;" horiz-adv-x="518" 
d="M358 1434h199l-303 -1434h-199zM113 1516l315 266h201l207 -266h-191l-131 161l-201 -161h-200z" />
    <glyph glyph-name="Idieresis" unicode="&#xcf;" horiz-adv-x="518" 
d="M358 1434h199l-303 -1434h-199zM162 1522l39 186h198l-39 -186h-198zM592 1522l39 186h198l-41 -186h-196z" />
    <glyph glyph-name="Eth" unicode="&#xd0;" horiz-adv-x="1468" 
d="M94 625l39 184h146l131 625h434q278 0 436 -155.5t158 -410.5q0 -100 -22 -201t-65 -198.5t-113 -182t-159.5 -148.5t-211.5 -101t-263 -37h-498l132 625h-144zM346 186h270q129 0 236 43t177 111.5t118 158t69 179t21 176.5q0 178 -105 285.5t-290 107.5h-273l-92 -442
h330l-37 -176h-332z" />
    <glyph glyph-name="Ntilde" unicode="&#xd1;" horiz-adv-x="1245" 
d="M793 686q23 -79 42.5 -162t28.5 -126l8 -44q21 154 60 336l155 744h195l-303 -1434h-178l-248 778q-23 79 -43.5 161.5t-29.5 125.5l-9 43q-18 -152 -57 -336l-166 -772h-193l303 1434h193zM469 1518q28 130 95 195t157 65q44 0 91 -20t78.5 -44.5t66 -44.5t57.5 -20
q38 0 64.5 27.5t43.5 90.5h140q-27 -129 -94.5 -193.5t-161.5 -64.5q-44 0 -89 20t-75.5 43.5t-65 43.5t-59.5 20q-37 0 -65.5 -29.5t-41.5 -88.5h-141z" />
    <glyph glyph-name="Ograve" unicode="&#xd2;" horiz-adv-x="1642" 
d="M770 -25q-183 0 -330.5 84t-229 230t-81.5 325q0 162 64 315.5t174 270t268 187.5t334 71q183 0 330 -83.5t229 -229t82 -324.5q0 -129 -40.5 -255t-116.5 -231.5t-178 -186.5t-233 -127t-272 -46zM332 631q0 -204 129 -336.5t330 -132.5q163 0 305 89t225.5 237.5
t83.5 316.5q0 202 -128 334.5t-329 132.5q-164 0 -306.5 -88t-226 -236t-83.5 -317zM713 1776h215l147 -260h-174z" />
    <glyph glyph-name="Oacute" unicode="&#xd3;" horiz-adv-x="1642" 
d="M770 -25q-183 0 -330.5 84t-229 230t-81.5 325q0 162 64 315.5t174 270t268 187.5t334 71q183 0 330 -83.5t229 -229t82 -324.5q0 -129 -40.5 -255t-116.5 -231.5t-178 -186.5t-233 -127t-272 -46zM332 631q0 -204 129 -336.5t330 -132.5q163 0 305 89t225.5 237.5
t83.5 316.5q0 202 -128 334.5t-329 132.5q-164 0 -306.5 -88t-226 -236t-83.5 -317zM889 1516l246 260h221l-287 -260h-180z" />
    <glyph glyph-name="Ocircumflex" unicode="&#xd4;" horiz-adv-x="1642" 
d="M770 -25q-183 0 -330.5 84t-229 230t-81.5 325q0 162 64 315.5t174 270t268 187.5t334 71q183 0 330 -83.5t229 -229t82 -324.5q0 -129 -40.5 -255t-116.5 -231.5t-178 -186.5t-233 -127t-272 -46zM332 631q0 -204 129 -336.5t330 -132.5q163 0 305 89t225.5 237.5
t83.5 316.5q0 202 -128 334.5t-329 132.5q-164 0 -306.5 -88t-226 -236t-83.5 -317zM623 1516l315 266h201l207 -266h-191l-131 161l-201 -161h-200z" />
    <glyph glyph-name="Otilde" unicode="&#xd5;" horiz-adv-x="1642" 
d="M770 -25q-183 0 -330.5 84t-229 230t-81.5 325q0 162 64 315.5t174 270t268 187.5t334 71q183 0 330 -83.5t229 -229t82 -324.5q0 -129 -40.5 -255t-116.5 -231.5t-178 -186.5t-233 -127t-272 -46zM332 631q0 -204 129 -336.5t330 -132.5q163 0 305 89t225.5 237.5
t83.5 316.5q0 202 -128 334.5t-329 132.5q-164 0 -306.5 -88t-226 -236t-83.5 -317zM614 1518q28 130 95 195t157 65q44 0 91 -20t78.5 -44.5t66 -44.5t57.5 -20q77 0 109 118h139q-27 -129 -94.5 -193.5t-161.5 -64.5q-44 0 -89 20t-75.5 43.5t-65 43.5t-59.5 20
q-37 0 -65 -29.5t-41 -88.5h-142z" />
    <glyph glyph-name="Odieresis" unicode="&#xd6;" horiz-adv-x="1642" 
d="M770 -25q-183 0 -330.5 84t-229 230t-81.5 325q0 162 64 315.5t174 270t268 187.5t334 71q183 0 330 -83.5t229 -229t82 -324.5q0 -129 -40.5 -255t-116.5 -231.5t-178 -186.5t-233 -127t-272 -46zM332 631q0 -204 129 -336.5t330 -132.5q163 0 305 89t225.5 237.5
t83.5 316.5q0 202 -128 334.5t-329 132.5q-164 0 -306.5 -88t-226 -236t-83.5 -317zM672 1522l39 186h198l-39 -186h-198zM1102 1522l39 186h198l-41 -186h-196z" />
    <glyph glyph-name="multiply" unicode="&#xd7;" horiz-adv-x="1269" 
d="M307 252l-110 139l350 291l-225 289l135 112l227 -286l344 286l117 -137l-352 -289l229 -290l-135 -115l-228 291z" />
    <glyph glyph-name="Oslash" unicode="&#xd8;" horiz-adv-x="1644" 
d="M252 -92l-135 117l155 178q-143 173 -143 413q0 160 64 312.5t173.5 269.5t268.5 188.5t336 71.5q194 0 344 -92l125 137l137 -117l-123 -137q156 -177 156 -426q0 -163 -64 -317t-174 -271.5t-268 -188.5t-334 -71q-204 0 -364 107zM334 633q0 -154 78 -275l768 856
q-103 58 -230 58q-124 0 -238.5 -53t-197 -140t-131.5 -204.5t-49 -241.5zM541 231q107 -69 250 -69q125 0 240 54.5t197 143t130.5 206t48.5 239.5q0 168 -90 291z" />
    <glyph glyph-name="Ugrave" unicode="&#xd9;" horiz-adv-x="1247" 
d="M543 -25q-146 0 -247.5 65.5t-140 186t-5.5 275.5l198 932h199l-207 -967q-28 -132 35 -218.5t186 -86.5q129 0 217 85.5t119 231.5l203 955h198l-206 -969q-48 -228 -192 -359t-357 -131zM565 1776h215l148 -260h-174z" />
    <glyph glyph-name="Uacute" unicode="&#xda;" horiz-adv-x="1247" 
d="M543 -25q-146 0 -247.5 65.5t-140 186t-5.5 275.5l198 932h199l-207 -967q-28 -132 35 -218.5t186 -86.5q129 0 217 85.5t119 231.5l203 955h198l-206 -969q-48 -228 -192 -359t-357 -131zM739 1516l246 260h221l-286 -260h-181z" />
    <glyph glyph-name="Ucircumflex" unicode="&#xdb;" horiz-adv-x="1247" 
d="M543 -25q-146 0 -247.5 65.5t-140 186t-5.5 275.5l198 932h199l-207 -967q-28 -132 35 -218.5t186 -86.5q129 0 217 85.5t119 231.5l203 955h198l-206 -969q-48 -228 -192 -359t-357 -131zM475 1516l316 266h200l207 -266h-190l-131 161l-201 -161h-201z" />
    <glyph glyph-name="Udieresis" unicode="&#xdc;" horiz-adv-x="1247" 
d="M543 -25q-146 0 -247.5 65.5t-140 186t-5.5 275.5l198 932h199l-207 -967q-28 -132 35 -218.5t186 -86.5q129 0 217 85.5t119 231.5l203 955h198l-206 -969q-48 -228 -192 -359t-357 -131zM524 1522l39 186h199l-39 -186h-199zM954 1522l39 186h199l-41 -186h-197z" />
    <glyph glyph-name="Yacute" unicode="&#xdd;" horiz-adv-x="1097" 
d="M227 1434h213l168 -621l436 621h220l-594 -840l-127 -594h-199l127 594zM666 1516l245 260h222l-287 -260h-180z" />
    <glyph glyph-name="Thorn" unicode="&#xde;" horiz-adv-x="1069" 
d="M358 1434h199l-61 -287h170q180 0 282.5 -92t102.5 -250q0 -210 -148 -349t-375 -139h-206l-68 -317h-199zM360 502h175q134 0 225.5 76t91.5 204q0 84 -55.5 132.5t-155.5 48.5h-184z" />
    <glyph glyph-name="germandbls" unicode="&#xdf;" horiz-adv-x="1204" 
d="M252 1012q44 212 188 329t361 117q125 0 220.5 -55.5t138 -152.5t18.5 -214q-23 -105 -100.5 -181.5t-178.5 -100.5q126 -30 181 -131t22 -258q-34 -156 -171 -260.5t-339 -104.5h-223l39 180h204q125 0 207 66t103 166q25 117 -36.5 186.5t-193.5 69.5h-180l33 161h170
q95 0 173.5 62t100.5 151q22 99 -39 170.5t-170 71.5q-129 0 -222.5 -77.5t-123.5 -219.5l-211 -987h-188z" />
    <glyph glyph-name="agrave" unicode="&#xe0;" horiz-adv-x="1083" 
d="M375 -25q-146 0 -238 74t-92 191t71.5 201.5t183 123.5t247.5 39h241l7 31q19 108 -31.5 170.5t-167.5 62.5q-97 0 -175 -54.5t-93 -141.5h-189q30 155 162 253.5t303 98.5q210 0 312.5 -112t62.5 -294l-131 -618h-184l24 117q-62 -65 -144.5 -103.5t-168.5 -38.5z
M229 252q0 -61 45 -96t129 -35q120 0 223.5 91t129.5 220l4 23h-228q-137 0 -220 -50t-83 -153zM412 1403h204l127 -299h-163z" />
    <glyph glyph-name="aacute" unicode="&#xe1;" horiz-adv-x="1083" 
d="M375 -25q-146 0 -238 74t-92 191t71.5 201.5t183 123.5t247.5 39h241l7 31q19 108 -31.5 170.5t-167.5 62.5q-97 0 -175 -54.5t-93 -141.5h-189q30 155 162 253.5t303 98.5q210 0 312.5 -112t62.5 -294l-131 -618h-184l24 117q-62 -65 -144.5 -103.5t-168.5 -38.5z
M229 252q0 -61 45 -96t129 -35q120 0 223.5 91t129.5 220l4 23h-228q-137 0 -220 -50t-83 -153zM567 1104l256 297h215l-290 -297h-181z" />
    <glyph glyph-name="acircumflex" unicode="&#xe2;" horiz-adv-x="1083" 
d="M375 -25q-146 0 -238 74t-92 191t71.5 201.5t183 123.5t247.5 39h241l7 31q19 108 -31.5 170.5t-167.5 62.5q-97 0 -175 -54.5t-93 -141.5h-189q30 155 162 253.5t303 98.5q210 0 312.5 -112t62.5 -294l-131 -618h-184l24 117q-62 -65 -144.5 -103.5t-168.5 -38.5z
M229 252q0 -61 45 -96t129 -35q120 0 223.5 91t129.5 220l4 23h-228q-137 0 -220 -50t-83 -153zM342 1104l287 297h202l158 -297h-162l-112 180l-191 -180h-182z" />
    <glyph glyph-name="atilde" unicode="&#xe3;" horiz-adv-x="1083" 
d="M375 -25q-146 0 -238 74t-92 191t71.5 201.5t183 123.5t247.5 39h241l7 31q19 108 -31.5 170.5t-167.5 62.5q-97 0 -175 -54.5t-93 -141.5h-189q30 155 162 253.5t303 98.5q210 0 312.5 -112t62.5 -294l-131 -618h-184l24 117q-62 -65 -144.5 -103.5t-168.5 -38.5z
M229 252q0 -61 45 -96t129 -35q120 0 223.5 91t129.5 220l4 23h-228q-137 0 -220 -50t-83 -153zM319 1120q24 147 89 218t155 71q38 0 71 -16t57 -39t46.5 -46t48 -39t52.5 -16q76 0 110 148h131q-25 -143 -92.5 -216t-152.5 -73q-41 0 -75.5 16t-57.5 38.5t-44 45
t-44.5 38.5t-47.5 16q-87 0 -116 -146h-130z" />
    <glyph glyph-name="adieresis" unicode="&#xe4;" horiz-adv-x="1083" 
d="M375 -25q-146 0 -238 74t-92 191t71.5 201.5t183 123.5t247.5 39h241l7 31q19 108 -31.5 170.5t-167.5 62.5q-97 0 -175 -54.5t-93 -141.5h-189q30 155 162 253.5t303 98.5q210 0 312.5 -112t62.5 -294l-131 -618h-184l24 117q-62 -65 -144.5 -103.5t-168.5 -38.5z
M229 252q0 -61 45 -96t129 -35q120 0 223.5 91t129.5 220l4 23h-228q-137 0 -220 -50t-83 -153zM383 1143l41 188h205l-41 -188h-205zM764 1143l41 188h203l-41 -188h-203z" />
    <glyph glyph-name="aring" unicode="&#xe5;" horiz-adv-x="1083" 
d="M375 -25q-146 0 -238 74t-92 191t71.5 201.5t183 123.5t247.5 39h241l7 31q19 108 -31.5 170.5t-167.5 62.5q-97 0 -175 -54.5t-93 -141.5h-189q30 155 162 253.5t303 98.5q210 0 312.5 -112t62.5 -294l-131 -618h-184l24 117q-62 -65 -144.5 -103.5t-168.5 -38.5z
M229 252q0 -61 45 -96t129 -35q120 0 223.5 91t129.5 220l4 23h-228q-137 0 -220 -50t-83 -153zM401 1307q0 107 84.5 181.5t204.5 74.5q109 0 180.5 -60.5t71.5 -154.5q0 -107 -83.5 -181.5t-203.5 -74.5q-109 0 -181.5 61.5t-72.5 153.5zM530 1315q0 -51 35.5 -84
t93.5 -33q64 0 110 42t46 101q0 49 -37 81t-94 32q-65 0 -109.5 -39.5t-44.5 -99.5z" />
    <glyph glyph-name="ae" unicode="&#xe6;" horiz-adv-x="1837" 
d="M1212 -25q-141 0 -242.5 64t-154.5 174q-81 -118 -194 -178t-240 -60q-147 0 -239.5 74t-92.5 191q0 114 69 198t180.5 125t248.5 41h246l4 19q22 106 -24 175.5t-171 69.5q-99 0 -176 -54.5t-92 -141.5h-191q35 159 167 255.5t302 96.5q125 0 210.5 -47.5t123.5 -132.5
q79 86 187 133t225 47q185 0 304.5 -112.5t119.5 -290.5q0 -92 -25 -162h-813q-2 -10 -2 -33q0 -127 73.5 -207t217.5 -80q90 0 173.5 44t119.5 126h192q-59 -160 -195 -247t-311 -87zM236 252q0 -62 46.5 -96.5t127.5 -34.5q119 0 222 90.5t128 214.5l6 29h-234
q-81 0 -145 -18.5t-107.5 -66t-43.5 -118.5zM981 614h618q15 103 -60 174.5t-200 71.5t-218 -68.5t-140 -177.5z" />
    <glyph glyph-name="ccedilla" unicode="&#xe7;" horiz-adv-x="1132" 
d="M74 434q0 161 75 296.5t208.5 214.5t297.5 79q186 0 312 -106.5t123 -262.5h-187q-4 81 -78 138t-174 57q-166 0 -279.5 -116.5t-113.5 -284.5q0 -135 81 -217t206 -82q106 0 187.5 51.5t117.5 148.5h190q-40 -163 -160 -259t-286 -114l-72 -116h25q64 0 103.5 -41
t39.5 -109q0 -91 -62.5 -154t-160.5 -63h-150l21 98h127q46 0 80.5 30.5t34.5 74.5q0 32 -21.5 51t-58.5 19h-115l18 81l78 129q-179 18 -293 141.5t-114 315.5z" />
    <glyph glyph-name="egrave" unicode="&#xe8;" horiz-adv-x="1144" 
d="M524 -25q-203 0 -328.5 127t-125.5 322q0 118 46 227.5t124 191.5t189 131.5t235 49.5q108 0 195.5 -39t141.5 -106t76 -159t4 -194q-10 -48 -18 -67h-813q-2 -12 -2 -35q0 -135 79 -210t214 -75q93 0 176.5 46.5t113.5 123.5h195q-55 -152 -188.5 -243t-313.5 -91z
M289 614h618q17 106 -62 176t-202 70t-215 -68.5t-139 -177.5zM426 1403h205l127 -299h-164z" />
    <glyph glyph-name="eacute" unicode="&#xe9;" horiz-adv-x="1144" 
d="M524 -25q-203 0 -328.5 127t-125.5 322q0 118 46 227.5t124 191.5t189 131.5t235 49.5q108 0 195.5 -39t141.5 -106t76 -159t4 -194q-10 -48 -18 -67h-813q-2 -12 -2 -35q0 -135 79 -210t214 -75q93 0 176.5 46.5t113.5 123.5h195q-55 -152 -188.5 -243t-313.5 -91z
M289 614h618q17 106 -62 176t-202 70t-215 -68.5t-139 -177.5zM584 1104l256 297h215l-291 -297h-180z" />
    <glyph glyph-name="ecircumflex" unicode="&#xea;" horiz-adv-x="1144" 
d="M524 -25q-203 0 -328.5 127t-125.5 322q0 118 46 227.5t124 191.5t189 131.5t235 49.5q108 0 195.5 -39t141.5 -106t76 -159t4 -194q-10 -48 -18 -67h-813q-2 -12 -2 -35q0 -135 79 -210t214 -75q93 0 176.5 46.5t113.5 123.5h195q-55 -152 -188.5 -243t-313.5 -91z
M289 614h618q17 106 -62 176t-202 70t-215 -68.5t-139 -177.5zM358 1104l287 297h203l158 -297h-162l-113 180l-190 -180h-183z" />
    <glyph glyph-name="edieresis" unicode="&#xeb;" horiz-adv-x="1144" 
d="M524 -25q-203 0 -328.5 127t-125.5 322q0 118 46 227.5t124 191.5t189 131.5t235 49.5q108 0 195.5 -39t141.5 -106t76 -159t4 -194q-10 -48 -18 -67h-813q-2 -12 -2 -35q0 -135 79 -210t214 -75q93 0 176.5 46.5t113.5 123.5h195q-55 -152 -188.5 -243t-313.5 -91z
M289 614h618q17 106 -62 176t-202 70t-215 -68.5t-139 -177.5zM397 1143l41 188h205l-41 -188h-205zM778 1143l41 188h203l-41 -188h-203z" />
    <glyph glyph-name="igrave" unicode="&#xec;" horiz-adv-x="471" 
d="M248 999h190l-213 -999h-190zM111 1403h204l127 -299h-163z" />
    <glyph glyph-name="iacute" unicode="&#xed;" horiz-adv-x="471" 
d="M248 999h190l-213 -999h-190zM268 1104l256 297h215l-290 -297h-181z" />
    <glyph glyph-name="icircumflex" unicode="&#xee;" horiz-adv-x="471" 
d="M248 999h190l-213 -999h-190zM43 1104l287 297h202l158 -297h-162l-112 180l-191 -180h-182z" />
    <glyph glyph-name="idieresis" unicode="&#xef;" horiz-adv-x="471" 
d="M248 999h190l-213 -999h-190zM82 1143l41 188h205l-41 -188h-205zM463 1143l41 188h203l-41 -188h-203z" />
    <glyph glyph-name="eth" unicode="&#xf0;" horiz-adv-x="1202" 
d="M543 -25q-212 0 -341.5 124.5t-129.5 320.5q0 155 74.5 287.5t205 210t285.5 77.5q136 0 240 -63l-97 242l-313 -44l8 127l256 37l-55 140h201l43 -115l210 31l-8 -127l-157 -23l106 -285q64 -175 64 -307q0 -123 -44 -238t-121 -202.5t-188.5 -140t-238.5 -52.5z
M256 434q0 -130 82 -210.5t219 -80.5q157 0 269 120.5t112 279.5q0 126 -82.5 207t-216.5 81q-96 0 -184 -51t-143.5 -143.5t-55.5 -202.5z" />
    <glyph glyph-name="ntilde" unicode="&#xf1;" horiz-adv-x="1159" 
d="M37 0l211 999h184l-24 -116q151 141 323 141q183 0 271 -126.5t40 -352.5l-114 -545h-189l121 571q27 125 -23.5 202t-168.5 77q-117 0 -207 -78.5t-119 -210.5l-119 -561h-186zM369 1120q24 147 88.5 218t154.5 71q38 0 71 -16t57 -39t46.5 -46t48 -39t52.5 -16
q76 0 110 148h131q-25 -143 -92.5 -216t-152.5 -73q-41 0 -75.5 16t-57.5 38.5t-44 45t-44.5 38.5t-47.5 16q-87 0 -116 -146h-129z" />
    <glyph glyph-name="ograve" unicode="&#xf2;" horiz-adv-x="1200" 
d="M535 -25q-199 0 -330 131.5t-131 327.5q0 153 77.5 288t215.5 218.5t301 83.5q198 0 329 -132.5t131 -328.5q0 -152 -77.5 -287t-215 -218t-300.5 -83zM258 446q0 -129 82.5 -212.5t212.5 -83.5q158 0 274.5 119t116.5 282q0 129 -83 214t-212 85q-160 0 -275.5 -121
t-115.5 -283zM475 1403h205l127 -299h-164z" />
    <glyph glyph-name="oacute" unicode="&#xf3;" horiz-adv-x="1200" 
d="M535 -25q-199 0 -330 131.5t-131 327.5q0 153 77.5 288t215.5 218.5t301 83.5q198 0 329 -132.5t131 -328.5q0 -152 -77.5 -287t-215 -218t-300.5 -83zM258 446q0 -129 82.5 -212.5t212.5 -83.5q158 0 274.5 119t116.5 282q0 129 -83 214t-212 85q-160 0 -275.5 -121
t-115.5 -283zM633 1104l256 297h215l-291 -297h-180z" />
    <glyph glyph-name="ocircumflex" unicode="&#xf4;" horiz-adv-x="1200" 
d="M535 -25q-199 0 -330 131.5t-131 327.5q0 153 77.5 288t215.5 218.5t301 83.5q198 0 329 -132.5t131 -328.5q0 -152 -77.5 -287t-215 -218t-300.5 -83zM258 446q0 -129 82.5 -212.5t212.5 -83.5q158 0 274.5 119t116.5 282q0 129 -83 214t-212 85q-160 0 -275.5 -121
t-115.5 -283zM408 1104l286 297h203l158 -297h-162l-113 180l-190 -180h-182z" />
    <glyph glyph-name="otilde" unicode="&#xf5;" horiz-adv-x="1200" 
d="M535 -25q-199 0 -330 131.5t-131 327.5q0 153 77.5 288t215.5 218.5t301 83.5q198 0 329 -132.5t131 -328.5q0 -152 -77.5 -287t-215 -218t-300.5 -83zM258 446q0 -129 82.5 -212.5t212.5 -83.5q158 0 274.5 119t116.5 282q0 129 -83 214t-212 85q-160 0 -275.5 -121
t-115.5 -283zM385 1120q24 147 89 218t155 71q38 0 71 -16t57 -39t46 -46t47.5 -39t52.5 -16q77 0 111 148h131q-25 -143 -93 -216t-153 -73q-50 0 -91 24t-64.5 53t-53.5 53t-59 24q-88 0 -117 -146h-129z" />
    <glyph glyph-name="odieresis" unicode="&#xf6;" horiz-adv-x="1200" 
d="M535 -25q-199 0 -330 131.5t-131 327.5q0 153 77.5 288t215.5 218.5t301 83.5q198 0 329 -132.5t131 -328.5q0 -152 -77.5 -287t-215 -218t-300.5 -83zM258 446q0 -129 82.5 -212.5t212.5 -83.5q158 0 274.5 119t116.5 282q0 129 -83 214t-212 85q-160 0 -275.5 -121
t-115.5 -283zM446 1143l41 188h205l-41 -188h-205zM827 1143l41 188h203l-41 -188h-203z" />
    <glyph glyph-name="divide" unicode="&#xf7;" horiz-adv-x="1269" 
d="M662 1145h227l-43 -203h-230zM193 584l36 174h922l-37 -174h-921zM459 195l41 202h229l-43 -202h-227z" />
    <glyph glyph-name="oslash" unicode="&#xf8;" horiz-adv-x="1202" 
d="M102 -78l-96 105l148 141q-80 116 -80 266q0 113 46 220t124 188.5t189.5 131.5t234.5 50q160 0 280 -90l148 141l98 -104l-145 -140q81 -118 81 -268q0 -113 -46.5 -220.5t-124.5 -188.5t-189.5 -130t-234.5 -49q-162 0 -283 91zM250 444q0 -84 35 -149l534 516
q-74 49 -170 49q-161 0 -280 -123.5t-119 -292.5zM381 188q71 -47 170 -47q161 0 281 122t120 288q0 89 -37 156z" />
    <glyph glyph-name="ugrave" unicode="&#xf9;" horiz-adv-x="1159" 
d="M1124 999l-211 -999h-184l25 117q-152 -142 -324 -142q-183 0 -271 127t-40 353l114 544h189l-121 -571q-27 -125 24 -201.5t169 -76.5q117 0 206.5 78t118.5 210l119 561h186zM444 1403h205l127 -299h-164z" />
    <glyph glyph-name="uacute" unicode="&#xfa;" horiz-adv-x="1159" 
d="M1124 999l-211 -999h-184l25 117q-152 -142 -324 -142q-183 0 -271 127t-40 353l114 544h189l-121 -571q-27 -125 24 -201.5t169 -76.5q117 0 206.5 78t118.5 210l119 561h186zM602 1104l256 297h215l-291 -297h-180z" />
    <glyph glyph-name="ucircumflex" unicode="&#xfb;" horiz-adv-x="1159" 
d="M1124 999l-211 -999h-184l25 117q-152 -142 -324 -142q-183 0 -271 127t-40 353l114 544h189l-121 -571q-27 -125 24 -201.5t169 -76.5q117 0 206.5 78t118.5 210l119 561h186zM377 1104l287 297h202l158 -297h-162l-112 180l-191 -180h-182z" />
    <glyph glyph-name="udieresis" unicode="&#xfc;" horiz-adv-x="1159" 
d="M1124 999l-211 -999h-184l25 117q-152 -142 -324 -142q-183 0 -271 127t-40 353l114 544h189l-121 -571q-27 -125 24 -201.5t169 -76.5q117 0 206.5 78t118.5 210l119 561h186zM418 1143l41 188h205l-41 -188h-205zM799 1143l41 188h202l-41 -188h-202z" />
    <glyph glyph-name="yacute" unicode="&#xfd;" horiz-adv-x="1042" 
d="M127 999h190l144 -751l452 751h215l-864 -1384h-211l275 426zM553 1104l256 297h215l-291 -297h-180z" />
    <glyph glyph-name="thorn" unicode="&#xfe;" horiz-adv-x="1280" 
d="M-47 -385l387 1819h188l-114 -537q143 127 338 127q197 0 326.5 -127t129.5 -334q0 -122 -45 -231.5t-122 -187.5t-182.5 -123.5t-221.5 -45.5q-126 0 -226 52.5t-151 144.5l-119 -557h-188zM328 455q0 -133 86 -217t221 -84q158 0 270.5 115t112.5 272
q0 132 -85.5 217.5t-217.5 85.5q-161 0 -274 -112t-113 -277z" />
    <glyph glyph-name="ydieresis" unicode="&#xff;" horiz-adv-x="1042" 
d="M127 999h190l144 -751l452 751h215l-864 -1384h-211l275 426zM367 1143l41 188h204l-41 -188h-204zM748 1143l40 188h203l-41 -188h-202z" />
    <glyph glyph-name="Amacron" unicode="&#x100;" horiz-adv-x="1202" 
d="M-82 0l791 1434h188l180 -1434h-203l-36 322h-529l-172 -322h-219zM387 508h440l-79 666zM492 1548l30 144h666l-29 -144h-667z" />
    <glyph glyph-name="amacron" unicode="&#x101;" horiz-adv-x="1083" 
d="M375 -25q-146 0 -238 74t-92 191t71.5 201.5t183 123.5t247.5 39h241l7 31q19 108 -31.5 170.5t-167.5 62.5q-97 0 -175 -54.5t-93 -141.5h-189q30 155 162 253.5t303 98.5q210 0 312.5 -112t62.5 -294l-131 -618h-184l24 117q-62 -65 -144.5 -103.5t-168.5 -38.5z
M229 252q0 -61 45 -96t129 -35q120 0 223.5 91t129.5 220l4 23h-228q-137 0 -220 -50t-83 -153zM350 1135l33 149h647l-33 -149h-647z" />
    <glyph glyph-name="Abreve" unicode="&#x102;" horiz-adv-x="1202" 
d="M-82 0l791 1434h188l180 -1434h-203l-36 322h-529l-172 -322h-219zM387 508h440l-79 666zM563 1780h156q-12 -72 22.5 -115t102.5 -43q70 0 119.5 42.5t62.5 115.5h154q-23 -129 -114.5 -204t-225.5 -75q-140 0 -217.5 76t-59.5 203z" />
    <glyph glyph-name="abreve" unicode="&#x103;" horiz-adv-x="1083" 
d="M375 -25q-146 0 -238 74t-92 191t71.5 201.5t183 123.5t247.5 39h241l7 31q19 108 -31.5 170.5t-167.5 62.5q-97 0 -175 -54.5t-93 -141.5h-189q30 155 162 253.5t303 98.5q210 0 312.5 -112t62.5 -294l-131 -618h-184l24 117q-62 -65 -144.5 -103.5t-168.5 -38.5z
M229 252q0 -61 45 -96t129 -35q120 0 223.5 91t129.5 220l4 23h-228q-137 0 -220 -50t-83 -153zM428 1395h145q-17 -83 15.5 -130.5t101.5 -47.5t123.5 49.5t71.5 128.5h145q-29 -143 -121.5 -224t-222.5 -81q-136 0 -211.5 85.5t-46.5 219.5z" />
    <glyph glyph-name="Aogonek" unicode="&#x104;" horiz-adv-x="1202" 
d="M-82 0l791 1434h188l180 -1430l2 -4q-79 -54 -120 -100.5t-41 -100.5q0 -67 92 -67h45l-58 -144h-51q-88 0 -135 43t-47 117q0 77 38.5 136.5t112.5 115.5h-41l-36 322h-529l-172 -322h-219zM387 508h440l-79 666z" />
    <glyph glyph-name="aogonek" unicode="&#x105;" horiz-adv-x="1083" 
d="M375 -25q-146 0 -238 74t-92 191t71.5 201.5t183 123.5t247.5 39h241l7 31q19 108 -31.5 170.5t-167.5 62.5q-97 0 -175 -54.5t-93 -141.5h-189q30 155 162 253.5t303 98.5q210 0 312.5 -112t62.5 -294l-131 -616l2 -2q-80 -55 -121 -101t-41 -100q0 -67 92 -67h45
l-57 -144h-51q-87 0 -134.5 43t-47.5 117q0 77 38.5 136.5t112.5 115.5h-22l24 117q-62 -65 -144.5 -103.5t-168.5 -38.5zM229 252q0 -61 45 -96t129 -35q120 0 223.5 91t129.5 220l4 23h-228q-137 0 -220 -50t-83 -153z" />
    <glyph glyph-name="Cacute" unicode="&#x106;" horiz-adv-x="1525" 
d="M762 -25q-285 0 -459 173t-174 454q0 173 64 331t172.5 273t260.5 183.5t320 68.5q138 0 253 -40t191.5 -109.5t118.5 -163t41 -199.5h-213q-10 142 -124 234t-269 92q-130 0 -245.5 -55t-195.5 -146t-126.5 -210.5t-46.5 -246.5q0 -201 119.5 -326.5t312.5 -125.5
q164 0 291.5 87.5t185.5 231.5h217q-72 -236 -258.5 -371t-435.5 -135zM877 1516l245 260h221l-286 -260h-180z" />
    <glyph glyph-name="cacute" unicode="&#x107;" horiz-adv-x="1132" 
d="M532 -25q-198 0 -328 126t-130 333q0 161 75 296.5t208.5 214.5t297.5 79q186 0 312 -106.5t123 -262.5h-187q-4 81 -78 138t-174 57q-166 0 -279.5 -116.5t-113.5 -284.5q0 -135 81 -217t206 -82q106 0 187.5 51.5t117.5 148.5h190q-45 -179 -183 -277t-325 -98z
M575 1104l256 297h216l-291 -297h-181z" />
    <glyph glyph-name="Ccircumflex" unicode="&#x108;" horiz-adv-x="1525" 
d="M762 -25q-285 0 -459 173t-174 454q0 173 64 331t172.5 273t260.5 183.5t320 68.5q138 0 253 -40t191.5 -109.5t118.5 -163t41 -199.5h-213q-10 142 -124 234t-269 92q-130 0 -245.5 -55t-195.5 -146t-126.5 -210.5t-46.5 -246.5q0 -201 119.5 -326.5t312.5 -125.5
q164 0 291.5 87.5t185.5 231.5h217q-72 -236 -258.5 -371t-435.5 -135zM612 1516l316 266h200l207 -266h-190l-131 161l-201 -161h-201z" />
    <glyph glyph-name="ccircumflex" unicode="&#x109;" horiz-adv-x="1132" 
d="M532 -25q-198 0 -328 126t-130 333q0 161 75 296.5t208.5 214.5t297.5 79q186 0 312 -106.5t123 -262.5h-187q-4 81 -78 138t-174 57q-166 0 -279.5 -116.5t-113.5 -284.5q0 -135 81 -217t206 -82q106 0 187.5 51.5t117.5 148.5h190q-45 -179 -183 -277t-325 -98z
M350 1104l287 297h203l157 -297h-161l-113 180l-191 -180h-182z" />
    <glyph glyph-name="Cdotaccent" unicode="&#x10a;" horiz-adv-x="1525" 
d="M762 -25q-285 0 -459 173t-174 454q0 173 64 331t172.5 273t260.5 183.5t320 68.5q138 0 253 -40t191.5 -109.5t118.5 -163t41 -199.5h-213q-10 142 -124 234t-269 92q-130 0 -245.5 -55t-195.5 -146t-126.5 -210.5t-46.5 -246.5q0 -201 119.5 -326.5t312.5 -125.5
q164 0 291.5 87.5t185.5 231.5h217q-72 -236 -258.5 -371t-435.5 -135zM864 1522l39 186h221l-39 -186h-221z" />
    <glyph glyph-name="cdotaccent" unicode="&#x10b;" horiz-adv-x="1132" 
d="M532 -25q-198 0 -328 126t-130 333q0 161 75 296.5t208.5 214.5t297.5 79q186 0 312 -106.5t123 -262.5h-187q-4 81 -78 138t-174 57q-166 0 -279.5 -116.5t-113.5 -284.5q0 -135 81 -217t206 -82q106 0 187.5 51.5t117.5 148.5h190q-45 -179 -183 -277t-325 -98z
M592 1198l49 236h205l-49 -236h-205z" />
    <glyph glyph-name="Ccaron" unicode="&#x10c;" horiz-adv-x="1525" 
d="M762 -25q-285 0 -459 173t-174 454q0 173 64 331t172.5 273t260.5 183.5t320 68.5q138 0 253 -40t191.5 -109.5t118.5 -163t41 -199.5h-213q-10 142 -124 234t-269 92q-130 0 -245.5 -55t-195.5 -146t-126.5 -210.5t-46.5 -246.5q0 -201 119.5 -326.5t312.5 -125.5
q164 0 291.5 87.5t185.5 231.5h217q-72 -236 -258.5 -371t-435.5 -135zM670 1790h190l131 -166l203 166h197l-318 -274h-203z" />
    <glyph glyph-name="ccaron" unicode="&#x10d;" horiz-adv-x="1132" 
d="M532 -25q-198 0 -328 126t-130 333q0 161 75 296.5t208.5 214.5t297.5 79q186 0 312 -106.5t123 -262.5h-187q-4 81 -78 138t-174 57q-166 0 -279.5 -116.5t-113.5 -284.5q0 -135 81 -217t206 -82q106 0 187.5 51.5t117.5 148.5h190q-45 -179 -183 -277t-325 -98z
M414 1401h164l110 -180l191 180h184l-287 -297h-203z" />
    <glyph glyph-name="Dcaron" unicode="&#x10e;" horiz-adv-x="1417" 
d="M793 1434q278 0 435.5 -155.5t157.5 -410.5q0 -100 -22 -201t-65 -198.5t-112.5 -182t-159 -148.5t-211.5 -101t-263 -37h-498l303 1434h435zM295 186h270q129 0 236 43t177 111.5t118 158t69 179t21 176.5q0 178 -105 285.5t-290 107.5h-273zM524 1790h191l131 -166
l203 166h196l-317 -274h-203z" />
    <glyph glyph-name="dcaron" unicode="&#x10f;" horiz-adv-x="1339" 
d="M528 -25q-197 0 -324.5 126t-127.5 335q0 124 46.5 234t124.5 187t181.5 122t214.5 45q126 0 225.5 -53t149.5 -144l131 607h188l-305 -1434h-188l24 121q-56 -65 -150.5 -105.5t-189.5 -40.5zM264 457q0 -131 85 -216t218 -85q160 0 272.5 111.5t112.5 277.5
q0 132 -86 216.5t-221 84.5q-155 0 -268 -115.5t-113 -273.5zM1399 1096l127 409h188l-162 -409h-153z" />
    <glyph glyph-name="Dcroat" unicode="&#x110;" horiz-adv-x="1468" 
d="M94 625l39 184h146l131 625h434q278 0 436 -155.5t158 -410.5q0 -100 -22 -201t-65 -198.5t-113 -182t-159.5 -148.5t-211.5 -101t-263 -37h-498l132 625h-144zM346 186h270q129 0 236 43t177 111.5t118 158t69 179t21 176.5q0 178 -105 285.5t-290 107.5h-273l-92 -442
h330l-37 -176h-332z" />
    <glyph glyph-name="dcroat" unicode="&#x111;" horiz-adv-x="1280" 
d="M795 1180l24 120h301l29 134h188l-28 -134h153l-26 -120h-152l-252 -1180h-188l24 121q-56 -65 -150.5 -105.5t-189.5 -40.5q-197 0 -324.5 126t-127.5 335q0 124 46.5 234t124.5 187t181.5 122t214.5 45q126 0 225.5 -53t149.5 -144l76 353h-299zM264 457
q0 -131 85 -216t218 -85q160 0 272.5 111.5t112.5 277.5q0 132 -86 216.5t-221 84.5q-155 0 -268 -115.5t-113 -273.5z" />
    <glyph glyph-name="Emacron" unicode="&#x112;" horiz-adv-x="960" 
d="M358 1434h711l-39 -187h-512l-86 -399h447l-39 -180h-445l-102 -482h512l-39 -186h-711zM406 1548l30 144h666l-29 -144h-667z" />
    <glyph glyph-name="emacron" unicode="&#x113;" horiz-adv-x="1144" 
d="M524 -25q-203 0 -328.5 127t-125.5 322q0 118 46 227.5t124 191.5t189 131.5t235 49.5q108 0 195.5 -39t141.5 -106t76 -159t4 -194q-10 -48 -18 -67h-813q-2 -12 -2 -35q0 -135 79 -210t214 -75q93 0 176.5 46.5t113.5 123.5h195q-55 -152 -188.5 -243t-313.5 -91z
M289 614h618q17 106 -62 176t-202 70t-215 -68.5t-139 -177.5zM365 1135l32 149h647l-32 -149h-647z" />
    <glyph glyph-name="Ebreve" unicode="&#x114;" horiz-adv-x="960" 
d="M358 1434h711l-39 -187h-512l-86 -399h447l-39 -180h-445l-102 -482h512l-39 -186h-711zM479 1780h156q-12 -72 22.5 -115t102.5 -43q70 0 119.5 42.5t62.5 115.5h154q-23 -129 -114.5 -204t-225.5 -75q-140 0 -217.5 76t-59.5 203z" />
    <glyph glyph-name="ebreve" unicode="&#x115;" horiz-adv-x="1144" 
d="M524 -25q-203 0 -328.5 127t-125.5 322q0 118 46 227.5t124 191.5t189 131.5t235 49.5q108 0 195.5 -39t141.5 -106t76 -159t4 -194q-10 -48 -18 -67h-813q-2 -12 -2 -35q0 -135 79 -210t214 -75q93 0 176.5 46.5t113.5 123.5h195q-55 -152 -188.5 -243t-313.5 -91z
M289 614h618q17 106 -62 176t-202 70t-215 -68.5t-139 -177.5zM444 1395h146q-17 -83 15.5 -130.5t101.5 -47.5t123 49.5t71 128.5h146q-29 -143 -122 -224t-223 -81q-136 0 -211.5 85.5t-46.5 219.5z" />
    <glyph glyph-name="Edotaccent" unicode="&#x116;" horiz-adv-x="960" 
d="M358 1434h711l-39 -187h-512l-86 -399h447l-39 -180h-445l-102 -482h512l-39 -186h-711zM623 1522l39 186h221l-39 -186h-221z" />
    <glyph glyph-name="edotaccent" unicode="&#x117;" horiz-adv-x="1144" 
d="M524 -25q-203 0 -328.5 127t-125.5 322q0 118 46 227.5t124 191.5t189 131.5t235 49.5q108 0 195.5 -39t141.5 -106t76 -159t4 -194q-10 -48 -18 -67h-813q-2 -12 -2 -35q0 -135 79 -210t214 -75q93 0 176.5 46.5t113.5 123.5h195q-55 -152 -188.5 -243t-313.5 -91z
M289 614h618q17 106 -62 176t-202 70t-215 -68.5t-139 -177.5zM600 1198l49 236h205l-49 -236h-205z" />
    <glyph glyph-name="Eogonek" unicode="&#x118;" horiz-adv-x="960" 
d="M358 1434h711l-39 -187h-512l-86 -399h447l-39 -180h-445l-102 -482h512l-39 -186q-80 -55 -121 -101t-41 -100q0 -67 92 -67h45l-57 -144h-51q-87 0 -134.5 43t-47.5 117q0 77 38.5 136.5t112.5 115.5h-547z" />
    <glyph glyph-name="eogonek" unicode="&#x119;" horiz-adv-x="1144" 
d="M553 -412q-87 0 -134.5 43t-47.5 117q0 128 123 227q-191 10 -307.5 136t-116.5 313q0 118 46 227.5t124 191.5t189 131.5t235 49.5q108 0 195.5 -39t141.5 -106t76 -159t4 -194q-10 -48 -18 -67h-813q-2 -12 -2 -35q0 -135 79 -210t214 -75q93 0 176.5 46.5t113.5 123.5
h195q-42 -116 -132.5 -198.5t-215.5 -114.5q-76 -55 -115 -100t-39 -97q0 -67 92 -67h46l-58 -144h-51zM289 614h618q17 106 -62 176t-202 70t-215 -68.5t-139 -177.5z" />
    <glyph glyph-name="Ecaron" unicode="&#x11a;" horiz-adv-x="960" 
d="M358 1434h711l-39 -187h-512l-86 -399h447l-39 -180h-445l-102 -482h512l-39 -186h-711zM428 1790h190l132 -166l202 166h197l-318 -274h-202z" />
    <glyph glyph-name="ecaron" unicode="&#x11b;" horiz-adv-x="1144" 
d="M524 -25q-203 0 -328.5 127t-125.5 322q0 118 46 227.5t124 191.5t189 131.5t235 49.5q108 0 195.5 -39t141.5 -106t76 -159t4 -194q-10 -48 -18 -67h-813q-2 -12 -2 -35q0 -135 79 -210t214 -75q93 0 176.5 46.5t113.5 123.5h195q-55 -152 -188.5 -243t-313.5 -91z
M289 614h618q17 106 -62 176t-202 70t-215 -68.5t-139 -177.5zM422 1401h164l110 -180l191 180h184l-287 -297h-202z" />
    <glyph glyph-name="Gcircumflex" unicode="&#x11c;" horiz-adv-x="1574" 
d="M766 -25q-141 0 -260.5 46.5t-202.5 128.5t-129.5 197t-46.5 249q0 132 40 259.5t116 235.5t178.5 190.5t235.5 129.5t278 47q130 0 238.5 -36t182 -98t117 -143t52.5 -173h-222q-21 121 -129.5 194.5t-255.5 73.5q-137 0 -257.5 -59t-200.5 -154t-126 -215.5t-46 -243.5
q0 -200 123.5 -323t328.5 -123q195 0 341 122.5t194 321.5l-475 -8l39 180h659q-4 -69 -18 -139q-62 -298 -266 -479t-488 -181zM629 1516l315 266h201l207 -266h-191l-131 161l-201 -161h-200z" />
    <glyph glyph-name="gcircumflex" unicode="&#x11d;" horiz-adv-x="1257" 
d="M348 -385q-184 0 -281.5 88t-64.5 246l6 33h189l-7 -33q-21 -93 30 -132.5t161 -39.5h184q114 0 174.5 55t87.5 178l29 140q-139 -123 -328 -123q-198 0 -321 119.5t-123 316.5q0 119 45.5 224t121.5 178.5t178 116t212 42.5q124 0 219.5 -53.5t147.5 -147.5l36 176h181
l-207 -983q-43 -202 -143 -301.5t-285 -99.5h-242zM274 477q0 -127 81.5 -208t211.5 -81q162 0 271.5 112.5t109.5 272.5q0 126 -82.5 206.5t-214.5 80.5q-158 0 -267.5 -114.5t-109.5 -268.5zM389 1104l287 297h203l157 -297h-162l-112 180l-191 -180h-182z" />
    <glyph glyph-name="Gbreve" unicode="&#x11e;" horiz-adv-x="1574" 
d="M766 -25q-141 0 -260.5 46.5t-202.5 128.5t-129.5 197t-46.5 249q0 132 40 259.5t116 235.5t178.5 190.5t235.5 129.5t278 47q130 0 238.5 -36t182 -98t117 -143t52.5 -173h-222q-21 121 -129.5 194.5t-255.5 73.5q-137 0 -257.5 -59t-200.5 -154t-126 -215.5t-46 -243.5
q0 -200 123.5 -323t328.5 -123q195 0 341 122.5t194 321.5l-475 -8l39 180h659q-4 -69 -18 -139q-62 -298 -266 -479t-488 -181zM735 1780h156q-12 -72 22.5 -115t102.5 -43q70 0 119.5 42.5t62.5 115.5h154q-23 -129 -114.5 -204t-225.5 -75q-140 0 -217.5 76t-59.5 203z
" />
    <glyph glyph-name="gbreve" unicode="&#x11f;" horiz-adv-x="1257" 
d="M348 -385q-184 0 -281.5 88t-64.5 246l6 33h189l-7 -33q-21 -93 30 -132.5t161 -39.5h184q114 0 174.5 55t87.5 178l29 140q-139 -123 -328 -123q-198 0 -321 119.5t-123 316.5q0 119 45.5 224t121.5 178.5t178 116t212 42.5q124 0 219.5 -53.5t147.5 -147.5l36 176h181
l-207 -983q-43 -202 -143 -301.5t-285 -99.5h-242zM274 477q0 -127 81.5 -208t211.5 -81q162 0 271.5 112.5t109.5 272.5q0 126 -82.5 206.5t-214.5 80.5q-158 0 -267.5 -114.5t-109.5 -268.5zM475 1395h146q-17 -83 15 -130.5t101 -47.5t123.5 49.5t71.5 128.5h145
q-29 -143 -121.5 -224t-222.5 -81q-136 0 -211.5 85.5t-46.5 219.5z" />
    <glyph glyph-name="Gdotaccent" unicode="&#x120;" horiz-adv-x="1574" 
d="M766 -25q-141 0 -260.5 46.5t-202.5 128.5t-129.5 197t-46.5 249q0 132 40 259.5t116 235.5t178.5 190.5t235.5 129.5t278 47q130 0 238.5 -36t182 -98t117 -143t52.5 -173h-222q-21 121 -129.5 194.5t-255.5 73.5q-137 0 -257.5 -59t-200.5 -154t-126 -215.5t-46 -243.5
q0 -200 123.5 -323t328.5 -123q195 0 341 122.5t194 321.5l-475 -8l39 180h659q-4 -69 -18 -139q-62 -298 -266 -479t-488 -181zM881 1522l39 186h221l-39 -186h-221z" />
    <glyph glyph-name="gdotaccent" unicode="&#x121;" horiz-adv-x="1257" 
d="M348 -385q-184 0 -281.5 88t-64.5 246l6 33h189l-7 -33q-21 -93 30 -132.5t161 -39.5h184q114 0 174.5 55t87.5 178l29 140q-139 -123 -328 -123q-198 0 -321 119.5t-123 316.5q0 119 45.5 224t121.5 178.5t178 116t212 42.5q124 0 219.5 -53.5t147.5 -147.5l36 176h181
l-207 -983q-43 -202 -143 -301.5t-285 -99.5h-242zM274 477q0 -127 81.5 -208t211.5 -81q162 0 271.5 112.5t109.5 272.5q0 126 -82.5 206.5t-214.5 80.5q-158 0 -267.5 -114.5t-109.5 -268.5zM631 1198l49 236h205l-49 -236h-205z" />
    <glyph glyph-name="uni0122" unicode="&#x122;" horiz-adv-x="1574" 
d="M766 -25q-141 0 -260.5 46.5t-202.5 128.5t-129.5 197t-46.5 249q0 132 40 259.5t116 235.5t178.5 190.5t235.5 129.5t278 47q130 0 238.5 -36t182 -98t117 -143t52.5 -173h-222q-21 121 -129.5 194.5t-255.5 73.5q-137 0 -257.5 -59t-200.5 -154t-126 -215.5t-46 -243.5
q0 -200 123.5 -323t328.5 -123q195 0 341 122.5t194 321.5l-475 -8l39 180h659q-4 -69 -18 -139q-62 -298 -266 -479t-488 -181zM403 -356l228 278h200l-253 -278h-175z" />
    <glyph glyph-name="uni0123" unicode="&#x123;" horiz-adv-x="1257" 
d="M348 -385q-184 0 -281.5 88t-64.5 246l6 33h189l-7 -33q-21 -93 30 -132.5t161 -39.5h184q114 0 174.5 55t87.5 178l29 140q-139 -123 -328 -123q-198 0 -321 119.5t-123 316.5q0 119 45.5 224t121.5 178.5t178 116t212 42.5q124 0 219.5 -53.5t147.5 -147.5l36 176h181
l-207 -983q-43 -202 -143 -301.5t-285 -99.5h-242zM274 477q0 -127 81.5 -208t211.5 -81q162 0 271.5 112.5t109.5 272.5q0 126 -82.5 206.5t-214.5 80.5q-158 0 -267.5 -114.5t-109.5 -268.5zM565 1104l264 287h181l-228 -287h-217z" />
    <glyph glyph-name="Hcircumflex" unicode="&#x124;" horiz-adv-x="1255" 
d="M55 0l303 1434h199l-127 -600h539l127 600h198l-305 -1434h-198l137 647h-537l-137 -647h-199zM481 1516l316 266h200l207 -266h-190l-131 161l-201 -161h-201z" />
    <glyph glyph-name="hcircumflex" unicode="&#x125;" horiz-adv-x="1161" 
d="M39 0l303 1434h184l-116 -549q145 139 321 139q192 0 276 -125t35 -354l-114 -545h-189l121 571q27 125 -23.5 202t-168.5 77q-117 0 -206 -78.5t-118 -210.5l-119 -561h-186zM84 1516l315 266h201l207 -266h-191l-131 161l-200 -161h-201z" />
    <glyph glyph-name="Hbar" unicode="&#x126;" horiz-adv-x="1345" 
d="M100 0l226 1057h-160l35 160h157l48 217h196l-45 -217h539l45 217h198l-45 -217h160l-37 -160h-157l-224 -1057h-198l133 629h-539l-133 -629h-199zM471 815h539l51 242h-539z" />
    <glyph glyph-name="hbar" unicode="&#x127;" horiz-adv-x="1161" 
d="M131 1180l27 123h155l29 131h184l-28 -131h301l-27 -123h-299l-63 -295q145 139 321 139q192 0 276 -125t35 -354l-114 -545h-189l121 571q27 125 -23.5 202t-168.5 77q-117 0 -206 -78.5t-118 -210.5l-119 -561h-186l250 1180h-158z" />
    <glyph glyph-name="Itilde" unicode="&#x128;" horiz-adv-x="518" 
d="M358 1434h199l-303 -1434h-199zM104 1518q28 130 95 195t157 65q44 0 91 -20t78.5 -44.5t66 -44.5t57.5 -20q77 0 109 118h139q-27 -129 -94.5 -193.5t-161.5 -64.5q-44 0 -89 20t-75.5 43.5t-65 43.5t-59.5 20q-37 0 -65 -29.5t-41 -88.5h-142z" />
    <glyph glyph-name="itilde" unicode="&#x129;" horiz-adv-x="471" 
d="M248 999h190l-213 -999h-190zM20 1120q24 147 89 218t155 71q38 0 71 -16t57 -39t46.5 -46t48 -39t52.5 -16q76 0 110 148h131q-25 -143 -92.5 -216t-152.5 -73q-41 0 -75.5 16t-57.5 38.5t-44 45t-44.5 38.5t-47.5 16q-87 0 -116 -146h-130z" />
    <glyph glyph-name="Imacron" unicode="&#x12a;" horiz-adv-x="518" 
d="M358 1434h199l-303 -1434h-199zM150 1548l30 144h666l-29 -144h-667z" />
    <glyph glyph-name="imacron" unicode="&#x12b;" horiz-adv-x="471" 
d="M248 999h190l-213 -999h-190zM49 1135l33 149h647l-33 -149h-647z" />
    <glyph glyph-name="Ibreve" unicode="&#x12c;" horiz-adv-x="518" 
d="M358 1434h199l-303 -1434h-199zM221 1780h156q-12 -72 22.5 -115t102.5 -43q70 0 119.5 42.5t62.5 115.5h154q-23 -129 -114.5 -204t-225.5 -75q-140 0 -217.5 76t-59.5 203z" />
    <glyph glyph-name="ibreve" unicode="&#x12d;" horiz-adv-x="471" 
d="M248 999h190l-213 -999h-190zM127 1395h145q-17 -83 15.5 -130.5t101.5 -47.5t123.5 49.5t71.5 128.5h145q-29 -143 -121.5 -224t-222.5 -81q-136 0 -211.5 85.5t-46.5 219.5z" />
    <glyph glyph-name="Iogonek" unicode="&#x12e;" horiz-adv-x="518" 
d="M358 1434h199l-303 -1434q-80 -55 -121 -101t-41 -100q0 -67 92 -67h45l-57 -144h-51q-87 0 -134.5 43t-47.5 117q0 77 38.5 136.5t112.5 115.5h-35z" />
    <glyph glyph-name="iogonek" unicode="&#x12f;" horiz-adv-x="471" 
d="M248 999h190l-213 -997l2 -2q-79 -54 -120 -100.5t-41 -100.5q0 -67 92 -67h45l-58 -144h-51q-88 0 -135 43t-47 117q0 77 38.5 136.5t112.5 115.5h-28zM285 1198l49 236h205l-50 -236h-204z" />
    <glyph glyph-name="Idotaccent" unicode="&#x130;" horiz-adv-x="518" 
d="M358 1434h199l-303 -1434h-199zM365 1522l38 186h222l-39 -186h-221z" />
    <glyph glyph-name="dotlessi" unicode="&#x131;" horiz-adv-x="471" 
d="M248 999h190l-213 -999h-190z" />
    <glyph glyph-name="IJ" unicode="&#x132;" horiz-adv-x="1169" 
d="M358 1434h199l-303 -1434h-199zM438 0l39 186h76q101 0 163.5 56t88.5 178l215 1014h197l-224 -1053q-78 -381 -426 -381h-129z" />
    <glyph glyph-name="ij" unicode="&#x133;" horiz-adv-x="925" 
d="M248 999h190l-213 -999h-190zM229 -385l35 168h76q50 0 83.5 30t45.5 87l233 1099h189l-238 -1126q-32 -148 -109.5 -203t-217.5 -55h-97zM285 1198l49 236h205l-50 -236h-204zM737 1198l49 236h205l-49 -236h-205z" />
    <glyph glyph-name="Jcircumflex" unicode="&#x134;" horiz-adv-x="675" 
d="M59 186q101 0 163.5 56t88.5 178l215 1014h197l-223 -1053q-78 -381 -426 -381h-129l39 186h75zM283 1516l315 266h201l207 -266h-191l-131 161l-201 -161h-200z" />
    <glyph glyph-name="jcircumflex" unicode="&#x135;" horiz-adv-x="471" 
d="M-115 -217q50 0 83.5 30t45.5 87l234 1099h188l-237 -1126q-32 -148 -110 -203t-218 -55h-96l35 168h75zM41 1104l287 297h202l158 -297h-162l-112 180l-191 -180h-182z" />
    <glyph glyph-name="uni0136" unicode="&#x136;" horiz-adv-x="1075" 
d="M754 0l-351 709l-149 -709h-199l303 1434h199l-135 -641l592 641h231l-653 -691l385 -743h-223zM125 -356l227 278h201l-254 -278h-174z" />
    <glyph glyph-name="uni0137" unicode="&#x137;" horiz-adv-x="989" 
d="M37 0l303 1434h190l-178 -840l475 405h250l-561 -477l373 -522h-223l-334 489l-105 -489h-190zM86 -356l227 278h201l-254 -278h-174z" />
    <glyph glyph-name="kgreenlandic" unicode="&#x138;" horiz-adv-x="987" 
d="M35 0l213 999h188l-84 -405l473 405h250l-559 -477l373 -522h-225l-334 489l-105 -489h-190z" />
    <glyph glyph-name="Lacute" unicode="&#x139;" horiz-adv-x="903" 
d="M358 1434h199l-264 -1248h514l-41 -186h-711zM375 1516l246 260h221l-287 -260h-180z" />
    <glyph glyph-name="lacute" unicode="&#x13a;" horiz-adv-x="471" 
d="M530 1434l-305 -1434h-188l303 1434h190zM356 1516l246 260h221l-286 -260h-181z" />
    <glyph glyph-name="uni013B" unicode="&#x13b;" horiz-adv-x="903" 
d="M358 1434h199l-264 -1248h514l-41 -186h-711zM59 -356l228 278h200l-254 -278h-174z" />
    <glyph glyph-name="uni013C" unicode="&#x13c;" horiz-adv-x="471" 
d="M530 1434l-305 -1434h-188l303 1434h190zM-221 -356l227 278h201l-254 -278h-174z" />
    <glyph glyph-name="Lcaron" unicode="&#x13d;" horiz-adv-x="921" 
d="M358 1434h199l-264 -1248h514l-41 -186h-711zM750 1096l127 409h188l-162 -409h-153z" />
    <glyph glyph-name="lcaron" unicode="&#x13e;" horiz-adv-x="532" 
d="M530 1434l-305 -1434h-188l303 1434h190zM592 1096l127 409h188l-162 -409h-153z" />
    <glyph glyph-name="Ldot" unicode="&#x13f;" horiz-adv-x="948" 
d="M358 1434h199l-264 -1248h514l-41 -186h-711zM659 625l46 215h229l-45 -215h-230z" />
    <glyph glyph-name="ldot" unicode="&#x140;" horiz-adv-x="688" 
d="M530 1434l-305 -1434h-188l303 1434h190zM494 625l45 215h229l-45 -215h-229z" />
    <glyph glyph-name="Lslash" unicode="&#x141;" horiz-adv-x="962" 
d="M856 831l-405 -149l-105 -496h514l-41 -186h-710l127 602l-158 -57l39 182l157 57l138 650h198l-121 -570l404 148z" />
    <glyph glyph-name="lslash" unicode="&#x142;" horiz-adv-x="610" 
d="M600 1434l-115 -535l146 -35l-168 -78l-168 -786h-189l156 733l-147 37l172 78l123 586h190z" />
    <glyph glyph-name="Nacute" unicode="&#x143;" horiz-adv-x="1245" 
d="M793 686q23 -79 42.5 -162t28.5 -126l8 -44q21 154 60 336l155 744h195l-303 -1434h-178l-248 778q-23 79 -43.5 161.5t-29.5 125.5l-9 43q-18 -152 -57 -336l-166 -772h-193l303 1434h193zM741 1516l246 260h221l-286 -260h-181z" />
    <glyph glyph-name="nacute" unicode="&#x144;" horiz-adv-x="1159" 
d="M37 0l211 999h184l-24 -116q151 141 323 141q183 0 271 -126.5t40 -352.5l-114 -545h-189l121 571q27 125 -23.5 202t-168.5 77q-117 0 -207 -78.5t-119 -210.5l-119 -561h-186zM610 1104l256 297h215l-290 -297h-181z" />
    <glyph glyph-name="uni0145" unicode="&#x145;" horiz-adv-x="1245" 
d="M793 686q23 -79 42.5 -162t28.5 -126l8 -44q21 154 60 336l155 744h195l-303 -1434h-178l-248 778q-23 79 -43.5 161.5t-29.5 125.5l-9 43q-18 -152 -57 -336l-166 -772h-193l303 1434h193zM166 -356l227 278h201l-254 -278h-174z" />
    <glyph glyph-name="uni0146" unicode="&#x146;" horiz-adv-x="1159" 
d="M37 0l211 999h184l-24 -116q151 141 323 141q183 0 271 -126.5t40 -352.5l-114 -545h-189l121 571q27 125 -23.5 202t-168.5 77q-117 0 -207 -78.5t-119 -210.5l-119 -561h-186zM123 -356l227 278h201l-254 -278h-174z" />
    <glyph glyph-name="Ncaron" unicode="&#x147;" horiz-adv-x="1245" 
d="M793 686q23 -79 42.5 -162t28.5 -126l8 -44q21 154 60 336l155 744h195l-303 -1434h-178l-248 778q-23 79 -43.5 161.5t-29.5 125.5l-9 43q-18 -152 -57 -336l-166 -772h-193l303 1434h193zM535 1790h190l131 -166l203 166h196l-317 -274h-203z" />
    <glyph glyph-name="ncaron" unicode="&#x148;" horiz-adv-x="1159" 
d="M37 0l211 999h184l-24 -116q151 141 323 141q183 0 271 -126.5t40 -352.5l-114 -545h-189l121 571q27 125 -23.5 202t-168.5 77q-117 0 -207 -78.5t-119 -210.5l-119 -561h-186zM449 1401h163l111 -180l190 180h185l-287 -297h-203z" />
    <glyph glyph-name="napostrophe" unicode="&#x149;" horiz-adv-x="1159" 
d="M106 1339l41 197h242l-53 -254q-25 -115 -86 -156t-182 -39l20 103q57 0 79.5 17.5t33.5 68.5l14 63h-109zM37 0l211 999h184l-24 -116q151 141 323 141q183 0 271 -126.5t40 -352.5l-114 -545h-189l121 571q27 125 -23.5 202t-168.5 77q-117 0 -207 -78.5t-119 -210.5
l-119 -561h-186z" />
    <glyph glyph-name="Eng" unicode="&#x14a;" horiz-adv-x="1245" 
d="M547 -217q99 0 158 50.5t92 172.5l-244 772q-23 79 -43.5 161.5t-29.5 125.5l-9 43q-18 -152 -57 -336l-166 -772h-193l303 1434h193l242 -748q23 -79 42.5 -162t28.5 -126l8 -44q21 154 60 336l155 744h195l-309 -1465q-41 -189 -141 -271.5t-283 -82.5h-125l35 168h88z
" />
    <glyph glyph-name="eng" unicode="&#x14b;" horiz-adv-x="1157" 
d="M500 -385l35 160h51q104 0 129 114l145 682q25 126 -25 202.5t-167 76.5t-207 -78.5t-119 -210.5l-119 -561h-186l211 999h184l-24 -116q151 141 323 141q183 0 271 -126.5t40 -352.5l-141 -666q-31 -147 -109.5 -205.5t-213.5 -58.5h-78z" />
    <glyph glyph-name="Omacron" unicode="&#x14c;" horiz-adv-x="1642" 
d="M770 -25q-183 0 -330.5 84t-229 230t-81.5 325q0 162 64 315.5t174 270t268 187.5t334 71q183 0 330 -83.5t229 -229t82 -324.5q0 -129 -40.5 -255t-116.5 -231.5t-178 -186.5t-233 -127t-272 -46zM332 631q0 -204 129 -336.5t330 -132.5q163 0 305 89t225.5 237.5
t83.5 316.5q0 202 -128 334.5t-329 132.5q-164 0 -306.5 -88t-226 -236t-83.5 -317zM657 1548l31 144h666l-29 -144h-668z" />
    <glyph glyph-name="omacron" unicode="&#x14d;" horiz-adv-x="1200" 
d="M535 -25q-199 0 -330 131.5t-131 327.5q0 153 77.5 288t215.5 218.5t301 83.5q198 0 329 -132.5t131 -328.5q0 -152 -77.5 -287t-215 -218t-300.5 -83zM258 446q0 -129 82.5 -212.5t212.5 -83.5q158 0 274.5 119t116.5 282q0 129 -83 214t-212 85q-160 0 -275.5 -121
t-115.5 -283zM414 1135l32 149h648l-33 -149h-647z" />
    <glyph glyph-name="Obreve" unicode="&#x14e;" horiz-adv-x="1642" 
d="M770 -25q-183 0 -330.5 84t-229 230t-81.5 325q0 162 64 315.5t174 270t268 187.5t334 71q183 0 330 -83.5t229 -229t82 -324.5q0 -129 -40.5 -255t-116.5 -231.5t-178 -186.5t-233 -127t-272 -46zM332 631q0 -204 129 -336.5t330 -132.5q163 0 305 89t225.5 237.5
t83.5 316.5q0 202 -128 334.5t-329 132.5q-164 0 -306.5 -88t-226 -236t-83.5 -317zM731 1780h156q-12 -72 22.5 -115t102.5 -43q70 0 119.5 42.5t62.5 115.5h154q-23 -129 -114.5 -204t-225.5 -75q-140 0 -217.5 76t-59.5 203z" />
    <glyph glyph-name="obreve" unicode="&#x14f;" horiz-adv-x="1200" 
d="M535 -25q-199 0 -330 131.5t-131 327.5q0 153 77.5 288t215.5 218.5t301 83.5q198 0 329 -132.5t131 -328.5q0 -152 -77.5 -287t-215 -218t-300.5 -83zM258 446q0 -129 82.5 -212.5t212.5 -83.5q158 0 274.5 119t116.5 282q0 129 -83 214t-212 85q-160 0 -275.5 -121
t-115.5 -283zM492 1395h145q-17 -83 15.5 -130.5t101.5 -47.5t123 49.5t71 128.5h146q-29 -143 -121.5 -224t-222.5 -81q-136 0 -211.5 85.5t-46.5 219.5z" />
    <glyph glyph-name="Ohungarumlaut" unicode="&#x150;" horiz-adv-x="1642" 
d="M770 -25q-183 0 -330.5 84t-229 230t-81.5 325q0 162 64 315.5t174 270t268 187.5t334 71q183 0 330 -83.5t229 -229t82 -324.5q0 -129 -40.5 -255t-116.5 -231.5t-178 -186.5t-233 -127t-272 -46zM332 631q0 -204 129 -336.5t330 -132.5q163 0 305 89t225.5 237.5
t83.5 316.5q0 202 -128 334.5t-329 132.5q-164 0 -306.5 -88t-226 -236t-83.5 -317zM709 1516l239 264h199l-250 -264h-188zM1110 1516l238 264h213l-275 -264h-176z" />
    <glyph glyph-name="ohungarumlaut" unicode="&#x151;" horiz-adv-x="1200" 
d="M535 -25q-199 0 -330 131.5t-131 327.5q0 153 77.5 288t215.5 218.5t301 83.5q198 0 329 -132.5t131 -328.5q0 -152 -77.5 -287t-215 -218t-300.5 -83zM258 446q0 -129 82.5 -212.5t212.5 -83.5q158 0 274.5 119t116.5 282q0 129 -83 214t-212 85q-160 0 -275.5 -121
t-115.5 -283zM457 1104h168l213 297h-181zM823 1104h166l234 297h-193z" />
    <glyph glyph-name="OE" unicode="&#x152;" horiz-adv-x="1669" 
d="M709 0q-174 0 -308 75.5t-206 207.5t-72 299q0 166 64.5 320.5t177 272t277.5 188.5t353 71h783l-39 -187h-512l-86 -399h446l-39 -180h-444l-103 -482h512l-38 -186h-766zM326 592q0 -182 106.5 -296t284.5 -114h86l225 1069h-84q-126 0 -242 -56t-197.5 -148
t-130 -211.5t-48.5 -243.5z" />
    <glyph glyph-name="oe" unicode="&#x153;" horiz-adv-x="2000" 
d="M535 -25q-199 0 -330 131.5t-131 327.5q0 113 46 220t124 188.5t189.5 131.5t234.5 50q132 0 235 -63.5t158 -172.5q79 109 197 172.5t260 63.5q188 0 307 -113t119 -293q0 -79 -25 -159h-815q-2 -12 -2 -35q0 -135 79 -210t214 -75q93 0 177 46.5t114 123.5h194
q-55 -152 -188.5 -243t-313.5 -91q-136 0 -237.5 61t-153.5 167q-80 -106 -196 -167t-256 -61zM258 446q0 -129 82 -212.5t211 -83.5q158 0 276.5 119t118.5 282q0 130 -83.5 214.5t-213.5 84.5q-158 0 -274.5 -120t-116.5 -284zM1143 614h618q17 106 -62 176t-202 70
t-215 -68.5t-139 -177.5z" />
    <glyph glyph-name="Racute" unicode="&#x154;" horiz-adv-x="1132" 
d="M55 0l303 1434h369q181 0 289 -90.5t108 -241.5q0 -141 -68.5 -243t-193.5 -154q81 -51 108.5 -136.5t4.5 -193.5l-78 -375h-197l78 373q13 47 7.5 89.5t-24 75t-64 51.5t-113.5 19h-203l-129 -608h-197zM418 784h192q145 0 228.5 81t83.5 200q0 85 -58.5 134.5
t-158.5 49.5h-189zM666 1516l245 260h222l-287 -260h-180z" />
    <glyph glyph-name="racute" unicode="&#x155;" horiz-adv-x="714" 
d="M436 999l-28 -129q120 129 274 129h111l-35 -163h-115q-112 0 -191.5 -69t-105.5 -189l-123 -578h-188l213 999h188zM438 1104l256 297h215l-291 -297h-180z" />
    <glyph glyph-name="uni0156" unicode="&#x156;" horiz-adv-x="1132" 
d="M55 0l303 1434h369q181 0 289 -90.5t108 -241.5q0 -141 -68.5 -243t-193.5 -154q81 -51 108.5 -136.5t4.5 -193.5l-78 -375h-197l78 373q13 47 7.5 89.5t-24 75t-64 51.5t-113.5 19h-203l-129 -608h-197zM143 -356l228 278h200l-254 -278h-174zM418 784h192
q145 0 228.5 81t83.5 200q0 85 -58.5 134.5t-158.5 49.5h-189z" />
    <glyph glyph-name="uni0157" unicode="&#x157;" horiz-adv-x="714" 
d="M436 999l-28 -129q120 129 274 129h111l-35 -163h-115q-112 0 -191.5 -69t-105.5 -189l-123 -578h-188l213 999h188zM-252 -356l227 278h201l-254 -278h-174z" />
    <glyph glyph-name="Rcaron" unicode="&#x158;" horiz-adv-x="1132" 
d="M55 0l303 1434h369q181 0 289 -90.5t108 -241.5q0 -141 -68.5 -243t-193.5 -154q81 -51 108.5 -136.5t4.5 -193.5l-78 -375h-197l78 373q13 47 7.5 89.5t-24 75t-64 51.5t-113.5 19h-203l-129 -608h-197zM418 784h192q145 0 228.5 81t83.5 200q0 85 -58.5 134.5
t-158.5 49.5h-189zM459 1790h190l131 -166l203 166h197l-318 -274h-203z" />
    <glyph glyph-name="rcaron" unicode="&#x159;" horiz-adv-x="714" 
d="M436 999l-28 -129q120 129 274 129h111l-35 -163h-115q-112 0 -191.5 -69t-105.5 -189l-123 -578h-188l213 999h188zM276 1401h164l111 -180l190 180h185l-287 -297h-203z" />
    <glyph glyph-name="Sacute" unicode="&#x15a;" horiz-adv-x="1069" 
d="M483 -25q-135 0 -237.5 63t-147.5 173t-16 240h197q-14 -51 -5 -102.5t32 -93t71.5 -67.5t114.5 -26q130 0 200 82t70 192q0 45 -18.5 80.5t-49.5 59t-71.5 42.5t-85.5 36.5t-89.5 37t-85 47t-71.5 63t-49.5 89t-18.5 121.5q0 191 122.5 318.5t328.5 127.5
q204 0 315 -123t70 -313h-197q20 109 -31.5 179.5t-166.5 70.5t-179.5 -74.5t-64.5 -169.5q0 -43 18.5 -76t50 -54.5t72.5 -39.5t86 -35t90.5 -36t86.5 -46.5t72.5 -63t50 -90t18.5 -122.5q0 -212 -130.5 -351t-351.5 -139zM653 1516l246 260h221l-286 -260h-181z" />
    <glyph glyph-name="sacute" unicode="&#x15b;" horiz-adv-x="937" 
d="M414 -25q-182 0 -290 92.5t-91 233.5h178q-9 -79 49 -127.5t160 -48.5q92 0 153.5 45.5t61.5 124.5q0 42 -27.5 71t-71.5 46t-97 31.5t-106 33t-97 44t-71.5 71t-27.5 108.5q0 103 55.5 178.5t142 110.5t191.5 35q171 0 272 -79t91 -220h-184q2 69 -49 111.5t-140 42.5
q-83 0 -141 -37t-58 -113q0 -33 21.5 -57t57 -37t80.5 -26.5t92 -24.5t92 -32t80.5 -48t57 -74t21.5 -108q0 -111 -56.5 -191t-146.5 -118t-202 -38zM461 1104l256 297h215l-291 -297h-180z" />
    <glyph glyph-name="Scircumflex" unicode="&#x15c;" horiz-adv-x="1069" 
d="M483 -25q-135 0 -237.5 63t-147.5 173t-16 240h197q-14 -51 -5 -102.5t32 -93t71.5 -67.5t114.5 -26q130 0 200 82t70 192q0 45 -18.5 80.5t-49.5 59t-71.5 42.5t-85.5 36.5t-89.5 37t-85 47t-71.5 63t-49.5 89t-18.5 121.5q0 191 122.5 318.5t328.5 127.5
q204 0 315 -123t70 -313h-197q20 109 -31.5 179.5t-166.5 70.5t-179.5 -74.5t-64.5 -169.5q0 -43 18.5 -76t50 -54.5t72.5 -39.5t86 -35t90.5 -36t86.5 -46.5t72.5 -63t50 -90t18.5 -122.5q0 -212 -130.5 -351t-351.5 -139zM387 1516l315 266h201l207 -266h-190l-132 161
l-200 -161h-201z" />
    <glyph glyph-name="scircumflex" unicode="&#x15d;" horiz-adv-x="937" 
d="M414 -25q-182 0 -290 92.5t-91 233.5h178q-9 -79 49 -127.5t160 -48.5q92 0 153.5 45.5t61.5 124.5q0 42 -27.5 71t-71.5 46t-97 31.5t-106 33t-97 44t-71.5 71t-27.5 108.5q0 103 55.5 178.5t142 110.5t191.5 35q171 0 272 -79t91 -220h-184q2 69 -49 111.5t-140 42.5
q-83 0 -141 -37t-58 -113q0 -33 21.5 -57t57 -37t80.5 -26.5t92 -24.5t92 -32t80.5 -48t57 -74t21.5 -108q0 -111 -56.5 -191t-146.5 -118t-202 -38zM236 1104l286 297h203l158 -297h-162l-113 180l-190 -180h-182z" />
    <glyph glyph-name="Scedilla" unicode="&#x15e;" horiz-adv-x="1069" 
d="M82 451h197q-14 -51 -5 -102.5t32 -93t71.5 -67.5t114.5 -26q130 0 200 82t70 192q0 45 -18.5 80.5t-49.5 59t-71.5 42.5t-85.5 36.5t-89.5 37t-85 47t-71.5 63t-49.5 89t-18.5 121.5q0 191 122.5 318.5t328.5 127.5q204 0 315 -123t70 -313h-197q20 109 -31.5 179.5
t-166.5 70.5t-179.5 -74.5t-64.5 -169.5q0 -43 18.5 -76t50 -54.5t72.5 -39.5t86 -35t90.5 -36t86.5 -46.5t72.5 -63t50 -90t18.5 -122.5q0 -198 -115 -334t-313 -154l-72 -116h24q65 0 104.5 -41.5t39.5 -108.5q0 -91 -62.5 -154t-160.5 -63h-150l21 98h127q46 0 80 30.5
t34 74.5q0 32 -21.5 51t-58.5 19h-114l18 81l78 132q-120 13 -207.5 77.5t-124.5 168.5t-10 225z" />
    <glyph glyph-name="scedilla" unicode="&#x15f;" horiz-adv-x="937" 
d="M33 301h178q-9 -79 49 -127.5t160 -48.5q92 0 153.5 45.5t61.5 124.5q0 42 -27.5 71t-71.5 46t-97 31.5t-106 33t-97 44t-71.5 71t-27.5 108.5q0 103 55.5 178.5t142 110.5t191.5 35q171 0 272 -79t91 -220h-184q2 69 -49 111.5t-140 42.5q-83 0 -141 -37t-58 -113
q0 -33 21.5 -57t57 -37t80.5 -26.5t92 -24.5t92 -32t80.5 -48t57 -74t21.5 -108q0 -152 -99.5 -242t-254.5 -103l-72 -116h25q64 0 103.5 -41t39.5 -109q0 -91 -62.5 -154t-160.5 -63h-150l21 98h127q46 0 80.5 30.5t34.5 74.5q0 32 -21.5 51t-58.5 19h-115l18 81l78 129
q-156 17 -245 106.5t-74 217.5z" />
    <glyph glyph-name="Scaron" unicode="&#x160;" horiz-adv-x="1069" 
d="M483 -25q-135 0 -237.5 63t-147.5 173t-16 240h197q-14 -51 -5 -102.5t32 -93t71.5 -67.5t114.5 -26q130 0 200 82t70 192q0 45 -18.5 80.5t-49.5 59t-71.5 42.5t-85.5 36.5t-89.5 37t-85 47t-71.5 63t-49.5 89t-18.5 121.5q0 191 122.5 318.5t328.5 127.5
q204 0 315 -123t70 -313h-197q20 109 -31.5 179.5t-166.5 70.5t-179.5 -74.5t-64.5 -169.5q0 -43 18.5 -76t50 -54.5t72.5 -39.5t86 -35t90.5 -36t86.5 -46.5t72.5 -63t50 -90t18.5 -122.5q0 -212 -130.5 -351t-351.5 -139zM446 1790h191l131 -166l203 166h196l-317 -274
h-203z" />
    <glyph glyph-name="scaron" unicode="&#x161;" horiz-adv-x="937" 
d="M414 -25q-182 0 -290 92.5t-91 233.5h178q-9 -79 49 -127.5t160 -48.5q92 0 153.5 45.5t61.5 124.5q0 42 -27.5 71t-71.5 46t-97 31.5t-106 33t-97 44t-71.5 71t-27.5 108.5q0 103 55.5 178.5t142 110.5t191.5 35q171 0 272 -79t91 -220h-184q2 69 -49 111.5t-140 42.5
q-83 0 -141 -37t-58 -113q0 -33 21.5 -57t57 -37t80.5 -26.5t92 -24.5t92 -32t80.5 -48t57 -74t21.5 -108q0 -111 -56.5 -191t-146.5 -118t-202 -38zM299 1401h164l110 -180l191 180h184l-286 -297h-203z" />
    <glyph glyph-name="uni0162" unicode="&#x162;" horiz-adv-x="966" 
d="M193 1247l38 187h899l-38 -187h-351l-266 -1247h-31l-86 -139h25q64 0 103.5 -41t39.5 -109q0 -91 -62.5 -154t-160.5 -63h-149l20 98h127q46 0 80.5 30.5t34.5 74.5q0 32 -21.5 51t-58.5 19h-115l19 81l92 152h-53l264 1247h-350z" />
    <glyph glyph-name="uni0163" unicode="&#x163;" horiz-adv-x="724" 
d="M84 836l35 163h194l56 269h188l-57 -269h282l-34 -163h-281l-109 -502q-19 -88 10.5 -129t112.5 -41h123l-35 -164h-123l-86 -139h25q64 0 103.5 -41t39.5 -109q0 -91 -62.5 -154t-160.5 -63h-149l20 98h127q46 0 80.5 30.5t34.5 74.5q0 32 -21.5 51t-58.5 19h-115l19 81
l96 160q-109 24 -153 103.5t-17 210.5l111 514h-195z" />
    <glyph glyph-name="Tcaron" unicode="&#x164;" horiz-adv-x="966" 
d="M193 1247l38 187h899l-38 -187h-351l-266 -1247h-196l264 1247h-350zM393 1790h191l131 -166l203 166h196l-317 -274h-203z" />
    <glyph glyph-name="tcaron" unicode="&#x165;" horiz-adv-x="724" 
d="M84 836l35 163h194l56 269h188l-57 -269h282l-34 -163h-281l-109 -502q-19 -88 10.5 -129t112.5 -41h123l-35 -164h-139q-157 0 -226 83.5t-36 238.5l111 514h-195zM684 1096l127 409h188l-161 -409h-154z" />
    <glyph glyph-name="Tbar" unicode="&#x166;" horiz-adv-x="991" 
d="M188 612l33 162h242l100 473h-350l39 187h899l-39 -187h-350l-100 -473h225l-35 -162h-225l-131 -612h-197l129 612h-240z" />
    <glyph glyph-name="tbar" unicode="&#x167;" horiz-adv-x="751" 
d="M113 852l30 147h195l57 269h189l-58 -269h281l-31 -147h-280l-62 -285h281l-27 -123h-280l-27 -129q-19 -88 9 -129t112 -41h123l-31 -145h-150q-155 0 -220 82.5t-31 239.5l26 122h-194l26 123h195l61 285h-194z" />
    <glyph glyph-name="Utilde" unicode="&#x168;" horiz-adv-x="1247" 
d="M543 -25q-146 0 -247.5 65.5t-140 186t-5.5 275.5l198 932h199l-207 -967q-28 -132 35 -218.5t186 -86.5q129 0 217 85.5t119 231.5l203 955h198l-206 -969q-48 -228 -192 -359t-357 -131zM467 1518q28 130 95 195t157 65q44 0 91 -20t78.5 -44.5t66 -44.5t57.5 -20
q38 0 64.5 27.5t43.5 90.5h140q-27 -129 -94.5 -193.5t-161.5 -64.5q-44 0 -89 20t-75.5 43.5t-65 43.5t-59.5 20q-37 0 -65.5 -29.5t-41.5 -88.5h-141z" />
    <glyph glyph-name="utilde" unicode="&#x169;" horiz-adv-x="1159" 
d="M1124 999l-211 -999h-184l25 117q-152 -142 -324 -142q-183 0 -271 127t-40 353l114 544h189l-121 -571q-27 -125 24 -201.5t169 -76.5q117 0 206.5 78t118.5 210l119 561h186zM354 1120q24 147 89 218t155 71q38 0 71 -16t57 -39t46 -46t47.5 -39t52.5 -16q77 0 111 148
h131q-25 -143 -93 -216t-153 -73q-50 0 -91 24t-64.5 53t-53.5 53t-59 24q-88 0 -117 -146h-129z" />
    <glyph glyph-name="Umacron" unicode="&#x16a;" horiz-adv-x="1247" 
d="M543 -25q-146 0 -247.5 65.5t-140 186t-5.5 275.5l198 932h199l-207 -967q-28 -132 35 -218.5t186 -86.5q129 0 217 85.5t119 231.5l203 955h198l-206 -969q-48 -228 -192 -359t-357 -131zM510 1548l31 144h665l-28 -144h-668z" />
    <glyph glyph-name="umacron" unicode="&#x16b;" horiz-adv-x="1159" 
d="M1124 999l-211 -999h-184l25 117q-152 -142 -324 -142q-183 0 -271 127t-40 353l114 544h189l-121 -571q-27 -125 24 -201.5t169 -76.5q117 0 206.5 78t118.5 210l119 561h186zM383 1135l33 149h647l-33 -149h-647z" />
    <glyph glyph-name="Ubreve" unicode="&#x16c;" horiz-adv-x="1247" 
d="M543 -25q-146 0 -247.5 65.5t-140 186t-5.5 275.5l198 932h199l-207 -967q-28 -132 35 -218.5t186 -86.5q129 0 217 85.5t119 231.5l203 955h198l-206 -969q-48 -228 -192 -359t-357 -131zM582 1780h155q-12 -72 22.5 -115t102.5 -43q70 0 119.5 42.5t62.5 115.5h154
q-23 -129 -114.5 -204t-225.5 -75q-140 0 -217 76t-59 203z" />
    <glyph glyph-name="ubreve" unicode="&#x16d;" horiz-adv-x="1159" 
d="M1124 999l-211 -999h-184l25 117q-152 -142 -324 -142q-183 0 -271 127t-40 353l114 544h189l-121 -571q-27 -125 24 -201.5t169 -76.5q117 0 206.5 78t118.5 210l119 561h186zM463 1395h145q-17 -83 15.5 -130.5t101.5 -47.5t123.5 49.5t71.5 128.5h145
q-29 -143 -121.5 -224t-222.5 -81q-136 0 -211.5 85.5t-46.5 219.5z" />
    <glyph glyph-name="Uring" unicode="&#x16e;" horiz-adv-x="1247" 
d="M543 -25q-146 0 -247.5 65.5t-140 186t-5.5 275.5l198 932h199l-207 -967q-28 -132 35 -218.5t186 -86.5q129 0 217 85.5t119 231.5l203 955h198l-206 -969q-48 -228 -192 -359t-357 -131zM596 1731q9 100 91 167.5t194 67.5q117 0 189 -67.5t63 -167.5t-90.5 -168
t-194.5 -68q-116 0 -189 68.5t-63 167.5zM723 1731q-6 -55 30.5 -92t98.5 -37q60 0 104 37t50 92q6 54 -31.5 90.5t-97.5 36.5q-61 0 -105 -36.5t-49 -90.5z" />
    <glyph glyph-name="uring" unicode="&#x16f;" horiz-adv-x="1159" 
d="M1124 999l-211 -999h-184l25 117q-152 -142 -324 -142q-183 0 -271 127t-40 353l114 544h189l-121 -571q-27 -125 24 -201.5t169 -76.5q117 0 206.5 78t118.5 210l119 561h186zM438 1307q0 107 84.5 181.5t204.5 74.5q109 0 180.5 -60.5t71.5 -154.5q0 -107 -83.5 -181.5
t-203.5 -74.5q-109 0 -181.5 61.5t-72.5 153.5zM567 1315q0 -51 35.5 -84t93.5 -33q64 0 110 42t46 101q0 49 -37 81t-94 32q-65 0 -109.5 -39.5t-44.5 -99.5z" />
    <glyph glyph-name="Uhungarumlaut" unicode="&#x170;" horiz-adv-x="1247" 
d="M543 -25q-146 0 -247.5 65.5t-140 186t-5.5 275.5l198 932h199l-207 -967q-28 -132 35 -218.5t186 -86.5q129 0 217 85.5t119 231.5l203 955h198l-206 -969q-48 -228 -192 -359t-357 -131zM561 1516l240 264h198l-249 -264h-189zM963 1516l237 264h213l-274 -264h-176z
" />
    <glyph glyph-name="uhungarumlaut" unicode="&#x171;" horiz-adv-x="1159" 
d="M1124 999l-211 -999h-184l25 117q-152 -142 -324 -142q-183 0 -271 127t-40 353l114 544h189l-121 -571q-27 -125 24 -201.5t169 -76.5q117 0 206.5 78t118.5 210l119 561h186zM428 1104h168l213 297h-180zM795 1104h166l233 297h-193z" />
    <glyph glyph-name="Uogonek" unicode="&#x172;" horiz-adv-x="1247" 
d="M567 -412q-87 0 -134.5 43t-47.5 117q0 124 123 229q-206 11 -306.5 155.5t-51.5 369.5l198 932h199l-207 -967q-28 -132 35 -218.5t186 -86.5q129 0 217 85.5t119 231.5l203 955h198l-206 -969q-38 -185 -141.5 -307.5t-258.5 -163.5q-75 -52 -114 -97t-39 -98
q0 -67 92 -67h45l-58 -144h-51z" />
    <glyph glyph-name="uogonek" unicode="&#x173;" horiz-adv-x="1159" 
d="M1124 999l-211 -999q-79 -54 -120 -100.5t-41 -100.5q0 -67 92 -67h45l-58 -144h-51q-88 0 -135 43t-47 117q0 77 39 136.5t113 115.5h-21l25 117q-152 -142 -324 -142q-183 0 -271 127t-40 353l114 544h189l-121 -571q-27 -125 24 -201.5t169 -76.5q117 0 206.5 78
t118.5 210l119 561h186z" />
    <glyph glyph-name="Wcircumflex" unicode="&#x174;" horiz-adv-x="1837" 
d="M303 0l-65 1434h204l43 -801q3 -83 3.5 -164t-0.5 -121l-1 -39q54 127 136 293l405 832h168l57 -801l19 -324q47 129 121 301l391 824h207l-666 -1434h-199l-82 1077l-534 -1077h-207zM768 1516l315 266h201l207 -266h-191l-131 161l-200 -161h-201z" />
    <glyph glyph-name="wcircumflex" unicode="&#x175;" horiz-adv-x="1556" 
d="M252 0l-119 999h189l84 -723l395 723h160l90 -714l379 714h204l-544 -999h-170l-99 713l-403 -713h-166zM582 1104l286 297h203l158 -297h-162l-113 180l-190 -180h-182z" />
    <glyph glyph-name="Ycircumflex" unicode="&#x176;" horiz-adv-x="1097" 
d="M227 1434h213l168 -621l436 621h220l-594 -840l-127 -594h-199l127 594zM401 1516l316 266h201l206 -266h-190l-131 161l-201 -161h-201z" />
    <glyph glyph-name="ycircumflex" unicode="&#x177;" horiz-adv-x="1042" 
d="M127 999h190l144 -751l452 751h215l-864 -1384h-211l275 426zM328 1104l286 297h203l158 -297h-162l-113 180l-190 -180h-182z" />
    <glyph glyph-name="Ydieresis" unicode="&#x178;" horiz-adv-x="1097" 
d="M227 1434h213l168 -621l436 621h220l-594 -840l-127 -594h-199l127 594zM451 1522l38 186h199l-39 -186h-198zM881 1522l39 186h198l-41 -186h-196z" />
    <glyph glyph-name="Zacute" unicode="&#x179;" horiz-adv-x="993" 
d="M291 1434h829l-30 -154l-857 -1094h629l-39 -186h-870l33 154l854 1093h-588zM614 1516l246 260h221l-286 -260h-181z" />
    <glyph glyph-name="zacute" unicode="&#x17a;" horiz-adv-x="978" 
d="M-51 0l33 152l755 684h-587l34 163h836l-33 -153l-760 -682h617l-33 -164h-862zM516 1104l256 297h215l-291 -297h-180z" />
    <glyph glyph-name="Zdotaccent" unicode="&#x17b;" horiz-adv-x="993" 
d="M291 1434h829l-30 -154l-857 -1094h629l-39 -186h-870l33 154l854 1093h-588zM600 1522l39 186h221l-39 -186h-221z" />
    <glyph glyph-name="zdotaccent" unicode="&#x17c;" horiz-adv-x="978" 
d="M-51 0l33 152l755 684h-587l34 163h836l-33 -153l-760 -682h617l-33 -164h-862zM532 1198l50 236h204l-49 -236h-205z" />
    <glyph glyph-name="Zcaron" unicode="&#x17d;" horiz-adv-x="993" 
d="M291 1434h829l-30 -154l-857 -1094h629l-39 -186h-870l33 154l854 1093h-588zM408 1790h190l131 -166l203 166h196l-317 -274h-203z" />
    <glyph glyph-name="zcaron" unicode="&#x17e;" horiz-adv-x="978" 
d="M-51 0l33 152l755 684h-587l34 163h836l-33 -153l-760 -682h617l-33 -164h-862zM354 1401h164l111 -180l190 180h185l-287 -297h-203z" />
    <glyph glyph-name="longs" unicode="&#x17f;" horiz-adv-x="550" 
d="M98 825l37 174h195l26 121q32 159 126.5 236.5t256.5 77.5h80l-35 -174h-49q-82 0 -129.5 -41t-66.5 -127l-234 -1092h-188l176 825h-195z" />
    <glyph glyph-name="uni018F" unicode="&#x18f;" horiz-adv-x="1583" 
d="M928 1458q132 0 248 -47t197.5 -127.5t128 -191t46.5 -234.5q0 -187 -60 -350t-166.5 -280.5t-261 -185t-335.5 -67.5q-134 0 -249.5 44t-195 120t-124.5 181t-45 225q0 109 26 207h1198q4 58 4 88q0 186 -122.5 309t-313.5 123q-163 0 -294 -80.5t-191 -210.5h-225
q91 219 280.5 348t454.5 129zM322 602q-23 -186 97.5 -313t328.5 -127q207 0 352 122.5t205 317.5h-983z" />
    <glyph glyph-name="florin" unicode="&#x192;" horiz-adv-x="817" 
d="M-98 -385l32 156h48q163 0 196 161l195 904h-201l35 163h199l24 105q55 330 389 330h127l-33 -156h-98q-160 0 -194 -162l-27 -117h260l-35 -163h-258l-192 -904q-34 -155 -127 -236t-238 -81h-102z" />
    <glyph glyph-name="uni019D" unicode="&#x19d;" horiz-adv-x="1247" 
d="M793 686q23 -79 43 -162t29 -126l9 -44q21 154 58 336l158 744h194l-303 -1434h-178l-248 778q-23 79 -43.5 161.5t-29.5 125.5l-9 43q-18 -152 -57 -336l-170 -795q-36 -176 -145 -269t-273 -93h-129l39 186h76q101 0 162 55t87 177l297 1401h193z" />
    <glyph glyph-name="Gcaron" unicode="&#x1e6;" horiz-adv-x="1574" 
d="M766 -25q-141 0 -260.5 46.5t-202.5 128.5t-129.5 197t-46.5 249q0 132 40 259.5t116 235.5t178.5 190.5t235.5 129.5t278 47q130 0 238.5 -36t182 -98t117 -143t52.5 -173h-222q-21 121 -129.5 194.5t-255.5 73.5q-137 0 -257.5 -59t-200.5 -154t-126 -215.5t-46 -243.5
q0 -200 123.5 -323t328.5 -123q195 0 341 122.5t194 321.5l-475 -8l39 180h659q-4 -69 -18 -139q-62 -298 -266 -479t-488 -181zM686 1790h191l131 -166l202 166h197l-317 -274h-203z" />
    <glyph glyph-name="gcaron" unicode="&#x1e7;" horiz-adv-x="1257" 
d="M348 -385q-184 0 -281.5 88t-64.5 246l6 33h189l-7 -33q-21 -93 30 -132.5t161 -39.5h184q114 0 174.5 55t87.5 178l29 140q-139 -123 -328 -123q-198 0 -321 119.5t-123 316.5q0 119 45.5 224t121.5 178.5t178 116t212 42.5q124 0 219.5 -53.5t147.5 -147.5l36 176h181
l-207 -983q-43 -202 -143 -301.5t-285 -99.5h-242zM274 477q0 -127 81.5 -208t211.5 -81q162 0 271.5 112.5t109.5 272.5q0 126 -82.5 206.5t-214.5 80.5q-158 0 -267.5 -114.5t-109.5 -268.5zM453 1401h163l111 -180l191 180h184l-287 -297h-203z" />
    <glyph glyph-name="uni01EA" unicode="&#x1ea;" horiz-adv-x="1642" 
d="M791 162q163 0 305 89t225.5 237.5t83.5 316.5q0 202 -128 334.5t-329 132.5q-164 0 -306.5 -88t-226 -236t-83.5 -317q0 -204 129 -336.5t330 -132.5zM129 614q0 162 64 315.5t174 270t268 187.5t334 71q183 0 330 -83.5t229 -229t82 -324.5q0 -191 -84.5 -366
t-239.5 -299t-348 -164q-73 -49 -112.5 -95t-39.5 -98q0 -34 25.5 -50.5t67.5 -16.5h45l-58 -144h-51q-87 0 -134.5 43t-47.5 117q0 127 121 227q-179 4 -322.5 89t-223 229.5t-79.5 320.5z" />
    <glyph glyph-name="uni01EB" unicode="&#x1eb;" horiz-adv-x="1200" 
d="M553 150q158 0 274.5 119t116.5 282q0 129 -83 214t-212 85q-160 0 -275.5 -121t-115.5 -283q0 -129 82.5 -212.5t212.5 -83.5zM74 434q0 153 77.5 288t215.5 218.5t301 83.5q198 0 329 -132.5t131 -328.5q0 -200 -132 -363.5t-332 -209.5q-72 -50 -110 -94.5t-38 -96.5
q0 -67 92 -67h45l-57 -144h-51q-88 0 -135.5 43.5t-47.5 116.5q0 128 123 229q-180 17 -295.5 145.5t-115.5 311.5z" />
    <glyph glyph-name="Aringacute" unicode="&#x1fa;" horiz-adv-x="1202" 
d="M-82 0l791 1434h188l180 -1434h-203l-36 322h-529l-172 -322h-219zM387 508h440l-79 666zM578 1731q9 100 90.5 167.5t193.5 67.5q23 0 35 -2l186 199h222l-273 -248q91 -69 82 -184q-9 -100 -90.5 -168t-194.5 -68q-116 0 -188.5 68t-62.5 168zM705 1731
q-6 -55 30.5 -92t98.5 -37q60 0 103.5 36.5t49.5 92.5q6 54 -31.5 90.5t-97.5 36.5q-61 0 -104.5 -36.5t-48.5 -90.5z" />
    <glyph glyph-name="aringacute" unicode="&#x1fb;" horiz-adv-x="1083" 
d="M375 -25q-146 0 -238 74t-92 191t71.5 201.5t183 123.5t247.5 39h241l7 31q19 108 -31.5 170.5t-167.5 62.5q-97 0 -175 -54.5t-93 -141.5h-189q30 155 162 253.5t303 98.5q210 0 312.5 -112t62.5 -294l-131 -618h-184l24 117q-62 -65 -144.5 -103.5t-168.5 -38.5z
M229 252q0 -61 45 -96t129 -35q120 0 223.5 91t129.5 220l4 23h-228q-137 0 -220 -50t-83 -153zM406 1307q0 98 71.5 170t177.5 84l217 251h215l-270 -274q61 -26 95 -76t34 -114q0 -107 -83.5 -181.5t-203.5 -74.5q-109 0 -181 61.5t-72 153.5zM535 1315q0 -51 35.5 -84
t93.5 -33q63 0 109 41.5t46 101.5q0 49 -37 81t-94 32q-65 0 -109 -39.5t-44 -99.5z" />
    <glyph glyph-name="AEacute" unicode="&#x1fc;" horiz-adv-x="1597" 
d="M-125 0l985 1434h846l-39 -187h-508l-86 -399h443l-37 -180h-443l-100 -482h508l-39 -186h-705l72 344h-420l-235 -344h-242zM467 526h344l156 744zM1208 1516l246 260h221l-286 -260h-181z" />
    <glyph glyph-name="aeacute" unicode="&#x1fd;" horiz-adv-x="1837" 
d="M1212 -25q-141 0 -242.5 64t-154.5 174q-81 -118 -194 -178t-240 -60q-147 0 -239.5 74t-92.5 191q0 114 69 198t180.5 125t248.5 41h246l4 19q22 106 -24 175.5t-171 69.5q-99 0 -176 -54.5t-92 -141.5h-191q35 159 167 255.5t302 96.5q125 0 210.5 -47.5t123.5 -132.5
q79 86 187 133t225 47q185 0 304.5 -112.5t119.5 -290.5q0 -92 -25 -162h-813q-2 -10 -2 -33q0 -127 73.5 -207t217.5 -80q90 0 173.5 44t119.5 126h192q-59 -160 -195 -247t-311 -87zM236 252q0 -62 46.5 -96.5t127.5 -34.5q119 0 222 90.5t128 214.5l6 29h-234
q-81 0 -145 -18.5t-107.5 -66t-43.5 -118.5zM954 1104l256 297h215l-290 -297h-181zM981 614h618q15 103 -60 174.5t-200 71.5t-218 -68.5t-140 -177.5z" />
    <glyph glyph-name="Oslashacute" unicode="&#x1fe;" horiz-adv-x="1644" 
d="M252 -92l-135 117l155 178q-143 173 -143 413q0 160 64 312.5t173.5 269.5t268.5 188.5t336 71.5q194 0 344 -92l125 137l137 -117l-123 -137q156 -177 156 -426q0 -163 -64 -317t-174 -271.5t-268 -188.5t-334 -71q-204 0 -364 107zM334 633q0 -154 78 -275l768 856
q-103 58 -230 58q-124 0 -238.5 -53t-197 -140t-131.5 -204.5t-49 -241.5zM541 231q107 -69 250 -69q125 0 240 54.5t197 143t130.5 206t48.5 239.5q0 168 -90 291zM940 1516l246 260h221l-287 -260h-180z" />
    <glyph glyph-name="oslashacute" unicode="&#x1ff;" horiz-adv-x="1200" 
d="M102 -78l-96 105l148 141q-80 116 -80 266q0 113 46 220t124 188.5t189.5 131.5t234.5 50q160 0 280 -90l148 141l98 -104l-145 -140q81 -118 81 -268q0 -113 -46.5 -220.5t-124.5 -188.5t-189.5 -130t-234.5 -49q-162 0 -283 91zM250 444q0 -84 35 -149l534 516
q-74 49 -170 49q-161 0 -280 -123.5t-119 -292.5zM381 188q71 -47 170 -47q161 0 281 122t120 288q0 89 -37 156zM633 1104l256 297h215l-291 -297h-180z" />
    <glyph glyph-name="uni0218" unicode="&#x218;" horiz-adv-x="1069" 
d="M483 -25q-135 0 -237.5 63t-147.5 173t-16 240h197q-14 -51 -5 -102.5t32 -93t71.5 -67.5t114.5 -26q130 0 200 82t70 192q0 45 -18.5 80.5t-49.5 59t-71.5 42.5t-85.5 36.5t-89.5 37t-85 47t-71.5 63t-49.5 89t-18.5 121.5q0 191 122.5 318.5t328.5 127.5
q204 0 315 -123t70 -313h-197q20 109 -31.5 179.5t-166.5 70.5t-179.5 -74.5t-64.5 -169.5q0 -43 18.5 -76t50 -54.5t72.5 -39.5t86 -35t90.5 -36t86.5 -46.5t72.5 -63t50 -90t18.5 -122.5q0 -212 -130.5 -351t-351.5 -139zM141 -356l228 278h200l-254 -278h-174z" />
    <glyph glyph-name="uni0219" unicode="&#x219;" horiz-adv-x="937" 
d="M414 -25q-182 0 -290 92.5t-91 233.5h178q-9 -79 49 -127.5t160 -48.5q92 0 153.5 45.5t61.5 124.5q0 42 -27.5 71t-71.5 46t-97 31.5t-106 33t-97 44t-71.5 71t-27.5 108.5q0 103 55.5 178.5t142 110.5t191.5 35q171 0 272 -79t91 -220h-184q2 69 -49 111.5t-140 42.5
q-83 0 -141 -37t-58 -113q0 -33 21.5 -57t57 -37t80.5 -26.5t92 -24.5t92 -32t80.5 -48t57 -74t21.5 -108q0 -111 -56.5 -191t-146.5 -118t-202 -38zM70 -356l227 278h201l-254 -278h-174z" />
    <glyph glyph-name="uni021A" unicode="&#x21a;" horiz-adv-x="966" 
d="M193 1247l38 187h899l-38 -187h-351l-266 -1247h-196l264 1247h-350zM25 -356l227 278h201l-254 -278h-174z" />
    <glyph glyph-name="uni021B" unicode="&#x21b;" horiz-adv-x="724" 
d="M84 836l35 163h194l56 269h188l-57 -269h282l-34 -163h-281l-109 -502q-19 -88 10.5 -129t112.5 -41h123l-35 -164h-139q-157 0 -226 83.5t-36 238.5l111 514h-195zM37 -356l227 278h201l-254 -278h-174z" />
    <glyph glyph-name="uni0232" unicode="&#x232;" horiz-adv-x="1097" 
d="M227 1434h213l168 -621l436 621h220l-594 -840l-127 -594h-199l127 594zM436 1548l31 144h666l-29 -144h-668z" />
    <glyph glyph-name="uni0233" unicode="&#x233;" horiz-adv-x="1042" 
d="M127 999h190l144 -751l452 751h215l-864 -1384h-211l275 426zM334 1135l33 149h647l-33 -149h-647z" />
    <glyph glyph-name="uni0237" unicode="&#x237;" horiz-adv-x="471" 
d="M-115 -217q50 0 83.5 30t45.5 87l234 1099h188l-237 -1126q-32 -148 -110 -203t-218 -55h-96l35 168h75z" />
    <glyph glyph-name="uni0259" unicode="&#x259;" horiz-adv-x="1144" 
d="M623 1024q203 0 328.5 -127t125.5 -322q0 -118 -46 -227.5t-124 -191.5t-189 -131.5t-235 -49.5q-108 0 -195.5 39t-141.5 106t-76 159t-4 194q10 50 18 68h813q2 12 2 34q0 135 -79 210t-214 75q-93 0 -177 -46.5t-114 -123.5h-194q55 152 188.5 243t313.5 91zM240 385
q-17 -106 62 -176t202 -70t215 68.5t139 177.5h-618z" />
    <glyph glyph-name="uni0272" unicode="&#x272;" horiz-adv-x="1159" 
d="M-225 -385l35 168h75q46 0 81.5 31t47.5 84l234 1101h184l-24 -125q150 150 323 150q183 0 271 -128t40 -351l-114 -545h-189l121 571q27 124 -22.5 201.5t-169.5 77.5q-117 0 -208 -79t-118 -210l-141 -674q-31 -146 -114.5 -209t-213.5 -63h-98z" />
    <glyph glyph-name="uni02B9" unicode="&#x2b9;" horiz-adv-x="323" 
d="M229 983l19 260l39 191h176l-39 -191l-94 -260h-101z" />
    <glyph glyph-name="uni02BA" unicode="&#x2ba;" horiz-adv-x="634" 
d="M541 983l18 260l39 191h176l-39 -191l-94 -260h-100zM229 983l19 260l39 191h176l-39 -191l-94 -260h-101z" />
    <glyph glyph-name="circumflex" unicode="&#x2c6;" horiz-adv-x="1058" 
d="M328 1104l286 297h203l158 -297h-162l-113 180l-190 -180h-182z" />
    <glyph glyph-name="caron" unicode="&#x2c7;" horiz-adv-x="1058" 
d="M563 1104l-160 297h164l111 -180l190 180h185l-287 -297h-203z" />
    <glyph glyph-name="breve" unicode="&#x2d8;" horiz-adv-x="1013" 
d="M997 1395q-29 -143 -121.5 -224t-222.5 -81q-136 0 -211.5 85.5t-46.5 219.5h146q-17 -83 15 -130.5t101 -47.5t123.5 49.5t71.5 128.5h145z" />
    <glyph glyph-name="dotaccent" unicode="&#x2d9;" horiz-adv-x="614" 
d="M401 1434h205l-49 -236h-205z" />
    <glyph glyph-name="ring" unicode="&#x2da;" horiz-adv-x="950" 
d="M637 1092q-109 0 -181.5 61.5t-72.5 153.5q0 107 84.5 181.5t204.5 74.5q109 0 180.5 -60.5t71.5 -154.5q0 -107 -83.5 -181.5t-203.5 -74.5zM512 1315q0 -51 35.5 -84t93.5 -33q64 0 110 42t46 101q0 49 -37 81t-94 32q-65 0 -109.5 -39.5t-44.5 -99.5z" />
    <glyph glyph-name="ogonek" unicode="&#x2db;" horiz-adv-x="806" 
d="M244 -385q-104 0 -154 54.5t-31 142.5q18 87 93.5 153t201.5 119l78 -84q-83 -24 -137 -63.5t-64 -88.5q-7 -37 22 -59t77 -22h116l-69 -152h-133z" />
    <glyph glyph-name="tilde" unicode="&#x2dc;" horiz-adv-x="1110" 
d="M852 1112q-50 0 -91 24t-64.5 53t-53.5 53t-59 24q-88 0 -117 -146h-129q24 147 89 218t155 71q38 0 71 -16t57 -39t46 -46t47.5 -39t52.5 -16q77 0 111 148h131q-25 -143 -93 -216t-153 -73z" />
    <glyph glyph-name="hungarumlaut" unicode="&#x2dd;" horiz-adv-x="1112" 
d="M500 1104l213 297h-181l-200 -297h168zM698 1104h166l234 297h-193z" />
    <glyph glyph-name="gravecomb" unicode="&#x300;" 
d="M399 1403h205l127 -299h-164z" />
    <glyph glyph-name="acutecomb" unicode="&#x301;" 
d="M807 1401l-291 -297h-180l256 297h215z" />
    <glyph glyph-name="uni0302" unicode="&#x302;" 
d="M328 1104l286 297h203l158 -297h-162l-113 180l-190 -180h-182z" />
    <glyph glyph-name="tildecomb" unicode="&#x303;" 
d="M852 1112q-50 0 -91 24t-64.5 53t-53.5 53t-59 24q-88 0 -117 -146h-129q24 147 89 218t155 71q38 0 71 -16t57 -39t46 -46t47.5 -39t52.5 -16q77 0 111 148h131q-25 -143 -93 -216t-153 -73z" />
    <glyph glyph-name="uni0304" unicode="&#x304;" 
d="M340 1135l33 149h647l-33 -149h-647z" />
    <glyph glyph-name="uni0306" unicode="&#x306;" 
d="M997 1395q-29 -143 -121.5 -224t-222.5 -81q-136 0 -211.5 85.5t-46.5 219.5h146q-17 -83 15 -130.5t101 -47.5t123.5 49.5t71.5 128.5h145z" />
    <glyph glyph-name="uni0307" unicode="&#x307;" 
d="M401 1434h205l-49 -236h-205z" />
    <glyph glyph-name="uni0308" unicode="&#x308;" 
d="M762 1331h203l-41 -188h-203zM340 1143l41 188h205l-41 -188h-205z" />
    <glyph glyph-name="uni030A" unicode="&#x30a;" 
d="M637 1092q-109 0 -181.5 61.5t-72.5 153.5q0 107 84.5 181.5t204.5 74.5q109 0 180.5 -60.5t71.5 -154.5q0 -107 -83.5 -181.5t-203.5 -74.5zM512 1315q0 -51 35.5 -84t93.5 -33q64 0 110 42t46 101q0 49 -37 81t-94 32q-65 0 -109.5 -39.5t-44.5 -99.5z" />
    <glyph glyph-name="uni030B" unicode="&#x30b;" 
d="M500 1104l213 297h-181l-200 -297h168zM698 1104h166l234 297h-193z" />
    <glyph glyph-name="uni030C" unicode="&#x30c;" 
d="M563 1104l-160 297h164l111 -180l190 180h185l-287 -297h-203z" />
    <glyph glyph-name="uni0312" unicode="&#x312;" 
d="M332 1104l264 287h180l-227 -287h-217z" />
    <glyph glyph-name="uni0326" unicode="&#x326;" 
d="M451 -78l-254 -278h-174l227 278h201z" />
    <glyph glyph-name="uni0327" unicode="&#x327;" 
d="M289 25l-6 -25l-86 -139h24q65 0 104.5 -41.5t39.5 -108.5q0 -91 -63 -154t-161 -63h-149l20 98h127q46 0 80.5 30.5t34.5 74.5q0 32 -21.5 51t-58.5 19h-115l19 81l106 177h105z" />
    <glyph glyph-name="uni0328" unicode="&#x328;" 
d="M233 -412q-88 0 -135 43t-47 117q0 55 19.5 101.5t60.5 87.5t83 71t108 70l45 -78q-80 -55 -121 -101t-41 -100q0 -67 92 -67h45l-57 -144h-52z" />
    <glyph glyph-name="uni0394" unicode="&#x394;" horiz-adv-x="1224" 
d="M-57 0l32 164l736 1270h200l197 -1270l-35 -164h-1130zM193 188h722l-151 979z" />
    <glyph glyph-name="uni03A9" unicode="&#x3a9;" horiz-adv-x="1605" 
d="M-2 0l39 188h352q-231 190 -231 467q0 151 61.5 295.5t168.5 257t264 181.5t335 69q261 0 420.5 -153t159.5 -402q0 -217 -130.5 -408.5t-336.5 -306.5h338l-39 -188h-576l39 178q108 60 195.5 131.5t157.5 158t108.5 190.5t38.5 216q0 180 -108 287t-293 107
q-127 0 -241.5 -54t-193 -142t-124.5 -201t-46 -230q0 -261 256 -463l-39 -178h-575z" />
    <glyph glyph-name="uni03BC" unicode="&#x3bc;" horiz-adv-x="1173" 
d="M-45 -385l293 1384h188l-123 -583q-25 -126 28 -197.5t169 -71.5t204 77t117 212l121 563h189l-213 -999h-185l35 166q-67 -89 -161 -140t-199 -51q-115 0 -185 58l-90 -418h-188z" />
    <glyph glyph-name="pi" unicode="&#x3c0;" horiz-adv-x="1245" 
d="M92 836l37 163h1143l-37 -163h-178l-111 -517q-17 -80 12 -118.5t111 -38.5h47l-33 -166h-55q-173 0 -238.5 79.5t-27.5 260.5l106 500h-383l-178 -836h-186l176 836h-205z" />
    <glyph glyph-name="uni0E3F" unicode="&#xe3f;" horiz-adv-x="1079" 
d="M846 1675l-53 -250q138 -22 215 -99.5t77 -197.5q0 -129 -86 -237t-215 -137q82 -16 136.5 -90t54.5 -189q0 -206 -135.5 -337.5t-350.5 -137.5l-51 -246h-182l53 246h-250l303 1434h250l54 241h180zM293 166h190q139 0 215 86.5t76 206.5q0 88 -50.5 140t-139.5 52h-189
zM430 815h152q123 0 212 79t89 196q0 84 -57 131t-162 47h-138z" />
    <glyph glyph-name="uni1E20" unicode="&#x1e20;" horiz-adv-x="1574" 
d="M766 -25q-141 0 -260.5 46.5t-202.5 128.5t-129.5 197t-46.5 249q0 132 40 259.5t116 235.5t178.5 190.5t235.5 129.5t278 47q130 0 238.5 -36t182 -98t117 -143t52.5 -173h-222q-21 121 -129.5 194.5t-255.5 73.5q-137 0 -257.5 -59t-200.5 -154t-126 -215.5t-46 -243.5
q0 -200 123.5 -323t328.5 -123q195 0 341 122.5t194 321.5l-475 -8l39 180h659q-4 -69 -18 -139q-62 -298 -266 -479t-488 -181zM664 1548l30 144h666l-29 -144h-667z" />
    <glyph glyph-name="uni1E21" unicode="&#x1e21;" horiz-adv-x="1257" 
d="M348 -385q-184 0 -281.5 88t-64.5 246l6 33h189l-7 -33q-21 -93 30 -132.5t161 -39.5h184q114 0 174.5 55t87.5 178l29 140q-139 -123 -328 -123q-198 0 -321 119.5t-123 316.5q0 119 45.5 224t121.5 178.5t178 116t212 42.5q124 0 219.5 -53.5t147.5 -147.5l36 176h181
l-207 -983q-43 -202 -143 -301.5t-285 -99.5h-242zM274 477q0 -127 81.5 -208t211.5 -81q162 0 271.5 112.5t109.5 272.5q0 126 -82.5 206.5t-214.5 80.5q-158 0 -267.5 -114.5t-109.5 -268.5zM395 1135l33 149h647l-33 -149h-647z" />
    <glyph glyph-name="Wgrave" unicode="&#x1e80;" horiz-adv-x="1837" 
d="M303 0l-65 1434h204l43 -801q3 -83 3.5 -164t-0.5 -121l-1 -39q54 127 136 293l405 832h168l57 -801l19 -324q47 129 121 301l391 824h207l-666 -1434h-199l-82 1077l-534 -1077h-207zM860 1776h215l148 -260h-174z" />
    <glyph glyph-name="wgrave" unicode="&#x1e81;" horiz-adv-x="1556" 
d="M252 0l-119 999h189l84 -723l395 723h160l90 -714l379 714h204l-544 -999h-170l-99 713l-403 -713h-166zM649 1403h205l127 -299h-164z" />
    <glyph glyph-name="Wacute" unicode="&#x1e82;" horiz-adv-x="1837" 
d="M303 0l-65 1434h204l43 -801q3 -83 3.5 -164t-0.5 -121l-1 -39q54 127 136 293l405 832h168l57 -801l19 -324q47 129 121 301l391 824h207l-666 -1434h-199l-82 1077l-534 -1077h-207zM1034 1516l246 260h221l-287 -260h-180z" />
    <glyph glyph-name="wacute" unicode="&#x1e83;" horiz-adv-x="1556" 
d="M252 0l-119 999h189l84 -723l395 723h160l90 -714l379 714h204l-544 -999h-170l-99 713l-403 -713h-166zM807 1104l256 297h215l-291 -297h-180z" />
    <glyph glyph-name="Wdieresis" unicode="&#x1e84;" horiz-adv-x="1837" 
d="M303 0l-65 1434h204l43 -801q3 -83 3.5 -164t-0.5 -121l-1 -39q54 127 136 293l405 832h168l57 -801l19 -324q47 129 121 301l391 824h207l-666 -1434h-199l-82 1077l-534 -1077h-207zM819 1522l39 186h199l-39 -186h-199zM1249 1522l39 186h199l-41 -186h-197z" />
    <glyph glyph-name="wdieresis" unicode="&#x1e85;" horiz-adv-x="1556" 
d="M252 0l-119 999h189l84 -723l395 723h160l90 -714l379 714h204l-544 -999h-170l-99 713l-403 -713h-166zM623 1143l41 188h204l-41 -188h-204zM1004 1143l40 188h203l-41 -188h-202z" />
    <glyph glyph-name="uni1E9E" unicode="&#x1e9e;" horiz-adv-x="1277" 
d="M772 1434h569l-32 -156l-422 -461q135 -20 214 -108t79 -217q0 -97 -39.5 -187t-107 -157.5t-165 -107.5t-206.5 -40h-273l39 188h250q121 0 212 88.5t91 204.5q0 83 -55.5 136t-149.5 53h-151l28 131l406 450h-316q-234 0 -290 -268l-209 -983h-199l213 999
q46 225 168.5 330t345.5 105z" />
    <glyph glyph-name="uni1EA0" unicode="&#x1ea0;" horiz-adv-x="1202" 
d="M-82 0l791 1434h188l180 -1434h-203l-36 322h-529l-172 -322h-219zM307 -424l49 236h205l-49 -236h-205zM387 508h440l-79 666z" />
    <glyph glyph-name="uni1EA1" unicode="&#x1ea1;" horiz-adv-x="1083" 
d="M375 -25q-146 0 -238 74t-92 191t71.5 201.5t183 123.5t247.5 39h241l7 31q19 108 -31.5 170.5t-167.5 62.5q-97 0 -175 -54.5t-93 -141.5h-189q30 155 162 253.5t303 98.5q210 0 312.5 -112t62.5 -294l-131 -618h-184l24 117q-62 -65 -144.5 -103.5t-168.5 -38.5z
M229 252q0 -61 45 -96t129 -35q120 0 223.5 91t129.5 220l4 23h-228q-137 0 -220 -50t-83 -153zM242 -424l49 236h205l-50 -236h-204z" />
    <glyph glyph-name="uni1EB8" unicode="&#x1eb8;" horiz-adv-x="960" 
d="M358 1434h711l-39 -187h-512l-86 -399h447l-39 -180h-445l-102 -482h512l-39 -186h-711zM186 -424l50 236h204l-49 -236h-205z" />
    <glyph glyph-name="uni1EB9" unicode="&#x1eb9;" horiz-adv-x="1144" 
d="M524 -25q-203 0 -328.5 127t-125.5 322q0 118 46 227.5t124 191.5t189 131.5t235 49.5q108 0 195.5 -39t141.5 -106t76 -159t4 -194q-10 -48 -18 -67h-813q-2 -12 -2 -35q0 -135 79 -210t214 -75q93 0 176.5 46.5t113.5 123.5h195q-55 -152 -188.5 -243t-313.5 -91z
M279 -424l49 236h204l-49 -236h-204zM289 614h618q17 106 -62 176t-202 70t-215 -68.5t-139 -177.5z" />
    <glyph glyph-name="uni1EBC" unicode="&#x1ebc;" horiz-adv-x="960" 
d="M358 1434h711l-39 -187h-512l-86 -399h447l-39 -180h-445l-102 -482h512l-39 -186h-711zM362 1518q28 130 95 195t157 65q44 0 91 -20t78.5 -44.5t66 -44.5t57.5 -20q77 0 109 118h139q-27 -129 -94.5 -193.5t-161.5 -64.5q-44 0 -89 20t-75.5 43.5t-65 43.5t-59.5 20
q-37 0 -65 -29.5t-41 -88.5h-142z" />
    <glyph glyph-name="uni1EBD" unicode="&#x1ebd;" horiz-adv-x="1144" 
d="M524 -25q-203 0 -328.5 127t-125.5 322q0 118 46 227.5t124 191.5t189 131.5t235 49.5q108 0 195.5 -39t141.5 -106t76 -159t4 -194q-10 -48 -18 -67h-813q-2 -12 -2 -35q0 -135 79 -210t214 -75q93 0 176.5 46.5t113.5 123.5h195q-55 -152 -188.5 -243t-313.5 -91z
M289 614h618q17 106 -62 176t-202 70t-215 -68.5t-139 -177.5zM336 1120q24 147 89 218t155 71q38 0 71 -16t57 -39t46 -46t47.5 -39t52.5 -16q77 0 111 148h131q-25 -143 -93 -216t-153 -73q-50 0 -91 24t-64.5 53t-53.5 53t-59 24q-88 0 -117 -146h-129z" />
    <glyph glyph-name="uni1ECA" unicode="&#x1eca;" horiz-adv-x="518" 
d="M358 1434h199l-303 -1434h-199zM-37 -424l49 236h205l-49 -236h-205z" />
    <glyph glyph-name="uni1ECB" unicode="&#x1ecb;" horiz-adv-x="471" 
d="M248 999h190l-213 -999h-190zM-59 -424l49 236h205l-50 -236h-204zM285 1198l49 236h205l-50 -236h-204z" />
    <glyph glyph-name="uni1ECC" unicode="&#x1ecc;" horiz-adv-x="1642" 
d="M770 -25q-183 0 -330.5 84t-229 230t-81.5 325q0 162 64 315.5t174 270t268 187.5t334 71q183 0 330 -83.5t229 -229t82 -324.5q0 -129 -40.5 -255t-116.5 -231.5t-178 -186.5t-233 -127t-272 -46zM332 631q0 -204 129 -336.5t330 -132.5q163 0 305 89t225.5 237.5
t83.5 316.5q0 202 -128 334.5t-329 132.5q-164 0 -306.5 -88t-226 -236t-83.5 -317zM516 -424l49 236h205l-49 -236h-205z" />
    <glyph glyph-name="uni1ECD" unicode="&#x1ecd;" horiz-adv-x="1200" 
d="M535 -25q-199 0 -330 131.5t-131 327.5q0 153 77.5 288t215.5 218.5t301 83.5q198 0 329 -132.5t131 -328.5q0 -152 -77.5 -287t-215 -218t-300.5 -83zM258 446q0 -129 82.5 -212.5t212.5 -83.5q158 0 274.5 119t116.5 282q0 129 -83 214t-212 85q-160 0 -275.5 -121
t-115.5 -283zM305 -424l49 236h205l-49 -236h-205z" />
    <glyph glyph-name="uni1EE4" unicode="&#x1ee4;" horiz-adv-x="1247" 
d="M543 -25q-146 0 -247.5 65.5t-140 186t-5.5 275.5l198 932h199l-207 -967q-28 -132 35 -218.5t186 -86.5q129 0 217 85.5t119 231.5l203 955h198l-206 -969q-48 -228 -192 -359t-357 -131zM328 -424l49 236h205l-50 -236h-204z" />
    <glyph glyph-name="uni1EE5" unicode="&#x1ee5;" horiz-adv-x="1159" 
d="M1124 999l-211 -999h-184l25 117q-152 -142 -324 -142q-183 0 -271 127t-40 353l114 544h189l-121 -571q-27 -125 24 -201.5t169 -76.5q117 0 206.5 78t118.5 210l119 561h186zM283 -424l49 236h205l-50 -236h-204z" />
    <glyph glyph-name="Ygrave" unicode="&#x1ef2;" horiz-adv-x="1097" 
d="M227 1434h213l168 -621l436 621h220l-594 -840l-127 -594h-199l127 594zM492 1776h215l147 -260h-174z" />
    <glyph glyph-name="ygrave" unicode="&#x1ef3;" horiz-adv-x="1042" 
d="M127 999h190l144 -751l452 751h215l-864 -1384h-211l275 426zM395 1403h205l127 -299h-164z" />
    <glyph glyph-name="uni1EF8" unicode="&#x1ef8;" horiz-adv-x="1097" 
d="M227 1434h213l168 -621l436 621h220l-594 -840l-127 -594h-199l127 594zM393 1518q28 130 95 195t157 65q44 0 91 -20t78.5 -44.5t66 -44.5t57.5 -20q77 0 109 118h139q-27 -129 -94.5 -193.5t-161.5 -64.5q-44 0 -89 20t-75.5 43.5t-65 43.5t-59.5 20q-37 0 -65 -29.5
t-41 -88.5h-142z" />
    <glyph glyph-name="uni1EF9" unicode="&#x1ef9;" horiz-adv-x="1042" 
d="M127 999h190l144 -751l452 751h215l-864 -1384h-211l275 426zM305 1120q24 147 89 218t155 71q38 0 71 -16t57 -39t46 -46t47.5 -39t52.5 -16q77 0 111 148h131q-25 -143 -93 -216t-153 -73q-50 0 -91 24t-64.5 53t-53.5 53t-59 24q-88 0 -117 -146h-129z" />
    <glyph glyph-name="endash" unicode="&#x2013;" horiz-adv-x="1161" 
d="M90 485l37 179h975l-39 -179h-973z" />
    <glyph glyph-name="emdash" unicode="&#x2014;" horiz-adv-x="2232" 
d="M90 485l37 179h2044l-37 -179h-2044z" />
    <glyph glyph-name="quoteleft" unicode="&#x2018;" horiz-adv-x="460" 
d="M408 1225q-4 -25 8 -40.5t35 -15.5h45l-47 -223h-230l105 488h129z" />
    <glyph glyph-name="quoteright" unicode="&#x2019;" horiz-adv-x="446" 
d="M328 1155q4 25 -8 40t-35 15h-45l47 224h229l-104 -488h-129z" />
    <glyph glyph-name="quotesinglbase" unicode="&#x201a;" horiz-adv-x="434" 
d="M84 -55q4 25 -8 40t-35 15h-45l47 223h229l-104 -487h-129z" />
    <glyph glyph-name="quotedblleft" unicode="&#x201c;" horiz-adv-x="802" 
d="M408 1225q-4 -25 8 -40.5t35 -15.5h45l-47 -223h-230l105 488h129zM561 946l105 488h129l-45 -209q-4 -25 8 -40.5t35 -15.5h45l-47 -223h-230z" />
    <glyph glyph-name="quotedblright" unicode="&#x201d;" horiz-adv-x="784" 
d="M670 1159q4 25 -8 40t-35 15h-45l47 224h229l-104 -488h-129zM240 1214l47 224h229l-104 -488h-129l45 209q4 25 -8 40t-35 15h-45z" />
    <glyph glyph-name="quotedblbase" unicode="&#x201e;" horiz-adv-x="776" 
d="M426 -55q4 25 -8 40t-35 15h-45l47 223h229l-104 -487h-129zM-4 0l47 223h229l-104 -487h-129l45 209q4 25 -8 40t-35 15h-45z" />
    <glyph glyph-name="dagger" unicode="&#x2020;" horiz-adv-x="919" 
d="M182 938l35 162h279l69 334h172l-69 -334h276l-35 -162h-276l-117 -555h-172l117 555h-279z" />
    <glyph glyph-name="daggerdbl" unicode="&#x2021;" horiz-adv-x="923" 
d="M59 313l35 162h279l102 483h-280l36 162h279l65 314h173l-66 -314h276l-34 -162h-277l-102 -483h276l-35 -162h-276l-66 -313h-172l66 313h-279z" />
    <glyph glyph-name="bullet" unicode="&#x2022;" horiz-adv-x="823" 
d="M399 254q-105 0 -171 71t-60 177q5 104 78.5 175t177.5 71q106 0 172.5 -71t60.5 -175q-4 -105 -78.5 -176.5t-179.5 -71.5z" />
    <glyph glyph-name="ellipsis" unicode="&#x2026;" horiz-adv-x="1335" 
d="M500 223h229l-47 -223h-229zM23 0l47 223h229l-47 -223h-229zM883 0l47 223h229l-47 -223h-229z" />
    <glyph glyph-name="perthousand" unicode="&#x2030;" horiz-adv-x="2310" 
d="M1843 -25q-121 0 -196.5 78.5t-75.5 202.5q0 71 26.5 145t75 136.5t125.5 102.5t168 40q121 0 196.5 -79t75.5 -204q0 -70 -26.5 -143t-74.5 -136t-125 -103t-169 -40zM180 1038q0 57 16.5 115.5t50 113.5t79 98t110 69t137.5 26q122 0 197.5 -78t75.5 -202
q0 -71 -26.5 -144.5t-74.5 -136.5t-125 -103t-169 -40q-120 0 -195.5 78.5t-75.5 203.5zM190 0l1119 1434h172l-1121 -1434h-170zM328 1051q0 -72 38 -117t103 -45q101 0 165 86.5t64 189.5q0 72 -38.5 116t-104.5 44q-99 0 -163 -84t-64 -190zM848 258q0 57 16.5 115.5
t50 113.5t79 98t110 69t137.5 26q122 0 197 -78.5t75 -202.5q0 -71 -26.5 -144.5t-74.5 -136.5t-125 -103t-169 -40q-120 0 -195 79t-75 204zM995 270q0 -72 38.5 -116.5t103.5 -44.5q101 0 165 86.5t64 189.5q0 72 -38.5 116t-104.5 44q-67 0 -120 -41.5t-80.5 -103.5
t-27.5 -130zM1718 266q0 -71 39 -114t103 -43q101 0 165 85.5t64 190.5q0 72 -38.5 116t-102.5 44q-101 0 -165.5 -87t-64.5 -192z" />
    <glyph glyph-name="minute" unicode="&#x2032;" horiz-adv-x="397" 
d="M248 983l18 260l39 191h176l-39 -191l-94 -260h-100z" />
    <glyph glyph-name="second" unicode="&#x2033;" horiz-adv-x="706" 
d="M559 983l19 260l38 191h177l-39 -191l-95 -260h-100zM248 983l18 260l39 191h176l-39 -191l-94 -260h-100z" />
    <glyph glyph-name="guilsinglleft" unicode="&#x2039;" horiz-adv-x="768" 
d="M563 35l-475 418l31 141l653 422l-43 -209l-436 -295l311 -287z" />
    <glyph glyph-name="guilsinglright" unicode="&#x203a;" horiz-adv-x="768" 
d="M217 1014l475 -418l-30 -141l-654 -422l43 209l436 295l-311 286z" />
    <glyph glyph-name="fraction" unicode="&#x2044;" horiz-adv-x="401" 
d="M721 1434h172l-1120 -1434h-170z" />
    <glyph glyph-name="franc" unicode="&#x20a3;" horiz-adv-x="991" 
d="M639 268h-272l-58 -268h-198l57 268h-141l32 160h142l213 1006h710l-39 -187h-512l-86 -401h445l-39 -189h-444l-50 -229h273z" />
    <glyph glyph-name="uni20A6" unicode="&#x20a6;" horiz-adv-x="1544" 
d="M571 809q-1 -6 -4 -18.5t-4 -18.5l-31 -145h220l-50 151q-1 5 -4 15.5t-4 15.5h-123zM109 475l30 152h199l39 182h-199l33 152h197l100 473h192l154 -473h285l98 473h195l-101 -473h201l-33 -152h-199l-38 -182h198l-30 -152h-201l-101 -475h-178l-151 475h-299
l-103 -475h-192l100 475h-196zM598 961h55l-32 147q-7 -59 -23 -147zM903 809l39 -123q11 -37 16 -59h17l-6 -35v-4l8 39h92l12 63l25 119h-203zM995 475l27 -121q6 47 18 121h-45z" />
    <glyph glyph-name="uni20A9" unicode="&#x20a9;" horiz-adv-x="1961" 
d="M129 731l33 160h168l-25 543h205l29 -543h292l265 543h168l39 -543h290l258 543h207l-252 -543h162l-33 -160h-202l-340 -731h-199l-55 731h-199l-362 -731h-207l-33 731h-209zM547 731l6 -98q3 -83 3.5 -164t-0.5 -121l-1 -39q53 127 135 293l64 129h-207zM1020 891h106
l-14 186zM1315 731l6 -98q6 -82 10.5 -163t6.5 -121l1 -40q47 129 121 301l58 121h-203z" />
    <glyph glyph-name="uni20AA" unicode="&#x20aa;" horiz-adv-x="1689" 
d="M449 0l223 1042h192l-184 -866h387q107 0 170 54t88 165l219 1039h193l-228 -1072q-37 -175 -157 -268.5t-291 -93.5h-612zM55 0l305 1434h592q182 0 266 -91t50 -256l-150 -696h-192l139 647q23 112 -17.5 165.5t-148.5 53.5h-383l-268 -1257h-193z" />
    <glyph glyph-name="dong" unicode="&#x20ab;" horiz-adv-x="1394" 
d="M1001 -178l-26 -121h-952l24 121h954zM106 436q0 124 47 234t125 187t181.5 122t214.5 45q126 0 225.5 -53t149.5 -144l75 353h-299l25 120h301l29 134h188l-29 -134h154l-27 -120h-151l-252 -1180h-189l25 121q-56 -65 -150.5 -105.5t-189.5 -40.5q-197 0 -325 126
t-128 335zM295 457q0 -131 85 -216t218 -85q160 0 272.5 111.5t112.5 277.5q0 132 -86 216.5t-221 84.5q-155 0 -268 -115.5t-113 -273.5z" />
    <glyph glyph-name="Euro" unicode="&#x20ac;" horiz-adv-x="1339" 
d="M948 969l-74 -160h-348l-37 -182h385l-71 -160h-344q-10 -142 61 -223.5t193 -81.5q250 0 327 309h195q-57 -239 -188 -367.5t-355 -128.5q-97 0 -180 33.5t-142 95t-88.5 155.5t-19.5 208h-158l33 160h154l39 182h-154l35 160h154q52 224 190 356.5t358 132.5
q135 0 242 -64t158 -178.5t24 -252.5h-192q24 132 -49 219.5t-197 87.5q-126 0 -211.5 -79.5t-126.5 -221.5h387z" />
    <glyph glyph-name="uni20B1" unicode="&#x20b1;" horiz-adv-x="1355" 
d="M168 0l172 817h-190l30 148h193l14 69h-190l28 146h193l53 254h365q143 0 240 -68.5t130 -185.5h228l-31 -146h-182q0 -4 -1 -11t-1 -11l-7 -47h177l-31 -148h-197q-66 -125 -194.5 -197.5t-288.5 -72.5h-197l-116 -547h-197zM520 731h180q137 0 226 86h-387zM569 965
h441q4 15 8 45q2 8 2 24h-434zM616 1180h359q-60 69 -182 69h-162z" />
    <glyph glyph-name="uni20B4" unicode="&#x20b4;" horiz-adv-x="1337" 
d="M100 518l33 152h270q29 20 68 39l109 57h-426l32 149h676l27 15q64 36 105.5 89.5t41.5 119.5q0 62 -45.5 98.5t-126.5 36.5q-116 0 -192 -68.5t-103 -183.5h-196q34 197 165.5 316.5t344.5 119.5q163 0 259.5 -80.5t96.5 -210.5q0 -147 -94 -252h198l-32 -149h-377
l-180 -96h536l-33 -152h-770q-94 -79 -94 -192q0 -74 54 -120t141 -46q120 0 202.5 73.5t110.5 198.5h199q-45 -206 -188 -331.5t-345 -125.5q-171 0 -276 90.5t-105 237.5q0 119 62 215h-148z" />
    <glyph glyph-name="uni20BA" unicode="&#x20ba;" horiz-adv-x="1267" 
d="M233 0l107 506l-248 -107l35 162l248 107l41 196l-248 -106l35 162l248 106l86 408h198l-65 -314l417 180l-34 -161l-418 -181l-41 -196l418 180l-35 -162l-418 -180l-88 -414h219q119 0 195 63t102 183l12 62h199l-14 -70q-43 -201 -183.5 -312.5t-349.5 -111.5h-418z
" />
    <glyph glyph-name="uni20BD" unicode="&#x20bd;" horiz-adv-x="1179" 
d="M43 242l33 157h166l53 260h-164l33 158h166l129 617h387q93 0 171.5 -26.5t134 -79t76.5 -129.5t-1 -177q-39 -167 -175 -265t-337 -98h-221l-56 -260h383l-33 -157h-385l-51 -242h-196l51 242h-164zM526 817h199q119 0 201.5 62t103.5 161q21 95 -34.5 156t-170.5 61
h-204z" />
    <glyph glyph-name="uni20BF" unicode="&#x20bf;" horiz-adv-x="1077" 
d="M690 1675l-53 -241h51q51 0 115 -11l55 252h135l-63 -295q151 -80 151 -252q0 -129 -86 -237t-215 -137q82 -16 136.5 -90t54.5 -189q0 -165 -89 -284.5t-241 -165.5l-57 -271h-135l53 246h-33h-135l-53 -246h-136l54 246h-144l303 1434h144l53 241h135zM289 166h190
q139 0 215 86.5t76 206.5q0 88 -50.5 140t-139.5 52h-189zM426 815h152q123 0 212 79t89 196q0 84 -57.5 131t-162.5 47h-137z" />
    <glyph glyph-name="uni2116" unicode="&#x2116;" horiz-adv-x="2385" 
d="M1970 1458q142 0 248.5 -71t152 -196t13.5 -273q-44 -210 -206 -344t-376 -134q-104 0 -193.5 43t-147 114.5t-81.5 169t-2 202.5q47 219 210.5 354t381.5 135zM59 0l303 1434h193l242 -748q23 -79 43 -162t28 -126l9 -44q20 154 59 336l156 744h194l-303 -1434h-178
l-248 778q-23 79 -43.5 161.5t-29.5 125.5l-9 43q-18 -152 -57 -336l-166 -772h-193zM1208 0l37 176h944l-37 -176h-944zM1552 954q-29 -139 52 -241.5t215 -102.5q142 0 252.5 95t142.5 245q31 139 -46.5 238.5t-213.5 99.5q-144 0 -257.5 -93.5t-144.5 -240.5z" />
    <glyph glyph-name="uni2117" unicode="&#x2117;" horiz-adv-x="1701" 
d="M858 -25q-146 0 -276.5 55t-223.5 148.5t-147.5 222.5t-54.5 273q0 156 63.5 301.5t169 251t249.5 168.5t298 63q195 0 357 -93t254.5 -253t92.5 -352q0 -156 -64 -301.5t-170 -251t-250 -169t-298 -63.5zM246 680q0 -127 47.5 -241.5t128.5 -197.5t195 -131.5t241 -48.5
q182 0 341.5 94.5t254 255.5t94.5 347q0 170 -80 311t-221 223t-311 82q-136 0 -263 -55.5t-220.5 -148.5t-150 -222t-56.5 -268zM623 326l168 788h200q102 0 165 -55.5t63 -145.5q0 -109 -82 -191.5t-219 -82.5h-99l-67 -313h-129zM844 754h82q83 0 124.5 48.5t41.5 104.5
q0 40 -31 65t-86 25h-80z" />
    <glyph glyph-name="trademark" unicode="&#x2122;" horiz-adv-x="1665" 
d="M815 717v717h201l201 -496l200 496h195v-717h-139v520l-207 -520h-105l-209 528v-528h-137zM236 1303v131h483v-131h-170v-586h-148v586h-165z" />
    <glyph glyph-name="uni2126" unicode="&#x2126;" horiz-adv-x="1628" 
d="M8 0l39 188h352q-231 190 -231 467q0 151 61.5 295.5t168.5 257t264 181.5t335 69q261 0 420.5 -153t159.5 -402q0 -217 -130.5 -408.5t-336.5 -306.5h338l-39 -188h-575l38 178q108 60 195.5 131.5t157.5 158t108.5 190.5t38.5 216q0 180 -108 287t-293 107
q-127 0 -241 -54t-192.5 -142t-124.5 -201t-46 -230q0 -261 256 -463l-39 -178h-576z" />
    <glyph glyph-name="oneeighth" unicode="&#x215b;" horiz-adv-x="1558" 
d="M530 1434l-182 -859h-131l129 601h-139l26 116h52q43 0 72.5 25.5t37.5 64.5l13 52h122zM72 0l1118 1434h172l-1120 -1434h-170zM844 201q0 84 55.5 155.5t142.5 96.5q-94 48 -94 145q0 116 89 196t216 80q114 0 183 -52.5t69 -143.5q0 -72 -44 -133t-128 -92
q49 -23 78 -66.5t29 -103.5q0 -126 -94 -211.5t-232 -85.5q-122 0 -196 58.5t-74 156.5zM977 213q0 -52 37.5 -84.5t99.5 -32.5q77 0 136 52.5t59 123.5q0 53 -37 84t-98 31q-79 0 -138 -51.5t-59 -122.5zM1071 612q-3 -48 32 -80t95 -32q76 0 130 48.5t54 113.5
q0 47 -36 77.5t-93 30.5q-73 0 -126 -45.5t-56 -112.5z" />
    <glyph glyph-name="threeeighths" unicode="&#x215c;" horiz-adv-x="1759" 
d="M397 561q-134 0 -210.5 78.5t-51.5 196.5h131q-13 -66 26.5 -111t108.5 -45q82 0 134.5 50t52.5 118q0 51 -38 80.5t-106 29.5h-38l24 113h37q81 0 135.5 44.5t54.5 113.5q0 49 -33.5 75.5t-93.5 26.5q-62 0 -113 -38t-65 -105h-127q27 126 116.5 194t207.5 68
q114 0 178 -52.5t64 -144.5q0 -77 -50.5 -142.5t-134.5 -94.5q113 -35 113 -158t-88.5 -210t-233.5 -87zM270 0l1119 1434h172l-1121 -1434h-170zM1042 201q0 84 56 155.5t143 96.5q-94 48 -94 145q0 116 89 196t216 80q114 0 183 -52.5t69 -143.5q0 -72 -44 -133t-128 -92
q48 -23 77 -66.5t29 -103.5q0 -126 -93.5 -211.5t-231.5 -85.5q-122 0 -196.5 58.5t-74.5 156.5zM1176 213q0 -52 37.5 -84.5t99.5 -32.5q77 0 135.5 52.5t58.5 123.5q0 53 -37 84t-98 31q-79 0 -137.5 -51.5t-58.5 -122.5zM1270 612q-3 -48 32 -80t95 -32q76 0 130 48.5
t54 113.5q0 47 -36 77.5t-93 30.5q-73 0 -126 -45.5t-56 -112.5z" />
    <glyph glyph-name="fiveeighths" unicode="&#x215d;" horiz-adv-x="1757" 
d="M391 561q-128 0 -204.5 77.5t-53.5 197.5h129q-10 -70 27.5 -110t109.5 -40q77 0 140 63.5t63 151.5q0 59 -35 92t-98 33q-94 0 -156 -65l-118 6l139 469h467l-25 -123h-350l-76 -238q28 24 70.5 37.5t81.5 13.5q108 0 170.5 -55.5t62.5 -155.5q0 -147 -99.5 -250.5
t-244.5 -103.5zM268 0l1118 1434h173l-1121 -1434h-170zM1040 201q0 84 56 155.5t143 96.5q-94 48 -94 145q0 116 89 196t216 80q114 0 183 -52.5t69 -143.5q0 -72 -44 -133t-128 -92q48 -23 77 -66.5t29 -103.5q0 -126 -93.5 -211.5t-231.5 -85.5q-122 0 -196.5 58.5
t-74.5 156.5zM1174 213q0 -52 37.5 -84.5t99.5 -32.5q77 0 135.5 52.5t58.5 123.5q0 53 -37 84t-98 31q-79 0 -137.5 -51.5t-58.5 -122.5zM1268 612q-3 -48 32 -80t95 -32q76 0 130 48.5t54 113.5q0 47 -36 77.5t-93 30.5q-73 0 -126 -45.5t-56 -112.5z" />
    <glyph glyph-name="seveneighths" unicode="&#x215e;" horiz-adv-x="1583" 
d="M145 575l492 738h-414l27 123h565l-22 -111l-498 -750h-150zM94 0l1118 1434h172l-1120 -1434h-170zM866 201q0 84 56 155.5t143 96.5q-94 48 -94 145q0 116 89 196t216 80q114 0 183 -52.5t69 -143.5q0 -72 -44 -133t-128 -92q48 -23 77 -66.5t29 -103.5
q0 -126 -93.5 -211.5t-231.5 -85.5q-122 0 -196.5 58.5t-74.5 156.5zM999 213q0 -52 38 -84.5t100 -32.5q77 0 135.5 52.5t58.5 123.5q0 53 -37 84t-98 31q-79 0 -138 -51.5t-59 -122.5zM1094 612q-3 -48 32 -80t95 -32q76 0 130 48.5t54 113.5q0 47 -36 77.5t-93 30.5
q-73 0 -126 -45.5t-56 -112.5z" />
    <glyph glyph-name="arrowleft" unicode="&#x2190;" horiz-adv-x="1464" 
d="M621 23l-494 622l729 594l111 -143l-482 -385h918l-39 -176h-913l317 -392z" />
    <glyph glyph-name="arrowup" unicode="&#x2191;" horiz-adv-x="1372" 
d="M1315 649l-148 -123l-299 394l-194 -918h-189l193 909l-440 -354l-117 145l715 560z" />
    <glyph glyph-name="arrowright" unicode="&#x2192;" horiz-adv-x="1464" 
d="M666 23l-111 143l481 385h-917l37 176h913l-315 391l147 121l492 -623z" />
    <glyph glyph-name="arrowdown" unicode="&#x2193;" horiz-adv-x="1368" 
d="M104 582l148 123l299 -394l194 918h189l-193 -910l441 355l116 -146l-714 -559z" />
    <glyph glyph-name="uni2196" unicode="&#x2196;" horiz-adv-x="1255" 
d="M113 358l184 867h870l-37 -178h-565l565 -725l-145 -119l-571 739l-117 -584h-184z" />
    <glyph glyph-name="uni2197" unicode="&#x2197;" horiz-adv-x="1261" 
d="M1083 319h-188l123 570l-858 -731l-115 135l850 725l-543 -2l39 180h879z" />
    <glyph glyph-name="uni2198" unicode="&#x2198;" horiz-adv-x="1222" 
d="M1174 866l-185 -866h-870l37 178h565l-565 725l145 119l571 -739l117 583h185z" />
    <glyph glyph-name="uni2199" unicode="&#x2199;" horiz-adv-x="1232" 
d="M211 877h188l-123 -570l859 731l114 -135l-850 -725l543 2l-39 -180h-878z" />
    <glyph glyph-name="partialdiff" unicode="&#x2202;" horiz-adv-x="1155" 
d="M494 -25q-190 0 -313.5 120t-123.5 294q0 132 69.5 257.5t191.5 205.5t262 80q88 0 176 -31l-234 533h219l263 -605q67 -148 67 -290q0 -154 -79.5 -284.5t-212 -205t-285.5 -74.5zM252 412q0 -108 72.5 -182t185.5 -74q146 0 253 107t107 255q0 112 -71 182t-197 70
q-139 0 -244.5 -110.5t-105.5 -247.5z" />
    <glyph glyph-name="emptyset" unicode="&#x2205;" horiz-adv-x="1689" 
d="M274 -92l-135 117l156 178q-143 173 -143 413q0 160 64 312.5t173 269.5t268 188.5t336 71.5q194 0 344 -92l125 137l137 -117l-122 -137q155 -176 155 -426q0 -163 -64 -317t-173.5 -271.5t-267.5 -188.5t-334 -71q-205 0 -365 107zM356 633q0 -154 78 -275l768 856
q-103 58 -229 58q-124 0 -238.5 -53t-197 -140t-132 -204.5t-49.5 -241.5zM563 231q107 -69 250 -69q125 0 240 54.5t197 143t131 206t49 239.5q0 166 -91 291z" />
    <glyph glyph-name="uni2206" unicode="&#x2206;" horiz-adv-x="1230" 
d="M-53 0l33 164l735 1270h200l197 -1270l-35 -164h-1130zM197 188h723l-152 979z" />
    <glyph glyph-name="product" unicode="&#x220f;" horiz-adv-x="1329" 
d="M55 0l303 1434h1010l-305 -1434h-197l264 1245h-612l-264 -1245h-199z" />
    <glyph glyph-name="summation" unicode="&#x2211;" horiz-adv-x="1150" 
d="M791 780l-29 -127l-457 -465h701l-39 -188h-990l35 172l566 565l-332 525l35 172h989l-39 -189h-711z" />
    <glyph glyph-name="minus" unicode="&#x2212;" horiz-adv-x="1269" 
d="M1151 758l-37 -174h-921l36 174h922z" />
    <glyph glyph-name="radical" unicode="&#x221a;" horiz-adv-x="1325" 
d="M154 811l41 188h360l78 -710l608 1145h223l-778 -1434h-211l-88 811h-233z" />
    <glyph glyph-name="infinity" unicode="&#x221e;" horiz-adv-x="1968" 
d="M1503 1161q180 0 289 -109.5t109 -283.5q0 -110 -42.5 -217t-115 -190t-178 -134t-222.5 -51q-139 0 -244.5 78.5t-123.5 187.5q-68 -116 -184.5 -191t-251.5 -75q-180 0 -288 110t-108 285q0 109 42 215.5t114 189.5t177 134t222 51q139 0 245 -77.5t124 -186.5
q66 113 184.5 188.5t251.5 75.5zM334 592q0 -106 61.5 -172t165.5 -66q117 0 223 84.5t160 231.5q9 135 -61 224t-189 89q-104 0 -188 -57.5t-128 -146.5t-44 -187zM1110 670q-9 -133 57 -224.5t181 -91.5q104 0 189 58t129 146.5t44 186.5q0 105 -62 171.5t-165 66.5
q-116 0 -217 -83t-156 -230z" />
    <glyph glyph-name="integral" unicode="&#x222b;" horiz-adv-x="702" 
d="M-111 -319l35 161h37q74 0 117.5 38.5t62.5 121.5l242 1139q60 293 375 293h86l-35 -160h-59q-68 0 -118 -42.5t-67 -123.5l-241 -1137q-32 -151 -120.5 -220.5t-250.5 -69.5h-64z" />
    <glyph glyph-name="approxequal" unicode="&#x2248;" horiz-adv-x="1269" 
d="M211 684q38 179 126.5 273t192.5 94q48 0 93 -18.5t79 -44.5t65.5 -52.5t65 -45t64.5 -18.5q47 0 90 46.5t62 130.5l172 2q-38 -177 -130 -272t-196 -95q-46 0 -90 18.5t-77.5 45t-65.5 53t-66.5 45t-67.5 18.5q-46 0 -86.5 -48t-58.5 -130zM115 236q38 179 126.5 272.5
t192.5 93.5q59 0 114.5 -28t91.5 -61t79.5 -61t81.5 -28q47 0 89.5 46t61.5 130l172 2q-38 -177 -129.5 -271.5t-195.5 -94.5q-46 0 -90 18.5t-77.5 45t-65.5 53t-66.5 45t-67.5 18.5q-46 0 -86.5 -48t-58.5 -130z" />
    <glyph glyph-name="notequal" unicode="&#x2260;" horiz-adv-x="1269" 
d="M1053 1212l-125 -235h272l-37 -174h-327l-136 -258h408l-37 -174h-463l-123 -234h-190l123 234h-268l36 174h324l135 258h-403l37 174h458l125 235h191z" />
    <glyph glyph-name="lessequal" unicode="&#x2264;" horiz-adv-x="1269" 
d="M106 127l35 168h899l-36 -168h-898zM231 729l43 197l963 293l-41 -189l-709 -213l617 -219l-35 -174z" />
    <glyph glyph-name="greaterequal" unicode="&#x2265;" horiz-adv-x="1269" 
d="M117 127l35 168h899l-35 -168h-899zM180 424l39 190l713 213l-621 220l39 172l832 -304l-41 -198z" />
    <glyph glyph-name="uni2460" unicode="&#x2460;" horiz-adv-x="1701" 
d="M858 -25q-146 0 -276.5 55t-223.5 148.5t-147.5 222.5t-54.5 273q0 156 63.5 301.5t169 251t249.5 168.5t298 63q195 0 357 -93t254.5 -253t92.5 -352q0 -156 -64 -301.5t-170 -251t-250 -169t-298 -63.5zM246 680q0 -127 47.5 -241.5t128.5 -197.5t195 -131.5t241 -48.5
q182 0 341.5 94.5t254 255.5t94.5 347q0 170 -80 311t-221 223t-311 82q-136 0 -263 -55.5t-220.5 -148.5t-150 -222t-56.5 -268zM741 901l27 117h51q43 0 73 25.5t38 64.5l12 51h123l-182 -858h-131l129 600h-140z" />
    <glyph glyph-name="uni2461" unicode="&#x2461;" horiz-adv-x="1701" 
d="M858 -25q-146 0 -276.5 55t-223.5 148.5t-147.5 222.5t-54.5 273q0 156 63.5 301.5t169 251t249.5 168.5t298 63q195 0 357 -93t254.5 -253t92.5 -352q0 -156 -64 -301.5t-170 -251t-250 -169t-298 -63.5zM246 680q0 -127 47.5 -241.5t128.5 -197.5t195 -131.5t241 -48.5
q182 0 341.5 94.5t254 255.5t94.5 347q0 170 -80 311t-221 223t-311 82q-136 0 -263 -55.5t-220.5 -148.5t-150 -222t-56.5 -268zM545 301l24 107l363 303q64 51 94.5 79.5t55 69.5t24.5 84q0 51 -35.5 80t-93.5 29q-65 0 -111 -47t-61 -129h-127q29 148 111 223.5t206 75.5
q110 0 178 -58.5t68 -152.5q0 -32 -8 -62.5t-16.5 -53t-31 -51.5t-35 -44t-45.5 -44.5t-44.5 -39t-50.5 -41.5l-238 -203h371l-27 -125h-571z" />
    <glyph glyph-name="uni2462" unicode="&#x2462;" horiz-adv-x="1701" 
d="M858 -25q-146 0 -276.5 55t-223.5 148.5t-147.5 222.5t-54.5 273q0 156 63.5 301.5t169 251t249.5 168.5t298 63q195 0 357 -93t254.5 -253t92.5 -352q0 -156 -64 -301.5t-170 -251t-250 -169t-298 -63.5zM246 680q0 -127 47.5 -241.5t128.5 -197.5t195 -131.5t241 -48.5
q182 0 341.5 94.5t254 255.5t94.5 347q0 170 -80 311t-221 223t-311 82q-136 0 -263 -55.5t-220.5 -148.5t-150 -222t-56.5 -268zM571 557h131q-13 -66 27 -111t109 -45q82 0 134 49.5t52 118.5q0 52 -37.5 81.5t-105.5 29.5h-39l24 113h37q81 0 136 44t55 113
q0 49 -33.5 76t-93.5 27q-62 0 -113.5 -38.5t-65.5 -105.5h-126q27 126 116 194t207 68q114 0 178 -52t64 -144q0 -77 -50.5 -143t-134.5 -95q113 -35 113 -157q0 -123 -88.5 -210t-232.5 -87q-135 0 -211.5 78t-51.5 196z" />
    <glyph glyph-name="uni2463" unicode="&#x2463;" horiz-adv-x="1701" 
d="M858 -25q-146 0 -276.5 55t-223.5 148.5t-147.5 222.5t-54.5 273q0 156 63.5 301.5t169 251t249.5 168.5t298 63q195 0 357 -93t254.5 -253t92.5 -352q0 -156 -64 -301.5t-170 -251t-250 -169t-298 -63.5zM246 680q0 -127 47.5 -241.5t128.5 -197.5t195 -131.5t241 -48.5
q182 0 341.5 94.5t254 255.5t94.5 347q0 170 -80 311t-221 223t-311 82q-136 0 -263 -55.5t-220.5 -148.5t-150 -222t-56.5 -268zM535 492l24 116l369 551h145l-364 -551h231l43 201h127l-43 -201h123l-27 -116h-123l-41 -193h-129l41 193h-376z" />
    <glyph glyph-name="uni2464" unicode="&#x2464;" horiz-adv-x="1701" 
d="M858 -25q-146 0 -276.5 55t-223.5 148.5t-147.5 222.5t-54.5 273q0 156 63.5 301.5t169 251t249.5 168.5t298 63q195 0 357 -93t254.5 -253t92.5 -352q0 -156 -64 -301.5t-170 -251t-250 -169t-298 -63.5zM246 680q0 -127 47.5 -241.5t128.5 -197.5t195 -131.5t241 -48.5
q182 0 341.5 94.5t254 255.5t94.5 347q0 170 -80 311t-221 223t-311 82q-136 0 -263 -55.5t-220.5 -148.5t-150 -222t-56.5 -268zM551 559h129q-10 -69 27.5 -109t109.5 -40q77 0 140 63.5t63 151.5q0 59 -35 92t-98 33q-93 0 -156 -66l-119 6l140 469h467l-25 -123h-350
l-76 -237q28 24 70.5 37.5t81.5 13.5q108 0 170.5 -55.5t62.5 -155.5q0 -147 -99.5 -250.5t-244.5 -103.5q-128 0 -204.5 77t-53.5 197z" />
    <glyph glyph-name="uni2465" unicode="&#x2465;" horiz-adv-x="1701" 
d="M858 -25q-146 0 -276.5 55t-223.5 148.5t-147.5 222.5t-54.5 273q0 156 63.5 301.5t169 251t249.5 168.5t298 63q195 0 357 -93t254.5 -253t92.5 -352q0 -156 -64 -301.5t-170 -251t-250 -169t-298 -63.5zM246 680q0 -127 47.5 -241.5t128.5 -197.5t195 -131.5t241 -48.5
q182 0 341.5 94.5t254 255.5t94.5 347q0 170 -80 311t-221 223t-311 82q-136 0 -263 -55.5t-220.5 -148.5t-150 -222t-56.5 -268zM549 535q0 38 11.5 77t24.5 67.5t42 69t45 60.5t53 63l244 287h164l-265 -303q28 4 45 4q108 0 178 -68.5t70 -173.5q0 -135 -102.5 -234
t-241.5 -99q-119 0 -193.5 71t-74.5 179zM680 549q0 -61 41.5 -103.5t105.5 -42.5q81 0 143 60t62 145q0 65 -41 106.5t-108 41.5q-80 0 -141.5 -62t-61.5 -145z" />
    <glyph glyph-name="uni2466" unicode="&#x2466;" horiz-adv-x="1701" 
d="M858 -25q-146 0 -276.5 55t-223.5 148.5t-147.5 222.5t-54.5 273q0 156 63.5 301.5t169 251t249.5 168.5t298 63q195 0 357 -93t254.5 -253t92.5 -352q0 -156 -64 -301.5t-170 -251t-250 -169t-298 -63.5zM246 680q0 -127 47.5 -241.5t128.5 -197.5t195 -131.5t241 -48.5
q182 0 341.5 94.5t254 255.5t94.5 347q0 170 -80 311t-221 223t-311 82q-136 0 -263 -55.5t-220.5 -148.5t-150 -222t-56.5 -268zM580 299l491 737h-414l27 123h565l-22 -110l-498 -750h-149z" />
    <glyph glyph-name="uni2467" unicode="&#x2467;" horiz-adv-x="1701" 
d="M858 -25q-146 0 -276.5 55t-223.5 148.5t-147.5 222.5t-54.5 273q0 156 63.5 301.5t169 251t249.5 168.5t298 63q195 0 357 -93t254.5 -253t92.5 -352q0 -156 -64 -301.5t-170 -251t-250 -169t-298 -63.5zM246 680q0 -127 47.5 -241.5t128.5 -197.5t195 -131.5t241 -48.5
q182 0 341.5 94.5t254 255.5t94.5 347q0 170 -80 311t-221 223t-311 82q-136 0 -263 -55.5t-220.5 -148.5t-150 -222t-56.5 -268zM555 500q0 84 56 155.5t143 96.5q-95 48 -95 145q0 116 89.5 196.5t216.5 80.5q114 0 183 -53t69 -144q0 -72 -44 -133t-129 -92
q49 -23 78 -66.5t29 -103.5q0 -126 -94 -211.5t-232 -85.5q-122 0 -196 58.5t-74 156.5zM688 512q0 -52 37.5 -84.5t99.5 -32.5q77 0 136 52.5t59 123.5q0 53 -37 84t-98 31q-79 0 -138 -51.5t-59 -122.5zM782 911q-3 -48 32 -80t95 -32q76 0 130.5 48.5t54.5 113.5
q0 47 -36 77.5t-93 30.5q-73 0 -126.5 -45.5t-56.5 -112.5z" />
    <glyph glyph-name="uni2468" unicode="&#x2468;" horiz-adv-x="1701" 
d="M858 -25q-146 0 -276.5 55t-223.5 148.5t-147.5 222.5t-54.5 273q0 156 63.5 301.5t169 251t249.5 168.5t298 63q195 0 357 -93t254.5 -253t92.5 -352q0 -156 -64 -301.5t-170 -251t-250 -169t-298 -63.5zM246 680q0 -127 47.5 -241.5t128.5 -197.5t195 -131.5t241 -48.5
q182 0 341.5 94.5t254 255.5t94.5 347q0 170 -80 311t-221 223t-311 82q-136 0 -263 -55.5t-220.5 -148.5t-150 -222t-56.5 -268zM610 842q0 135 102.5 234.5t241.5 99.5q119 0 194 -71t75 -179q0 -47 -13.5 -91t-44.5 -91.5t-52.5 -75t-65.5 -80.5l-244 -287h-164l264 303
q-28 -4 -45 -4q-108 0 -178 68.5t-70 173.5zM739 852q0 -65 41.5 -106t108.5 -41q80 0 141.5 61.5t61.5 144.5q0 61 -42 103.5t-106 42.5q-81 0 -143 -60t-62 -145z" />
    <glyph glyph-name="lozenge" unicode="&#x25ca;" horiz-adv-x="1116" 
d="M141 715l543 719h143l240 -719l-545 -715h-141zM315 696l164 -506l408 543l-162 506z" />
    <glyph glyph-name="circle" unicode="&#x25cb;" horiz-adv-x="1701" 
d="M858 -25q-146 0 -276.5 55t-223.5 148.5t-147.5 222.5t-54.5 273q0 156 63.5 301.5t169 251t249.5 168.5t298 63q195 0 357 -93t254.5 -253t92.5 -352q0 -156 -64 -301.5t-170 -251t-250 -169t-298 -63.5zM246 680q0 -127 47.5 -241.5t128.5 -197.5t195 -131.5t241 -48.5
q182 0 341.5 94.5t254 255.5t94.5 347q0 170 -80 311t-221 223t-311 82q-136 0 -263 -55.5t-220.5 -148.5t-150 -222t-56.5 -268z" />
    <glyph glyph-name="uni25CF" unicode="&#x25cf;" horiz-adv-x="1701" 
d="M858 -25q-146 0 -276.5 55t-223.5 148.5t-147.5 222.5t-54.5 273q0 156 63.5 301.5t169 251t249.5 168.5t298 63q195 0 357 -93t254.5 -253t92.5 -352q0 -156 -64 -301.5t-170 -251t-250 -169t-298 -63.5z" />
    <glyph glyph-name="uniE132" unicode="&#xe132;" horiz-adv-x="925" 
d="M248 999h190l-213 -999h-190zM229 -385l35 168h76q50 0 83.5 30t45.5 87l233 1099h189l-238 -1126q-32 -148 -109.5 -203t-217.5 -55h-97zM268 1104l256 297h215l-290 -297h-181zM721 1104l256 297h215l-291 -297h-180z" />
    <glyph glyph-name="uniE133" unicode="&#xe133;" horiz-adv-x="1169" 
d="M358 1434h199l-303 -1434h-199zM379 1516l246 260h221l-287 -260h-180zM438 0l39 186h76q101 0 163.5 56t88.5 178l215 1014h197l-224 -1053q-78 -381 -426 -381h-129zM1042 1516l246 260h221l-286 -260h-181z" />
    <glyph glyph-name="S.ss02" horiz-adv-x="1077" 
d="M406 0q-116 0 -201.5 51t-121.5 143t-9 205l12 52h197l-11 -56q-12 -51 -0.5 -101t52.5 -86t106 -36h109q51 0 93 20t67 50t42.5 69t24 74t6.5 68q0 62 -31.5 98.5t-93.5 60.5l-217 80q-205 73 -205 287q0 85 27.5 165.5t77.5 145.5t130 104.5t177 39.5h141
q156 0 241.5 -93.5t55.5 -238.5l-16 -80h-197l15 72q15 73 -28.5 119.5t-117.5 46.5h-100q-92 0 -150.5 -73.5t-58.5 -166.5q0 -116 127 -164l205 -74q108 -37 163.5 -104.5t55.5 -181.5q0 -71 -15 -140.5t-48.5 -134t-82 -113.5t-120 -78.5t-156.5 -29.5h-145z" />
    <glyph glyph-name="Sacute.ss02" horiz-adv-x="1077" 
d="M406 0q-116 0 -201.5 51t-121.5 143t-9 205l12 52h197l-11 -56q-12 -51 -0.5 -101t52.5 -86t106 -36h109q51 0 93 20t67 50t42.5 69t24 74t6.5 68q0 62 -31.5 98.5t-93.5 60.5l-217 80q-205 73 -205 287q0 85 27.5 165.5t77.5 145.5t130 104.5t177 39.5h141
q156 0 241.5 -93.5t55.5 -238.5l-16 -80h-197l15 72q15 73 -28.5 119.5t-117.5 46.5h-100q-92 0 -150.5 -73.5t-58.5 -166.5q0 -116 127 -164l205 -74q108 -37 163.5 -104.5t55.5 -181.5q0 -71 -15 -140.5t-48.5 -134t-82 -113.5t-120 -78.5t-156.5 -29.5h-145zM649 1516
l246 260h221l-287 -260h-180z" />
    <glyph glyph-name="Scaron.ss02" horiz-adv-x="1077" 
d="M406 0q-116 0 -201.5 51t-121.5 143t-9 205l12 52h197l-11 -56q-12 -51 -0.5 -101t52.5 -86t106 -36h109q51 0 93 20t67 50t42.5 69t24 74t6.5 68q0 62 -31.5 98.5t-93.5 60.5l-217 80q-205 73 -205 287q0 85 27.5 165.5t77.5 145.5t130 104.5t177 39.5h141
q156 0 241.5 -93.5t55.5 -238.5l-16 -80h-197l15 72q15 73 -28.5 119.5t-117.5 46.5h-100q-92 0 -150.5 -73.5t-58.5 -166.5q0 -116 127 -164l205 -74q108 -37 163.5 -104.5t55.5 -181.5q0 -71 -15 -140.5t-48.5 -134t-82 -113.5t-120 -78.5t-156.5 -29.5h-145zM442 1790
h191l131 -166l203 166h196l-317 -274h-203z" />
    <glyph glyph-name="Scedilla.ss02" horiz-adv-x="1077" 
d="M406 0q-116 0 -201.5 51t-121.5 143t-9 205l12 52h197l-11 -56q-12 -51 -0.5 -101t52.5 -86t106 -36h109q51 0 93 20t67 50t42.5 69t24 74t6.5 68q0 62 -31.5 98.5t-93.5 60.5l-217 80q-205 73 -205 287q0 85 27.5 165.5t77.5 145.5t130 104.5t177 39.5h141
q156 0 241.5 -93.5t55.5 -238.5l-16 -80h-197l15 72q15 73 -28.5 119.5t-117.5 46.5h-100q-92 0 -150.5 -73.5t-58.5 -166.5q0 -116 127 -164l205 -74q108 -37 163.5 -104.5t55.5 -181.5q0 -71 -15 -140.5t-48.5 -134t-82 -113.5t-120 -78.5t-156.5 -29.5h-19l-86 -139h25
q64 0 103.5 -41t39.5 -109q0 -91 -62.5 -154t-160.5 -63h-149l20 98h127q46 0 80.5 30.5t34.5 74.5q0 32 -21.5 51t-58.5 19h-115l19 81l92 152h-14z" />
    <glyph glyph-name="Scircumflex.ss02" horiz-adv-x="1077" 
d="M406 0q-116 0 -201.5 51t-121.5 143t-9 205l12 52h197l-11 -56q-12 -51 -0.5 -101t52.5 -86t106 -36h109q51 0 93 20t67 50t42.5 69t24 74t6.5 68q0 62 -31.5 98.5t-93.5 60.5l-217 80q-205 73 -205 287q0 85 27.5 165.5t77.5 145.5t130 104.5t177 39.5h141
q156 0 241.5 -93.5t55.5 -238.5l-16 -80h-197l15 72q15 73 -28.5 119.5t-117.5 46.5h-100q-92 0 -150.5 -73.5t-58.5 -166.5q0 -116 127 -164l205 -74q108 -37 163.5 -104.5t55.5 -181.5q0 -71 -15 -140.5t-48.5 -134t-82 -113.5t-120 -78.5t-156.5 -29.5h-145zM383 1516
l315 266h201l207 -266h-191l-131 161l-200 -161h-201z" />
    <glyph glyph-name="uni0218.ss02" horiz-adv-x="1077" 
d="M406 0q-116 0 -201.5 51t-121.5 143t-9 205l12 52h197l-11 -56q-12 -51 -0.5 -101t52.5 -86t106 -36h109q51 0 93 20t67 50t42.5 69t24 74t6.5 68q0 62 -31.5 98.5t-93.5 60.5l-217 80q-205 73 -205 287q0 85 27.5 165.5t77.5 145.5t130 104.5t177 39.5h141
q156 0 241.5 -93.5t55.5 -238.5l-16 -80h-197l15 72q15 73 -28.5 119.5t-117.5 46.5h-100q-92 0 -150.5 -73.5t-58.5 -166.5q0 -116 127 -164l205 -74q108 -37 163.5 -104.5t55.5 -181.5q0 -71 -15 -140.5t-48.5 -134t-82 -113.5t-120 -78.5t-156.5 -29.5h-145zM123 -356
l227 278h201l-254 -278h-174z" />
    <glyph glyph-name="C.titl" horiz-adv-x="1169" 
d="M322 532q-36 -169 35.5 -269.5t207.5 -100.5q251 0 328 309h194q-57 -239 -187.5 -367.5t-354.5 -128.5q-107 0 -195.5 39t-148 114t-80.5 183.5t8 247.5l84 389q23 112 68 203.5t112.5 161t162.5 107.5t210 38q135 0 242 -64t158 -178.5t24 -252.5h-193
q24 132 -48.5 219.5t-196.5 87.5q-138 0 -227 -94t-124 -258z" />
    <glyph glyph-name="Cacute.titl" horiz-adv-x="1169" 
d="M322 532q-36 -169 35.5 -269.5t207.5 -100.5q251 0 328 309h194q-57 -239 -187.5 -367.5t-354.5 -128.5q-107 0 -195.5 39t-148 114t-80.5 183.5t8 247.5l84 389q23 112 68 203.5t112.5 161t162.5 107.5t210 38q135 0 242 -64t158 -178.5t24 -252.5h-193
q24 132 -48.5 219.5t-196.5 87.5q-138 0 -227 -94t-124 -258zM707 1516l245 260h222l-287 -260h-180z" />
    <glyph glyph-name="Ccaron.titl" horiz-adv-x="1169" 
d="M322 532q-36 -169 35.5 -269.5t207.5 -100.5q251 0 328 309h194q-57 -239 -187.5 -367.5t-354.5 -128.5q-107 0 -195.5 39t-148 114t-80.5 183.5t8 247.5l84 389q23 112 68 203.5t112.5 161t162.5 107.5t210 38q135 0 242 -64t158 -178.5t24 -252.5h-193
q24 132 -48.5 219.5t-196.5 87.5q-138 0 -227 -94t-124 -258zM500 1790h190l131 -166l203 166h197l-318 -274h-203z" />
    <glyph glyph-name="Ccedilla.titl" horiz-adv-x="1169" 
d="M322 532q-36 -169 35.5 -269.5t207.5 -100.5q251 0 328 309h194q-54 -228 -175 -355t-326 -139l-72 -116h25q64 0 103.5 -41t39.5 -109q0 -91 -62.5 -154t-160.5 -63h-150l21 98h127q46 0 80 30.5t34 74.5q0 32 -21 51t-58 19h-115l18 81l80 132q-93 13 -168 57
t-124.5 117.5t-64.5 175t11 229.5l84 389q23 112 68 203.5t112.5 161t162.5 107.5t210 38q135 0 242 -64t158 -178.5t24 -252.5h-193q24 132 -48.5 219.5t-196.5 87.5q-138 0 -227 -94t-124 -258z" />
    <glyph glyph-name="Ccircumflex.titl" horiz-adv-x="1169" 
d="M322 532q-36 -169 35.5 -269.5t207.5 -100.5q251 0 328 309h194q-57 -239 -187.5 -367.5t-354.5 -128.5q-107 0 -195.5 39t-148 114t-80.5 183.5t8 247.5l84 389q23 112 68 203.5t112.5 161t162.5 107.5t210 38q135 0 242 -64t158 -178.5t24 -252.5h-193
q24 132 -48.5 219.5t-196.5 87.5q-138 0 -227 -94t-124 -258zM440 1516l316 266h200l207 -266h-190l-131 161l-201 -161h-201z" />
    <glyph glyph-name="Cdotaccent.titl" horiz-adv-x="1169" 
d="M322 532q-36 -169 35.5 -269.5t207.5 -100.5q251 0 328 309h194q-57 -239 -187.5 -367.5t-354.5 -128.5q-107 0 -195.5 39t-148 114t-80.5 183.5t8 247.5l84 389q23 112 68 203.5t112.5 161t162.5 107.5t210 38q135 0 242 -64t158 -178.5t24 -252.5h-193
q24 132 -48.5 219.5t-196.5 87.5q-138 0 -227 -94t-124 -258zM692 1522l39 186h221l-39 -186h-221z" />
    <glyph glyph-name="D.titl" horiz-adv-x="1181" 
d="M489 0h-434l303 1434h359q252 0 368.5 -145.5t61.5 -407.5l-76 -359q-52 -245 -203 -383.5t-379 -138.5zM293 188h196q157 0 255.5 94t132.5 265l71 340q36 169 -35 263.5t-213 94.5h-182z" />
    <glyph glyph-name="Eth.titl" horiz-adv-x="1224" 
d="M102 659l41 189h136l122 586h359q252 0 368.5 -145.5t61.5 -407.5l-76 -359q-52 -245 -203 -383.5t-379 -138.5h-434l140 659h-136zM336 188h196q157 0 255.5 94t132.5 265l71 340q36 169 -35 263.5t-213 94.5h-182l-84 -397h279l-41 -189h-279z" />
    <glyph glyph-name="Dcaron.titl" horiz-adv-x="1181" 
d="M489 0h-434l303 1434h359q252 0 368.5 -145.5t61.5 -407.5l-76 -359q-52 -245 -203 -383.5t-379 -138.5zM293 188h196q157 0 255.5 94t132.5 265l71 340q36 169 -35 263.5t-213 94.5h-182zM451 1790h190l131 -166l203 166h196l-317 -274h-203z" />
    <glyph glyph-name="Dcroat.titl" horiz-adv-x="1224" 
d="M102 659l41 189h136l122 586h359q252 0 368.5 -145.5t61.5 -407.5l-76 -359q-52 -245 -203 -383.5t-379 -138.5h-434l140 659h-136zM336 188h196q157 0 255.5 94t132.5 265l71 340q36 169 -35 263.5t-213 94.5h-182l-84 -397h279l-41 -189h-279z" />
    <glyph glyph-name="uni018F.titl" horiz-adv-x="1196" 
d="M489 -25q-219 0 -327 139t-58 375l60 281h778l29 135q35 167 -24.5 266t-198.5 99q-116 0 -208.5 -82t-129.5 -213h-203q56 217 214.5 350t364.5 133q229 0 331 -153t48 -408l-75 -360q-53 -258 -213 -410t-388 -152zM293 471q-29 -134 32 -221.5t185 -87.5
q139 0 242.5 99.5t138.5 264.5l14 68h-586z" />
    <glyph glyph-name="G.titl" horiz-adv-x="1196" 
d="M545 -25q-108 0 -196 39t-147 114t-79.5 183.5t8.5 247.5l80 389q23 112 67 203.5t111 161t161.5 107.5t209.5 38q102 0 190 -37t146.5 -100.5t83.5 -154t6 -191.5h-201q23 131 -45.5 213t-194.5 82q-138 0 -224 -93.5t-120 -258.5l-79 -386q-34 -169 34.5 -269.5
t198.5 -100.5q141 0 227 89.5t117 242.5l21 100h-281l37 176h471l-57 -283q-50 -236 -186.5 -374t-358.5 -138z" />
    <glyph glyph-name="Gbreve.titl" horiz-adv-x="1196" 
d="M545 -25q-108 0 -196 39t-147 114t-79.5 183.5t8.5 247.5l80 389q23 112 67 203.5t111 161t161.5 107.5t209.5 38q102 0 190 -37t146.5 -100.5t83.5 -154t6 -191.5h-201q23 131 -45.5 213t-194.5 82q-138 0 -224 -93.5t-120 -258.5l-79 -386q-34 -169 34.5 -269.5
t198.5 -100.5q141 0 227 89.5t117 242.5l21 100h-281l37 176h471l-57 -283q-50 -236 -186.5 -374t-358.5 -138zM547 1780h155q-12 -72 22.5 -115t102.5 -43q70 0 120 42.5t63 115.5h153q-23 -129 -114.5 -204t-225.5 -75q-140 0 -217 76t-59 203z" />
    <glyph glyph-name="Gcaron.titl" horiz-adv-x="1196" 
d="M545 -25q-108 0 -196 39t-147 114t-79.5 183.5t8.5 247.5l80 389q23 112 67 203.5t111 161t161.5 107.5t209.5 38q102 0 190 -37t146.5 -100.5t83.5 -154t6 -191.5h-201q23 131 -45.5 213t-194.5 82q-138 0 -224 -93.5t-120 -258.5l-79 -386q-34 -169 34.5 -269.5
t198.5 -100.5q141 0 227 89.5t117 242.5l21 100h-281l37 176h471l-57 -283q-50 -236 -186.5 -374t-358.5 -138zM498 1790h190l131 -166l203 166h197l-318 -274h-203z" />
    <glyph glyph-name="Gcircumflex.titl" horiz-adv-x="1196" 
d="M545 -25q-108 0 -196 39t-147 114t-79.5 183.5t8.5 247.5l80 389q23 112 67 203.5t111 161t161.5 107.5t209.5 38q102 0 190 -37t146.5 -100.5t83.5 -154t6 -191.5h-201q23 131 -45.5 213t-194.5 82q-138 0 -224 -93.5t-120 -258.5l-79 -386q-34 -169 34.5 -269.5
t198.5 -100.5q141 0 227 89.5t117 242.5l21 100h-281l37 176h471l-57 -283q-50 -236 -186.5 -374t-358.5 -138zM440 1516l316 266h200l207 -266h-190l-131 161l-201 -161h-201z" />
    <glyph glyph-name="uni0122.titl" horiz-adv-x="1196" 
d="M545 -25q-108 0 -196 39t-147 114t-79.5 183.5t8.5 247.5l80 389q23 112 67 203.5t111 161t161.5 107.5t209.5 38q102 0 190 -37t146.5 -100.5t83.5 -154t6 -191.5h-201q23 131 -45.5 213t-194.5 82q-138 0 -224 -93.5t-120 -258.5l-79 -386q-34 -169 34.5 -269.5
t198.5 -100.5q141 0 227 89.5t117 242.5l21 100h-281l37 176h471l-57 -283q-50 -236 -186.5 -374t-358.5 -138zM172 -356l227 278h201l-254 -278h-174z" />
    <glyph glyph-name="Gdotaccent.titl" horiz-adv-x="1196" 
d="M545 -25q-108 0 -196 39t-147 114t-79.5 183.5t8.5 247.5l80 389q23 112 67 203.5t111 161t161.5 107.5t209.5 38q102 0 190 -37t146.5 -100.5t83.5 -154t6 -191.5h-201q23 131 -45.5 213t-194.5 82q-138 0 -224 -93.5t-120 -258.5l-79 -386q-34 -169 34.5 -269.5
t198.5 -100.5q141 0 227 89.5t117 242.5l21 100h-281l37 176h471l-57 -283q-50 -236 -186.5 -374t-358.5 -138zM692 1522l39 186h221l-39 -186h-221z" />
    <glyph glyph-name="M.titl" horiz-adv-x="1585" 
d="M55 0l303 1434h269l116 -1164l611 1164h268l-303 -1434h-189l179 838l75 331q-61 -141 -145 -307l-463 -862h-182l-94 831q-5 82 -8.5 166.5t-3.5 128.5l-1 43q-26 -149 -65 -333l-178 -836h-189z" />
    <glyph glyph-name="O.titl" horiz-adv-x="1239" 
d="M547 -25q-108 0 -196.5 39t-148.5 114t-81 183.5t8 247.5l84 389q49 233 191.5 371.5t377.5 138.5q108 0 197.5 -39.5t149.5 -115.5t81 -185.5t-8 -249.5l-80 -381q-23 -114 -69.5 -206.5t-116.5 -161.5t-169 -106.5t-220 -37.5zM322 532q-36 -169 35.5 -269.5
t207.5 -100.5q147 0 239.5 95t127.5 263l80 371q37 174 -37.5 276.5t-208.5 102.5q-147 0 -238 -93.5t-125 -258.5z" />
    <glyph glyph-name="Oacute.titl" horiz-adv-x="1239" 
d="M547 -25q-108 0 -196.5 39t-148.5 114t-81 183.5t8 247.5l84 389q49 233 191.5 371.5t377.5 138.5q108 0 197.5 -39.5t149.5 -115.5t81 -185.5t-8 -249.5l-80 -381q-23 -114 -69.5 -206.5t-116.5 -161.5t-169 -106.5t-220 -37.5zM322 532q-36 -169 35.5 -269.5
t207.5 -100.5q147 0 239.5 95t127.5 263l80 371q37 174 -37.5 276.5t-208.5 102.5q-147 0 -238 -93.5t-125 -258.5zM715 1516l246 260h221l-287 -260h-180z" />
    <glyph glyph-name="Obreve.titl" horiz-adv-x="1239" 
d="M547 -25q-108 0 -196.5 39t-148.5 114t-81 183.5t8 247.5l84 389q49 233 191.5 371.5t377.5 138.5q108 0 197.5 -39.5t149.5 -115.5t81 -185.5t-8 -249.5l-80 -381q-23 -114 -69.5 -206.5t-116.5 -161.5t-169 -106.5t-220 -37.5zM322 532q-36 -169 35.5 -269.5
t207.5 -100.5q147 0 239.5 95t127.5 263l80 371q37 174 -37.5 276.5t-208.5 102.5q-147 0 -238 -93.5t-125 -258.5zM557 1780h156q-12 -72 22.5 -115t102.5 -43q70 0 119.5 42.5t62.5 115.5h154q-23 -129 -114.5 -204t-225.5 -75q-140 0 -217.5 76t-59.5 203z" />
    <glyph glyph-name="Ocircumflex.titl" horiz-adv-x="1239" 
d="M547 -25q-108 0 -196.5 39t-148.5 114t-81 183.5t8 247.5l84 389q49 233 191.5 371.5t377.5 138.5q108 0 197.5 -39.5t149.5 -115.5t81 -185.5t-8 -249.5l-80 -381q-23 -114 -69.5 -206.5t-116.5 -161.5t-169 -106.5t-220 -37.5zM322 532q-36 -169 35.5 -269.5
t207.5 -100.5q147 0 239.5 95t127.5 263l80 371q37 174 -37.5 276.5t-208.5 102.5q-147 0 -238 -93.5t-125 -258.5zM451 1516l315 266h201l207 -266h-191l-131 161l-201 -161h-200z" />
    <glyph glyph-name="Odieresis.titl" horiz-adv-x="1239" 
d="M547 -25q-108 0 -196.5 39t-148.5 114t-81 183.5t8 247.5l84 389q49 233 191.5 371.5t377.5 138.5q108 0 197.5 -39.5t149.5 -115.5t81 -185.5t-8 -249.5l-80 -381q-23 -114 -69.5 -206.5t-116.5 -161.5t-169 -106.5t-220 -37.5zM322 532q-36 -169 35.5 -269.5
t207.5 -100.5q147 0 239.5 95t127.5 263l80 371q37 174 -37.5 276.5t-208.5 102.5q-147 0 -238 -93.5t-125 -258.5zM500 1522l39 186h198l-39 -186h-198zM930 1522l39 186h198l-41 -186h-196z" />
    <glyph glyph-name="Ograve.titl" horiz-adv-x="1239" 
d="M547 -25q-108 0 -196.5 39t-148.5 114t-81 183.5t8 247.5l84 389q49 233 191.5 371.5t377.5 138.5q108 0 197.5 -39.5t149.5 -115.5t81 -185.5t-8 -249.5l-80 -381q-23 -114 -69.5 -206.5t-116.5 -161.5t-169 -106.5t-220 -37.5zM322 532q-36 -169 35.5 -269.5
t207.5 -100.5q147 0 239.5 95t127.5 263l80 371q37 174 -37.5 276.5t-208.5 102.5q-147 0 -238 -93.5t-125 -258.5zM541 1776h215l147 -260h-174z" />
    <glyph glyph-name="Ohungarumlaut.titl" horiz-adv-x="1239" 
d="M547 -25q-108 0 -196.5 39t-148.5 114t-81 183.5t8 247.5l84 389q49 233 191.5 371.5t377.5 138.5q108 0 197.5 -39.5t149.5 -115.5t81 -185.5t-8 -249.5l-80 -381q-23 -114 -69.5 -206.5t-116.5 -161.5t-169 -106.5t-220 -37.5zM322 532q-36 -169 35.5 -269.5
t207.5 -100.5q147 0 239.5 95t127.5 263l80 371q37 174 -37.5 276.5t-208.5 102.5q-147 0 -238 -93.5t-125 -258.5zM537 1516l239 264h199l-250 -264h-188zM938 1516l238 264h213l-275 -264h-176z" />
    <glyph glyph-name="Omacron.titl" horiz-adv-x="1239" 
d="M547 -25q-108 0 -196.5 39t-148.5 114t-81 183.5t8 247.5l84 389q49 233 191.5 371.5t377.5 138.5q108 0 197.5 -39.5t149.5 -115.5t81 -185.5t-8 -249.5l-80 -381q-23 -114 -69.5 -206.5t-116.5 -161.5t-169 -106.5t-220 -37.5zM322 532q-36 -169 35.5 -269.5
t207.5 -100.5q147 0 239.5 95t127.5 263l80 371q37 174 -37.5 276.5t-208.5 102.5q-147 0 -238 -93.5t-125 -258.5zM485 1548l31 144h666l-29 -144h-668z" />
    <glyph glyph-name="uni01EA.titl" horiz-adv-x="1239" 
d="M565 162q147 0 239.5 95t127.5 263l80 371q37 174 -37.5 276.5t-208.5 102.5q-147 0 -238 -93.5t-125 -258.5l-81 -386q-36 -169 35.5 -269.5t207.5 -100.5zM129 559l84 389q49 233 191.5 371.5t377.5 138.5q108 0 197.5 -39.5t149.5 -115.5t81 -185.5t-8 -249.5
l-80 -381q-40 -195 -146.5 -325t-279.5 -170q-72 -49 -110.5 -95t-38.5 -98q0 -67 92 -67h45l-57 -144h-52q-87 0 -134.5 43t-47.5 117q0 128 123 227q-101 6 -184 48t-138.5 116.5t-74 180t9.5 239.5z" />
    <glyph glyph-name="Oslash.titl" horiz-adv-x="1243" 
d="M551 -25q-158 0 -272 82l-134 -170l-153 99l166 215q-72 150 -27 358l84 389q24 113 70 204t114.5 160.5t166.5 107.5t218 38q156 0 271 -80l116 152l156 -100l-151 -193q80 -153 32 -369l-80 -379q-50 -236 -195.5 -375t-381.5 -139zM311 403l623 820q-71 55 -166 55
q-147 0 -239.5 -95.5t-127.5 -262.5l-79 -390q-14 -66 -11 -127zM397 215q65 -59 170 -59q148 0 242 95.5t129 264.5l82 379q18 78 8 147z" />
    <glyph glyph-name="Oslashacute.titl" horiz-adv-x="1245" 
d="M551 -25q-158 0 -272 82l-134 -170l-153 99l166 215q-72 150 -27 358l84 389q24 113 70 204t114.5 160.5t166.5 107.5t218 38q156 0 271 -80l116 152l156 -100l-151 -193q80 -153 32 -369l-80 -379q-50 -236 -195.5 -375t-381.5 -139zM311 403l623 820q-71 55 -166 55
q-147 0 -239.5 -95.5t-127.5 -262.5l-79 -390q-14 -66 -11 -127zM397 215q65 -59 170 -59q148 0 242 95.5t129 264.5l82 379q18 78 8 147zM741 1516l246 260h221l-286 -260h-181z" />
    <glyph glyph-name="Otilde.titl" horiz-adv-x="1239" 
d="M547 -25q-108 0 -196.5 39t-148.5 114t-81 183.5t8 247.5l84 389q49 233 191.5 371.5t377.5 138.5q108 0 197.5 -39.5t149.5 -115.5t81 -185.5t-8 -249.5l-80 -381q-23 -114 -69.5 -206.5t-116.5 -161.5t-169 -106.5t-220 -37.5zM322 532q-36 -169 35.5 -269.5
t207.5 -100.5q147 0 239.5 95t127.5 263l80 371q37 174 -37.5 276.5t-208.5 102.5q-147 0 -238 -93.5t-125 -258.5zM442 1518q28 130 95 195t157 65q44 0 91 -20t78.5 -44.5t66 -44.5t57.5 -20q77 0 109 118h139q-27 -129 -94.5 -193.5t-161.5 -64.5q-44 0 -89 20
t-75.5 43.5t-65 43.5t-59.5 20q-37 0 -65 -29.5t-41 -88.5h-142z" />
    <glyph glyph-name="OE.titl" horiz-adv-x="1595" 
d="M760 1245q-147 0 -237.5 -93.5t-125.5 -260.5l-69 -334q-37 -168 34.5 -268.5t204.5 -100.5h164l225 1057h-196zM133 584l72 338q23 112 69.5 203.5t116 161.5t168 108.5t217.5 38.5h930l-39 -187h-512l-86 -399h447l-39 -180h-445l-102 -482h512l-39 -186h-850
q-107 0 -196.5 39.5t-149.5 114.5t-81.5 183.5t7.5 246.5z" />
    <glyph glyph-name="Q.titl" horiz-adv-x="1239" 
d="M543 0q-103 0 -190 39.5t-146 114t-80 182.5t8 246l78 366q49 233 191.5 371.5t377.5 138.5q108 0 197 -39.5t149 -115.5t81.5 -185.5t-7.5 -249.5l-69 -338q-44 -212 -168 -342h221l-39 -188h-604zM328 557q-35 -172 34.5 -270.5t200.5 -98.5q152 0 246 94.5t129 264.5
l74 344q37 174 -37.5 276.5t-208.5 102.5q-147 0 -238 -93.5t-125 -258.5z" />
    <glyph glyph-name="r.calt" horiz-adv-x="661" 
d="M436 999l-26 -120q114 120 266 120h47l-35 -163h-45q-113 0 -191 -69t-106 -194l-123 -573h-188l213 999h188z" />
    <glyph glyph-name="racute.calt" horiz-adv-x="661" 
d="M436 999l-26 -120q114 120 266 120h47l-35 -163h-45q-113 0 -191 -69t-106 -194l-123 -573h-188l213 999h188zM403 1104l256 297h215l-290 -297h-181z" />
    <glyph glyph-name="rcaron.calt" horiz-adv-x="661" 
d="M436 999l-26 -120q114 120 266 120h47l-35 -163h-45q-113 0 -191 -69t-106 -194l-123 -573h-188l213 999h188zM242 1401h164l110 -180l191 180h184l-287 -297h-203z" />
    <glyph glyph-name="uni0157.calt" horiz-adv-x="661" 
d="M436 999l-26 -120q114 120 266 120h47l-35 -163h-45q-113 0 -191 -69t-106 -194l-123 -573h-188l213 999h188zM-215 -356l227 278h201l-254 -278h-174z" />
    <glyph glyph-name="germandbls.calt" horiz-adv-x="1253" 
d="M762 1434h569l-33 -156l-421 -461q135 -20 213.5 -108t78.5 -217q0 -97 -39.5 -187t-107 -157.5t-165 -107.5t-206.5 -40h-272l39 188h250q121 0 212 88.5t91 204.5q0 83 -55.5 136t-149.5 53h-152l29 131l406 450h-316q-235 0 -291 -268l-209 -983h-198l213 999
q46 225 168.5 330t345.5 105z" />
    <glyph glyph-name="iacute_j.loclNLD" horiz-adv-x="925" 
d="M248 999h190l-213 -999h-190zM229 -385l35 168h76q50 0 83.5 30t45.5 87l233 1099h189l-238 -1126q-32 -148 -109.5 -203t-217.5 -55h-97zM268 1104l256 297h215l-290 -297h-181zM721 1104l256 297h215l-291 -297h-180z" />
    <glyph glyph-name="a.ss01" horiz-adv-x="1277" 
d="M526 -25q-196 0 -324 126.5t-128 334.5q0 124 47 234t124.5 187t181.5 122t216 45q126 0 225.5 -53t149.5 -144l37 172h190l-213 -999h-188l24 121q-55 -64 -151 -105t-191 -41zM262 457q0 -130 88.5 -215.5t220.5 -85.5q161 0 271 111.5t110 277.5q0 132 -86.5 216.5
t-222.5 84.5q-155 0 -268 -115.5t-113 -273.5z" />
    <glyph glyph-name="aacute.ss01" horiz-adv-x="1277" 
d="M526 -25q-196 0 -324 126.5t-128 334.5q0 124 47 234t124.5 187t181.5 122t216 45q126 0 225.5 -53t149.5 -144l37 172h190l-213 -999h-188l24 121q-55 -64 -151 -105t-191 -41zM262 457q0 -130 88.5 -215.5t220.5 -85.5q161 0 271 111.5t110 277.5q0 132 -86.5 216.5
t-222.5 84.5q-155 0 -268 -115.5t-113 -273.5zM668 1104l256 297h215l-291 -297h-180z" />
    <glyph glyph-name="abreve.ss01" horiz-adv-x="1277" 
d="M526 -25q-196 0 -324 126.5t-128 334.5q0 124 47 234t124.5 187t181.5 122t216 45q126 0 225.5 -53t149.5 -144l37 172h190l-213 -999h-188l24 121q-55 -64 -151 -105t-191 -41zM262 457q0 -130 88.5 -215.5t220.5 -85.5q161 0 271 111.5t110 277.5q0 132 -86.5 216.5
t-222.5 84.5q-155 0 -268 -115.5t-113 -273.5zM528 1395h146q-17 -83 15.5 -130.5t101.5 -47.5t123 49.5t71 128.5h145q-29 -143 -121.5 -224t-222.5 -81q-136 0 -211.5 85.5t-46.5 219.5z" />
    <glyph glyph-name="acircumflex.ss01" horiz-adv-x="1277" 
d="M526 -25q-196 0 -324 126.5t-128 334.5q0 124 47 234t124.5 187t181.5 122t216 45q126 0 225.5 -53t149.5 -144l37 172h190l-213 -999h-188l24 121q-55 -64 -151 -105t-191 -41zM262 457q0 -130 88.5 -215.5t220.5 -85.5q161 0 271 111.5t110 277.5q0 132 -86.5 216.5
t-222.5 84.5q-155 0 -268 -115.5t-113 -273.5zM442 1104l287 297h203l158 -297h-162l-113 180l-190 -180h-183z" />
    <glyph glyph-name="adieresis.ss01" horiz-adv-x="1277" 
d="M526 -25q-196 0 -324 126.5t-128 334.5q0 124 47 234t124.5 187t181.5 122t216 45q126 0 225.5 -53t149.5 -144l37 172h190l-213 -999h-188l24 121q-55 -64 -151 -105t-191 -41zM262 457q0 -130 88.5 -215.5t220.5 -85.5q161 0 271 111.5t110 277.5q0 132 -86.5 216.5
t-222.5 84.5q-155 0 -268 -115.5t-113 -273.5zM481 1143l41 188h205l-41 -188h-205zM862 1143l41 188h203l-41 -188h-203z" />
    <glyph glyph-name="uni1EA1.ss01" horiz-adv-x="1277" 
d="M526 -25q-196 0 -324 126.5t-128 334.5q0 124 47 234t124.5 187t181.5 122t216 45q126 0 225.5 -53t149.5 -144l37 172h190l-213 -999h-188l24 121q-55 -64 -151 -105t-191 -41zM262 457q0 -130 88.5 -215.5t220.5 -85.5q161 0 271 111.5t110 277.5q0 132 -86.5 216.5
t-222.5 84.5q-155 0 -268 -115.5t-113 -273.5zM340 -424l49 236h205l-49 -236h-205z" />
    <glyph glyph-name="agrave.ss01" horiz-adv-x="1277" 
d="M526 -25q-196 0 -324 126.5t-128 334.5q0 124 47 234t124.5 187t181.5 122t216 45q126 0 225.5 -53t149.5 -144l37 172h190l-213 -999h-188l24 121q-55 -64 -151 -105t-191 -41zM262 457q0 -130 88.5 -215.5t220.5 -85.5q161 0 271 111.5t110 277.5q0 132 -86.5 216.5
t-222.5 84.5q-155 0 -268 -115.5t-113 -273.5zM510 1403h205l127 -299h-164z" />
    <glyph glyph-name="amacron.ss01" horiz-adv-x="1277" 
d="M526 -25q-196 0 -324 126.5t-128 334.5q0 124 47 234t124.5 187t181.5 122t216 45q126 0 225.5 -53t149.5 -144l37 172h190l-213 -999h-188l24 121q-55 -64 -151 -105t-191 -41zM262 457q0 -130 88.5 -215.5t220.5 -85.5q161 0 271 111.5t110 277.5q0 132 -86.5 216.5
t-222.5 84.5q-155 0 -268 -115.5t-113 -273.5zM449 1135l32 149h647l-32 -149h-647z" />
    <glyph glyph-name="aogonek.ss01" horiz-adv-x="1277" 
d="M526 -25q-196 0 -324 126.5t-128 334.5q0 124 47 234t124.5 187t181.5 122t216 45q126 0 225.5 -53t149.5 -144l37 172h190l-213 -999q-80 -55 -121 -101t-41 -100q0 -34 25.5 -50.5t67.5 -16.5h45l-58 -144h-51q-88 0 -135 43t-47 117q0 77 38.5 136.5t112.5 115.5h-24
l24 121q-55 -64 -151 -105t-191 -41zM262 457q0 -130 88.5 -215.5t220.5 -85.5q161 0 271 111.5t110 277.5q0 132 -86.5 216.5t-222.5 84.5q-155 0 -268 -115.5t-113 -273.5z" />
    <glyph glyph-name="aring.ss01" horiz-adv-x="1277" 
d="M526 -25q-196 0 -324 126.5t-128 334.5q0 124 47 234t124.5 187t181.5 122t216 45q126 0 225.5 -53t149.5 -144l37 172h190l-213 -999h-188l24 121q-55 -64 -151 -105t-191 -41zM262 457q0 -130 88.5 -215.5t220.5 -85.5q161 0 271 111.5t110 277.5q0 132 -86.5 216.5
t-222.5 84.5q-155 0 -268 -115.5t-113 -273.5zM504 1307q0 107 84.5 181.5t204.5 74.5q109 0 180 -60.5t71 -154.5q0 -107 -83 -181.5t-203 -74.5q-109 0 -181.5 61.5t-72.5 153.5zM633 1315q0 -51 35.5 -84t93.5 -33q64 0 110 42t46 101q0 49 -37.5 81t-94.5 32
q-65 0 -109 -39.5t-44 -99.5z" />
    <glyph glyph-name="aringacute.ss01" horiz-adv-x="1277" 
d="M526 -25q-196 0 -324 126.5t-128 334.5q0 124 47 234t124.5 187t181.5 122t216 45q126 0 225.5 -53t149.5 -144l37 172h190l-213 -999h-188l24 121q-55 -64 -151 -105t-191 -41zM262 457q0 -130 88.5 -215.5t220.5 -85.5q161 0 271 111.5t110 277.5q0 132 -86.5 216.5
t-222.5 84.5q-155 0 -268 -115.5t-113 -273.5zM543 1307q0 104 79 177.5t195 78.5l172 198h215l-229 -233q51 -28 79.5 -75t28.5 -105q0 -107 -83 -181.5t-203 -74.5q-109 0 -181.5 61.5t-72.5 153.5zM672 1315q0 -51 35.5 -84t93.5 -33q63 0 109 41.5t46 101.5q0 49 -37 81
t-94 32q-65 0 -109 -39.5t-44 -99.5z" />
    <glyph glyph-name="atilde.ss01" horiz-adv-x="1277" 
d="M526 -25q-196 0 -324 126.5t-128 334.5q0 124 47 234t124.5 187t181.5 122t216 45q126 0 225.5 -53t149.5 -144l37 172h190l-213 -999h-188l24 121q-55 -64 -151 -105t-191 -41zM262 457q0 -130 88.5 -215.5t220.5 -85.5q161 0 271 111.5t110 277.5q0 132 -86.5 216.5
t-222.5 84.5q-155 0 -268 -115.5t-113 -273.5zM420 1120q24 147 89 218t155 71q38 0 71 -16t57 -39t46 -46t47.5 -39t52.5 -16q77 0 111 148h131q-25 -143 -93 -216t-153 -73q-50 0 -91 24t-64.5 53t-53.5 53t-59 24q-88 0 -117 -146h-129z" />
    <glyph glyph-name="s.ss02" horiz-adv-x="933" 
d="M332 0q-153 0 -237.5 79.5t-61.5 201.5l6 30h182l-4 -22q-13 -66 30 -106t122 -40h75q70 0 122.5 33.5t66.5 97.5q12 61 -13.5 100.5t-84.5 51.5l-207 49q-230 52 -178 289q24 115 116 175t228 60h104q148 0 225.5 -69t55.5 -182l-5 -23h-176l2 20q9 55 -29.5 87
t-101.5 32h-69q-155 0 -176 -110q-23 -110 96 -136l215 -47q110 -23 157 -105.5t19 -207.5q-26 -121 -122.5 -189.5t-235.5 -68.5h-121z" />
    <glyph glyph-name="sacute.ss02" horiz-adv-x="933" 
d="M332 0q-153 0 -237.5 79.5t-61.5 201.5l6 30h182l-4 -22q-13 -66 30 -106t122 -40h75q70 0 122.5 33.5t66.5 97.5q12 61 -13.5 100.5t-84.5 51.5l-207 49q-230 52 -178 289q24 115 116 175t228 60h104q148 0 225.5 -69t55.5 -182l-5 -23h-176l2 20q9 55 -29.5 87
t-101.5 32h-69q-155 0 -176 -110q-23 -110 96 -136l215 -47q110 -23 157 -105.5t19 -207.5q-26 -121 -122.5 -189.5t-235.5 -68.5h-121zM498 1104l256 297h215l-291 -297h-180z" />
    <glyph glyph-name="scaron.ss02" horiz-adv-x="933" 
d="M332 0q-153 0 -237.5 79.5t-61.5 201.5l6 30h182l-4 -22q-13 -66 30 -106t122 -40h75q70 0 122.5 33.5t66.5 97.5q12 61 -13.5 100.5t-84.5 51.5l-207 49q-230 52 -178 289q24 115 116 175t228 60h104q148 0 225.5 -69t55.5 -182l-5 -23h-176l2 20q9 55 -29.5 87
t-101.5 32h-69q-155 0 -176 -110q-23 -110 96 -136l215 -47q110 -23 157 -105.5t19 -207.5q-26 -121 -122.5 -189.5t-235.5 -68.5h-121zM336 1401h164l110 -180l191 180h184l-287 -297h-202z" />
    <glyph glyph-name="scedilla.ss02" horiz-adv-x="933" 
d="M332 0q-153 0 -237.5 79.5t-61.5 201.5l6 30h182l-4 -22q-13 -66 30 -106t122 -40h75q70 0 122.5 33.5t66.5 97.5q12 61 -13.5 100.5t-84.5 51.5l-207 49q-230 52 -178 289q24 115 116 175t228 60h104q148 0 225.5 -69t55.5 -182l-5 -23h-176l2 20q9 55 -29.5 87
t-101.5 32h-69q-155 0 -176 -110q-23 -110 96 -136l215 -47q110 -23 157 -105.5t19 -207.5q-24 -117 -116 -185t-226 -73l-86 -139h25q64 0 103.5 -41t39.5 -109q0 -91 -62.5 -154t-160.5 -63h-150l21 98h127q46 0 80 30.5t34 74.5q0 32 -21.5 51t-58.5 19h-114l18 81
l92 152h-24z" />
    <glyph glyph-name="scircumflex.ss02" horiz-adv-x="933" 
d="M332 0q-153 0 -237.5 79.5t-61.5 201.5l6 30h182l-4 -22q-13 -66 30 -106t122 -40h75q70 0 122.5 33.5t66.5 97.5q12 61 -13.5 100.5t-84.5 51.5l-207 49q-230 52 -178 289q24 115 116 175t228 60h104q148 0 225.5 -69t55.5 -182l-5 -23h-176l2 20q9 55 -29.5 87
t-101.5 32h-69q-155 0 -176 -110q-23 -110 96 -136l215 -47q110 -23 157 -105.5t19 -207.5q-26 -121 -122.5 -189.5t-235.5 -68.5h-121zM272 1104l287 297h203l158 -297h-162l-113 180l-190 -180h-183z" />
    <glyph glyph-name="uni0219.ss02" horiz-adv-x="933" 
d="M332 0q-153 0 -237.5 79.5t-61.5 201.5l6 30h182l-4 -22q-13 -66 30 -106t122 -40h75q70 0 122.5 33.5t66.5 97.5q12 61 -13.5 100.5t-84.5 51.5l-207 49q-230 52 -178 289q24 115 116 175t228 60h104q148 0 225.5 -69t55.5 -182l-5 -23h-176l2 20q9 55 -29.5 87
t-101.5 32h-69q-155 0 -176 -110q-23 -110 96 -136l215 -47q110 -23 157 -105.5t19 -207.5q-26 -121 -122.5 -189.5t-235.5 -68.5h-121zM59 -356l228 278h200l-254 -278h-174z" />
    <glyph glyph-name="t.ss03" horiz-adv-x="724" 
d="M84 836l35 163h84q61 0 96.5 28t48.5 93l31 148h178l-57 -269h282l-34 -163h-281l-109 -502q-19 -89 10.5 -129.5t114.5 -40.5h121l-35 -164h-139q-158 0 -227 83t-35 239l111 514h-195z" />
    <glyph glyph-name="tbar.ss03" horiz-adv-x="749" 
d="M113 852l30 147h82q63 0 99 28t49 93l30 148h179l-58 -269h281l-31 -147h-280l-62 -285h283l-27 -123h-282l-27 -129q-19 -89 12 -129.5t115 -40.5h119l-31 -145h-141q-157 0 -225 83t-35 239l26 122h-194l26 123h193l61 285h-192z" />
    <glyph glyph-name="tcaron.ss03" horiz-adv-x="724" 
d="M84 836l35 163h84q61 0 96.5 28t48.5 93l31 148h178l-57 -269h282l-34 -163h-281l-109 -502q-19 -89 10.5 -129.5t114.5 -40.5h121l-35 -164h-139q-158 0 -227 83t-35 239l111 514h-195zM684 1096l127 409h188l-161 -409h-154z" />
    <glyph glyph-name="uni0163.ss03" horiz-adv-x="724" 
d="M84 836l35 163h84q61 0 96.5 28t48.5 93l31 148h178l-57 -269h282l-34 -163h-281l-109 -502q-19 -89 10.5 -129.5t114.5 -40.5h121l-35 -164h-120l-87 -139h25q64 0 103.5 -41t39.5 -109q0 -91 -62.5 -154t-160.5 -63h-149l20 98h127q46 0 80.5 30.5t34.5 74.5
q0 32 -21.5 51t-58.5 19h-115l19 81l96 160q-110 22 -155.5 102.5t-16.5 211.5l111 514h-195z" />
    <glyph glyph-name="uni021B.ss03" horiz-adv-x="724" 
d="M84 836l35 163h84q61 0 96.5 28t48.5 93l31 148h178l-57 -269h282l-34 -163h-281l-109 -502q-19 -89 10.5 -129.5t114.5 -40.5h121l-35 -164h-139q-158 0 -227 83t-35 239l111 514h-195zM37 -356l227 278h201l-254 -278h-174z" />
    <glyph glyph-name="ae.ss04" horiz-adv-x="2074" 
d="M504 -16q-191 0 -310.5 122.5t-119.5 315.5q0 115 41 223.5t113.5 192.5t179.5 135t231 51q134 0 234.5 -66.5t134.5 -175.5l45 217h188l-49 -206q60 110 176 170.5t240 60.5q183 0 298 -109.5t115 -275.5q0 -80 -24 -164h-809q-10 -70 0.5 -130.5t41 -109t89 -76.5
t139.5 -28q100 0 185 48.5t122 133.5h189q-60 -162 -196.5 -250t-311.5 -88q-135 0 -234 60.5t-135 159.5l-39 -195h-184l41 188q-68 -99 -170.5 -151.5t-220.5 -52.5zM258 451q0 -130 83.5 -215.5t217.5 -85.5q166 0 279.5 117.5t113.5 283.5q0 134 -84.5 216.5
t-220.5 82.5q-161 0 -275 -119t-114 -280zM1219 602h616q15 115 -55.5 192.5t-196.5 77.5q-119 0 -220.5 -73t-143.5 -197z" />
    <glyph glyph-name="aeacute.ss04" horiz-adv-x="2074" 
d="M504 -16q-191 0 -310.5 122.5t-119.5 315.5q0 115 41 223.5t113.5 192.5t179.5 135t231 51q134 0 234.5 -66.5t134.5 -175.5l45 217h188l-49 -206q60 110 176 170.5t240 60.5q183 0 298 -109.5t115 -275.5q0 -80 -24 -164h-809q-10 -70 0.5 -130.5t41 -109t89 -76.5
t139.5 -28q100 0 185 48.5t122 133.5h189q-60 -162 -196.5 -250t-311.5 -88q-135 0 -234 60.5t-135 159.5l-39 -195h-184l41 188q-68 -99 -170.5 -151.5t-220.5 -52.5zM258 451q0 -130 83.5 -215.5t217.5 -85.5q166 0 279.5 117.5t113.5 283.5q0 134 -84.5 216.5
t-220.5 82.5q-161 0 -275 -119t-114 -280zM1071 1104l256 297h215l-291 -297h-180zM1219 602h616q15 115 -55.5 192.5t-196.5 77.5q-119 0 -220.5 -73t-143.5 -197z" />
    <glyph glyph-name="f_f.dlig" horiz-adv-x="1259" 
d="M119 0l178 836h-199l33 163h201l26 123q61 312 385 312h107l-33 -156h-76q-82 0 -129.5 -39t-66.5 -123l-25 -117h391l25 123q32 158 128 235t259 77h117l-33 -156h-86q-82 0 -130 -39t-67 -123l-24 -117h248l-35 -163h-248l-178 -836h-189l179 836h-392l-178 -836h-188z
" />
    <glyph glyph-name="f_f_i.dlig" horiz-adv-x="1712" 
d="M119 0l178 836h-199l33 163h201l26 123q61 312 385 312h107l-33 -156h-76q-82 0 -129.5 -39t-66.5 -123l-25 -117h391l25 123q32 158 128 235t259 77h319l-32 -156h-289q-82 0 -130 -39t-67 -123l-24 -117h579l-213 -999h-188l176 836h-389l-178 -836h-189l179 836h-392
l-178 -836h-188z" />
    <glyph glyph-name="f_f_l.dlig" horiz-adv-x="1712" 
d="M119 0l178 836h-199l33 163h201l26 123q61 312 385 312h107l-33 -156h-76q-82 0 -129.5 -39t-66.5 -123l-25 -117h391l25 123q32 158 128 235t259 77h98l-32 -156h-68q-82 0 -130 -39t-67 -123l-24 -117h389l92 435h188l-303 -1434h-188l176 836h-389l-178 -836h-189
l179 836h-392l-178 -836h-188z" />
    <glyph glyph-name="f_f_t.dlig" horiz-adv-x="1910" 
d="M119 0l178 836h-199l33 163h201l28 134q31 152 126 226.5t262 74.5h112l-33 -156h-86q-82 0 -129.5 -39.5t-66.5 -122.5l-25 -117h400l28 134q31 152 125.5 226.5t263.5 74.5h90l-32 -156h-66q-82 0 -129.5 -39.5t-64.5 -122.5l-27 -117h391l57 269h187l-55 -269h280
l-35 -163h-280l-111 -514q-15 -76 18.5 -117t112.5 -41h117l-35 -164h-137q-330 0 -264 322l110 514h-389l-180 -836h-188l178 836h-400l-178 -836h-188z" />
    <glyph glyph-name="f_i.dlig" horiz-adv-x="1132" 
d="M119 0l178 836h-199l33 163h201l26 123q32 158 127 235t258 77h320l-31 -156h-291q-82 0 -129.5 -39t-66.5 -123l-25 -117h580l-213 -999h-189l176 836h-389l-178 -836h-188z" />
    <glyph glyph-name="f_l.dlig" horiz-adv-x="1132" 
d="M119 0l178 836h-199l33 163h201l26 123q32 158 127 235t258 77h99l-33 -156h-68q-82 0 -129.5 -39t-66.5 -123l-25 -117h389l92 435h191l-305 -1434h-189l176 836h-389l-178 -836h-188z" />
    <glyph glyph-name="f_t.dlig" horiz-adv-x="1323" 
d="M119 0l178 836h-199l33 163h201l28 134q31 152 126 226.5t262 74.5h90l-31 -156h-66q-82 0 -129.5 -39.5t-66.5 -122.5l-25 -117h391l56 269h188l-57 -269h282l-34 -163h-281l-111 -514q-15 -76 17.5 -117t113.5 -41h117l-35 -164h-137q-333 0 -264 322l111 514h-392
l-178 -836h-188z" />
    <glyph glyph-name="zero.zero" horiz-adv-x="1259" 
d="M565 -20q-239 0 -361.5 162t-66.5 421l74 348q113 543 580 543q118 0 210 -41.5t148.5 -120t74.5 -191t-12 -253.5l-71 -348q-54 -255 -199 -387.5t-377 -132.5zM322 465l686 659q-29 68 -89 105t-143 37q-151 0 -241 -96.5t-129 -284.5l-74 -350q-9 -54 -10 -70z
M344 307q29 -66 90 -102.5t144 -36.5q152 0 241.5 95.5t128.5 283.5l72 338q10 45 10 80z" />
    <glyph glyph-name="two.ss02" horiz-adv-x="1124" 
d="M-10 0l35 164l618 524q77 65 115.5 99t80.5 79.5t62.5 84.5t30.5 85q21 96 -28 156.5t-140 60.5h-80q-97 0 -171 -61t-95 -166l-23 -108h-194l32 153q35 161 155.5 262t277.5 101h153q181 0 267.5 -109t46.5 -293q-16 -72 -45 -131.5t-82 -119t-100 -101.5t-136 -115
l-436 -375h639l-41 -190h-942z" />
    <glyph glyph-name="zero.tf" horiz-adv-x="1310" 
d="M590 -20q-239 0 -361.5 162t-66.5 421l74 348q113 543 579 543q241 0 361 -164.5t61 -441.5l-72 -348q-54 -255 -198.5 -387.5t-376.5 -132.5zM356 535q-35 -165 35 -266t211 -101q152 0 242 95.5t129 283.5l71 338q36 174 -32.5 277.5t-210.5 103.5q-151 0 -241.5 -96.5
t-129.5 -284.5z" />
    <glyph glyph-name="one.tf" horiz-adv-x="1310" 
d="M119 0l37 178h387l178 840h-346l39 180h211q78 0 118.5 32.5t55.5 106.5l20 97h189l-267 -1256h349l-39 -178h-932z" />
    <glyph glyph-name="two.tf" horiz-adv-x="1310" 
d="M80 0l35 164l618 516q79 64 121.5 102t88 90t64.5 102t19 107q0 87 -61 138t-164 51q-111 0 -197 -85t-106 -220h-197q34 235 178.5 364t349.5 129q183 0 291.5 -96.5t108.5 -253.5q0 -71 -22 -137.5t-54.5 -118.5t-87.5 -109.5t-102.5 -97.5t-118.5 -94l-428 -361h647
l-41 -190h-942z" />
    <glyph glyph-name="three.tf" horiz-adv-x="1310" 
d="M569 -25q-142 0 -249 58t-154.5 163t-18.5 234h197q-25 -118 43 -195t195 -77q145 0 236 92t91 209q0 88 -69 137t-193 49h-53l37 172h53q142 0 244 78.5t102 198.5q0 86 -61.5 134t-167.5 48q-107 0 -195.5 -68t-113.5 -184h-193q43 208 187 321t337 113
q189 0 298.5 -88.5t109.5 -239.5q0 -136 -84.5 -241t-231.5 -156q93 -29 143 -96t50 -164q0 -213 -153.5 -355.5t-385.5 -142.5z" />
    <glyph glyph-name="four.tf" horiz-adv-x="1310" 
d="M115 326l39 176l628 932h219l-626 -932h418l73 348h193l-74 -348h209l-39 -176h-209l-67 -326h-199l68 326h-633z" />
    <glyph glyph-name="five.tf" horiz-adv-x="1310" 
d="M580 -25q-105 0 -193.5 34.5t-147 94t-83.5 144.5t-6 182h200q-19 -122 48.5 -193t195.5 -71q140 0 243 110t103 256q0 109 -66 169.5t-180 60.5q-152 0 -262 -113h-180l235 785h766l-39 -189h-589l-133 -418q114 88 258 88q182 0 286.5 -92.5t104.5 -269.5
q0 -160 -73 -292.5t-202 -209t-286 -76.5z" />
    <glyph glyph-name="six.tf" horiz-adv-x="1310" 
d="M621 -25q-201 0 -332 124t-131 311q0 224 215 477l467 547h260l-453 -521q55 19 105 19q180 0 298.5 -118.5t118.5 -299.5q0 -145 -75.5 -270t-201.5 -197t-271 -72zM356 420q0 -111 75 -187.5t192 -76.5q140 0 244 102.5t104 247.5q0 117 -74.5 191.5t-194.5 74.5
q-140 0 -243 -106t-103 -246z" />
    <glyph glyph-name="seven.tf" horiz-adv-x="1310" 
d="M205 0l842 1245h-713l39 189h940l-37 -170l-850 -1264h-221z" />
    <glyph glyph-name="eight.tf" horiz-adv-x="1310" 
d="M584 -25q-198 0 -320.5 97.5t-122.5 259.5q0 145 96.5 265t241.5 157q-164 75 -164 250q0 126 68.5 231t183 164t248.5 59q187 0 301.5 -87t114.5 -236q0 -75 -27.5 -146.5t-96 -137t-169.5 -97.5q87 -35 137.5 -108t50.5 -177q0 -136 -72 -249.5t-196.5 -179
t-273.5 -65.5zM344 352q0 -92 66.5 -150.5t177.5 -58.5q139 0 239.5 93.5t100.5 220.5q0 93 -64 146.5t-172 53.5q-141 0 -244.5 -91t-103.5 -214zM500 1014q0 -84 60.5 -135.5t162.5 -51.5q137 0 228 81.5t91 199.5q0 86 -63.5 138t-165.5 52q-128 0 -220.5 -86t-92.5 -198
z" />
    <glyph glyph-name="nine.tf" horiz-adv-x="1310" 
d="M784 1458q202 0 332.5 -123.5t130.5 -310.5q0 -224 -215 -477l-467 -547h-260l453 520q-52 -18 -105 -18q-180 0 -298.5 118.5t-118.5 299.5q0 145 75.5 269.5t201.5 196.5t271 72zM434 928q0 -118 74 -192t194 -74q140 0 243.5 106t103.5 246q0 111 -75 187.5t-192 76.5
q-140 0 -244 -102.5t-104 -247.5z" />
    <glyph glyph-name="zero.tf.zero" horiz-adv-x="1310" 
d="M590 -20q-239 0 -361.5 162t-66.5 421l74 348q113 543 579 543q241 0 361 -164.5t61 -441.5l-72 -348q-54 -255 -198.5 -387.5t-376.5 -132.5zM346 465l686 659q-29 68 -88.5 105t-142.5 37q-151 0 -241.5 -96.5t-129.5 -284.5l-74 -350q-9 -54 -10 -70zM369 307
q29 -66 89.5 -102.5t143.5 -36.5q152 0 242 95.5t129 283.5l71 338q11 49 11 80z" />
    <glyph glyph-name="zero.dnom" horiz-adv-x="774" 
d="M303 -14q-145 0 -219 96t-39 254l47 215q68 323 350 323q146 0 218.5 -98t37.5 -266l-45 -215q-33 -151 -121 -230t-229 -79zM174 322q-21 -100 18 -156.5t121 -56.5q88 0 139.5 55t75.5 164l43 204q21 100 -18.5 161t-120.5 61q-88 0 -138.5 -57.5t-76.5 -172.5z" />
    <glyph glyph-name="one.dnom" horiz-adv-x="413" 
d="M387 858l-182 -858h-131l129 600h-140l27 117h51q43 0 73 25.5t38 64.5l12 51h123z" />
    <glyph glyph-name="two.dnom" horiz-adv-x="688" 
d="M-47 0l24 106l363 304q64 51 94.5 79.5t55 69.5t24.5 84q0 51 -35.5 80t-93.5 29q-64 0 -110.5 -47.5t-61.5 -129.5h-127q29 148 111 223.5t206 75.5q110 0 178 -58t68 -152q0 -32 -8 -62.5t-16.5 -53t-31 -51.5t-35 -44t-45.5 -44.5t-44.5 -39t-50.5 -41.5l-238 -203
h371l-27 -125h-571z" />
    <glyph glyph-name="three.dnom" horiz-adv-x="706" 
d="M264 -14q-135 0 -211 78t-51 196h131q-13 -66 26.5 -111t108.5 -45q82 0 134.5 50t52.5 118q0 52 -38 81.5t-106 29.5h-39l25 113h37q81 0 135.5 44t54.5 113q0 49 -33.5 76t-93.5 27q-62 0 -113 -38.5t-65 -105.5h-127q27 126 116.5 194t207.5 68q114 0 177.5 -52
t63.5 -144q0 -77 -50 -143t-134 -95q113 -35 113 -157q0 -123 -88.5 -210t-233.5 -87z" />
    <glyph glyph-name="four.dnom" horiz-adv-x="706" 
d="M-16 193l24 116l369 551h145l-364 -551h231l43 201h127l-43 -201h123l-27 -116h-123l-40 -193h-130l41 193h-376z" />
    <glyph glyph-name="five.dnom" horiz-adv-x="702" 
d="M262 -14q-128 0 -204.5 77t-53.5 197h129q-10 -69 27.5 -109t109.5 -40q77 0 140 63.5t63 151.5q0 59 -35 92t-98 33q-93 0 -156 -66l-118 6l139 469h467l-25 -123h-350l-76 -237q28 24 70.5 37.5t81.5 13.5q108 0 170.5 -55.5t62.5 -155.5q0 -147 -99.5 -250.5
t-244.5 -103.5z" />
    <glyph glyph-name="six.dnom" horiz-adv-x="704" 
d="M276 -14q-119 0 -193.5 71t-74.5 179q0 38 11.5 77t24.5 67.5t42 69t45 60.5t53 63l244 287h164l-264 -303q28 4 45 4q108 0 178 -68.5t70 -173.5q0 -135 -102.5 -234t-242.5 -99zM139 250q0 -61 42 -103.5t106 -42.5q81 0 143 60t62 145q0 65 -41.5 106.5t-108.5 41.5
q-80 0 -141.5 -62t-61.5 -145z" />
    <glyph glyph-name="seven.dnom" horiz-adv-x="624" 
d="M-4 0l491 737h-413l26 123h566l-23 -110l-498 -750h-149z" />
    <glyph glyph-name="eight.dnom" horiz-adv-x="718" 
d="M276 -14q-122 0 -196 58.5t-74 156.5q0 84 56 155.5t143 96.5q-94 48 -94 145q0 116 89 196t216 80q114 0 183 -52.5t69 -143.5q0 -72 -44 -133t-128 -92q48 -23 77 -66.5t29 -103.5q0 -126 -94 -211.5t-232 -85.5zM139 213q0 -52 37.5 -84.5t99.5 -32.5q77 0 136 52.5
t59 123.5q0 53 -37 84t-98 31q-79 0 -138 -51.5t-59 -122.5zM233 612q-3 -48 32 -80t95 -32q76 0 130.5 48.5t54.5 113.5q0 47 -36 77.5t-93 30.5q-73 0 -126.5 -45.5t-56.5 -112.5z" />
    <glyph glyph-name="nine.dnom" horiz-adv-x="704" 
d="M401 874q119 0 194 -70.5t75 -178.5q0 -47 -13.5 -91t-44.5 -91.5t-52.5 -75t-65.5 -80.5l-244 -287h-164l264 303q-28 -4 -45 -4q-108 0 -178 68.5t-70 173.5q0 135 102.5 234t241.5 99zM186 551q0 -65 41.5 -106.5t108.5 -41.5q80 0 141.5 62t61.5 145q0 61 -42 103.5
t-106 42.5q-81 0 -143 -60t-62 -145z" />
    <glyph glyph-name="zero.numr" horiz-adv-x="772" 
d="M426 561q-145 0 -219 96t-39 254l47 215q68 324 350 324q146 0 218.5 -98.5t37.5 -266.5l-45 -215q-33 -151 -121 -230t-229 -79zM297 897q-21 -100 18 -156.5t121 -56.5q88 0 139.5 55t75.5 164l43 205q21 100 -18.5 160.5t-120.5 60.5q-88 0 -138.5 -57t-76.5 -172z
" />
    <glyph glyph-name="one.numr" horiz-adv-x="413" 
d="M508 1434l-182 -859h-131l129 601h-140l27 116h51q43 0 73 25.5t38 64.5l12 52h123z" />
    <glyph glyph-name="two.numr" horiz-adv-x="686" 
d="M74 575l24 107l363 303q93 75 133.5 124t40.5 110q0 51 -35.5 79.5t-93.5 28.5q-65 0 -111 -47t-61 -129h-127q29 148 111 223.5t206 75.5q110 0 178 -58.5t68 -152.5q0 -32 -8 -62.5t-16.5 -53t-31 -51.5t-35 -44t-45.5 -44.5t-44.5 -39t-50.5 -41.5l-238 -203h371
l-27 -125h-571z" />
    <glyph glyph-name="three.numr" horiz-adv-x="704" 
d="M385 561q-134 0 -210.5 78.5t-51.5 196.5h131q-13 -66 26.5 -111t108.5 -45q82 0 134 49.5t52 118.5q0 52 -37.5 81t-105.5 29h-39l25 113h37q81 0 135.5 44.5t54.5 113.5q0 49 -33.5 75.5t-93.5 26.5q-62 0 -113 -38t-65 -105h-127q27 126 116.5 194t207.5 68
q114 0 177.5 -52.5t63.5 -144.5q0 -77 -50 -142.5t-134 -94.5q113 -35 113 -158t-88.5 -210t-233.5 -87z" />
    <glyph glyph-name="four.numr" horiz-adv-x="704" 
d="M106 768l25 117l369 551h145l-364 -551h231l43 200h127l-43 -200h123l-27 -117h-123l-41 -193h-129l41 193h-377z" />
    <glyph glyph-name="five.numr" horiz-adv-x="702" 
d="M385 561q-128 0 -204.5 77.5t-53.5 197.5h129q-10 -70 27.5 -110t109.5 -40q77 0 140 63.5t63 151.5q0 59 -35 92t-98 33q-94 0 -156 -65l-119 6l140 469h467l-25 -123h-350l-76 -238q28 24 70.5 37.5t81.5 13.5q108 0 170.5 -55.5t62.5 -155.5q0 -147 -99.5 -250.5
t-244.5 -103.5z" />
    <glyph glyph-name="six.numr" horiz-adv-x="704" 
d="M397 561q-119 0 -193.5 71t-74.5 179q0 47 13.5 91t44.5 91.5t52.5 75t65.5 80.5l244 287h164l-264 -303q28 4 45 4q108 0 177.5 -68.5t69.5 -173.5q0 -135 -102.5 -234.5t-241.5 -99.5zM260 825q0 -61 42 -103t106 -42q81 0 142.5 60t61.5 145q0 65 -41 106t-108 41
q-80 0 -141.5 -62t-61.5 -145z" />
    <glyph glyph-name="seven.numr" horiz-adv-x="624" 
d="M119 575l491 738h-413l26 123h565l-22 -111l-498 -750h-149z" />
    <glyph glyph-name="eight.numr" horiz-adv-x="718" 
d="M399 561q-122 0 -196 58.5t-74 156.5q0 84 56 155.5t143 96.5q-95 48 -95 146q0 116 89.5 196t216.5 80q114 0 183 -53t69 -144q0 -72 -44 -133t-129 -92q49 -23 78 -66.5t29 -103.5q0 -126 -94 -211.5t-232 -85.5zM262 788q0 -52 37.5 -84t99.5 -32q77 0 136 52.5
t59 123.5q0 53 -37 84t-98 31q-79 0 -138 -52t-59 -123zM356 1188q-3 -48 32 -80.5t95 -32.5q76 0 130.5 48.5t54.5 113.5q0 47 -36 78t-93 31q-73 0 -126.5 -45.5t-56.5 -112.5z" />
    <glyph glyph-name="nine.numr" horiz-adv-x="702" 
d="M522 1450q119 0 194 -71t75 -179q0 -47 -13.5 -91t-45 -92t-52.5 -74.5t-66 -80.5l-243 -287h-164l264 304q-35 -5 -45 -5q-108 0 -178 68.5t-70 173.5q0 135 102.5 234.5t241.5 99.5zM307 1126q0 -65 41.5 -106t108.5 -41q80 0 141 62t61 145q0 61 -41.5 103t-105.5 42
q-81 0 -143 -60t-62 -145z" />
    <glyph glyph-name="zero.dnom.zero" horiz-adv-x="774" 
d="M303 -14q-145 0 -219 96t-39 254l47 215q68 323 350 323q146 0 218.5 -98t37.5 -266l-45 -215q-33 -151 -121 -230t-229 -79zM170 297l393 379q-37 78 -131 78q-88 0 -138.5 -57.5t-76.5 -172.5l-43 -202q-4 -16 -4 -25zM180 184q35 -75 133 -75q88 0 139.5 55t75.5 164
l43 204l7 35z" />
    <glyph glyph-name="zero.numr.zero" horiz-adv-x="772" 
d="M426 561q-145 0 -219 96t-39 254l47 215q68 324 350 324q146 0 218.5 -98.5t37.5 -266.5l-45 -215q-33 -151 -121 -230t-229 -79zM293 872l393 379q-37 78 -131 78q-88 0 -138.5 -57t-76.5 -172l-43 -203q-4 -16 -4 -25zM303 760q36 -76 133 -76q88 0 139.5 55t75.5 164
l43 205l6 35z" />
    <glyph glyph-name="zero.sinf" horiz-adv-x="772" 
d="M250 -260q-145 0 -219 96t-39 254l47 215q68 324 350 324q146 0 218.5 -98.5t37.5 -266.5l-45 -215q-33 -151 -121 -230t-229 -79zM121 76q-21 -100 18 -156.5t121 -56.5q88 0 139.5 55t75.5 164l43 205q21 100 -18.5 160.5t-120.5 60.5q-88 0 -138.5 -57t-76.5 -172z
" />
    <glyph glyph-name="one.sinf" horiz-adv-x="413" 
d="M334 612l-182 -858h-132l130 600h-140l27 117h51q43 0 73 25.5t38 64.5l12 51h123z" />
    <glyph glyph-name="two.sinf" horiz-adv-x="688" 
d="M-100 -246l24 107l363 303q64 51 94.5 79.5t55 69.5t24.5 84q0 51 -35.5 80t-93.5 29q-65 0 -111 -47t-61 -129h-127q29 148 111 223.5t206 75.5q110 0 178 -58.5t68 -152.5q0 -32 -8 -62.5t-16.5 -53t-31 -51.5t-35 -44t-45.5 -44.5t-44.5 -39t-50.5 -41.5l-238 -203
h371l-27 -125h-571z" />
    <glyph glyph-name="three.sinf" horiz-adv-x="706" 
d="M213 -260q-135 0 -211 78t-51 196h131q-13 -66 26.5 -110.5t108.5 -44.5q82 0 134 49.5t52 118.5q0 52 -37.5 81t-105.5 29h-39l25 113h37q81 0 135.5 44.5t54.5 113.5q0 49 -33.5 75.5t-93.5 26.5q-62 0 -113 -38t-65 -105h-127q27 126 116.5 194t207.5 68
q114 0 177.5 -52.5t63.5 -144.5q0 -77 -50 -142.5t-134 -94.5q113 -35 113 -158t-88.5 -210t-233.5 -87z" />
    <glyph glyph-name="four.sinf" horiz-adv-x="708" 
d="M-68 -53l25 116l369 551h145l-365 -551h232l43 201h127l-43 -201h123l-27 -116h-123l-41 -193h-129l41 193h-377z" />
    <glyph glyph-name="five.sinf" horiz-adv-x="702" 
d="M209 -260q-128 0 -204.5 77t-53.5 197h129q-10 -69 27.5 -109t109.5 -40q77 0 140 63.5t63 151.5q0 59 -35 92t-98 33q-93 0 -156 -66l-119 6l140 469h466l-24 -122h-350l-76 -238q28 24 70 37.5t81 13.5q108 0 171 -55.5t63 -155.5q0 -147 -99.5 -250.5t-244.5 -103.5z
" />
    <glyph glyph-name="six.sinf" horiz-adv-x="704" 
d="M223 -260q-119 0 -193.5 71t-74.5 179q0 47 13.5 91t44.5 91.5t52.5 75t65.5 80.5l244 286h164l-265 -303q28 4 45 4q108 0 178 -68t70 -173q0 -135 -102.5 -234.5t-241.5 -99.5zM86 4q0 -61 41.5 -103t105.5 -42q81 0 143 59.5t62 144.5q0 65 -41 106.5t-108 41.5
q-80 0 -141.5 -62t-61.5 -145z" />
    <glyph glyph-name="seven.sinf" horiz-adv-x="624" 
d="M-55 -246l491 738h-413l26 122h565l-22 -110l-498 -750h-149z" />
    <glyph glyph-name="eight.sinf" horiz-adv-x="720" 
d="M225 -260q-122 0 -196 58.5t-74 156.5q0 84 56 155.5t143 96.5q-95 48 -95 145q0 116 89.5 196.5t216.5 80.5q114 0 182.5 -53t68.5 -144q0 -72 -44 -133t-128 -92q49 -23 78 -66.5t29 -103.5q0 -126 -94 -211.5t-232 -85.5zM88 -33q0 -52 37.5 -84.5t99.5 -32.5
q77 0 136 53t59 124q0 53 -37 83.5t-98 30.5q-79 0 -138 -51.5t-59 -122.5zM182 367q-3 -48 32 -80.5t95 -32.5q76 0 130.5 48.5t54.5 113.5q0 47 -36 77.5t-93 30.5q-73 0 -126.5 -45t-56.5 -112z" />
    <glyph glyph-name="nine.sinf" horiz-adv-x="704" 
d="M348 629q119 0 193.5 -71t74.5 -179q0 -47 -13.5 -91t-44.5 -91.5t-52.5 -75t-65.5 -80.5l-243 -287h-164l264 303q-28 -4 -45 -4q-108 0 -178 68.5t-70 173.5q0 135 102.5 234.5t241.5 99.5zM133 305q0 -65 41.5 -106t108.5 -41q80 0 141 62t61 145q0 61 -41.5 103
t-105.5 42q-81 0 -143 -60t-62 -145z" />
    <glyph glyph-name="zero.sups" horiz-adv-x="772" 
d="M442 643q-145 0 -219 96t-39 254l47 215q68 324 351 324q146 0 218.5 -98.5t37.5 -266.5l-45 -215q-33 -151 -121.5 -230t-229.5 -79zM313 979q-21 -100 18.5 -156.5t121.5 -56.5q88 0 139.5 55t75.5 164l43 205q21 99 -19 160t-121 61q-88 0 -138.5 -57t-76.5 -172z" />
    <glyph glyph-name="one.sups" horiz-adv-x="413" 
d="M526 1516l-182 -859h-131l129 600h-139l26 117h52q43 0 72.5 25.5t37.5 64.5l12 52h123z" />
    <glyph glyph-name="two.sups" horiz-adv-x="686" 
d="M92 657l25 107l362 303q64 51 94.5 79.5t55 69.5t24.5 84q0 51 -35.5 80t-93.5 29q-65 0 -111 -47t-61 -129h-127q29 148 111.5 223.5t206.5 75.5q110 0 177.5 -58.5t67.5 -152.5q0 -32 -8 -62.5t-16.5 -53t-31 -51.5t-35 -44t-45.5 -44.5t-44.5 -39t-50.5 -41.5
l-238 -203h371l-26 -125h-572z" />
    <glyph glyph-name="three.sups" horiz-adv-x="706" 
d="M403 643q-134 0 -210.5 78.5t-51.5 196.5h131q-13 -66 27 -111t109 -45q82 0 134 49.5t52 118.5q0 52 -37.5 81t-105.5 29h-39l24 113h37q81 0 136 44.5t55 113.5q0 49 -33.5 75.5t-93.5 26.5q-62 0 -113.5 -38t-65.5 -105h-127q27 126 116.5 194t207.5 68
q114 0 178 -52.5t64 -144.5q0 -77 -50.5 -142.5t-134.5 -94.5q113 -35 113 -158t-88.5 -210t-233.5 -87z" />
    <glyph glyph-name="four.sups" horiz-adv-x="708" 
d="M123 854l24 117l369 551h146l-365 -551h231l43 200h127l-43 -200h123l-26 -117h-123l-41 -192h-129l41 192h-377z" />
    <glyph glyph-name="five.sups" horiz-adv-x="700" 
d="M401 647q-128 0 -204.5 77.5t-53.5 197.5h129q-10 -69 28 -109.5t110 -40.5q77 0 139.5 63.5t62.5 151.5q0 59 -35 92t-98 33q-93 0 -155 -65l-119 6l139 469h467l-25 -123h-350l-76 -238q28 24 70.5 37.5t81.5 13.5q108 0 170.5 -55.5t62.5 -155.5q0 -147 -99.5 -250.5
t-244.5 -103.5z" />
    <glyph glyph-name="six.sups" horiz-adv-x="706" 
d="M416 647q-119 0 -194 71t-75 179q0 47 13.5 91t45 92t52.5 74.5t66 80.5l243 287h164l-264 -303q28 4 45 4q108 0 178 -68.5t70 -173.5q0 -135 -102.5 -234.5t-241.5 -99.5zM279 911q0 -61 41.5 -103t105.5 -42q81 0 143 60t62 145q0 65 -41.5 106t-108.5 41
q-80 0 -141 -62t-61 -145z" />
    <glyph glyph-name="seven.sups" horiz-adv-x="624" 
d="M137 662l492 737h-414l27 123h565l-23 -111l-497 -749h-150z" />
    <glyph glyph-name="eight.sups" horiz-adv-x="720" 
d="M418 647q-122 0 -196.5 58.5t-74.5 156.5q0 84 56 155.5t143 96.5q-94 48 -94 146q0 116 89 196t216 80q114 0 183 -53t69 -144q0 -72 -44 -133t-128 -92q48 -23 77 -66.5t29 -103.5q0 -126 -93.5 -211.5t-231.5 -85.5zM281 874q0 -52 37.5 -84t99.5 -32q77 0 135.5 52.5
t58.5 123.5q0 53 -37 84t-98 31q-79 0 -137.5 -52t-58.5 -123zM375 1274q-3 -48 32 -80.5t95 -32.5q76 0 130 48.5t54 113.5q0 47 -36 78t-93 31q-73 0 -126 -45.5t-56 -112.5z" />
    <glyph glyph-name="nine.sups" horiz-adv-x="704" 
d="M541 1532q119 0 193.5 -71t74.5 -179q0 -47 -13.5 -91t-44.5 -91.5t-52.5 -75t-65.5 -80.5l-244 -287h-164l264 304q-35 -5 -45 -5q-108 0 -177.5 68.5t-69.5 173.5q0 135 102.5 234.5t241.5 99.5zM326 1208q0 -65 41 -106t108 -41q80 0 141.5 62t61.5 145q0 61 -42 103
t-106 42q-81 0 -142.5 -60t-61.5 -145z" />
    <glyph glyph-name="zero.sinf.zero" horiz-adv-x="772" 
d="M250 -260q-145 0 -219 96t-39 254l47 215q68 324 350 324q146 0 218.5 -98.5t37.5 -266.5l-45 -215q-33 -151 -121 -230t-229 -79zM117 51l393 379q-37 78 -131 78q-88 0 -138.5 -57t-76.5 -172l-43 -203q-4 -16 -4 -25zM127 -61q36 -76 133 -76q88 0 139.5 55t75.5 164
l43 205l6 35z" />
    <glyph glyph-name="zero.sups.zero" horiz-adv-x="772" 
d="M442 643q-145 0 -219 96t-39 254l47 215q68 324 351 324q146 0 218.5 -98.5t37.5 -266.5l-45 -215q-33 -151 -121.5 -230t-229.5 -79zM309 954l393 379q-37 78 -131 78q-88 0 -138.5 -57t-76.5 -172l-43 -203q-4 -16 -4 -25zM319 842q36 -76 134 -76q88 0 139.5 55
t75.5 164l43 205l6 35z" />
    <glyph glyph-name="colon.case" horiz-adv-x="512" 
d="M283 1161h229l-47 -223h-229zM90 250l47 223h230l-48 -223h-229z" />
    <glyph glyph-name="bullet.case" horiz-adv-x="823" 
d="M440 467q-105 0 -171 71t-60 177q5 104 78.5 175t177.5 71q106 0 172.5 -71t60.5 -175q-4 -105 -78.5 -176.5t-179.5 -71.5z" />
    <glyph glyph-name="question.ss02" horiz-adv-x="970" 
d="M319 397q22 103 56.5 165.5t105.5 121.5l176 150q94 85 130 144.5t36 137.5q0 72 -37 108t-96 36h-102q-78 0 -139 -52.5t-76 -132.5l-15 -74h-198l18 93q31 148 141 244t248 96h170q124 0 204.5 -73.5t80.5 -203.5q0 -121 -53 -220t-191 -220l-155 -135
q-48 -42 -72.5 -80.5t-38.5 -104.5h-193zM233 0l48 223h229l-47 -223h-230z" />
    <glyph glyph-name="questiondown.ss02" horiz-adv-x="948" 
d="M639 602q-22 -103 -56.5 -165.5t-105.5 -121.5l-176 -149q-94 -85 -130 -145t-36 -138q0 -71 37 -107t96 -36h103q78 0 139 52t76 132l14 74h199l-19 -92q-31 -148 -141 -244t-248 -96h-170q-124 0 -204 73t-80 203q0 122 52.5 221.5t190.5 219.5l156 135q48 42 72 80
t38 104h193zM449 776l47 223h229l-47 -223h-229z" />
    <glyph glyph-name="hyphen.case" horiz-adv-x="823" 
d="M156 672l37 174h577l-37 -174h-577z" />
    <glyph glyph-name="endash.case" horiz-adv-x="1220" 
d="M156 670l37 178h974l-39 -178h-972z" />
    <glyph glyph-name="emdash.case" horiz-adv-x="2289" 
d="M156 670l37 178h2043l-36 -178h-2044z" />
    <glyph glyph-name="parenleft.case" horiz-adv-x="659" 
d="M377 -193q-179 0 -258.5 116.5t-30.5 346.5l209 987q39 173 149.5 271t280.5 98h121l-37 -168h-68q-98 0 -169 -61.5t-97 -179.5l-213 -998q-26 -121 20 -183.5t148 -62.5h64l-35 -166h-84z" />
    <glyph glyph-name="parenright.case" horiz-adv-x="657" 
d="M375 1624q179 0 258.5 -116.5t30.5 -346.5l-209 -987q-39 -173 -149.5 -271t-280.5 -98h-121l37 168h67q98 0 169 62t97 180l213 997q26 121 -20 183.5t-148 62.5h-63l35 166h84z" />
    <glyph glyph-name="braceleft.case" horiz-adv-x="751" 
d="M449 -193q-153 0 -232 98t-43 271l59 273q14 65 -25 119t-116 71l33 154q86 18 148 75.5t79 139.5l68 317q27 132 126.5 216.5t244.5 84.5h147l-37 -170h-94q-75 0 -133 -49t-76 -137l-66 -307q-36 -167 -208 -248q61 -36 88.5 -111.5t7.5 -167.5l-55 -264
q-20 -90 18 -143.5t115 -53.5h90l-37 -168h-102z" />
    <glyph glyph-name="braceright.case" horiz-adv-x="751" 
d="M397 1624q153 0 232 -98t43 -271l-60 -272q-14 -65 25.5 -119t116.5 -71l-33 -154q-86 -18 -148 -75.5t-79 -139.5l-68 -318q-27 -132 -126.5 -216.5t-244.5 -84.5h-147l37 170h94q75 0 133 49.5t76 137.5l65 307q36 167 209 248q-61 37 -88.5 111.5t-7.5 166.5l55 265
q20 90 -18 143t-115 53h-90l37 168h102z" />
    <glyph glyph-name="bracketleft.case" horiz-adv-x="679" 
d="M557 1456l-313 -1476h272l-37 -173h-465l387 1819h465l-39 -170h-270z" />
    <glyph glyph-name="bracketright.case" horiz-adv-x="681" 
d="M217 -23l313 1477h-272l37 172h465l-387 -1819h-465l39 170h270z" />
    <glyph glyph-name="guillemotleft.case" horiz-adv-x="1341" 
d="M1139 219l-477 418l30 141l654 422l-41 -211l-443 -291l316 -288zM147 662l31 141l653 420l-43 -211l-440 -289l318 -291l-41 -190z" />
    <glyph glyph-name="guillemotright.case" horiz-adv-x="1345" 
d="M299 1210l477 -417l-31 -142l-653 -422l41 211l442 291l-315 289zM606 207l43 211l441 289l-318 290l41 191l477 -420l-30 -141z" />
    <glyph glyph-name="guilsinglleft.case" horiz-adv-x="827" 
d="M621 219l-476 418l31 141l653 422l-43 -209l-436 -295l312 -286z" />
    <glyph glyph-name="guilsinglright.case" horiz-adv-x="827" 
d="M297 1198l475 -418l-31 -141l-653 -422l43 209l436 295l-311 287z" />
    <glyph glyph-name="registered.alt" horiz-adv-x="1701" 
d="M858 -25q-146 0 -276.5 55t-223.5 148.5t-147.5 222.5t-54.5 273q0 156 63.5 301.5t169 251t249.5 168.5t298 63q195 0 357 -93t254.5 -253t92.5 -352q0 -156 -64 -301.5t-170 -251t-250 -169t-298 -63.5zM246 680q0 -127 47.5 -241.5t128.5 -197.5t195 -131.5t241 -48.5
q182 0 341.5 94.5t254 255.5t94.5 347q0 170 -80 311t-221 223t-311 82q-136 0 -263 -55.5t-220.5 -148.5t-150 -222t-56.5 -268zM594 326l168 788h201q103 0 168 -53t65 -141q0 -75 -36 -129t-101 -82q85 -56 59 -177l-45 -206h-129l43 194q13 62 -11 93.5t-97 31.5h-91
l-65 -319h-129zM813 754h84q84 0 126 45t42 106q0 42 -31.5 67t-87.5 25h-82z" />
    <glyph glyph-name="at.case" horiz-adv-x="1853" 
d="M911 438q67 0 126.5 31t99 80.5t62 110.5t22.5 122q0 91 -51.5 144t-141.5 53q-125 0 -218 -97t-93 -231q0 -93 53.5 -153t140.5 -60zM129 598q0 188 71 359.5t195 300.5t305.5 205.5t391.5 76.5q354 0 555.5 -169t201.5 -449q0 -62 -13 -131.5t-37.5 -141t-64 -136.5
t-88 -115.5t-115 -80.5t-140.5 -30q-161 0 -187 168q-60 -73 -152 -120.5t-192 -47.5q-147 0 -238.5 103.5t-91.5 252.5q0 92 36.5 179.5t99.5 155.5t156 109t198 41q94 0 159 -43.5t87 -121.5l32 149h181l-109 -502q-5 -25 -7 -38.5t-4 -36.5t1 -35.5t10 -26.5t21.5 -20.5
t35.5 -6.5q49 0 91 32.5t70 83.5t48.5 114t29.5 124t9 113q0 209 -152 335t-433 126q-169 0 -317 -61.5t-250 -166t-161 -245t-59 -295.5q0 -174 86 -300.5t237.5 -190.5t350.5 -64h366l-36 -170h-334q-188 0 -345 51.5t-267 144t-171 226.5t-61 295z" />
    <glyph glyph-name="uni030C.alt" 
d="M334 1096l127 409h188l-162 -409h-153z" />
    <glyph glyph-name="uni0308.case" 
d="M889 1708h198l-40 -186h-197zM420 1522l39 186h198l-39 -186h-198z" />
    <glyph glyph-name="uni0307.case" 
d="M461 1708h221l-39 -186h-221z" />
    <glyph glyph-name="gravecomb.case" 
d="M475 1776h215l148 -260h-174z" />
    <glyph glyph-name="acutecomb.case" 
d="M889 1776l-287 -260h-180l246 260h221z" />
    <glyph glyph-name="uni030B.case" 
d="M854 1780l-250 -264h-188l239 264h199zM817 1516l238 264h213l-275 -264h-176z" />
    </font>
</defs>
</svg>
